<?xml version="1.0" encoding="UTF-8" standalone="no"?>
<svg xmlns:dc="http://purl.org/dc/elements/1.1/" xmlns:cc="http://creativecommons.org/ns#" xmlns:rdf="http://www.w3.org/1999/02/22-rdf-syntax-ns#" xmlns:svg="http://www.w3.org/2000/svg" xmlns="http://www.w3.org/2000/svg" xmlns:sodipodi="http://sodipodi.sourceforge.net/DTD/sodipodi-0.dtd" xmlns:inkscape="http://www.inkscape.org/namespaces/inkscape" color-interpolation="auto" color-rendering="auto" font-size="12px" font-style="normal" font-weight="normal" height="100%" image-rendering="auto" shape-rendering="auto" stroke-miterlimit="10" text-rendering="auto" width="100%" id="svg2" version="1.1" inkscape:version="0.48.4 r9939" sodipodi:docname="schematic-celement.svg" style="font-size:12px;font-style:normal;font-weight:normal;fill:#000000;fill-opacity:1;stroke:#000000;stroke-width:1;stroke-linecap:square;stroke-linejoin:miter;stroke-miterlimit:10;stroke-opacity:1;stroke-dasharray:none;stroke-dashoffset:0;font-family:Dialog" viewBox="0 0 211 53" preserveAspectRatio="xMidYMid slice">
  <metadata
     id="metadata73">
    <rdf:RDF>
      <cc:Work
         rdf:about="">
        <dc:format>image/svg+xml</dc:format>
        <dc:type
           rdf:resource="http://purl.org/dc/dcmitype/StillImage" />
      </cc:Work>
    </rdf:RDF>
  </metadata>
  <sodipodi:namedview
     pagecolor="#ffffff"
     bordercolor="#666666"
     borderopacity="1"
     objecttolerance="10"
     gridtolerance="10"
     guidetolerance="10"
     inkscape:pageopacity="0"
     inkscape:pageshadow="2"
     inkscape:window-width="1858"
     inkscape:window-height="1058"
     id="namedview71"
     showgrid="false"
     fit-margin-top="0"
     fit-margin-left="0"
     fit-margin-right="0"
     fit-margin-bottom="0"
     inkscape:zoom="6.4963504"
     inkscape:cx="109.83521"
     inkscape:cy="26.5"
     inkscape:window-x="54"
     inkscape:window-y="-8"
     inkscape:window-maximized="1"
     inkscape:current-layer="g67" />
  <!--Generated by the Batik Graphics2D SVG Generator-->
  <defs
     id="genericDefs" />
  <g
     style="fill:#ffffff;stroke:#ffffff;stroke-width:0.06"
     id="g7"
     transform="matrix(50,0,0,50,103.09871,26.5)">
    <path
       style="stroke:none"
       inkscape:connector-curvature="0"
       id="path9"
       d="m -0.4062,-0.5 0.25,0 c 0.75,0 0.75,1 0,1 l -0.25,0 z" />
  </g>
  <g
     style="stroke-width:0.06"
     id="g11"
     transform="matrix(50,0,0,50,103.09871,26.5)">
    <path
       style="fill:none"
       inkscape:connector-curvature="0"
       id="path13"
       d="m -0.4062,-0.5 0.25,0 c 0.75,0 0.75,1 0,1 l -0.25,0 z" />
  </g>
  <g
     style="stroke-width:0.04"
     id="g15"
     transform="matrix(50,0,0,50,103.09871,26.5)">
    <line
       style="fill:none"
       id="line17"
       y2="0"
       y1="0"
       x2="1"
       x1="0.40619999" />
    <line
       style="fill:none"
       id="line19"
       y2="-0.25"
       y1="-0.25"
       x2="-1"
       x1="-0.40619999" />
    <line
       style="fill:none"
       id="line21"
       y2="0.25"
       y1="0.25"
       x2="-1"
       x1="-0.40619999" />
    <path
       style="fill:none"
       inkscape:connector-curvature="0"
       id="path23"
       d="m 0.075,-0.1299 a 0.15,0.15 0 1 0 0,0.2598" />
    <rect
       style="fill:#ffffff;stroke:none"
       id="rect25"
       y="-0.11"
       x="-0.11"
       width="0.22"
       transform="translate(1,0)"
       height="0.22" />
    <rect
       style="fill:none"
       id="rect27"
       y="-0.11"
       x="-0.11"
       width="0.22"
       transform="translate(1,0)"
       height="0.22" />
  </g>
  <g
     style="fill:#ffffff;stroke:#ffffff;stroke-width:0.04"
     id="g29"
     transform="matrix(50,0,0,50,53.098708,14)">
    <rect
       style="stroke:none"
       id="rect31"
       y="-0.11"
       x="-0.11"
       width="0.22"
       height="0.22" />
    <rect
       style="fill:none;stroke:#000000"
       id="rect33"
       y="-0.11"
       x="-0.11"
       width="0.22"
       height="0.22" />
  </g>
  <g
     style="fill:#ffffff;stroke:#ffffff;stroke-width:0.04"
     id="g35"
     transform="matrix(50,0,0,50,53.098708,39)">
    <rect
       style="stroke:none"
       id="rect37"
       y="-0.11"
       x="-0.11"
       width="0.22"
       height="0.22" />
    <rect
       style="fill:none;stroke:#000000"
       id="rect39"
       y="-0.11"
       x="-0.11"
       width="0.22"
       height="0.22" />
  </g>
  <g
     style="font-size:0.5px;font-style:italic;fill:#0000ff;stroke:#0000ff;stroke-width:0.04;font-family:sans-serif"
     id="g47"
     transform="matrix(50,0,0,50,158.27287,26.653933)"
     font-style="italic"
     font-size="0.5px">
    <path
       style="stroke:none"
       inkscape:connector-curvature="0"
       id="path49"
       d="m 0.35,0.0274 q 0,-0.0759 0.0447,-0.1257 0.0368,-0.0411 0.0966,-0.0411 0.0469,0 0.0756,0.0293 0.0287,0.0293 0.0287,0.0791 0,0.0447 -0.0181,0.0832 Q 0.5595,0.0906 0.5261,0.1111 0.4928,0.1316 0.456,0.1316 0.4257,0.1316 0.4009,0.1187 0.3761,0.1058 0.3631,0.0821 0.35,0.0584 0.35,0.0274 z M 0.3942,0.023 q 0,0.0366 0.0176,0.0555 0.0175,0.019 0.0446,0.019 0.0142,0 0.0281,-0.0058 Q 0.4984,0.086 0.5104,0.0743 0.5224,0.0625 0.5308,0.0475 0.5392,0.0325 0.5443,0.0152 0.5519,-0.009 0.5519,-0.0312 q 0,-0.0352 -0.0177,-0.0546 -0.0177,-0.0194 -0.0446,-0.0194 -0.0207,0 -0.0378,0.0099 Q 0.4347,-0.0854 0.4209,-0.0664 0.4071,-0.0473 0.4007,-0.022 0.3942,0.0032 0.3942,0.023 z m 0.4031,0.0559 q -0.0467,0.0527 -0.0955,0.0527 -0.03,0 -0.0485,-0.0172 -0.0184,-0.0172 -0.0184,-0.0421 0,-0.0163 0.0083,-0.0561 l 0.0313,-0.1497 0.0441,0 L 0.684,0.0323 Q 0.6796,0.053 0.6796,0.0645 q 0,0.0147 0.0089,0.0228 0.0089,0.0082 0.0262,0.0082 0.0186,0 0.0363,-0.009 Q 0.7687,0.0774 0.7815,0.0621 0.7943,0.0467 0.8024,0.0257 0.8078,0.0123 0.8148,-0.0214 l 0.0235,-0.1121 0.0442,0 -0.0542,0.2593 -0.0408,0 0.0098,-0.0469 z M 1.0016,0.0899 0.9943,0.126 q -0.0159,0.0042 -0.0308,0.0042 -0.0263,0 -0.042,-0.013 -0.0117,-0.0097 -0.0117,-0.0266 0,-0.0085 0.0064,-0.0393 l 0.0315,-0.1506 -0.035,0 0.0071,-0.0342 0.0349,0 0.0135,-0.0637 0.0505,-0.0305 -0.0198,0.0942 0.0435,0 -0.0073,0.0342 -0.0433,0 -0.03,0.1433 q -0.0056,0.0273 -0.0056,0.0327 0,0.0078 0.0045,0.012 0.0045,0.0041 0.0148,0.0041 0.0146,0 0.0261,-0.0029 z" />
  </g>
  <g
     style="font-size:0.5px;font-style:italic;fill:#ff0000;stroke:#ff0000;stroke-width:0.04;font-family:sans-serif"
     id="g57"
     transform="matrix(50,0,0,50,49.341405,14.307865)"
     font-style="italic"
     font-size="0.5px">
    <path
       style="stroke:none"
       inkscape:connector-curvature="0"
       id="path59"
       d="m -0.8996,-0.1821 0.0105,-0.05 0.044,0 -0.0105,0.05 -0.044,0 z m -0.0644,0.3079 0.0542,-0.2593 0.0442,0 -0.0542,0.2593 -0.0442,0 z m 0.1128,0 0.0542,-0.2593 0.04,0 -0.0095,0.0452 q 0.0261,-0.0266 0.0488,-0.0388 0.0227,-0.0123 0.0464,-0.0123 0.0315,0 0.0495,0.0171 0.0179,0.0171 0.0179,0.0457 0,0.0144 -0.0064,0.0454 l -0.0329,0.157 -0.0442,0 0.0344,-0.1643 q 0.0051,-0.024 0.0051,-0.0354 0,-0.013 -0.0089,-0.021 -0.0089,-0.0081 -0.0257,-0.0081 -0.034,0 -0.0604,0.0244 -0.0265,0.0244 -0.039,0.0838 l -0.0251,0.1206 -0.0442,0 z m 0.3818,0 0.0566,-0.2703 q -0.0366,0.0288 -0.103,0.0462 l 0.0083,-0.0401 q 0.033,-0.0132 0.0651,-0.0344 0.0321,-0.0212 0.0482,-0.0371 0.0098,-0.0098 0.0186,-0.0237 l 0.0256,0 -0.075,0.3594 -0.0444,0 z" />
  </g>
  <g
     style="font-size:0.5px;font-style:italic;fill:#ff0000;stroke:#ff0000;stroke-width:0.04;font-family:sans-serif"
     id="g67"
     transform="matrix(50,0,0,50,28.098708,39)"
     font-style="italic"
     font-size="0.5px">
    <path
       style="stroke:none"
       inkscape:connector-curvature="0"
       id="path69"
       d="m -0.49747416,-0.18517865 0.0105,-0.05 0.0439,0 -0.0105,0.05 -0.0439,0 z m -0.0645,0.3079 0.0542,-0.2593 0.0442,0 -0.0542,0.2593 -0.0442,0 z m 0.1128,0 0.0542,-0.2593 0.0401,0 -0.0096,0.0452 q 0.0262,-0.0266 0.0489,-0.0388 0.0227,-0.0123 0.0464,-0.0123 0.0315,0 0.0494,0.0171 0.0179,0.0171 0.0179,0.0457 0,0.0144 -0.0063,0.0454 l -0.033,0.157 -0.0442,0 0.0345,-0.1643 q 0.0051,-0.024 0.0051,-0.0354 0,-0.013 -0.0089,-0.021 -0.0089,-0.0081 -0.0258,-0.0081 -0.0339,0 -0.0604,0.0244 -0.0265,0.0244 -0.0389,0.0838 l -0.0252,0.1206 -0.0442,0 z m 0.2908,0 q 0.0068,-0.032 0.0189,-0.0536 0.0121,-0.0216 0.0321,-0.041 0.02,-0.0194 0.0772,-0.0651 0.0346,-0.0276 0.0473,-0.0408 0.0183,-0.019 0.0267,-0.0373 0.0056,-0.0125 0.0056,-0.0271 0,-0.0247 -0.0175,-0.0419 -0.0174,-0.0172 -0.0428,-0.0172 -0.0252,0 -0.044,0.0175 -0.0188,0.0174 -0.0268,0.056 l -0.0432,-0.0064 q 0.0063,-0.0476 0.0369,-0.075 0.0307,-0.0275 0.0763,-0.0275 0.0305,0 0.0553,0.0127 0.0248,0.0127 0.0373,0.0356 0.0124,0.023 0.0124,0.0474 0,0.0357 -0.0254,0.0686 -0.0156,0.0205 -0.0918,0.0808 -0.0327,0.0259 -0.0487,0.0425 -0.016,0.0166 -0.024,0.0313 l 0.1601,0 -0.0085,0.0405 -0.2134,0 z" />
  </g>
</svg>
