<?xml version="1.0" encoding="UTF-8" standalone="no"?>
<svg xmlns:dc="http://purl.org/dc/elements/1.1/" xmlns:cc="http://creativecommons.org/ns#" xmlns:rdf="http://www.w3.org/1999/02/22-rdf-syntax-ns#" xmlns:svg="http://www.w3.org/2000/svg" xmlns="http://www.w3.org/2000/svg" xmlns:sodipodi="http://sodipodi.sourceforge.net/DTD/sodipodi-0.dtd" xmlns:inkscape="http://www.inkscape.org/namespaces/inkscape" font-size="12px" font-style="normal" font-weight="normal" height="100%" stroke-miterlimit="10" width="100%" id="svg2" version="1.1" inkscape:version="0.91 r13725" sodipodi:docname="celement-step2.stg.svg" style="font-style:normal;font-weight:normal;font-size:12px;font-family:Dialog;color-interpolation:auto;fill:#000000;fill-opacity:1;stroke:#000000;stroke-width:1;stroke-linecap:square;stroke-linejoin:miter;stroke-miterlimit:10;stroke-dasharray:none;stroke-dashoffset:0;stroke-opacity:1;color-rendering:auto;image-rendering:auto;shape-rendering:auto;text-rendering:auto" viewBox="0 0 270 227" preserveAspectRatio="xMidYMid slice">
  <metadata
     id="metadata57">
    <rdf:RDF>
      <cc:Work
         rdf:about="">
        <dc:format>image/svg+xml</dc:format>
        <dc:type
           rdf:resource="http://purl.org/dc/dcmitype/StillImage" />
        <dc:title></dc:title>
      </cc:Work>
    </rdf:RDF>
  </metadata>
  <sodipodi:namedview
     pagecolor="#ffffff"
     bordercolor="#666666"
     borderopacity="1"
     objecttolerance="10"
     gridtolerance="10"
     guidetolerance="10"
     inkscape:pageopacity="0"
     inkscape:pageshadow="2"
     inkscape:window-width="1920"
     inkscape:window-height="1176"
     id="namedview55"
     showgrid="false"
     fit-margin-top="0"
     fit-margin-left="0"
     fit-margin-right="0"
     fit-margin-bottom="0"
     inkscape:zoom="0.45176006"
     inkscape:cx="333.15829"
     inkscape:cy="115.80917"
     inkscape:window-x="0"
     inkscape:window-y="24"
     inkscape:window-maximized="1"
     inkscape:current-layer="svg2" />
  <!--Generated by the Batik Graphics2D SVG Generator-->
  <defs
     id="genericDefs" />
  <g
     style="font-size:0.75px;font-family:sans-serif;fill:#0000b2;stroke:#0000b2"
     id="g7"
     transform="matrix(50,0,0,50,233.6781,117.5205)"
     font-size="0.75px">
    <path
       style="stroke:none"
       inkscape:connector-curvature="0"
       id="path9"
       d="m -0.707,-0.0077 q 0,-0.108 0.0601,-0.16 0.0502,-0.0433 0.1223,-0.0433 0.0802,0 0.1311,0.0526 0.0509,0.0525 0.0509,0.1452 0,0.0751 -0.0225,0.1181 -0.0225,0.043 -0.0656,0.0668 -0.043,0.0238 -0.0939,0.0238 -0.0817,0 -0.132,-0.0523 Q -0.707,0.0908 -0.707,-0.0077 Z m 0.0678,0 q 0,0.0747 0.0326,0.1119 0.0326,0.0371 0.082,0.0371 0.0491,0 0.0817,-0.0373 0.0326,-0.0374 0.0326,-0.1139 0,-0.0721 -0.0328,-0.1093 -0.0328,-0.0372 -0.0815,-0.0372 -0.0494,0 -0.082,0.037 -0.0326,0.037 -0.0326,0.1117 z m 0.6288,0.1945 0,-0.0572 q -0.0455,0.0659 -0.1235,0.0659 -0.0344,0 -0.0642,-0.0131 Q -0.228,0.1692 -0.2424,0.1492 -0.2569,0.1293 -0.2628,0.1003 -0.2668,0.0809 -0.2668,0.0388 l 0,-0.241 0.0659,0 0,0.2157 q 0,0.0517 0.0041,0.0696 0.0062,0.026 0.0263,0.0408 0.0202,0.0149 0.0498,0.0149 0.0297,0 0.0557,-0.0152 0.026,-0.0152 0.0368,-0.0414 0.0108,-0.0262 0.0108,-0.076 l 0,-0.2084 0.0659,0 0,0.389 -0.0589,0 z M 0.2957,0.1278 0.3052,0.186 Q 0.2774,0.1919 0.2554,0.1919 0.2195,0.1919 0.1998,0.1805 0.18,0.1692 0.1719,0.1507 0.1639,0.1322 0.1639,0.0729 l 0,-0.2238 -0.0484,0 0,-0.0513 0.0484,0 0,-0.0963 0.0655,-0.0395 0,0.1358 0.0663,0 0,0.0513 -0.0663,0 0,0.2274 q 0,0.0282 0.0035,0.0363 0.0035,0.008 0.0114,0.0128 0.0078,0.0048 0.0225,0.0048 0.011,0 0.0289,-0.0026 z M 0.4986,0.1 l 0,-0.1473 -0.1461,0 0,-0.0615 0.1461,0 0,-0.1461 0.0623,0 0,0.1461 0.1461,0 0,0.0615 -0.1461,0 0,0.1473 -0.0623,0 z" />
  </g>
  <g
     style="font-size:0.75px;font-family:sans-serif;fill:#b20000;stroke:#b20000"
     id="g11"
     transform="matrix(50,0,0,50,33.68,17.52)"
     font-size="0.75px">
    <path
       style="stroke:none"
       inkscape:connector-curvature="0"
       id="path13"
       d="m -0.6736,-0.2724 0,-0.0758 0.0659,0 0,0.0758 -0.0659,0 z m 0,0.4611 0,-0.3889 0.0659,0 0,0.3889 -0.0659,0 z m 0.1662,0 0,-0.3889 0.0593,0 0,0.0552 q 0.0429,-0.064 0.1238,-0.064 0.0352,0 0.0647,0.0126 0.0294,0.0126 0.0441,0.0331 0.0146,0.0206 0.0205,0.0488 0.0037,0.0183 0.0037,0.064 l 0,0.2392 -0.066,0 0,-0.2366 q 0,-0.0403 -0.0076,-0.0602 -0.0077,-0.02 -0.0273,-0.0319 -0.0196,-0.0119 -0.046,-0.0119 -0.0421,0 -0.0727,0.0267 -0.0306,0.0268 -0.0306,0.1015 l 0,0.2124 -0.0659,0 z m 0.6471,0 -0.0659,0 0,-0.4201 Q 0.05,-0.2087 0.0114,-0.186 -0.0273,-0.1632 -0.058,-0.1519 l 0,-0.0637 q 0.0553,-0.026 0.0966,-0.063 0.0414,-0.037 0.0586,-0.0718 l 0.0425,0 0,0.5391 z m 0.3256,-0.0868 0,-0.1472 -0.1461,0 0,-0.0616 0.1461,0 0,-0.1461 0.0622,0 0,0.1461 0.1461,0 0,0.0616 -0.1461,0 0,0.1472 -0.0622,0 z" />
  </g>
  <g
     style="font-size:0.75px;font-family:sans-serif;fill:#b20000;stroke:#b20000"
     id="g15"
     transform="matrix(50,0,0,50,33.68,217.52)"
     font-size="0.75px">
    <path
       style="stroke:none"
       inkscape:connector-curvature="0"
       id="path17"
       d="m -0.6736,-0.2724 0,-0.0758 0.0659,0 0,0.0758 -0.0659,0 z m 0,0.4611 0,-0.3889 0.0659,0 0,0.3889 -0.0659,0 z m 0.1662,0 0,-0.3889 0.0593,0 0,0.0552 q 0.0429,-0.064 0.1238,-0.064 0.0352,0 0.0647,0.0126 0.0294,0.0126 0.0441,0.0331 0.0146,0.0206 0.0205,0.0488 0.0037,0.0183 0.0037,0.064 l 0,0.2392 -0.066,0 0,-0.2366 q 0,-0.0403 -0.0076,-0.0602 -0.0077,-0.02 -0.0273,-0.0319 -0.0196,-0.0119 -0.046,-0.0119 -0.0421,0 -0.0727,0.0267 -0.0306,0.0268 -0.0306,0.1015 l 0,0.2124 -0.0659,0 z m 0.7453,-0.0634 0,0.0634 -0.3549,0 q -7e-4,-0.0238 0.0077,-0.0458 0.0135,-0.0363 0.0434,-0.0714 0.0298,-0.0352 0.0862,-0.0813 0.0876,-0.0718 0.1183,-0.1137 0.0308,-0.042 0.0308,-0.0793 0,-0.0392 -0.028,-0.0661 -0.0281,-0.0269 -0.0731,-0.0269 -0.0476,0 -0.0762,0.0285 -0.0285,0.0286 -0.0289,0.0791 l -0.0678,-0.0069 q 0.007,-0.0758 0.0524,-0.1156 0.0454,-0.0397 0.122,-0.0397 0.0772,0 0.1223,0.0429 0.045,0.0428 0.045,0.1062 0,0.0322 -0.0132,0.0633 Q 0.2108,-0.1069 0.1802,-0.0724 0.1496,-0.038 0.0786,0.022 0.0192,0.0718 0.0024,0.0896 -0.0145,0.1074 -0.0254,0.1253 l 0.2633,0 z m 0.2274,-0.0234 0,-0.1472 -0.1461,0 0,-0.0616 0.1461,0 0,-0.1461 0.0622,0 0,0.1461 0.1461,0 0,0.0616 -0.1461,0 0,0.1472 -0.0622,0 z" />
  </g>
  <g
     style="font-size:0.75px;font-family:sans-serif;stroke-width:0.02"
     id="g31"
     transform="matrix(50,0,0,50,333.68,117.52)"
     font-size="0.75px">
    <path
       style="fill:none"
       inkscape:connector-curvature="0"
       id="path33"
       d="m -5.2264,-1.6132 2.0617,1.0308" />
    <path
       style="stroke:none"
       inkscape:connector-curvature="0"
       id="path35"
       d="m -3.1312,-0.6494 -0.0671,0.1341 0.3913,0.1118 z" />
  </g>
  <g
     style="font-size:0.75px;font-family:sans-serif;stroke-width:0.02"
     id="g37"
     transform="matrix(50,0,0,50,333.68,117.52)"
     font-size="0.75px">
    <path
       style="fill:none"
       inkscape:connector-curvature="0"
       id="path39"
       d="M -5.2264,1.6132 -3.1647,0.5824" />
    <path
       style="stroke:none"
       inkscape:connector-curvature="0"
       id="path41"
       d="M -3.1983,0.5153 -3.1312,0.6494 -2.807,0.4035 Z" />
  </g>
</svg>
