<?xml version="1.0" encoding="UTF-8" standalone="no"?>
<!-- Created with Inkscape (http://www.inkscape.org/) -->

<svg xmlns:dc="http://purl.org/dc/elements/1.1/" xmlns:cc="http://creativecommons.org/ns#" xmlns:rdf="http://www.w3.org/1999/02/22-rdf-syntax-ns#" xmlns:svg="http://www.w3.org/2000/svg" xmlns="http://www.w3.org/2000/svg" xmlns:sodipodi="http://sodipodi.sourceforge.net/DTD/sodipodi-0.dtd" xmlns:inkscape="http://www.inkscape.org/namespaces/inkscape" width="100%" height="100%" id="svg2" version="1.1" inkscape:version="0.48.4 r9939" sodipodi:docname="boolean_network.svg" viewBox="0 0 1021 426" preserveAspectRatio="xMidYMid slice">
  <sodipodi:namedview
     id="base"
     pagecolor="#ffffff"
     bordercolor="#666666"
     borderopacity="1.0"
     inkscape:pageopacity="0.0"
     inkscape:pageshadow="2"
     inkscape:zoom="1.1111111"
     inkscape:cx="278.06844"
     inkscape:cy="209.3034"
     inkscape:document-units="px"
     inkscape:current-layer="layer1"
     showgrid="true"
     inkscape:snap-global="false"
     inkscape:window-width="1858"
     inkscape:window-height="1058"
     inkscape:window-x="54"
     inkscape:window-y="-8"
     inkscape:window-maximized="1"
     showguides="true"
     inkscape:guide-bbox="true"
     fit-margin-top="0"
     fit-margin-left="0"
     fit-margin-right="0"
     fit-margin-bottom="0">
    <inkscape:grid
       type="xygrid"
       id="grid3806"
       empspacing="5"
       visible="true"
       enabled="true"
       snapvisiblegridlinesonly="true"
       originx="66.260004px"
       originy="-553.20833px" />
  </sodipodi:namedview>
  <defs
     id="defs4">
    <marker
       inkscape:stockid="TriangleOutM"
       orient="auto"
       refY="0"
       refX="0"
       id="TriangleOutM"
       style="overflow:visible">
      <path
         id="path4000"
         d="m 5.77,0 -8.65,5 0,-10 8.65,5 z"
         style="fill-rule:evenodd;stroke:#000000;stroke-width:1pt"
         transform="scale(0.4,0.4)"
         inkscape:connector-curvature="0" />
    </marker>
    <marker
       inkscape:stockid="Arrow2Mend"
       orient="auto"
       refY="0"
       refX="0"
       id="Arrow2Mend"
       style="overflow:visible">
      <path
         id="path3882"
         style="fill-rule:evenodd;stroke-width:0.625;stroke-linejoin:round"
         d="M 8.7185878,4.0337352 -2.2072895,0.01601326 8.7185884,-4.0017078 c -1.7454984,2.3720609 -1.7354408,5.6174519 -6e-7,8.035443 z"
         transform="scale(-0.6,-0.6)"
         inkscape:connector-curvature="0" />
    </marker>
    <marker
       inkscape:stockid="Arrow2Lend"
       orient="auto"
       refY="0"
       refX="0"
       id="Arrow2Lend"
       style="overflow:visible">
      <path
         id="path3876"
         style="fill-rule:evenodd;stroke-width:0.625;stroke-linejoin:round"
         d="M 8.7185878,4.0337352 -2.2072895,0.01601326 8.7185884,-4.0017078 c -1.7454984,2.3720609 -1.7354408,5.6174519 -6e-7,8.035443 z"
         transform="matrix(-1.1,0,0,-1.1,-1.1,0)"
         inkscape:connector-curvature="0" />
    </marker>
    <marker
       inkscape:stockid="DotM"
       orient="auto"
       refY="0"
       refX="0"
       id="DotM"
       style="overflow:visible">
      <path
         id="path3919"
         d="m -2.5,-1 c 0,2.76 -2.24,5 -5,5 -2.76,0 -5,-2.24 -5,-5 0,-2.76 2.24,-5 5,-5 2.76,0 5,2.24 5,5 z"
         style="fill-rule:evenodd;stroke:#000000;stroke-width:1pt"
         transform="matrix(0.4,0,0,0.4,2.96,0.4)"
         inkscape:connector-curvature="0" />
    </marker>
    <marker
       inkscape:stockid="Arrow1Mend"
       orient="auto"
       refY="0"
       refX="0"
       id="Arrow1Mend"
       style="overflow:visible">
      <path
         id="path3864"
         d="M 0,0 5,-5 -12.5,0 5,5 0,0 z"
         style="fill-rule:evenodd;stroke:#000000;stroke-width:1pt"
         transform="matrix(-0.4,0,0,-0.4,-4,0)"
         inkscape:connector-curvature="0" />
    </marker>
    <marker
       inkscape:stockid="Arrow1Lend"
       orient="auto"
       refY="0"
       refX="0"
       id="Arrow1Lend"
       style="overflow:visible">
      <path
         id="path3858"
         d="M 0,0 5,-5 -12.5,0 5,5 0,0 z"
         style="fill-rule:evenodd;stroke:#000000;stroke-width:1pt"
         transform="matrix(-0.8,0,0,-0.8,-10,0)"
         inkscape:connector-curvature="0" />
    </marker>
    <marker
       inkscape:stockid="Arrow1Mend"
       orient="auto"
       refY="0"
       refX="0"
       id="Arrow1Mend-6"
       style="overflow:visible">
      <path
         inkscape:connector-curvature="0"
         id="path3864-1"
         d="M 0,0 5,-5 -12.5,0 5,5 0,0 z"
         style="fill-rule:evenodd;stroke:#000000;stroke-width:1pt"
         transform="matrix(-0.4,0,0,-0.4,-4,0)" />
    </marker>
    <marker
       inkscape:stockid="Arrow1Mend"
       orient="auto"
       refY="0"
       refX="0"
       id="Arrow1Mend-2"
       style="overflow:visible">
      <path
         inkscape:connector-curvature="0"
         id="path3864-3"
         d="M 0,0 5,-5 -12.5,0 5,5 0,0 z"
         style="fill-rule:evenodd;stroke:#000000;stroke-width:1pt"
         transform="matrix(-0.4,0,0,-0.4,-4,0)" />
    </marker>
    <marker
       inkscape:stockid="Arrow1Mend"
       orient="auto"
       refY="0"
       refX="0"
       id="Arrow1Mend-21"
       style="overflow:visible">
      <path
         inkscape:connector-curvature="0"
         id="path3864-6"
         d="M 0,0 5,-5 -12.5,0 5,5 0,0 z"
         style="fill-rule:evenodd;stroke:#000000;stroke-width:1pt"
         transform="matrix(-0.4,0,0,-0.4,-4,0)" />
    </marker>
    <marker
       inkscape:stockid="Arrow1Mend"
       orient="auto"
       refY="0"
       refX="0"
       id="Arrow1Mend-5"
       style="overflow:visible">
      <path
         inkscape:connector-curvature="0"
         id="path3864-7"
         d="M 0,0 5,-5 -12.5,0 5,5 0,0 z"
         style="fill-rule:evenodd;stroke:#000000;stroke-width:1pt"
         transform="matrix(-0.4,0,0,-0.4,-4,0)" />
    </marker>
    <marker
       inkscape:stockid="DotM"
       orient="auto"
       refY="0"
       refX="0"
       id="DotM-1"
       style="overflow:visible">
      <path
         inkscape:connector-curvature="0"
         id="path3919-8"
         d="m -2.5,-1 c 0,2.76 -2.24,5 -5,5 -2.76,0 -5,-2.24 -5,-5 0,-2.76 2.24,-5 5,-5 2.76,0 5,2.24 5,5 z"
         style="fill-rule:evenodd;stroke:#000000;stroke-width:1pt"
         transform="matrix(0.4,0,0,0.4,2.96,0.4)" />
    </marker>
    <marker
       inkscape:stockid="DotM"
       orient="auto"
       refY="0"
       refX="0"
       id="DotM-2"
       style="overflow:visible">
      <path
         inkscape:connector-curvature="0"
         id="path3919-7"
         d="m -2.5,-1 c 0,2.76 -2.24,5 -5,5 -2.76,0 -5,-2.24 -5,-5 0,-2.76 2.24,-5 5,-5 2.76,0 5,2.24 5,5 z"
         style="fill-rule:evenodd;stroke:#000000;stroke-width:1pt"
         transform="matrix(0.4,0,0,0.4,2.96,0.4)" />
    </marker>
    <marker
       inkscape:stockid="DotM"
       orient="auto"
       refY="0"
       refX="0"
       id="DotM-5"
       style="overflow:visible">
      <path
         inkscape:connector-curvature="0"
         id="path3919-4"
         d="m -2.5,-1 c 0,2.76 -2.24,5 -5,5 -2.76,0 -5,-2.24 -5,-5 0,-2.76 2.24,-5 5,-5 2.76,0 5,2.24 5,5 z"
         style="fill-rule:evenodd;stroke:#000000;stroke-width:1pt"
         transform="matrix(0.4,0,0,0.4,2.96,0.4)" />
    </marker>
    <marker
       inkscape:stockid="DotM"
       orient="auto"
       refY="0"
       refX="0"
       id="DotM-12"
       style="overflow:visible">
      <path
         inkscape:connector-curvature="0"
         id="path3919-3"
         d="m -2.5,-1 c 0,2.76 -2.24,5 -5,5 -2.76,0 -5,-2.24 -5,-5 0,-2.76 2.24,-5 5,-5 2.76,0 5,2.24 5,5 z"
         style="fill-rule:evenodd;stroke:#000000;stroke-width:1pt"
         transform="matrix(0.4,0,0,0.4,2.96,0.4)" />
    </marker>
    <marker
       inkscape:stockid="DotM"
       orient="auto"
       refY="0"
       refX="0"
       id="DotM-11"
       style="overflow:visible">
      <path
         inkscape:connector-curvature="0"
         id="path3919-38"
         d="m -2.5,-1 c 0,2.76 -2.24,5 -5,5 -2.76,0 -5,-2.24 -5,-5 0,-2.76 2.24,-5 5,-5 2.76,0 5,2.24 5,5 z"
         style="fill-rule:evenodd;stroke:#000000;stroke-width:1pt"
         transform="matrix(0.4,0,0,0.4,2.96,0.4)" />
    </marker>
    <marker
       inkscape:stockid="DotM"
       orient="auto"
       refY="0"
       refX="0"
       id="DotM-4"
       style="overflow:visible">
      <path
         inkscape:connector-curvature="0"
         id="path3919-2"
         d="m -2.5,-1 c 0,2.76 -2.24,5 -5,5 -2.76,0 -5,-2.24 -5,-5 0,-2.76 2.24,-5 5,-5 2.76,0 5,2.24 5,5 z"
         style="fill-rule:evenodd;stroke:#000000;stroke-width:1pt"
         transform="matrix(0.4,0,0,0.4,2.96,0.4)" />
    </marker>
    <marker
       inkscape:stockid="DotM"
       orient="auto"
       refY="0"
       refX="0"
       id="DotM-7"
       style="overflow:visible">
      <path
         inkscape:connector-curvature="0"
         id="path3919-9"
         d="m -2.5,-1 c 0,2.76 -2.24,5 -5,5 -2.76,0 -5,-2.24 -5,-5 0,-2.76 2.24,-5 5,-5 2.76,0 5,2.24 5,5 z"
         style="fill-rule:evenodd;stroke:#000000;stroke-width:1pt"
         transform="matrix(0.4,0,0,0.4,2.96,0.4)" />
    </marker>
    <marker
       inkscape:stockid="TriangleOutM"
       orient="auto"
       refY="0"
       refX="0"
       id="TriangleOutM-1"
       style="overflow:visible">
      <path
         inkscape:connector-curvature="0"
         id="path4000-9"
         d="m 5.77,0 -8.65,5 0,-10 8.65,5 z"
         style="fill-rule:evenodd;stroke:#000000;stroke-width:1pt"
         transform="scale(0.4,0.4)" />
    </marker>
  </defs>
  <metadata
     id="metadata7">
    <rdf:RDF>
      <cc:Work
         rdf:about="">
        <dc:format>image/svg+xml</dc:format>
        <dc:type
           rdf:resource="http://purl.org/dc/dcmitype/StillImage" />
        <dc:title></dc:title>
      </cc:Work>
    </rdf:RDF>
  </metadata>
  <g
     inkscape:label="Layer 1"
     inkscape:groupmode="layer"
     id="layer1"
     transform="translate(66.260004,-74.356433)">
    <rect
       style="fill:none;stroke:#000000;stroke-width:3;stroke-miterlimit:10;stroke-opacity:1;stroke-dasharray:none;stroke-dashoffset:0"
       id="rect2985"
       width="95.100502"
       height="63.817448"
       x="103.85975"
       y="167.67722"
       ry="27.529095" />
    <text
       xml:space="preserve"
       style="font-size:40px;font-style:normal;font-weight:normal;line-height:125%;letter-spacing:0px;word-spacing:0px;fill:#00ff00;fill-opacity:1;stroke:none;font-family:Sans"
       x="130.13754"
       y="212.72481"
       id="text3755"
       sodipodi:linespacing="125%"><tspan
         sodipodi:role="line"
         id="tspan3757"
         x="130.13754"
         y="212.72481">Int</tspan></text>
    <rect
       style="fill:none;stroke:#000000;stroke-width:3;stroke-miterlimit:10;stroke-opacity:1;stroke-dasharray:none;stroke-dashoffset:0"
       id="rect2985-1"
       width="95.100502"
       height="63.817448"
       x="322.84119"
       y="167.80022"
       ry="27.529095" />
    <text
       xml:space="preserve"
       style="font-size:40px;font-style:normal;font-variant:normal;font-weight:normal;font-stretch:normal;text-align:start;line-height:125%;letter-spacing:0px;word-spacing:0px;writing-mode:lr-tb;text-anchor:start;fill:#0000ff;fill-opacity:1;stroke:none;font-family:Sans;-inkscape-font-specification:Sans"
       x="336.60574"
       y="214.09915"
       id="text3755-7"
       sodipodi:linespacing="125%"><tspan
         sodipodi:role="line"
         id="tspan3808"
         x="336.60574"
         y="214.09915">Intg</tspan></text>
    <rect
       style="fill:none;stroke:#000000;stroke-width:3;stroke-miterlimit:10;stroke-opacity:1;stroke-dasharray:none;stroke-dashoffset:0"
       id="rect2985-0"
       width="95.100502"
       height="63.817448"
       x="102.60844"
       y="387.2843"
       ry="27.529095" />
    <text
       xml:space="preserve"
       style="font-size:40px;font-style:normal;font-variant:normal;font-weight:normal;font-stretch:normal;text-align:start;line-height:125%;letter-spacing:0px;word-spacing:0px;writing-mode:lr-tb;text-anchor:start;fill:#00ff00;fill-opacity:1;stroke:none;font-family:Sans;-inkscape-font-specification:Sans"
       x="126.38358"
       y="431.08057"
       id="text3755-9"
       sodipodi:linespacing="125%"><tspan
         sodipodi:role="line"
         id="tspan3845"
         x="126.38358"
         y="431.08057">CII</tspan></text>
    <rect
       style="fill:none;stroke:#000000;stroke-width:3;stroke-miterlimit:10;stroke-opacity:1;stroke-dasharray:none;stroke-dashoffset:0"
       id="rect2985-8"
       width="95.100502"
       height="63.817448"
       x="324.09253"
       y="388.03299"
       ry="27.529095" />
    <text
       xml:space="preserve"
       style="font-size:40px;font-style:normal;font-variant:normal;font-weight:normal;font-stretch:normal;text-align:start;line-height:125%;letter-spacing:0px;word-spacing:0px;writing-mode:lr-tb;text-anchor:start;fill:#00ff00;fill-opacity:1;stroke:none;font-family:Sans;-inkscape-font-specification:Sans"
       x="344.11368"
       y="434.33191"
       id="text3755-8"
       sodipodi:linespacing="125%"><tspan
         sodipodi:role="line"
         id="tspan3847"
         x="344.11368"
         y="434.33191">Xis</tspan></text>
    <rect
       style="fill:none;stroke:#000000;stroke-width:3;stroke-miterlimit:10;stroke-opacity:1;stroke-dasharray:none;stroke-dashoffset:0"
       id="rect2985-4"
       width="95.100502"
       height="63.817448"
       x="202.71425"
       y="287.92719"
       ry="27.529095" />
    <text
       xml:space="preserve"
       style="font-size:40px;font-style:normal;font-variant:normal;font-weight:normal;font-stretch:normal;text-align:start;line-height:125%;letter-spacing:0px;word-spacing:0px;writing-mode:lr-tb;text-anchor:start;fill:#ff0000;fill-opacity:1;stroke:none;font-family:Sans;-inkscape-font-specification:Sans"
       x="230.24333"
       y="332.97476"
       id="text3755-5"
       sodipodi:linespacing="125%"><tspan
         sodipodi:role="line"
         id="tspan3843"
         x="230.24333"
         y="332.97476">CI</tspan></text>
    <path
       style="fill:#000000;stroke:#000000;stroke-width:3;stroke-linecap:butt;stroke-linejoin:miter;stroke-miterlimit:4;stroke-opacity:1;stroke-dasharray:none;marker-end:url(#TriangleOutM);fill-opacity:1"
       d="m 150.1587,385.40732 -1e-5,-146.40474"
       id="path4516"
       inkscape:connector-curvature="0"
       sodipodi:nodetypes="cc" />
    <path
       style="fill:#000000;stroke:#000000;stroke-width:3;stroke-linecap:butt;stroke-linejoin:miter;stroke-miterlimit:4;stroke-opacity:1;stroke-dasharray:none;marker-end:url(#DotM);fill-opacity:1"
       d="m 201.46292,192.57734 116.37298,-1e-5"
       id="path4516-4"
       inkscape:connector-curvature="0"
       sodipodi:nodetypes="cc" />
    <path
       style="fill:#000000;stroke:#000000;stroke-width:3;stroke-linecap:butt;stroke-linejoin:miter;stroke-miterlimit:4;stroke-opacity:1;stroke-dasharray:none;marker-end:url(#TriangleOutM);fill-opacity:1"
       d="m 196.45763,213.84982 121.37827,-1e-5"
       id="path4516-8"
       inkscape:connector-curvature="0"
       sodipodi:nodetypes="cc" />
    <path
       style="fill:#000000;stroke:#000000;stroke-width:3;stroke-linecap:butt;stroke-linejoin:miter;stroke-miterlimit:4;stroke-opacity:1;stroke-dasharray:none;marker-end:url(#DotM);fill-opacity:1"
       d="m 369.70344,387.90997 -2e-5,-150.1587"
       id="path4516-4-9"
       inkscape:connector-curvature="0"
       sodipodi:nodetypes="cc" />
    <path
       style="fill:#000000;stroke:#000000;stroke-width:3;stroke-linecap:butt;stroke-linejoin:miter;stroke-miterlimit:4;stroke-opacity:1;stroke-dasharray:none;marker-end:url(#DotM);fill-opacity:1"
       d="M 220.23277,290.36917 177.68779,234.05965"
       id="path4516-4-9-9"
       inkscape:connector-curvature="0"
       sodipodi:nodetypes="cc" />
    <path
       style="fill:#000000;stroke:#000000;stroke-width:3;stroke-linecap:butt;stroke-linejoin:miter;stroke-miterlimit:4;stroke-opacity:1;stroke-dasharray:none;marker-end:url(#DotM);fill-opacity:1"
       d="m 221.48409,351.68397 -35.03704,36.28834"
       id="path4516-4-9-3"
       inkscape:connector-curvature="0"
       sodipodi:nodetypes="cc" />
    <path
       style="fill:none;stroke:#000000;stroke-width:3;stroke-linecap:butt;stroke-linejoin:miter;stroke-miterlimit:4;stroke-opacity:1;stroke-dasharray:none;marker-end:url(#DotM)"
       d="m 284.05022,347.92999 41.29362,47.55025"
       id="path4516-4-9-34"
       inkscape:connector-curvature="0"
       sodipodi:nodetypes="cc" />
    <path
       style="fill:none;stroke:#000000;stroke-width:3;stroke-linecap:butt;stroke-linejoin:miter;stroke-miterlimit:4;stroke-opacity:1;stroke-dasharray:none;marker-end:url(#TriangleOutM);fill-opacity:1;fill-rule:nonzero"
       d="m 357.96415,167.12578 c -36.70546,-51.30422 62.98323,-50.0529 28.78041,-3.75397"
       id="path4516-4-9-9-7"
       inkscape:connector-curvature="0"
       sodipodi:nodetypes="cc" />
    <path
       style="fill:none;stroke:#000000;stroke-width:3;stroke-linecap:butt;stroke-linejoin:miter;stroke-miterlimit:4;stroke-opacity:1;stroke-dasharray:none;marker-end:url(#DotM)"
       d="m 417.4203,185.06242 c 51.30422,-36.70545 50.0529,62.98324 3.75397,28.78042"
       id="path4516-4-9-9-7-7"
       inkscape:connector-curvature="0"
       sodipodi:nodetypes="cc" />
    <path
       style="fill:#000000;stroke:#000000;stroke-width:3;stroke-linecap:butt;stroke-linejoin:miter;stroke-miterlimit:4;stroke-opacity:1;stroke-dasharray:none;marker-end:url(#DotM);fill-opacity:1"
       d="m 551.65839,175.16399 95.1005,-1e-5"
       id="path4516-4-3"
       inkscape:connector-curvature="0"
       sodipodi:nodetypes="cc" />
    <path
       style="fill:#000000;stroke:#000000;stroke-width:3;stroke-linecap:butt;stroke-linejoin:miter;stroke-miterlimit:4;stroke-opacity:1;stroke-dasharray:none;marker-end:url(#TriangleOutM);fill-opacity:1"
       d="m 551.65839,237.10445 96.35182,-1e-5"
       id="path4516-8-8"
       inkscape:connector-curvature="0"
       sodipodi:nodetypes="cc" />
    <rect
       style="fill:none;stroke:#000000;stroke-width:3;stroke-miterlimit:10;stroke-opacity:1;stroke-dasharray:none;stroke-dashoffset:0"
       id="rect2985-8-6"
       width="95.100502"
       height="63.817448"
       x="551.65839"
       y="267.13617"
       ry="27.529095" />
    <text
       xml:space="preserve"
       style="font-size:40px;font-style:normal;font-weight:normal;line-height:125%;letter-spacing:0px;word-spacing:0px;fill:#000000;fill-opacity:1;stroke:none;font-family:Sans"
       x="667.51624"
       y="185.17456"
       id="text6983"
       sodipodi:linespacing="125%"><tspan
         sodipodi:role="line"
         id="tspan6985"
         x="667.51624"
         y="185.17456">Repression</tspan></text>
    <text
       xml:space="preserve"
       style="font-size:40px;font-style:normal;font-weight:normal;line-height:125%;letter-spacing:0px;word-spacing:0px;fill:#000000;fill-opacity:1;stroke:none;font-family:Sans"
       x="670.71936"
       y="251.59811"
       id="text6987"
       sodipodi:linespacing="125%"><tspan
         sodipodi:role="line"
         id="tspan6989"
         x="670.71936"
         y="251.59811">Activation</tspan></text>
    <text
       xml:space="preserve"
       style="font-size:40px;font-style:normal;font-weight:normal;line-height:125%;letter-spacing:0px;word-spacing:0px;fill:#000000;fill-opacity:1;stroke:none;font-family:Sans"
       x="667.4967"
       y="310.30682"
       id="text6991"
       sodipodi:linespacing="125%"><tspan
         sodipodi:role="line"
         id="tspan6993"
         x="667.4967"
         y="310.30682">Entity</tspan></text>
    <rect
       style="fill:none;stroke:#000000;stroke-width:3;stroke-miterlimit:4;stroke-opacity:1;stroke-dasharray:none;stroke-dashoffset:0"
       id="rect6995"
       width="376.64807"
       height="188.94955"
       x="523.06335"
       y="151.38885"
       ry="2.5026457" />
    <g
       transform="matrix(6,0,0,6,-316.18571,44.81428)"
       id="g3129">
      <g
         style="font-style:normal;font-variant:normal;font-weight:normal;font-stretch:normal;letter-spacing:normal;word-spacing:normal;text-anchor:start;fill:none;stroke:#000000;stroke-linecap:butt;stroke-linejoin:miter;stroke-miterlimit:10.43299961;stroke-opacity:1;stroke-dasharray:none;stroke-dashoffset:0"
         id="content"
         transform="matrix(0.14285714,0,0,-0.14285714,-25,75)"
         xml:space="preserve"
         stroke-miterlimit="10.433"
         font-style="normal"
         font-variant="normal"
         font-weight="normal"
         font-stretch="normal"
         font-size-adjust="none"
         letter-spacing="normal"
         word-spacing="normal"><path
           style="fill:#000000;stroke-width:0"
           inkscape:connector-curvature="0"
           d="m 477.6,437.73 0.07,0 0.07,0 0.08,0 0.07,0 0.08,0.01 0.08,0 0.09,0.01 0.08,0 0.08,0.01 0.08,0.02 0.09,0.01 0.08,0.02 0.08,0.02 0.08,0.03 0.08,0.02 0.08,0.04 0.07,0.03 0.07,0.05 0.07,0.04 0.07,0.06 0.06,0.05 0.06,0.07 0.03,0.03 0.02,0.04 0.03,0.03 0.03,0.04 0.02,0.04 0.02,0.05 0.02,0.04 0.02,0.04 0.02,0.05 0.02,0.05 0.01,0.05 0.02,0.05 0.01,0.06 0.01,0.06 0.01,0.06 0.01,0.06 0,0.06 0.01,0.06 0,0.07 0,0.07 c 0,1.55 -1.19,1.55 -1.98,1.55 h -9.03 c -1.64,0 -1.99,-0.46 -1.99,-2.05 v -34.62 c 0,-1.55 0.3,-2.05 1.99,-2.05 h 9.03 c 0.73,0 1.98,0 1.98,1.5 0,1.55 -1.19,1.55 -1.98,1.55 h -7.58 v 32.62 z"
           id="path3132" /><path
           style="fill:#000000;stroke-width:0"
           inkscape:connector-curvature="0"
           d="m 496.47,433.61 h 5.38 c 0.75,0 2.04,0 2.04,1.48 0,1.55 -1.29,1.55 -2.04,1.55 h -14.19 c -0.75,0 -2.05,0 -2.05,-1.49 0,-1.54 1.3,-1.54 2.05,-1.54 h 5.38 v -24.36 h -5.38 c -0.75,0 -2.05,0 -2.05,-1.5 0,-1.55 1.3,-1.55 2.05,-1.55 h 14.19 c 0.75,0 2.04,0 2.04,1.5 0,1.55 -1.29,1.55 -2.04,1.55 h -5.38 z"
           id="path3134" /><path
           style="fill:#000000;stroke-width:0"
           inkscape:connector-curvature="0"
           d="m 516.1,425.32 0,0.15 0,0.14 0,0.14 -0.01,0.13 0,0.13 -0.01,0.12 0,0.12 -0.01,0.11 -0.02,0.11 -0.01,0.1 -0.02,0.1 -0.03,0.1 -0.03,0.09 -0.03,0.08 -0.04,0.08 -0.04,0.07 -0.05,0.07 -0.06,0.07 -0.06,0.06 -0.07,0.06 -0.07,0.05 -0.09,0.05 -0.04,0.02 -0.05,0.02 -0.05,0.02 -0.05,0.02 -0.05,0.01 -0.06,0.02 -0.06,0.01 -0.06,0.02 -0.06,0.01 -0.06,0.01 -0.07,0.01 -0.07,0.01 -0.07,0.01 -0.08,0.01 -0.08,0 -0.08,0.01 -0.08,0 -0.09,0.01 -0.09,0 -0.09,0 h -3.64 c -0.79,0 -2.04,0 -2.04,-1.55 0,-1.48 1.29,-1.48 2,-1.48 h 2.23 v -15.39 h -2.19 c -0.79,0 -2.04,0 -2.04,-1.55 0,-1.5 1.29,-1.5 2,-1.5 h 7.92 c 0.68,0 1.98,0 1.98,1.5 0,1.55 -1.23,1.55 -2.03,1.55 h -2.2 v 8.81 c 0,4.98 3.68,6.87 6.23,6.87 2.64,0 3.35,-1.39 3.35,-4.39 v -11.29 h -1.96 c -0.79,0 -2.04,0 -2.04,-1.55 0,-1.5 1.35,-1.5 2.04,-1.5 h 7.63 c 0.7,0 2,0 2,1.5 0,1.55 -1.25,1.55 -2.05,1.55 h -2.19 v 11.54 c 0,5.03 -2.54,7.17 -6.48,7.17 -3.35,0 -5.58,-1.68 -6.53,-2.64 z"
           id="path3136" /><path
           style="fill:#000000;stroke-width:0"
           inkscape:connector-curvature="0"
           d="m 545.05,424.64 h 8.17 c 0.75,0 1.99,0 1.99,1.48 0,1.55 -1.19,1.55 -1.99,1.55 h -8.17 v 4.09 c 0,0.94 0,2.03 -1.7,2.03 -1.74,0 -1.74,-1.03 -1.74,-2.03 v -4.09 h -4.34 c -0.8,0 -2.03,0 -2.03,-1.55 0,-1.48 1.23,-1.48 1.98,-1.48 h 4.39 v -12.16 c 0,-4.78 3.39,-6.58 7.02,-6.58 3.69,0 7.73,2.14 7.73,6.58 0,0.89 0,1.94 -1.75,1.94 -1.64,0 -1.68,-1.05 -1.68,-1.89 -0.07,-3.1 -2.9,-3.6 -4.05,-3.6 -3.83,0 -3.83,2.6 -3.83,3.85 z"
           id="path3138" /><path
           style="fill:#000000;stroke-width:0"
           inkscape:connector-curvature="0"
           d="m 575.19,438.73 0,0.14 0,0.14 -0.01,0.13 -0.01,0.12 0,0.12 -0.02,0.11 -0.01,0.11 -0.02,0.1 -0.02,0.1 -0.03,0.09 -0.03,0.09 -0.03,0.08 -0.04,0.07 -0.04,0.08 -0.05,0.06 -0.05,0.06 -0.06,0.06 -0.06,0.05 -0.06,0.05 -0.08,0.05 -0.08,0.04 -0.08,0.03 -0.09,0.04 -0.1,0.02 -0.1,0.03 -0.11,0.02 -0.12,0.02 -0.12,0.01 -0.14,0.01 -0.14,0.01 -0.07,0 -0.07,0.01 -0.08,0 -0.08,0 h -9.01 c -0.75,0 -1.99,0 -1.99,-1.5 0,-1.55 1.19,-1.55 1.99,-1.55 h 7.57 v -32.62 h -7.57 c -0.75,0 -1.99,0 -1.99,-1.5 0,-1.55 1.19,-1.55 1.99,-1.55 h 9.01 c 1.66,0 2,0.45 2,2.05 z"
           id="path3140" /><path
           style="fill:#000000;stroke-width:0"
           inkscape:connector-curvature="0"
           d="m 608.27,423.48 0.06,0 0.06,0 0.07,0 0.08,0 0.08,0.01 0.08,0 0.08,0.01 0.09,0.01 0.09,0.01 0.09,0.01 0.1,0.02 0.09,0.02 0.1,0.03 0.09,0.03 0.1,0.03 0.09,0.04 0.09,0.04 0.09,0.05 0.08,0.06 0.08,0.06 0.08,0.06 0.08,0.08 0.03,0.04 0.04,0.04 0.03,0.04 0.03,0.05 0.03,0.05 0.03,0.04 0.03,0.06 0.02,0.05 0.03,0.05 0.02,0.06 0.02,0.06 0.02,0.06 0.01,0.07 0.02,0.06 0.01,0.07 0.01,0.07 0.01,0.08 0.01,0.07 0,0.08 0,0.08 c 0,1.75 -1.84,1.75 -2.55,1.75 h -17.23 c -0.71,0 -2.55,0 -2.55,-1.75 0,-1.75 1.64,-1.75 2.25,-1.75 z"
           id="path3142" /><path
           style="fill:#000000;stroke-width:0"
           inkscape:connector-curvature="0"
           d="m 607.97,415.92 0.07,0 0.08,0 0.08,0 0.08,0 0.09,0 0.1,0.01 0.1,0.01 0.1,0.01 0.1,0.01 0.11,0.01 0.1,0.02 0.11,0.02 0.1,0.02 0.11,0.03 0.11,0.04 0.1,0.03 0.1,0.05 0.1,0.05 0.1,0.05 0.09,0.06 0.09,0.07 0.08,0.07 0.04,0.04 0.04,0.04 0.04,0.04 0.03,0.05 0.03,0.05 0.04,0.04 0.03,0.06 0.03,0.05 0.02,0.05 0.03,0.06 0.02,0.06 0.02,0.06 0.02,0.06 0.01,0.07 0.02,0.07 0.01,0.07 0.01,0.07 0,0.07 0.01,0.08 0,0.08 c 0,1.75 -1.66,1.75 -2.25,1.75 h -17.83 c -0.61,0 -2.25,0 -2.25,-1.75 0,-1.73 1.84,-1.73 2.55,-1.73 z"
           id="path3144" /><path
           style="fill:#000000;stroke-width:0"
           inkscape:connector-curvature="0"
           d="m 636.57,435.15 0,0.08 0,0.08 -0.01,0.08 0,0.08 0,0.17 -0.01,0.08 -0.01,0.09 -0.01,0.08 -0.01,0.09 -0.01,0.08 -0.02,0.09 -0.02,0.08 -0.03,0.08 -0.03,0.08 -0.03,0.08 -0.04,0.07 -0.04,0.07 -0.04,0.07 -0.06,0.07 -0.05,0.06 -0.07,0.06 -0.03,0.03 -0.04,0.03 -0.03,0.02 -0.04,0.03 -0.04,0.02 -0.04,0.02 -0.04,0.03 -0.05,0.01 -0.05,0.02 -0.05,0.02 -0.05,0.02 -0.05,0.01 -0.05,0.01 -0.06,0.01 -0.06,0.01 -0.06,0.01 -0.06,0.01 -0.06,0 -0.07,0 -0.07,0 c -0.9,0 -1.15,-0.5 -1.4,-0.84 -0.1,-0.2 -0.1,-0.3 -0.74,-1.55 -1.66,1.41 -3.94,2.39 -6.48,2.39 -6.43,0 -12,-6.67 -12,-15.73 0,-9.13 5.57,-15.8 12.04,-15.8 5.78,0 10.07,4.44 10.07,8.92 0,1.64 -1.19,1.64 -1.74,1.64 -0.45,0 -1.59,0 -1.7,-1.45 -0.35,-4.87 -4.38,-6.08 -6.42,-6.08 -4.53,0 -8.81,5.28 -8.81,12.77 0,7.42 4.32,12.7 8.76,12.7 2.99,0 5.72,-2.29 6.42,-6.33 0.16,-0.84 0.25,-1.64 1.75,-1.64 1.74,0 1.74,1.05 1.74,2.03 z"
           id="path3146" /><path
           style="fill:#000000;stroke-width:0"
           inkscape:connector-curvature="0"
           d="m 653.41,433.61 h 5.37 c 0.75,0 2.05,0 2.05,1.48 0,1.55 -1.3,1.55 -2.05,1.55 H 644.6 c -0.75,0 -2.05,0 -2.05,-1.49 0,-1.54 1.3,-1.54 2.05,-1.54 h 5.37 v -24.36 h -5.37 c -0.75,0 -2.05,0 -2.05,-1.5 0,-1.55 1.3,-1.55 2.05,-1.55 h 14.18 c 0.75,0 2.05,0 2.05,1.5 0,1.55 -1.3,1.55 -2.05,1.55 h -5.37 z"
           id="path3148" /><path
           style="fill:#000000;stroke-width:0"
           inkscape:connector-curvature="0"
           d="m 679.57,433.61 h 5.37 c 0.75,0 2.05,0 2.05,1.48 0,1.55 -1.3,1.55 -2.05,1.55 h -14.19 c -0.75,0 -2.04,0 -2.04,-1.49 0,-1.54 1.29,-1.54 2.04,-1.54 h 5.38 v -24.36 h -5.38 c -0.75,0 -2.04,0 -2.04,-1.5 0,-1.55 1.29,-1.55 2.04,-1.55 h 14.19 c 0.75,0 2.05,0 2.05,1.5 0,1.55 -1.3,1.55 -2.05,1.55 h -5.37 z"
           id="path3150" /><path
           style="fill:#000000;stroke-width:0"
           inkscape:connector-curvature="0"
           d="m 705.72,419.7 h 7.08 c 0.6,0 2.35,0 2.35,1.75 0,1.73 -1.75,1.73 -2.35,1.73 h -7.08 v 7.13 c 0,0.61 0,2.34 -1.75,2.34 -1.73,0 -1.73,-1.73 -1.73,-2.34 v -7.13 h -7.08 c -0.59,0 -2.34,0 -2.34,-1.73 0,-1.75 1.75,-1.75 2.34,-1.75 h 7.08 v -7.13 c 0,-0.59 0,-2.34 1.73,-2.34 1.75,0 1.75,1.75 1.75,2.34 z"
           id="path3152" /><path
           style="fill:#000000;stroke-width:0"
           inkscape:connector-curvature="0"
           d="m 741.19,435.15 0,0.08 0,0.08 0,0.08 0,0.08 -0.01,0.17 0,0.08 -0.01,0.09 -0.01,0.08 -0.01,0.09 -0.02,0.08 -0.02,0.09 -0.02,0.08 -0.02,0.08 -0.03,0.08 -0.03,0.08 -0.04,0.07 -0.04,0.07 -0.05,0.07 -0.05,0.07 -0.06,0.06 -0.06,0.06 -0.03,0.03 -0.04,0.03 -0.04,0.02 -0.04,0.03 -0.04,0.02 -0.04,0.02 -0.04,0.03 -0.05,0.01 -0.04,0.02 -0.05,0.02 -0.05,0.02 -0.05,0.01 -0.06,0.01 -0.05,0.01 -0.06,0.01 -0.06,0.01 -0.06,0.01 -0.07,0 -0.06,0 -0.07,0 c -0.91,0 -1.16,-0.5 -1.41,-0.84 -0.09,-0.2 -0.09,-0.3 -0.73,-1.55 -1.66,1.41 -3.94,2.39 -6.49,2.39 -6.42,0 -12,-6.67 -12,-15.73 0,-9.13 5.58,-15.8 12.05,-15.8 5.78,0 10.06,4.44 10.06,8.92 0,1.64 -1.19,1.64 -1.73,1.64 -0.46,0 -1.6,0 -1.71,-1.45 -0.34,-4.87 -4.37,-6.08 -6.42,-6.08 -4.53,0 -8.81,5.28 -8.81,12.77 0,7.42 4.33,12.7 8.76,12.7 2.99,0 5.72,-2.29 6.43,-6.33 0.15,-0.84 0.25,-1.64 1.75,-1.64 1.73,0 1.73,1.05 1.73,2.03 z"
           id="path3154" /><path
           style="fill:#000000;stroke-width:0"
           inkscape:connector-curvature="0"
           d="m 758.03,433.61 h 5.38 c 0.75,0 2.05,0 2.05,1.48 0,1.55 -1.3,1.55 -2.05,1.55 h -14.19 c -0.75,0 -2.04,0 -2.04,-1.49 0,-1.54 1.29,-1.54 2.04,-1.54 h 5.38 v -24.36 h -5.38 c -0.75,0 -2.04,0 -2.04,-1.5 0,-1.55 1.29,-1.55 2.04,-1.55 h 14.19 c 0.75,0 2.05,0 2.05,1.5 0,1.55 -1.3,1.55 -2.05,1.55 h -5.38 z"
           id="path3156" /><path
           style="fill:#000000;stroke-width:0"
           inkscape:connector-curvature="0"
           d="m 786.38,430.96 -0.01,0.36 -0.01,0.34 -0.03,0.33 -0.03,0.32 -0.05,0.3 -0.05,0.3 -0.07,0.28 -0.07,0.28 -0.08,0.26 -0.09,0.25 -0.1,0.23 -0.1,0.23 -0.11,0.22 -0.12,0.2 -0.13,0.19 -0.13,0.19 -0.13,0.17 -0.15,0.16 -0.14,0.14 -0.16,0.14 -0.16,0.13 -0.16,0.11 -0.16,0.11 -0.17,0.09 -0.18,0.08 -0.17,0.07 -0.18,0.06 -0.19,0.05 -0.18,0.04 -0.19,0.03 -0.19,0.01 -0.19,0.01 c -1.65,0 -2.54,-1.3 -2.54,-2.49 0,-1.34 1,-2.5 2.48,-2.5 0.36,0 0.61,0.06 0.71,0.06 0.2,0 0.2,-0.45 0.2,-0.75 0,-0.95 -0.16,-4.53 -4.1,-6.82 -0.39,-0.25 -0.89,-0.5 -0.89,-1.3 0,-0.89 0.85,-1.59 1.55,-1.59 1.19,0 6.47,3.43 6.47,9.71 z"
           id="path3158" /></g>    </g>
    <g
       id="g4218"
       transform="matrix(6,0,0,6,-196.25713,394.56785)">
      <g
         word-spacing="normal"
         letter-spacing="normal"
         font-size-adjust="none"
         font-stretch="normal"
         font-weight="normal"
         font-variant="normal"
         font-style="normal"
         stroke-miterlimit="10.433"
         xml:space="preserve"
         transform="matrix(0.14285714,0,0,-0.14285714,-25,75)"
         id="g4220"
         style="font-style:normal;font-variant:normal;font-weight:normal;font-stretch:normal;letter-spacing:normal;word-spacing:normal;text-anchor:start;fill:none;stroke:#000000;stroke-linecap:butt;stroke-linejoin:miter;stroke-miterlimit:10.43299961;stroke-opacity:1;stroke-dasharray:none;stroke-dashoffset:0"><path
           id="path4222"
           d="m 477.6,437.73 0.07,0 0.07,0 0.08,0 0.07,0 0.08,0.01 0.08,0 0.09,0.01 0.08,0 0.08,0.01 0.08,0.02 0.09,0.01 0.08,0.02 0.08,0.02 0.08,0.03 0.08,0.02 0.08,0.04 0.07,0.03 0.07,0.05 0.07,0.04 0.07,0.06 0.06,0.05 0.06,0.07 0.03,0.03 0.02,0.04 0.03,0.03 0.03,0.04 0.02,0.04 0.02,0.05 0.02,0.04 0.02,0.04 0.02,0.05 0.02,0.05 0.01,0.05 0.02,0.05 0.01,0.06 0.01,0.06 0.01,0.06 0.01,0.06 0,0.06 0.01,0.06 0,0.07 0,0.07 c 0,1.55 -1.19,1.55 -1.98,1.55 h -9.03 c -1.64,0 -1.99,-0.46 -1.99,-2.05 v -34.62 c 0,-1.55 0.3,-2.05 1.99,-2.05 h 9.03 c 0.73,0 1.98,0 1.98,1.5 0,1.55 -1.19,1.55 -1.98,1.55 h -7.58 v 32.62 z"
           inkscape:connector-curvature="0"
           style="fill:#000000;stroke-width:0" /><path
           id="path4224"
           d="m 505.79,435.15 -0.01,0.08 0,0.08 0,0.08 0,0.08 0,0.17 -0.01,0.08 -0.01,0.09 -0.01,0.08 -0.01,0.09 -0.02,0.08 -0.01,0.09 -0.02,0.08 -0.03,0.08 -0.03,0.08 -0.03,0.08 -0.04,0.07 -0.04,0.07 -0.05,0.07 -0.05,0.07 -0.05,0.06 -0.07,0.06 -0.03,0.03 -0.04,0.03 -0.03,0.02 -0.04,0.03 -0.04,0.02 -0.04,0.02 -0.05,0.03 -0.04,0.01 -0.05,0.02 -0.05,0.02 -0.05,0.02 -0.05,0.01 -0.05,0.01 -0.06,0.01 -0.06,0.01 -0.06,0.01 -0.06,0.01 -0.06,0 -0.07,0 -0.07,0 c -0.91,0 -1.16,-0.5 -1.41,-0.84 -0.09,-0.2 -0.09,-0.3 -0.73,-1.55 -1.66,1.41 -3.94,2.39 -6.48,2.39 -6.43,0 -12,-6.67 -12,-15.73 0,-9.13 5.57,-15.8 12.04,-15.8 5.78,0 10.07,4.44 10.07,8.92 0,1.64 -1.19,1.64 -1.74,1.64 -0.45,0 -1.59,0 -1.7,-1.45 -0.35,-4.87 -4.38,-6.08 -6.42,-6.08 -4.54,0 -8.82,5.28 -8.82,12.77 0,7.42 4.33,12.7 8.77,12.7 2.98,0 5.72,-2.29 6.42,-6.33 0.16,-0.84 0.25,-1.64 1.75,-1.64 1.74,0 1.74,1.05 1.74,2.03 z"
           inkscape:connector-curvature="0"
           style="fill:#000000;stroke-width:0" /><path
           id="path4226"
           d="M 522.63,433.61 H 528 c 0.75,0 2.05,0 2.05,1.48 0,1.55 -1.3,1.55 -2.05,1.55 h -14.18 c -0.75,0 -2.05,0 -2.05,-1.49 0,-1.54 1.3,-1.54 2.05,-1.54 h 5.37 v -24.36 h -5.37 c -0.75,0 -2.05,0 -2.05,-1.5 0,-1.55 1.3,-1.55 2.05,-1.55 H 528 c 0.75,0 2.05,0 2.05,1.5 0,1.55 -1.3,1.55 -2.05,1.55 h -5.37 z"
           inkscape:connector-curvature="0"
           style="fill:#000000;stroke-width:0" /><path
           id="path4228"
           d="m 548.78,433.61 h 5.38 c 0.75,0 2.05,0 2.05,1.48 0,1.55 -1.3,1.55 -2.05,1.55 h -14.19 c -0.75,0 -2.04,0 -2.04,-1.49 0,-1.54 1.29,-1.54 2.04,-1.54 h 5.38 v -24.36 h -5.38 c -0.75,0 -2.04,0 -2.04,-1.5 0,-1.55 1.29,-1.55 2.04,-1.55 h 14.19 c 0.75,0 2.05,0 2.05,1.5 0,1.55 -1.3,1.55 -2.05,1.55 h -5.38 z"
           inkscape:connector-curvature="0"
           style="fill:#000000;stroke-width:0" /><path
           id="path4230"
           d="m 575.19,438.73 0,0.14 0,0.14 -0.01,0.13 -0.01,0.12 0,0.12 -0.02,0.11 -0.01,0.11 -0.02,0.1 -0.02,0.1 -0.03,0.09 -0.03,0.09 -0.03,0.08 -0.04,0.07 -0.04,0.08 -0.05,0.06 -0.05,0.06 -0.06,0.06 -0.06,0.05 -0.06,0.05 -0.08,0.05 -0.08,0.04 -0.08,0.03 -0.09,0.04 -0.1,0.02 -0.1,0.03 -0.11,0.02 -0.12,0.02 -0.12,0.01 -0.14,0.01 -0.14,0.01 -0.07,0 -0.07,0.01 -0.08,0 -0.08,0 h -9.01 c -0.75,0 -1.99,0 -1.99,-1.5 0,-1.55 1.19,-1.55 1.99,-1.55 h 7.57 v -32.62 h -7.57 c -0.75,0 -1.99,0 -1.99,-1.5 0,-1.55 1.19,-1.55 1.99,-1.55 h 9.01 c 1.66,0 2,0.45 2,2.05 z"
           inkscape:connector-curvature="0"
           style="fill:#000000;stroke-width:0" /><path
           id="path4232"
           d="m 608.27,423.48 0.06,0 0.06,0 0.07,0 0.08,0 0.08,0.01 0.08,0 0.08,0.01 0.09,0.01 0.09,0.01 0.09,0.01 0.1,0.02 0.09,0.02 0.1,0.03 0.09,0.03 0.1,0.03 0.09,0.04 0.09,0.04 0.09,0.05 0.08,0.06 0.08,0.06 0.08,0.06 0.08,0.08 0.03,0.04 0.04,0.04 0.03,0.04 0.03,0.05 0.03,0.05 0.03,0.04 0.03,0.06 0.02,0.05 0.03,0.05 0.02,0.06 0.02,0.06 0.02,0.06 0.01,0.07 0.02,0.06 0.01,0.07 0.01,0.07 0.01,0.08 0.01,0.07 0,0.08 0,0.08 c 0,1.75 -1.84,1.75 -2.55,1.75 h -17.23 c -0.71,0 -2.55,0 -2.55,-1.75 0,-1.75 1.64,-1.75 2.25,-1.75 z"
           inkscape:connector-curvature="0"
           style="fill:#000000;stroke-width:0" /><path
           id="path4234"
           d="m 607.97,415.92 0.07,0 0.08,0 0.08,0 0.08,0 0.09,0 0.1,0.01 0.1,0.01 0.1,0.01 0.1,0.01 0.11,0.01 0.1,0.02 0.11,0.02 0.1,0.02 0.11,0.03 0.11,0.04 0.1,0.03 0.1,0.05 0.1,0.05 0.1,0.05 0.09,0.06 0.09,0.07 0.08,0.07 0.04,0.04 0.04,0.04 0.04,0.04 0.03,0.05 0.03,0.05 0.04,0.04 0.03,0.06 0.03,0.05 0.02,0.05 0.03,0.06 0.02,0.06 0.02,0.06 0.02,0.06 0.01,0.07 0.02,0.07 0.01,0.07 0.01,0.07 0,0.07 0.01,0.08 0,0.08 c 0,1.75 -1.66,1.75 -2.25,1.75 h -17.83 c -0.61,0 -2.25,0 -2.25,-1.75 0,-1.73 1.84,-1.73 2.55,-1.73 z"
           inkscape:connector-curvature="0"
           style="fill:#000000;stroke-width:0" /><path
           id="path4236"
           d="m 636.57,435.15 0,0.08 0,0.08 -0.01,0.08 0,0.08 0,0.17 -0.01,0.08 -0.01,0.09 -0.01,0.08 -0.01,0.09 -0.01,0.08 -0.02,0.09 -0.02,0.08 -0.03,0.08 -0.03,0.08 -0.03,0.08 -0.04,0.07 -0.04,0.07 -0.04,0.07 -0.06,0.07 -0.05,0.06 -0.07,0.06 -0.03,0.03 -0.04,0.03 -0.03,0.02 -0.04,0.03 -0.04,0.02 -0.04,0.02 -0.04,0.03 -0.05,0.01 -0.05,0.02 -0.05,0.02 -0.05,0.02 -0.05,0.01 -0.05,0.01 -0.06,0.01 -0.06,0.01 -0.06,0.01 -0.06,0.01 -0.06,0 -0.07,0 -0.07,0 c -0.9,0 -1.15,-0.5 -1.4,-0.84 -0.1,-0.2 -0.1,-0.3 -0.74,-1.55 -1.66,1.41 -3.94,2.39 -6.48,2.39 -6.43,0 -12,-6.67 -12,-15.73 0,-9.13 5.57,-15.8 12.04,-15.8 5.78,0 10.07,4.44 10.07,8.92 0,1.64 -1.19,1.64 -1.74,1.64 -0.45,0 -1.59,0 -1.7,-1.45 -0.35,-4.87 -4.38,-6.08 -6.42,-6.08 -4.53,0 -8.81,5.28 -8.81,12.77 0,7.42 4.32,12.7 8.76,12.7 2.99,0 5.72,-2.29 6.42,-6.33 0.16,-0.84 0.25,-1.64 1.75,-1.64 1.74,0 1.74,1.05 1.74,2.03 z"
           inkscape:connector-curvature="0"
           style="fill:#000000;stroke-width:0" /><path
           id="path4238"
           d="m 653.41,433.61 h 5.37 c 0.75,0 2.05,0 2.05,1.48 0,1.55 -1.3,1.55 -2.05,1.55 H 644.6 c -0.75,0 -2.05,0 -2.05,-1.49 0,-1.54 1.3,-1.54 2.05,-1.54 h 5.37 v -24.36 h -5.37 c -0.75,0 -2.05,0 -2.05,-1.5 0,-1.55 1.3,-1.55 2.05,-1.55 h 14.18 c 0.75,0 2.05,0 2.05,1.5 0,1.55 -1.3,1.55 -2.05,1.55 h -5.37 z"
           inkscape:connector-curvature="0"
           style="fill:#000000;stroke-width:0" /><path
           id="path4240"
           d="m 681.75,430.96 0,0.36 -0.02,0.34 -0.02,0.33 -0.04,0.32 -0.04,0.3 -0.06,0.3 -0.06,0.28 -0.08,0.28 -0.08,0.26 -0.09,0.25 -0.09,0.23 -0.11,0.23 -0.11,0.22 -0.12,0.2 -0.12,0.19 -0.13,0.19 -0.14,0.17 -0.14,0.16 -0.15,0.14 -0.15,0.14 -0.16,0.13 -0.16,0.11 -0.17,0.11 -0.17,0.09 -0.17,0.08 -0.18,0.07 -0.18,0.06 -0.18,0.05 -0.19,0.04 -0.18,0.03 -0.19,0.01 -0.19,0.01 c -1.66,0 -2.55,-1.3 -2.55,-2.49 0,-1.34 1,-2.5 2.49,-2.5 0.36,0 0.61,0.06 0.7,0.06 0.2,0 0.2,-0.45 0.2,-0.75 0,-0.95 -0.15,-4.53 -4.09,-6.82 -0.39,-0.25 -0.89,-0.5 -0.89,-1.3 0,-0.89 0.84,-1.59 1.54,-1.59 1.19,0 6.47,3.43 6.47,9.71 z"
           inkscape:connector-curvature="0"
           style="fill:#000000;stroke-width:0" /></g>    </g>
    <g
       id="g4448"
       transform="matrix(6,0,0,6,180.84287,330.66785)">
      <g
         id="g4450"
         transform="matrix(0.14285714,0,0,-0.14285714,-25,75)"
         xml:space="preserve"
         stroke-miterlimit="10.433"
         font-style="normal"
         font-variant="normal"
         font-weight="normal"
         font-stretch="normal"
         font-size-adjust="none"
         letter-spacing="normal"
         word-spacing="normal"
         style="font-style:normal;font-variant:normal;font-weight:normal;font-stretch:normal;letter-spacing:normal;word-spacing:normal;text-anchor:start;fill:none;stroke:#000000;stroke-linecap:butt;stroke-linejoin:miter;stroke-miterlimit:10.43299961;stroke-opacity:1;stroke-dasharray:none;stroke-dashoffset:0"><path
           d="m 477.6,437.73 0.07,0 0.07,0 0.08,0 0.07,0 0.08,0.01 0.08,0 0.09,0.01 0.08,0 0.08,0.01 0.08,0.02 0.09,0.01 0.08,0.02 0.08,0.02 0.08,0.03 0.08,0.02 0.08,0.04 0.07,0.03 0.07,0.05 0.07,0.04 0.07,0.06 0.06,0.05 0.06,0.07 0.03,0.03 0.02,0.04 0.03,0.03 0.03,0.04 0.02,0.04 0.02,0.05 0.02,0.04 0.02,0.04 0.02,0.05 0.02,0.05 0.01,0.05 0.02,0.05 0.01,0.06 0.01,0.06 0.01,0.06 0.01,0.06 0,0.06 0.01,0.06 0,0.07 0,0.07 c 0,1.55 -1.19,1.55 -1.98,1.55 h -9.03 c -1.64,0 -1.99,-0.46 -1.99,-2.05 v -34.62 c 0,-1.55 0.3,-2.05 1.99,-2.05 h 9.03 c 0.73,0 1.98,0 1.98,1.5 0,1.55 -1.19,1.55 -1.98,1.55 h -7.58 v 32.62 z"
           id="path4452"
           inkscape:connector-curvature="0"
           style="fill:#000000;stroke-width:0" /><path
           d="m 496.18,422.43 5.62,11.18 h 1.09 c 0.75,0 2.05,0 2.05,1.48 0,1.55 -1.3,1.55 -2.05,1.55 h -5.17 c -0.75,0 -2,0 -2,-1.49 0,-1.54 1.16,-1.54 2.3,-1.54 l -3.55,-7.29 -3.83,7.29 c 1,0 2.15,0 2.15,1.54 0,1.49 -1.25,1.49 -1.99,1.49 h -5.19 c -0.75,0 -2.04,0 -2.04,-1.49 0,-1.54 1.29,-1.54 2.04,-1.54 h 1.14 l 5.99,-11.22 -6.63,-13.14 h -1.09 c -0.8,0 -2,0 -2,-1.55 0,-1.5 1.25,-1.5 2,-1.5 h 5.17 c 0.75,0 2.05,0 2.05,1.5 0,1.55 -1.2,1.55 -2.35,1.55 l 4.58,9.65 4.94,-9.65 c -1.14,0 -2.23,0 -2.23,-1.55 0,-1.5 1.23,-1.5 1.98,-1.5 h 5.19 c 0.75,0 2.04,0 2.04,1.5 0,1.55 -1.29,1.55 -2.04,1.55 h -1.16 z"
           id="path4454"
           inkscape:connector-curvature="0"
           style="fill:#000000;stroke-width:0" /><path
           d="m 523.22,425.64 0,0.14 0,0.13 -0.01,0.13 0,0.12 -0.01,0.12 -0.02,0.11 -0.01,0.11 -0.02,0.1 -0.02,0.1 -0.03,0.09 -0.03,0.08 -0.03,0.08 -0.04,0.08 -0.04,0.07 -0.05,0.07 -0.05,0.06 -0.05,0.05 -0.06,0.06 -0.07,0.04 -0.07,0.05 -0.08,0.04 -0.08,0.04 -0.09,0.03 -0.1,0.03 -0.1,0.02 -0.11,0.02 -0.12,0.02 -0.12,0.01 -0.13,0.01 -0.14,0.01 -0.15,0.01 -0.07,0 -0.08,0 h -7.08 c -0.75,0 -2.05,0 -2.05,-1.49 0,-1.54 1.3,-1.54 2.05,-1.54 h 5.62 v -15.39 h -6.03 c -0.79,0 -2.03,0 -2.03,-1.55 0,-1.5 1.3,-1.5 2.03,-1.5 h 14.71 c 0.75,0 2.04,0 2.04,1.5 0,1.55 -1.29,1.55 -2.04,1.55 h -5.24 z"
           id="path4456"
           inkscape:connector-curvature="0"
           style="fill:#000000;stroke-width:0" /><path
           d="m 523.22,434.2 0,0.13 -0.01,0.13 -0.02,0.12 -0.02,0.13 -0.02,0.12 -0.04,0.11 -0.04,0.12 -0.04,0.11 -0.05,0.11 -0.05,0.11 -0.06,0.11 -0.07,0.1 -0.07,0.09 -0.07,0.1 -0.08,0.09 -0.08,0.08 -0.08,0.08 -0.09,0.08 -0.1,0.08 -0.09,0.06 -0.11,0.07 -0.1,0.06 -0.11,0.05 -0.11,0.05 -0.11,0.05 -0.12,0.03 -0.11,0.04 -0.13,0.02 -0.12,0.03 -0.12,0.01 -0.13,0.01 -0.13,0 c -1.39,0 -2.5,-1.09 -2.5,-2.48 0,-1.39 1.11,-2.49 2.5,-2.49 1.39,0 2.48,1.1 2.48,2.49 z"
           id="path4458"
           inkscape:connector-curvature="0"
           style="fill:#000000;stroke-width:0" /><path
           d="m 548.83,418.9 -0.21,0.04 -0.21,0.04 -0.41,0.07 -0.41,0.06 -0.41,0.07 -0.21,0.04 -0.21,0.03 -0.21,0.04 -0.21,0.04 -0.22,0.04 -0.22,0.04 -0.23,0.04 -0.23,0.05 c -1.44,0.2 -4.83,0.79 -4.83,2.75 0,1.29 1.6,2.82 6.33,2.82 4.14,0 4.83,-1.48 4.99,-2.78 0.04,-0.84 0.14,-1.7 1.68,-1.7 1.75,0 1.75,1.05 1.75,2.05 v 3.43 c 0,0.8 0,2.05 -1.5,2.05 -1.18,0 -1.39,-0.7 -1.48,-1.05 -2.2,1.05 -4.39,1.05 -5.35,1.05 -8.31,0 -9.45,-4.08 -9.45,-5.87 0,-4.6 5.22,-5.44 9.82,-6.13 2.43,-0.41 6.42,-1.05 6.42,-3.69 0,-1.84 -1.85,-3.5 -6.38,-3.5 -2.34,0 -5.14,0.55 -6.37,4.44 -0.25,0.91 -0.46,1.45 -1.75,1.45 -1.74,0 -1.74,-1.04 -1.74,-2.04 v -4.83 c 0,-0.8 0,-2.05 1.49,-2.05 0.45,0 1.25,0.05 1.84,1.89 2.44,-1.79 5.08,-1.89 6.49,-1.89 7.87,0 9.46,4.14 9.46,6.53 0,5.18 -6.43,6.22 -8.03,6.47 z"
           id="path4460"
           inkscape:connector-curvature="0"
           style="fill:#000000;stroke-width:0" /><path
           d="m 575.19,438.73 0,0.14 0,0.14 -0.01,0.13 -0.01,0.12 0,0.12 -0.02,0.11 -0.01,0.11 -0.02,0.1 -0.02,0.1 -0.03,0.09 -0.03,0.09 -0.03,0.08 -0.04,0.07 -0.04,0.08 -0.05,0.06 -0.05,0.06 -0.06,0.06 -0.06,0.05 -0.06,0.05 -0.08,0.05 -0.08,0.04 -0.08,0.03 -0.09,0.04 -0.1,0.02 -0.1,0.03 -0.11,0.02 -0.12,0.02 -0.12,0.01 -0.14,0.01 -0.14,0.01 -0.07,0 -0.07,0.01 -0.08,0 -0.08,0 h -9.01 c -0.75,0 -1.99,0 -1.99,-1.5 0,-1.55 1.19,-1.55 1.99,-1.55 h 7.57 v -32.62 h -7.57 c -0.75,0 -1.99,0 -1.99,-1.5 0,-1.55 1.19,-1.55 1.99,-1.55 h 9.01 c 1.66,0 2,0.45 2,2.05 z"
           id="path4462"
           inkscape:connector-curvature="0"
           style="fill:#000000;stroke-width:0" /><path
           d="m 608.27,423.48 0.06,0 0.06,0 0.07,0 0.08,0 0.08,0.01 0.08,0 0.08,0.01 0.09,0.01 0.09,0.01 0.09,0.01 0.1,0.02 0.09,0.02 0.1,0.03 0.09,0.03 0.1,0.03 0.09,0.04 0.09,0.04 0.09,0.05 0.08,0.06 0.08,0.06 0.08,0.06 0.08,0.08 0.03,0.04 0.04,0.04 0.03,0.04 0.03,0.05 0.03,0.05 0.03,0.04 0.03,0.06 0.02,0.05 0.03,0.05 0.02,0.06 0.02,0.06 0.02,0.06 0.01,0.07 0.02,0.06 0.01,0.07 0.01,0.07 0.01,0.08 0.01,0.07 0,0.08 0,0.08 c 0,1.75 -1.84,1.75 -2.55,1.75 h -17.23 c -0.71,0 -2.55,0 -2.55,-1.75 0,-1.75 1.64,-1.75 2.25,-1.75 z"
           id="path4464"
           inkscape:connector-curvature="0"
           style="fill:#000000;stroke-width:0" /><path
           d="m 607.97,415.92 0.07,0 0.08,0 0.08,0 0.08,0 0.09,0 0.1,0.01 0.1,0.01 0.1,0.01 0.1,0.01 0.11,0.01 0.1,0.02 0.11,0.02 0.1,0.02 0.11,0.03 0.11,0.04 0.1,0.03 0.1,0.05 0.1,0.05 0.1,0.05 0.09,0.06 0.09,0.07 0.08,0.07 0.04,0.04 0.04,0.04 0.04,0.04 0.03,0.05 0.03,0.05 0.04,0.04 0.03,0.06 0.03,0.05 0.02,0.05 0.03,0.06 0.02,0.06 0.02,0.06 0.02,0.06 0.01,0.07 0.02,0.07 0.01,0.07 0.01,0.07 0,0.07 0.01,0.08 0,0.08 c 0,1.75 -1.66,1.75 -2.25,1.75 h -17.83 c -0.61,0 -2.25,0 -2.25,-1.75 0,-1.73 1.84,-1.73 2.55,-1.73 z"
           id="path4466"
           inkscape:connector-curvature="0"
           style="fill:#000000;stroke-width:0" /><path
           d="m 636.57,435.15 0,0.08 0,0.08 -0.01,0.08 0,0.08 0,0.17 -0.01,0.08 -0.01,0.09 -0.01,0.08 -0.01,0.09 -0.01,0.08 -0.02,0.09 -0.02,0.08 -0.03,0.08 -0.03,0.08 -0.03,0.08 -0.04,0.07 -0.04,0.07 -0.04,0.07 -0.06,0.07 -0.05,0.06 -0.07,0.06 -0.03,0.03 -0.04,0.03 -0.03,0.02 -0.04,0.03 -0.04,0.02 -0.04,0.02 -0.04,0.03 -0.05,0.01 -0.05,0.02 -0.05,0.02 -0.05,0.02 -0.05,0.01 -0.05,0.01 -0.06,0.01 -0.06,0.01 -0.06,0.01 -0.06,0.01 -0.06,0 -0.07,0 -0.07,0 c -0.9,0 -1.15,-0.5 -1.4,-0.84 -0.1,-0.2 -0.1,-0.3 -0.74,-1.55 -1.66,1.41 -3.94,2.39 -6.48,2.39 -6.43,0 -12,-6.67 -12,-15.73 0,-9.13 5.57,-15.8 12.04,-15.8 5.78,0 10.07,4.44 10.07,8.92 0,1.64 -1.19,1.64 -1.74,1.64 -0.45,0 -1.59,0 -1.7,-1.45 -0.35,-4.87 -4.38,-6.08 -6.42,-6.08 -4.53,0 -8.81,5.28 -8.81,12.77 0,7.42 4.32,12.7 8.76,12.7 2.99,0 5.72,-2.29 6.42,-6.33 0.16,-0.84 0.25,-1.64 1.75,-1.64 1.74,0 1.74,1.05 1.74,2.03 z"
           id="path4468"
           inkscape:connector-curvature="0"
           style="fill:#000000;stroke-width:0" /><path
           d="m 653.41,433.61 h 5.37 c 0.75,0 2.05,0 2.05,1.48 0,1.55 -1.3,1.55 -2.05,1.55 H 644.6 c -0.75,0 -2.05,0 -2.05,-1.49 0,-1.54 1.3,-1.54 2.05,-1.54 h 5.37 v -24.36 h -5.37 c -0.75,0 -2.05,0 -2.05,-1.5 0,-1.55 1.3,-1.55 2.05,-1.55 h 14.18 c 0.75,0 2.05,0 2.05,1.5 0,1.55 -1.3,1.55 -2.05,1.55 h -5.37 z"
           id="path4470"
           inkscape:connector-curvature="0"
           style="fill:#000000;stroke-width:0" /><path
           d="m 681.75,430.96 0,0.36 -0.02,0.34 -0.02,0.33 -0.04,0.32 -0.04,0.3 -0.06,0.3 -0.06,0.28 -0.08,0.28 -0.08,0.26 -0.09,0.25 -0.09,0.23 -0.11,0.23 -0.11,0.22 -0.12,0.2 -0.12,0.19 -0.13,0.19 -0.14,0.17 -0.14,0.16 -0.15,0.14 -0.15,0.14 -0.16,0.13 -0.16,0.11 -0.17,0.11 -0.17,0.09 -0.17,0.08 -0.18,0.07 -0.18,0.06 -0.18,0.05 -0.19,0.04 -0.18,0.03 -0.19,0.01 -0.19,0.01 c -1.66,0 -2.55,-1.3 -2.55,-2.49 0,-1.34 1,-2.5 2.49,-2.5 0.36,0 0.61,0.06 0.7,0.06 0.2,0 0.2,-0.45 0.2,-0.75 0,-0.95 -0.15,-4.53 -4.09,-6.82 -0.39,-0.25 -0.89,-0.5 -0.89,-1.3 0,-0.89 0.84,-1.59 1.54,-1.59 1.19,0 6.47,3.43 6.47,9.71 z"
           id="path4472"
           inkscape:connector-curvature="0"
           style="fill:#000000;stroke-width:0" /></g>    </g>
    <g
       id="g4946">
      <g
         transform="matrix(6,0,0,6,-18.95713,2.167854)"
         id="g4706">
        <g
           style="font-style:normal;font-variant:normal;font-weight:normal;font-stretch:normal;letter-spacing:normal;word-spacing:normal;text-anchor:start;fill:none;stroke:#000000;stroke-linecap:butt;stroke-linejoin:miter;stroke-miterlimit:10.43299961;stroke-opacity:1;stroke-dasharray:none;stroke-dashoffset:0"
           id="g4708"
           transform="matrix(0.14285714,0,0,-0.14285714,-25,75)"
           xml:space="preserve"
           stroke-miterlimit="10.433"
           font-style="normal"
           font-variant="normal"
           font-weight="normal"
           font-stretch="normal"
           font-size-adjust="none"
           letter-spacing="normal"
           word-spacing="normal"><path
             style="fill:#000000;stroke-width:0"
             inkscape:connector-curvature="0"
             d="m 477.6,437.73 0.07,0 0.07,0 0.08,0 0.07,0 0.08,0.01 0.08,0 0.09,0.01 0.08,0 0.08,0.01 0.08,0.02 0.09,0.01 0.08,0.02 0.08,0.02 0.08,0.03 0.08,0.02 0.08,0.04 0.07,0.03 0.07,0.05 0.07,0.04 0.07,0.06 0.06,0.05 0.06,0.07 0.03,0.03 0.02,0.04 0.03,0.03 0.03,0.04 0.02,0.04 0.02,0.05 0.02,0.04 0.02,0.04 0.02,0.05 0.02,0.05 0.01,0.05 0.02,0.05 0.01,0.06 0.01,0.06 0.01,0.06 0.01,0.06 0,0.06 0.01,0.06 0,0.07 0,0.07 c 0,1.55 -1.19,1.55 -1.98,1.55 h -9.03 c -1.64,0 -1.99,-0.46 -1.99,-2.05 v -34.62 c 0,-1.55 0.3,-2.05 1.99,-2.05 h 9.03 c 0.73,0 1.98,0 1.98,1.5 0,1.55 -1.19,1.55 -1.98,1.55 h -7.58 v 32.62 z"
             id="path4710" /><path
             style="fill:#000000;stroke-width:0"
             inkscape:connector-curvature="0"
             d="m 496.47,433.61 h 5.38 c 0.75,0 2.04,0 2.04,1.48 0,1.55 -1.29,1.55 -2.04,1.55 h -14.19 c -0.75,0 -2.05,0 -2.05,-1.49 0,-1.54 1.3,-1.54 2.05,-1.54 h 5.38 v -24.36 h -5.38 c -0.75,0 -2.05,0 -2.05,-1.5 0,-1.55 1.3,-1.55 2.05,-1.55 h 14.19 c 0.75,0 2.04,0 2.04,1.5 0,1.55 -1.29,1.55 -2.04,1.55 h -5.38 z"
             id="path4712" /><path
             style="fill:#000000;stroke-width:0"
             inkscape:connector-curvature="0"
             d="m 516.1,425.32 0,0.15 0,0.14 0,0.14 -0.01,0.13 0,0.13 -0.01,0.12 0,0.12 -0.01,0.11 -0.02,0.11 -0.01,0.1 -0.02,0.1 -0.03,0.1 -0.03,0.09 -0.03,0.08 -0.04,0.08 -0.04,0.07 -0.05,0.07 -0.06,0.07 -0.06,0.06 -0.07,0.06 -0.07,0.05 -0.09,0.05 -0.04,0.02 -0.05,0.02 -0.05,0.02 -0.05,0.02 -0.05,0.01 -0.06,0.02 -0.06,0.01 -0.06,0.02 -0.06,0.01 -0.06,0.01 -0.07,0.01 -0.07,0.01 -0.07,0.01 -0.08,0.01 -0.08,0 -0.08,0.01 -0.08,0 -0.09,0.01 -0.09,0 -0.09,0 h -3.64 c -0.79,0 -2.04,0 -2.04,-1.55 0,-1.48 1.29,-1.48 2,-1.48 h 2.23 v -15.39 h -2.19 c -0.79,0 -2.04,0 -2.04,-1.55 0,-1.5 1.29,-1.5 2,-1.5 h 7.92 c 0.68,0 1.98,0 1.98,1.5 0,1.55 -1.23,1.55 -2.03,1.55 h -2.2 v 8.81 c 0,4.98 3.68,6.87 6.23,6.87 2.64,0 3.35,-1.39 3.35,-4.39 v -11.29 h -1.96 c -0.79,0 -2.04,0 -2.04,-1.55 0,-1.5 1.35,-1.5 2.04,-1.5 h 7.63 c 0.7,0 2,0 2,1.5 0,1.55 -1.25,1.55 -2.05,1.55 h -2.19 v 11.54 c 0,5.03 -2.54,7.17 -6.48,7.17 -3.35,0 -5.58,-1.68 -6.53,-2.64 z"
             id="path4714" /><path
             style="fill:#000000;stroke-width:0"
             inkscape:connector-curvature="0"
             d="m 545.05,424.64 h 8.17 c 0.75,0 1.99,0 1.99,1.48 0,1.55 -1.19,1.55 -1.99,1.55 h -8.17 v 4.09 c 0,0.94 0,2.03 -1.7,2.03 -1.74,0 -1.74,-1.03 -1.74,-2.03 v -4.09 h -4.34 c -0.8,0 -2.03,0 -2.03,-1.55 0,-1.48 1.23,-1.48 1.98,-1.48 h 4.39 v -12.16 c 0,-4.78 3.39,-6.58 7.02,-6.58 3.69,0 7.73,2.14 7.73,6.58 0,0.89 0,1.94 -1.75,1.94 -1.64,0 -1.68,-1.05 -1.68,-1.89 -0.07,-3.1 -2.9,-3.6 -4.05,-3.6 -3.83,0 -3.83,2.6 -3.83,3.85 z"
             id="path4716" /><path
             style="fill:#000000;stroke-width:0"
             inkscape:connector-curvature="0"
             d="m 567.27,413.23 0.02,-0.01 0.03,-0.02 0.04,-0.03 0.05,-0.02 0.06,-0.04 0.06,-0.04 0.08,-0.04 0.08,-0.04 0.1,-0.05 0.1,-0.05 0.11,-0.05 0.11,-0.05 0.13,-0.06 0.13,-0.05 0.14,-0.06 0.15,-0.06 0.15,-0.05 0.16,-0.06 0.16,-0.05 0.17,-0.05 0.18,-0.05 0.19,-0.05 0.18,-0.05 0.2,-0.04 0.2,-0.04 0.2,-0.03 0.21,-0.03 0.21,-0.03 0.21,-0.02 0.22,-0.02 0.23,-0.01 0.22,0 v 2.98 c -2.68,0 -4.78,2.35 -4.78,4.99 0,2.84 2.19,5.03 4.78,5.03 2.69,0 4.78,-2.34 4.78,-4.98 0,-2.85 -2.18,-5.04 -4.78,-5.04 h 0 v -2.98 c 4.58,0 8.22,3.58 8.22,8.02 0,1.5 -0.45,2.93 -1.29,4.34 1.04,0.59 2.25,0.8 2.89,0.84 0.29,-1.34 1.45,-1.7 1.93,-1.7 0.86,0 2,0.61 2,2.05 0,1.15 -0.95,2.68 -3.64,2.68 -0.54,0 -2.98,-0.04 -5.28,-1.73 -0.8,0.55 -2.53,1.48 -4.83,1.48 -4.68,0 -8.22,-3.73 -8.22,-7.96 0,-2.14 0.85,-3.79 1.6,-4.74 -0.55,-0.8 -1,-1.89 -1,-3.39 0,-1.73 0.7,-2.98 1.14,-3.58 -3.69,-2.25 -3.69,-5.62 -3.69,-6.17 h 2.89 c 0,0.89 0.46,2.49 2.05,3.49 1.25,0.79 1.7,0.79 5.33,0.79 4.43,0 10.06,0 10.06,-4.28 0,-2.2 -3.73,-4.34 -8.72,-4.34 h 0 c -4.97,0 -8.72,2.14 -8.72,4.34 h -2.89 c 0,-4.3 5.24,-7.33 11.61,-7.33 6.39,0 11.61,3.1 11.61,7.33 0,1.84 -0.89,4.33 -3.44,5.67 -0.64,0.35 -2.73,1.46 -7.21,1.46 h -3.49 c -0.41,0 -1.05,0 -1.45,0.09 -0.75,0 -1.05,0 -1.64,0.7 -0.55,0.69 -0.6,1.69 -0.6,1.78 0,0.21 0.1,0.91 0.3,1.41 z"
             id="path4718" /><path
             style="fill:#000000;stroke-width:0"
             inkscape:connector-curvature="0"
             d="m 601.35,438.73 0,0.14 -0.01,0.14 0,0.13 -0.01,0.12 -0.01,0.12 -0.01,0.11 -0.02,0.11 -0.01,0.1 -0.03,0.1 -0.02,0.09 -0.03,0.09 -0.04,0.08 -0.03,0.07 -0.05,0.08 -0.04,0.06 -0.05,0.06 -0.06,0.06 -0.06,0.05 -0.07,0.05 -0.07,0.05 -0.08,0.04 -0.08,0.03 -0.09,0.04 -0.1,0.02 -0.1,0.03 -0.12,0.02 -0.11,0.02 -0.13,0.01 -0.13,0.01 -0.14,0.01 -0.07,0 -0.08,0.01 -0.07,0 -0.08,0 h -9.02 c -0.75,0 -1.98,0 -1.98,-1.5 0,-1.55 1.18,-1.55 1.98,-1.55 h 7.58 v -32.62 h -7.58 c -0.75,0 -1.98,0 -1.98,-1.5 0,-1.55 1.18,-1.55 1.98,-1.55 h 9.02 c 1.65,0 2,0.45 2,2.05 z"
             id="path4720" /><path
             style="fill:#000000;stroke-width:0"
             inkscape:connector-curvature="0"
             d="m 634.43,423.48 0.05,0 0.07,0 0.07,0 0.07,0 0.08,0.01 0.08,0 0.09,0.01 0.09,0.01 0.09,0.01 0.09,0.01 0.09,0.02 0.1,0.02 0.09,0.03 0.1,0.03 0.09,0.03 0.09,0.04 0.09,0.04 0.09,0.05 0.09,0.06 0.08,0.06 0.08,0.06 0.07,0.08 0.04,0.04 0.03,0.04 0.04,0.04 0.03,0.05 0.03,0.05 0.03,0.04 0.02,0.06 0.03,0.05 0.02,0.05 0.03,0.06 0.02,0.06 0.01,0.06 0.02,0.07 0.01,0.06 0.02,0.07 0.01,0.07 0.01,0.08 0,0.07 0,0.08 0.01,0.08 c 0,1.75 -1.85,1.75 -2.55,1.75 H 616.9 c -0.71,0 -2.55,0 -2.55,-1.75 0,-1.75 1.64,-1.75 2.25,-1.75 z"
             id="path4722" /><path
             style="fill:#000000;stroke-width:0"
             inkscape:connector-curvature="0"
             d="m 634.13,415.92 0.07,0 0.07,0 0.08,0 0.09,0 0.09,0 0.1,0.01 0.09,0.01 0.1,0.01 0.11,0.01 0.1,0.01 0.11,0.02 0.1,0.02 0.11,0.02 0.11,0.03 0.1,0.04 0.11,0.03 0.1,0.05 0.1,0.05 0.09,0.05 0.1,0.06 0.08,0.07 0.09,0.07 0.04,0.04 0.03,0.04 0.04,0.04 0.04,0.05 0.03,0.05 0.03,0.04 0.03,0.06 0.03,0.05 0.03,0.05 0.02,0.06 0.02,0.06 0.03,0.06 0.01,0.06 0.02,0.07 0.01,0.07 0.02,0.07 0,0.07 0.01,0.07 0,0.08 0.01,0.08 c 0,1.75 -1.66,1.75 -2.25,1.75 H 616.6 c -0.61,0 -2.25,0 -2.25,-1.75 0,-1.73 1.84,-1.73 2.55,-1.73 z"
             id="path4724" /><path
             style="fill:#000000;stroke-width:0"
             inkscape:connector-curvature="0"
             d="m 653.41,433.61 h 5.37 c 0.75,0 2.05,0 2.05,1.48 0,1.55 -1.3,1.55 -2.05,1.55 H 644.6 c -0.75,0 -2.05,0 -2.05,-1.49 0,-1.54 1.3,-1.54 2.05,-1.54 h 5.37 v -24.36 h -5.37 c -0.75,0 -2.05,0 -2.05,-1.5 0,-1.55 1.3,-1.55 2.05,-1.55 h 14.18 c 0.75,0 2.05,0 2.05,1.5 0,1.55 -1.3,1.55 -2.05,1.55 h -5.37 z"
             id="path4726" /><path
             style="fill:#000000;stroke-width:0"
             inkscape:connector-curvature="0"
             d="m 673.03,425.32 0,0.15 0,0.14 0,0.14 0,0.13 0,0.13 -0.01,0.12 -0.01,0.12 -0.01,0.11 -0.01,0.11 -0.02,0.1 -0.02,0.1 -0.02,0.1 -0.03,0.09 -0.03,0.08 -0.04,0.08 -0.04,0.07 -0.05,0.07 -0.06,0.07 -0.06,0.06 -0.07,0.06 -0.08,0.05 -0.08,0.05 -0.04,0.02 -0.05,0.02 -0.05,0.02 -0.05,0.02 -0.06,0.01 -0.05,0.02 -0.06,0.01 -0.06,0.02 -0.06,0.01 -0.07,0.01 -0.06,0.01 -0.07,0.01 -0.08,0.01 -0.07,0.01 -0.08,0 -0.08,0.01 -0.08,0 -0.09,0.01 -0.09,0 -0.09,0 h -3.64 c -0.8,0 -2.05,0 -2.05,-1.55 0,-1.48 1.3,-1.48 2,-1.48 h 2.24 v -15.39 h -2.19 c -0.8,0 -2.05,0 -2.05,-1.55 0,-1.5 1.3,-1.5 2,-1.5 h 7.92 c 0.69,0 1.99,0 1.99,1.5 0,1.55 -1.24,1.55 -2.03,1.55 h -2.21 v 8.81 c 0,4.98 3.69,6.87 6.24,6.87 2.64,0 3.34,-1.39 3.34,-4.39 v -11.29 h -1.95 c -0.8,0 -2.05,0 -2.05,-1.55 0,-1.5 1.36,-1.5 2.05,-1.5 h 7.62 c 0.71,0 2,0 2,1.5 0,1.55 -1.25,1.55 -2.04,1.55 h -2.19 v 11.54 c 0,5.03 -2.55,7.17 -6.48,7.17 -3.35,0 -5.58,-1.68 -6.54,-2.64 z"
             id="path4728" /><path
             style="fill:#000000;stroke-width:0"
             inkscape:connector-curvature="0"
             d="m 701.99,424.64 h 8.17 c 0.75,0 1.99,0 1.99,1.48 0,1.55 -1.19,1.55 -1.99,1.55 h -8.17 v 4.09 c 0,0.94 0,2.03 -1.71,2.03 -1.73,0 -1.73,-1.03 -1.73,-2.03 v -4.09 h -4.34 c -0.8,0 -2.03,0 -2.03,-1.55 0,-1.48 1.23,-1.48 1.98,-1.48 h 4.39 v -12.16 c 0,-4.78 3.39,-6.58 7.02,-6.58 3.68,0 7.73,2.14 7.73,6.58 0,0.89 0,1.94 -1.75,1.94 -1.64,0 -1.69,-1.05 -1.69,-1.89 -0.06,-3.1 -2.89,-3.6 -4.04,-3.6 -3.83,0 -3.83,2.6 -3.83,3.85 z"
             id="path4730" /><path
             style="fill:#000000;stroke-width:0"
             inkscape:connector-curvature="0"
             d="m 724.21,413.23 0.02,-0.01 0.03,-0.02 0.04,-0.03 0.04,-0.02 0.06,-0.04 0.07,-0.04 0.08,-0.04 0.08,-0.04 0.09,-0.05 0.11,-0.05 0.1,-0.05 0.12,-0.05 0.13,-0.06 0.13,-0.05 0.14,-0.06 0.14,-0.06 0.16,-0.05 0.16,-0.06 0.16,-0.05 0.17,-0.05 0.18,-0.05 0.18,-0.05 0.19,-0.05 0.19,-0.04 0.2,-0.04 0.21,-0.03 0.2,-0.03 0.22,-0.03 0.21,-0.02 0.22,-0.02 0.22,-0.01 0.23,0 v 2.98 c -2.69,0 -4.78,2.35 -4.78,4.99 0,2.84 2.19,5.03 4.78,5.03 2.69,0 4.78,-2.34 4.78,-4.98 0,-2.85 -2.19,-5.04 -4.78,-5.04 h 0 v -2.98 c 4.58,0 8.22,3.58 8.22,8.02 0,1.5 -0.45,2.93 -1.3,4.34 1.05,0.59 2.25,0.8 2.89,0.84 0.3,-1.34 1.46,-1.7 1.94,-1.7 0.86,0 2,0.61 2,2.05 0,1.15 -0.95,2.68 -3.64,2.68 -0.55,0 -2.98,-0.04 -5.28,-1.73 -0.8,0.55 -2.53,1.48 -4.83,1.48 -4.69,0 -8.22,-3.73 -8.22,-7.96 0,-2.14 0.85,-3.79 1.6,-4.74 -0.55,-0.8 -1,-1.89 -1,-3.39 0,-1.73 0.7,-2.98 1.14,-3.58 -3.69,-2.25 -3.69,-5.62 -3.69,-6.17 h 2.89 c 0,0.89 0.45,2.49 2.05,3.49 1.25,0.79 1.7,0.79 5.32,0.79 4.44,0 10.07,0 10.07,-4.28 0,-2.2 -3.74,-4.34 -8.72,-4.34 h 0 c -4.97,0 -8.72,2.14 -8.72,4.34 h -2.89 c 0,-4.3 5.23,-7.33 11.61,-7.33 6.39,0 11.61,3.1 11.61,7.33 0,1.84 -0.89,4.33 -3.44,5.67 -0.64,0.35 -2.73,1.46 -7.22,1.46 h -3.48 c -0.41,0 -1.05,0 -1.45,0.09 -0.75,0 -1.05,0 -1.65,0.7 -0.54,0.69 -0.59,1.69 -0.59,1.78 0,0.21 0.09,0.91 0.3,1.41 z"
             id="path4732" /><path
             style="fill:#000000;stroke-width:0"
             inkscape:connector-curvature="0"
             d="m 760.22,430.96 0,0.36 -0.02,0.34 -0.02,0.33 -0.04,0.32 -0.05,0.3 -0.05,0.3 -0.06,0.28 -0.08,0.28 -0.08,0.26 -0.09,0.25 -0.09,0.23 -0.11,0.23 -0.11,0.22 -0.12,0.2 -0.12,0.19 -0.13,0.19 -0.14,0.17 -0.14,0.16 -0.15,0.14 -0.15,0.14 -0.16,0.13 -0.16,0.11 -0.17,0.11 -0.17,0.09 -0.17,0.08 -0.18,0.07 -0.18,0.06 -0.18,0.05 -0.19,0.04 -0.18,0.03 -0.19,0.01 -0.19,0.01 c -1.66,0 -2.55,-1.3 -2.55,-2.49 0,-1.34 1,-2.5 2.48,-2.5 0.37,0 0.62,0.06 0.71,0.06 0.2,0 0.2,-0.45 0.2,-0.75 0,-0.95 -0.16,-4.53 -4.09,-6.82 -0.39,-0.25 -0.89,-0.5 -0.89,-1.3 0,-0.89 0.84,-1.59 1.54,-1.59 1.19,0 6.47,3.43 6.47,9.71 z"
             id="path4734" /><path
             style="fill:#000000;stroke-width:0"
             inkscape:connector-curvature="0"
             d="m 810.23,433.61 h 5.37 c 0.75,0 2.05,0 2.05,1.48 0,1.55 -1.3,1.55 -2.05,1.55 h -14.18 c -0.75,0 -2.05,0 -2.05,-1.49 0,-1.54 1.3,-1.54 2.05,-1.54 h 5.37 v -24.36 h -5.37 c -0.75,0 -2.05,0 -2.05,-1.5 0,-1.55 1.3,-1.55 2.05,-1.55 h 14.18 c 0.75,0 2.05,0 2.05,1.5 0,1.55 -1.3,1.55 -2.05,1.55 h -5.37 z"
             id="path4736" /><path
             style="fill:#000000;stroke-width:0"
             inkscape:connector-curvature="0"
             d="m 829.85,425.32 0,0.15 0,0.14 0,0.14 0,0.13 0,0.13 -0.01,0.12 -0.01,0.12 -0.01,0.11 -0.01,0.11 -0.02,0.1 -0.02,0.1 -0.02,0.1 -0.03,0.09 -0.03,0.08 -0.04,0.08 -0.04,0.07 -0.05,0.07 -0.06,0.07 -0.06,0.06 -0.07,0.06 -0.08,0.05 -0.08,0.05 -0.04,0.02 -0.05,0.02 -0.05,0.02 -0.05,0.02 -0.06,0.01 -0.05,0.02 -0.06,0.01 -0.06,0.02 -0.06,0.01 -0.07,0.01 -0.06,0.01 -0.07,0.01 -0.08,0.01 -0.07,0.01 -0.08,0 -0.08,0.01 -0.08,0 -0.09,0.01 -0.09,0 -0.09,0 h -3.64 c -0.8,0 -2.05,0 -2.05,-1.55 0,-1.48 1.3,-1.48 2,-1.48 h 2.24 v -15.39 h -2.19 c -0.8,0 -2.05,0 -2.05,-1.55 0,-1.5 1.3,-1.5 2,-1.5 h 7.92 c 0.69,0 1.99,0 1.99,1.5 0,1.55 -1.24,1.55 -2.03,1.55 h -2.21 v 8.81 c 0,4.98 3.69,6.87 6.24,6.87 2.64,0 3.34,-1.39 3.34,-4.39 v -11.29 h -1.95 c -0.8,0 -2.05,0 -2.05,-1.55 0,-1.5 1.36,-1.5 2.05,-1.5 h 7.62 c 0.71,0 2,0 2,1.5 0,1.55 -1.25,1.55 -2.04,1.55 h -2.19 v 11.54 c 0,5.03 -2.55,7.17 -6.48,7.17 -3.35,0 -5.58,-1.68 -6.54,-2.64 z"
             id="path4738" /><path
             style="fill:#000000;stroke-width:0"
             inkscape:connector-curvature="0"
             d="m 858.81,424.64 h 8.17 c 0.75,0 1.99,0 1.99,1.48 0,1.55 -1.19,1.55 -1.99,1.55 h -8.17 v 4.09 c 0,0.94 0,2.03 -1.71,2.03 -1.73,0 -1.73,-1.03 -1.73,-2.03 v -4.09 h -4.34 c -0.8,0 -2.03,0 -2.03,-1.55 0,-1.48 1.23,-1.48 1.98,-1.48 h 4.39 v -12.16 c 0,-4.78 3.39,-6.58 7.02,-6.58 3.68,0 7.73,2.14 7.73,6.58 0,0.89 0,1.94 -1.75,1.94 -1.64,0 -1.69,-1.05 -1.69,-1.89 -0.06,-3.1 -2.89,-3.6 -4.04,-3.6 -3.83,0 -3.83,2.6 -3.83,3.85 z"
             id="path4740" /><path
             style="fill:#000000;stroke-width:0"
             inkscape:connector-curvature="0"
             d="m 888.7,419.7 h 7.08 c 0.59,0 2.34,0 2.34,1.75 0,1.73 -1.75,1.73 -2.34,1.73 h -7.08 v 7.13 c 0,0.61 0,2.34 -1.75,2.34 -1.73,0 -1.73,-1.73 -1.73,-2.34 v -7.13 h -7.08 c -0.6,0 -2.35,0 -2.35,-1.73 0,-1.75 1.75,-1.75 2.35,-1.75 h 7.08 v -7.13 c 0,-0.59 0,-2.34 1.73,-2.34 1.75,0 1.75,1.75 1.75,2.34 z"
             id="path4742" /><path
             style="fill:#000000;stroke-width:0"
             inkscape:connector-curvature="0"
             d="m 914.85,433.61 h 5.38 c 0.75,0 2.05,0 2.05,1.48 0,1.55 -1.3,1.55 -2.05,1.55 h -14.19 c -0.75,0 -2.04,0 -2.04,-1.49 0,-1.54 1.29,-1.54 2.04,-1.54 h 5.38 v -24.36 h -5.38 c -0.75,0 -2.04,0 -2.04,-1.5 0,-1.55 1.29,-1.55 2.04,-1.55 h 14.19 c 0.75,0 2.05,0 2.05,1.5 0,1.55 -1.3,1.55 -2.05,1.55 h -5.38 z"
             id="path4744" /><path
             style="fill:#000000;stroke-width:0"
             inkscape:connector-curvature="0"
             d="m 934.48,425.32 0,0.15 0,0.14 0,0.14 0,0.13 -0.01,0.13 0,0.12 -0.01,0.12 -0.01,0.11 -0.01,0.11 -0.02,0.1 -0.02,0.1 -0.02,0.1 -0.03,0.09 -0.04,0.08 -0.03,0.08 -0.05,0.07 -0.05,0.07 -0.05,0.07 -0.07,0.06 -0.06,0.06 -0.08,0.05 -0.08,0.05 -0.05,0.02 -0.05,0.02 -0.05,0.02 -0.05,0.02 -0.05,0.01 -0.06,0.02 -0.05,0.01 -0.06,0.02 -0.07,0.01 -0.06,0.01 -0.07,0.01 -0.07,0.01 -0.07,0.01 -0.08,0.01 -0.07,0 -0.08,0.01 -0.09,0 -0.08,0.01 -0.09,0 -0.09,0 h -3.65 c -0.79,0 -2.04,0 -2.04,-1.55 0,-1.48 1.29,-1.48 2,-1.48 h 2.23 v -15.39 h -2.19 c -0.79,0 -2.04,0 -2.04,-1.55 0,-1.5 1.29,-1.5 2,-1.5 h 7.92 c 0.69,0 1.99,0 1.99,1.5 0,1.55 -1.24,1.55 -2.04,1.55 h -2.2 v 8.81 c 0,4.98 3.69,6.87 6.24,6.87 2.63,0 3.34,-1.39 3.34,-4.39 v -11.29 h -1.96 c -0.79,0 -2.04,0 -2.04,-1.55 0,-1.5 1.36,-1.5 2.04,-1.5 h 7.63 c 0.7,0 2,0 2,1.5 0,1.55 -1.25,1.55 -2.05,1.55 h -2.18 v 11.54 c 0,5.03 -2.55,7.17 -6.49,7.17 -3.34,0 -5.58,-1.68 -6.53,-2.64 z"
             id="path4746" /><path
             style="fill:#000000;stroke-width:0"
             inkscape:connector-curvature="0"
             d="m 963.43,424.64 h 8.17 c 0.75,0 1.99,0 1.99,1.48 0,1.55 -1.19,1.55 -1.99,1.55 h -8.17 v 4.09 c 0,0.94 0,2.03 -1.7,2.03 -1.73,0 -1.73,-1.03 -1.73,-2.03 v -4.09 h -4.35 c -0.8,0 -2.03,0 -2.03,-1.55 0,-1.48 1.23,-1.48 1.98,-1.48 h 4.4 v -12.16 c 0,-4.78 3.39,-6.58 7.01,-6.58 3.69,0 7.74,2.14 7.74,6.58 0,0.89 0,1.94 -1.75,1.94 -1.65,0 -1.69,-1.05 -1.69,-1.89 -0.06,-3.1 -2.89,-3.6 -4.05,-3.6 -3.83,0 -3.83,2.6 -3.83,3.85 z"
             id="path4748" /><path
             style="fill:#000000;stroke-width:0"
             inkscape:connector-curvature="0"
             d="m 985.65,413.23 0.02,-0.01 0.03,-0.02 0.04,-0.03 0.05,-0.02 0.06,-0.04 0.07,-0.04 0.07,-0.04 0.09,-0.04 0.09,-0.05 0.1,-0.05 0.11,-0.05 0.12,-0.05 0.12,-0.06 0.13,-0.05 0.14,-0.06 0.15,-0.06 0.15,-0.05 0.16,-0.06 0.17,-0.05 0.17,-0.05 0.18,-0.05 0.18,-0.05 0.19,-0.05 0.19,-0.04 0.2,-0.04 0.2,-0.03 0.21,-0.03 0.21,-0.03 0.22,-0.02 0.22,-0.02 0.22,-0.01 0.23,0 v 2.98 c -2.69,0 -4.79,2.35 -4.79,4.99 0,2.84 2.19,5.03 4.79,5.03 2.68,0 4.78,-2.34 4.78,-4.98 0,-2.85 -2.19,-5.04 -4.78,-5.04 h 0 v -2.98 c 4.58,0 8.21,3.58 8.21,8.02 0,1.5 -0.45,2.93 -1.29,4.34 1.04,0.59 2.25,0.8 2.89,0.84 0.35,-1.34 1.45,-1.7 1.95,-1.7 0.9,0 2,0.61 2,2.05 0,1.15 -1,2.68 -3.6,2.68 -0.6,0 -3.04,-0.04 -5.33,-1.73 -0.8,0.55 -2.54,1.48 -4.83,1.48 -4.69,0 -8.22,-3.73 -8.22,-7.96 0,-2.14 0.84,-3.79 1.59,-4.74 -0.54,-0.8 -1,-1.89 -1,-3.39 0,-1.73 0.71,-2.98 1.14,-3.58 -3.68,-2.25 -3.68,-5.62 -3.68,-6.17 h 2.88 c 0,0.89 0.46,2.49 2.05,3.49 1.25,0.79 1.7,0.79 5.33,0.79 4.44,0 10.07,0 10.07,-4.28 0,-2.2 -3.74,-4.34 -8.73,-4.34 h 0 c -4.97,0 -8.72,2.14 -8.72,4.34 h -2.88 c 0,-4.3 5.23,-7.33 11.6,-7.33 6.4,0 11.63,3.1 11.63,7.33 0,1.84 -0.9,4.33 -3.45,5.67 -0.65,0.35 -2.74,1.46 -7.22,1.46 h -3.49 c -0.4,0 -1.04,0 -1.45,0.09 -0.75,0 -1.05,0 -1.64,0.7 -0.55,0.69 -0.6,1.69 -0.6,1.78 0,0.21 0.1,0.91 0.3,1.41 z"
             id="path4750" /><path
             style="fill:#000000;stroke-width:0"
             inkscape:connector-curvature="0"
             d="m 1052.6,403.51 0,0.07 0,0.07 0,0.06 0,0.06 0,0.06 0,0.05 0,0.05 -0.1,0.05 0,0.05 0,0.05 0,0.05 0,0.04 -0.1,0.04 0,0.05 0,0.04 -0.1,0.04 0,0.04 -0.1,0.04 0,0.04 0,0.04 -0.1,0.04 0,0.04 -0.1,0.04 -0.1,0.05 0,0.04 -0.1,0.04 0,0.05 -0.1,0.05 -0.1,0.05 -0.1,0.05 0,0.05 -0.1,0.06 c -6.2,4.19 -8.5,10.81 -8.5,16.39 0,4.98 1.9,11.91 8.6,16.44 0.8,0.54 1.1,0.75 1.1,1.5 0,0.39 -0.2,1.39 -1.5,1.39 -1.5,0 -11.6,-6.58 -11.6,-19.33 0,-5.94 2.3,-10.42 4,-12.91 2.6,-3.64 6.4,-6.42 7.6,-6.42 1.3,0 1.5,0.99 1.5,1.39 z"
             id="path4752" /><path
             style="fill:#000000;stroke-width:0"
             inkscape:connector-curvature="0"
             d="m 1071.8,433.61 h 5.4 c 0.7,0 2,0 2,1.48 0,1.55 -1.3,1.55 -2,1.55 H 1063 c -0.8,0 -2.1,0 -2.1,-1.49 0,-1.54 1.3,-1.54 2.1,-1.54 h 5.4 v -24.36 h -5.4 c -0.8,0 -2.1,0 -2.1,-1.5 0,-1.55 1.3,-1.55 2.1,-1.55 h 14.2 c 0.7,0 2,0 2,1.5 0,1.55 -1.3,1.55 -2,1.55 h -5.4 z"
             id="path4754" /><path
             style="fill:#000000;stroke-width:0"
             inkscape:connector-curvature="0"
             d="m 1091.4,425.32 0,0.15 0,0.14 0,0.14 0,0.13 0,0.13 0,0.12 0,0.12 0,0.11 0,0.11 0,0.1 -0.1,0.1 0,0.1 0,0.09 0,0.08 -0.1,0.08 0,0.07 -0.1,0.07 0,0.07 -0.1,0.06 -0.1,0.06 0,0.05 -0.1,0.05 -0.1,0.02 0,0.02 -0.1,0.02 0,0.02 -0.1,0.01 0,0.02 -0.1,0.01 0,0.02 -0.1,0.01 -0.1,0.01 0,0.01 -0.1,0.01 -0.1,0.01 -0.1,0.01 0,0 -0.1,0.01 -0.1,0 -0.1,0.01 -0.1,0 -0.1,0 h -3.6 c -0.8,0 -2,0 -2,-1.55 0,-1.48 1.3,-1.48 2,-1.48 h 2.2 v -15.39 h -2.2 c -0.8,0 -2,0 -2,-1.55 0,-1.5 1.3,-1.5 2,-1.5 h 7.9 c 0.7,0 2,0 2,1.5 0,1.55 -1.3,1.55 -2.1,1.55 h -2.2 v 8.81 c 0,4.98 3.7,6.87 6.3,6.87 2.6,0 3.3,-1.39 3.3,-4.39 v -11.29 h -1.9 c -0.8,0 -2.1,0 -2.1,-1.55 0,-1.5 1.4,-1.5 2.1,-1.5 h 7.6 c 0.7,0 2,0 2,1.5 0,1.55 -1.3,1.55 -2.1,1.55 h -2.2 v 11.54 c 0,5.03 -2.5,7.17 -6.5,7.17 -3.3,0 -5.5,-1.68 -6.5,-2.64 z"
             id="path4756" /><path
             style="fill:#000000;stroke-width:0"
             inkscape:connector-curvature="0"
             d="m 1120.4,424.64 h 8.2 c 0.7,0 1.9,0 1.9,1.48 0,1.55 -1.2,1.55 -1.9,1.55 h -8.2 v 4.09 c 0,0.94 0,2.03 -1.7,2.03 -1.8,0 -1.8,-1.03 -1.8,-2.03 v -4.09 h -4.3 c -0.8,0 -2,0 -2,-1.55 0,-1.48 1.2,-1.48 2,-1.48 h 4.3 v -12.16 c 0,-4.78 3.4,-6.58 7,-6.58 3.7,0 7.8,2.14 7.8,6.58 0,0.89 0,1.94 -1.8,1.94 -1.6,0 -1.6,-1.05 -1.6,-1.89 -0.1,-3.1 -2.9,-3.6 -4.1,-3.6 -3.8,0 -3.8,2.6 -3.8,3.85 z"
             id="path4758" /><path
             style="fill:#000000;stroke-width:0"
             inkscape:connector-curvature="0"
             d="m 1152.4,430.96 0,0.36 0,0.34 0,0.33 0,0.32 -0.1,0.3 0,0.3 -0.1,0.28 -0.1,0.28 0,0.26 -0.1,0.25 -0.1,0.23 -0.1,0.23 -0.2,0.22 -0.1,0.2 -0.1,0.19 -0.1,0.19 -0.2,0.17 -0.1,0.16 -0.2,0.14 -0.1,0.14 -0.2,0.13 -0.1,0.11 -0.2,0.11 -0.2,0.09 -0.1,0.08 -0.2,0.07 -0.2,0.06 -0.2,0.05 -0.2,0.04 -0.1,0.03 -0.2,0.01 -0.2,0.01 c -1.7,0 -2.6,-1.3 -2.6,-2.49 0,-1.34 1,-2.5 2.5,-2.5 0.4,0 0.6,0.06 0.7,0.06 0.2,0 0.2,-0.45 0.2,-0.75 0,-0.95 -0.1,-4.53 -4.1,-6.82 -0.4,-0.25 -0.9,-0.5 -0.9,-1.3 0,-0.89 0.9,-1.59 1.6,-1.59 1.2,0 6.4,3.43 6.4,9.71 z"
             id="path4760" /><path
             style="fill:#000000;stroke-width:0"
             inkscape:connector-curvature="0"
             d="m 1176.4,419.7 h 7.1 c 0.6,0 2.3,0 2.3,1.75 0,1.73 -1.7,1.73 -2.3,1.73 h -7.1 v 7.13 c 0,0.61 0,2.34 -1.7,2.34 -1.8,0 -1.8,-1.73 -1.8,-2.34 v -7.13 h -7 c -0.6,0 -2.4,0 -2.4,-1.73 0,-1.75 1.8,-1.75 2.4,-1.75 h 7 v -7.13 c 0,-0.59 0,-2.34 1.8,-2.34 1.7,0 1.7,1.75 1.7,2.34 z"
             id="path4762" /><path
             style="fill:#000000;stroke-width:0"
             inkscape:connector-curvature="0"
             d="m 1202.3,422.43 5.6,11.18 h 1.1 c 0.8,0 2.1,0 2.1,1.48 0,1.55 -1.3,1.55 -2.1,1.55 h -5.2 c -0.7,0 -2,0 -2,-1.49 0,-1.54 1.2,-1.54 2.3,-1.54 l -3.5,-7.29 -3.8,7.29 c 1,0 2.1,0 2.1,1.54 0,1.49 -1.3,1.49 -2,1.49 h -5.2 c -0.7,0 -2,0 -2,-1.49 0,-1.54 1.3,-1.54 2,-1.54 h 1.2 l 5.9,-11.22 -6.6,-13.14 h -1.1 c -0.8,0 -2,0 -2,-1.55 0,-1.5 1.3,-1.5 2,-1.5 h 5.2 c 0.8,0 2,0 2,1.5 0,1.55 -1.2,1.55 -2.3,1.55 l 4.6,9.65 4.9,-9.65 c -1.1,0 -2.2,0 -2.2,-1.55 0,-1.5 1.2,-1.5 2,-1.5 h 5.1 c 0.8,0 2.1,0 2.1,1.5 0,1.55 -1.3,1.55 -2.1,1.55 h -1.1 z"
             id="path4764" /><path
             style="fill:#000000;stroke-width:0"
             inkscape:connector-curvature="0"
             d="m 1229.3,425.64 0,0.14 0,0.13 0,0.13 0,0.12 0,0.12 0,0.11 0,0.11 0,0.1 -0.1,0.1 0,0.09 0,0.08 -0.1,0.08 0,0.08 0,0.07 -0.1,0.07 0,0.06 -0.1,0.05 0,0.06 -0.1,0.04 -0.1,0.05 -0.1,0.04 0,0.04 -0.1,0.03 -0.1,0.03 -0.1,0.02 -0.1,0.02 -0.2,0.02 -0.1,0.01 -0.1,0.01 -0.2,0.01 -0.1,0.01 -0.1,0 -0.1,0 h -7 c -0.8,0 -2.1,0 -2.1,-1.49 0,-1.54 1.3,-1.54 2.1,-1.54 h 5.6 v -15.39 h -6 c -0.8,0 -2.1,0 -2.1,-1.55 0,-1.5 1.3,-1.5 2.1,-1.5 h 14.7 c 0.7,0 2,0 2,1.5 0,1.55 -1.3,1.55 -2,1.55 h -5.3 z"
             id="path4766" /><path
             style="fill:#000000;stroke-width:0"
             inkscape:connector-curvature="0"
             d="m 1229.3,434.2 0,0.13 0,0.13 0,0.12 0,0.13 0,0.12 -0.1,0.11 0,0.12 -0.1,0.11 0,0.11 -0.1,0.11 0,0.11 -0.1,0.1 -0.1,0.09 0,0.1 -0.1,0.09 -0.1,0.08 -0.1,0.08 -0.1,0.08 -0.1,0.08 -0.1,0.06 -0.1,0.07 -0.1,0.06 -0.1,0.05 -0.1,0.05 -0.1,0.05 -0.1,0.03 -0.1,0.04 -0.2,0.02 -0.1,0.03 -0.1,0.01 -0.1,0.01 -0.2,0 c -1.4,0 -2.5,-1.09 -2.5,-2.48 0,-1.39 1.1,-2.49 2.5,-2.49 1.4,0 2.5,1.1 2.5,2.49 z"
             id="path4768" /><path
             style="fill:#000000;stroke-width:0"
             inkscape:connector-curvature="0"
             d="m 1254.9,418.9 -0.2,0.04 -0.2,0.04 -0.4,0.07 -0.4,0.06 -0.4,0.07 -0.2,0.04 -0.2,0.03 -0.2,0.04 -0.3,0.04 -0.2,0.04 -0.2,0.04 -0.2,0.04 -0.2,0.05 c -1.5,0.2 -4.9,0.79 -4.9,2.75 0,1.29 1.6,2.82 6.4,2.82 4.1,0 4.8,-1.48 4.9,-2.78 0.1,-0.84 0.2,-1.7 1.7,-1.7 1.8,0 1.8,1.05 1.8,2.05 v 3.43 c 0,0.8 0,2.05 -1.5,2.05 -1.2,0 -1.4,-0.7 -1.5,-1.05 -2.2,1.05 -4.4,1.05 -5.4,1.05 -8.3,0 -9.4,-4.08 -9.4,-5.87 0,-4.6 5.2,-5.44 9.8,-6.13 2.4,-0.41 6.4,-1.05 6.4,-3.69 0,-1.84 -1.8,-3.5 -6.3,-3.5 -2.4,0 -5.2,0.55 -6.4,4.44 -0.3,0.91 -0.5,1.45 -1.8,1.45 -1.7,0 -1.7,-1.04 -1.7,-2.04 v -4.83 c 0,-0.8 0,-2.05 1.5,-2.05 0.4,0 1.2,0.05 1.8,1.89 2.4,-1.79 5.1,-1.89 6.5,-1.89 7.9,0 9.5,4.14 9.5,6.53 0,5.18 -6.5,6.22 -8.1,6.47 z"
             id="path4770" /><path
             style="fill:#000000;stroke-width:0"
             inkscape:connector-curvature="0"
             d="m 1283.2,430.96 0,0.36 0,0.34 0,0.33 -0.1,0.32 0,0.3 -0.1,0.3 0,0.28 -0.1,0.28 -0.1,0.26 -0.1,0.25 -0.1,0.23 -0.1,0.23 -0.1,0.22 -0.1,0.2 -0.1,0.19 -0.1,0.19 -0.2,0.17 -0.1,0.16 -0.2,0.14 -0.1,0.14 -0.2,0.13 -0.1,0.11 -0.2,0.11 -0.2,0.09 -0.2,0.08 -0.1,0.07 -0.2,0.06 -0.2,0.05 -0.2,0.04 -0.2,0.03 -0.2,0.01 -0.1,0.01 c -1.7,0 -2.6,-1.3 -2.6,-2.49 0,-1.34 1,-2.5 2.5,-2.5 0.4,0 0.6,0.06 0.7,0.06 0.2,0 0.2,-0.45 0.2,-0.75 0,-0.95 -0.1,-4.53 -4.1,-6.82 -0.4,-0.25 -0.9,-0.5 -0.9,-1.3 0,-0.89 0.9,-1.59 1.6,-1.59 1.1,0 6.4,3.43 6.4,9.71 z"
             id="path4772" /><path
             style="fill:#000000;stroke-width:0"
             inkscape:connector-curvature="0"
             d="m 1309.9,421.45 0,0.55 0,0.54 0,0.54 -0.1,0.52 0,0.52 -0.1,0.5 -0.1,0.5 0,0.49 -0.1,0.48 -0.1,0.47 -0.2,0.46 -0.1,0.46 -0.1,0.44 -0.1,0.43 -0.2,0.42 -0.1,0.42 -0.2,0.4 -0.1,0.39 -0.2,0.38 -0.1,0.37 -0.2,0.37 -0.2,0.35 -0.2,0.34 -0.1,0.33 -0.2,0.32 -0.2,0.3 -0.1,0.3 -0.2,0.29 -0.2,0.27 -0.2,0.26 -0.1,0.25 -0.2,0.25 c -2.6,3.62 -6.4,6.42 -7.6,6.42 -1.2,0 -1.5,-1 -1.5,-1.39 0,-0.75 0.5,-1.11 0.8,-1.25 8.2,-5.44 8.9,-13.46 8.9,-16.69 0,-4.99 -1.8,-11.91 -8.6,-16.45 -0.7,-0.49 -1.1,-0.74 -1.1,-1.49 0,-0.4 0.3,-1.39 1.5,-1.39 1.5,0 11.6,6.56 11.6,19.33 z"
             id="path4774" /></g>      </g>
      <path
         transform="matrix(0.49590961,0,0,0.33060639,719.74432,134.80619)"
         d="m -26.1,-123 c 0,1.49117 -0.805887,2.7 -1.8,2.7 -0.994112,0 -1.8,-1.20883 -1.8,-2.7 0,-1.49117 0.805888,-2.7 1.8,-2.7 0.994113,0 1.8,1.20883 1.8,2.7 z"
         sodipodi:ry="2.7"
         sodipodi:rx="1.8"
         sodipodi:cy="-123"
         sodipodi:cx="-27.9"
         id="path4926"
         style="fill:#000000;fill-opacity:1;stroke:#000000;stroke-width:3;stroke-miterlimit:10;stroke-opacity:1;stroke-dasharray:none;stroke-dashoffset:0"
         sodipodi:type="arc" />
      <path
         transform="matrix(0.49590961,0,0,0.33060639,508.24432,135.50619)"
         d="m -26.1,-123 c 0,1.49117 -0.805887,2.7 -1.8,2.7 -0.994112,0 -1.8,-1.20883 -1.8,-2.7 0,-1.49117 0.805888,-2.7 1.8,-2.7 0.994113,0 1.8,1.20883 1.8,2.7 z"
         sodipodi:ry="2.7"
         sodipodi:rx="1.8"
         sodipodi:cy="-123"
         sodipodi:cx="-27.9"
         id="path4926-1"
         style="fill:#000000;fill-opacity:1;stroke:#000000;stroke-width:3;stroke-miterlimit:10;stroke-opacity:1;stroke-dasharray:none;stroke-dashoffset:0"
         sodipodi:type="arc" />
    </g>
  </g>
</svg>
