<?xml version="1.0" encoding="UTF-8" standalone="no"?>
<svg xmlns:dc="http://purl.org/dc/elements/1.1/" xmlns:cc="http://creativecommons.org/ns#" xmlns:rdf="http://www.w3.org/1999/02/22-rdf-syntax-ns#" xmlns:svg="http://www.w3.org/2000/svg" xmlns="http://www.w3.org/2000/svg" xmlns:sodipodi="http://sodipodi.sourceforge.net/DTD/sodipodi-0.dtd" xmlns:inkscape="http://www.inkscape.org/namespaces/inkscape" color-interpolation="auto" color-rendering="auto" fill="black" fill-opacity="1" font-family="'Dialog'" font-size="12px" font-style="normal" font-weight="normal" height="100%" image-rendering="auto" shape-rendering="auto" stroke="black" stroke-dasharray="none" stroke-dashoffset="0" stroke-linecap="square" stroke-linejoin="miter" stroke-miterlimit="10" stroke-opacity="1" stroke-width="1" text-rendering="auto" width="100%" id="svg2" version="1.1" inkscape:version="0.91 r13725" sodipodi:docname="decoupler-interface.circuit.svg" viewBox="0 0 660 160" preserveAspectRatio="xMidYMid slice">
  <metadata
     id="metadata119">
    <rdf:RDF>
      <cc:Work
         rdf:about="">
        <dc:format>image/svg+xml</dc:format>
        <dc:type
           rdf:resource="http://purl.org/dc/dcmitype/StillImage" />
      </cc:Work>
    </rdf:RDF>
  </metadata>
  <sodipodi:namedview
     pagecolor="#ffffff"
     bordercolor="#666666"
     borderopacity="1"
     objecttolerance="10"
     gridtolerance="10"
     guidetolerance="10"
     inkscape:pageopacity="0"
     inkscape:pageshadow="2"
     inkscape:window-width="1920"
     inkscape:window-height="1176"
     id="namedview117"
     showgrid="false"
     inkscape:zoom="1.9367609"
     inkscape:cx="300.48932"
     inkscape:cy="163.18637"
     inkscape:window-x="0"
     inkscape:window-y="24"
     inkscape:window-maximized="1"
     inkscape:current-layer="svg2" />
  <!--Generated by the Batik Graphics2D SVG Generator-->
  <defs
     id="genericDefs">
    <inkscape:path-effect
       effect="spiro"
       id="path-effect4316"
       is_visible="true" />
    <inkscape:path-effect
       effect="spiro"
       id="path-effect4316-3"
       is_visible="true" />
  </defs>
  <rect
     height="150"
     width="200"
     x="230"
     y="5"
     id="rect9"
     style="fill:#ffffff;stroke:none" />
  <rect
     height="150"
     width="200"
     x="230"
     y="5"
     id="rect11"
     style="fill:none;stroke:#000000;stroke-width:3" />
  <line
     x1="455"
     x2="430"
     y1="30"
     y2="30"
     id="line13"
     style="fill:none;stroke:#000000;stroke-width:2" />
  <line
     x1="205"
     x2="230"
     y1="30"
     y2="30"
     id="line15"
     style="fill:none;stroke:#000000;stroke-width:2" />
  <line
     x1="455"
     x2="430"
     y1="130"
     y2="130"
     id="line17"
     style="fill:none;stroke:#000000;stroke-width:2" />
  <line
     x1="205"
     x2="230"
     y1="130"
     y2="130"
     id="line19"
     style="fill:none;stroke:#000000;stroke-width:2" />
  <path
     d="m 405.995,35.42 1.855,-10.605 1.925,0 -0.35,1.99 q 1.53,-2.225 3.71,-2.225 0.29,0 0.605,0.05 l -0.315,1.795 q -0.47,-0.165 -0.85,-0.165 -1.825,0 -3.435,2.17 l -1.225,6.99 -1.92,0 z m 8.18,0 1.86,-10.605 1.92,0 -0.35,1.99 q 1.535,-2.225 3.71,-2.225 0.295,0 0.61,0.05 l -0.315,1.795 q -0.47,-0.165 -0.85,-0.165 -1.825,0 -3.435,2.17 l -1.225,6.99 -1.925,0 z"
     id="path21"
     inkscape:connector-curvature="0"
     style="fill:#0000ff;stroke:none;stroke-width:0.04" />
  <path
     d="m 241.925,37.71 1.855,-10.605 1.925,0 -0.35,1.99 q 1.535,-2.225 3.71,-2.225 0.295,0 0.605,0.05 l -0.31,1.795 q -0.47,-0.165 -0.85,-0.165 -1.83,0 -3.44,2.17 l -1.22,6.99 -1.925,0 z m 8.185,0 2.695,-15.42 1.925,0 -2.7,15.42 -1.92,0 z"
     id="path23"
     inkscape:connector-curvature="0"
     style="fill:#ff0000;stroke:none;stroke-width:0.04" />
  <path
     d="m 408.165,134.195 q -2.01,1.59 -3.61,1.59 -1.32,0 -2.04,-0.825 -0.725,-0.825 -0.505,-2.085 0.305,-1.735 1.925,-2.67 1.625,-0.93 4.35,-0.93 l 0.455,0 0.225,-1.28 q 0.325,-1.845 -1.57,-1.845 -1.525,0 -3.455,0.935 l 0.28,-1.59 q 2.08,-0.795 3.78,-0.795 1.775,0 2.48,0.805 0.705,0.8 0.41,2.49 l -0.84,4.805 q -0.29,1.65 0.725,1.65 0.13,0 0.38,-0.04 l -0.05,1.065 q -0.71,0.31 -1.5,0.31 -1.35,0 -1.44,-1.59 z m -0.1,-1.045 0.48,-2.745 -0.64,-0.02 q -1.585,0 -2.665,0.6 -1.085,0.6 -1.255,1.58 -0.12,0.69 0.285,1.17 0.405,0.48 1.11,0.48 1.2,0 2.685,-1.065 z m 5.44,2.39 1.855,-10.605 1.925,0 -0.35,1.995 q 1.535,-2.23 3.71,-2.23 0.295,0 0.605,0.05 l -0.31,1.8 q -0.47,-0.17 -0.85,-0.17 -1.83,0 -3.44,2.17 l -1.22,6.99 -1.925,0 z"
     id="path25"
     inkscape:connector-curvature="0"
     style="fill:#ff0000;stroke:none;stroke-width:0.04" />
  <path
     d="m 247.63,136.485 q -2.01,1.59 -3.61,1.59 -1.32,0 -2.045,-0.825 -0.725,-0.825 -0.5,-2.085 0.3,-1.735 1.925,-2.67 1.625,-0.93 4.35,-0.93 l 0.455,0 0.225,-1.28 q 0.325,-1.845 -1.57,-1.845 -1.525,0 -3.455,0.935 l 0.28,-1.59 q 2.08,-0.79 3.78,-0.79 1.775,0 2.48,0.8 0.705,0.8 0.41,2.49 l -0.84,4.805 q -0.29,1.65 0.725,1.65 0.125,0 0.38,-0.04 l -0.05,1.065 q -0.71,0.31 -1.5,0.31 -1.35,0 -1.44,-1.59 z m -0.1,-1.045 0.48,-2.745 -0.645,-0.02 q -1.58,0 -2.66,0.6 -1.085,0.6 -1.255,1.58 -0.12,0.69 0.285,1.17 0.405,0.48 1.105,0.48 1.205,0 2.69,-1.065 z m 5.44,2.39 2.7,-15.42 1.92,0 -2.695,15.42 -1.925,0 z"
     id="path27"
     inkscape:connector-curvature="0"
     style="fill:#0000ff;stroke:none;stroke-width:0.04" />
  <g
     style="font-style:italic;font-size:0.5px;font-family:sans-serif;fill:#595959;stroke:#595959;stroke-width:0.04"
     id="g29"
     transform="matrix(50,0,0,50,330,80)"
     font-style="italic"
     font-size="0.5px">
    <path
       style="stroke:none"
       inkscape:connector-curvature="0"
       id="path31"
       d="m -1.2298,0.1687 0.0632,-0.3613 0.1202,0 q 0.0537,0 0.0847,0.0119 0.031,0.012 0.0501,0.0405 0.0304,0.0455 0.0174,0.1197 -0.0157,0.0901 -0.072,0.1396 -0.0563,0.0496 -0.1427,0.0496 l -0.1209,0 z m 0.058,-0.0383 0.0657,0 q 0.0703,0 0.1062,-0.0379 0.0385,-0.0403 0.0504,-0.1081 0.0112,-0.0638 -0.0135,-0.1001 -0.0149,-0.0223 -0.0396,-0.0304 -0.0247,-0.0082 -0.0771,-0.0082 l -0.0423,0 -0.0498,0.2847 z m 0.5138,0.0297 q -0.0509,0.0147 -0.0853,0.0147 -0.0586,0 -0.0888,-0.039 -0.0301,-0.0389 -0.0193,-0.1009 0.0106,-0.0603 0.0499,-0.0989 0.0393,-0.0386 0.0901,-0.0386 0.0481,0 0.0684,0.0342 0.0203,0.0342 0.0092,0.0972 l -0.0028,0.0149 -0.1673,0 q -0.006,0.0945 0.076,0.0945 0.0301,0 0.0766,-0.0161 l -0.0067,0.038 z m -0.1373,-0.1526 0.1169,0 q 0.013,-0.0739 -0.0422,-0.0739 -0.0554,0 -0.0747,0.0739 z m 0.3225,0.1673 q -0.0537,0 -0.0821,-0.0398 -0.0285,-0.0398 -0.0179,-0.1004 0.0113,-0.0647 0.0527,-0.1008 0.0414,-0.0361 0.1041,-0.0361 0.031,0 0.0679,0.0085 l -0.0071,0.0403 q -0.0387,-0.0119 -0.0643,-0.0119 -0.0369,0 -0.0641,0.0277 -0.0272,0.0277 -0.0352,0.0738 -0.0079,0.0447 0.0103,0.0723 0.0181,0.0276 0.0552,0.0276 0.033,0 0.0708,-0.0169 l -0.0073,0.0415 q -0.0491,0.0142 -0.083,0.0142 z m 0.2564,0 q -0.0569,0 -0.0843,-0.0377 -0.0273,-0.0378 -0.0162,-0.101 0.0112,-0.064 0.0517,-0.1012 0.0406,-0.0372 0.099,-0.0372 0.0583,0 0.0858,0.0372 0.0276,0.0372 0.0165,0.1007 -0.0114,0.065 -0.0521,0.1021 -0.0406,0.0371 -0.1004,0.0371 z m 0.007,-0.0362 q 0.0764,0 0.0944,-0.103 0.0179,-0.1018 -0.0576,-0.1018 -0.0751,0 -0.0931,0.1023 -0.0179,0.1025 0.0563,0.1025 z M 0.1538,0.1687 0.1625,0.1189 Q 0.1144,0.1748 0.0597,0.1748 0.025,0.1748 0.0083,0.1529 -0.0084,0.1311 -0.0019,0.094 l 0.0334,-0.1905 0.0481,0 -0.0306,0.1749 q -0.0052,0.0297 0.0012,0.0423 0.0065,0.0126 0.0268,0.0126 0.0439,0 0.0931,-0.0579 l 0.0301,-0.1719 0.0481,0 -0.0464,0.2652 -0.0481,0 z m 0.1276,0.0964 0.0633,-0.3616 0.0481,0 -0.0087,0.0499 q 0.0393,-0.0557 0.0983,-0.0557 0.0479,0 0.0692,0.0349 0.0214,0.0349 0.0108,0.0955 -0.0115,0.0659 -0.0497,0.1063 -0.0382,0.0404 -0.089,0.0404 -0.0471,0 -0.0721,-0.0362 l -0.0221,0.1265 -0.0481,0 z m 0.076,-0.1597 q 0.0313,0.0332 0.065,0.0332 0.0694,0 0.0879,-0.1057 0.0163,-0.0932 -0.0452,-0.0932 -0.0403,0 -0.0863,0.0437 l -0.0214,0.122 z m 0.2556,0.0633 0.0675,-0.3855 0.0481,0 -0.0675,0.3855 -0.0481,0 z M 0.9534,0.1601 Q 0.9025,0.1748 0.868,0.1748 0.8094,0.1748 0.7793,0.1358 0.7491,0.0969 0.7599,0.0349 0.7705,-0.0254 0.8098,-0.064 0.8492,-0.1026 0.9,-0.1026 q 0.0481,0 0.0683,0.0342 0.0203,0.0342 0.0093,0.0972 l -0.0029,0.0149 -0.1672,0 q -0.0061,0.0945 0.076,0.0945 0.03,0 0.0765,-0.0161 L 0.9534,0.1601 Z M 0.816,0.0075 l 0.1169,0 q 0.013,-0.0739 -0.0422,-0.0739 -0.0554,0 -0.0747,0.0739 z m 0.2201,0.1612 0.0464,-0.2652 0.0481,0 -0.0087,0.0499 q 0.0383,-0.0557 0.0927,-0.0557 0.0073,0 0.0152,0.0012 l -0.0079,0.0449 q -0.0117,-0.0041 -0.0212,-0.0041 -0.0457,0 -0.0859,0.0542 l -0.0306,0.1748 -0.0481,0 z" />
  </g>
  <rect
     height="150"
     width="125"
     x="5"
     y="5"
     id="rect35"
     style="font-style:italic;font-size:medium;font-family:sans-serif;fill:#ffffff;stroke:none;stroke-width:0.04" />
  <path
     style="font-style:italic;font-size:medium;font-family:sans-serif;fill:none;stroke:#000000;stroke-width:3"
     d="m 5,5 125,0 0,150 -125,0"
     id="rect37"
     inkscape:connector-curvature="0"
     sodipodi:nodetypes="cccc" />
  <line
     x1="155"
     x2="130"
     y1="30"
     y2="30"
     id="line39"
     style="font-style:italic;font-size:medium;font-family:sans-serif;fill:none;stroke:#000000;stroke-width:2" />
  <line
     x1="155"
     x2="130"
     y1="130"
     y2="130"
     id="line41"
     style="font-style:italic;font-size:medium;font-family:sans-serif;fill:none;stroke:#000000;stroke-width:2" />
  <path
     d="m 109.12,37.71 1.855,-10.605 1.925,0 -0.35,1.99 q 1.53,-2.225 3.71,-2.225 0.29,0 0.605,0.05 l -0.315,1.795 q -0.465,-0.165 -0.85,-0.165 -1.825,0 -3.435,2.17 l -1.225,6.99 -1.92,0 z m 8.18,0 2.7,-15.42 1.925,0 -2.7,15.42 -1.925,0 z"
     id="path43"
     inkscape:connector-curvature="0"
     style="font-style:italic;font-size:medium;font-family:sans-serif;fill:#0000ff;stroke:none;stroke-width:0.04" />
  <path
     d="m 111.29,136.485 q -2.01,1.59 -3.61,1.59 -1.315,0 -2.04,-0.825 -0.725,-0.825 -0.505,-2.085 0.305,-1.735 1.925,-2.67 1.625,-0.93 4.35,-0.93 l 0.46,0 0.22,-1.28 q 0.325,-1.845 -1.57,-1.845 -1.525,0 -3.455,0.935 l 0.28,-1.59 q 2.08,-0.79 3.78,-0.79 1.775,0 2.48,0.8 0.705,0.8 0.41,2.49 l -0.84,4.805 q -0.29,1.65 0.725,1.65 0.13,0 0.38,-0.04 l -0.05,1.065 q -0.71,0.31 -1.5,0.31 -1.35,0 -1.44,-1.59 z m -0.1,-1.045 0.48,-2.745 -0.64,-0.02 q -1.585,0 -2.665,0.6 -1.08,0.6 -1.255,1.58 -0.12,0.69 0.285,1.17 0.405,0.48 1.11,0.48 1.2,0 2.685,-1.065 z m 5.44,2.39 2.7,-15.42 1.92,0 -2.695,15.42 -1.925,0 z"
     id="path45"
     inkscape:connector-curvature="0"
     style="font-style:italic;font-size:medium;font-family:sans-serif;fill:#ff0000;stroke:none;stroke-width:0.04" />
  <g
     style="font-style:italic;font-size:0.5px;font-family:sans-serif;fill:#595959;stroke:#595959;stroke-width:0.04"
     id="g47"
     transform="matrix(50,0,0,50,30,80)"
     font-style="italic"
     font-size="0.5px">
    <path
       style="stroke:none"
       inkscape:connector-curvature="0"
       id="path49"
       d="m 0.3019,0.1392 0.0632,-0.3613 0.0513,0 -0.0566,0.323 0.1626,0 -0.0067,0.0383 -0.2138,0 z M 0.7658,0.1307 Q 0.7149,0.1453 0.6805,0.1453 0.6219,0.1453 0.5917,0.1064 0.5615,0.0674 0.5724,0.0054 0.5829,-0.0549 0.6222,-0.0935 0.6616,-0.132 0.7124,-0.132 q 0.0481,0 0.0683,0.0341 Q 0.801,-0.0637 0.79,-7e-4 l -0.0029,0.0149 -0.1672,0 q -0.006,0.0945 0.076,0.0945 0.03,0 0.0765,-0.0161 L 0.7658,0.1307 Z m -0.1374,-0.1526 0.117,0 q 0.0129,-0.074 -0.0423,-0.074 -0.0554,0 -0.0747,0.074 z m 0.3176,-0.0679 -0.0401,0.229 -0.0484,0 0.0401,-0.229 -0.0376,0 0.0063,-0.0361 0.0376,0 0.0056,-0.0318 q 0.0166,-0.0947 0.103,-0.0947 0.0242,0 0.0535,0.0081 l -0.0067,0.038 q -0.0307,-0.01 -0.0502,-0.01 -0.0237,0 -0.0343,0.0114 -0.0107,0.0113 -0.0161,0.0421 l -0.0064,0.0369 0.0661,0 -0.0063,0.0361 -0.0661,0 z m 0.1649,0.2351 q -0.0367,0 -0.0535,-0.021 Q 1.0406,0.1033 1.0471,0.066 l 0.0273,-0.1558 -0.0332,0 0.0063,-0.0361 0.0332,0 0.0084,-0.0481 0.0489,-0.0047 -0.0092,0.0528 0.0693,0 -0.0063,0.0361 -0.0693,0 -0.0258,0.147 q -0.0091,0.052 0.0359,0.052 0.0095,0 0.0237,-0.0032 L 1.1505,0.1392 Q 1.1272,0.1453 1.1109,0.1453 Z" />
  </g>
  <rect
     height="150"
     width="125"
     x="530"
     y="5"
     id="rect53"
     style="font-style:italic;font-size:medium;font-family:sans-serif;fill:#ffffff;stroke:none;stroke-width:0.04" />
  <path
     sodipodi:nodetypes="cccc"
     inkscape:connector-curvature="0"
     id="rect55"
     d="M 655,155 530,155 530,5 655,5"
     style="font-style:italic;font-size:medium;font-family:sans-serif;fill:none;stroke:#000000;stroke-width:3" />
  <line
     x1="505"
     x2="530"
     y1="30"
     y2="30"
     id="line57"
     style="font-style:italic;font-size:medium;font-family:sans-serif;fill:none;stroke:#000000;stroke-width:2" />
  <line
     x1="505"
     x2="530"
     y1="130"
     y2="130"
     id="line59"
     style="font-style:italic;font-size:medium;font-family:sans-serif;fill:none;stroke:#000000;stroke-width:2" />
  <g
     style="font-style:italic;font-size:0.5px;font-family:sans-serif;fill:#595959;stroke:#595959;stroke-width:0.04"
     id="g65"
     transform="matrix(50,0,0,50,630,80)"
     font-style="italic"
     font-size="0.5px">
    <path
       style="stroke:none"
       inkscape:connector-curvature="0"
       id="path67"
       d="m -1.375,0.1707 0.0632,-0.3613 0.1094,0 q 0.052,0 0.0757,0.0229 0.0237,0.023 0.016,0.0667 -0.0126,0.0723 -0.0909,0.1025 l 0.091,0.1692 -0.063,0 -0.076,-0.1528 -0.0479,0 -0.0267,0.1528 -0.0508,0 z m 0.0842,-0.1911 0.0166,0 q 0.0967,0 0.11,-0.076 0.0098,-0.0559 -0.0713,-0.0559 l -0.0322,0 -0.0231,0.1319 z m 0.2334,0.1911 0.0464,-0.2651 0.0481,0 -0.0464,0.2651 -0.0481,0 z m 0.0548,-0.3132 0.0085,-0.0481 0.048,0 -0.0084,0.0481 -0.0481,0 z m 0.0753,0.4014 0.0129,-0.0418 q 0.0383,0.0198 0.0788,0.0198 0.0813,0 0.0964,-0.0862 L -0.7319,0.109 q -0.0363,0.0556 -0.0971,0.0556 -0.0476,0 -0.0696,-0.0346 -0.022,-0.0347 -0.0118,-0.0936 0.0106,-0.0605 0.0493,-0.0986 0.0386,-0.0381 0.0894,-0.0381 0.0445,0 0.0701,0.0362 l 0.0053,-0.0303 0.0484,0 -0.0338,0.1929 q -0.0109,0.0622 -0.0226,0.0921 -0.0117,0.0299 -0.0328,0.049 -0.0374,0.0334 -0.1038,0.0334 -0.0464,0 -0.0864,-0.0141 z m 0.2007,-0.18 0.0192,-0.1101 q -0.0259,-0.0329 -0.0633,-0.0329 -0.0332,0 -0.0566,0.0266 -0.0235,0.0266 -0.0316,0.073 -0.0152,0.0871 0.046,0.0871 0.0418,0 0.0863,-0.0437 z m 0.1255,0.0918 0.0675,-0.3855 0.0481,0 -0.0298,0.1702 q 0.0478,-0.0557 0.103,-0.0557 0.0344,0 0.0511,0.0219 0.0167,0.0218 0.0102,0.0587 l -0.0333,0.1904 -0.0481,0 0.0306,-0.1748 q 0.0052,-0.0295 -0.0013,-0.0421 -0.0064,-0.0126 -0.0265,-0.0126 -0.0442,0 -0.0934,0.0579 l -0.03,0.1716 -0.0481,0 z m 0.3888,0.0061 q -0.0366,0 -0.0534,-0.021 -0.0168,-0.021 -0.0103,-0.0583 l 0.0272,-0.1558 -0.0332,0 0.0064,-0.0361 0.0332,0 0.0084,-0.0481 0.0489,-0.0046 -0.0092,0.0527 0.0693,0 -0.0063,0.0361 -0.0694,0 -0.0257,0.147 q -0.0091,0.052 0.0358,0.052 0.0096,0 0.0238,-0.0032 l -0.0058,0.0332 q -0.0233,0.0061 -0.0397,0.0061 z" />
  </g>
  <g
     style="font-style:italic;font-size:0.5px;font-family:sans-serif;stroke-width:0.04"
     id="g69"
     transform="matrix(50,0,0,50,305,80)"
     font-style="italic"
     font-size="0.5px">
    <path
       style="fill:none"
       inkscape:connector-curvature="0"
       id="path71"
       d="m -2.89,-1 0.38,0" />
    <path
       style="stroke:none"
       inkscape:connector-curvature="0"
       id="path73"
       d="m -2.51,-1.075 0,0.15 0.4,-0.075 z" />
  </g>
  <g
     style="font-style:italic;font-size:0.5px;font-family:sans-serif;stroke-width:0.04"
     id="g75"
     transform="matrix(50,0,0,50,305,80)"
     font-style="italic"
     font-size="0.5px">
    <line
       style="fill:none"
       id="line77"
       y2="-1"
       y1="-1"
       x2="-2.8900001"
       x1="-3" />
    <line
       style="fill:none"
       id="line79"
       y2="-1"
       y1="-1"
       x2="-2"
       x1="-2.1099999" />
  </g>
  <g
     style="font-style:italic;font-size:0.5px;font-family:sans-serif;stroke-width:0.04"
     id="g81"
     transform="matrix(50,0,0,50,305,80)"
     font-style="italic"
     font-size="0.5px">
    <path
       style="fill:none"
       inkscape:connector-curvature="0"
       id="path83"
       d="M -2.11,1 -2.49,1" />
    <path
       style="stroke:none"
       inkscape:connector-curvature="0"
       id="path85"
       d="m -2.49,1.075 0,-0.15 L -2.89,1 Z" />
  </g>
  <g
     style="font-style:italic;font-size:0.5px;font-family:sans-serif;stroke-width:0.04"
     id="g87"
     transform="matrix(50,0,0,50,305,80)"
     font-style="italic"
     font-size="0.5px">
    <line
       style="fill:none"
       id="line89"
       y2="1"
       y1="1"
       x2="-2.1099999"
       x1="-2" />
    <line
       style="fill:none"
       id="line91"
       y2="1"
       y1="1"
       x2="-3"
       x1="-2.8900001" />
  </g>
  <g
     style="font-style:italic;font-size:0.5px;font-family:sans-serif;stroke-width:0.04"
     id="g93"
     transform="matrix(50,0,0,50,305,80)"
     font-style="italic"
     font-size="0.5px">
    <path
       style="fill:none"
       inkscape:connector-curvature="0"
       id="path95"
       d="m 3.11,-1 0.38,0" />
    <path
       style="stroke:none"
       inkscape:connector-curvature="0"
       id="path97"
       d="m 3.49,-1.075 0,0.15 L 3.89,-1 Z" />
  </g>
  <g
     style="font-style:italic;font-size:0.5px;font-family:sans-serif;stroke-width:0.04"
     id="g99"
     transform="matrix(50,0,0,50,305,80)"
     font-style="italic"
     font-size="0.5px">
    <line
       style="fill:none"
       id="line101"
       y2="-1"
       y1="-1"
       x2="3.1099999"
       x1="3" />
    <line
       style="fill:none"
       id="line103"
       y2="-1"
       y1="-1"
       x2="4"
       x1="3.8900001" />
  </g>
  <g
     style="font-style:italic;font-size:0.5px;font-family:sans-serif;stroke-width:0.04"
     id="g105"
     transform="matrix(50,0,0,50,305,80)"
     font-style="italic"
     font-size="0.5px">
    <path
       style="fill:none"
       inkscape:connector-curvature="0"
       id="path107"
       d="M 3.89,1 3.51,1" />
    <path
       style="stroke:none"
       inkscape:connector-curvature="0"
       id="path109"
       d="m 3.51,1.075 0,-0.15 L 3.11,1 Z" />
  </g>
  <g
     style="font-style:italic;font-size:0.5px;font-family:sans-serif;stroke-width:0.04"
     id="g111"
     transform="matrix(50,0,0,50,305,80)"
     font-style="italic"
     font-size="0.5px">
    <line
       style="fill:none"
       id="line113"
       y2="1"
       y1="1"
       x2="3.8900001"
       x1="4" />
    <line
       style="fill:none"
       id="line115"
       y2="1"
       y1="1"
       x2="3"
       x1="3.1099999" />
  </g>
  <path
     style="fill:none;fill-rule:evenodd;stroke:#000000;stroke-width:1px;stroke-linecap:butt;stroke-linejoin:miter;stroke-opacity:1"
     d="M 4.0048041,5.1475743 C 2.8833985,16.146694 2.7134336,27.242652 3.497429,38.270958 c 1.7278491,24.305307 8.070717,48.236955 7.983009,72.603442 -0.05417,15.04883 -2.5905366,30.08587 -7.4756339,44.31984"
     id="path4314"
     inkscape:path-effect="#path-effect4316"
     inkscape:original-d="m 4.0048041,5.1475743 c 0,0 -1.5841891,17.8994607 -0.5073751,33.1233837 1.5040596,21.264292 9.017725,47.02912 7.983009,72.603442 -0.556721,13.76009 -7.4756339,44.31984 -7.4756339,44.31984"
     inkscape:connector-curvature="0"
     sodipodi:nodetypes="cssc" />
  <path
     style="fill:none;fill-rule:evenodd;stroke:#000000;stroke-width:1px;stroke-linecap:butt;stroke-linejoin:miter;stroke-opacity:1"
     d="m 656.07273,5.0634293 c 1.12141,10.9991187 1.29137,22.0950777 0.50738,33.1233837 -1.72785,24.305308 -8.07072,48.236958 -7.98301,72.603447 0.0542,15.04883 2.59053,30.08587 7.47563,44.31984"
     id="path4314-6"
     inkscape:path-effect="#path-effect4316-3"
     inkscape:original-d="m 656.07273,5.0634293 c 0,0 1.58419,17.8994607 0.50738,33.1233837 -1.50406,21.264292 -9.01773,47.02912 -7.98301,72.603447 0.55672,13.76009 7.47563,44.31984 7.47563,44.31984"
     inkscape:connector-curvature="0"
     sodipodi:nodetypes="cssc" />
  <path
     d="m 541.95066,34.690643 1.855,-10.605 1.925,0 -0.35,1.99 q 1.53,-2.225 3.71,-2.225 0.29,0 0.605,0.05 l -0.315,1.795 q -0.47,-0.165 -0.85,-0.165 -1.825,0 -3.435,2.17 l -1.225,6.99 -1.92,0 z m 8.18,0 1.86,-10.605 1.92,0 -0.35,1.99 q 1.535,-2.225 3.71,-2.225 0.295,0 0.61,0.05 l -0.315,1.795 q -0.47,-0.165 -0.85,-0.165 -1.825,0 -3.435,2.17 l -1.225,6.99 -1.925,0 z"
     id="path21-3"
     inkscape:connector-curvature="0"
     style="fill:#0000ff;stroke:none;stroke-width:0.04" />
  <path
     d="m 546.12066,133.46564 q -2.01,1.59 -3.61,1.59 -1.32,0 -2.04,-0.825 -0.725,-0.825 -0.505,-2.085 0.305,-1.735 1.925,-2.67 1.625,-0.93 4.35,-0.93 l 0.455,0 0.225,-1.28 q 0.325,-1.845 -1.57,-1.845 -1.525,0 -3.455,0.935 l 0.28,-1.59 q 2.08,-0.795 3.78,-0.795 1.775,0 2.48,0.805 0.705,0.8 0.41,2.49 l -0.84,4.805 q -0.29,1.65 0.725,1.65 0.13,0 0.38,-0.04 l -0.05,1.065 q -0.71,0.31 -1.5,0.31 -1.35,0 -1.44,-1.59 z m -0.1,-1.045 0.48,-2.745 -0.64,-0.02 q -1.585,0 -2.665,0.6 -1.085,0.6 -1.255,1.58 -0.12,0.69 0.285,1.17 0.405,0.48 1.11,0.48 1.2,0 2.685,-1.065 z m 5.44,2.39 1.855,-10.605 1.925,0 -0.35,1.995 q 1.535,-2.23 3.71,-2.23 0.295,0 0.605,0.05 l -0.31,1.8 q -0.47,-0.17 -0.85,-0.17 -1.83,0 -3.44,2.17 l -1.22,6.99 -1.925,0 z"
     id="path25-6"
     inkscape:connector-curvature="0"
     style="fill:#ff0000;stroke:none;stroke-width:0.04" />
</svg>
