<?xml version="1.0" encoding="UTF-8" standalone="no"?>
<svg xmlns:dc="http://purl.org/dc/elements/1.1/" xmlns:cc="http://creativecommons.org/ns#" xmlns:rdf="http://www.w3.org/1999/02/22-rdf-syntax-ns#" xmlns:svg="http://www.w3.org/2000/svg" xmlns="http://www.w3.org/2000/svg" xmlns:sodipodi="http://sodipodi.sourceforge.net/DTD/sodipodi-0.dtd" xmlns:inkscape="http://www.inkscape.org/namespaces/inkscape" color-interpolation="auto" color-rendering="auto" fill="black" fill-opacity="1" font-family="'Dialog'" font-size="12px" font-style="normal" font-weight="normal" height="100%" image-rendering="auto" shape-rendering="auto" stroke="black" stroke-dasharray="none" stroke-dashoffset="0" stroke-linecap="square" stroke-linejoin="miter" stroke-miterlimit="10" stroke-opacity="1" stroke-width="1" text-rendering="auto" width="100%" id="svg2" version="1.1" inkscape:version="0.91 r13725" sodipodi:docname="wait-interface.circuit.svg" viewBox="0 0 535 160" preserveAspectRatio="xMidYMid slice">
  <metadata
     id="metadata93">
    <rdf:RDF>
      <cc:Work
         rdf:about="">
        <dc:format>image/svg+xml</dc:format>
        <dc:type
           rdf:resource="http://purl.org/dc/dcmitype/StillImage" />
      </cc:Work>
    </rdf:RDF>
  </metadata>
  <sodipodi:namedview
     pagecolor="#ffffff"
     bordercolor="#666666"
     borderopacity="1"
     objecttolerance="10"
     gridtolerance="10"
     guidetolerance="10"
     inkscape:pageopacity="0"
     inkscape:pageshadow="2"
     inkscape:window-width="1920"
     inkscape:window-height="1176"
     id="namedview91"
     showgrid="false"
     inkscape:zoom="1.1551547"
     inkscape:cx="351.5448"
     inkscape:cy="11.20361"
     inkscape:window-x="0"
     inkscape:window-y="24"
     inkscape:window-maximized="1"
     inkscape:current-layer="svg2" />
  <!--Generated by the Batik Graphics2D SVG Generator-->
  <defs
     id="genericDefs">
    <inkscape:path-effect
       effect="spiro"
       id="path-effect4316-3"
       is_visible="true" />
  </defs>
  <rect
     height="150"
     width="150"
     x="380.125"
     y="5"
     id="rect9"
     style="fill:#ffffff;stroke:none" />
  <path
     style="fill:none;stroke:#000000;stroke-width:3"
     d="m 530.125,155 -150,0 0,-150 150,0"
     id="rect11"
     inkscape:connector-curvature="0"
     sodipodi:nodetypes="cccc" />
  <line
     x1="355.125"
     x2="380.125"
     y1="30"
     y2="30"
     id="line13"
     style="fill:none;stroke:#000000;stroke-width:2" />
  <line
     x1="355.125"
     x2="380.125"
     y1="130"
     y2="130"
     id="line15"
     style="fill:none;stroke:#000000;stroke-width:2" />
  <path
     d="m 394.82,35.785 q -1.32,0 -3.095,-0.615 l 0.31,-1.765 q 1.72,0.935 3.115,0.935 0.83,0 1.455,-0.45 0.625,-0.45 0.745,-1.12 0.17,-0.99 -1.25,-1.63 l -1.04,-0.48 q -2.305,-1.035 -1.965,-2.98 0.24,-1.385 1.36,-2.18 1.12,-0.8 2.83,-0.8 0.89,0 2.155,0.245 l 0.385,0.08 -0.28,1.6 q -1.525,-0.475 -2.475,-0.475 -1.855,0 -2.09,1.345 -0.15,0.87 1.15,1.465 l 0.86,0.39 q 1.455,0.665 1.98,1.4 0.525,0.74 0.335,1.845 -0.245,1.395 -1.505,2.295 -1.265,0.895 -2.98,0.895 z m 13.13,-1.59 q -2.01,1.59 -3.61,1.59 -1.32,0 -2.045,-0.825 -0.72,-0.825 -0.5,-2.085 0.305,-1.735 1.925,-2.67 1.625,-0.93 4.35,-0.93 l 0.455,0 0.225,-1.28 q 0.325,-1.845 -1.57,-1.845 -1.525,0 -3.455,0.935 l 0.28,-1.59 q 2.08,-0.795 3.78,-0.795 1.775,0 2.48,0.805 0.705,0.8 0.41,2.49 l -0.84,4.805 q -0.29,1.65 0.725,1.65 0.13,0 0.38,-0.04 l -0.05,1.065 q -0.71,0.31 -1.5,0.31 -1.35,0 -1.44,-1.59 z m -0.1,-1.045 0.48,-2.745 -0.64,-0.02 q -1.585,0 -2.665,0.6 -1.085,0.6 -1.255,1.58 -0.12,0.69 0.285,1.17 0.405,0.48 1.11,0.48 1.2,0 2.685,-1.065 z m 5.44,2.39 1.855,-10.605 1.925,0 -0.35,1.995 q 1.915,-2.23 4.12,-2.23 1.38,0 2.045,0.875 0.67,0.875 0.41,2.35 l -1.335,7.615 -1.925,0 1.225,-6.99 q 0.21,-1.18 -0.05,-1.685 -0.26,-0.5 -1.06,-0.5 -1.77,0 -3.735,2.31 l -1.2,6.865 -1.925,0 z"
     id="path17"
     inkscape:connector-curvature="0"
     style="fill:#ff0000;stroke:none;stroke-width:0.04" />
  <path
     d="m 396.145,138.075 q -2.145,0 -3.285,-1.59 -1.135,-1.59 -0.71,-4.015 0.45,-2.585 2.105,-4.03 1.655,-1.445 4.165,-1.445 1.24,0 2.715,0.34 l -0.285,1.61 q -1.545,-0.48 -2.57,-0.48 -1.475,0 -2.565,1.11 -1.085,1.11 -1.41,2.955 -0.31,1.785 0.415,2.89 0.72,1.105 2.205,1.105 1.32,0 2.835,-0.675 l -0.29,1.66 q -1.965,0.565 -3.325,0.565 z m 9.29,0 q -1.465,0 -2.14,-0.84 -0.67,-0.84 -0.41,-2.33 l 1.09,-6.235 -1.33,0 0.255,-1.445 1.33,0 0.335,-1.92 1.955,-0.185 -0.37,2.105 2.775,0 -0.255,1.445 -2.77,0 -1.03,5.88 q -0.365,2.08 1.43,2.08 0.385,0 0.955,-0.125 l -0.235,1.325 q -0.93,0.245 -1.585,0.245 z m 4.34,-0.245 2.695,-15.42 1.925,0 -2.7,15.42 -1.92,0 z m 5.78,0 1.855,-10.605 1.925,0 -0.35,1.995 q 1.535,-2.225 3.71,-2.225 0.295,0 0.61,0.045 l -0.315,1.8 q -0.47,-0.17 -0.85,-0.17 -1.83,0 -3.44,2.17 l -1.22,6.99 -1.925,0 z"
     id="path19"
     inkscape:connector-curvature="0"
     style="fill:#0000ff;stroke:none;stroke-width:0.04" />
  <g
     style="font-style:italic;font-size:0.5px;font-family:sans-serif;fill:#595959;stroke:#595959;stroke-width:0.04"
     id="g21"
     transform="matrix(50,0,0,50,505.1238,80)"
     font-style="italic"
     font-size="0.5px">
    <path
       style="stroke:none"
       inkscape:connector-curvature="0"
       id="path23"
       d="m -1.4434,0.1418 q -0.0843,0 -0.1215,-0.0494 -0.0373,-0.0495 -0.0214,-0.14 0.0158,-0.0904 0.0713,-0.1402 0.0554,-0.0498 0.1404,-0.0498 0.0486,0 0.111,0.0159 l -0.0084,0.0481 q -0.0698,-0.0256 -0.1101,-0.0256 -0.0588,0 -0.098,0.0398 -0.0392,0.0397 -0.0519,0.1122 -0.0121,0.0691 0.0154,0.1091 0.0274,0.0399 0.087,0.0399 0.0512,0 0.1154,-0.0315 l -0.0077,0.0439 q -0.0583,0.0276 -0.1215,0.0276 z m 0.2786,-0.009 0.0565,-0.323 -0.1281,0 0.0067,-0.0383 0.3076,0 -0.0067,0.0383 -0.1282,0 -0.0565,0.323 -0.0513,0 z m 0.2302,0 0.0633,-0.3613 0.1094,0 q 0.052,0 0.0757,0.0229 0.0236,0.0229 0.016,0.0667 -0.0127,0.0722 -0.0909,0.1025 l 0.0909,0.1692 -0.0629,0 -0.0761,-0.1528 -0.0478,0 -0.0268,0.1528 -0.0508,0 z m 0.0843,-0.1912 0.0166,0 q 0.0967,0 0.11,-0.0759 0.0097,-0.0559 -0.0713,-0.0559 l -0.0322,0 -0.0231,0.1318 z m 0.2319,0.1912 0.0632,-0.3613 0.0513,0 -0.0565,0.323 0.1626,0 -0.0067,0.0383 -0.2139,0 z" />
  </g>
  <g
     style="font-style:italic;font-size:0.5px;font-family:sans-serif;fill:#ffffff;stroke:#ffffff;stroke-width:0.04"
     id="g25"
     transform="matrix(50,0,0,50,217.6238,80)"
     font-style="italic"
     font-size="0.5px">
    <rect
       style="stroke:none"
       id="rect27"
       y="-1.5"
       x="-2.25"
       width="3.5"
       height="3" />
    <rect
       style="fill:none;stroke:#000000;stroke-width:0.06"
       id="rect29"
       y="-1.5"
       x="-2.25"
       width="3.5"
       height="3" />
    <line
       style="fill:none;stroke:#000000"
       id="line31"
       y2="-1"
       y1="-1"
       x2="1.25"
       x1="1.75" />
    <line
       style="fill:none;stroke:#000000"
       id="line33"
       y2="1"
       y1="1"
       x2="1.25"
       x1="1.75" />
    <line
       style="fill:none;stroke:#000000"
       id="line35"
       y2="0"
       y1="0"
       x2="-2.25"
       x1="-2.75" />
    <path
       style="fill:#0000ff;stroke:none"
       inkscape:connector-curvature="0"
       id="path37"
       d="m 0.5073,-0.8843 q -0.0264,0 -0.0619,-0.0123 l 0.0062,-0.0353 q 0.0344,0.0187 0.0623,0.0187 0.0166,0 0.0291,-0.009 0.0125,-0.009 0.0149,-0.0224 0.0034,-0.0198 -0.025,-0.0326 L 0.5121,-0.9868 Q 0.466,-1.0075 0.4728,-1.0464 0.4776,-1.0741 0.5,-1.09 q 0.0224,-0.016 0.0566,-0.016 0.0178,0 0.0431,0.0049 l 0.0078,0.0016 -0.0056,0.032 Q 0.5713,-1.077 0.5524,-1.077 q -0.0372,0 -0.0419,0.0269 -0.003,0.0174 0.023,0.0293 l 0.0172,0.0078 q 0.0291,0.0133 0.0396,0.028 0.0106,0.0148 0.0067,0.0369 -0.0049,0.0279 -0.0301,0.0459 -0.0252,0.0179 -0.0596,0.0179 z m 0.2626,-0.0318 q -0.0402,0.0318 -0.0722,0.0318 -0.0263,0 -0.0408,-0.0165 -0.0145,-0.0165 -0.0101,-0.0417 0.0061,-0.0347 0.0385,-0.0534 0.0325,-0.0186 0.087,-0.0186 l 0.0091,0 0.0045,-0.0256 Q 0.7924,-1.077 0.7545,-1.077 q -0.0305,0 -0.0691,0.0187 L 0.691,-1.0901 q 0.0416,-0.0159 0.0756,-0.0159 0.0355,0 0.0496,0.0161 0.0141,0.016 0.0082,0.0498 L 0.8076,-0.944 q -0.0058,0.033 0.0145,0.033 0.0026,0 0.0076,-8e-4 l -0.001,0.0213 q -0.0142,0.0062 -0.03,0.0062 -0.027,0 -0.0288,-0.0318 z m -0.002,-0.0209 0.0096,-0.0549 -0.0128,-4e-4 q -0.0317,0 -0.0533,0.012 -0.0216,0.012 -0.0251,0.0316 -0.0024,0.0138 0.0057,0.0234 0.0081,0.0096 0.0222,0.0096 0.024,0 0.0537,-0.0213 z m 0.1088,0.0478 0.0371,-0.2121 0.0385,0 -0.007,0.0399 q 0.0383,-0.0446 0.0824,-0.0446 0.0276,0 0.0409,0.0175 0.0134,0.0175 0.0082,0.047 l -0.0267,0.1523 -0.0384,0 0.0244,-0.1398 q 0.0042,-0.0236 -0.001,-0.0337 -0.0052,-0.01 -0.0212,-0.01 -0.0354,0 -0.0747,0.0462 l -0.024,0.1373 -0.0385,0 z" />
    <path
       style="fill:#ff0000;stroke:none"
       inkscape:connector-curvature="0"
       id="path39"
       d="M 0.5533,1.1615 Q 0.5104,1.1615 0.4876,1.1297 0.4649,1.0979 0.4734,1.0494 0.4824,0.9977 0.5155,0.9688 0.5486,0.9399 0.5988,0.9399 q 0.0248,0 0.0543,0.0068 L 0.6474,0.9789 Q 0.6165,0.9693 0.596,0.9693 0.5665,0.9693 0.5447,0.9915 0.523,1.0137 0.5165,1.0506 0.5103,1.0863 0.5247,1.1084 q 0.0145,0.0221 0.0442,0.0221 0.0264,0 0.0567,-0.0135 L 0.6198,1.1502 Q 0.5805,1.1615 0.5533,1.1615 Z m 0.1858,0 Q 0.7098,1.1615 0.6963,1.1447 0.6829,1.1279 0.6881,1.0981 l 0.0218,-0.1247 -0.0266,0 0.0051,-0.0289 0.0266,0 0.0067,-0.0384 0.0391,-0.0037 -0.0074,0.0421 0.0555,0 -0.0051,0.0289 -0.0554,0 -0.0206,0.1176 q -0.0073,0.0416 0.0286,0.0416 0.0077,0 0.0191,-0.0025 L 0.7708,1.1566 Q 0.7522,1.1615 0.7391,1.1615 Z M 0.8259,1.1566 0.863,0.9445 l 0.0385,0 -0.007,0.0399 q 0.0306,-0.0445 0.0742,-0.0445 0.0058,0 0.0121,9e-4 L 0.9745,0.9768 Q 0.9652,0.9734 0.9575,0.9734 q -0.0365,0 -0.0687,0.0434 l -0.0245,0.1398 -0.0384,0 z m 0.1636,0 0.054,-0.3084 0.0385,0 -0.054,0.3084 -0.0385,0 z" />
    <path
       style="fill:#ff0000;stroke:none"
       inkscape:connector-curvature="0"
       id="path41"
       d="m -1.9561,0.1903 q -0.0264,0 -0.0619,-0.0123 l 0.0062,-0.0353 q 0.0344,0.0187 0.0623,0.0187 0.0166,0 0.0291,-0.009 Q -1.9079,0.1435 -1.9055,0.13 -1.9021,0.1102 -1.9305,0.0974 L -1.9513,0.0878 Q -1.9974,0.0671 -1.9906,0.0282 -1.9858,5e-4 -1.9634,-0.0154 q 0.0224,-0.0159 0.0566,-0.0159 0.0178,0 0.0431,0.0048 l 0.0077,0.0016 -0.0056,0.032 q -0.0305,-0.0095 -0.0495,-0.0095 -0.0371,0 -0.0418,0.0269 -0.003,0.0174 0.023,0.0293 l 0.0172,0.0078 q 0.0291,0.0133 0.0396,0.028 0.0105,0.0148 0.0067,0.0369 -0.0049,0.0279 -0.0301,0.0459 -0.0252,0.0179 -0.0596,0.0179 z m 0.1485,-0.0048 0.0371,-0.2122 0.0385,0 -0.0371,0.2122 -0.0385,0 z m 0.0439,-0.2506 0.0067,-0.0385 0.0385,0 -0.0068,0.0385 -0.0384,0 z m 0.0602,0.3211 0.0103,-0.0334 q 0.0306,0.0158 0.063,0.0158 0.0651,0 0.0771,-0.069 L -1.5472,0.136 q -0.0291,0.0446 -0.0777,0.0446 -0.0381,0 -0.0557,-0.0278 Q -1.6982,0.1251 -1.69,0.078 -1.6815,0.0296 -1.6506,-9e-4 q 0.0309,-0.0304 0.0716,-0.0304 0.0355,0 0.056,0.0289 l 0.0043,-0.0243 0.0386,0 -0.027,0.1543 q -0.0087,0.0498 -0.018,0.0738 -0.0094,0.0239 -0.0263,0.0391 -0.0299,0.0268 -0.083,0.0268 -0.0371,0 -0.0691,-0.0113 z M -1.543,0.112 -1.5276,0.0239 q -0.0208,-0.0263 -0.0507,-0.0263 -0.0265,0 -0.0453,0.0213 -0.0187,0.0212 -0.0252,0.0583 -0.0122,0.0698 0.0368,0.0698 0.0334,0 0.069,-0.035 z" />
  </g>
  <g
     style="font-style:italic;font-size:0.5px;font-family:sans-serif;fill:#595959;stroke:#595959;stroke-width:0.04"
     id="g43"
     transform="matrix(50,0,0,50,217.6238,80)"
     font-style="italic"
     font-size="0.5px">
    <path
       style="stroke:none"
       inkscape:connector-curvature="0"
       id="path45"
       d="m -1.0844,0.1265 -0.0297,-0.3614 0.0493,0 0.024,0.2854 0.1181,-0.2854 0.0493,0 0.0152,0.2815 0.1288,-0.2815 0.0418,0 -0.1646,0.3614 -0.051,0 -0.015,-0.2786 -0.1154,0.2786 -0.0508,0 z m 0.5882,-0.1382 -0.0343,-0.1558 -0.089,0.1558 0.1233,0 z m 0.03,0.1382 -0.0218,-0.1001 -0.1531,0 -0.0573,0.1001 -0.0476,0 0.2066,-0.3614 0.0508,0 0.0778,0.3614 -0.0554,0 z m 0.1074,0 0.0633,-0.3614 0.0512,0 -0.0632,0.3614 -0.0513,0 z m 0.2303,0 0.0565,-0.323 -0.1282,0 0.0067,-0.0384 0.3076,0 -0.0067,0.0384 -0.1281,0 -0.0566,0.323 -0.0512,0 z" />
  </g>
  <g
     style="font-style:italic;font-size:0.5px;font-family:sans-serif;fill:#ffffff;stroke:#ffffff;stroke-width:0.06"
     id="g47"
     transform="matrix(50,0,0,50,55.1238,80)"
     font-style="italic"
     font-size="0.5px">
    <path
       style="stroke:none"
       inkscape:connector-curvature="0"
       id="path49"
       d="M -0.13,-0.13 0,-0.13 0.13,0 0,0.13 l -0.13,0 z" />
    <path
       style="fill:none;stroke:#000000"
       inkscape:connector-curvature="0"
       id="path51"
       d="M -0.13,-0.13 0,-0.13 0.13,0 0,0.13 l -0.13,0 z" />
  </g>
  <g
     style="font-style:italic;font-size:0.5px;font-family:sans-serif;fill:#ff0000;stroke:#ff0000;stroke-width:0.06"
     id="g53"
     transform="matrix(50,0,0,50,55.1238,80)"
     font-style="italic"
     font-size="0.5px">
    <path
       style="stroke:none"
       inkscape:connector-curvature="0"
       id="path55"
       d="m -0.9251,0.1684 q -0.0329,0 -0.0774,-0.0154 l 0.0078,-0.0442 q 0.043,0.0234 0.0779,0.0234 0.0207,0 0.0364,-0.0112 0.0156,-0.0112 0.0186,-0.0281 0.0043,-0.0246 -0.0312,-0.0407 l -0.026,-0.012 q -0.0577,-0.0259 -0.0492,-0.0745 0.006,-0.0346 0.0341,-0.0545 0.028,-0.0199 0.0707,-0.0199 0.0222,0 0.0539,0.0061 l 0.0096,0.0019 -0.007,0.0401 q -0.0382,-0.012 -0.0619,-0.012 -0.0463,0 -0.0522,0.0337 -0.0038,0.0217 0.0287,0.0366 l 0.0215,0.0098 q 0.0364,0.0166 0.0495,0.035 0.0132,0.0185 0.0083,0.046 -0.0061,0.035 -0.0376,0.0574 -0.0315,0.0225 -0.0745,0.0225 z m 0.1856,-0.0061 0.0465,-0.2652 0.048,0 -0.0464,0.2652 -0.0481,0 z m 0.0549,-0.3133 0.0084,-0.0481 0.0481,0 -0.0084,0.0481 -0.0481,0 z m 0.0752,0.4014 0.013,-0.0417 q 0.0382,0.0197 0.0788,0.0197 0.0813,0 0.0964,-0.0861 l 0.0073,-0.0418 q -0.0364,0.0557 -0.0972,0.0557 -0.0476,0 -0.0696,-0.0347 -0.022,-0.0347 -0.0117,-0.0935 0.0106,-0.0606 0.0492,-0.0986 0.0387,-0.0381 0.0894,-0.0381 0.0445,0 0.0702,0.0361 l 0.0053,-0.0303 0.0483,0 -0.0338,0.1929 q -0.0109,0.0623 -0.0226,0.0922 -0.0117,0.0299 -0.0328,0.0489 -0.0374,0.0335 -0.1038,0.0335 -0.0464,0 -0.0864,-0.0142 z m 0.2007,-0.1799 0.0193,-0.1101 q -0.026,-0.033 -0.0633,-0.033 -0.0332,0 -0.0567,0.0266 -0.0235,0.0266 -0.0316,0.073 -0.0152,0.0872 0.0461,0.0872 0.0417,0 0.0862,-0.0437 z" />
  </g>
  <g
     style="font-style:italic;font-size:0.5px;font-family:sans-serif;stroke-width:0.04"
     id="g57"
     transform="matrix(50,0,0,50,455.1238,80)"
     font-style="italic"
     font-size="0.5px">
    <path
       style="fill:none"
       inkscape:connector-curvature="0"
       id="path59"
       d="m -2.89,-1 0.38,0" />
    <path
       style="stroke:none"
       inkscape:connector-curvature="0"
       id="path61"
       d="m -2.51,-1.075 0,0.15 0.4,-0.075 z" />
  </g>
  <g
     style="font-style:italic;font-size:0.5px;font-family:sans-serif;stroke-width:0.04"
     id="g63"
     transform="matrix(50,0,0,50,455.1238,80)"
     font-style="italic"
     font-size="0.5px">
    <line
       style="fill:none"
       id="line65"
       y2="-1"
       y1="-1"
       x2="-2.8900001"
       x1="-3" />
    <line
       style="fill:none"
       id="line67"
       y2="-1"
       y1="-1"
       x2="-2"
       x1="-2.1099999" />
  </g>
  <g
     style="font-style:italic;font-size:0.5px;font-family:sans-serif;stroke-width:0.04"
     id="g69"
     transform="matrix(50,0,0,50,455.1238,80)"
     font-style="italic"
     font-size="0.5px">
    <path
       style="fill:none"
       inkscape:connector-curvature="0"
       id="path71"
       d="M -2.11,1 -2.49,1" />
    <path
       style="stroke:none"
       inkscape:connector-curvature="0"
       id="path73"
       d="m -2.49,1.075 0,-0.15 L -2.89,1 Z" />
  </g>
  <g
     style="font-style:italic;font-size:0.5px;font-family:sans-serif;stroke-width:0.04"
     id="g75"
     transform="matrix(50,0,0,50,455.1238,80)"
     font-style="italic"
     font-size="0.5px">
    <line
       style="fill:none"
       id="line77"
       y2="1"
       y1="1"
       x2="-2.1099999"
       x1="-2" />
    <line
       style="fill:none"
       id="line79"
       y2="1"
       y1="1"
       x2="-3"
       x1="-2.8900001" />
  </g>
  <g
     style="font-style:italic;font-size:0.5px;font-family:sans-serif;stroke-width:0.04"
     id="g81"
     transform="matrix(50,0,0,50,455.1238,80)"
     font-style="italic"
     font-size="0.5px">
    <path
       style="fill:none"
       inkscape:connector-curvature="0"
       id="path83"
       d="m -7.87,0 0.26,0" />
    <path
       style="stroke:none"
       inkscape:connector-curvature="0"
       id="path85"
       d="m -7.61,-0.075 0,0.15 0,-0.075 z" />
  </g>
  <g
     style="font-style:italic;font-size:0.5px;font-family:sans-serif;stroke-width:0.04"
     id="g87"
     transform="matrix(50,0,0,50,455.1238,80)"
     font-style="italic"
     font-size="0.5px">
    <line
       style="fill:none"
       id="line89"
       y2="0"
       y1="0"
       x2="-7.5"
       x1="-7.6100001" />
  </g>
  <path
     style="fill:none;fill-rule:evenodd;stroke:#000000;stroke-width:1px;stroke-linecap:butt;stroke-linejoin:miter;stroke-opacity:1"
     d="m 531.07457,5.0004227 c 1.12141,10.9991193 1.29137,22.0950773 0.50738,33.1233833 -1.72785,24.305314 -8.07072,48.23697 -7.98301,72.603464 0.0542,15.04883 2.59053,30.08587 7.47563,44.31984"
     id="path4314-6"
     inkscape:path-effect="#path-effect4316-3"
     inkscape:original-d="m 531.07457,5.0004227 c 0,0 1.58419,17.8994603 0.50738,33.1233833 -1.50406,21.264292 -9.01773,47.029123 -7.98301,72.603464 0.55672,13.76009 7.47563,44.31984 7.47563,44.31984"
     inkscape:connector-curvature="0"
     sodipodi:nodetypes="cssc" />
</svg>
