<?xml version="1.0" encoding="UTF-8" standalone="no"?>
<svg xmlns:dc="http://purl.org/dc/elements/1.1/" xmlns:cc="http://creativecommons.org/ns#" xmlns:rdf="http://www.w3.org/1999/02/22-rdf-syntax-ns#" xmlns:svg="http://www.w3.org/2000/svg" xmlns="http://www.w3.org/2000/svg" xmlns:sodipodi="http://sodipodi.sourceforge.net/DTD/sodipodi-0.dtd" xmlns:inkscape="http://www.inkscape.org/namespaces/inkscape" font-size="12px" font-style="normal" font-weight="normal" height="100%" stroke-miterlimit="10" width="100%" id="svg2" version="1.1" inkscape:version="0.91 r13725" sodipodi:docname="RWAIT.stg.svg" style="font-style:normal;font-weight:normal;font-size:12px;font-family:Dialog;color-interpolation:auto;fill:#000000;fill-opacity:1;stroke:#000000;stroke-width:1;stroke-linecap:square;stroke-linejoin:miter;stroke-miterlimit:10;stroke-dasharray:none;stroke-dashoffset:0;stroke-opacity:1;color-rendering:auto;image-rendering:auto;shape-rendering:auto;text-rendering:auto" viewBox="0 0 906 539" preserveAspectRatio="xMidYMid slice">
  <metadata
     id="metadata205">
    <rdf:RDF>
      <cc:Work
         rdf:about="">
        <dc:format>image/svg+xml</dc:format>
        <dc:type
           rdf:resource="http://purl.org/dc/dcmitype/StillImage" />
        <dc:title></dc:title>
      </cc:Work>
    </rdf:RDF>
  </metadata>
  <sodipodi:namedview
     pagecolor="#ffffff"
     bordercolor="#666666"
     borderopacity="1"
     objecttolerance="10"
     gridtolerance="10"
     guidetolerance="10"
     inkscape:pageopacity="0"
     inkscape:pageshadow="2"
     inkscape:window-width="1920"
     inkscape:window-height="1176"
     id="namedview203"
     showgrid="false"
     fit-margin-top="0"
     fit-margin-left="0"
     fit-margin-right="0"
     fit-margin-bottom="0"
     inkscape:zoom="1.8151505"
     inkscape:cx="157.6446"
     inkscape:cy="268.3647"
     inkscape:window-x="0"
     inkscape:window-y="24"
     inkscape:window-maximized="1"
     inkscape:current-layer="svg2" />
  <!--Generated by the Batik Graphics2D SVG Generator-->
  <defs
     id="genericDefs" />
  <g
     style="font-size:0.75px;font-family:sans-serif;fill:#b20000;stroke:#b20000"
     id="g7"
     transform="matrix(50,0,0,50,372.345,268.3353)"
     font-size="0.75px">
    <path
       style="stroke:none"
       inkscape:connector-curvature="0"
       id="path9"
       d="m -0.5409,-0.1912 0,0.0629 q -0.0286,-0.0157 -0.0573,-0.0236 -0.0288,-0.0079 -0.0581,-0.0079 -0.0655,0 -0.1018,0.0416 -0.0362,0.0416 -0.0362,0.1166 0,0.0751 0.0362,0.1167 0.0363,0.0415 0.1018,0.0415 0.0293,0 0.0581,-0.0078 0.0287,-0.0079 0.0573,-0.0236 l 0,0.0622 q -0.0282,0.0132 -0.0584,0.0198 -0.0302,0.0066 -0.0643,0.0066 -0.0926,0 -0.1472,-0.0582 -0.0546,-0.0583 -0.0546,-0.1572 0,-0.1003 0.0552,-0.1578 0.0551,-0.0575 0.151,-0.0575 0.0312,0 0.0608,0.0064 0.0297,0.0064 0.0575,0.0193 z m 0.1838,-0.1323 0,0.1165 0.1388,0 0,0.0524 -0.1388,0 0,0.2226 q 0,0.0502 0.0138,0.0645 0.0137,0.0143 0.0558,0.0143 l 0.0692,0 0,0.0564 -0.0692,0 q -0.078,0 -0.1076,-0.0292 -0.0297,-0.0291 -0.0297,-0.106 l 0,-0.2226 -0.0494,0 0,-0.0524 0.0494,0 0,-0.1165 0.0677,0 z M 0.108,-0.144 Q 0.0967,-0.1506 0.0833,-0.1537 0.07,-0.1568 0.0538,-0.1568 q -0.0571,0 -0.0877,0.0371 -0.0306,0.0372 -0.0306,0.1068 l 0,0.2161 -0.0677,0 0,-0.4102 0.0677,0 0,0.0637 q 0.0213,-0.0373 0.0553,-0.0555 0.0341,-0.0181 0.0828,-0.0181 0.007,0 0.0154,9e-4 0.0084,9e-4 0.0187,0.0028 l 3e-4,0.0692 z m 0.0707,-0.2227 0.0674,0 0,0.5699 -0.0674,0 0,-0.5699 z m 0.4827,0.0996 0,0.204 0.204,0 0,0.0623 -0.204,0 0,0.204 -0.0615,0 0,-0.204 -0.204,0 0,-0.0623 0.204,0 0,-0.204 0.0615,0 z" />
  </g>
  <g
     style="font-size:0.75px;font-family:sans-serif;fill:#b20000;stroke:#b20000"
     id="g11"
     transform="matrix(50,0,0,50,122.345,18.335)"
     font-size="0.75px">
    <path
       style="stroke:none"
       inkscape:connector-curvature="0"
       id="path13"
       d="m -0.4971,-0.3667 0,0.0561 -0.0645,0 q -0.0362,0 -0.0503,0.0146 -0.0141,0.0147 -0.0141,0.0528 l 0,0.0362 0.1109,0 0,0.0524 -0.1109,0 0,0.3578 -0.0678,0 0,-0.3578 -0.0644,0 0,-0.0524 0.0644,0 0,-0.0286 q 0,-0.0684 0.0319,-0.0998 0.0318,-0.0313 0.101,-0.0313 l 0.0638,0 z m 0.294,0.2227 q -0.0113,-0.0066 -0.0247,-0.0097 -0.0134,-0.0031 -0.0295,-0.0031 -0.0571,0 -0.0877,0.0371 -0.0306,0.0372 -0.0306,0.1068 l 0,0.2161 -0.0677,0 0,-0.4102 0.0677,0 0,0.0637 q 0.0213,-0.0373 0.0553,-0.0555 0.0341,-0.0181 0.0828,-0.0181 0.007,0 0.0154,9e-4 0.0084,9e-4 0.0187,0.0028 l 3e-4,0.0692 z m 0.3659,-0.0472 0,0.0629 Q 0.1342,-0.144 0.1055,-0.1519 0.0767,-0.1598 0.0474,-0.1598 q -0.0655,0 -0.1018,0.0416 -0.0362,0.0416 -0.0362,0.1166 0,0.0751 0.0362,0.1167 0.0363,0.0415 0.1018,0.0415 0.0293,0 0.0581,-0.0078 0.0287,-0.0079 0.0573,-0.0236 l 0,0.0622 Q 0.1346,0.2006 0.1044,0.2072 0.0741,0.2138 0.0401,0.2138 q -0.0927,0 -0.1472,-0.0582 -0.0546,-0.0583 -0.0546,-0.1572 0,-0.1003 0.0551,-0.1578 0.0551,-0.0575 0.1511,-0.0575 0.0311,0 0.0608,0.0064 0.0296,0.0064 0.0575,0.0193 z m 0.3915,-0.0759 0,0.204 0.2039,0 0,0.0623 -0.2039,0 0,0.204 -0.0616,0 0,-0.204 -0.2039,0 0,-0.0623 0.2039,0 0,-0.204 0.0616,0 z" />
  </g>
  <g
     style="font-size:0.75px;font-family:sans-serif;fill:#0000b2;stroke:#0000b2"
     id="g15"
     transform="matrix(50,0,0,50,722.345,418.335)"
     font-size="0.75px">
    <path
       style="stroke:none"
       inkscape:connector-curvature="0"
       id="path17"
       d="m -0.6255,-0.2298 0,0.0638 q -0.0286,-0.0147 -0.0593,-0.022 -0.0308,-0.0073 -0.0637,-0.0073 -0.0502,0 -0.0753,0.0153 -0.0251,0.0154 -0.0251,0.0462 0,0.0234 0.018,0.0368 0.0179,0.0133 0.0721,0.0254 l 0.0231,0.0052 q 0.0718,0.0153 0.102,0.0434 0.0302,0.028 0.0302,0.0781 0,0.0572 -0.0452,0.0905 -0.0453,0.0333 -0.1244,0.0333 -0.0329,0 -0.0686,-0.0064 Q -0.8774,0.1661 -0.917,0.1533 l 0,-0.0696 q 0.0374,0.0194 0.0736,0.0291 0.0363,0.0097 0.0718,0.0097 0.0476,0 0.0732,-0.0163 0.0257,-0.0163 0.0257,-0.0459 0,-0.0275 -0.0185,-0.0422 Q -0.7097,0.0035 -0.7723,-0.01 l -0.0235,-0.0055 q -0.0626,-0.0132 -0.0904,-0.0405 -0.0279,-0.0273 -0.0279,-0.0749 0,-0.0579 0.041,-0.0894 0.0411,-0.0315 0.1165,-0.0315 0.0374,0 0.0703,0.0055 0.033,0.0055 0.0608,0.0165 z m 0.3157,0.1919 q -0.0817,0 -0.1132,0.0187 -0.0315,0.0187 -0.0315,0.0637 0,0.0359 0.0236,0.057 0.0237,0.021 0.0643,0.021 0.056,0 0.0899,-0.0397 0.0339,-0.0398 0.0339,-0.1057 l 0,-0.015 -0.067,0 z m 0.1344,-0.0278 0,0.234 -0.0674,0 0,-0.0623 q -0.0231,0.0374 -0.0575,0.0552 -0.0344,0.0177 -0.0842,0.0177 -0.063,0 -0.1002,-0.0353 -0.0372,-0.0354 -0.0372,-0.0947 0,-0.0692 0.0464,-0.1044 0.0463,-0.0351 0.1382,-0.0351 l 0.0945,0 0,-0.0066 q 0,-0.0465 -0.0306,-0.072 -0.0306,-0.0254 -0.0859,-0.0254 -0.0351,0 -0.0684,0.0084 -0.0334,0.0084 -0.0641,0.0253 l 0,-0.0623 q 0.037,-0.0143 0.0718,-0.0214 0.0347,-0.0072 0.0677,-0.0072 0.089,0 0.1329,0.0462 0.044,0.0461 0.044,0.1399 z m 0.4797,-0.0136 0,0.2476 -0.0674,0 0,-0.2454 q 0,-0.0582 -0.0227,-0.0871 -0.0227,-0.029 -0.0681,-0.029 -0.0545,0 -0.086,0.0348 -0.0315,0.0348 -0.0315,0.0949 l 0,0.2318 -0.0678,0 0,-0.4102 0.0678,0 0,0.0638 q 0.0241,-0.037 0.0569,-0.0553 0.0328,-0.0184 0.0756,-0.0184 0.0707,0 0.107,0.0438 0.0362,0.0438 0.0362,0.1287 z m 0.4087,-0.2226 0,0.204 0.204,0 0,0.0622 -0.204,0 0,0.204 -0.0615,0 0,-0.204 -0.204,0 0,-0.0622 0.204,0 0,-0.204 0.0615,0 z" />
  </g>
  <g
     style="font-size:0.75px;font-family:sans-serif;fill:#b20000;stroke:#b20000"
     id="g19"
     transform="matrix(50,0,0,50,122.345,318.335)"
     font-size="0.75px">
    <path
       style="stroke:none"
       inkscape:connector-curvature="0"
       id="path21"
       d="m -0.5002,-0.144 0,0.0637 q -0.0286,-0.0147 -0.0594,-0.022 -0.0307,-0.0073 -0.0637,-0.0073 -0.0502,0 -0.0753,0.0154 -0.025,0.0153 -0.025,0.0461 0,0.0235 0.0179,0.0368 0.018,0.0134 0.0722,0.0255 l 0.023,0.0051 q 0.0718,0.0154 0.102,0.0434 0.0302,0.028 0.0302,0.0782 0,0.0571 -0.0452,0.0904 -0.0452,0.0334 -0.1243,0.0334 -0.033,0 -0.0687,-0.0064 Q -0.7522,0.2518 -0.7917,0.239 l 0,-0.0696 q 0.0373,0.0195 0.0736,0.0292 0.0362,0.0097 0.0717,0.0097 0.0476,0 0.0733,-0.0163 0.0256,-0.0163 0.0256,-0.046 0,-0.0275 -0.0185,-0.0421 Q -0.5845,0.0892 -0.6471,0.0757 L -0.6705,0.0702 Q -0.7332,0.057 -0.761,0.0297 -0.7888,0.0024 -0.7888,-0.0451 q 0,-0.0579 0.041,-0.0894 0.041,-0.0315 0.1164,-0.0315 0.0374,0 0.0704,0.0055 0.0329,0.0055 0.0608,0.0165 z m 0.1292,-0.0121 0.0674,0 0,0.4101 -0.0674,0 0,-0.4101 z m 0,-0.1597 0.0674,0 0,0.0853 -0.0674,0 0,-0.0853 z m 0.4783,0.36 q 0,-0.0732 -0.0302,-0.1135 -0.0302,-0.0403 -0.0848,-0.0403 -0.0542,0 -0.0844,0.0403 -0.0302,0.0403 -0.0302,0.1135 0,0.0729 0.0302,0.1132 0.0302,0.0402 0.0844,0.0402 0.0546,0 0.0848,-0.0402 0.0302,-0.0403 0.0302,-0.1132 z m 0.0674,0.1589 q 0,0.1048 -0.0465,0.1559 -0.0465,0.051 -0.1425,0.051 -0.0355,0 -0.067,-0.0053 -0.0315,-0.0053 -0.0612,-0.0163 l 0,-0.0655 q 0.0297,0.0161 0.0586,0.0238 0.029,0.0077 0.059,0.0077 0.0663,0 0.0992,-0.0346 0.033,-0.0346 0.033,-0.1046 l 0,-0.0333 Q 0.0864,0.2181 0.0538,0.2361 0.0212,0.254 -0.0242,0.254 q -0.0754,0 -0.1216,-0.0575 -0.0461,-0.0574 -0.0461,-0.1523 0,-0.0952 0.0461,-0.1527 0.0462,-0.0575 0.1216,-0.0575 0.0454,0 0.078,0.0179 0.0326,0.018 0.0535,0.0542 l 0,-0.0622 0.0674,0 0,0.3592 z m 0.4131,-0.4193 0,0.204 0.2039,0 0,0.0623 -0.2039,0 0,0.2039 -0.0616,0 0,-0.2039 -0.2039,0 0,-0.0623 0.2039,0 0,-0.204 0.0616,0 z" />
  </g>
  <g
     style="font-size:0.75px;font-family:sans-serif;fill:#b20000;stroke:#b20000"
     id="g23"
     transform="matrix(50,0,0,50,122.345,518.335)"
     font-size="0.75px">
    <path
       style="stroke:none"
       inkscape:connector-curvature="0"
       id="path25"
       d="m -0.3428,-0.144 0,0.0637 q -0.0285,-0.0147 -0.0593,-0.022 -0.0308,-0.0073 -0.0637,-0.0073 -0.0502,0 -0.0753,0.0154 -0.0251,0.0153 -0.0251,0.0461 0,0.0235 0.018,0.0368 0.0179,0.0134 0.0721,0.0255 l 0.0231,0.0051 q 0.0718,0.0154 0.102,0.0434 0.0302,0.028 0.0302,0.0782 0,0.0571 -0.0452,0.0904 -0.0453,0.0334 -0.1244,0.0334 -0.0329,0 -0.0686,-0.0064 Q -0.5947,0.2518 -0.6343,0.239 l 0,-0.0696 q 0.0374,0.0195 0.0736,0.0292 0.0363,0.0097 0.0718,0.0097 0.0476,0 0.0732,-0.0163 Q -0.39,0.1757 -0.39,0.146 -0.39,0.1185 -0.4085,0.1039 -0.427,0.0892 -0.4896,0.0757 L -0.5131,0.0702 Q -0.5757,0.057 -0.6035,0.0297 -0.6314,0.0024 -0.6314,-0.0451 q 0,-0.0579 0.0411,-0.0894 0.041,-0.0315 0.1164,-0.0315 0.0374,0 0.0703,0.0055 0.033,0.0055 0.0608,0.0165 z m 0.1293,-0.0121 0.0674,0 0,0.4101 -0.0674,0 0,-0.4101 z m 0,-0.1597 0.0674,0 0,0.0853 -0.0674,0 0,-0.0853 z m 0.4783,0.36 q 0,-0.0732 -0.0302,-0.1135 -0.0303,-0.0403 -0.0848,-0.0403 -0.0542,0 -0.0844,0.0403 -0.0302,0.0403 -0.0302,0.1135 0,0.0729 0.0302,0.1132 0.0302,0.0402 0.0844,0.0402 0.0545,0 0.0848,-0.0402 0.0302,-0.0403 0.0302,-0.1132 z m 0.0673,0.1589 q 0,0.1048 -0.0465,0.1559 Q 0.2391,0.41 0.1432,0.41 0.1077,0.41 0.0762,0.4047 0.0447,0.3994 0.015,0.3884 l 0,-0.0655 q 0.0297,0.0161 0.0586,0.0238 0.0289,0.0077 0.059,0.0077 0.0662,0 0.0992,-0.0346 0.033,-0.0346 0.033,-0.1046 l 0,-0.0333 Q 0.2439,0.2181 0.2113,0.2361 0.1787,0.254 0.1333,0.254 0.0579,0.254 0.0117,0.1965 -0.0344,0.1391 -0.0344,0.0442 q 0,-0.0952 0.0461,-0.1527 0.0462,-0.0575 0.1216,-0.0575 0.0454,0 0.078,0.0179 0.0326,0.018 0.0535,0.0542 l 0,-0.0622 0.0673,0 0,0.3592 z m 0.1048,-0.1845 0.1974,0 0,0.06 -0.1974,0 0,-0.06 z" />
  </g>
  <g
     style="font-size:0.75px;font-family:sans-serif;fill:#ffffff;stroke:#ffffff"
     id="g27"
     transform="matrix(50,0,0,50,222.345,418.335)"
     font-size="0.75px">
    <circle
       style="stroke:none"
       id="circle29"
       r="0.44999999"
       cy="0"
       cx="0" />
    <circle
       style="fill:none;stroke:#000000;stroke-width:0.1"
       id="circle31"
       r="0.44999999"
       cy="0"
       cx="0" />
  </g>
  <g
     style="font-style:italic;font-size:0.5px;font-family:sans-serif;fill:#666666;stroke:#666666;stroke-width:0.1"
     id="g33"
     transform="matrix(50,0,0,50,222.345,418.335)"
     font-style="italic"
     font-size="0.5px">
    <path
       style="stroke:none"
       inkscape:connector-curvature="0"
       id="path35"
       d="m -1.4092,-0.096 -0.0086,0.0425 q -0.0178,-0.0098 -0.0376,-0.0147 -0.0198,-0.0049 -0.0407,-0.0049 -0.0354,0 -0.0558,0.0121 -0.0204,0.0121 -0.0204,0.0328 0,0.0242 0.0473,0.0372 0.0037,9e-4 0.0054,0.0014 l 0.0144,0.0044 q 0.0449,0.0125 0.0599,0.0261 0.0151,0.0137 0.0151,0.0374 0,0.0435 -0.0346,0.0708 -0.0345,0.0273 -0.0904,0.0273 -0.0218,0 -0.0457,-0.0041 -0.0239,-0.0042 -0.0527,-0.013 L -1.6448,0.113 q 0.0246,0.0127 0.0486,0.0193 0.0239,0.0065 0.0459,0.0065 0.0329,0 0.0535,-0.0141 0.0207,-0.0142 0.0207,-0.0359 0,-0.0234 -0.0542,-0.0378 L -1.535,0.0497 -1.5503,0.0458 Q -1.5845,0.0368 -1.6004,0.022 -1.6163,0.0073 -1.6163,-0.0157 q 0,-0.0437 0.0329,-0.0693 0.0328,-0.0257 0.0892,-0.0257 0.0222,0 0.0433,0.0037 0.0212,0.0037 0.0417,0.011 z m 0.102,-0.1145 0.0449,0 -0.011,0.0569 -0.0449,0 0.011,-0.0569 z m -0.0205,0.1064 0.0449,0 -0.0534,0.2735 -0.045,0 0.0535,-0.2735 z m 0.366,0 -0.0467,0.2395 q -0.0134,0.0696 -0.0514,0.1038 -0.0379,0.0342 -0.1021,0.0342 -0.0237,0 -0.044,-0.0036 Q -1.2261,0.2663 -1.2437,0.259 l 0.0083,-0.0437 q 0.0166,0.0107 0.0351,0.0158 0.0186,0.0052 0.0396,0.0052 0.0427,0 0.0702,-0.0234 0.0275,-0.0233 0.0362,-0.067 l 0.0039,-0.0205 q -0.0187,0.0215 -0.0436,0.0327 -0.0249,0.0113 -0.0538,0.0113 -0.0415,0 -0.0653,-0.0275 -0.0238,-0.0275 -0.0238,-0.0756 0,-0.0378 0.0144,-0.0741 0.0144,-0.0362 0.0406,-0.0643 0.0173,-0.0186 0.0404,-0.0286 0.023,-0.01 0.0482,-0.01 0.0276,0 0.0481,0.0129 0.0205,0.0128 0.0305,0.0362 l 0.0078,-0.0425 0.0452,0 z m -0.0677,0.1004 q 0,-0.0332 -0.0156,-0.0513 -0.0156,-0.0181 -0.0444,-0.0181 -0.0178,0 -0.0339,0.0071 -0.0162,0.0071 -0.0276,0.0198 -0.0186,0.021 -0.029,0.0494 -0.0103,0.0285 -0.0103,0.0587 0,0.0337 0.0157,0.0518 0.0158,0.0181 0.0453,0.0181 0.0427,0 0.0713,-0.0387 0.0285,-0.0387 0.0285,-0.0968 z m 0.1194,0.1316 0.0806,0 0.0544,-0.2806 -0.091,0.0176 0.0085,-0.0425 0.0906,-0.0175 0.0496,0 -0.063,0.323 0.0803,0 -0.0078,0.0415 -0.2102,0 0.008,-0.0415 z" />
  </g>
  <g
     style="font-size:0.75px;font-family:sans-serif;fill:#b20000;stroke:#b20000;stroke-width:0.1"
     id="g37"
     transform="matrix(50,0,0,50,722.345,268.335)"
     font-size="0.75px">
    <path
       style="stroke:none"
       inkscape:connector-curvature="0"
       id="path39"
       d="m -0.3834,-0.1912 0,0.0629 q -0.0286,-0.0157 -0.0573,-0.0236 -0.0288,-0.0079 -0.0581,-0.0079 -0.0655,0 -0.1018,0.0416 -0.0362,0.0416 -0.0362,0.1166 0,0.0751 0.0362,0.1167 0.0363,0.0415 0.1018,0.0415 0.0293,0 0.0581,-0.0078 0.0287,-0.0079 0.0573,-0.0236 l 0,0.0622 q -0.0282,0.0132 -0.0584,0.0198 -0.0302,0.0066 -0.0643,0.0066 -0.0927,0 -0.1472,-0.0582 -0.0546,-0.0583 -0.0546,-0.1572 0,-0.1003 0.0551,-0.1578 0.0551,-0.0575 0.1511,-0.0575 0.0311,0 0.0608,0.0064 0.0296,0.0064 0.0575,0.0193 z m 0.1838,-0.1323 0,0.1165 0.1388,0 0,0.0524 -0.1388,0 0,0.2226 q 0,0.0502 0.0137,0.0645 0.0138,0.0143 0.0559,0.0143 l 0.0692,0 0,0.0564 -0.0692,0 q -0.078,0 -0.1077,-0.0292 -0.0296,-0.0291 -0.0296,-0.106 l 0,-0.2226 -0.0495,0 0,-0.0524 0.0495,0 0,-0.1165 0.0677,0 z M 0.2655,-0.144 Q 0.2542,-0.1506 0.2408,-0.1537 0.2274,-0.1568 0.2113,-0.1568 q -0.0571,0 -0.0877,0.0371 -0.0306,0.0372 -0.0306,0.1068 l 0,0.2161 -0.0677,0 0,-0.4102 0.0677,0 0,0.0637 q 0.0213,-0.0373 0.0553,-0.0555 0.0341,-0.0181 0.0828,-0.0181 0.0069,0 0.0154,9e-4 0.0084,9e-4 0.0186,0.0028 l 4e-4,0.0692 z m 0.0707,-0.2227 0.0674,0 0,0.5699 -0.0674,0 0,-0.5699 z m 0.1743,0.3344 0.1974,0 0,0.06 -0.1974,0 0,-0.06 z" />
  </g>
  <g
     style="font-size:0.75px;font-family:sans-serif;fill:#0000b2;stroke:#0000b2;stroke-width:0.1"
     id="g41"
     transform="matrix(50,0,0,50,547.345,268.335)"
     font-size="0.75px">
    <path
       style="stroke:none"
       inkscape:connector-curvature="0"
       id="path43"
       d="m -0.468,-0.2473 0,0.0637 q -0.0286,-0.0147 -0.0593,-0.022 -0.0308,-0.0073 -0.0638,-0.0073 -0.0501,0 -0.0752,0.0154 -0.0251,0.0153 -0.0251,0.0461 0,0.0234 0.0179,0.0368 0.018,0.0134 0.0722,0.0255 l 0.023,0.0051 q 0.0718,0.0154 0.102,0.0434 0.0302,0.028 0.0302,0.0782 0,0.0571 -0.0452,0.0904 -0.0452,0.0334 -0.1243,0.0334 -0.033,0 -0.0687,-0.0065 Q -0.72,0.1485 -0.7595,0.1357 l 0,-0.0696 q 0.0373,0.0194 0.0736,0.0292 0.0362,0.0097 0.0718,0.0097 0.0476,0 0.0732,-0.0163 0.0256,-0.0163 0.0256,-0.046 0,-0.0275 -0.0185,-0.0421 -0.0185,-0.0147 -0.0811,-0.0282 l -0.0234,-0.0055 q -0.0626,-0.0132 -0.0905,-0.0405 -0.0278,-0.0273 -0.0278,-0.0749 0,-0.0578 0.041,-0.0893 0.041,-0.0315 0.1165,-0.0315 0.0373,0 0.0703,0.0055 0.033,0.0055 0.0608,0.0165 z m 0.3156,0.1919 q -0.0816,0 -0.1131,0.0186 -0.0315,0.0187 -0.0315,0.0638 0,0.0358 0.0236,0.0569 0.0236,0.0211 0.0643,0.0211 0.056,0 0.0899,-0.0398 0.0339,-0.0397 0.0339,-0.1056 l 0,-0.015 -0.0671,0 z m 0.1345,-0.0279 0,0.234 -0.0674,0 0,-0.0622 q -0.0231,0.0373 -0.0575,0.0551 -0.0345,0.0178 -0.0843,0.0178 -0.0629,0 -0.1001,-0.0354 -0.0372,-0.0353 -0.0372,-0.0947 0,-0.0692 0.0463,-0.1043 0.0464,-0.0352 0.1383,-0.0352 l 0.0945,0 0,-0.0066 q 0,-0.0465 -0.0306,-0.0719 -0.0306,-0.0255 -0.0859,-0.0255 -0.0351,0 -0.0685,0.0084 -0.0333,0.0085 -0.0641,0.0253 l 0,-0.0622 q 0.037,-0.0143 0.0718,-0.0215 0.0348,-0.0071 0.0678,-0.0071 0.089,0 0.1329,0.0461 0.044,0.0462 0.044,0.1399 z m 0.4797,-0.0135 0,0.2475 -0.0674,0 0,-0.2453 q 0,-0.0583 -0.0227,-0.0872 -0.0227,-0.0289 -0.0681,-0.0289 -0.0546,0 -0.0861,0.0348 -0.0315,0.0348 -0.0315,0.0948 l 0,0.2318 -0.0677,0 0,-0.4101 0.0677,0 0,0.0637 q 0.0242,-0.037 0.057,-0.0553 0.0328,-0.0183 0.0756,-0.0183 0.0707,0 0.1069,0.0438 0.0363,0.0437 0.0363,0.1287 z m 0.1003,0.0121 0.1974,0 0,0.06 -0.1974,0 0,-0.06 z" />
  </g>
  <g
     style="font-size:0.75px;font-family:sans-serif;fill:#b20000;stroke:#b20000;stroke-width:0.1"
     id="g45"
     transform="matrix(50,0,0,50,122.345,218.335)"
     font-size="0.75px">
    <path
       style="stroke:none"
       inkscape:connector-curvature="0"
       id="path47"
       d="m -0.3397,-0.3667 0,0.0561 -0.0644,0 q -0.0363,0 -0.0504,0.0146 -0.0141,0.0147 -0.0141,0.0528 l 0,0.0362 0.111,0 0,0.0524 -0.111,0 0,0.3578 -0.0677,0 0,-0.3578 -0.0645,0 0,-0.0524 0.0645,0 0,-0.0286 q 0,-0.0684 0.0318,-0.0998 0.0319,-0.0313 0.1011,-0.0313 l 0.0637,0 z m 0.2941,0.2227 q -0.0113,-0.0066 -0.0247,-0.0097 -0.0134,-0.0031 -0.0295,-0.0031 -0.0571,0 -0.0877,0.0371 -0.0306,0.0372 -0.0306,0.1068 l 0,0.2161 -0.0677,0 0,-0.4102 0.0677,0 0,0.0637 q 0.0213,-0.0373 0.0553,-0.0555 0.0341,-0.0181 0.0828,-0.0181 0.0069,0 0.0154,9e-4 0.0084,9e-4 0.0186,0.0028 l 4e-4,0.0692 z m 0.3658,-0.0472 0,0.0629 Q 0.2917,-0.144 0.2629,-0.1519 0.2342,-0.1598 0.2049,-0.1598 q -0.0656,0 -0.1018,0.0416 -0.0363,0.0416 -0.0363,0.1166 0,0.0751 0.0363,0.1167 0.0362,0.0415 0.1018,0.0415 0.0293,0 0.058,-0.0078 0.0288,-0.0079 0.0573,-0.0236 l 0,0.0622 Q 0.292,0.2006 0.2618,0.2072 0.2316,0.2138 0.1976,0.2138 q -0.0927,0 -0.1473,-0.0582 -0.0545,-0.0583 -0.0545,-0.1572 0,-0.1003 0.0551,-0.1578 0.0551,-0.0575 0.1511,-0.0575 0.0311,0 0.0608,0.0064 0.0296,0.0064 0.0574,0.0193 z m 0.0832,0.1589 0.1974,0 0,0.06 -0.1974,0 0,-0.06 z" />
  </g>
  <g
     style="font-size:0.75px;font-family:sans-serif;fill:#0000b2;stroke:#0000b2;stroke-width:0.1"
     id="g49"
     transform="matrix(50,0,0,50,722.345,118.335)"
     font-size="0.75px">
    <path
       style="stroke:none"
       inkscape:connector-curvature="0"
       id="path51"
       d="m -0.6255,-0.2298 0,0.0638 q -0.0286,-0.0147 -0.0593,-0.022 -0.0308,-0.0073 -0.0637,-0.0073 -0.0502,0 -0.0753,0.0153 -0.0251,0.0154 -0.0251,0.0462 0,0.0234 0.018,0.0368 0.0179,0.0133 0.0721,0.0254 l 0.0231,0.0052 q 0.0718,0.0153 0.102,0.0434 0.0302,0.028 0.0302,0.0781 0,0.0572 -0.0452,0.0905 -0.0453,0.0333 -0.1244,0.0333 -0.0329,0 -0.0686,-0.0064 Q -0.8774,0.1661 -0.917,0.1533 l 0,-0.0696 q 0.0374,0.0194 0.0736,0.0291 0.0363,0.0097 0.0718,0.0097 0.0476,0 0.0732,-0.0163 0.0257,-0.0163 0.0257,-0.0459 0,-0.0275 -0.0185,-0.0422 Q -0.7097,0.0035 -0.7723,-0.01 l -0.0235,-0.0055 q -0.0626,-0.0132 -0.0904,-0.0405 -0.0279,-0.0273 -0.0279,-0.0749 0,-0.0579 0.041,-0.0894 0.0411,-0.0315 0.1165,-0.0315 0.0374,0 0.0703,0.0055 0.033,0.0055 0.0608,0.0165 z m 0.3157,0.1919 q -0.0817,0 -0.1132,0.0187 -0.0315,0.0187 -0.0315,0.0637 0,0.0359 0.0236,0.057 0.0237,0.021 0.0643,0.021 0.056,0 0.0899,-0.0397 0.0339,-0.0398 0.0339,-0.1057 l 0,-0.015 -0.067,0 z m 0.1344,-0.0278 0,0.234 -0.0674,0 0,-0.0623 q -0.0231,0.0374 -0.0575,0.0552 -0.0344,0.0177 -0.0842,0.0177 -0.063,0 -0.1002,-0.0353 -0.0372,-0.0354 -0.0372,-0.0947 0,-0.0692 0.0464,-0.1044 0.0463,-0.0351 0.1382,-0.0351 l 0.0945,0 0,-0.0066 q 0,-0.0465 -0.0306,-0.072 -0.0306,-0.0254 -0.0859,-0.0254 -0.0351,0 -0.0684,0.0084 -0.0334,0.0084 -0.0641,0.0253 l 0,-0.0623 q 0.037,-0.0143 0.0718,-0.0214 0.0347,-0.0072 0.0677,-0.0072 0.089,0 0.1329,0.0462 0.044,0.0461 0.044,0.1399 z m 0.4797,-0.0136 0,0.2476 -0.0674,0 0,-0.2454 q 0,-0.0582 -0.0227,-0.0871 -0.0227,-0.029 -0.0681,-0.029 -0.0545,0 -0.086,0.0348 -0.0315,0.0348 -0.0315,0.0949 l 0,0.2318 -0.0678,0 0,-0.4102 0.0678,0 0,0.0638 q 0.0241,-0.037 0.0569,-0.0553 0.0328,-0.0184 0.0756,-0.0184 0.0707,0 0.107,0.0438 0.0362,0.0438 0.0362,0.1287 z m 0.4087,-0.2226 0,0.204 0.204,0 0,0.0622 -0.204,0 0,0.204 -0.0615,0 0,-0.204 -0.204,0 0,-0.0622 0.204,0 0,-0.204 0.0615,0 z" />
  </g>
  <g
     style="font-size:0.75px;font-family:sans-serif;fill:#ffffff;stroke:#ffffff;stroke-width:0.1"
     id="g53"
     transform="matrix(50,0,0,50,222.345,268.335)"
     font-size="0.75px">
    <circle
       style="stroke:none"
       id="circle55"
       r="0.44999999"
       cy="0"
       cx="0" />
    <circle
       style="fill:none;stroke:#000000"
       id="circle57"
       r="0.44999999"
       cy="0"
       cx="0" />
  </g>
  <g
     style="font-style:italic;font-size:0.5px;font-family:sans-serif;fill:#666666;stroke:#666666;stroke-width:0.1"
     id="g59"
     transform="matrix(50,0,0,50,222.345,268.335)"
     font-style="italic"
     font-size="0.5px">
    <path
       style="stroke:none"
       inkscape:connector-curvature="0"
       id="path61"
       d="m -1.0235,-0.0646 -0.032,0.1651 -0.0449,0 0.0315,-0.1636 q 0.0019,-0.0105 0.0029,-0.0181 0.001,-0.0075 0.001,-0.0129 0,-0.022 -0.0122,-0.0342 -0.0122,-0.0122 -0.0342,-0.0122 -0.0327,0 -0.0583,0.0246 -0.0257,0.0245 -0.0332,0.0638 l -0.0301,0.1526 -0.0449,0 0.032,-0.1636 q 0.0019,-0.009 0.0029,-0.0167 0.001,-0.0077 0.001,-0.0138 0,-0.0222 -0.0122,-0.0346 -0.0122,-0.0123 -0.0337,-0.0123 -0.0332,0 -0.0588,0.0246 -0.0257,0.0245 -0.0332,0.0638 l -0.0301,0.1526 -0.0449,0 0.0535,-0.2734 0.0449,0 -0.0085,0.0424 q 0.0183,-0.0239 0.0428,-0.0365 0.0245,-0.0125 0.0526,-0.0125 0.0298,0 0.049,0.0156 0.0191,0.0156 0.023,0.0434 0.0205,-0.0288 0.0475,-0.0439 0.027,-0.0151 0.057,-0.0151 0.0352,0 0.0543,0.0202 0.0192,0.0203 0.0192,0.0574 0,0.008 -10e-4,0.0177 -9e-4,0.0096 -0.0029,0.0196 z m 0.2786,0.0039 q 7e-4,-0.0039 0.0011,-0.008 3e-4,-0.0042 3e-4,-0.0083 0,-0.0298 -0.0174,-0.0471 -0.0175,-0.0173 -0.0475,-0.0173 -0.0334,0 -0.0591,0.0211 -0.0256,0.0211 -0.0388,0.0599 l 0.1614,-3e-4 z m 0.039,0.0352 -0.2089,0 q -0.0015,0.0093 -0.002,0.0147 -5e-4,0.0053 -5e-4,0.0092 0,0.034 0.0209,0.0525 0.0209,0.0186 0.0589,0.0186 0.0293,0 0.0555,-0.0066 0.0261,-0.0066 0.0485,-0.0193 L -0.742,0.088 q -0.0242,0.0098 -0.0499,0.0147 -0.0258,0.0049 -0.0524,0.0049 -0.0569,0 -0.0875,-0.0273 -0.0307,-0.0272 -0.0307,-0.0772 0,-0.0428 0.0153,-0.0795 0.0153,-0.0367 0.0448,-0.0655 0.019,-0.0181 0.0453,-0.0279 0.0262,-0.0097 0.0558,-0.0097 0.0464,0 0.0738,0.0278 0.0275,0.0278 0.0275,0.0747 0,0.0112 -0.0015,0.024 -0.0014,0.0129 -0.0044,0.0275 z" />
  </g>
  <g
     style="font-style:italic;font-size:0.5px;font-family:sans-serif;fill:#ffffff;stroke:#ffffff;stroke-width:0.1"
     id="g63"
     transform="matrix(50,0,0,50,822.345,268.335)"
     font-style="italic"
     font-size="0.5px">
    <circle
       style="stroke:none"
       id="circle65"
       r="0.44999999"
       cy="0"
       cx="0" />
    <circle
       style="fill:none;stroke:#000000"
       id="circle67"
       r="0.44999999"
       cy="0"
       cx="0" />
    <path
       style="fill:#666666;stroke:none"
       inkscape:connector-curvature="0"
       id="path69"
       d="m 1.1314,-0.0306 -0.032,0.165 -0.0449,0 0.0315,-0.1636 q 0.0019,-0.0105 0.0029,-0.018 0.001,-0.0076 0.001,-0.013 0,-0.0219 -0.0122,-0.0341 -0.0122,-0.0123 -0.0342,-0.0123 -0.0327,0 -0.0583,0.0246 -0.0257,0.0245 -0.0332,0.0638 l -0.0301,0.1526 -0.0449,0 0.032,-0.1636 q 0.0019,-0.009 0.0029,-0.0167 0.001,-0.0077 0.001,-0.0138 0,-0.0222 -0.0122,-0.0345 -0.0122,-0.0124 -0.0337,-0.0124 -0.0332,0 -0.0588,0.0246 -0.0257,0.0245 -0.0332,0.0638 l -0.0301,0.1526 -0.0449,0 0.0535,-0.2734 0.0449,0 -0.0086,0.0425 q 0.0184,-0.024 0.0429,-0.0365 0.0245,-0.0126 0.0526,-0.0126 0.0298,0 0.049,0.0156 0.0191,0.0156 0.023,0.0435 0.0205,-0.0288 0.0475,-0.044 0.027,-0.0151 0.057,-0.0151 0.0352,0 0.0543,0.0202 0.0192,0.0203 0.0192,0.0574 0,0.0081 -10e-4,0.0177 -0.001,0.0097 -0.0029,0.0197 z m 0.261,-0.0669 Q 1.3855,-0.1012 1.3768,-0.1031 1.368,-0.1051 1.358,-0.1051 q -0.0359,0 -0.0628,0.0272 -0.0268,0.0272 -0.0356,0.0729 l -0.0276,0.1394 -0.0449,0 0.0534,-0.2734 0.045,0 -0.0086,0.0425 q 0.0178,-0.0237 0.0426,-0.0364 0.0248,-0.0127 0.0529,-0.0127 0.0073,0 0.0144,8e-4 0.007,9e-4 0.0141,0.0028 L 1.3924,-0.0975 Z M 1.6731,-0.139 1.6265,0.1005 Q 1.6131,0.1701 1.5751,0.2042 1.5372,0.2384 1.473,0.2384 1.4493,0.2384 1.429,0.2349 1.4087,0.2313 1.3912,0.224 L 1.3995,0.1803 q 0.0166,0.0108 0.0351,0.0159 0.0186,0.0051 0.0396,0.0051 0.0427,0 0.0702,-0.0233 Q 1.5718,0.1547 1.5806,0.111 L 1.5845,0.0905 Q 1.5657,0.1119 1.5408,0.1232 1.5159,0.1344 1.4871,0.1344 1.4456,0.1344 1.4218,0.1069 1.398,0.0795 1.398,0.0314 q 0,-0.0379 0.0144,-0.0741 0.0144,-0.0363 0.0405,-0.0643 0.0174,-0.0186 0.0404,-0.0286 0.0231,-0.01 0.0482,-0.01 0.0276,0 0.0482,0.0128 0.0205,0.0128 0.0305,0.0363 l 0.0078,-0.0425 0.0451,0 z m -0.0676,0.1003 q 0,-0.0332 -0.0156,-0.0513 -0.0156,-0.018 -0.0444,-0.018 -0.0179,0 -0.034,0.0071 -0.0161,0.007 -0.0276,0.0197 -0.0185,0.021 -0.0289,0.0495 -0.0104,0.0284 -0.0104,0.0587 0,0.0337 0.0158,0.0517 0.0157,0.0181 0.0453,0.0181 0.0427,0 0.0713,-0.0387 0.0285,-0.0387 0.0285,-0.0968 z" />
  </g>
  <g
     style="font-style:italic;font-size:0.5px;font-family:sans-serif;fill:#ffffff;stroke:#ffffff;stroke-width:0.1"
     id="g71"
     transform="matrix(50,0,0,50,222.345,118.335)"
     font-style="italic"
     font-size="0.5px">
    <circle
       style="stroke:none"
       id="circle73"
       r="0.44999999"
       cy="0"
       cx="0" />
    <circle
       style="fill:none;stroke:#000000"
       id="circle75"
       r="0.44999999"
       cy="0"
       cx="0" />
    <path
       style="fill:#666666;stroke:none"
       inkscape:connector-curvature="0"
       id="path77"
       d="m -1.3599,-0.2445 -0.0071,0.0374 -0.043,0 q -0.0244,0 -0.0355,0.0096 -0.0111,0.0097 -0.0165,0.0353 l -0.0049,0.0242 0.074,0 -0.0066,0.0349 -0.0739,0 -0.0464,0.2385 -0.0452,0 0.0466,-0.2385 -0.0429,0 0.0063,-0.0349 0.043,0 0.0036,-0.019 q 0.0093,-0.0484 0.0326,-0.0679 0.0234,-0.0196 0.0734,-0.0196 l 0.0425,0 z m 0.1599,0.148 q -0.0068,-0.0037 -0.0156,-0.0056 -0.0088,-0.002 -0.0188,-0.002 -0.0359,0 -0.0628,0.0273 -0.0268,0.0272 -0.0356,0.0728 l -0.0276,0.1394 -0.0449,0 0.0534,-0.2734 0.045,0 -0.0086,0.0425 q 0.0178,-0.0237 0.0426,-0.0364 0.0248,-0.0127 0.0529,-0.0127 0.0073,0 0.0144,9e-4 0.0071,8e-4 0.0141,0.0028 L -1.2,-0.0965 Z m 0.2507,-0.031 -0.009,0.0444 q -0.0161,-0.0117 -0.0343,-0.0175 -0.0182,-0.0059 -0.0377,-0.0059 -0.0215,0 -0.0409,0.0076 -0.0194,0.0075 -0.0326,0.0214 -0.021,0.0213 -0.0325,0.0499 -0.0115,0.0285 -0.0115,0.059 0,0.0369 0.0185,0.055 0.0184,0.018 0.056,0.018 0.0186,0 0.0394,-0.0056 0.0209,-0.0056 0.0436,-0.0168 l -0.0085,0.0444 q -0.0196,0.0081 -0.0402,0.0121 -0.0206,0.004 -0.0424,0.004 -0.0544,0 -0.0837,-0.0272 -0.0293,-0.0272 -0.0293,-0.0778 0,-0.0424 0.0153,-0.0782 0.0152,-0.0358 0.0453,-0.0643 0.0205,-0.0196 0.0481,-0.0296 0.0275,-0.01 0.0603,-0.01 0.019,0 0.0378,0.0043 0.0188,0.0043 0.0383,0.0128 z m 0.0393,0.2214 0.0806,0 0.0544,-0.2805 -0.091,0.0176 0.0085,-0.0425 0.0906,-0.0176 0.0496,0 -0.063,0.323 0.0803,0 -0.0078,0.0415 -0.2102,0 0.008,-0.0415 z" />
  </g>
  <g
     style="font-size:0.75px;font-family:sans-serif;stroke-width:0.1"
     id="g79"
     transform="matrix(50,0,0,50,322.345,118.335)"
     font-size="0.75px">
    <path
       style="stroke:none"
       inkscape:connector-curvature="0"
       id="path81"
       d="m 0.1901,-0.0712 0,0.033 -0.3099,0 q 0.0044,0.0695 0.042,0.106 0.0375,0.0364 0.1045,0.0364 0.0389,0 0.0753,-0.0095 0.0364,-0.0095 0.0723,-0.0286 l 0,0.0638 Q 0.1381,0.1452 0.1,0.1533 0.0619,0.1614 0.0227,0.1614 q -0.0981,0 -0.1555,-0.0572 -0.0573,-0.0571 -0.0573,-0.1545 0,-0.1007 0.0544,-0.1599 0.0544,-0.0591 0.1467,-0.0591 0.0828,0 0.1309,0.0533 0.0482,0.0533 0.0482,0.1448 z M 0.1227,-0.091 q -8e-4,-0.0553 -0.031,-0.0882 -0.0302,-0.033 -0.08,-0.033 -0.0564,0 -0.0903,0.0319 -0.0338,0.0318 -0.039,0.0897 l 0.2403,-4e-4 z" />
  </g>
  <g
     style="font-size:0.75px;font-family:sans-serif;stroke-width:0.1"
     id="g83"
     transform="matrix(50,0,0,50,322.345,418.335)"
     font-size="0.75px">
    <path
       style="stroke:none"
       inkscape:connector-curvature="0"
       id="path85"
       d="m 0.1901,-0.0712 0,0.033 -0.3099,0 q 0.0044,0.0695 0.042,0.106 0.0375,0.0364 0.1045,0.0364 0.0389,0 0.0753,-0.0095 0.0364,-0.0095 0.0723,-0.0286 l 0,0.0638 Q 0.1381,0.1452 0.1,0.1533 0.0619,0.1614 0.0227,0.1614 q -0.0981,0 -0.1555,-0.0572 -0.0573,-0.0571 -0.0573,-0.1545 0,-0.1007 0.0544,-0.1599 0.0544,-0.0591 0.1467,-0.0591 0.0828,0 0.1309,0.0533 0.0482,0.0533 0.0482,0.1448 z M 0.1227,-0.091 q -8e-4,-0.0553 -0.031,-0.0882 -0.0302,-0.033 -0.08,-0.033 -0.0564,0 -0.0903,0.0319 -0.0338,0.0318 -0.039,0.0897 l 0.2403,-4e-4 z" />
  </g>
  <g
     style="font-size:0.75px;font-family:sans-serif;stroke-width:0.02"
     id="g87"
     transform="matrix(50,0,0,50,472.345,568.335)"
     font-size="0.75px">
    <path
       style="fill:none"
       inkscape:connector-curvature="0"
       id="path89"
       d="m -6.1083,-4.7464 c 0.36,0.2065 0.6716,0.5225 0.8719,0.8852" />
    <path
       style="stroke:none"
       inkscape:connector-curvature="0"
       id="path91"
       d="m -5.1676,-3.8909 -0.1377,0.0593 0.2271,0.3378 z" />
  </g>
  <g
     style="font-size:0.75px;font-family:sans-serif;stroke-width:0.02"
     id="g93"
     transform="matrix(50,0,0,50,472.345,568.335)"
     font-size="0.75px">
    <path
       style="fill:none"
       inkscape:connector-curvature="0"
       id="path95"
       d="m -5.0782,-2.5062 c -0.139,0.4436 -0.4514,0.8525 -0.8425,1.132" />
    <path
       style="stroke:none"
       inkscape:connector-curvature="0"
       id="path97"
       d="m -5.8827,-1.3095 -0.0759,-0.1294 -0.3071,0.2671 z" />
  </g>
  <g
     style="font-size:0.75px;font-family:sans-serif;stroke-width:0.02"
     id="g99"
     transform="matrix(50,0,0,50,472.345,568.335)"
     font-size="0.75px">
    <path
       style="fill:none"
       inkscape:connector-curvature="0"
       id="path101"
       d="M 4.1921,-6 2.7595,-6" />
    <path
       style="stroke:none"
       inkscape:connector-curvature="0"
       id="path103"
       d="m 2.7595,-5.925 0,-0.15 -0.4,0.075 z" />
  </g>
  <g
     style="font-size:0.75px;font-family:sans-serif;stroke-width:0.02"
     id="g105"
     transform="matrix(50,0,0,50,472.345,568.335)"
     font-size="0.75px">
    <path
       style="fill:none"
       inkscape:connector-curvature="0"
       id="path107"
       d="m 0.6405,-6 -1.2751,0" />
    <path
       style="stroke:none"
       inkscape:connector-curvature="0"
       id="path109"
       d="m -0.6346,-5.925 0,-0.15 -0.4,0.075 z" />
  </g>
  <g
     style="font-size:0.75px;font-family:sans-serif;stroke-width:0.02"
     id="g111"
     transform="matrix(50,0,0,50,472.49,268.335)"
     font-size="0.75px">
    <circle
       style="stroke:none"
       id="circle113"
       r="0.2105"
       cy="0"
       cx="0" />
  </g>
  <g
     style="font-size:0.75px;font-family:sans-serif;stroke-width:0.02"
     id="g115"
     transform="matrix(50,0,0,50,472.345,568.335)"
     font-size="0.75px">
    <path
       style="fill:none"
       inkscape:connector-curvature="0"
       id="path117"
       d="M -2.9654,-6 -4.1,-6" />
    <path
       style="stroke:none"
       inkscape:connector-curvature="0"
       id="path119"
       d="m -4.1,-5.925 0,-0.15 L -4.5,-6 Z" />
  </g>
  <g
     style="font-size:0.75px;font-family:sans-serif;stroke-width:0.02"
     id="g121"
     transform="matrix(50,0,0,50,472.345,568.335)"
     font-size="0.75px">
    <path
       style="fill:none"
       inkscape:connector-curvature="0"
       id="path123"
       d="M 5.275,-3.4125 6.5008,-5.2512" />
    <path
       style="stroke:none"
       inkscape:connector-curvature="0"
       id="path125"
       d="M 6.4384,-5.2928 6.5632,-5.2096 6.7227,-5.584 Z" />
  </g>
  <g
     style="font-size:0.75px;font-family:sans-serif;stroke-width:0.02"
     id="g127"
     transform="matrix(50,0,0,50,472.345,568.335)"
     font-size="0.75px">
    <path
       style="fill:none"
       inkscape:connector-curvature="0"
       id="path129"
       d="M 6.5,-6 6.2079,-6" />
    <path
       style="stroke:none"
       inkscape:connector-curvature="0"
       id="path131"
       d="m 6.2079,-5.925 0,-0.15 -0.4,0.075 z" />
  </g>
  <g
     style="font-size:0.75px;font-family:sans-serif;stroke-width:0.02"
     id="g133"
     transform="matrix(50,0,0,50,472.345,568.335)"
     font-size="0.75px">
    <path
       style="fill:none"
       inkscape:connector-curvature="0"
       id="path135"
       d="m 5.275,-8.5875 1.2258,1.8387" />
    <path
       style="stroke:none"
       inkscape:connector-curvature="0"
       id="path137"
       d="M 6.5632,-6.7904 6.4384,-6.7072 6.7227,-6.416 Z" />
  </g>
  <g
     style="font-size:0.75px;font-family:sans-serif;stroke-width:0.02"
     id="g139"
     transform="matrix(50,0,0,50,472.345,568.335)"
     font-size="0.75px">
    <path
       style="fill:none"
       inkscape:connector-curvature="0"
       id="path141"
       d="m -6.1418,-10.7652 c 0.3742,0.2058 0.6989,0.5301 0.9054,0.904" />
    <path
       style="stroke:none"
       inkscape:connector-curvature="0"
       id="path143"
       d="m -5.1676,-9.8909 -0.1377,0.0593 0.2271,0.3378 z" />
  </g>
  <g
     style="font-size:0.75px;font-family:sans-serif;stroke-width:0.02"
     id="g145"
     transform="matrix(50,0,0,50,472.345,568.335)"
     font-size="0.75px">
    <path
       style="fill:none"
       inkscape:connector-curvature="0"
       id="path147"
       d="m -5.0782,-8.5062 c -0.1425,0.4549 -0.4675,0.8734 -0.8726,1.1532" />
    <path
       style="stroke:none"
       inkscape:connector-curvature="0"
       id="path149"
       d="m -5.914,-7.2877 -0.0736,-0.1306 -0.3116,0.2617 z" />
  </g>
  <g
     style="font-size:0.75px;font-family:sans-serif;stroke-width:0.02"
     id="g151"
     transform="matrix(50,0,0,50,472.345,568.335)"
     font-size="0.75px">
    <path
       style="fill:none"
       inkscape:connector-curvature="0"
       id="path153"
       d="m -7.7343,-1.0906 c -1.8282,-0.4846 -2.0026,-2.7792 -0.5231,-3.609" />
    <path
       style="stroke:none"
       inkscape:connector-curvature="0"
       id="path155"
       d="m -8.2878,-4.7682 0.0609,0.1372 0.3352,-0.2309 z" />
  </g>
  <g
     style="font-size:0.75px;font-family:sans-serif;stroke-width:0.02"
     id="g157"
     transform="matrix(50,0,0,50,10.535,430.055)"
     font-size="0.75px">
    <circle
       style="stroke:none"
       id="circle159"
       r="0.2105"
       cy="0"
       cx="0" />
  </g>
  <g
     style="font-size:0.75px;font-family:sans-serif;stroke-width:0.02"
     id="g161"
     transform="matrix(50,0,0,50,472.345,568.335)"
     font-size="0.75px">
    <path
       style="fill:none"
       inkscape:connector-curvature="0"
       id="path163"
       d="m -7.7008,-7.082 c -1.8723,-0.4685 -2.0475,-2.8147 -0.5256,-3.6346" />
    <path
       style="stroke:none"
       inkscape:connector-curvature="0"
       id="path165"
       d="m -8.2557,-10.7856 0.0586,0.138 0.3389,-0.2254 z" />
  </g>
  <g
     style="font-size:0.75px;font-family:sans-serif;stroke-width:0.02"
     id="g167"
     transform="matrix(50,0,0,50,10.525,129.96)"
     font-size="0.75px">
    <circle
       style="stroke:none"
       id="circle169"
       r="0.2105"
       cy="0"
       cx="0" />
  </g>
  <g
     style="font-size:0.75px;font-family:sans-serif;stroke-width:0.02"
     id="g171"
     transform="matrix(50,0,0,50,472.345,568.335)"
     font-size="0.75px">
    <path
       style="fill:none"
       inkscape:connector-curvature="0"
       id="path173"
       d="m -4.7227,-6.416 1.2475,-1.8712" />
    <path
       style="stroke:none"
       inkscape:connector-curvature="0"
       id="path175"
       d="m -3.5376,-8.3288 0.1248,0.0832 0.1595,-0.3745 z" />
  </g>
  <g
     style="font-size:0.75px;font-family:sans-serif;stroke-width:0.02"
     id="g177"
     transform="matrix(50,0,0,50,472.345,568.335)"
     font-size="0.75px">
    <path
       style="fill:none"
       inkscape:connector-curvature="0"
       id="path179"
       d="M -2.7099,-9 3.583,-9" />
    <path
       style="stroke:none"
       inkscape:connector-curvature="0"
       id="path181"
       d="m 3.583,-9.075 0,0.15 0.4,-0.075 z" />
  </g>
  <g
     style="font-size:0.75px;font-family:sans-serif;stroke-width:0.02"
     id="g183"
     transform="matrix(50,0,0,50,472.345,568.335)"
     font-size="0.75px">
    <path
       style="fill:none"
       inkscape:connector-curvature="0"
       id="path185"
       d="m -4.5,-9 1.2099,0" />
  </g>
  <g
     style="font-size:0.75px;font-family:sans-serif;stroke-width:0.02"
     id="g187"
     transform="matrix(50,0,0,50,472.345,568.335)"
     font-size="0.75px">
    <path
       style="fill:none"
       inkscape:connector-curvature="0"
       id="path189"
       d="m -4.7227,-5.584 1.2475,1.8712" />
    <path
       style="stroke:none"
       inkscape:connector-curvature="0"
       id="path191"
       d="m -3.4128,-3.7544 -0.1248,0.0832 0.2843,0.2913 z" />
  </g>
  <g
     style="font-size:0.75px;font-family:sans-serif;stroke-width:0.02"
     id="g193"
     transform="matrix(50,0,0,50,472.345,568.335)"
     font-size="0.75px">
    <path
       style="fill:none"
       inkscape:connector-curvature="0"
       id="path195"
       d="M -2.7099,-3 3.583,-3" />
    <path
       style="stroke:none"
       inkscape:connector-curvature="0"
       id="path197"
       d="m 3.583,-3.075 0,0.15 0.4,-0.075 z" />
  </g>
  <g
     style="font-size:0.75px;font-family:sans-serif;stroke-width:0.02"
     id="g199"
     transform="matrix(50,0,0,50,472.345,568.335)"
     font-size="0.75px">
    <path
       style="fill:none"
       inkscape:connector-curvature="0"
       id="path201"
       d="m -4.5,-3 1.2099,0" />
  </g>
</svg>
