<?xml version="1.0" encoding="UTF-8" standalone="no"?>
<svg xmlns:dc="http://purl.org/dc/elements/1.1/" xmlns:cc="http://creativecommons.org/ns#" xmlns:rdf="http://www.w3.org/1999/02/22-rdf-syntax-ns#" xmlns:svg="http://www.w3.org/2000/svg" xmlns="http://www.w3.org/2000/svg" xmlns:sodipodi="http://sodipodi.sourceforge.net/DTD/sodipodi-0.dtd" xmlns:inkscape="http://www.inkscape.org/namespaces/inkscape" font-size="12px" font-style="normal" font-weight="normal" height="100%" stroke-miterlimit="10" width="100%" id="svg2" version="1.1" inkscape:version="0.91 r13725" sodipodi:docname="RWAIT-box.circuit.svg" style="font-style:normal;font-weight:normal;font-size:12px;font-family:Dialog;color-interpolation:auto;fill:#000000;fill-opacity:1;stroke:#000000;stroke-width:1;stroke-linecap:square;stroke-linejoin:miter;stroke-miterlimit:10;stroke-dasharray:none;stroke-dashoffset:0;stroke-opacity:1;color-rendering:auto;image-rendering:auto;shape-rendering:auto;text-rendering:auto" viewBox="0 0 252 153" preserveAspectRatio="xMidYMid slice">
  <metadata
     id="metadata35">
    <rdf:RDF>
      <cc:Work
         rdf:about="">
        <dc:format>image/svg+xml</dc:format>
        <dc:type
           rdf:resource="http://purl.org/dc/dcmitype/StillImage" />
        <dc:title></dc:title>
      </cc:Work>
    </rdf:RDF>
  </metadata>
  <sodipodi:namedview
     pagecolor="#ffffff"
     bordercolor="#666666"
     borderopacity="1"
     objecttolerance="10"
     gridtolerance="10"
     guidetolerance="10"
     inkscape:pageopacity="0"
     inkscape:pageshadow="2"
     inkscape:window-width="640"
     inkscape:window-height="480"
     id="namedview33"
     showgrid="false"
     fit-margin-top="0"
     fit-margin-left="0"
     fit-margin-right="0"
     fit-margin-bottom="0"
     inkscape:zoom="1.5592424"
     inkscape:cx="114.7766"
     inkscape:cy="73.5"
     inkscape:window-x="0"
     inkscape:window-y="24"
     inkscape:window-maximized="0"
     inkscape:current-layer="svg2" />
  <!--Generated by the Batik Graphics2D SVG Generator-->
  <defs
     id="genericDefs" />
  <g
     style="fill:#ffffff;stroke:#ffffff"
     id="g7"
     transform="matrix(50,0,0,50,126,64)">
    <rect
       style="stroke:none"
       id="rect9"
       y="-1.25"
       x="-2"
       width="4"
       height="2.5" />
    <rect
       style="fill:none;stroke:#000000;stroke-width:0.06"
       id="rect11"
       y="-1.25"
       x="-2"
       width="4"
       height="2.5" />
    <line
       style="fill:none;stroke:#000000;stroke-width:0.04"
       id="line13"
       y2="0"
       y1="0"
       x2="-2"
       x1="-2.5" />
    <line
       style="fill:none;stroke:#000000;stroke-width:0.04"
       id="line15"
       y2="-0.75"
       y1="-0.75"
       x2="2"
       x1="2.5" />
    <line
       style="fill:none;stroke:#000000;stroke-width:0.04"
       id="line17"
       y2="0.75"
       y1="0.75"
       x2="2"
       x1="2.5" />
    <line
       style="fill:none;stroke:#000000;stroke-width:0.04"
       id="line19"
       y2="1.25"
       y1="1.75"
       x2="0"
       x1="0" />
    <path
       style="fill:#ff0000;stroke:none;stroke-width:0.04"
       inkscape:connector-curvature="0"
       id="path21"
       d="M -1.55,-0.0234 -1.5585,0.019 Q -1.5764,0.0093 -1.5961,0.0044 -1.6159,-5e-4 -1.6369,-5e-4 q -0.0354,0 -0.0558,0.0121 -0.0204,0.0121 -0.0204,0.0328 0,0.0242 0.0474,0.0371 0.0036,0.001 0.0054,0.0015 l 0.0143,0.0044 q 0.045,0.0125 0.06,0.0261 0.015,0.0137 0.015,0.0374 0,0.0434 -0.0345,0.0708 -0.0346,0.0273 -0.0905,0.0273 -0.0217,0 -0.0456,-0.0041 -0.024,-0.0042 -0.0528,-0.013 l 0.0088,-0.0463 q 0.0247,0.0126 0.0486,0.0192 0.0239,0.0066 0.0459,0.0066 0.0329,0 0.0536,-0.0141 0.0206,-0.0142 0.0206,-0.0359 0,-0.0235 -0.0542,-0.0379 L -1.6757,0.1223 -1.6911,0.1184 Q -1.7253,0.1094 -1.7412,0.0946 -1.757,0.0798 -1.757,0.0569 q 0,-0.0437 0.0328,-0.0694 0.0328,-0.0256 0.0892,-0.0256 0.0223,0 0.0434,0.0037 0.0211,0.0036 0.0416,0.011 z m 0.102,-0.1145 0.045,0 -0.011,0.0568 -0.0449,0 0.0109,-0.0568 z m -0.0205,0.1064 0.045,0 -0.0535,0.2734 -0.0449,0 0.0534,-0.2734 z m 0.366,0 -0.0466,0.2395 q -0.0135,0.0696 -0.0514,0.1038 -0.038,0.0341 -0.1022,0.0341 -0.0237,0 -0.0439,-0.0035 -0.0203,-0.0035 -0.0379,-0.0109 l 0.0083,-0.0436 q 0.0166,0.0107 0.0352,0.0158 0.0185,0.0051 0.0395,0.0051 0.0428,0 0.0702,-0.0233 0.0275,-0.0233 0.0363,-0.067 L -1.1911,0.198 q -0.0188,0.0215 -0.0437,0.0327 -0.0249,0.0112 -0.0537,0.0112 -0.0415,0 -0.0653,-0.0274 -0.0238,-0.0275 -0.0238,-0.0756 0,-0.0378 0.0144,-0.0741 0.0144,-0.0362 0.0405,-0.0643 0.0173,-0.0186 0.0404,-0.0286 0.0231,-0.01 0.0482,-0.01 0.0276,0 0.0481,0.0128 0.0205,0.0129 0.0305,0.0363 l 0.0079,-0.0425 0.0451,0 z m -0.0676,0.1004 q 0,-0.0333 -0.0156,-0.0513 -0.0157,-0.0181 -0.0445,-0.0181 -0.0178,0 -0.0339,0.0071 -0.0161,0.0071 -0.0276,0.0198 -0.0186,0.021 -0.0289,0.0494 -0.0104,0.0284 -0.0104,0.0587 0,0.0337 0.0157,0.0518 0.0158,0.0181 0.0453,0.0181 0.0428,0 0.0713,-0.0387 0.0286,-0.0387 0.0286,-0.0968 z" />
    <path
       style="fill:#0000ff;stroke:none;stroke-width:0.04"
       inkscape:connector-curvature="0"
       id="path23"
       d="M 1.2058,-0.8718 1.1972,-0.8294 Q 1.1794,-0.8391 1.1596,-0.844 1.1398,-0.8489 1.1189,-0.8489 q -0.0355,0 -0.0558,0.0121 -0.0204,0.0121 -0.0204,0.0328 0,0.0242 0.0473,0.0371 0.0037,0.001 0.0054,0.0015 l 0.0144,0.0044 q 0.0449,0.0125 0.0599,0.0261 0.0151,0.0137 0.0151,0.0374 0,0.0434 -0.0346,0.0708 -0.0345,0.0273 -0.0904,0.0273 -0.0218,0 -0.0457,-0.0041 -0.0239,-0.0042 -0.0527,-0.013 l 0.0088,-0.0463 q 0.0246,0.0127 0.0486,0.0192 0.0239,0.0066 0.0459,0.0066 0.0329,0 0.0535,-0.0141 0.0207,-0.0142 0.0207,-0.0359 0,-0.0234 -0.0542,-0.0379 L 1.08,-0.7261 1.0647,-0.73 Q 1.0305,-0.739 1.0146,-0.7538 0.9987,-0.7686 0.9987,-0.7915 q 0,-0.0437 0.0329,-0.0693 0.0328,-0.0257 0.0892,-0.0257 0.0222,0 0.0433,0.0037 0.0212,0.0037 0.0417,0.011 z m 0.279,0.1094 -0.0305,0.156 -0.0449,0 0.0083,-0.0415 q -0.0198,0.0244 -0.0451,0.0364 -0.0252,0.0121 -0.0562,0.0121 -0.035,0 -0.0573,-0.0213 -0.0223,-0.0214 -0.0223,-0.0548 0,-0.0479 0.0382,-0.0757 0.0382,-0.0279 0.1053,-0.0279 l 0.0625,0 0.0025,-0.0119 q 5e-4,-0.002 7e-4,-0.0043 2e-4,-0.0023 2e-4,-0.0072 0,-0.0217 -0.0177,-0.0338 -0.0177,-0.0121 -0.0496,-0.0121 -0.022,0 -0.0451,0.0056 -0.0231,0.0056 -0.0475,0.0169 l 0.0078,-0.0415 q 0.0254,-0.0096 0.0497,-0.0143 0.0243,-0.0048 0.047,-0.0048 0.0484,0 0.0736,0.021 0.0253,0.021 0.0253,0.0611 0,0.008 -0.0012,0.0189 -0.0012,0.0108 -0.0037,0.0231 z m -0.0486,0.0185 -0.0449,0 q -0.0552,0 -0.0817,0.0148 -0.0264,0.0147 -0.0264,0.0457 0,0.0215 0.0135,0.0337 0.0136,0.0123 0.0375,0.0123 0.0366,0 0.064,-0.0263 0.0273,-0.0262 0.0361,-0.0702 l 0.0019,-0.01 z m 0.365,-0.0276 -0.032,0.1651 -0.0451,0 0.032,-0.1634 q 0.0021,-0.0115 0.0034,-0.0202 0.0012,-0.0088 0.0012,-0.014 0,-0.0205 -0.013,-0.0319 -0.0129,-0.0115 -0.0361,-0.0115 -0.0361,0 -0.0622,0.024 -0.0261,0.0241 -0.0342,0.0653 l -0.03,0.1517 -0.045,0 0.053,-0.2735 0.0449,0 -0.009,0.043 q 0.0188,-0.0237 0.0452,-0.0366 0.0263,-0.013 0.0554,-0.013 0.0361,0 0.056,0.0196 0.0199,0.0195 0.0199,0.0549 0,0.0088 -0.0011,0.0188 -0.0011,0.01 -0.0033,0.0217 z" />
    <path
       style="fill:#ff0000;stroke:none;stroke-width:0.04"
       inkscape:connector-curvature="0"
       id="path25"
       d="M 1.278,0.6805 1.269,0.725 Q 1.2529,0.7133 1.2347,0.7074 1.2165,0.7015 1.197,0.7015 1.1755,0.7015 1.1561,0.7091 1.1367,0.7167 1.1235,0.7306 1.1025,0.7518 1.091,0.7804 1.0795,0.809 1.0795,0.8395 q 0,0.0368 0.0185,0.0549 0.0184,0.0181 0.056,0.0181 0.0186,0 0.0394,-0.0056 Q 1.2143,0.9013 1.237,0.89 L 1.2285,0.9345 Q 1.2089,0.9425 1.1883,0.9465 1.1677,0.9506 1.146,0.9506 1.0915,0.9506 1.0622,0.9233 1.0329,0.8961 1.0329,0.8456 1.0329,0.8031 1.0482,0.7673 1.0634,0.7316 1.0935,0.703 1.114,0.6835 1.1416,0.6735 q 0.0276,-0.01 0.0603,-0.01 0.019,0 0.0378,0.0042 Q 1.2585,0.672 1.278,0.6805 Z M 1.4963,0.67 1.4895,0.705 l -0.0896,0 -0.0291,0.1484 q -0.0015,0.0083 -0.0022,0.0139 -7e-4,0.0056 -7e-4,0.0088 0,0.0156 0.0094,0.0227 0.0094,0.0071 0.0301,0.0071 l 0.0454,0 -0.0075,0.0376 -0.043,0 q -0.04,0 -0.0597,-0.0156 Q 1.323,0.9122 1.323,0.8805 q 0,-0.0056 7e-4,-0.0123 7e-4,-0.0067 0.0022,-0.0148 l 0.029,-0.1484 -0.038,0 0.007,-0.035 0.0374,0 0.0151,-0.0776 0.0449,0 -0.0148,0.0776 0.0898,0 z M 1.7038,0.7115 Q 1.697,0.7079 1.6882,0.7059 1.6794,0.704 1.6694,0.704 1.6335,0.704 1.6067,0.7312 1.5798,0.7584 1.571,0.8041 l -0.0276,0.1394 -0.0449,0 L 1.552,0.67 1.5969,0.67 1.5883,0.7125 Q 1.6062,0.6888 1.6309,0.6761 1.6557,0.6635 1.6838,0.6635 q 0.0073,0 0.0144,8e-4 0.0071,9e-4 0.0142,0.0028 L 1.7038,0.7115 Z m 0.0742,-0.1479 0.045,0 -0.074,0.3799 -0.0449,0 0.0739,-0.3799 z" />
    <path
       style="fill:#ff0000;stroke:none;stroke-width:0.04"
       inkscape:connector-curvature="0"
       id="path27"
       transform="matrix(0,-1,1,0,0,0)"
       d="m -0.811,-0.1864 -0.0071,0.0374 -0.0429,0 q -0.0245,0 -0.0356,0.0096 -0.0111,0.0096 -0.0164,0.0353 l -0.0049,0.0241 0.074,0 -0.0066,0.035 -0.074,0 -0.0464,0.2385 -0.0452,0 0.0467,-0.2385 -0.043,0 0.0064,-0.035 0.0429,0 0.0037,-0.019 q 0.0093,-0.0483 0.0326,-0.0679 0.0233,-0.0195 0.0733,-0.0195 l 0.0425,0 z m 0.1599,0.1479 q -0.0068,-0.0036 -0.0156,-0.0056 -0.0088,-0.0019 -0.0188,-0.0019 -0.0359,0 -0.0627,0.0272 -0.0269,0.0272 -0.0357,0.0729 l -0.0276,0.1394 -0.0449,0 0.0535,-0.2735 0.0449,0 -0.0086,0.0425 q 0.0179,-0.0237 0.0427,-0.0364 0.0247,-0.0126 0.0528,-0.0126 0.0073,0 0.0144,8e-4 0.0071,9e-4 0.0142,0.0028 l -0.0086,0.0444 z m 0.2508,-0.031 -0.0091,0.0445 q -0.0161,-0.0117 -0.0343,-0.0176 -0.0182,-0.0059 -0.0377,-0.0059 -0.0215,0 -0.0409,0.0076 -0.0194,0.0076 -0.0326,0.0215 -0.021,0.0212 -0.0325,0.0498 -0.0114,0.0286 -0.0114,0.0591 0,0.0368 0.0184,0.0549 0.0184,0.0181 0.056,0.0181 0.0186,0 0.0395,-0.0056 0.0208,-0.0057 0.0435,-0.0169 l -0.0085,0.0445 q -0.0195,0.008 -0.0402,0.012 -0.0206,0.0041 -0.0423,0.0041 -0.0545,0 -0.0838,-0.0273 -0.0293,-0.0272 -0.0293,-0.0777 0,-0.0425 0.0153,-0.0783 0.0153,-0.0357 0.0453,-0.0643 0.0205,-0.0195 0.0481,-0.0295 0.0276,-0.01 0.0603,-0.01 0.019,0 0.0378,0.0042 0.0188,0.0043 0.0384,0.0128 z" />
  </g>
  <g
     style="font-size:0.5px;font-family:sans-serif;stroke-width:0.04"
     id="g29"
     transform="matrix(50,0,0,50,126,64)"
     font-size="0.5px">
    <path
       style="stroke:none"
       inkscape:connector-curvature="0"
       id="path31"
       d="m -0.6217,-0.0433 q 0.0159,0.0053 0.0309,0.0229 0.015,0.0176 0.0301,0.0484 l 0.0501,0.0996 -0.053,0 -0.0466,-0.0935 q -0.0181,-0.0367 -0.0351,-0.0486 -0.0169,-0.012 -0.0462,-0.012 l -0.0537,0 0,0.1541 -0.0494,0 0,-0.3645 0.1114,0 q 0.0625,0 0.0932,0.0261 0.0308,0.0261 0.0308,0.0789 0,0.0344 -0.016,0.0571 -0.016,0.0227 -0.0465,0.0315 z m -0.1235,-0.1531 0,0.1294 0.062,0 q 0.0356,0 0.0538,-0.0165 0.0182,-0.0165 0.0182,-0.0484 0,-0.032 -0.0182,-0.0483 -0.0182,-0.0162 -0.0538,-0.0162 l -0.062,0 z m 0.2656,-0.0405 0.0498,0 0.0766,0.3081 0.0765,-0.3081 0.0554,0 0.0766,0.3081 0.0765,-0.3081 0.05,0 -0.0916,0.3645 -0.062,0 -0.0769,-0.3164 -0.0776,0.3164 -0.062,0 -0.0913,-0.3645 z m 0.6487,0.0486 -0.0669,0.1814 0.134,0 -0.0671,-0.1814 z m -0.0279,-0.0486 0.0559,0 0.139,0.3645 -0.0513,0 -0.0332,-0.0935 -0.1643,0 -0.0332,0.0935 -0.052,0 0.1391,-0.3645 z m 0.2481,0 0.0493,0 0,0.3645 -0.0493,0 0,-0.3645 z m 0.0969,0 0.3084,0 0,0.0415 -0.1295,0 0,0.323 -0.0495,0 0,-0.323 -0.1294,0 0,-0.0415 z" />
  </g>
</svg>
