<?xml version="1.0" encoding="UTF-8" standalone="no"?>
<svg xmlns:dc="http://purl.org/dc/elements/1.1/" xmlns:cc="http://creativecommons.org/ns#" xmlns:rdf="http://www.w3.org/1999/02/22-rdf-syntax-ns#" xmlns:svg="http://www.w3.org/2000/svg" xmlns="http://www.w3.org/2000/svg" xmlns:sodipodi="http://sodipodi.sourceforge.net/DTD/sodipodi-0.dtd" xmlns:inkscape="http://www.inkscape.org/namespaces/inkscape" font-size="12px" font-style="normal" font-weight="normal" height="100%" stroke-miterlimit="10" width="100%" id="svg2" version="1.1" inkscape:version="0.91 r13725" sodipodi:docname="SAMPLE-box.circuit.svg" style="font-style:normal;font-weight:normal;font-size:12px;font-family:Dialog;color-interpolation:auto;fill:#000000;fill-opacity:1;stroke:#000000;stroke-width:1;stroke-linecap:square;stroke-linejoin:miter;stroke-miterlimit:10;stroke-dasharray:none;stroke-dashoffset:0;stroke-opacity:1;color-rendering:auto;image-rendering:auto;shape-rendering:auto;text-rendering:auto" viewBox="0 0 277 321" preserveAspectRatio="xMidYMid slice">
  <metadata
     id="metadata35">
    <rdf:RDF>
      <cc:Work
         rdf:about="">
        <dc:format>image/svg+xml</dc:format>
        <dc:type
           rdf:resource="http://purl.org/dc/dcmitype/StillImage" />
        <dc:title></dc:title>
      </cc:Work>
    </rdf:RDF>
  </metadata>
  <sodipodi:namedview
     pagecolor="#ffffff"
     bordercolor="#666666"
     borderopacity="1"
     objecttolerance="10"
     gridtolerance="10"
     guidetolerance="10"
     inkscape:pageopacity="0"
     inkscape:pageshadow="2"
     inkscape:window-width="1920"
     inkscape:window-height="1176"
     id="namedview33"
     showgrid="true"
     inkscape:object-nodes="true"
     fit-margin-top="0"
     fit-margin-left="0"
     fit-margin-right="0"
     fit-margin-bottom="0"
     inkscape:zoom="0.73817141"
     inkscape:cx="-32.794245"
     inkscape:cy="296.33991"
     inkscape:window-x="0"
     inkscape:window-y="24"
     inkscape:window-maximized="1"
     inkscape:current-layer="svg2">
    <inkscape:grid
       type="xygrid"
       id="grid8095"
       originx="-9.5"
       originy="80.5" />
  </sodipodi:namedview>
  <!--Generated by the Batik Graphics2D SVG Generator-->
  <defs
     id="genericDefs">
    <inkscape:path-effect
       effect="spiro"
       id="path-effect8099"
       is_visible="true" />
    <inkscape:path-effect
       effect="spiro"
       id="path-effect8099-3"
       is_visible="true" />
  </defs>
  <g
     id="g5"
     transform="translate(-9.5,80.5)">
    <g
       transform="matrix(50,0,0,50,148,80)"
       id="g7"
       style="fill:#ffffff;stroke:#ffffff">
      <rect
         height="3"
         width="4.5"
         x="-2.25"
         y="-1.5"
         id="rect9"
         style="stroke:none" />
      <rect
         height="3"
         width="4.5"
         x="-2.25"
         y="-1.5"
         id="rect11"
         style="fill:none;stroke:#000000;stroke-width:0.06" />
      <line
         x1="2.75"
         x2="2.25"
         y1="-1"
         y2="-1"
         id="line13"
         style="fill:none;stroke:#000000;stroke-width:0.04" />
      <line
         x1="-2.75"
         x2="-2.25"
         y1="0"
         y2="0"
         id="line15"
         style="fill:none;stroke:#000000;stroke-width:0.04" />
      <line
         x1="2.75"
         x2="2.25"
         y1="0"
         y2="0"
         id="line17"
         style="fill:none;stroke:#000000;stroke-width:0.04" />
      <line
         x1="2.75"
         x2="2.25"
         y1="1"
         y2="1"
         id="line19"
         style="fill:none;stroke:#000000;stroke-width:0.04" />
      <path
         d="m 1.6605,-0.8027 0.0088,-0.0498 q -0.0391,0.0559 -0.0982,0.0559 -0.0479,0 -0.0692,-0.0349 -0.0214,-0.035 -0.0108,-0.0955 0.0116,-0.0662 0.0498,-0.1065 0.0382,-0.0402 0.0889,-0.0402 0.0471,0 0.0718,0.0361 l 0.0264,-0.1506 0.0483,0 -0.0674,0.3855 -0.0484,0 z m 0.0354,-0.2019 q -0.0316,-0.033 -0.0651,-0.033 -0.069,0 -0.0875,0.1057 -0.0163,0.093 0.0452,0.093 0.04,0 0.086,-0.0437 l 0.0214,-0.122 z m 0.2162,0.2109 q -0.0559,0 -0.0812,-0.0526 -0.0254,-0.0526 -0.0105,-0.1373 0.0149,-0.0855 0.0588,-0.1375 0.0439,-0.052 0.1008,-0.052 0.0569,0 0.0826,0.052 0.0256,0.052 0.0108,0.1367 -0.0152,0.0869 -0.059,0.1388 -0.0439,0.0519 -0.1023,0.0519 z M 1.919,-0.8298 q 0.0764,0 0.1035,-0.1553 0.0266,-0.1519 -0.0488,-0.1519 -0.0752,0 -0.1021,0.1534 -0.0269,0.1538 0.0474,0.1538 z"
         id="path21"
         inkscape:connector-curvature="0"
         style="fill:#0000ff;stroke:none;stroke-width:0.04" />
      <path
         d="m -1.9327,0.2379 q -0.0329,0 -0.0773,-0.0154 l 0.0077,-0.0442 q 0.043,0.0235 0.0779,0.0235 0.0208,0 0.0364,-0.0112 0.0156,-0.0113 0.0186,-0.0281 0.0043,-0.0247 -0.0312,-0.0408 l -0.026,-0.012 Q -1.9843,0.0839 -1.9758,0.0353 -1.9697,6e-4 -1.9417,-0.0193 q 0.028,-0.0199 0.0707,-0.0199 0.0222,0 0.0539,0.0061 l 0.0096,0.002 -0.007,0.04 q -0.0381,-0.0119 -0.0618,-0.0119 -0.0464,0 -0.0523,0.0336 -0.0038,0.0218 0.0287,0.0367 l 0.0215,0.0097 q 0.0364,0.0166 0.0496,0.0351 0.0131,0.0184 0.0083,0.046 -0.0062,0.0349 -0.0377,0.0574 -0.0315,0.0224 -0.0745,0.0224 z m 0.1857,-0.0061 0.0464,-0.2651 0.0481,0 -0.0464,0.2651 -0.0481,0 z m 0.0548,-0.3132 0.0084,-0.0481 0.0481,0 -0.0084,0.0481 -0.0481,0 z M -1.6169,0.32 -1.604,0.2782 q 0.0383,0.0198 0.0788,0.0198 0.0813,0 0.0964,-0.0862 L -1.4215,0.17 q -0.0364,0.0557 -0.0971,0.0557 -0.0477,0 -0.0697,-0.0347 -0.022,-0.0346 -0.0117,-0.0935 0.0106,-0.0605 0.0493,-0.0986 0.0386,-0.0381 0.0894,-0.0381 0.0444,0 0.0701,0.0362 l 0.0053,-0.0303 0.0483,0 -0.0337,0.1928 q -0.0109,0.0623 -0.0226,0.0922 -0.0117,0.0299 -0.0329,0.049 -0.0373,0.0334 -0.1038,0.0334 -0.0463,0 -0.0863,-0.0141 z M -1.4163,0.14 -1.397,0.0299 q -0.0259,-0.0329 -0.0633,-0.0329 -0.0332,0 -0.0567,0.0266 -0.0234,0.0266 -0.0315,0.073 -0.0153,0.0871 0.046,0.0871 0.0417,0 0.0862,-0.0437 z"
         id="path23"
         inkscape:connector-curvature="0"
         style="fill:#ff0000;stroke:none;stroke-width:0.04" />
      <path
         d="M 1.4291,0.2019 Q 1.3754,0.2019 1.347,0.1621 1.3185,0.1223 1.3291,0.0618 q 0.0114,-0.0647 0.0527,-0.1009 0.0414,-0.0361 0.1041,-0.0361 0.031,0 0.0679,0.0086 L 1.5467,-0.0264 Q 1.508,-0.0383 1.4824,-0.0383 q -0.0369,0 -0.064,0.0277 -0.0272,0.0277 -0.0353,0.0738 -0.0078,0.0447 0.0103,0.0723 0.0181,0.0276 0.0552,0.0276 0.033,0 0.0708,-0.0169 L 1.5122,0.1877 Q 1.4631,0.2019 1.4291,0.2019 Z m 0.2322,0 q -0.0366,0 -0.0534,-0.021 Q 1.591,0.1599 1.5976,0.1226 l 0.0272,-0.1558 -0.0332,0 0.0063,-0.0361 0.0332,0 0.0085,-0.0481 0.0489,-0.0047 -0.0093,0.0528 0.0694,0 -0.0063,0.0361 -0.0694,0 -0.0257,0.147 q -0.0091,0.052 0.0358,0.052 0.0095,0 0.0238,-0.0032 L 1.701,0.1958 Q 1.6777,0.2019 1.6613,0.2019 Z m 0.1085,-0.0061 0.0464,-0.2651 0.0481,0 -0.0087,0.0498 q 0.0383,-0.0557 0.0927,-0.0557 0.0074,0 0.0152,0.0012 l -0.0079,0.0449 q -0.0117,-0.0041 -0.0212,-0.0041 -0.0457,0 -0.0859,0.0542 l -0.0306,0.1748 -0.0481,0 z m 0.2046,0 0.0675,-0.3855 0.0481,0 -0.0675,0.3855 -0.0481,0 z"
         id="path25"
         inkscape:connector-curvature="0"
         style="fill:#ff0000;stroke:none;stroke-width:0.04" />
      <path
         d="M 1.7174,1.1958 1.7261,1.146 Q 1.6871,1.2019 1.628,1.2019 1.5801,1.2019 1.5588,1.167 1.5374,1.1321 1.548,1.0715 1.5596,1.0054 1.5978,0.9651 1.6359,0.9248 1.6867,0.9248 q 0.0471,0 0.0718,0.0361 l 0.0264,-0.1506 0.0483,0 -0.0674,0.3855 -0.0484,0 z M 1.7528,0.9939 q -0.0316,-0.033 -0.0651,-0.033 -0.0691,0 -0.0876,0.1057 -0.0162,0.0931 0.0453,0.0931 0.04,0 0.086,-0.0437 L 1.7528,0.9939 Z m 0.1363,0.2019 0.0063,-0.0361 0.0723,0 L 2.0176,0.8745 1.9421,0.8926 1.9486,0.8555 2.0745,0.8254 2.016,1.1597 l 0.0722,0 -0.0063,0.0361 -0.1928,0 z"
         id="path27"
         inkscape:connector-curvature="0"
         style="fill:#0000ff;stroke:none;stroke-width:0.04" />
    </g>
    <g
       font-size="0.5px"
       transform="matrix(50,0,0,50,148,80)"
       id="g29"
       style="font-size:0.5px;font-family:sans-serif;stroke-width:0.04">
      <path
         d="m -0.7263,-0.2202 0,0.0481 q -0.0281,-0.0134 -0.053,-0.02 -0.0249,-0.0066 -0.0481,-0.0066 -0.0403,0 -0.0621,0.0156 -0.0219,0.0156 -0.0219,0.0445 0,0.0241 0.0146,0.0365 0.0145,0.0123 0.055,0.0199 l 0.0298,0.0061 q 0.0552,0.0105 0.0814,0.037 0.0263,0.0264 0.0263,0.0709 0,0.053 -0.0356,0.0803 -0.0355,0.0273 -0.1041,0.0273 -0.0259,0 -0.055,-0.0058 -0.0292,-0.0059 -0.0605,-0.0173 l 0,-0.0508 q 0.0301,0.0168 0.0589,0.0254 0.0288,0.0085 0.0566,0.0085 0.0422,0 0.0652,-0.0166 0.0229,-0.0166 0.0229,-0.0474 0,-0.0268 -0.0164,-0.042 -0.0165,-0.0151 -0.0541,-0.0227 l -0.03,-0.0058 q -0.0552,-0.011 -0.0799,-0.0344 -0.0246,-0.0235 -0.0246,-0.0652 0,-0.0484 0.034,-0.0762 0.0341,-0.0278 0.0939,-0.0278 0.0256,0 0.0522,0.0046 0.0267,0.0046 0.0545,0.0139 z m 0.2207,0.0366 -0.0669,0.1814 0.134,0 -0.0671,-0.1814 z m -0.0278,-0.0485 0.0559,0 0.1389,0.3645 -0.0513,0 -0.0332,-0.0935 -0.1643,0 -0.0332,0.0935 -0.052,0 0.1392,-0.3645 z m 0.248,0 0.0735,0 0.093,0.248 0.0935,-0.248 0.0735,0 0,0.3645 -0.0481,0 0,-0.3201 -0.094,0.25 -0.0495,0 -0.094,-0.25 0,0.3201 -0.0479,0 0,-0.3645 z m 0.4807,0.0405 0,0.1369 0.062,0 q 0.0345,0 0.0533,-0.0178 0.0187,-0.0178 0.0187,-0.0507 0,-0.0328 -0.0187,-0.0506 -0.0188,-0.0178 -0.0533,-0.0178 l -0.062,0 z m -0.0493,-0.0405 0.1113,0 q 0.0613,0 0.0927,0.0277 0.0313,0.0277 0.0313,0.0812 0,0.0539 -0.0313,0.0815 -0.0314,0.0276 -0.0927,0.0276 l -0.062,0 0,0.1465 -0.0493,0 0,-0.3645 z m 0.3015,0 0.0493,0 0,0.323 0.1775,0 0,0.0415 -0.2268,0 0,-0.3645 z m 0.2786,0 0.2305,0 0,0.0415 -0.1812,0 0,0.1079 0.1736,0 0,0.0415 -0.1736,0 0,0.1321 0.1855,0 0,0.0415 -0.2348,0 0,-0.3645 z"
         id="path31"
         inkscape:connector-curvature="0"
         style="stroke:none" />
    </g>
  </g>
  <path
     style="fill:none;fill-rule:evenodd;stroke:#ffffff;stroke-width:1px;stroke-linecap:butt;stroke-linejoin:miter;stroke-opacity:1"
     d="m 30.5,320.5 220,0"
     id="path8097"
     inkscape:path-effect="#path-effect8099"
     inkscape:original-d="m 30.5,320.5 220,0"
     inkscape:connector-curvature="0" />
  <path
     style="fill:none;fill-rule:evenodd;stroke:#ffffff;stroke-width:1px;stroke-linecap:butt;stroke-linejoin:miter;stroke-opacity:1"
     d="m 30.5,0.5 220,0"
     id="path8097-6"
     inkscape:path-effect="#path-effect8099-3"
     inkscape:original-d="m 30.5,0.5 220,0"
     inkscape:connector-curvature="0" />
</svg>
