<?xml version="1.0" encoding="UTF-8" standalone="no"?>
<svg xmlns:dc="http://purl.org/dc/elements/1.1/" xmlns:cc="http://creativecommons.org/ns#" xmlns:rdf="http://www.w3.org/1999/02/22-rdf-syntax-ns#" xmlns:svg="http://www.w3.org/2000/svg" xmlns="http://www.w3.org/2000/svg" xmlns:sodipodi="http://sodipodi.sourceforge.net/DTD/sodipodi-0.dtd" xmlns:inkscape="http://www.inkscape.org/namespaces/inkscape" font-size="12px" font-style="normal" font-weight="normal" height="100%" stroke-miterlimit="10" width="100%" id="svg2" version="1.1" inkscape:version="0.91 r13725" sodipodi:docname="WAIT.circuit.svg" style="font-style:normal;font-weight:normal;font-size:12px;font-family:Dialog;color-interpolation:auto;fill:#000000;fill-opacity:1;stroke:#000000;stroke-width:1;stroke-linecap:square;stroke-linejoin:miter;stroke-miterlimit:10;stroke-dasharray:none;stroke-dashoffset:0;stroke-opacity:1;color-rendering:auto;image-rendering:auto;shape-rendering:auto;text-rendering:auto" viewBox="0 0 309 167" preserveAspectRatio="xMidYMid slice">
  <metadata
     id="metadata125">
    <rdf:RDF>
      <cc:Work
         rdf:about="">
        <dc:format>image/svg+xml</dc:format>
        <dc:type
           rdf:resource="http://purl.org/dc/dcmitype/StillImage" />
        <dc:title />
      </cc:Work>
    </rdf:RDF>
  </metadata>
  <sodipodi:namedview
     pagecolor="#ffffff"
     bordercolor="#666666"
     borderopacity="1"
     objecttolerance="10"
     gridtolerance="10"
     guidetolerance="10"
     inkscape:pageopacity="0"
     inkscape:pageshadow="2"
     inkscape:window-width="1920"
     inkscape:window-height="1176"
     id="namedview123"
     showgrid="true"
     fit-margin-top="0"
     fit-margin-left="0"
     fit-margin-right="0"
     fit-margin-bottom="0"
     inkscape:zoom="2.0411438"
     inkscape:cx="-101.563"
     inkscape:cy="223.76832"
     inkscape:window-x="0"
     inkscape:window-y="24"
     inkscape:window-maximized="1"
     inkscape:current-layer="svg2">
    <inkscape:grid
       type="xygrid"
       id="grid8121"
       originx="0"
       originy="-6.7055226e-08" />
  </sodipodi:namedview>
  <!--Generated by the Batik Graphics2D SVG Generator-->
  <defs
     id="genericDefs" />
  <rect
     height="132"
     width="99.999992"
     x="100.0951"
     y="1.5"
     id="rect9"
     style="fill:#ffffff;stroke:none" />
  <rect
     height="132"
     width="99.999992"
     x="100.0951"
     y="1.5"
     id="rect11"
     style="fill:none;stroke:#000000;stroke-width:3" />
  <line
     x1="225.09509"
     x2="200.09509"
     y1="28.5"
     y2="28.5"
     id="line13"
     style="fill:none;stroke:#000000;stroke-width:2" />
  <line
     x1="75.0951"
     x2="100.0951"
     y1="28.5"
     y2="28.5"
     id="line15"
     style="fill:none;stroke:#000000;stroke-width:2" />
  <line
     x1="75.0951"
     x2="100.0951"
     y1="108.5"
     y2="108.5"
     id="line17"
     style="fill:none;stroke:#000000;stroke-width:2" />
  <line
     x1="225.09509"
     x2="200.09509"
     y1="108.5"
     y2="108.5"
     id="line19"
     style="fill:none;stroke:#000000;stroke-width:2" />
  <path
     d="m 177.8151,26.54 -2.33,11.975 q -0.675,3.48 -2.57,5.19 -1.9,1.71 -5.11,1.71 -1.185,0 -2.2,-0.18 -1.01,-0.175 -1.89,-0.545 l 0.415,-2.18 q 0.83,0.535 1.76,0.79 0.925,0.255 1.975,0.255 2.135,0 3.51,-1.165 1.375,-1.165 1.815,-3.35 l 0.195,-1.025 q -0.94,1.075 -2.185,1.635 -1.245,0.565 -2.685,0.565 -2.075,0 -3.27,-1.375 -1.19,-1.375 -1.19,-3.78 0,-1.89 0.72,-3.705 0.725,-1.81 2.03,-3.215 0.865,-0.93 2.02,-1.43 1.15,-0.5 2.41,-0.5 1.38,0 2.405,0.64 1.025,0.645 1.525,1.815 l 0.39,-2.125 2.26,0 z m -3.38,5.02 q 0,-1.66 -0.785,-2.565 -0.78,-0.905 -2.22,-0.905 -0.89,0 -1.695,0.355 -0.81,0.355 -1.38,0.99 -0.93,1.05 -1.45,2.47 -0.515,1.42 -0.515,2.935 0,1.685 0.785,2.59 0.79,0.905 2.265,0.905 2.135,0 3.565,-1.935 1.43,-1.935 1.43,-4.84 z m 5.965,6.58 4.03,0 2.725,-14.03 -4.555,0.88 0.425,-2.125 4.53,-0.875 2.48,0 -3.15,16.15 4.015,0 -0.39,2.075 -10.51,0 0.4,-2.075 z"
     id="path21"
     inkscape:connector-curvature="0"
     style="fill:#0000ff;stroke:none;stroke-width:0.04" />
  <path
     d="m 121.2401,26.015 q -0.34,-0.18 -0.78,-0.28 -0.44,-0.1 -0.94,-0.1 -1.795,0 -3.14,1.365 -1.34,1.36 -1.78,3.64 l -1.38,6.975 -2.245,0 2.67,-13.675 2.25,0 -0.43,2.125 q 0.89,-1.185 2.13,-1.82 1.24,-0.635 2.645,-0.635 0.365,0 0.72,0.045 0.355,0.04 0.71,0.14 l -0.43,2.22 z m 0.755,9.525 4.03,0 2.725,-14.03 -4.555,0.88 0.425,-2.125 4.53,-0.88 2.48,0 -3.15,16.155 4.015,0 -0.39,2.075 -10.51,0 0.4,-2.075 z"
     id="path23"
     inkscape:connector-curvature="0"
     style="fill:#ff0000;stroke:none;stroke-width:0.04" />
  <path
     d="m 121.2401,106.18 q -0.34,-0.18 -0.78,-0.28 -0.44,-0.1 -0.94,-0.1 -1.795,0 -3.14,1.365 -1.34,1.36 -1.78,3.64 l -1.38,6.97 -2.245,0 2.67,-13.67 2.25,0 -0.43,2.125 q 0.89,-1.185 2.13,-1.82 1.24,-0.635 2.645,-0.635 0.365,0 0.72,0.045 0.355,0.04 0.71,0.14 l -0.43,2.22 z m 10.655,2.795 -7.87,6.75 8.7,0 -0.425,2.05 -11.83,0 0.405,-2.075 8.225,-7.055 q 1.65,-1.425 2.34,-2.505 0.69,-1.08 0.69,-2.215 0,-1.185 -0.83,-1.93 -0.83,-0.745 -2.175,-0.745 -1.16,0 -2.575,0.415 -1.415,0.415 -3.025,1.21 l 0.45,-2.445 q 1.515,-0.595 2.89,-0.9 1.38,-0.305 2.555,-0.305 2.39,0 3.85,1.265 1.46,1.27 1.46,3.335 0,1.39 -0.695,2.655 -0.7,1.265 -2.14,2.495 z"
     id="path25"
     inkscape:connector-curvature="0"
     style="fill:#ff0000;stroke:none;stroke-width:0.04" />
  <path
     d="m 175.5801,106.705 -2.33,11.975 q -0.675,3.48 -2.57,5.19 -1.9,1.705 -5.11,1.705 -1.185,0 -2.195,-0.175 -1.015,-0.175 -1.895,-0.545 l 0.415,-2.18 q 0.83,0.535 1.76,0.79 0.925,0.255 1.975,0.255 2.14,0 3.51,-1.165 1.375,-1.165 1.815,-3.35 l 0.195,-1.025 q -0.94,1.075 -2.185,1.635 -1.245,0.56 -2.685,0.56 -2.075,0 -3.265,-1.37 -1.19,-1.375 -1.19,-3.78 0,-1.89 0.72,-3.705 0.72,-1.81 2.025,-3.215 0.865,-0.93 2.02,-1.43 1.155,-0.5 2.41,-0.5 1.38,0 2.405,0.64 1.025,0.645 1.525,1.815 l 0.395,-2.125 2.255,0 z m -3.38,5.02 q 0,-1.665 -0.78,-2.565 -0.785,-0.905 -2.225,-0.905 -0.89,0 -1.695,0.355 -0.805,0.355 -1.38,0.99 -0.93,1.05 -1.445,2.47 -0.52,1.42 -0.52,2.935 0,1.685 0.785,2.59 0.79,0.905 2.265,0.905 2.14,0 3.565,-1.935 1.43,-1.935 1.43,-4.84 z m 15.87,-0.15 -7.875,6.75 8.705,0 -0.43,2.05 -11.825,0 0.4,-2.075 8.23,-7.055 q 1.645,-1.425 2.335,-2.505 0.69,-1.08 0.69,-2.215 0,-1.185 -0.83,-1.93 -0.83,-0.745 -2.175,-0.745 -1.155,0 -2.575,0.415 -1.415,0.415 -3.025,1.21 l 0.45,-2.445 q 1.515,-0.595 2.895,-0.9 1.38,-0.305 2.55,-0.305 2.395,0 3.85,1.265 1.46,1.27 1.46,3.335 0,1.39 -0.695,2.655 -0.695,1.265 -2.135,2.495 z"
     id="path27"
     inkscape:connector-curvature="0"
     style="fill:#0000ff;stroke:none;stroke-width:0.04" />
  <g
     style="font-size:0.5px;font-family:sans-serif;stroke-width:0.04"
     id="g29"
     transform="matrix(50,0,0,50,150.095,72.5)"
     font-size="0.5px">
    <path
       style="stroke:none"
       inkscape:connector-curvature="0"
       id="path31"
       d="m -0.3331,-0.2369 0.0735,0 0.093,0.248 0.0935,-0.248 0.0735,0 0,0.3645 -0.0481,0 0,-0.3201 -0.094,0.25 -0.0496,0 -0.094,-0.25 0,0.3201 -0.0478,0 0,-0.3645 z m 0.4314,0 0.2304,0 0,0.0415 -0.1811,0 0,0.1079 0.1736,0 0,0.0415 -0.1736,0 0,0.1321 0.1855,0 0,0.0415 -0.2348,0 0,-0.3645 z" />
  </g>
  <g
     style="font-size:0.5px;font-family:sans-serif;fill:#ffffff;stroke:#ffffff;stroke-width:0.06"
     id="g33"
     transform="matrix(50,0,0,50,250.095,108.5)"
     font-size="0.5px">
    <path
       style="stroke:none"
       inkscape:connector-curvature="0"
       id="path35"
       d="M -0.13,-0.13 0,-0.13 0.13,0 0,0.13 l -0.13,0 z" />
    <path
       style="fill:none;stroke:#000000"
       inkscape:connector-curvature="0"
       id="path37"
       d="M -0.13,-0.13 0,-0.13 0.13,0 0,0.13 l -0.13,0 z" />
  </g>
  <g
     style="font-style:italic;font-size:0.5px;font-family:sans-serif;fill:#0000ff;stroke:#0000ff;stroke-width:0.06"
     id="g39"
     transform="matrix(50,0,0,50,250.095,108.5)"
     font-style="italic"
     font-size="0.5px">
    <path
       style="stroke:none"
       inkscape:connector-curvature="0"
       id="path41"
       d="M 0.5744,-0.1649 0.5658,-0.1224 Q 0.548,-0.1322 0.5282,-0.1371 0.5085,-0.1419 0.4875,-0.1419 q -0.0354,0 -0.0558,0.012 -0.0204,0.0121 -0.0204,0.0329 0,0.0241 0.0474,0.0371 0.0036,0.001 0.0053,0.0015 l 0.0144,0.0043 q 0.045,0.0125 0.06,0.0262 0.015,0.0136 0.015,0.0373 0,0.0435 -0.0346,0.0708 Q 0.4843,0.1076 0.4284,0.1076 0.4067,0.1076 0.3827,0.1034 0.3588,0.0993 0.33,0.0905 L 0.3388,0.0441 Q 0.3635,0.0568 0.3874,0.0634 0.4113,0.07 0.4333,0.07 q 0.0329,0 0.0536,-0.0142 0.0206,-0.0142 0.0206,-0.0359 0,-0.0234 -0.0542,-0.0378 L 0.4487,-0.0191 0.4333,-0.023 Q 0.3991,-0.0321 0.3832,-0.0468 0.3674,-0.0616 0.3674,-0.0846 q 0,-0.0437 0.0328,-0.0693 0.0328,-0.0256 0.0892,-0.0256 0.0222,0 0.0434,0.0036 0.0211,0.0037 0.0416,0.011 z m 0.2791,0.1094 -0.0306,0.156 -0.0449,0 L 0.7863,0.059 Q 0.7665,0.0834 0.7413,0.0955 0.716,0.1076 0.685,0.1076 0.6501,0.1076 0.6277,0.0862 0.6054,0.0648 0.6054,0.0314 q 0,-0.0478 0.0382,-0.0757 0.0382,-0.0278 0.1054,-0.0278 l 0.0625,0 0.0024,-0.012 q 5e-4,-0.0019 7e-4,-0.0043 3e-4,-0.0023 3e-4,-0.0072 0,-0.0217 -0.0177,-0.0338 -0.0177,-0.012 -0.0497,-0.012 -0.022,0 -0.0451,0.0056 -0.023,0.0056 -0.0474,0.0168 l 0.0078,-0.0415 q 0.0254,-0.0095 0.0497,-0.0143 0.0242,-0.0047 0.047,-0.0047 0.0483,0 0.0736,0.021 0.0252,0.021 0.0252,0.061 0,0.0081 -0.0012,0.0189 -0.0012,0.0109 -0.0036,0.0231 z m -0.0486,0.0185 -0.045,0 q -0.0551,0 -0.0816,0.0148 -0.0265,0.0148 -0.0265,0.0458 0,0.0215 0.0135,0.0337 0.0136,0.0122 0.0375,0.0122 0.0366,0 0.064,-0.0263 0.0273,-0.0262 0.0361,-0.0701 l 0.002,-0.0101 z m 0.3649,-0.0276 -0.0319,0.1651 -0.0452,0 0.032,-0.1633 q 0.0022,-0.0115 0.0034,-0.0203 0.0012,-0.0088 0.0012,-0.0139 0,-0.0205 -0.0129,-0.032 -0.013,-0.0115 -0.0361,-0.0115 -0.0362,0 -0.0623,0.0241 -0.0261,0.024 -0.0342,0.0653 l -0.03,0.1516 -0.0449,0 0.0529,-0.2734 0.045,0 -0.0091,0.0429 q 0.0188,-0.0237 0.0452,-0.0366 0.0264,-0.0129 0.0554,-0.0129 0.0362,0 0.056,0.0195 0.0199,0.0195 0.0199,0.0549 0,0.0088 -0.0011,0.0188 -0.001,0.01 -0.0033,0.0217 z" />
  </g>
  <g
     style="font-style:italic;font-size:0.5px;font-family:sans-serif;fill:#ffffff;stroke:#ffffff;stroke-width:0.06"
     id="g43"
     transform="matrix(50,0,0,50,51.095,28.5)"
     font-style="italic"
     font-size="0.5px">
    <path
       style="stroke:none"
       inkscape:connector-curvature="0"
       id="path45"
       d="M -0.13,-0.13 0,-0.13 0.13,0 0,0.13 l -0.13,0 z" />
    <path
       style="fill:none;stroke:#000000"
       inkscape:connector-curvature="0"
       id="path47"
       d="M -0.13,-0.13 0,-0.13 0.13,0 0,0.13 l -0.13,0 z" />
  </g>
  <g
     style="font-style:italic;font-size:0.5px;font-family:sans-serif;fill:#ff0000;stroke:#ff0000;stroke-width:0.06"
     id="g49"
     transform="matrix(50,0,0,50,51.095,28.5)"
     font-style="italic"
     font-size="0.5px">
    <path
       style="stroke:none"
       inkscape:connector-curvature="0"
       id="path51"
       d="m -0.7775,-0.096 -0.0086,0.0425 q -0.0178,-0.0098 -0.0375,-0.0147 -0.0198,-0.0049 -0.0408,-0.0049 -0.0354,0 -0.0558,0.0121 -0.0204,0.0121 -0.0204,0.0328 0,0.0242 0.0474,0.0372 0.0036,9e-4 0.0053,0.0014 l 0.0144,0.0044 q 0.045,0.0125 0.06,0.0261 0.015,0.0137 0.015,0.0374 0,0.0435 -0.0346,0.0708 -0.0345,0.0273 -0.0904,0.0273 -0.0217,0 -0.0457,-0.0041 -0.0239,-0.0042 -0.0527,-0.013 L -1.0131,0.113 q 0.0247,0.0127 0.0486,0.0193 0.0239,0.0065 0.0459,0.0065 0.0329,0 0.0536,-0.0141 0.0206,-0.0142 0.0206,-0.0359 0,-0.0234 -0.0542,-0.0378 L -0.9032,0.0497 -0.9186,0.0458 Q -0.9528,0.0368 -0.9687,0.022 -0.9845,0.0073 -0.9845,-0.0157 q 0,-0.0437 0.0328,-0.0693 0.0328,-0.0257 0.0892,-0.0257 0.0222,0 0.0434,0.0037 0.0211,0.0037 0.0416,0.011 z m 0.102,-0.1145 0.045,0 -0.011,0.0569 -0.0449,0 0.0109,-0.0569 z m -0.0205,0.1064 0.045,0 -0.0535,0.2735 -0.0449,0 0.0534,-0.2735 z m 0.366,0 -0.0466,0.2395 Q -0.3901,0.205 -0.428,0.2392 -0.466,0.2734 -0.5302,0.2734 -0.5539,0.2734 -0.5741,0.2698 -0.5944,0.2663 -0.612,0.259 l 0.0083,-0.0437 q 0.0166,0.0107 0.0352,0.0158 0.0185,0.0052 0.0395,0.0052 0.0428,0 0.0702,-0.0234 0.0275,-0.0233 0.0363,-0.067 l 0.0039,-0.0205 q -0.0188,0.0215 -0.0437,0.0327 -0.0249,0.0113 -0.0537,0.0113 -0.0415,0 -0.0653,-0.0275 -0.0238,-0.0275 -0.0238,-0.0756 0,-0.0378 0.0144,-0.0741 0.0144,-0.0362 0.0405,-0.0643 0.0173,-0.0186 0.0404,-0.0286 0.0231,-0.01 0.0482,-0.01 0.0276,0 0.0481,0.0129 0.0205,0.0128 0.0305,0.0362 l 0.0078,-0.0425 0.0452,0 z m -0.0676,0.1004 q 0,-0.0332 -0.0156,-0.0513 -0.0157,-0.0181 -0.0445,-0.0181 -0.0178,0 -0.0339,0.0071 -0.0161,0.0071 -0.0276,0.0198 -0.0186,0.021 -0.0289,0.0494 -0.0104,0.0285 -0.0104,0.0587 0,0.0337 0.0157,0.0518 0.0158,0.0181 0.0453,0.0181 0.0428,0 0.0713,-0.0387 0.0286,-0.0387 0.0286,-0.0968 z" />
  </g>
  <g
     style="font-style:italic;font-size:0.5px;font-family:sans-serif;fill:#ffffff;stroke:#ffffff;stroke-width:0.06"
     id="g53"
     transform="matrix(-50,0,0,-50,250.095,158.5)"
     font-style="italic"
     font-size="0.5px">
    <path
       style="stroke:none"
       inkscape:connector-curvature="0"
       id="path55"
       d="M -0.13,-0.13 0,-0.13 0.13,0 0,0.13 l -0.13,0 z" />
    <path
       style="fill:none;stroke:#000000"
       inkscape:connector-curvature="0"
       id="path57"
       d="M -0.13,-0.13 0,-0.13 0.13,0 0,0.13 l -0.13,0 z" />
  </g>
  <g
     style="font-style:italic;font-size:0.5px;font-family:sans-serif;fill:#ff0000;stroke:#ff0000;stroke-width:0.06"
     id="g59"
     transform="matrix(50,0,0,50,250.095,158.5)"
     font-style="italic"
     font-size="0.5px">
    <path
       style="stroke:none"
       inkscape:connector-curvature="0"
       id="path61"
       d="m 0.5751,-0.1275 -0.009,0.0444 Q 0.55,-0.0948 0.5318,-0.1006 0.5136,-0.1065 0.4941,-0.1065 q -0.0215,0 -0.0409,0.0076 -0.0195,0.0075 -0.0326,0.0214 -0.021,0.0213 -0.0325,0.0499 -0.0115,0.0285 -0.0115,0.059 0,0.0369 0.0185,0.055 0.0184,0.018 0.056,0.018 0.0185,0 0.0394,-0.0056 Q 0.5114,0.0932 0.5341,0.082 L 0.5255,0.1264 Q 0.506,0.1345 0.4854,0.1385 0.4648,0.1425 0.443,0.1425 0.3886,0.1425 0.3593,0.1153 0.33,0.0881 0.33,0.0375 q 0,-0.0424 0.0153,-0.0782 0.0152,-0.0358 0.0452,-0.0643 0.0205,-0.0196 0.0481,-0.0296 0.0276,-0.01 0.0603,-0.01 0.0191,0 0.0379,0.0043 0.0188,0.0043 0.0383,0.0128 z m 0.2183,-0.0105 -0.0069,0.0349 -0.0896,0 -0.029,0.1484 q -0.0015,0.0084 -0.0022,0.014 -7e-4,0.0056 -7e-4,0.0087 0,0.0157 0.0094,0.0228 0.0094,0.007 0.0301,0.007 l 0.0454,0 -0.0075,0.0376 -0.043,0 Q 0.6593,0.1354 0.6397,0.1198 0.62,0.1042 0.62,0.0725 q 0,-0.0057 8e-4,-0.0124 7e-4,-0.0067 0.0022,-0.0148 l 0.029,-0.1484 -0.0381,0 0.0071,-0.0349 0.0374,0 0.0151,-0.0776 0.0449,0 -0.0149,0.0776 0.0899,0 z m 0.2075,0.0415 q -0.0068,-0.0037 -0.0156,-0.0056 -0.0088,-0.002 -0.0188,-0.002 -0.0359,0 -0.0628,0.0273 -0.0268,0.0272 -0.0356,0.0728 l -0.0276,0.1394 -0.0449,0 0.0534,-0.2734 0.045,0 -0.0086,0.0425 q 0.0178,-0.0237 0.0426,-0.0364 0.0248,-0.0127 0.0529,-0.0127 0.0073,0 0.0144,9e-4 0.0071,8e-4 0.0141,0.0028 l -0.0085,0.0444 z m 0.0742,-0.148 0.0449,0 -0.0739,0.3799 -0.045,0 0.074,-0.3799 z" />
  </g>
  <circle
     cx="91.094994"
     cy="28.5"
     r="7.5000005"
     id="circle69"
     style="font-style:italic;font-size:medium;font-family:sans-serif;fill:#ffffff;stroke:none;stroke-width:0.06" />
  <circle
     cx="91.094994"
     cy="28.5"
     r="7.5000005"
     id="circle71"
     style="font-style:italic;font-size:medium;font-family:sans-serif;fill:none;stroke:#000000;stroke-width:3" />
  <g
     style="font-size:0.5px;font-family:sans-serif;stroke-width:0.04"
     id="g81"
     transform="matrix(50,0,0,50,175.095,58.5)"
     font-size="0.5px">
    <path
       style="fill:none"
       inkscape:connector-curvature="0"
       id="path83"
       d="M 1.37,2 -2,2 -2,1.11" />
    <path
       style="stroke:none"
       inkscape:connector-curvature="0"
       id="path85"
       d="m -2.075,1.11 0.15,0 -0.075,0 z" />
  </g>
  <g
     style="font-size:0.5px;font-family:sans-serif;stroke-width:0.04"
     id="g87"
     transform="matrix(50,0,0,50,175.095,58.5)"
     font-size="0.5px">
    <line
       style="fill:none"
       id="line89"
       y2="1"
       y1="1.11"
       x2="-2"
       x1="-2" />
  </g>
  <g
     style="font-size:0.5px;font-family:sans-serif;stroke-width:0.04"
     id="g91"
     transform="matrix(50,0,0,50,301.095,78.5)"
     font-size="0.5px">
    <path
       style="fill:none"
       inkscape:connector-curvature="0"
       id="path93"
       d="m -4.87,-1 0.26,0" />
    <path
       style="stroke:none"
       inkscape:connector-curvature="0"
       id="path95"
       d="m -4.61,-1.075 0,0.15 0,-0.075 z" />
  </g>
  <g
     style="font-size:0.5px;font-family:sans-serif;stroke-width:0.04"
     id="g97"
     transform="matrix(50,0,0,50,299.095,78.5)"
     font-size="0.5px">
    <line
       style="fill:none"
       id="line99"
       y2="-1"
       y1="-1"
       x2="-4.5"
       x1="-4.6100001" />
  </g>
  <g
     style="font-size:0.5px;font-family:sans-serif;stroke-width:0.04"
     id="g113"
     transform="matrix(50,0,0,50,175.095,58.5)"
     font-size="0.5px">
    <path
       style="fill:none"
       inkscape:connector-curvature="0"
       id="path115"
       d="M 1.11,1 1.37,1" />
    <path
       style="stroke:none"
       inkscape:connector-curvature="0"
       id="path117"
       d="m 1.37,0.925 0,0.15 0,-0.075 z" />
  </g>
  <g
     style="font-size:0.5px;font-family:sans-serif;stroke-width:0.04"
     id="g119"
     transform="matrix(50,0,0,50,175.095,58.5)"
     font-size="0.5px">
    <line
       style="fill:none"
       id="line121"
       y2="1"
       y1="1"
       x2="1.11"
       x1="1" />
  </g>
</svg>
