<?xml version="1.0" encoding="UTF-8" standalone="no"?>
<svg xmlns:dc="http://purl.org/dc/elements/1.1/" xmlns:cc="http://creativecommons.org/ns#" xmlns:rdf="http://www.w3.org/1999/02/22-rdf-syntax-ns#" xmlns:svg="http://www.w3.org/2000/svg" xmlns="http://www.w3.org/2000/svg" xmlns:sodipodi="http://sodipodi.sourceforge.net/DTD/sodipodi-0.dtd" xmlns:inkscape="http://www.inkscape.org/namespaces/inkscape" font-size="12px" font-style="normal" font-weight="normal" height="100%" stroke-miterlimit="10" width="100%" id="svg2" version="1.1" inkscape:version="0.91 r13725" sodipodi:docname="WAITX2.stg.svg" style="font-style:normal;font-weight:normal;font-size:12px;font-family:Dialog;color-interpolation:auto;fill:#000000;fill-opacity:1;stroke:#000000;stroke-width:1;stroke-linecap:square;stroke-linejoin:miter;stroke-miterlimit:10;stroke-dasharray:none;stroke-dashoffset:0;stroke-opacity:1;color-rendering:auto;image-rendering:auto;shape-rendering:auto;text-rendering:auto" viewBox="0 0 472 739" preserveAspectRatio="xMidYMid slice">
  <metadata
     id="metadata259">
    <rdf:RDF>
      <cc:Work
         rdf:about="">
        <dc:format>image/svg+xml</dc:format>
        <dc:type
           rdf:resource="http://purl.org/dc/dcmitype/StillImage" />
        <dc:title></dc:title>
      </cc:Work>
    </rdf:RDF>
  </metadata>
  <sodipodi:namedview
     pagecolor="#ffffff"
     bordercolor="#666666"
     borderopacity="1"
     objecttolerance="10"
     gridtolerance="10"
     guidetolerance="10"
     inkscape:pageopacity="0"
     inkscape:pageshadow="2"
     inkscape:window-width="727"
     inkscape:window-height="480"
     id="namedview257"
     showgrid="false"
     fit-margin-top="0"
     fit-margin-left="0"
     fit-margin-right="0"
     fit-margin-bottom="0"
     inkscape:zoom="0.43686766"
     inkscape:cx="-36.894306"
     inkscape:cy="370.1094"
     inkscape:window-x="0"
     inkscape:window-y="24"
     inkscape:window-maximized="0"
     inkscape:current-layer="svg2" />
  <!--Generated by the Batik Graphics2D SVG Generator-->
  <defs
     id="genericDefs" />
  <g
     style="font-size:0.75px;font-family:sans-serif;fill:#b20000;stroke:#b20000"
     id="g7"
     transform="matrix(50,0,0,50,236.5194,268.3356)"
     font-size="0.75px">
    <path
       style="stroke:none"
       inkscape:connector-curvature="0"
       id="path9"
       d="m -0.7388,-0.144 0,0.0637 q -0.0286,-0.0147 -0.0594,-0.022 -0.0307,-0.0073 -0.0637,-0.0073 -0.0502,0 -0.0752,0.0154 -0.0251,0.0153 -0.0251,0.0461 0,0.0235 0.0179,0.0368 0.018,0.0134 0.0722,0.0255 l 0.023,0.0051 q 0.0718,0.0154 0.102,0.0434 0.0302,0.028 0.0302,0.0782 0,0.0571 -0.0452,0.0904 -0.0452,0.0334 -0.1243,0.0334 -0.033,0 -0.0687,-0.0064 Q -0.9908,0.2518 -1.0303,0.239 l 0,-0.0696 q 0.0373,0.0195 0.0736,0.0292 0.0362,0.0097 0.0717,0.0097 0.0477,0 0.0733,-0.0163 0.0256,-0.0163 0.0256,-0.046 0,-0.0275 -0.0185,-0.0421 Q -0.8231,0.0892 -0.8857,0.0757 L -0.9091,0.0702 Q -0.9717,0.057 -0.9996,0.0297 -1.0274,0.0024 -1.0274,-0.0451 q 0,-0.0579 0.041,-0.0894 0.041,-0.0315 0.1165,-0.0315 0.0373,0 0.0703,0.0055 0.0329,0.0055 0.0608,0.0165 z m 0.1292,-0.0121 0.0674,0 0,0.4101 -0.0674,0 0,-0.4101 z m 0,-0.1597 0.0674,0 0,0.0853 -0.0674,0 0,-0.0853 z m 0.4783,0.36 q 0,-0.0732 -0.0302,-0.1135 -0.0302,-0.0403 -0.0848,-0.0403 -0.0542,0 -0.0844,0.0403 -0.0302,0.0403 -0.0302,0.1135 0,0.0729 0.0302,0.1132 0.0302,0.0402 0.0844,0.0402 0.0546,0 0.0848,-0.0402 0.0302,-0.0403 0.0302,-0.1132 z m 0.0674,0.1589 q 0,0.1048 -0.0465,0.1559 -0.0465,0.051 -0.1425,0.051 -0.0355,0 -0.067,-0.0053 Q -0.3514,0.3994 -0.381,0.3884 l 0,-0.0655 q 0.0296,0.0161 0.0585,0.0238 0.029,0.0077 0.059,0.0077 0.0663,0 0.0992,-0.0346 0.033,-0.0346 0.033,-0.1046 l 0,-0.0333 q -0.0209,0.0362 -0.0535,0.0542 -0.0326,0.0179 -0.078,0.0179 -0.0754,0 -0.1215,-0.0575 -0.0462,-0.0574 -0.0462,-0.1523 0,-0.0952 0.0462,-0.1527 0.0461,-0.0575 0.1215,-0.0575 0.0454,0 0.078,0.0179 0.0326,0.018 0.0535,0.0542 l 0,-0.0622 0.0674,0 0,0.3592 z m 0.1611,-0.0113 0.1209,0 0,-0.4171 -0.1315,0.0263 0,-0.0674 0.1307,-0.0263 0.074,0 0,0.4845 0.1209,0 0,0.0622 -0.315,0 0,-0.0622 z m 0.7291,-0.408 0,0.204 0.204,0 0,0.0623 -0.204,0 0,0.2039 -0.0615,0 0,-0.2039 -0.204,0 0,-0.0623 0.204,0 0,-0.204 0.0615,0 z" />
  </g>
  <g
     style="font-size:0.75px;font-family:sans-serif;fill:#b20000;stroke:#b20000"
     id="g11"
     transform="matrix(50,0,0,50,236.52,668.335)"
     font-size="0.75px">
    <path
       style="stroke:none"
       inkscape:connector-curvature="0"
       id="path13"
       d="m -0.7388,-0.144 0,0.0637 q -0.0286,-0.0147 -0.0594,-0.022 -0.0307,-0.0073 -0.0637,-0.0073 -0.0502,0 -0.0752,0.0154 -0.0251,0.0153 -0.0251,0.0461 0,0.0235 0.0179,0.0368 0.018,0.0134 0.0722,0.0255 l 0.023,0.0051 q 0.0718,0.0154 0.102,0.0434 0.0302,0.028 0.0302,0.0782 0,0.0571 -0.0452,0.0904 -0.0452,0.0334 -0.1243,0.0334 -0.033,0 -0.0687,-0.0064 Q -0.9908,0.2518 -1.0303,0.239 l 0,-0.0696 q 0.0373,0.0195 0.0736,0.0292 0.0362,0.0097 0.0717,0.0097 0.0477,0 0.0733,-0.0163 0.0256,-0.0163 0.0256,-0.046 0,-0.0275 -0.0185,-0.0421 Q -0.8231,0.0892 -0.8857,0.0757 L -0.9091,0.0702 Q -0.9717,0.057 -0.9996,0.0297 -1.0274,0.0024 -1.0274,-0.0451 q 0,-0.0579 0.041,-0.0894 0.041,-0.0315 0.1165,-0.0315 0.0373,0 0.0703,0.0055 0.0329,0.0055 0.0608,0.0165 z m 0.1292,-0.0121 0.0674,0 0,0.4101 -0.0674,0 0,-0.4101 z m 0,-0.1597 0.0674,0 0,0.0853 -0.0674,0 0,-0.0853 z m 0.4783,0.36 q 0,-0.0732 -0.0302,-0.1135 -0.0302,-0.0403 -0.0848,-0.0403 -0.0542,0 -0.0844,0.0403 -0.0302,0.0403 -0.0302,0.1135 0,0.0729 0.0302,0.1132 0.0302,0.0402 0.0844,0.0402 0.0546,0 0.0848,-0.0402 0.0302,-0.0403 0.0302,-0.1132 z m 0.0674,0.1589 q 0,0.1048 -0.0465,0.1559 -0.0465,0.051 -0.1425,0.051 -0.0355,0 -0.067,-0.0053 Q -0.3514,0.3994 -0.381,0.3884 l 0,-0.0655 q 0.0296,0.0161 0.0585,0.0238 0.029,0.0077 0.059,0.0077 0.0663,0 0.0992,-0.0346 0.033,-0.0346 0.033,-0.1046 l 0,-0.0333 q -0.0209,0.0362 -0.0535,0.0542 -0.0326,0.0179 -0.078,0.0179 -0.0754,0 -0.1215,-0.0575 -0.0462,-0.0574 -0.0462,-0.1523 0,-0.0952 0.0462,-0.1527 0.0461,-0.0575 0.1215,-0.0575 0.0454,0 0.078,0.0179 0.0326,0.018 0.0535,0.0542 l 0,-0.0622 0.0674,0 0,0.3592 z m 0.212,-0.0113 0.2582,0 0,0.0622 -0.3472,0 0,-0.0622 Q 0.1013,0.1482 0.1739,0.0748 0.2466,0.0014 0.2653,-0.0199 0.3008,-0.0598 0.3149,-0.0875 0.329,-0.1151 0.329,-0.1418 q 0,-0.0436 -0.0305,-0.0711 -0.0306,-0.0275 -0.0797,-0.0275 -0.0348,0 -0.0734,0.0121 -0.0386,0.0121 -0.0826,0.0367 l 0,-0.0748 q 0.0447,-0.0179 0.0835,-0.027 0.0388,-0.0092 0.071,-0.0092 0.085,0 0.1355,0.0425 0.0506,0.0425 0.0506,0.1135 0,0.0337 -0.0127,0.0639 Q 0.3781,-0.0525 0.3448,-0.0115 0.3356,-9e-4 0.2866,0.0499 0.2375,0.1006 0.1481,0.1918 Z m 0.6782,-0.408 0,0.204 0.204,0 0,0.0623 -0.204,0 0,0.2039 -0.0615,0 0,-0.2039 -0.204,0 0,-0.0623 0.204,0 0,-0.204 0.0615,0 z" />
  </g>
  <g
     style="font-size:0.75px;font-family:sans-serif;fill:#b20000;stroke:#b20000"
     id="g15"
     transform="matrix(50,0,0,50,436.52,18.335)"
     font-size="0.75px">
    <path
       style="stroke:none"
       inkscape:connector-curvature="0"
       id="path17"
       d="m -0.3834,-0.1912 0,0.0629 q -0.0286,-0.0157 -0.0573,-0.0236 -0.0288,-0.0079 -0.0581,-0.0079 -0.0655,0 -0.1018,0.0416 -0.0362,0.0416 -0.0362,0.1166 0,0.0751 0.0362,0.1167 0.0363,0.0415 0.1018,0.0415 0.0293,0 0.0581,-0.0078 0.0287,-0.0079 0.0573,-0.0236 l 0,0.0622 q -0.0282,0.0132 -0.0584,0.0198 -0.0302,0.0066 -0.0643,0.0066 -0.0927,0 -0.1472,-0.0582 -0.0546,-0.0583 -0.0546,-0.1572 0,-0.1003 0.0551,-0.1578 0.0551,-0.0575 0.1511,-0.0575 0.0311,0 0.0608,0.0064 0.0296,0.0064 0.0575,0.0193 z m 0.1838,-0.1323 0,0.1165 0.1388,0 0,0.0524 -0.1388,0 0,0.2226 q 0,0.0502 0.0137,0.0645 0.0138,0.0143 0.0559,0.0143 l 0.0692,0 0,0.0564 -0.0692,0 q -0.078,0 -0.1077,-0.0292 -0.0296,-0.0291 -0.0296,-0.106 l 0,-0.2226 -0.0495,0 0,-0.0524 0.0495,0 0,-0.1165 0.0677,0 z M 0.2655,-0.144 Q 0.2542,-0.1506 0.2408,-0.1537 0.2274,-0.1568 0.2113,-0.1568 q -0.0571,0 -0.0877,0.0371 -0.0306,0.0372 -0.0306,0.1068 l 0,0.2161 -0.0677,0 0,-0.4102 0.0677,0 0,0.0637 q 0.0213,-0.0373 0.0553,-0.0555 0.0341,-0.0181 0.0828,-0.0181 0.0069,0 0.0154,9e-4 0.0084,9e-4 0.0186,0.0028 l 4e-4,0.0692 z m 0.0707,-0.2227 0.0674,0 0,0.5699 -0.0674,0 0,-0.5699 z m 0.1743,0.3344 0.1974,0 0,0.06 -0.1974,0 0,-0.06 z" />
  </g>
  <g
     style="font-size:0.75px;font-family:sans-serif;fill:#b20000;stroke:#b20000"
     id="g19"
     transform="matrix(50,0,0,50,236.52,368.335)"
     font-size="0.75px">
    <path
       style="stroke:none"
       inkscape:connector-curvature="0"
       id="path21"
       d="m -0.5409,-0.1912 0,0.0629 q -0.0286,-0.0157 -0.0573,-0.0236 -0.0288,-0.0079 -0.0581,-0.0079 -0.0655,0 -0.1018,0.0416 -0.0362,0.0416 -0.0362,0.1166 0,0.0751 0.0362,0.1167 0.0363,0.0415 0.1018,0.0415 0.0293,0 0.0581,-0.0078 0.0287,-0.0079 0.0573,-0.0236 l 0,0.0622 q -0.0282,0.0132 -0.0584,0.0198 -0.0302,0.0066 -0.0643,0.0066 -0.0926,0 -0.1472,-0.0582 -0.0546,-0.0583 -0.0546,-0.1572 0,-0.1003 0.0552,-0.1578 0.0551,-0.0575 0.151,-0.0575 0.0312,0 0.0608,0.0064 0.0297,0.0064 0.0575,0.0193 z m 0.1838,-0.1323 0,0.1165 0.1388,0 0,0.0524 -0.1388,0 0,0.2226 q 0,0.0502 0.0138,0.0645 0.0137,0.0143 0.0558,0.0143 l 0.0692,0 0,0.0564 -0.0692,0 q -0.078,0 -0.1076,-0.0292 -0.0297,-0.0291 -0.0297,-0.106 l 0,-0.2226 -0.0494,0 0,-0.0524 0.0494,0 0,-0.1165 0.0677,0 z M 0.108,-0.144 Q 0.0967,-0.1506 0.0833,-0.1537 0.07,-0.1568 0.0538,-0.1568 q -0.0571,0 -0.0877,0.0371 -0.0306,0.0372 -0.0306,0.1068 l 0,0.2161 -0.0677,0 0,-0.4102 0.0677,0 0,0.0637 q 0.0213,-0.0373 0.0553,-0.0555 0.0341,-0.0181 0.0828,-0.0181 0.007,0 0.0154,9e-4 0.0084,9e-4 0.0187,0.0028 l 3e-4,0.0692 z m 0.0707,-0.2227 0.0674,0 0,0.5699 -0.0674,0 0,-0.5699 z m 0.4827,0.0996 0,0.204 0.204,0 0,0.0623 -0.204,0 0,0.204 -0.0615,0 0,-0.204 -0.204,0 0,-0.0623 0.204,0 0,-0.204 0.0615,0 z" />
  </g>
  <g
     style="font-size:0.75px;font-family:sans-serif;fill:#0000b2;stroke:#0000b2"
     id="g23"
     transform="matrix(50,0,0,50,36.52,718.335)"
     font-size="0.75px">
    <path
       style="stroke:none"
       inkscape:connector-curvature="0"
       id="path25"
       d="m -0.4312,0.0396 q 0,-0.0733 -0.0302,-0.1135 -0.0302,-0.0403 -0.0848,-0.0403 -0.0542,0 -0.0844,0.0403 -0.0302,0.0402 -0.0302,0.1135 0,0.0729 0.0302,0.1131 0.0302,0.0403 0.0844,0.0403 0.0546,0 0.0848,-0.0403 0.0302,-0.0402 0.0302,-0.1131 z m 0.0674,0.1589 q 0,0.1048 -0.0465,0.1558 -0.0466,0.0511 -0.1425,0.0511 -0.0355,0 -0.067,-0.0053 Q -0.6513,0.3948 -0.681,0.3838 l 0,-0.0655 q 0.0297,0.0161 0.0586,0.0238 0.029,0.0077 0.059,0.0077 0.0663,0 0.0992,-0.0346 0.033,-0.0347 0.033,-0.1046 l 0,-0.0333 q -0.0209,0.0362 -0.0535,0.0542 -0.0326,0.0179 -0.078,0.0179 -0.0754,0 -0.1216,-0.0575 -0.0461,-0.0575 -0.0461,-0.1523 0,-0.0952 0.0461,-0.1527 0.0462,-0.0575 0.1216,-0.0575 0.0454,0 0.078,0.0179 0.0326,0.018 0.0535,0.0542 l 0,-0.0622 0.0674,0 0,0.3592 z m 0.212,-0.0113 0.2582,0 0,0.0622 -0.3472,0 0,-0.0622 q 0.0421,-0.0436 0.1148,-0.117 0.0727,-0.0735 0.0914,-0.0947 0.0355,-0.0399 0.0496,-0.0676 0.0141,-0.0276 0.0141,-0.0544 0,-0.0435 -0.0306,-0.071 -0.0305,-0.0275 -0.0796,-0.0275 -0.0348,0 -0.0734,0.0121 -0.0387,0.0121 -0.0826,0.0367 l 0,-0.0748 q 0.0447,-0.0179 0.0835,-0.0271 0.0388,-0.0091 0.071,-0.0091 0.085,0 0.1355,0.0425 0.0506,0.0424 0.0506,0.1135 0,0.0337 -0.0127,0.0639 -0.0126,0.0302 -0.0459,0.0712 -0.0092,0.0106 -0.0583,0.0614 -0.049,0.0507 -0.1384,0.1419 z m 0.6782,-0.408 0,0.204 0.204,0 0,0.0622 -0.204,0 0,0.204 -0.0615,0 0,-0.204 -0.204,0 0,-0.0622 0.204,0 0,-0.204 0.0615,0 z" />
  </g>
  <g
     style="font-size:0.75px;font-family:sans-serif;fill:#0000b2;stroke:#0000b2"
     id="g27"
     transform="matrix(50,0,0,50,36.52,18.335)"
     font-size="0.75px">
    <path
       style="stroke:none"
       inkscape:connector-curvature="0"
       id="path29"
       d="m -0.4312,0.0361 q 0,-0.0732 -0.0302,-0.1135 -0.0302,-0.0403 -0.0848,-0.0403 -0.0542,0 -0.0844,0.0403 -0.0302,0.0403 -0.0302,0.1135 0,0.0729 0.0302,0.1132 0.0302,0.0403 0.0844,0.0403 0.0546,0 0.0848,-0.0403 0.0302,-0.0403 0.0302,-0.1132 z m 0.0674,0.159 q 0,0.1047 -0.0465,0.1558 -0.0466,0.0511 -0.1425,0.0511 -0.0355,0 -0.067,-0.0053 Q -0.6513,0.3914 -0.681,0.3804 l 0,-0.0656 q 0.0297,0.0161 0.0586,0.0238 0.029,0.0077 0.059,0.0077 0.0663,0 0.0992,-0.0346 0.033,-0.0346 0.033,-0.1046 l 0,-0.0333 q -0.0209,0.0363 -0.0535,0.0542 -0.0326,0.018 -0.078,0.018 -0.0754,0 -0.1216,-0.0575 -0.0461,-0.0575 -0.0461,-0.1524 0,-0.0952 0.0461,-0.1527 0.0462,-0.0575 0.1216,-0.0575 0.0454,0 0.078,0.018 0.0326,0.0179 0.0535,0.0542 l 0,-0.0623 0.0674,0 0,0.3593 z m 0.1611,-0.0114 0.1209,0 0,-0.4171 -0.1315,0.0264 0,-0.0674 0.1307,-0.0264 0.074,0 0,0.4845 0.1208,0 0,0.0623 -0.3149,0 0,-0.0623 z m 0.7291,-0.408 0,0.204 0.204,0 0,0.0623 -0.204,0 0,0.204 -0.0615,0 0,-0.204 -0.204,0 0,-0.0623 0.204,0 0,-0.204 0.0615,0 z" />
  </g>
  <g
     style="font-size:0.75px;font-family:sans-serif;fill:#b20000;stroke:#b20000"
     id="g31"
     transform="matrix(50,0,0,50,236.52,68.335)"
     font-size="0.75px">
    <path
       style="stroke:none"
       inkscape:connector-curvature="0"
       id="path33"
       d="m -0.5814,-0.144 0,0.0637 q -0.0285,-0.0147 -0.0593,-0.022 -0.0308,-0.0073 -0.0637,-0.0073 -0.0502,0 -0.0753,0.0154 -0.0251,0.0153 -0.0251,0.0461 0,0.0235 0.018,0.0368 0.0179,0.0134 0.0721,0.0255 l 0.0231,0.0051 q 0.0718,0.0154 0.102,0.0434 0.0302,0.028 0.0302,0.0782 0,0.0571 -0.0452,0.0904 -0.0452,0.0334 -0.1243,0.0334 -0.033,0 -0.0687,-0.0064 Q -0.8333,0.2518 -0.8729,0.239 l 0,-0.0696 q 0.0374,0.0195 0.0736,0.0292 0.0363,0.0097 0.0718,0.0097 0.0476,0 0.0733,-0.0163 0.0256,-0.0163 0.0256,-0.046 0,-0.0275 -0.0185,-0.0421 Q -0.6656,0.0892 -0.7282,0.0757 L -0.7517,0.0702 Q -0.8143,0.057 -0.8421,0.0297 -0.8699,0.0024 -0.8699,-0.0451 q 0,-0.0579 0.041,-0.0894 0.041,-0.0315 0.1164,-0.0315 0.0374,0 0.0703,0.0055 0.033,0.0055 0.0608,0.0165 z m 0.1293,-0.0121 0.0674,0 0,0.4101 -0.0674,0 0,-0.4101 z m 0,-0.1597 0.0674,0 0,0.0853 -0.0674,0 0,-0.0853 z m 0.4783,0.36 q 0,-0.0732 -0.0302,-0.1135 -0.0302,-0.0403 -0.0848,-0.0403 -0.0542,0 -0.0844,0.0403 -0.0302,0.0403 -0.0302,0.1135 0,0.0729 0.0302,0.1132 0.0302,0.0402 0.0844,0.0402 0.0546,0 0.0848,-0.0402 Q 0.0262,0.1171 0.0262,0.0442 Z M 0.0936,0.2031 Q 0.0936,0.3079 0.047,0.359 5e-4,0.41 -0.0954,0.41 -0.1309,0.41 -0.1624,0.4047 -0.1939,0.3994 -0.2236,0.3884 l 0,-0.0655 q 0.0297,0.0161 0.0586,0.0238 0.0289,0.0077 0.059,0.0077 0.0663,0 0.0992,-0.0346 0.033,-0.0346 0.033,-0.1046 l 0,-0.0333 Q 0.0053,0.2181 -0.0273,0.2361 -0.0599,0.254 -0.1053,0.254 -0.1807,0.254 -0.2269,0.1965 -0.273,0.1391 -0.273,0.0442 q 0,-0.0952 0.0461,-0.1527 0.0462,-0.0575 0.1216,-0.0575 0.0454,0 0.078,0.0179 0.0326,0.018 0.0535,0.0542 l 0,-0.0622 0.0674,0 0,0.3592 z m 0.1611,-0.0113 0.1209,0 0,-0.4171 -0.1315,0.0263 0,-0.0674 0.1307,-0.0263 0.074,0 0,0.4845 0.1208,0 0,0.0622 -0.3149,0 0,-0.0622 z m 0.4208,-0.1732 0.1974,0 0,0.06 -0.1974,0 0,-0.06 z" />
  </g>
  <g
     style="font-size:0.75px;font-family:sans-serif;fill:#b20000;stroke:#b20000"
     id="g35"
     transform="matrix(50,0,0,50,236.52,468.335)"
     font-size="0.75px">
    <path
       style="stroke:none"
       inkscape:connector-curvature="0"
       id="path37"
       d="m -0.5814,-0.144 0,0.0637 q -0.0285,-0.0147 -0.0593,-0.022 -0.0308,-0.0073 -0.0637,-0.0073 -0.0502,0 -0.0753,0.0154 -0.0251,0.0153 -0.0251,0.0461 0,0.0235 0.018,0.0368 0.0179,0.0134 0.0721,0.0255 l 0.0231,0.0051 q 0.0718,0.0154 0.102,0.0434 0.0302,0.028 0.0302,0.0782 0,0.0571 -0.0452,0.0904 -0.0452,0.0334 -0.1243,0.0334 -0.033,0 -0.0687,-0.0064 Q -0.8333,0.2518 -0.8729,0.239 l 0,-0.0696 q 0.0374,0.0195 0.0736,0.0292 0.0363,0.0097 0.0718,0.0097 0.0476,0 0.0733,-0.0163 0.0256,-0.0163 0.0256,-0.046 0,-0.0275 -0.0185,-0.0421 Q -0.6656,0.0892 -0.7282,0.0757 L -0.7517,0.0702 Q -0.8143,0.057 -0.8421,0.0297 -0.8699,0.0024 -0.8699,-0.0451 q 0,-0.0579 0.041,-0.0894 0.041,-0.0315 0.1164,-0.0315 0.0374,0 0.0703,0.0055 0.033,0.0055 0.0608,0.0165 z m 0.1293,-0.0121 0.0674,0 0,0.4101 -0.0674,0 0,-0.4101 z m 0,-0.1597 0.0674,0 0,0.0853 -0.0674,0 0,-0.0853 z m 0.4783,0.36 q 0,-0.0732 -0.0302,-0.1135 -0.0302,-0.0403 -0.0848,-0.0403 -0.0542,0 -0.0844,0.0403 -0.0302,0.0403 -0.0302,0.1135 0,0.0729 0.0302,0.1132 0.0302,0.0402 0.0844,0.0402 0.0546,0 0.0848,-0.0402 Q 0.0262,0.1171 0.0262,0.0442 Z M 0.0936,0.2031 Q 0.0936,0.3079 0.047,0.359 5e-4,0.41 -0.0954,0.41 -0.1309,0.41 -0.1624,0.4047 -0.1939,0.3994 -0.2236,0.3884 l 0,-0.0655 q 0.0297,0.0161 0.0586,0.0238 0.0289,0.0077 0.059,0.0077 0.0663,0 0.0992,-0.0346 0.033,-0.0346 0.033,-0.1046 l 0,-0.0333 Q 0.0053,0.2181 -0.0273,0.2361 -0.0599,0.254 -0.1053,0.254 -0.1807,0.254 -0.2269,0.1965 -0.273,0.1391 -0.273,0.0442 q 0,-0.0952 0.0461,-0.1527 0.0462,-0.0575 0.1216,-0.0575 0.0454,0 0.078,0.0179 0.0326,0.018 0.0535,0.0542 l 0,-0.0622 0.0674,0 0,0.3592 z m 0.212,-0.0113 0.2582,0 0,0.0622 -0.3472,0 0,-0.0622 q 0.0421,-0.0436 0.1148,-0.117 0.0727,-0.0734 0.0914,-0.0947 0.0355,-0.0399 0.0496,-0.0676 0.0141,-0.0276 0.0141,-0.0543 0,-0.0436 -0.0306,-0.0711 -0.0306,-0.0275 -0.0796,-0.0275 -0.0348,0 -0.0734,0.0121 -0.0387,0.0121 -0.0826,0.0367 l 0,-0.0748 q 0.0446,-0.0179 0.0835,-0.027 0.0388,-0.0092 0.071,-0.0092 0.085,0 0.1355,0.0425 0.0505,0.0425 0.0505,0.1135 0,0.0337 -0.0126,0.0639 Q 0.5356,-0.0525 0.5023,-0.0115 0.4931,-9e-4 0.444,0.0499 0.395,0.1006 0.3056,0.1918 Z m 0.3699,-0.1732 0.1974,0 0,0.06 -0.1974,0 0,-0.06 z" />
  </g>
  <g
     style="font-size:0.75px;font-family:sans-serif;fill:#ffffff;stroke:#ffffff"
     id="g39"
     transform="matrix(50,0,0,50,136.52,168.335)"
     font-size="0.75px">
    <circle
       style="stroke:none"
       id="circle41"
       r="0.44999999"
       cy="0"
       cx="0" />
    <circle
       style="fill:none;stroke:#000000;stroke-width:0.1"
       id="circle43"
       r="0.44999999"
       cy="0"
       cx="0" />
  </g>
  <g
     style="font-size:0.75px;font-family:sans-serif;fill:#ffffff;stroke:#ffffff;stroke-width:0.1"
     id="g45"
     transform="matrix(50,0,0,50,136.52,568.335)"
     font-size="0.75px">
    <circle
       style="stroke:none"
       id="circle47"
       r="0.44999999"
       cy="0"
       cx="0" />
    <circle
       style="fill:none;stroke:#000000"
       id="circle49"
       r="0.44999999"
       cy="0"
       cx="0" />
  </g>
  <g
     style="font-size:0.75px;font-family:sans-serif;fill:#0000b2;stroke:#0000b2;stroke-width:0.1"
     id="g51"
     transform="matrix(50,0,0,50,436.52,268.335)"
     font-size="0.75px">
    <path
       style="stroke:none"
       inkscape:connector-curvature="0"
       id="path53"
       d="m -0.2737,0.0361 q 0,-0.0732 -0.0303,-0.1135 -0.0302,-0.0403 -0.0847,-0.0403 -0.0542,0 -0.0844,0.0403 -0.0303,0.0403 -0.0303,0.1135 0,0.0729 0.0303,0.1132 0.0302,0.0403 0.0844,0.0403 0.0545,0 0.0847,-0.0403 0.0303,-0.0403 0.0303,-0.1132 z m 0.0673,0.159 q 0,0.1047 -0.0465,0.1558 -0.0465,0.0511 -0.1424,0.0511 -0.0356,0 -0.067,-0.0053 -0.0315,-0.0053 -0.0612,-0.0163 l 0,-0.0656 q 0.0297,0.0161 0.0586,0.0238 0.0289,0.0077 0.059,0.0077 0.0662,0 0.0992,-0.0346 0.033,-0.0346 0.033,-0.1046 l 0,-0.0333 q -0.0209,0.0363 -0.0535,0.0542 -0.0326,0.018 -0.078,0.018 -0.0754,0 -0.1216,-0.0575 -0.0461,-0.0575 -0.0461,-0.1524 0,-0.0952 0.0461,-0.1527 0.0462,-0.0575 0.1216,-0.0575 0.0454,0 0.078,0.018 0.0326,0.0179 0.0535,0.0542 l 0,-0.0623 0.0673,0 0,0.3593 z m 0.1612,-0.0114 0.1208,0 0,-0.4171 -0.1315,0.0264 0,-0.0674 0.1308,-0.0264 0.074,0 0,0.4845 0.1208,0 0,0.0623 -0.3149,0 0,-0.0623 z m 0.4208,-0.1732 0.1973,0 0,0.06 -0.1973,0 0,-0.06 z" />
  </g>
  <g
     style="font-size:0.75px;font-family:sans-serif;fill:#0000b2;stroke:#0000b2;stroke-width:0.1"
     id="g55"
     transform="matrix(50,0,0,50,436.52,468.335)"
     font-size="0.75px">
    <path
       style="stroke:none"
       inkscape:connector-curvature="0"
       id="path57"
       d="m -0.2737,0.0396 q 0,-0.0733 -0.0303,-0.1135 -0.0302,-0.0403 -0.0847,-0.0403 -0.0542,0 -0.0844,0.0403 -0.0303,0.0402 -0.0303,0.1135 0,0.0729 0.0303,0.1131 0.0302,0.0403 0.0844,0.0403 0.0545,0 0.0847,-0.0403 0.0303,-0.0402 0.0303,-0.1131 z m 0.0673,0.1589 q 0,0.1048 -0.0465,0.1558 -0.0465,0.0511 -0.1424,0.0511 -0.0356,0 -0.067,-0.0053 -0.0315,-0.0053 -0.0612,-0.0163 l 0,-0.0655 q 0.0297,0.0161 0.0586,0.0238 0.0289,0.0077 0.059,0.0077 0.0662,0 0.0992,-0.0346 0.033,-0.0347 0.033,-0.1046 l 0,-0.0333 q -0.0209,0.0362 -0.0535,0.0542 -0.0326,0.0179 -0.078,0.0179 -0.0754,0 -0.1216,-0.0575 -0.0461,-0.0575 -0.0461,-0.1523 0,-0.0952 0.0461,-0.1527 0.0462,-0.0575 0.1216,-0.0575 0.0454,0 0.078,0.0179 0.0326,0.018 0.0535,0.0542 l 0,-0.0622 0.0673,0 0,0.3592 z m 0.2121,-0.0113 0.2581,0 0,0.0622 -0.3471,0 0,-0.0622 q 0.0421,-0.0436 0.1148,-0.117 0.0727,-0.0735 0.0914,-0.0947 0.0355,-0.0399 0.0496,-0.0676 0.0141,-0.0276 0.0141,-0.0544 0,-0.0435 -0.0306,-0.071 -0.0306,-0.0275 -0.0797,-0.0275 -0.0347,0 -0.0734,0.0121 -0.0386,0.0121 -0.0826,0.0367 l 0,-0.0748 q 0.0447,-0.0179 0.0835,-0.0271 0.0389,-0.0091 0.0711,-0.0091 0.0849,0 0.1355,0.0425 0.0505,0.0424 0.0505,0.1135 0,0.0337 -0.0126,0.0639 -0.0126,0.0302 -0.046,0.0712 Q 0.1932,-0.0055 0.1441,0.0453 0.095,0.096 0.0057,0.1872 Z m 0.3699,-0.1732 0.1973,0 0,0.06 -0.1973,0 0,-0.06 z" />
  </g>
  <g
     style="font-size:0.75px;font-family:sans-serif;fill:#ffffff;stroke:#ffffff;stroke-width:0.1"
     id="g59"
     transform="matrix(50,0,0,50,36.52,368.335)"
     font-size="0.75px">
    <circle
       style="stroke:none"
       id="circle61"
       r="0.44999999"
       cy="0"
       cx="0" />
    <circle
       style="fill:none;stroke:#000000"
       id="circle63"
       r="0.44999999"
       cy="0"
       cx="0" />
  </g>
  <g
     style="font-size:0.75px;font-family:sans-serif;fill:#ffffff;stroke:#ffffff;stroke-width:0.1"
     id="g65"
     transform="matrix(50,0,0,50,436.52,368.335)"
     font-size="0.75px">
    <circle
       style="stroke:none"
       id="circle67"
       r="0.44999999"
       cy="0"
       cx="0" />
    <circle
       style="fill:none;stroke:#000000"
       id="circle69"
       r="0.44999999"
       cy="0"
       cx="0" />
    <circle
       style="fill:#000000;stroke:none"
       id="circle71"
       r="0.26320001"
       cy="0"
       cx="0" />
  </g>
  <g
     style="font-size:0.75px;font-family:sans-serif;fill:#b20000;stroke:#b20000;stroke-width:0.1"
     id="g73"
     transform="matrix(50,0,0,50,436.52,718.335)"
     font-size="0.75px">
    <path
       style="stroke:none"
       inkscape:connector-curvature="0"
       id="path75"
       d="m -0.3834,-0.1912 0,0.0629 q -0.0286,-0.0157 -0.0573,-0.0236 -0.0288,-0.0079 -0.0581,-0.0079 -0.0655,0 -0.1018,0.0416 -0.0362,0.0416 -0.0362,0.1166 0,0.0751 0.0362,0.1167 0.0363,0.0415 0.1018,0.0415 0.0293,0 0.0581,-0.0078 0.0287,-0.0079 0.0573,-0.0236 l 0,0.0622 q -0.0282,0.0132 -0.0584,0.0198 -0.0302,0.0066 -0.0643,0.0066 -0.0927,0 -0.1472,-0.0582 -0.0546,-0.0583 -0.0546,-0.1572 0,-0.1003 0.0551,-0.1578 0.0551,-0.0575 0.1511,-0.0575 0.0311,0 0.0608,0.0064 0.0296,0.0064 0.0575,0.0193 z m 0.1838,-0.1323 0,0.1165 0.1388,0 0,0.0524 -0.1388,0 0,0.2226 q 0,0.0502 0.0137,0.0645 0.0138,0.0143 0.0559,0.0143 l 0.0692,0 0,0.0564 -0.0692,0 q -0.078,0 -0.1077,-0.0292 -0.0296,-0.0291 -0.0296,-0.106 l 0,-0.2226 -0.0495,0 0,-0.0524 0.0495,0 0,-0.1165 0.0677,0 z M 0.2655,-0.144 Q 0.2542,-0.1506 0.2408,-0.1537 0.2274,-0.1568 0.2113,-0.1568 q -0.0571,0 -0.0877,0.0371 -0.0306,0.0372 -0.0306,0.1068 l 0,0.2161 -0.0677,0 0,-0.4102 0.0677,0 0,0.0637 q 0.0213,-0.0373 0.0553,-0.0555 0.0341,-0.0181 0.0828,-0.0181 0.0069,0 0.0154,9e-4 0.0084,9e-4 0.0186,0.0028 l 4e-4,0.0692 z m 0.0707,-0.2227 0.0674,0 0,0.5699 -0.0674,0 0,-0.5699 z m 0.1743,0.3344 0.1974,0 0,0.06 -0.1974,0 0,-0.06 z" />
  </g>
  <g
     style="font-size:0.75px;font-family:sans-serif;stroke-width:0.1"
     id="g77"
     transform="matrix(50,0,0,50,36.52,168.335)"
     font-size="0.75px">
    <path
       style="stroke:none"
       inkscape:connector-curvature="0"
       id="path79"
       d="m 0.1901,-0.0712 0,0.033 -0.3099,0 q 0.0044,0.0695 0.042,0.106 0.0375,0.0364 0.1045,0.0364 0.0389,0 0.0753,-0.0095 0.0364,-0.0095 0.0723,-0.0286 l 0,0.0638 Q 0.1381,0.1452 0.1,0.1533 0.0619,0.1614 0.0227,0.1614 q -0.0981,0 -0.1555,-0.0572 -0.0573,-0.0571 -0.0573,-0.1545 0,-0.1007 0.0544,-0.1599 0.0544,-0.0591 0.1467,-0.0591 0.0828,0 0.1309,0.0533 0.0482,0.0533 0.0482,0.1448 z M 0.1227,-0.091 q -8e-4,-0.0553 -0.031,-0.0882 -0.0302,-0.033 -0.08,-0.033 -0.0564,0 -0.0903,0.0319 -0.0338,0.0318 -0.039,0.0897 l 0.2403,-4e-4 z" />
  </g>
  <g
     style="font-size:0.75px;font-family:sans-serif;stroke-width:0.1"
     id="g81"
     transform="matrix(50,0,0,50,36.52,568.335)"
     font-size="0.75px">
    <path
       style="stroke:none"
       inkscape:connector-curvature="0"
       id="path83"
       d="m 0.1901,-0.0712 0,0.033 -0.3099,0 q 0.0044,0.0695 0.042,0.106 0.0375,0.0364 0.1045,0.0364 0.0389,0 0.0753,-0.0095 0.0364,-0.0095 0.0723,-0.0286 l 0,0.0638 Q 0.1381,0.1452 0.1,0.1533 0.0619,0.1614 0.0227,0.1614 q -0.0981,0 -0.1555,-0.0572 -0.0573,-0.0571 -0.0573,-0.1545 0,-0.1007 0.0544,-0.1599 0.0544,-0.0591 0.1467,-0.0591 0.0828,0 0.1309,0.0533 0.0482,0.0533 0.0482,0.1448 z M 0.1227,-0.091 q -8e-4,-0.0553 -0.031,-0.0882 -0.0302,-0.033 -0.08,-0.033 -0.0564,0 -0.0903,0.0319 -0.0338,0.0318 -0.039,0.0897 l 0.2403,-4e-4 z" />
  </g>
  <g
     style="font-size:0.75px;font-family:sans-serif;fill:#ffffff;stroke:#ffffff;stroke-width:0.1"
     id="g85"
     transform="matrix(50,0,0,50,336.52,168.335)"
     font-size="0.75px">
    <circle
       style="stroke:none"
       id="circle87"
       r="0.44999999"
       cy="0"
       cx="0" />
    <circle
       style="fill:none;stroke:#000000"
       id="circle89"
       r="0.44999999"
       cy="0"
       cx="0" />
    <circle
       style="fill:#000000;stroke:none"
       id="circle91"
       r="0.26320001"
       cy="0"
       cx="0" />
  </g>
  <g
     style="font-size:0.75px;font-family:sans-serif;fill:#ffffff;stroke:#ffffff;stroke-width:0.1"
     id="g93"
     transform="matrix(50,0,0,50,336.52,568.335)"
     font-size="0.75px">
    <circle
       style="stroke:none"
       id="circle95"
       r="0.44999999"
       cy="0"
       cx="0" />
    <circle
       style="fill:none;stroke:#000000"
       id="circle97"
       r="0.44999999"
       cy="0"
       cx="0" />
    <circle
       style="fill:#000000;stroke:none"
       id="circle99"
       r="0.26320001"
       cy="0"
       cx="0" />
  </g>
  <g
     style="font-size:0.75px;font-family:sans-serif;stroke-width:0.1"
     id="g101"
     transform="matrix(50,0,0,50,436.52,168.335)"
     font-size="0.75px">
    <path
       style="stroke:none"
       inkscape:connector-curvature="0"
       id="path103"
       d="m 0.1901,-0.0712 0,0.033 -0.3099,0 q 0.0044,0.0695 0.042,0.106 0.0375,0.0364 0.1045,0.0364 0.0389,0 0.0753,-0.0095 0.0364,-0.0095 0.0723,-0.0286 l 0,0.0638 Q 0.1381,0.1452 0.1,0.1533 0.0619,0.1614 0.0227,0.1614 q -0.0981,0 -0.1555,-0.0572 -0.0573,-0.0571 -0.0573,-0.1545 0,-0.1007 0.0544,-0.1599 0.0544,-0.0591 0.1467,-0.0591 0.0828,0 0.1309,0.0533 0.0482,0.0533 0.0482,0.1448 z M 0.1227,-0.091 q -8e-4,-0.0553 -0.031,-0.0882 -0.0302,-0.033 -0.08,-0.033 -0.0564,0 -0.0903,0.0319 -0.0338,0.0318 -0.039,0.0897 l 0.2403,-4e-4 z" />
  </g>
  <g
     style="font-size:0.75px;font-family:sans-serif;stroke-width:0.1"
     id="g105"
     transform="matrix(50,0,0,50,436.52,568.335)"
     font-size="0.75px">
    <path
       style="stroke:none"
       inkscape:connector-curvature="0"
       id="path107"
       d="m 0.1901,-0.0712 0,0.033 -0.3099,0 q 0.0044,0.0695 0.042,0.106 0.0375,0.0364 0.1045,0.0364 0.0389,0 0.0753,-0.0095 0.0364,-0.0095 0.0723,-0.0286 l 0,0.0638 Q 0.1381,0.1452 0.1,0.1533 0.0619,0.1614 0.0227,0.1614 q -0.0981,0 -0.1555,-0.0572 -0.0573,-0.0571 -0.0573,-0.1545 0,-0.1007 0.0544,-0.1599 0.0544,-0.0591 0.1467,-0.0591 0.0828,0 0.1309,0.0533 0.0482,0.0533 0.0482,0.1448 z M 0.1227,-0.091 q -8e-4,-0.0553 -0.031,-0.0882 -0.0302,-0.033 -0.08,-0.033 -0.0564,0 -0.0903,0.0319 -0.0338,0.0318 -0.039,0.0897 l 0.2403,-4e-4 z" />
  </g>
  <g
     style="font-size:0.75px;font-family:sans-serif;stroke-width:0.02"
     id="g109"
     transform="matrix(50,0,0,50,936.52,668.335)"
     font-size="0.75px">
    <path
       style="fill:none"
       inkscape:connector-curvature="0"
       id="path111"
       d="m -15.1303,-8.4117 c -0.2581,-0.1954 -0.4788,-0.4473 -0.6333,-0.7271" />
    <path
       style="stroke:none"
       inkscape:connector-curvature="0"
       id="path113"
       d="m -15.8324,-9.1091 0.1377,-0.0593 -0.2271,-0.3378 z" />
  </g>
  <g
     style="font-size:0.75px;font-family:sans-serif;stroke-width:0.02"
     id="g115"
     transform="matrix(50,0,0,50,936.52,668.335)"
     font-size="0.75px">
    <path
       style="fill:none"
       inkscape:connector-curvature="0"
       id="path117"
       d="m -15.9218,-10.4938 c 0.1129,-0.3601 0.34,-0.6975 0.6308,-0.9612" />
    <path
       style="stroke:none"
       inkscape:connector-curvature="0"
       id="path119"
       d="m -15.3365,-11.5147 0.091,0.1193 0.2726,-0.3021 z" />
  </g>
  <g
     style="font-size:0.75px;font-family:sans-serif;stroke-width:0.02"
     id="g121"
     transform="matrix(50,0,0,50,936.52,668.335)"
     font-size="0.75px">
    <path
       style="fill:none"
       inkscape:connector-curvature="0"
       id="path123"
       d="m -15.9218,-2.4938 c 0.1129,-0.3601 0.34,-0.6975 0.6308,-0.9612" />
    <path
       style="stroke:none"
       inkscape:connector-curvature="0"
       id="path125"
       d="m -15.3365,-3.5147 0.091,0.1193 0.2726,-0.3021 z" />
  </g>
  <g
     style="font-size:0.75px;font-family:sans-serif;stroke-width:0.02"
     id="g127"
     transform="matrix(50,0,0,50,936.52,668.335)"
     font-size="0.75px">
    <path
       style="fill:none"
       inkscape:connector-curvature="0"
       id="path129"
       d="m -15.1303,-0.4117 c -0.2581,-0.1954 -0.4788,-0.4473 -0.6333,-0.7271" />
    <path
       style="stroke:none"
       inkscape:connector-curvature="0"
       id="path131"
       d="m -15.8324,-1.1091 0.1377,-0.0593 -0.2271,-0.3378 z" />
  </g>
  <g
     style="font-size:0.75px;font-family:sans-serif;stroke-width:0.02"
     id="g133"
     transform="matrix(50,0,0,50,936.52,668.335)"
     font-size="0.75px">
    <path
       style="fill:none"
       inkscape:connector-curvature="0"
       id="path135"
       d="M -14.9654,-6 -17.1,-6" />
    <path
       style="stroke:none"
       inkscape:connector-curvature="0"
       id="path137"
       d="m -17.1,-5.925 0,-0.15 -0.4,0.075 z" />
  </g>
  <g
     style="font-size:0.75px;font-family:sans-serif;stroke-width:0.02"
     id="g139"
     transform="matrix(50,0,0,50,936.52,668.335)"
     font-size="0.75px">
    <path
       style="fill:none"
       inkscape:connector-curvature="0"
       id="path141"
       d="m -17.1696,-13 5.9617,0" />
    <path
       style="stroke:none"
       inkscape:connector-curvature="0"
       id="path143"
       d="m -11.2079,-13.075 0,0.15 0.4,-0.075 z" />
  </g>
  <g
     style="font-size:0.75px;font-family:sans-serif;stroke-width:0.02"
     id="g145"
     transform="matrix(50,0,0,50,936.52,668.335)"
     font-size="0.75px">
    <path
       style="fill:none"
       inkscape:connector-curvature="0"
       id="path147"
       d="m -10.5,-6 -2.1346,0" />
    <path
       style="stroke:none"
       inkscape:connector-curvature="0"
       id="path149"
       d="m -12.6346,-5.925 0,-0.15 -0.4,0.075 z" />
  </g>
  <g
     style="font-size:0.75px;font-family:sans-serif;stroke-width:0.02"
     id="g151"
     transform="matrix(50,0,0,50,936.52,668.335)"
     font-size="0.75px">
    <path
       style="fill:none"
       inkscape:connector-curvature="0"
       id="path153"
       d="m -17.1696,1 5.9617,0" />
    <path
       style="stroke:none"
       inkscape:connector-curvature="0"
       id="path155"
       d="m -11.2079,0.925 0,0.15 0.4,-0.075 z" />
  </g>
  <g
     style="font-size:0.75px;font-family:sans-serif;stroke-width:0.02"
     id="g157"
     transform="matrix(50,0,0,50,936.52,668.335)"
     font-size="0.75px">
    <path
       style="fill:none"
       inkscape:connector-curvature="0"
       id="path159"
       d="m -16.5,-10 -1.2099,0" />
  </g>
  <g
     style="font-size:0.75px;font-family:sans-serif;stroke-width:0.02"
     id="g161"
     transform="matrix(50,0,0,50,936.52,668.335)"
     font-size="0.75px">
    <path
       style="fill:none"
       inkscape:connector-curvature="0"
       id="path163"
       d="m -16.5,-2 -1.2099,0" />
  </g>
  <g
     style="font-size:0.75px;font-family:sans-serif;stroke-width:0.02"
     id="g165"
     transform="matrix(50,0,0,50,936.52,668.335)"
     font-size="0.75px">
    <path
       style="fill:none"
       inkscape:connector-curvature="0"
       id="path167"
       d="m -18,-6.5 0,-2.7201" />
    <path
       style="stroke:none"
       inkscape:connector-curvature="0"
       id="path169"
       d="m -18.075,-9.2201 0.15,0 -0.075,-0.4 z" />
  </g>
  <g
     style="font-size:0.75px;font-family:sans-serif;stroke-width:0.02"
     id="g171"
     transform="matrix(50,0,0,50,936.52,668.335)"
     font-size="0.75px">
    <path
       style="fill:none"
       inkscape:connector-curvature="0"
       id="path173"
       d="m -18,-10.3799 0,-1.6633" />
    <path
       style="stroke:none"
       inkscape:connector-curvature="0"
       id="path175"
       d="m -18.075,-12.0432 0.15,0 -0.075,-0.4 z" />
  </g>
  <g
     style="font-size:0.75px;font-family:sans-serif;stroke-width:0.02"
     id="g177"
     transform="matrix(50,0,0,50,936.52,668.335)"
     font-size="0.75px">
    <path
       style="fill:none"
       inkscape:connector-curvature="0"
       id="path179"
       d="m -18,-5.5 0,2.7201" />
    <path
       style="stroke:none"
       inkscape:connector-curvature="0"
       id="path181"
       d="m -17.925,-2.7799 -0.15,0 0.075,0.4 z" />
  </g>
  <g
     style="font-size:0.75px;font-family:sans-serif;stroke-width:0.02"
     id="g183"
     transform="matrix(50,0,0,50,936.52,668.335)"
     font-size="0.75px">
    <path
       style="fill:none"
       inkscape:connector-curvature="0"
       id="path185"
       d="m -18,-1.6201 0,1.6569" />
    <path
       style="stroke:none"
       inkscape:connector-curvature="0"
       id="path187"
       d="m -17.925,0.0368 -0.15,0 0.075,0.4 z" />
  </g>
  <g
     style="font-size:0.75px;font-family:sans-serif;stroke-width:0.02"
     id="g189"
     transform="matrix(50,0,0,50,936.52,668.335)"
     font-size="0.75px">
    <path
       style="fill:none"
       inkscape:connector-curvature="0"
       id="path191"
       d="m -13.0271,-11.6975 c 0.3255,0.2059 0.6056,0.5011 0.7907,0.8363" />
    <path
       style="stroke:none"
       inkscape:connector-curvature="0"
       id="path193"
       d="m -12.1676,-10.8909 -0.1377,0.0593 0.2271,0.3378 z" />
  </g>
  <g
     style="font-size:0.75px;font-family:sans-serif;stroke-width:0.02"
     id="g195"
     transform="matrix(50,0,0,50,936.52,668.335)"
     font-size="0.75px">
    <path
       style="fill:none"
       inkscape:connector-curvature="0"
       id="path197"
       d="m -12.0782,-9.5062 c -0.0945,0.3016 -0.2692,0.5871 -0.4942,0.8269" />
    <path
       style="stroke:none"
       inkscape:connector-curvature="0"
       id="path199"
       d="m -12.5222,-8.6236 -0.1004,-0.1115 -0.2471,0.3234 z" />
  </g>
  <g
     style="font-size:0.75px;font-family:sans-serif;stroke-width:0.02"
     id="g201"
     transform="matrix(50,0,0,50,936.52,668.335)"
     font-size="0.75px">
    <path
       style="fill:none"
       inkscape:connector-curvature="0"
       id="path203"
       d="m -13.0271,-3.6975 c 0.3255,0.2059 0.6056,0.5011 0.7907,0.8363" />
    <path
       style="stroke:none"
       inkscape:connector-curvature="0"
       id="path205"
       d="m -12.1676,-2.8909 -0.1377,0.0593 0.2271,0.3378 z" />
  </g>
  <g
     style="font-size:0.75px;font-family:sans-serif;stroke-width:0.02"
     id="g207"
     transform="matrix(50,0,0,50,936.52,668.335)"
     font-size="0.75px">
    <path
       style="fill:none"
       inkscape:connector-curvature="0"
       id="path209"
       d="m -12.0782,-1.5062 c -0.0945,0.3016 -0.2692,0.5871 -0.4942,0.8269" />
    <path
       style="stroke:none"
       inkscape:connector-curvature="0"
       id="path211"
       d="m -12.5222,-0.6236 -0.1004,-0.1115 -0.2471,0.3234 z" />
  </g>
  <g
     style="font-size:0.75px;font-family:sans-serif;stroke-width:0.02"
     id="g213"
     transform="matrix(50,0,0,50,936.52,668.335)"
     font-size="0.75px">
    <path
       style="fill:none"
       inkscape:connector-curvature="0"
       id="path215"
       d="m -11.5,-10 1.2099,0" />
  </g>
  <g
     style="font-size:0.75px;font-family:sans-serif;stroke-width:0.02"
     id="g217"
     transform="matrix(50,0,0,50,936.52,668.335)"
     font-size="0.75px">
    <path
       style="fill:none"
       inkscape:connector-curvature="0"
       id="path219"
       d="m -11.5,-2 1.2099,0" />
  </g>
  <g
     style="font-size:0.75px;font-family:sans-serif;stroke-width:0.02"
     id="g221"
     transform="matrix(50,0,0,50,936.52,668.335)"
     font-size="0.75px">
    <path
       style="fill:none"
       inkscape:connector-curvature="0"
       id="path223"
       d="m -10,0.5227 0,-1.7428" />
    <path
       style="stroke:none"
       inkscape:connector-curvature="0"
       id="path225"
       d="m -10.075,-1.2201 0.15,0 -0.075,-0.4 z" />
  </g>
  <g
     style="font-size:0.75px;font-family:sans-serif;stroke-width:0.02"
     id="g227"
     transform="matrix(50,0,0,50,936.52,668.335)"
     font-size="0.75px">
    <path
       style="fill:none"
       inkscape:connector-curvature="0"
       id="path229"
       d="m -10,-2.3799 0,-0.6569" />
    <path
       style="stroke:none"
       inkscape:connector-curvature="0"
       id="path231"
       d="m -10.075,-3.0368 0.15,0 -0.075,-0.4 z" />
  </g>
  <g
     style="font-size:0.75px;font-family:sans-serif;stroke-width:0.02"
     id="g233"
     transform="matrix(50,0,0,50,936.52,668.335)"
     font-size="0.75px">
    <path
       style="fill:none"
       inkscape:connector-curvature="0"
       id="path235"
       d="M -10,-4.5632 -10,-5.1" />
    <path
       style="stroke:none"
       inkscape:connector-curvature="0"
       id="path237"
       d="m -10.075,-5.1 0.15,0 L -10,-5.5 Z" />
  </g>
  <g
     style="font-size:0.75px;font-family:sans-serif;stroke-width:0.02"
     id="g239"
     transform="matrix(50,0,0,50,936.52,668.335)"
     font-size="0.75px">
    <path
       style="fill:none"
       inkscape:connector-curvature="0"
       id="path241"
       d="m -10,-12.5227 0,1.7428" />
    <path
       style="stroke:none"
       inkscape:connector-curvature="0"
       id="path243"
       d="m -9.925,-10.7799 -0.15,0 0.075,0.4 z" />
  </g>
  <g
     style="font-size:0.75px;font-family:sans-serif;stroke-width:0.02"
     id="g245"
     transform="matrix(50,0,0,50,936.52,668.335)"
     font-size="0.75px">
    <path
       style="fill:none"
       inkscape:connector-curvature="0"
       id="path247"
       d="m -10,-9.6201 0,0.6633" />
    <path
       style="stroke:none"
       inkscape:connector-curvature="0"
       id="path249"
       d="m -9.925,-8.9568 -0.15,0 0.075,0.4 z" />
  </g>
  <g
     style="font-size:0.75px;font-family:sans-serif;stroke-width:0.02"
     id="g251"
     transform="matrix(50,0,0,50,936.52,668.335)"
     font-size="0.75px">
    <path
       style="fill:none"
       inkscape:connector-curvature="0"
       id="path253"
       d="M -10,-7.4432 -10,-6.9" />
    <path
       style="stroke:none"
       inkscape:connector-curvature="0"
       id="path255"
       d="m -9.925,-6.9 -0.15,0 0.075,0.4 z" />
  </g>
</svg>
