<?xml version="1.0" encoding="UTF-8" standalone="no"?>
<svg xmlns:dc="http://purl.org/dc/elements/1.1/" xmlns:cc="http://creativecommons.org/ns#" xmlns:rdf="http://www.w3.org/1999/02/22-rdf-syntax-ns#" xmlns:svg="http://www.w3.org/2000/svg" xmlns="http://www.w3.org/2000/svg" xmlns:sodipodi="http://sodipodi.sourceforge.net/DTD/sodipodi-0.dtd" xmlns:inkscape="http://www.inkscape.org/namespaces/inkscape" font-size="12px" font-style="normal" font-weight="normal" height="100%" stroke-miterlimit="10" width="100%" id="svg2" version="1.1" inkscape:version="0.91 r13725" sodipodi:docname="WAITX-compact.circuit.svg" style="font-style:normal;font-weight:normal;font-size:12px;font-family:Dialog;color-interpolation:auto;fill:#000000;fill-opacity:1;stroke:#000000;stroke-width:1;stroke-linecap:square;stroke-linejoin:miter;stroke-miterlimit:10;stroke-dasharray:none;stroke-dashoffset:0;stroke-opacity:1;color-rendering:auto;image-rendering:auto;shape-rendering:auto;text-rendering:auto" viewBox="0 0 1110 552" preserveAspectRatio="xMidYMid slice">
  <metadata
     id="metadata729">
    <rdf:RDF>
      <cc:Work
         rdf:about="">
        <dc:format>image/svg+xml</dc:format>
        <dc:type
           rdf:resource="http://purl.org/dc/dcmitype/StillImage" />
        <dc:title></dc:title>
      </cc:Work>
    </rdf:RDF>
  </metadata>
  <sodipodi:namedview
     pagecolor="#ffffff"
     bordercolor="#666666"
     borderopacity="1"
     objecttolerance="10"
     gridtolerance="10"
     guidetolerance="10"
     inkscape:pageopacity="0"
     inkscape:pageshadow="2"
     inkscape:window-width="727"
     inkscape:window-height="480"
     id="namedview727"
     showgrid="false"
     fit-margin-top="0"
     fit-margin-left="0"
     fit-margin-right="0"
     fit-margin-bottom="0"
     inkscape:zoom="0.37761813"
     inkscape:cx="239.36703"
     inkscape:cy="276.5"
     inkscape:window-x="0"
     inkscape:window-y="24"
     inkscape:window-maximized="0"
     inkscape:current-layer="svg2" />
  <!--Generated by the Batik Graphics2D SVG Generator-->
  <defs
     id="genericDefs" />
  <g
     style="fill:#ffffff;stroke:#ffffff;stroke-width:0.06"
     id="g7"
     transform="matrix(50,0,0,50,1053.9152,51)">
    <path
       style="stroke:none"
       inkscape:connector-curvature="0"
       id="path9"
       d="M -0.13,-0.13 0,-0.13 0.13,0 0,0.13 l -0.13,0 z" />
    <path
       style="fill:none;stroke:#000000"
       inkscape:connector-curvature="0"
       id="path11"
       d="M -0.13,-0.13 0,-0.13 0.13,0 0,0.13 l -0.13,0 z" />
  </g>
  <g
     style="font-style:italic;font-size:0.5px;font-family:sans-serif;fill:#0000ff;stroke:#0000ff;stroke-width:0.06"
     id="g13"
     transform="matrix(50,0,0,50,1053.915,51)"
     font-style="italic"
     font-size="0.5px">
    <path
       style="stroke:none"
       inkscape:connector-curvature="0"
       id="path15"
       d="M 0.612,-0.1095 0.5654,0.13 Q 0.5519,0.1996 0.514,0.2338 0.476,0.268 0.4118,0.268 0.3881,0.268 0.3678,0.2644 0.3476,0.2609 0.33,0.2536 L 0.3383,0.2099 Q 0.3549,0.2206 0.3735,0.2257 0.392,0.2309 0.413,0.2309 0.4557,0.2309 0.4832,0.2076 0.5107,0.1842 0.5195,0.1405 L 0.5234,0.12 Q 0.5046,0.1415 0.4797,0.1527 0.4548,0.164 0.426,0.164 0.3845,0.164 0.3606,0.1365 0.3368,0.109 0.3368,0.0609 q 0,-0.0378 0.0145,-0.0741 0.0144,-0.0362 0.0405,-0.0643 0.0173,-0.0185 0.0404,-0.0285 0.0231,-0.0101 0.0482,-0.0101 0.0276,0 0.0481,0.0129 0.0205,0.0128 0.0305,0.0362 l 0.0078,-0.0425 0.0452,0 z m -0.0676,0.1004 q 0,-0.0332 -0.0157,-0.0513 -0.0156,-0.0181 -0.0444,-0.0181 -0.0178,0 -0.0339,0.0071 -0.0162,0.0071 -0.0276,0.0198 -0.0186,0.021 -0.029,0.0494 -0.0103,0.0285 -0.0103,0.0588 0,0.0336 0.0157,0.0517 0.0158,0.0181 0.0453,0.0181 0.0427,0 0.0713,-0.0387 0.0286,-0.0387 0.0286,-0.0968 z m 0.1193,0.1316 0.0806,0 0.0545,-0.2805 -0.0911,0.0175 0.0085,-0.0424 0.0906,-0.0176 0.0496,0 -0.063,0.323 0.0803,0 -0.0078,0.0415 -0.2102,0 0.008,-0.0415 z" />
  </g>
  <g
     style="font-style:italic;font-size:0.5px;font-family:sans-serif;fill:#ffffff;stroke:#ffffff;stroke-width:0.06"
     id="g17"
     transform="matrix(50,0,0,50,1053.915,501)"
     font-style="italic"
     font-size="0.5px">
    <path
       style="stroke:none"
       inkscape:connector-curvature="0"
       id="path19"
       d="M -0.13,-0.13 0,-0.13 0.13,0 0,0.13 l -0.13,0 z" />
    <path
       style="fill:none;stroke:#000000"
       inkscape:connector-curvature="0"
       id="path21"
       d="M -0.13,-0.13 0,-0.13 0.13,0 0,0.13 l -0.13,0 z" />
  </g>
  <g
     style="font-style:italic;font-size:0.5px;font-family:sans-serif;fill:#0000ff;stroke:#0000ff;stroke-width:0.06"
     id="g23"
     transform="matrix(50,0,0,50,1053.915,501)"
     font-style="italic"
     font-size="0.5px">
    <path
       style="stroke:none"
       inkscape:connector-curvature="0"
       id="path25"
       d="M 0.612,-0.1072 0.5654,0.1323 Q 0.5519,0.2019 0.514,0.2361 0.476,0.2703 0.4118,0.2703 0.3881,0.2703 0.3678,0.2667 0.3476,0.2632 0.33,0.2559 L 0.3383,0.2122 Q 0.3549,0.2229 0.3735,0.228 0.392,0.2332 0.413,0.2332 0.4557,0.2332 0.4832,0.2099 0.5107,0.1865 0.5195,0.1428 L 0.5234,0.1223 Q 0.5046,0.1438 0.4797,0.155 0.4548,0.1663 0.426,0.1663 0.3845,0.1663 0.3606,0.1388 0.3368,0.1113 0.3368,0.0633 q 0,-0.0379 0.0145,-0.0741 0.0144,-0.0363 0.0405,-0.0644 0.0173,-0.0185 0.0404,-0.0285 0.0231,-0.01 0.0482,-0.01 0.0276,0 0.0481,0.0128 0.0205,0.0128 0.0305,0.0362 l 0.0078,-0.0425 0.0452,0 z m -0.0676,0.1004 q 0,-0.0332 -0.0157,-0.0513 -0.0156,-0.0181 -0.0444,-0.0181 -0.0178,0 -0.0339,0.0071 -0.0162,0.0071 -0.0276,0.0198 -0.0186,0.021 -0.029,0.0494 -0.0103,0.0285 -0.0103,0.0588 0,0.0336 0.0157,0.0517 0.0158,0.0181 0.0453,0.0181 0.0427,0 0.0713,-0.0387 0.0286,-0.0387 0.0286,-0.0968 z m 0.3173,-0.0029 -0.1574,0.135 0.1741,0 -0.0086,0.041 -0.2366,0 0.0081,-0.0415 0.1645,-0.1411 q 0.033,-0.0286 0.0468,-0.0502 0.0138,-0.0216 0.0138,-0.0443 0,-0.0237 -0.0166,-0.0386 -0.0166,-0.0149 -0.0435,-0.0149 -0.0232,0 -0.0515,0.0083 -0.0283,0.0083 -0.0605,0.0242 l 0.009,-0.0488 q 0.0303,-0.012 0.0579,-0.0181 0.0275,-0.0061 0.051,-0.0061 0.0478,0 0.077,0.0254 0.0292,0.0254 0.0292,0.0666 0,0.0279 -0.0139,0.0531 -0.0139,0.0253 -0.0428,0.05 z" />
  </g>
  <g
     style="font-style:italic;font-size:0.5px;font-family:sans-serif;fill:#ffffff;stroke:#ffffff;stroke-width:0.06"
     id="g27"
     transform="matrix(-50,0,0,-50,1053.915,201)"
     font-style="italic"
     font-size="0.5px">
    <path
       style="stroke:none"
       inkscape:connector-curvature="0"
       id="path29"
       d="M -0.13,-0.13 0,-0.13 0.13,0 0,0.13 l -0.13,0 z" />
    <path
       style="fill:none;stroke:#000000"
       inkscape:connector-curvature="0"
       id="path31"
       d="M -0.13,-0.13 0,-0.13 0.13,0 0,0.13 l -0.13,0 z" />
  </g>
  <g
     style="font-style:italic;font-size:0.5px;font-family:sans-serif;fill:#ff0000;stroke:#ff0000;stroke-width:0.06"
     id="g33"
     transform="matrix(50,0,0,50,1053.915,201)"
     font-style="italic"
     font-size="0.5px">
    <path
       style="stroke:none"
       inkscape:connector-curvature="0"
       id="path35"
       d="m 0.5751,-0.1275 -0.009,0.0444 Q 0.55,-0.0948 0.5318,-0.1006 0.5136,-0.1065 0.4941,-0.1065 q -0.0215,0 -0.0409,0.0076 -0.0195,0.0075 -0.0326,0.0214 -0.021,0.0213 -0.0325,0.0499 -0.0115,0.0285 -0.0115,0.059 0,0.0369 0.0185,0.055 0.0184,0.018 0.056,0.018 0.0185,0 0.0394,-0.0056 Q 0.5114,0.0932 0.5341,0.082 L 0.5255,0.1264 Q 0.506,0.1345 0.4854,0.1385 0.4648,0.1425 0.443,0.1425 0.3886,0.1425 0.3593,0.1153 0.33,0.0881 0.33,0.0375 q 0,-0.0424 0.0153,-0.0782 0.0152,-0.0358 0.0452,-0.0643 0.0205,-0.0196 0.0481,-0.0296 0.0276,-0.01 0.0603,-0.01 0.0191,0 0.0379,0.0043 0.0188,0.0043 0.0383,0.0128 z m 0.2183,-0.0105 -0.0069,0.0349 -0.0896,0 -0.029,0.1484 q -0.0015,0.0084 -0.0022,0.014 -7e-4,0.0056 -7e-4,0.0087 0,0.0157 0.0094,0.0228 0.0094,0.007 0.0301,0.007 l 0.0454,0 -0.0075,0.0376 -0.043,0 Q 0.6593,0.1354 0.6397,0.1198 0.62,0.1042 0.62,0.0725 q 0,-0.0057 8e-4,-0.0124 7e-4,-0.0067 0.0022,-0.0148 l 0.029,-0.1484 -0.0381,0 0.0071,-0.0349 0.0374,0 0.0151,-0.0776 0.0449,0 -0.0149,0.0776 0.0899,0 z m 0.2075,0.0415 q -0.0068,-0.0037 -0.0156,-0.0056 -0.0088,-0.002 -0.0188,-0.002 -0.0359,0 -0.0628,0.0273 -0.0268,0.0272 -0.0356,0.0728 l -0.0276,0.1394 -0.0449,0 0.0534,-0.2734 0.045,0 -0.0086,0.0425 q 0.0178,-0.0237 0.0426,-0.0364 0.0248,-0.0127 0.0529,-0.0127 0.0073,0 0.0144,9e-4 0.0071,8e-4 0.0141,0.0028 l -0.0085,0.0444 z m 0.0742,-0.148 0.0449,0 -0.0739,0.3799 -0.045,0 0.074,-0.3799 z" />
  </g>
  <g
     style="font-style:italic;font-size:0.5px;font-family:sans-serif;fill:#ffffff;stroke:#ffffff;stroke-width:0.06"
     id="g37"
     transform="matrix(50,0,0,50,166.415,176)"
     font-style="italic"
     font-size="0.5px">
    <rect
       style="stroke:none"
       id="rect39"
       y="-2"
       x="-1.25"
       width="3.75"
       height="3" />
    <rect
       style="fill:none;stroke:#000000"
       id="rect41"
       y="-2"
       x="-1.25"
       width="3.75"
       height="3" />
    <line
       style="fill:none;stroke:#000000;stroke-width:0.04"
       id="line43"
       y2="0"
       y1="0"
       x2="2.5"
       x1="3" />
    <line
       style="fill:none;stroke:#000000;stroke-width:0.04"
       id="line45"
       y2="0"
       y1="0"
       x2="-1.25"
       x1="-1.75" />
    <line
       style="fill:none;stroke:#000000;stroke-width:0.04"
       id="line47"
       y2="-2"
       y1="-2.5"
       x2="0.5"
       x1="0.5" />
    <line
       style="fill:none;stroke:#000000;stroke-width:0.04"
       id="line49"
       y2="1"
       y1="1.5"
       x2="0.5"
       x1="0.5" />
    <path
       style="fill:#0000ff;stroke:none;stroke-width:0.04"
       inkscape:connector-curvature="0"
       id="path51"
       d="M 1.7058,-0.1218 1.6972,-0.0794 Q 1.6794,-0.0891 1.6596,-0.094 1.6398,-0.0989 1.6189,-0.0989 q -0.0355,0 -0.0558,0.0121 -0.0204,0.0121 -0.0204,0.0328 0,0.0242 0.0473,0.0371 0.0037,10e-4 0.0054,0.0015 l 0.0144,0.0044 q 0.0449,0.0125 0.0599,0.0261 0.0151,0.0137 0.0151,0.0374 0,0.0434 -0.0346,0.0708 Q 1.6157,0.1506 1.5598,0.1506 1.538,0.1506 1.5141,0.1465 1.4902,0.1423 1.4614,0.1335 L 1.4702,0.0872 Q 1.4948,0.0999 1.5188,0.1064 1.5427,0.113 1.5647,0.113 1.5976,0.113 1.6182,0.0989 1.6389,0.0847 1.6389,0.063 1.6389,0.0396 1.5847,0.0251 L 1.58,0.0239 1.5647,0.02 Q 1.5305,0.011 1.5146,-0.0038 1.4987,-0.0186 1.4987,-0.0415 q 0,-0.0437 0.0329,-0.0693 0.0328,-0.0257 0.0892,-0.0257 0.0222,0 0.0433,0.0037 0.0212,0.0037 0.0417,0.011 z m 0.279,0.1094 -0.0305,0.156 -0.0449,0 0.0083,-0.0415 Q 1.8979,0.1265 1.8726,0.1385 1.8474,0.1506 1.8164,0.1506 1.7814,0.1506 1.7591,0.1293 1.7368,0.1079 1.7368,0.0745 q 0,-0.0479 0.0382,-0.0757 0.0382,-0.0279 0.1053,-0.0279 l 0.0625,0 0.0025,-0.0119 q 5e-4,-0.002 7e-4,-0.0043 2e-4,-0.0023 2e-4,-0.0072 0,-0.0217 -0.0177,-0.0338 -0.0177,-0.0121 -0.0496,-0.0121 -0.022,0 -0.0451,0.0056 -0.0231,0.0056 -0.0475,0.0169 l 0.0078,-0.0415 q 0.0254,-0.0096 0.0497,-0.0143 0.0243,-0.0048 0.047,-0.0048 0.0484,0 0.0736,0.021 0.0253,0.021 0.0253,0.0611 0,0.008 -0.0012,0.0189 -0.0012,0.0108 -0.0037,0.0231 z m -0.0486,0.0185 -0.0449,0 q -0.0552,0 -0.0817,0.0148 -0.0264,0.0147 -0.0264,0.0457 0,0.0215 0.0135,0.0337 0.0136,0.0123 0.0375,0.0123 0.0366,0 0.064,-0.0263 0.0273,-0.0262 0.0361,-0.0702 l 0.0019,-0.01 z m 0.365,-0.0276 -0.032,0.1651 -0.0451,0 0.032,-0.1634 q 0.0021,-0.0115 0.0034,-0.0202 0.0012,-0.0088 0.0012,-0.014 0,-0.0205 -0.0129,-0.0319 -0.013,-0.0115 -0.0362,-0.0115 -0.0361,0 -0.0622,0.024 -0.0261,0.0241 -0.0342,0.0653 l -0.03,0.1517 -0.045,0 0.053,-0.2735 0.0449,0 -0.009,0.043 q 0.0188,-0.0237 0.0452,-0.0366 0.0263,-0.013 0.0554,-0.013 0.0361,0 0.056,0.0196 0.0199,0.0195 0.0199,0.0549 0,0.0088 -0.0011,0.0188 -0.0011,0.01 -0.0033,0.0217 z" />
    <path
       style="fill:#ff0000;stroke:none;stroke-width:0.04"
       inkscape:connector-curvature="0"
       id="path53"
       d="M -0.8,-0.0234 -0.8085,0.019 Q -0.8264,0.0093 -0.8461,0.0044 -0.8659,-5e-4 -0.8869,-5e-4 q -0.0354,0 -0.0558,0.0121 -0.0204,0.0121 -0.0204,0.0328 0,0.0242 0.0474,0.0371 0.0036,0.001 0.0054,0.0015 l 0.0143,0.0044 q 0.045,0.0125 0.06,0.0261 0.015,0.0137 0.015,0.0374 0,0.0434 -0.0345,0.0708 -0.0346,0.0273 -0.0905,0.0273 -0.0217,0 -0.0456,-0.0041 -0.024,-0.0042 -0.0528,-0.013 l 0.0088,-0.0463 q 0.0247,0.0126 0.0486,0.0192 0.0239,0.0066 0.0459,0.0066 0.0329,0 0.0536,-0.0141 0.0206,-0.0142 0.0206,-0.0359 0,-0.0235 -0.0542,-0.0379 L -0.9257,0.1223 -0.9411,0.1184 Q -0.9753,0.1094 -0.9912,0.0946 -1.007,0.0798 -1.007,0.0569 q 0,-0.0437 0.0328,-0.0694 0.0328,-0.0256 0.0892,-0.0256 0.0223,0 0.0434,0.0037 0.0211,0.0036 0.0416,0.011 z m 0.102,-0.1145 0.045,0 -0.011,0.0568 -0.0449,0 0.0109,-0.0568 z m -0.0205,0.1064 0.045,0 -0.0535,0.2734 -0.0449,0 0.0534,-0.2734 z m 0.366,0 -0.0466,0.2395 q -0.0135,0.0696 -0.0514,0.1038 -0.038,0.0341 -0.1022,0.0341 -0.0237,0 -0.0439,-0.0035 -0.0203,-0.0035 -0.0379,-0.0109 l 0.0083,-0.0436 q 0.0166,0.0107 0.0352,0.0158 0.0185,0.0051 0.0395,0.0051 0.0428,0 0.0702,-0.0233 0.0275,-0.0233 0.0363,-0.067 L -0.4411,0.198 q -0.0188,0.0215 -0.0437,0.0327 -0.0249,0.0112 -0.0537,0.0112 -0.0415,0 -0.0653,-0.0274 -0.0238,-0.0275 -0.0238,-0.0756 0,-0.0378 0.0144,-0.0741 0.0144,-0.0362 0.0405,-0.0643 0.0173,-0.0186 0.0404,-0.0286 0.0231,-0.01 0.0482,-0.01 0.0276,0 0.0481,0.0128 0.0205,0.0129 0.0305,0.0363 l 0.0079,-0.0425 0.0451,0 z m -0.0676,0.1004 q 0,-0.0333 -0.0156,-0.0513 -0.0157,-0.0181 -0.0445,-0.0181 -0.0178,0 -0.0339,0.0071 -0.0161,0.0071 -0.0276,0.0198 -0.0186,0.021 -0.0289,0.0494 -0.0104,0.0284 -0.0104,0.0587 0,0.0337 0.0157,0.0518 0.0158,0.0181 0.0453,0.0181 0.0428,0 0.0713,-0.0387 0.0286,-0.0387 0.0286,-0.0968 z" />
    <path
       style="fill:#ff0000;stroke:none;stroke-width:0.04"
       inkscape:connector-curvature="0"
       id="path55"
       transform="matrix(0,-1,1,0,0,0)"
       d="M 1.278,0.4305 1.269,0.475 Q 1.2529,0.4633 1.2347,0.4574 1.2165,0.4515 1.197,0.4515 1.1755,0.4515 1.1561,0.4591 1.1367,0.4667 1.1235,0.4806 1.1025,0.5018 1.091,0.5304 1.0795,0.559 1.0795,0.5895 q 0,0.0368 0.0185,0.0549 0.0184,0.0181 0.056,0.0181 0.0186,0 0.0394,-0.0056 Q 1.2143,0.6513 1.237,0.64 L 1.2285,0.6845 Q 1.2089,0.6925 1.1883,0.6965 1.1677,0.7006 1.146,0.7006 1.0915,0.7006 1.0622,0.6733 1.0329,0.6461 1.0329,0.5956 1.0329,0.5531 1.0482,0.5173 1.0634,0.4816 1.0935,0.453 1.114,0.4335 1.1416,0.4235 q 0.0276,-0.01 0.0603,-0.01 0.019,0 0.0378,0.0042 Q 1.2585,0.422 1.278,0.4305 Z M 1.4963,0.42 1.4895,0.455 l -0.0896,0 -0.0291,0.1484 q -0.0015,0.0083 -0.0022,0.0139 -7e-4,0.0056 -7e-4,0.0088 0,0.0156 0.0094,0.0227 0.0094,0.0071 0.0301,0.0071 l 0.0454,0 -0.0075,0.0376 -0.043,0 q -0.04,0 -0.0597,-0.0156 Q 1.323,0.6622 1.323,0.6305 q 0,-0.0056 7e-4,-0.0123 7e-4,-0.0067 0.0022,-0.0148 l 0.029,-0.1484 -0.038,0 0.007,-0.035 0.0374,0 0.0151,-0.0776 0.0449,0 -0.0148,0.0776 0.0898,0 z M 1.7038,0.4615 Q 1.697,0.4579 1.6882,0.4559 1.6794,0.454 1.6694,0.454 1.6335,0.454 1.6067,0.4812 1.5798,0.5084 1.571,0.5541 l -0.0276,0.1394 -0.0449,0 L 1.552,0.42 1.5969,0.42 1.5883,0.4625 Q 1.6062,0.4388 1.6309,0.4261 1.6557,0.4135 1.6838,0.4135 q 0.0073,0 0.0144,8e-4 0.0071,9e-4 0.0142,0.0028 L 1.7038,0.4615 Z m 0.0742,-0.1479 0.045,0 -0.074,0.3799 -0.0449,0 0.0739,-0.3799 z" />
    <path
       style="fill:#ff0000;stroke:none;stroke-width:0.04"
       inkscape:connector-curvature="0"
       id="path57"
       transform="matrix(0,-1,1,0,0,0)"
       d="m -0.561,0.3136 -0.0071,0.0374 -0.0429,0 q -0.0245,0 -0.0356,0.0096 -0.0111,0.0096 -0.0164,0.0353 l -0.0049,0.0241 0.074,0 -0.0066,0.035 -0.074,0 -0.0464,0.2385 -0.0452,0 0.0467,-0.2385 -0.043,0 0.0064,-0.035 0.0429,0 0.0037,-0.019 q 0.0093,-0.0483 0.0326,-0.0679 0.0233,-0.0195 0.0733,-0.0195 l 0.0425,0 z m 0.1599,0.1479 Q -0.4079,0.4579 -0.4167,0.4559 -0.4255,0.454 -0.4355,0.454 q -0.0359,0 -0.0627,0.0272 -0.0269,0.0272 -0.0357,0.0729 l -0.0276,0.1394 -0.0449,0 0.0535,-0.2735 0.0449,0 -0.0086,0.0425 q 0.0179,-0.0237 0.0427,-0.0364 0.0247,-0.0126 0.0528,-0.0126 0.0073,0 0.0144,8e-4 0.0071,9e-4 0.0142,0.0028 L -0.4011,0.4615 Z M -0.1503,0.4305 -0.1594,0.475 Q -0.1755,0.4633 -0.1937,0.4574 -0.2119,0.4515 -0.2314,0.4515 q -0.0215,0 -0.0409,0.0076 -0.0194,0.0076 -0.0326,0.0215 -0.021,0.0212 -0.0325,0.0498 -0.0114,0.0286 -0.0114,0.0591 0,0.0368 0.0184,0.0549 0.0184,0.0181 0.056,0.0181 0.0186,0 0.0395,-0.0056 0.0208,-0.0056 0.0435,-0.0169 l -0.0085,0.0445 q -0.0195,0.008 -0.0402,0.012 -0.0206,0.0041 -0.0423,0.0041 -0.0545,0 -0.0838,-0.0273 -0.0293,-0.0272 -0.0293,-0.0777 0,-0.0425 0.0153,-0.0783 0.0153,-0.0357 0.0453,-0.0643 0.0205,-0.0195 0.0481,-0.0295 0.0276,-0.01 0.0603,-0.01 0.019,0 0.0378,0.0042 0.0188,0.0043 0.0384,0.0128 z" />
  </g>
  <g
     style="font-size:0.5px;font-family:sans-serif;stroke-width:0.04"
     id="g59"
     transform="matrix(50,0,0,50,166.415,176)"
     font-size="0.5px">
    <path
       style="stroke:none"
       inkscape:connector-curvature="0"
       id="path61"
       d="m 0.0033,-0.5433 q 0.0159,0.0053 0.0309,0.0229 0.015,0.0176 0.0301,0.0484 l 0.0501,0.0996 -0.053,0 -0.0466,-0.0935 q -0.0181,-0.0367 -0.0351,-0.0486 -0.0169,-0.012 -0.0462,-0.012 l -0.0537,0 0,0.1541 -0.0494,0 0,-0.3645 0.1114,0 q 0.0625,0 0.0932,0.0261 0.0308,0.0261 0.0308,0.0789 0,0.0344 -0.016,0.0571 -0.016,0.0227 -0.0465,0.0315 z m -0.1235,-0.1531 0,0.1294 0.062,0 q 0.0356,0 0.0538,-0.0165 0.0182,-0.0165 0.0182,-0.0484 0,-0.032 -0.0182,-0.0483 -0.0182,-0.0162 -0.0538,-0.0162 l -0.062,0 z m 0.2656,-0.0405 0.0498,0 0.0766,0.3081 0.0765,-0.3081 0.0554,0 0.0766,0.3081 0.0765,-0.3081 0.05,0 -0.0916,0.3645 -0.062,0 -0.0769,-0.3164 -0.0776,0.3164 -0.062,0 -0.0913,-0.3645 z m 0.6487,0.0486 -0.0669,0.1814 0.134,0 -0.0671,-0.1814 z m -0.0279,-0.0486 0.0559,0 0.139,0.3645 -0.0513,0 -0.0332,-0.0935 -0.1643,0 -0.0332,0.0935 -0.052,0 0.1391,-0.3645 z m 0.2481,0 0.0493,0 0,0.3645 -0.0493,0 0,-0.3645 z m 0.0969,0 0.3084,0 0,0.0415 -0.1295,0 0,0.323 -0.0495,0 0,-0.323 -0.1294,0 0,-0.0415 z" />
  </g>
  <g
     style="font-size:0.5px;font-family:sans-serif;fill:#ffffff;stroke:#ffffff;stroke-width:0.04"
     id="g63"
     transform="matrix(50,0,0,50,175.79,401)"
     font-size="0.5px">
    <rect
       style="stroke:none"
       id="rect65"
       y="-1.5"
       x="-1.4375"
       width="3.75"
       height="3" />
    <rect
       style="fill:none;stroke:#000000;stroke-width:0.06"
       id="rect67"
       y="-1.5"
       x="-1.4375"
       width="3.75"
       height="3" />
    <line
       style="fill:none;stroke:#000000"
       id="line69"
       y2="-0.5"
       y1="-0.5"
       x2="2.3125"
       x1="2.8125" />
    <line
       style="fill:none;stroke:#000000"
       id="line71"
       y2="-0.5"
       y1="-0.5"
       x2="-1.4375"
       x1="-1.9375" />
    <line
       style="fill:none;stroke:#000000"
       id="line73"
       y2="1.5"
       y1="2"
       x2="0.3125"
       x1="0.3125" />
    <line
       style="fill:none;stroke:#000000"
       id="line75"
       y2="-1.5"
       y1="-2"
       x2="0.3125"
       x1="0.3125" />
    <path
       style="fill:#0000ff;stroke:none"
       inkscape:connector-curvature="0"
       id="path77"
       d="M 1.5183,-0.6218 1.5097,-0.5794 Q 1.4919,-0.5891 1.4721,-0.594 1.4523,-0.5989 1.4314,-0.5989 q -0.0355,0 -0.0558,0.0121 -0.0204,0.0121 -0.0204,0.0328 0,0.0242 0.0473,0.0371 0.0037,0.001 0.0054,0.0015 l 0.0144,0.0044 q 0.0449,0.0125 0.0599,0.0261 0.0151,0.0137 0.0151,0.0374 0,0.0434 -0.0346,0.0708 -0.0345,0.0273 -0.0904,0.0273 -0.0218,0 -0.0457,-0.0041 -0.0239,-0.0042 -0.0527,-0.013 l 0.0088,-0.0463 q 0.0246,0.0127 0.0486,0.0192 0.0239,0.0066 0.0459,0.0066 0.0329,0 0.0535,-0.0141 0.0207,-0.0142 0.0207,-0.0359 0,-0.0234 -0.0542,-0.0379 L 1.3925,-0.4761 1.3772,-0.48 Q 1.343,-0.489 1.3271,-0.5038 1.3112,-0.5186 1.3112,-0.5415 q 0,-0.0437 0.0329,-0.0693 0.0328,-0.0257 0.0892,-0.0257 0.0222,0 0.0433,0.0037 0.0212,0.0037 0.0417,0.011 z m 0.279,0.1094 -0.0305,0.156 -0.0449,0 0.0083,-0.0415 q -0.0198,0.0244 -0.0451,0.0364 -0.0252,0.0121 -0.0562,0.0121 -0.035,0 -0.0573,-0.0213 -0.0223,-0.0214 -0.0223,-0.0548 0,-0.0479 0.0382,-0.0757 0.0382,-0.0279 0.1053,-0.0279 l 0.0625,0 0.0025,-0.0119 q 5e-4,-0.002 7e-4,-0.0043 2e-4,-0.0023 2e-4,-0.0072 0,-0.0217 -0.0177,-0.0338 -0.0177,-0.0121 -0.0496,-0.0121 -0.022,0 -0.0451,0.0056 -0.0231,0.0056 -0.0475,0.0169 l 0.0078,-0.0415 q 0.0254,-0.0096 0.0497,-0.0143 0.0243,-0.0048 0.047,-0.0048 0.0484,0 0.0736,0.021 0.0253,0.021 0.0253,0.0611 0,0.008 -0.0012,0.0189 -0.0012,0.0108 -0.0037,0.0231 z m -0.0486,0.0185 -0.0449,0 q -0.0552,0 -0.0817,0.0148 -0.0264,0.0147 -0.0264,0.0457 0,0.0215 0.0135,0.0337 0.0136,0.0123 0.0375,0.0123 0.0366,0 0.064,-0.0263 0.0273,-0.0262 0.0361,-0.0702 l 0.0019,-0.01 z m 0.365,-0.0276 -0.032,0.1651 -0.0451,0 0.032,-0.1634 Q 2.0707,-0.5313 2.072,-0.54 q 0.0012,-0.0088 0.0012,-0.014 0,-0.0205 -0.0129,-0.0319 -0.013,-0.0115 -0.0362,-0.0115 -0.0361,0 -0.0622,0.024 -0.0261,0.0241 -0.0342,0.0653 l -0.03,0.1517 -0.045,0 0.053,-0.2735 0.0449,0 -0.009,0.043 q 0.0188,-0.0237 0.0452,-0.0366 0.0263,-0.013 0.0554,-0.013 0.0361,0 0.056,0.0196 0.0199,0.0195 0.0199,0.0549 0,0.0088 -0.0011,0.0188 -0.0011,0.01 -0.0033,0.0217 z" />
    <path
       style="fill:#ff0000;stroke:none"
       inkscape:connector-curvature="0"
       id="path79"
       d="M -0.9875,-0.5234 -0.996,-0.481 q -0.0179,-0.0097 -0.0376,-0.0146 -0.0198,-0.0049 -0.0408,-0.0049 -0.0354,0 -0.0558,0.0121 -0.0204,0.0121 -0.0204,0.0328 0,0.0242 0.0474,0.0371 0.0036,0.001 0.0054,0.0015 l 0.0143,0.0044 q 0.045,0.0125 0.06,0.0261 0.015,0.0137 0.015,0.0374 0,0.0434 -0.0345,0.0708 -0.0346,0.0273 -0.0905,0.0273 -0.0217,0 -0.0456,-0.0041 -0.024,-0.0042 -0.0528,-0.013 l 0.0088,-0.0463 q 0.0247,0.0126 0.0486,0.0192 0.0239,0.0066 0.0459,0.0066 0.0329,0 0.0536,-0.0141 0.0206,-0.0142 0.0206,-0.0359 0,-0.0235 -0.0542,-0.0379 l -0.0046,-0.0012 -0.0154,-0.0039 q -0.0342,-0.009 -0.0501,-0.0238 -0.0158,-0.0148 -0.0158,-0.0377 0,-0.0437 0.0328,-0.0694 0.0328,-0.0256 0.0892,-0.0256 0.0223,0 0.0434,0.0037 0.0211,0.0036 0.0416,0.011 z m 0.102,-0.1145 0.045,0 -0.011,0.0568 -0.0449,0 0.0109,-0.0568 z m -0.0205,0.1064 0.045,0 -0.0535,0.2734 -0.0449,0 0.0534,-0.2734 z m 0.366,0 -0.0466,0.2395 q -0.0135,0.0696 -0.0514,0.1038 -0.038,0.0341 -0.1022,0.0341 -0.0237,0 -0.0439,-0.0035 -0.0203,-0.0035 -0.0379,-0.0109 l 0.0083,-0.0436 q 0.0166,0.0107 0.0352,0.0158 0.0185,0.0051 0.0395,0.0051 0.0428,0 0.0702,-0.0233 0.0275,-0.0233 0.0363,-0.067 l 0.0039,-0.0205 q -0.0188,0.0215 -0.0437,0.0327 -0.0249,0.0112 -0.0537,0.0112 -0.0415,0 -0.0653,-0.0274 -0.0238,-0.0275 -0.0238,-0.0756 0,-0.0378 0.0144,-0.0741 0.0144,-0.0362 0.0405,-0.0643 0.0173,-0.0186 0.0404,-0.0286 0.0231,-0.01 0.0482,-0.01 0.0276,0 0.0481,0.0128 0.0205,0.0129 0.0305,0.0363 l 0.0079,-0.0425 0.0451,0 z m -0.0676,0.1004 q 0,-0.0333 -0.0156,-0.0513 -0.0157,-0.0181 -0.0445,-0.0181 -0.0178,0 -0.0339,0.0071 -0.0161,0.0071 -0.0276,0.0198 -0.0186,0.021 -0.0289,0.0494 -0.0104,0.0284 -0.0104,0.0587 0,0.0337 0.0157,0.0518 0.0158,0.0181 0.0453,0.0181 0.0428,0 0.0713,-0.0387 0.0286,-0.0387 0.0286,-0.0968 z" />
    <path
       style="fill:#ff0000;stroke:none"
       inkscape:connector-curvature="0"
       id="path81"
       transform="matrix(0,-1,1,0,0,0)"
       d="M -1.0319,0.243 -1.041,0.2875 Q -1.0571,0.2758 -1.0753,0.2699 -1.0935,0.264 -1.113,0.264 q -0.0215,0 -0.0409,0.0076 -0.0194,0.0076 -0.0326,0.0215 -0.021,0.0212 -0.0324,0.0498 -0.0115,0.0286 -0.0115,0.0591 0,0.0368 0.0184,0.0549 0.0185,0.0181 0.056,0.0181 0.0186,0 0.0395,-0.0056 0.0208,-0.0056 0.0435,-0.0169 L -1.0815,0.497 q -0.0195,0.008 -0.0402,0.012 -0.0206,0.0041 -0.0423,0.0041 -0.0545,0 -0.0837,-0.0273 -0.0293,-0.0272 -0.0293,-0.0777 0,-0.0425 0.0152,-0.0783 0.0153,-0.0357 0.0453,-0.0643 0.0205,-0.0195 0.0481,-0.0295 0.0276,-0.01 0.0603,-0.01 0.019,0 0.0378,0.0042 0.0188,0.0043 0.0384,0.0128 z m 0.2182,-0.0105 -0.0068,0.035 -0.0896,0 -0.0291,0.1484 q -0.0014,0.0083 -0.0022,0.0139 -7e-4,0.0056 -7e-4,0.0088 0,0.0156 0.0094,0.0227 0.0094,0.0071 0.0302,0.0071 l 0.0454,0 -0.0076,0.0376 -0.043,0 q -0.04,0 -0.0597,-0.0156 Q -0.987,0.4747 -0.987,0.443 q 0,-0.0056 7e-4,-0.0123 7e-4,-0.0067 0.0022,-0.0148 l 0.0291,-0.1484 -0.0381,0 0.0071,-0.035 0.0373,0 0.0151,-0.0776 0.045,0 -0.0149,0.0776 0.0898,0 z M -0.6061,0.274 Q -0.613,0.2704 -0.6218,0.2684 -0.6306,0.2665 -0.6406,0.2665 q -0.0359,0 -0.0627,0.0272 -0.0269,0.0272 -0.0357,0.0729 l -0.0276,0.1394 -0.0449,0 0.0535,-0.2735 0.0449,0 -0.0085,0.0425 Q -0.7038,0.2513 -0.679,0.2386 -0.6542,0.226 -0.6262,0.226 q 0.0074,0 0.0144,8e-4 0.0071,9e-4 0.0142,0.0028 L -0.6061,0.274 Z m 0.0742,-0.1479 0.0449,0 -0.074,0.3799 -0.0449,0 0.074,-0.3799 z" />
    <path
       style="fill:#ff0000;stroke:none"
       inkscape:connector-curvature="0"
       id="path83"
       transform="matrix(0,-1,1,0,0,0)"
       d="m 0.9233,0.1261 -0.0071,0.0374 -0.0429,0 q -0.0245,0 -0.0356,0.0096 -0.0111,0.0096 -0.0164,0.0353 l -0.0049,0.0241 0.0739,0 -0.0065,0.035 -0.074,0 -0.0464,0.2385 -0.0452,0 0.0466,-0.2385 -0.0429,0 0.0063,-0.035 0.043,0 0.0037,-0.019 Q 0.7841,0.1652 0.8075,0.1456 0.8308,0.1261 0.8808,0.1261 l 0.0425,0 z M 1.0832,0.274 Q 1.0764,0.2704 1.0676,0.2684 1.0588,0.2665 1.0488,0.2665 1.0129,0.2665 0.986,0.2937 0.9592,0.3209 0.9504,0.3666 l -0.0276,0.1394 -0.0449,0 0.0535,-0.2735 0.0449,0 L 0.9677,0.275 Q 0.9856,0.2513 1.0103,0.2386 1.0351,0.226 1.0632,0.226 q 0.0073,0 0.0144,8e-4 0.0071,9e-4 0.0142,0.0028 L 1.0832,0.274 Z M 1.3339,0.243 1.3249,0.2875 Q 1.3088,0.2758 1.2906,0.2699 1.2724,0.264 1.2529,0.264 1.2314,0.264 1.212,0.2716 1.1926,0.2792 1.1794,0.2931 1.1584,0.3143 1.1469,0.3429 1.1355,0.3715 1.1355,0.402 q 0,0.0368 0.0184,0.0549 0.0184,0.0181 0.056,0.0181 0.0186,0 0.0394,-0.0056 Q 1.2702,0.4638 1.2929,0.4525 L 1.2844,0.497 Q 1.2648,0.505 1.2442,0.509 1.2236,0.5131 1.2019,0.5131 1.1474,0.5131 1.1181,0.4858 1.0888,0.4586 1.0888,0.4081 1.0888,0.3656 1.1041,0.3298 1.1193,0.2941 1.1494,0.2655 1.1699,0.246 1.1975,0.236 q 0.0276,-0.01 0.0603,-0.01 0.019,0 0.0378,0.0042 0.0188,0.0043 0.0383,0.0128 z" />
  </g>
  <g
     style="font-size:0.5px;font-family:sans-serif;stroke-width:0.04"
     id="g85"
     transform="matrix(50,0,0,50,175.79,401)"
     font-size="0.5px">
    <path
       style="stroke:none"
       inkscape:connector-curvature="0"
       id="path87"
       d="m -0.1842,-0.0433 q 0.0159,0.0053 0.0309,0.0229 0.015,0.0176 0.0301,0.0484 l 0.0501,0.0996 -0.053,0 -0.0466,-0.0935 q -0.0181,-0.0367 -0.0351,-0.0486 -0.0169,-0.012 -0.0462,-0.012 l -0.0537,0 0,0.1541 -0.0494,0 0,-0.3645 0.1114,0 q 0.0625,0 0.0932,0.0261 0.0308,0.0261 0.0308,0.0789 0,0.0344 -0.016,0.0571 -0.016,0.0227 -0.0465,0.0315 z m -0.1235,-0.1531 0,0.1294 0.062,0 q 0.0356,0 0.0538,-0.0165 0.0182,-0.0165 0.0182,-0.0484 0,-0.032 -0.0182,-0.0483 -0.0182,-0.0162 -0.0538,-0.0162 l -0.062,0 z m 0.2656,-0.0405 0.0498,0 0.0766,0.3081 0.0765,-0.3081 0.0554,0 0.0766,0.3081 0.0765,-0.3081 0.05,0 -0.0916,0.3645 -0.062,0 -0.0769,-0.3164 -0.0776,0.3164 -0.062,0 -0.0913,-0.3645 z m 0.6487,0.0486 -0.0669,0.1814 0.134,0 -0.0671,-0.1814 z m -0.0279,-0.0486 0.0559,0 0.139,0.3645 -0.0513,0 -0.0332,-0.0935 -0.1643,0 -0.0332,0.0935 -0.052,0 0.1391,-0.3645 z m 0.2481,0 0.0493,0 0,0.3645 -0.0493,0 0,-0.3645 z m 0.0969,0 0.3084,0 0,0.0415 -0.1295,0 0,0.323 -0.0495,0 0,-0.323 -0.1294,0 0,-0.0415 z" />
  </g>
  <g
     style="font-size:0.5px;font-family:sans-serif;fill:#ffffff;stroke:#ffffff;stroke-width:0.06"
     id="g89"
     transform="matrix(50,0,0,50,66.415,176)"
     font-size="0.5px">
    <path
       style="stroke:none"
       inkscape:connector-curvature="0"
       id="path91"
       d="M -0.13,-0.13 0,-0.13 0.13,0 0,0.13 l -0.13,0 z" />
    <path
       style="fill:none;stroke:#000000"
       inkscape:connector-curvature="0"
       id="path93"
       d="M -0.13,-0.13 0,-0.13 0.13,0 0,0.13 l -0.13,0 z" />
  </g>
  <g
     style="font-style:italic;font-size:0.5px;font-family:sans-serif;fill:#ff0000;stroke:#ff0000;stroke-width:0.06"
     id="g95"
     transform="matrix(50,0,0,50,66.415,176)"
     font-style="italic"
     font-size="0.5px">
    <path
       style="stroke:none"
       inkscape:connector-curvature="0"
       id="path97"
       d="m -1.0392,-0.096 -0.0086,0.0425 q -0.0178,-0.0098 -0.0376,-0.0147 -0.0198,-0.0049 -0.0407,-0.0049 -0.0354,0 -0.0558,0.0121 -0.0204,0.0121 -0.0204,0.0328 0,0.0242 0.0473,0.0372 0.0037,9e-4 0.0054,0.0014 l 0.0144,0.0044 q 0.0449,0.0125 0.0599,0.0261 0.0151,0.0137 0.0151,0.0374 0,0.0435 -0.0346,0.0708 -0.0345,0.0273 -0.0904,0.0273 -0.0218,0 -0.0457,-0.0041 -0.0239,-0.0042 -0.0527,-0.013 L -1.2748,0.113 q 0.0246,0.0127 0.0486,0.0193 0.0239,0.0065 0.0459,0.0065 0.0329,0 0.0535,-0.0141 0.0207,-0.0142 0.0207,-0.0359 0,-0.0234 -0.0542,-0.0378 L -1.165,0.0497 -1.1803,0.0458 Q -1.2145,0.0368 -1.2304,0.022 -1.2463,0.0073 -1.2463,-0.0157 q 0,-0.0437 0.0329,-0.0693 0.0328,-0.0257 0.0892,-0.0257 0.0222,0 0.0433,0.0037 0.0212,0.0037 0.0417,0.011 z m 0.102,-0.1145 0.0449,0 -0.011,0.0569 -0.0449,0 0.011,-0.0569 z m -0.0205,0.1064 0.0449,0 -0.0534,0.2735 -0.045,0 0.0535,-0.2735 z m 0.366,0 -0.0467,0.2395 q -0.0134,0.0696 -0.0514,0.1038 -0.0379,0.0342 -0.1021,0.0342 -0.0237,0 -0.044,-0.0036 Q -0.8561,0.2663 -0.8737,0.259 l 0.0083,-0.0437 q 0.0166,0.0107 0.0351,0.0158 0.0186,0.0052 0.0396,0.0052 0.0427,0 0.0702,-0.0234 0.0275,-0.0233 0.0362,-0.067 l 0.0039,-0.0205 q -0.0187,0.0215 -0.0436,0.0327 -0.0249,0.0113 -0.0538,0.0113 -0.0415,0 -0.0653,-0.0275 -0.0238,-0.0275 -0.0238,-0.0756 0,-0.0378 0.0144,-0.0741 0.0144,-0.0362 0.0406,-0.0643 0.0173,-0.0186 0.0404,-0.0286 0.023,-0.01 0.0482,-0.01 0.0276,0 0.0481,0.0129 0.0205,0.0128 0.0305,0.0362 l 0.0078,-0.0425 0.0452,0 z m -0.0677,0.1004 q 0,-0.0332 -0.0156,-0.0513 -0.0156,-0.0181 -0.0444,-0.0181 -0.0178,0 -0.0339,0.0071 -0.0162,0.0071 -0.0276,0.0198 -0.0186,0.021 -0.029,0.0494 -0.0103,0.0285 -0.0103,0.0587 0,0.0337 0.0157,0.0518 0.0158,0.0181 0.0453,0.0181 0.0427,0 0.0713,-0.0387 0.0285,-0.0387 0.0285,-0.0968 z m 0.1194,0.1316 0.0806,0 0.0544,-0.2806 -0.091,0.0176 0.0085,-0.0425 0.0906,-0.0175 0.0496,0 -0.063,0.323 0.0803,0 -0.0078,0.0415 -0.2102,0 0.008,-0.0415 z" />
  </g>
  <g
     style="font-style:italic;font-size:0.5px;font-family:sans-serif;fill:#ffffff;stroke:#ffffff;stroke-width:0.06"
     id="g99"
     transform="matrix(50,0,0,50,66.415,376)"
     font-style="italic"
     font-size="0.5px">
    <path
       style="stroke:none"
       inkscape:connector-curvature="0"
       id="path101"
       d="M -0.13,-0.13 0,-0.13 0.13,0 0,0.13 l -0.13,0 z" />
    <path
       style="fill:none;stroke:#000000"
       inkscape:connector-curvature="0"
       id="path103"
       d="M -0.13,-0.13 0,-0.13 0.13,0 0,0.13 l -0.13,0 z" />
  </g>
  <g
     style="font-style:italic;font-size:0.5px;font-family:sans-serif;fill:#ff0000;stroke:#ff0000;stroke-width:0.06"
     id="g105"
     transform="matrix(50,0,0,50,66.415,376)"
     font-style="italic"
     font-size="0.5px">
    <path
       style="stroke:none"
       inkscape:connector-curvature="0"
       id="path107"
       d="m -1.0839,-0.096 -0.0086,0.0425 q -0.0178,-0.0098 -0.0375,-0.0147 -0.0198,-0.0049 -0.0408,-0.0049 -0.0354,0 -0.0558,0.0121 -0.0204,0.0121 -0.0204,0.0328 0,0.0242 0.0474,0.0372 0.0036,9e-4 0.0054,0.0014 l 0.0143,0.0044 q 0.045,0.0125 0.06,0.0261 0.015,0.0137 0.015,0.0374 0,0.0435 -0.0346,0.0708 -0.0345,0.0273 -0.0904,0.0273 -0.0217,0 -0.0457,-0.0041 -0.0239,-0.0042 -0.0527,-0.013 L -1.3195,0.113 q 0.0247,0.0127 0.0486,0.0193 0.0239,0.0065 0.0459,0.0065 0.0329,0 0.0536,-0.0141 0.0206,-0.0142 0.0206,-0.0359 0,-0.0234 -0.0542,-0.0378 L -1.2096,0.0497 -1.225,0.0458 Q -1.2592,0.0368 -1.2751,0.022 -1.2909,0.0073 -1.2909,-0.0157 q 0,-0.0437 0.0328,-0.0693 0.0328,-0.0257 0.0892,-0.0257 0.0222,0 0.0434,0.0037 0.0211,0.0037 0.0416,0.011 z m 0.102,-0.1145 0.045,0 -0.011,0.0569 -0.0449,0 0.0109,-0.0569 z m -0.0205,0.1064 0.045,0 -0.0535,0.2735 -0.0449,0 0.0534,-0.2735 z m 0.366,0 -0.0466,0.2395 q -0.0135,0.0696 -0.0514,0.1038 -0.038,0.0342 -0.1022,0.0342 -0.0237,0 -0.0439,-0.0036 Q -0.9008,0.2663 -0.9184,0.259 l 0.0083,-0.0437 q 0.0166,0.0107 0.0352,0.0158 0.0185,0.0052 0.0395,0.0052 0.0428,0 0.0702,-0.0234 0.0275,-0.0233 0.0363,-0.067 L -0.725,0.1254 q -0.0188,0.0215 -0.0437,0.0327 -0.0249,0.0113 -0.0537,0.0113 -0.0415,0 -0.0653,-0.0275 -0.0238,-0.0275 -0.0238,-0.0756 0,-0.0378 0.0144,-0.0741 0.0144,-0.0362 0.0405,-0.0643 0.0173,-0.0186 0.0404,-0.0286 0.0231,-0.01 0.0482,-0.01 0.0276,0 0.0481,0.0129 0.0205,0.0128 0.0305,0.0362 l 0.0078,-0.0425 0.0452,0 z m -0.0676,0.1004 q 0,-0.0332 -0.0156,-0.0513 -0.0157,-0.0181 -0.0445,-0.0181 -0.0178,0 -0.0339,0.0071 -0.0161,0.0071 -0.0276,0.0198 -0.0186,0.021 -0.0289,0.0494 -0.0104,0.0285 -0.0104,0.0587 0,0.0337 0.0157,0.0518 0.0158,0.0181 0.0453,0.0181 0.0428,0 0.0713,-0.0387 0.0286,-0.0387 0.0286,-0.0968 z m 0.3174,-0.003 -0.1575,0.135 0.1741,0 -0.0086,0.0411 -0.2366,0 0.0081,-0.0415 0.1646,-0.1412 q 0.0329,-0.0285 0.0467,-0.0501 0.0138,-0.0216 0.0138,-0.0443 0,-0.0237 -0.0166,-0.0386 -0.0166,-0.0149 -0.0435,-0.0149 -0.0231,0 -0.0515,0.0083 -0.0283,0.0083 -0.0605,0.0242 l 0.009,-0.0489 q 0.0303,-0.0119 0.0579,-0.018 0.0276,-0.0061 0.051,-0.0061 0.0479,0 0.077,0.0254 0.0292,0.0253 0.0292,0.0666 0,0.0278 -0.0139,0.0531 -0.0139,0.0253 -0.0427,0.0499 z" />
  </g>
  <g
     style="font-style:italic;font-size:0.5px;font-family:sans-serif;fill:#ffffff;stroke:#ffffff;stroke-width:0.06"
     id="g109"
     transform="matrix(50,0,0,50,428.915,288.5)"
     font-style="italic"
     font-size="0.5px">
    <rect
       style="stroke:none"
       id="rect111"
       y="-2.75"
       x="-1.25"
       width="2.25"
       height="5" />
    <rect
       style="fill:none;stroke:#000000"
       id="rect113"
       y="-2.75"
       x="-1.25"
       width="2.25"
       height="5" />
    <line
       style="fill:none;stroke:#000000;stroke-width:0.04"
       id="line115"
       y2="-2.25"
       y1="-2.25"
       x2="1"
       x1="1.5" />
    <line
       style="fill:none;stroke:#000000;stroke-width:0.04"
       id="line117"
       y2="1.75"
       y1="1.75"
       x2="1"
       x1="1.5" />
    <line
       style="fill:none;stroke:#000000;stroke-width:0.04"
       id="line119"
       y2="-2.25"
       y1="-2.25"
       x2="-1.25"
       x1="-1.75" />
    <line
       style="fill:none;stroke:#000000;stroke-width:0.04"
       id="line121"
       y2="1.75"
       y1="1.75"
       x2="-1.25"
       x1="-1.75" />
    <path
       style="fill:#0000ff;stroke:none;stroke-width:0.04"
       inkscape:connector-curvature="0"
       id="path123"
       d="m 0.5544,-2.2892 -0.0466,0.2395 q -0.0135,0.0696 -0.0514,0.1038 -0.038,0.0342 -0.1022,0.0342 -0.0237,0 -0.044,-0.0036 Q 0.29,-1.9188 0.2724,-1.9262 l 0.0083,-0.0436 q 0.0166,0.0107 0.0352,0.0158 0.0185,0.0051 0.0395,0.0051 0.0427,0 0.0702,-0.0233 0.0275,-0.0233 0.0363,-0.067 l 0.0039,-0.0205 q -0.0188,0.0215 -0.0437,0.0327 -0.0249,0.0113 -0.0537,0.0113 -0.0415,0 -0.0654,-0.0275 -0.0238,-0.0275 -0.0238,-0.0756 0,-0.0378 0.0144,-0.0741 0.0145,-0.0362 0.0406,-0.0643 0.0173,-0.0186 0.0404,-0.0286 0.023,-0.01 0.0482,-0.01 0.0276,0 0.0481,0.0128 0.0205,0.0129 0.0305,0.0363 l 0.0078,-0.0425 0.0452,0 z m -0.0676,0.1004 q 0,-0.0332 -0.0157,-0.0513 -0.0156,-0.0181 -0.0444,-0.0181 -0.0178,0 -0.0339,0.0071 -0.0162,0.0071 -0.0276,0.0198 -0.0186,0.021 -0.029,0.0494 -0.0103,0.0284 -0.0103,0.0587 0,0.0337 0.0157,0.0518 0.0158,0.0181 0.0453,0.0181 0.0427,0 0.0713,-0.0387 0.0286,-0.0387 0.0286,-0.0968 z m 0.1193,0.1315 0.0806,0 0.0545,-0.2805 -0.0911,0.0176 0.0085,-0.0425 0.0906,-0.0175 0.0496,0 -0.063,0.3229 0.0803,0 -0.0078,0.0416 -0.2102,0 0.008,-0.0416 z" />
    <path
       style="fill:#0000ff;stroke:none;stroke-width:0.04"
       inkscape:connector-curvature="0"
       id="path125"
       d="M 0.5097,1.7141 0.4631,1.9536 Q 0.4496,2.0232 0.4117,2.0574 0.3737,2.0915 0.3095,2.0915 0.2858,2.0915 0.2656,2.088 0.2453,2.0845 0.2277,2.0771 L 0.236,2.0335 q 0.0166,0.0107 0.0352,0.0158 0.0185,0.0051 0.0395,0.0051 0.0428,0 0.0702,-0.0233 0.0275,-0.0233 0.0363,-0.067 L 0.4211,1.9436 Q 0.4023,1.9651 0.3774,1.9763 0.3525,1.9875 0.3237,1.9875 0.2822,1.9875 0.2584,1.9601 0.2346,1.9326 0.2346,1.8845 0.2346,1.8467 0.249,1.8104 0.2634,1.7742 0.2895,1.7461 0.3068,1.7275 0.3299,1.7175 q 0.0231,-0.01 0.0482,-0.01 0.0276,0 0.0481,0.0128 0.0205,0.0129 0.0305,0.0363 l 0.0079,-0.0425 0.0451,0 z M 0.4421,1.8145 Q 0.4421,1.7812 0.4265,1.7632 0.4108,1.7451 0.382,1.7451 0.3642,1.7451 0.3481,1.7522 0.332,1.7593 0.3205,1.772 0.3019,1.793 0.2916,1.8214 0.2812,1.8498 0.2812,1.8801 q 0,0.0337 0.0157,0.0518 Q 0.3127,1.95 0.3422,1.95 0.385,1.95 0.4135,1.9113 0.4421,1.8726 0.4421,1.8145 Z m 0.3174,-0.003 -0.1575,0.135 0.1741,0 -0.0086,0.041 -0.2365,0 L 0.539,1.946 0.7036,1.8049 Q 0.7365,1.7764 0.7503,1.7548 0.7641,1.7332 0.7641,1.7105 0.7641,1.6868 0.7475,1.6719 0.7309,1.657 0.704,1.657 0.6809,1.657 0.6525,1.6653 0.6242,1.6736 0.592,1.6895 L 0.601,1.6406 q 0.0303,-0.0119 0.0579,-0.018 0.0276,-0.0061 0.051,-0.0061 0.0479,0 0.077,0.0253 0.0292,0.0254 0.0292,0.0667 0,0.0278 -0.0139,0.0531 -0.0139,0.0253 -0.0427,0.0499 z" />
    <path
       style="fill:#ff0000;stroke:none;stroke-width:0.04"
       inkscape:connector-curvature="0"
       id="path127"
       d="m -0.8271,-2.2997 q -0.0068,-0.0036 -0.0156,-0.0056 -0.0088,-0.002 -0.0188,-0.002 -0.0359,0 -0.0628,0.0273 -0.0268,0.0272 -0.0356,0.0728 l -0.0276,0.1395 -0.0449,0 0.0534,-0.2735 0.045,0 -0.0086,0.0425 q 0.0179,-0.0237 0.0426,-0.0364 0.0248,-0.0127 0.0529,-0.0127 0.0073,0 0.0144,9e-4 0.0071,8e-4 0.0142,0.0028 l -0.0086,0.0444 z m 0.0151,0.1904 0.0806,0 0.0545,-0.2805 -0.0911,0.0176 0.0085,-0.0425 0.0906,-0.0176 0.0496,0 -0.063,0.323 0.0803,0 -0.0078,0.0416 -0.2102,0 0.008,-0.0416 z" />
    <path
       style="fill:#ff0000;stroke:none;stroke-width:0.04"
       inkscape:connector-curvature="0"
       id="path129"
       d="M -0.8271,1.7036 Q -0.8339,1.7 -0.8427,1.698 -0.8515,1.696 -0.8615,1.696 q -0.0359,0 -0.0628,0.0273 -0.0268,0.0272 -0.0356,0.0728 l -0.0276,0.1394 -0.0449,0 0.0534,-0.2734 0.045,0 -0.0086,0.0425 Q -0.9247,1.6809 -0.9,1.6682 q 0.0248,-0.0127 0.0529,-0.0127 0.0073,0 0.0144,9e-4 0.0071,8e-4 0.0142,0.0028 l -0.0086,0.0444 z m 0.2131,0.0559 -0.1574,0.135 0.174,0 -0.0085,0.041 -0.2366,0 0.0081,-0.0415 0.1645,-0.1411 q 0.033,-0.0285 0.0468,-0.0501 0.0138,-0.0216 0.0138,-0.0443 0,-0.0237 -0.0166,-0.0386 -0.0166,-0.0149 -0.0435,-0.0149 -0.0232,0 -0.0515,0.0083 -0.0283,0.0083 -0.0605,0.0242 l 0.009,-0.0489 q 0.0303,-0.0119 0.0578,-0.018 0.0276,-0.0061 0.0511,-0.0061 0.0478,0 0.077,0.0253 0.0292,0.0254 0.0292,0.0667 0,0.0278 -0.0139,0.0531 -0.014,0.0253 -0.0428,0.0499 z" />
  </g>
  <g
     style="font-size:0.5px;font-family:sans-serif;stroke-width:0.04"
     id="g131"
     transform="matrix(50,0,0,50,428.915,288.5)"
     font-size="0.5px">
    <path
       style="stroke:none"
       inkscape:connector-curvature="0"
       id="path133"
       d="m -0.4581,-0.4869 0.0735,0 0.093,0.248 0.0935,-0.248 0.0735,0 0,0.3645 -0.0481,0 0,-0.3201 -0.094,0.25 -0.0496,0 -0.094,-0.25 0,0.3201 -0.0478,0 0,-0.3645 z m 0.4314,0 0.2304,0 0,0.0415 -0.1811,0 0,0.1079 0.1736,0 0,0.0415 -0.1736,0 0,0.1321 0.1855,0 0,0.0415 -0.2348,0 0,-0.3645 z" />
    <circle
       style="stroke:none"
       id="circle135"
       transform="translate(1.5,-2.25)"
       r="0.125"
       cy="0"
       cx="0" />
  </g>
  <g
     style="font-size:0.5px;font-family:sans-serif;stroke-width:0.04"
     id="g137"
     transform="matrix(50,0,0,50,503.915,376)"
     font-size="0.5px">
    <circle
       style="stroke:none"
       id="circle139"
       r="0.125"
       cy="0"
       cx="0" />
  </g>
  <g
     style="font-size:0.5px;font-family:sans-serif;fill:#ffffff;stroke:#ffffff;stroke-width:0.06"
     id="g141"
     transform="matrix(50,0,0,50,771.415,126)"
     font-size="0.5px">
    <path
       style="stroke:none"
       inkscape:connector-curvature="0"
       id="path143"
       d="m -0.5,-0.5 0,1 1,-0.5 z" />
    <path
       style="fill:none;stroke:#000000"
       inkscape:connector-curvature="0"
       id="path145"
       d="m -0.5,-0.5 0,1 1,-0.5 z" />
    <circle
       style="stroke:none"
       id="circle147"
       transform="translate(0.65,0)"
       r="0.15000001"
       cy="0"
       cx="0" />
    <circle
       style="fill:none;stroke:#000000"
       id="circle149"
       transform="translate(0.65,0)"
       r="0.15000001"
       cy="0"
       cx="0" />
  </g>
  <g
     style="font-size:0.5px;font-family:sans-serif;stroke-width:0.06;stroke-linecap:butt;stroke-miterlimit:1;stroke-dasharray:0.1, 0.1"
     id="g151"
     transform="matrix(50,0,0,50,778.915,126)"
     stroke-miterlimit="1"
     font-size="0.5px">
    <line
       style="fill:none"
       id="line153"
       y2="0"
       y1="0"
       x2="0.64999998"
       x1="-0.64999998" />
  </g>
  <g
     style="font-size:0.5px;font-family:sans-serif;stroke-width:0.04"
     id="g155"
     transform="matrix(50,0,0,50,778.915,126)"
     font-size="0.5px">
    <line
       style="fill:none"
       id="line157"
       y2="0"
       y1="0"
       x2="1"
       x1="0.64999998" />
    <line
       style="fill:none"
       id="line159"
       y2="0"
       y1="0"
       x2="-1"
       x1="-0.64999998" />
  </g>
  <g
     style="font-size:0.5px;font-family:sans-serif;fill:#ffffff;stroke:#ffffff;stroke-width:0.06"
     id="g161"
     transform="matrix(50,0,0,50,898.445,438.5)"
     font-size="0.5px">
    <path
       style="stroke:none"
       inkscape:connector-curvature="0"
       id="path163"
       d="m -0.5,-0.5 c 0.5,0 0.85,0.25 1,0.5 -0.15,0.25 -0.5,0.5 -1,0.5 q 0.3333,-0.5 0,-1 z" />
    <path
       style="fill:none;stroke:#000000"
       inkscape:connector-curvature="0"
       id="path165"
       d="m -0.5,-0.5 c 0.5,0 0.85,0.25 1,0.5 -0.15,0.25 -0.5,0.5 -1,0.5 q 0.3333,-0.5 0,-1 z" />
    <path
       style="stroke:none"
       inkscape:connector-curvature="0"
       id="path167"
       transform="translate(0.4594,-0.25)"
       d="m 0.0406,-0.75 0.375,0 c 1.125,0 1.125,1.5 0,1.5 l -0.375,0 z" />
    <path
       style="fill:none;stroke:#000000"
       inkscape:connector-curvature="0"
       id="path169"
       transform="translate(0.4594,-0.25)"
       d="m 0.0406,-0.75 0.375,0 c 1.125,0 1.125,1.5 0,1.5 l -0.375,0 z" />
    <circle
       style="stroke:none"
       id="circle171"
       transform="translate(1.7188,-0.25)"
       r="0.15000001"
       cy="0"
       cx="0" />
    <circle
       style="fill:none;stroke:#000000"
       id="circle173"
       transform="translate(1.7188,-0.25)"
       r="0.15000001"
       cy="0"
       cx="0" />
    <line
       style="fill:none;stroke:#000000;stroke-width:0.04"
       id="line175"
       y2="0"
       y1="0"
       x2="1.5"
       x1="1.2594"
       transform="translate(0.6094,-0.25)" />
    <line
       style="fill:none;stroke:#000000;stroke-width:0.04"
       id="line177"
       y2="0"
       y1="0"
       x2="-1.5"
       x1="-0.98439997"
       transform="translate(0.6094,-0.25)" />
    <line
       style="fill:none;stroke:#000000;stroke-width:0.04"
       id="line179"
       y2="0.5"
       y1="0.5"
       x2="-1.5"
       x1="-0.98439997"
       transform="translate(0.6094,-0.25)" />
    <line
       style="fill:none;stroke:#000000;stroke-width:0.04"
       id="line181"
       y2="-0.5"
       y1="-0.5"
       x2="-1.5"
       x1="-0.1094"
       transform="translate(0.6094,-0.25)" />
  </g>
  <g
     style="font-size:0.5px;font-family:sans-serif;stroke-width:0.04"
     id="g183"
     transform="matrix(50,0,0,50,528.915,351)"
     font-size="0.5px">
    <circle
       style="stroke:none"
       id="circle185"
       r="0.125"
       cy="0"
       cx="0" />
  </g>
  <g
     style="font-size:0.5px;font-family:sans-serif;stroke-width:0.04"
     id="g187"
     transform="matrix(50,0,0,50,853.915,51)"
     font-size="0.5px">
    <circle
       style="stroke:none"
       id="circle189"
       r="0.125"
       cy="0"
       cx="0" />
  </g>
  <g
     style="font-size:0.5px;font-family:sans-serif;fill:#ffffff;stroke:#ffffff;stroke-width:0.06"
     id="g191"
     transform="matrix(50,0,0,50,898.445,113.5)"
     font-size="0.5px">
    <path
       style="stroke:none"
       inkscape:connector-curvature="0"
       id="path193"
       d="m -0.5,-0.5 c 0.5,0 0.85,0.25 1,0.5 -0.15,0.25 -0.5,0.5 -1,0.5 q 0.3333,-0.5 0,-1 z" />
    <path
       style="fill:none;stroke:#000000"
       inkscape:connector-curvature="0"
       id="path195"
       d="m -0.5,-0.5 c 0.5,0 0.85,0.25 1,0.5 -0.15,0.25 -0.5,0.5 -1,0.5 q 0.3333,-0.5 0,-1 z" />
    <path
       style="stroke:none"
       inkscape:connector-curvature="0"
       id="path197"
       transform="translate(0.4594,0.25)"
       d="m 0.0406,-0.75 0.375,0 c 1.125,0 1.125,1.5 0,1.5 l -0.375,0 z" />
    <path
       style="fill:none;stroke:#000000"
       inkscape:connector-curvature="0"
       id="path199"
       transform="translate(0.4594,0.25)"
       d="m 0.0406,-0.75 0.375,0 c 1.125,0 1.125,1.5 0,1.5 l -0.375,0 z" />
    <circle
       style="stroke:none"
       id="circle201"
       transform="translate(1.7188,0.25)"
       r="0.15000001"
       cy="0"
       cx="0" />
    <circle
       style="fill:none;stroke:#000000"
       id="circle203"
       transform="translate(1.7188,0.25)"
       r="0.15000001"
       cy="0"
       cx="0" />
    <line
       style="fill:none;stroke:#000000;stroke-width:0.04"
       id="line205"
       y2="0"
       y1="0"
       x2="1.5"
       x1="1.2594"
       transform="translate(0.6094,0.25)" />
    <line
       style="fill:none;stroke:#000000;stroke-width:0.04"
       id="line207"
       y2="0"
       y1="0"
       x2="-1.5"
       x1="-0.98439997"
       transform="translate(0.6094,0.25)" />
    <line
       style="fill:none;stroke:#000000;stroke-width:0.04"
       id="line209"
       y2="-0.5"
       y1="-0.5"
       x2="-1.5"
       x1="-0.98439997"
       transform="translate(0.6094,0.25)" />
    <line
       style="fill:none;stroke:#000000;stroke-width:0.04"
       id="line211"
       y2="0.5"
       y1="0.5"
       x2="-1.5"
       x1="-0.1094"
       transform="translate(0.6094,0.25)" />
  </g>
  <g
     style="font-size:0.5px;font-family:sans-serif;stroke-width:0.04"
     id="g213"
     transform="matrix(50,0,0,50,603.915,426)"
     font-size="0.5px">
    <circle
       style="stroke:none"
       id="circle215"
       r="0.125"
       cy="0"
       cx="0" />
  </g>
  <g
     style="font-size:0.5px;font-family:sans-serif;stroke-width:0.04"
     id="g217"
     transform="matrix(50,0,0,50,853.915,501)"
     font-size="0.5px">
    <circle
       style="stroke:none"
       id="circle219"
       r="0.125"
       cy="0"
       cx="0" />
  </g>
  <g
     style="font-size:0.5px;font-family:sans-serif;fill:#ffffff;stroke:#ffffff;stroke-width:0.06"
     id="g221"
     transform="matrix(50,0,0,50,696.415,251)"
     font-size="0.5px">
    <path
       style="stroke:none"
       inkscape:connector-curvature="0"
       id="path223"
       d="m -0.2562,-0.5 0.2499,0 c 0.75,0 0.75,1 0,1 l -0.2499,0 z" />
    <path
       style="fill:none;stroke:#000000"
       inkscape:connector-curvature="0"
       id="path225"
       d="m -0.2562,-0.5 0.2499,0 c 0.75,0 0.75,1 0,1 l -0.2499,0 z" />
    <circle
       style="stroke:none"
       id="circle227"
       transform="translate(0.5563,0)"
       r="0.15000001"
       cy="0"
       cx="0" />
    <circle
       style="fill:none;stroke:#000000"
       id="circle229"
       transform="translate(0.5563,0)"
       r="0.15000001"
       cy="0"
       cx="0" />
    <line
       style="fill:none;stroke:#000000;stroke-width:0.04"
       id="line231"
       y2="0"
       y1="0"
       x2="1"
       x1="0.55629998"
       transform="translate(0.15,0)" />
    <line
       style="fill:none;stroke:#000000;stroke-width:0.04"
       id="line233"
       y2="-0.25"
       y1="-0.25"
       x2="-1"
       x1="-0.40619999"
       transform="translate(0.15,0)" />
    <line
       style="fill:none;stroke:#000000;stroke-width:0.04"
       id="line235"
       y2="0.25"
       y1="0.25"
       x2="-1"
       x1="-0.40619999"
       transform="translate(0.15,0)" />
  </g>
  <g
     style="font-size:0.5px;font-family:sans-serif;fill:#ffffff;stroke:#ffffff;stroke-width:0.06"
     id="g237"
     transform="matrix(50,0,0,50,671.415,351)"
     font-size="0.5px">
    <path
       style="stroke:none"
       inkscape:connector-curvature="0"
       id="path239"
       d="m -0.45,-0.75 c 0.75,0 1.275,0.375 1.5,0.75 -0.225,0.375 -0.75,0.75 -1.5,0.75 q 0.5,-0.75 0,-1.5 z" />
    <path
       style="fill:none;stroke:#000000"
       inkscape:connector-curvature="0"
       id="path241"
       d="m -0.45,-0.75 c 0.75,0 1.275,0.375 1.5,0.75 -0.225,0.375 -0.75,0.75 -1.5,0.75 q 0.5,-0.75 0,-1.5 z" />
    <circle
       style="stroke:none"
       id="circle243"
       transform="translate(-0.35,0)"
       r="0.15000001"
       cy="0"
       cx="0" />
    <circle
       style="fill:none;stroke:#000000"
       id="circle245"
       transform="translate(-0.35,0)"
       r="0.15000001"
       cy="0"
       cx="0" />
    <circle
       style="stroke:none"
       id="circle247"
       transform="translate(1.05,0)"
       r="0.15000001"
       cy="0"
       cx="0" />
    <circle
       style="fill:none;stroke:#000000"
       id="circle249"
       transform="translate(1.05,0)"
       r="0.15000001"
       cy="0"
       cx="0" />
    <line
       style="fill:none;stroke:#000000;stroke-width:0.04"
       id="line251"
       y2="0"
       y1="0"
       x2="1.5"
       x1="1.05"
       transform="translate(0.15,0)" />
    <line
       style="fill:none;stroke:#000000;stroke-width:0.04"
       id="line253"
       y2="0"
       y1="0"
       x2="-1"
       x1="-0.64999998"
       transform="translate(0.15,0)" />
    <line
       style="fill:none;stroke:#000000;stroke-width:0.04"
       id="line255"
       y2="-0.5"
       y1="-0.5"
       x2="-1"
       x1="-0.46110001"
       transform="translate(0.15,0)" />
    <line
       style="fill:none;stroke:#000000;stroke-width:0.04"
       id="line257"
       y2="0.5"
       y1="0.5"
       x2="-1"
       x1="-0.46110001"
       transform="translate(0.15,0)" />
  </g>
  <g
     style="font-size:0.5px;font-family:sans-serif;fill:#ffffff;stroke:#ffffff;stroke-width:0.06"
     id="g259"
     transform="matrix(50,0,0,50,771.415,426)"
     font-size="0.5px">
    <path
       style="stroke:none"
       inkscape:connector-curvature="0"
       id="path261"
       d="m -0.5,-0.5 0,1 1,-0.5 z" />
    <path
       style="fill:none;stroke:#000000"
       inkscape:connector-curvature="0"
       id="path263"
       d="m -0.5,-0.5 0,1 1,-0.5 z" />
    <circle
       style="stroke:none"
       id="circle265"
       transform="translate(0.65,0)"
       r="0.15000001"
       cy="0"
       cx="0" />
    <circle
       style="fill:none;stroke:#000000"
       id="circle267"
       transform="translate(0.65,0)"
       r="0.15000001"
       cy="0"
       cx="0" />
  </g>
  <g
     style="font-size:0.5px;font-family:sans-serif;stroke-width:0.06;stroke-linecap:butt;stroke-miterlimit:1;stroke-dasharray:0.1, 0.1"
     id="g269"
     transform="matrix(50,0,0,50,778.915,426)"
     stroke-miterlimit="1"
     font-size="0.5px">
    <line
       style="fill:none"
       id="line271"
       y2="0"
       y1="0"
       x2="0.64999998"
       x1="-0.64999998" />
  </g>
  <g
     style="font-size:0.5px;font-family:sans-serif;stroke-width:0.04"
     id="g273"
     transform="matrix(50,0,0,50,778.915,426)"
     font-size="0.5px">
    <line
       style="fill:none"
       id="line275"
       y2="0"
       y1="0"
       x2="1"
       x1="0.64999998" />
    <line
       style="fill:none"
       id="line277"
       y2="0"
       y1="0"
       x2="-1"
       x1="-0.64999998" />
  </g>
  <g
     style="font-size:0.5px;font-family:sans-serif;fill:#ffffff;stroke:#ffffff;stroke-width:0.06"
     id="g279"
     transform="matrix(50,0,0,50,578.915,51)"
     font-size="0.5px">
    <path
       style="stroke:none"
       inkscape:connector-curvature="0"
       id="path281"
       d="m -0.4062,-0.5 0.25,0 c 0.75,0 0.75,1 0,1 l -0.25,0 z" />
    <path
       style="fill:none;stroke:#000000"
       inkscape:connector-curvature="0"
       id="path283"
       d="m -0.4062,-0.5 0.25,0 c 0.75,0 0.75,1 0,1 l -0.25,0 z" />
  </g>
  <g
     style="font-size:0.5px;font-family:sans-serif;stroke-width:0.04"
     id="g285"
     transform="matrix(50,0,0,50,578.915,51)"
     font-size="0.5px">
    <line
       style="fill:none"
       id="line287"
       y2="0"
       y1="0"
       x2="1"
       x1="0.40619999" />
    <line
       style="fill:none"
       id="line289"
       y2="-0.25"
       y1="-0.25"
       x2="-1"
       x1="-0.40619999" />
    <line
       style="fill:none"
       id="line291"
       y2="0.25"
       y1="0.25"
       x2="-1"
       x1="-0.40619999" />
    <path
       style="fill:none"
       inkscape:connector-curvature="0"
       id="path293"
       d="m 0.075,-0.1299 a 0.15,0.15 0 1 0 0,0.2598" />
    <circle
       style="stroke:none"
       id="circle295"
       transform="translate(1,0)"
       r="0.125"
       cy="0"
       cx="0" />
  </g>
  <g
     style="font-size:0.5px;font-family:sans-serif;stroke-width:0.04"
     id="g297"
     transform="matrix(50,0,0,50,653.915,126)"
     font-size="0.5px">
    <circle
       style="stroke:none"
       id="circle299"
       r="0.125"
       cy="0"
       cx="0" />
  </g>
  <g
     style="font-size:0.5px;font-family:sans-serif;fill:#ffffff;stroke:#ffffff;stroke-width:0.06"
     id="g301"
     transform="matrix(50,0,0,50,803.915,301)"
     font-size="0.5px">
    <path
       style="stroke:none"
       inkscape:connector-curvature="0"
       id="path303"
       d="m -0.5562,-0.5 0.2499,0 c 0.75,0 0.75,1 0,1 l -0.2499,0 z" />
    <path
       style="fill:none;stroke:#000000"
       inkscape:connector-curvature="0"
       id="path305"
       d="m -0.5562,-0.5 0.2499,0 c 0.75,0 0.75,1 0,1 l -0.2499,0 z" />
    <circle
       style="stroke:none"
       id="circle307"
       transform="translate(0.4062,0)"
       r="0.15000001"
       cy="0"
       cx="0" />
    <circle
       style="fill:none;stroke:#000000"
       id="circle309"
       transform="translate(0.4062,0)"
       r="0.15000001"
       cy="0"
       cx="0" />
  </g>
  <g
     style="font-size:0.5px;font-family:sans-serif;stroke-width:0.04"
     id="g311"
     transform="matrix(50,0,0,50,803.915,301)"
     font-size="0.5px">
    <line
       style="fill:none"
       id="line313"
       y2="0"
       y1="0"
       x2="1"
       x1="0.55629998" />
    <line
       style="fill:none"
       id="line315"
       y2="-0.25"
       y1="-0.25"
       x2="-1"
       x1="-0.55620003" />
    <line
       style="fill:none"
       id="line317"
       y2="0.25"
       y1="0.25"
       x2="-1"
       x1="-0.55620003" />
    <path
       style="fill:none"
       inkscape:connector-curvature="0"
       id="path319"
       d="m -0.075,-0.1299 a 0.15,0.15 0 1 0 0,0.2598" />
    <circle
       style="stroke:none"
       id="circle321"
       transform="translate(1,0)"
       r="0.125"
       cy="0"
       cx="0" />
  </g>
  <g
     style="font-size:0.5px;font-family:sans-serif;fill:#ffffff;stroke:#ffffff;stroke-width:0.06"
     id="g323"
     transform="matrix(50,0,0,50,578.915,501)"
     font-size="0.5px">
    <path
       style="stroke:none"
       inkscape:connector-curvature="0"
       id="path325"
       d="m -0.4062,-0.5 0.25,0 c 0.75,0 0.75,1 0,1 l -0.25,0 z" />
    <path
       style="fill:none;stroke:#000000"
       inkscape:connector-curvature="0"
       id="path327"
       d="m -0.4062,-0.5 0.25,0 c 0.75,0 0.75,1 0,1 l -0.25,0 z" />
  </g>
  <g
     style="font-size:0.5px;font-family:sans-serif;stroke-width:0.04"
     id="g329"
     transform="matrix(50,0,0,50,578.915,501)"
     font-size="0.5px">
    <line
       style="fill:none"
       id="line331"
       y2="0"
       y1="0"
       x2="1"
       x1="0.40619999" />
    <line
       style="fill:none"
       id="line333"
       y2="-0.25"
       y1="-0.25"
       x2="-1"
       x1="-0.40619999" />
    <line
       style="fill:none"
       id="line335"
       y2="0.25"
       y1="0.25"
       x2="-1"
       x1="-0.40619999" />
    <path
       style="fill:none"
       inkscape:connector-curvature="0"
       id="path337"
       d="m 0.075,-0.1299 a 0.15,0.15 0 1 0 0,0.2598" />
    <circle
       style="stroke:none"
       id="circle339"
       transform="translate(1,0)"
       r="0.125"
       cy="0"
       cx="0" />
  </g>
  <g
     style="font-size:0.5px;font-family:sans-serif;stroke-width:0.04"
     id="g341"
     transform="matrix(50,0,0,50,528.915,201)"
     font-size="0.5px">
    <circle
       style="stroke:none"
       id="circle343"
       r="0.125"
       cy="0"
       cx="0" />
  </g>
  <g
     style="font-size:0.5px;font-family:sans-serif;stroke-width:0.04"
     id="g345"
     transform="matrix(50,0,0,50,328.915,376)"
     font-size="0.5px">
    <circle
       style="stroke:none"
       id="circle347"
       r="0.125"
       cy="0"
       cx="0" />
  </g>
  <g
     style="font-size:0.5px;font-family:sans-serif;stroke-width:0.04"
     id="g349"
     transform="matrix(50,0,0,50,328.915,176)"
     font-size="0.5px">
    <circle
       style="stroke:none"
       id="circle351"
       r="0.125"
       cy="0"
       cx="0" />
  </g>
  <g
     style="font-size:0.5px;font-family:sans-serif;stroke-width:0.04"
     id="g353"
     transform="matrix(50,0,0,50,453.915,301)"
     font-size="0.5px">
    <path
       style="fill:none"
       inkscape:connector-curvature="0"
       id="path355"
       d="M 8.125,4 11.87,4" />
    <path
       style="stroke:none"
       inkscape:connector-curvature="0"
       id="path357"
       d="m 11.87,3.925 0,0.15 0,-0.075 z" />
  </g>
  <g
     style="font-size:0.5px;font-family:sans-serif;stroke-width:0.04"
     id="g359"
     transform="matrix(50,0,0,50,453.915,301)"
     font-size="0.5px">
    <path
       style="fill:none"
       inkscape:connector-curvature="0"
       id="path361"
       d="m 8.125,-5 3.745,0" />
    <path
       style="stroke:none"
       inkscape:connector-curvature="0"
       id="path363"
       d="m 11.87,-5.075 0,0.15 0,-0.075 z" />
  </g>
  <g
     style="font-size:0.5px;font-family:sans-serif;stroke-width:0.04"
     id="g365"
     transform="matrix(50,0,0,50,453.915,301)"
     font-size="0.5px">
    <path
       style="fill:none"
       inkscape:connector-curvature="0"
       id="path367"
       d="m 1,-2.61 0,-2.64 0.39,0" />
    <path
       style="stroke:none"
       inkscape:connector-curvature="0"
       id="path369"
       d="m 1.39,-5.325 0,0.15 0,-0.075 z" />
  </g>
  <g
     style="font-size:0.5px;font-family:sans-serif;stroke-width:0.04"
     id="g371"
     transform="matrix(50,0,0,50,453.915,301)"
     font-size="0.5px">
    <line
       style="fill:none"
       id="line373"
       y2="-2.6099999"
       y1="-2.5"
       x2="1"
       x1="1" />
    <line
       style="fill:none"
       id="line375"
       y2="-5.25"
       y1="-5.25"
       x2="1.5"
       x1="1.39" />
  </g>
  <g
     style="font-size:0.5px;font-family:sans-serif;stroke-width:0.04"
     id="g377"
     transform="matrix(50,0,0,50,453.915,301)"
     font-size="0.5px">
    <path
       style="fill:none"
       inkscape:connector-curvature="0"
       id="path379"
       d="m 1,1.61 0,2.64 0.39,0" />
    <path
       style="stroke:none"
       inkscape:connector-curvature="0"
       id="path381"
       d="m 1.39,4.175 0,0.15 0,-0.075 z" />
  </g>
  <g
     style="font-size:0.5px;font-family:sans-serif;stroke-width:0.04"
     id="g383"
     transform="matrix(50,0,0,50,453.915,301)"
     font-size="0.5px">
    <line
       style="fill:none"
       id="line385"
       y2="1.61"
       y1="1.5"
       x2="1"
       x1="1" />
    <line
       style="fill:none"
       id="line387"
       y2="4.25"
       y1="4.25"
       x2="1.5"
       x1="1.39" />
  </g>
  <g
     style="font-size:0.5px;font-family:sans-serif;stroke-width:0.04"
     id="g389"
     transform="matrix(50,0,0,50,453.915,301)"
     font-size="0.5px">
    <path
       style="fill:none"
       inkscape:connector-curvature="0"
       id="path391"
       d="m 11,-3.39 0,2.89 0.5,1 0,4.5 -16.75,0 0,-0.89" />
    <path
       style="stroke:none"
       inkscape:connector-curvature="0"
       id="path393"
       d="m -5.325,4.11 0.15,0 -0.075,0 z" />
  </g>
  <g
     style="font-size:0.5px;font-family:sans-serif;stroke-width:0.04"
     id="g395"
     transform="matrix(50,0,0,50,453.915,301)"
     font-size="0.5px">
    <line
       style="fill:none"
       id="line397"
       y2="-3.3900001"
       y1="-3.5"
       x2="11"
       x1="11" />
    <line
       style="fill:none"
       id="line399"
       y2="4"
       y1="4.1100001"
       x2="-5.25"
       x1="-5.25" />
  </g>
  <g
     style="font-size:0.5px;font-family:sans-serif;stroke-width:0.04"
     id="g401"
     transform="matrix(50,0,0,50,453.915,301)"
     font-size="0.5px">
    <path
       style="fill:none"
       inkscape:connector-curvature="0"
       id="path403"
       d="m 11,2.39 0,-1.89 0.5,-1 0,-3 0,-2.5 -16.75,0 0,0.89" />
    <path
       style="stroke:none"
       inkscape:connector-curvature="0"
       id="path405"
       d="m -5.175,-5.11 -0.15,0 0.075,0 z" />
  </g>
  <g
     style="font-size:0.5px;font-family:sans-serif;stroke-width:0.04"
     id="g407"
     transform="matrix(50,0,0,50,453.915,301)"
     font-size="0.5px">
    <line
       style="fill:none"
       id="line409"
       y2="2.3900001"
       y1="2.5"
       x2="11"
       x1="11" />
    <line
       style="fill:none"
       id="line411"
       y2="-5"
       y1="-5.1100001"
       x2="-5.25"
       x1="-5.25" />
  </g>
  <g
     style="font-size:0.5px;font-family:sans-serif;stroke-width:0.04"
     id="g413"
     transform="matrix(50,0,0,50,453.915,301)"
     font-size="0.5px">
    <path
       style="fill:none"
       inkscape:connector-curvature="0"
       id="path415"
       d="m -7.62,1.5 0.01,0" />
    <path
       style="stroke:none"
       inkscape:connector-curvature="0"
       id="path417"
       d="m -7.61,1.425 0,0.15 0,-0.075 z" />
  </g>
  <g
     style="font-size:0.5px;font-family:sans-serif;stroke-width:0.04"
     id="g419"
     transform="matrix(50,0,0,50,453.915,301)"
     font-size="0.5px">
    <line
       style="fill:none"
       id="line421"
       y2="1.5"
       y1="1.5"
       x2="-7.5"
       x1="-7.6100001" />
  </g>
  <g
     style="font-size:0.5px;font-family:sans-serif;stroke-width:0.04"
     id="g423"
     transform="matrix(50,0,0,50,453.915,301)"
     font-size="0.5px">
    <path
       style="fill:none"
       inkscape:connector-curvature="0"
       id="path425"
       d="m -7.62,-2.5 0.01,0" />
    <path
       style="stroke:none"
       inkscape:connector-curvature="0"
       id="path427"
       d="m -7.61,-2.575 0,0.15 0,-0.075 z" />
  </g>
  <g
     style="font-size:0.5px;font-family:sans-serif;stroke-width:0.04"
     id="g429"
     transform="matrix(50,0,0,50,453.915,301)"
     font-size="0.5px">
    <line
       style="fill:none"
       id="line431"
       y2="-2.5"
       y1="-2.5"
       x2="-7.5"
       x1="-7.6100001" />
  </g>
  <g
     style="font-size:0.5px;font-family:sans-serif;stroke-width:0.04"
     id="g433"
     transform="matrix(50,0,0,50,453.915,301)"
     font-size="0.5px">
    <path
       style="fill:none"
       inkscape:connector-curvature="0"
       id="path435"
       d="M 1,1.39 1,0.5 -5.14,-0.9736" />
    <path
       style="stroke:none"
       inkscape:connector-curvature="0"
       id="path437"
       d="m -5.1575,-0.9007 0.035,-0.1458 -0.0175,0.0729 z" />
  </g>
  <g
     style="font-size:0.5px;font-family:sans-serif;stroke-width:0.04"
     id="g439"
     transform="matrix(50,0,0,50,453.915,301)"
     font-size="0.5px">
    <line
       style="fill:none"
       id="line441"
       y2="1.39"
       y1="1.5"
       x2="1"
       x1="1" />
    <line
       style="fill:none"
       id="line443"
       y2="-1"
       y1="-0.97359997"
       x2="-5.25"
       x1="-5.1399999" />
  </g>
  <g
     style="font-size:0.5px;font-family:sans-serif;stroke-width:0.04"
     id="g445"
     transform="matrix(50,0,0,50,453.915,301)"
     font-size="0.5px">
    <path
       style="fill:none"
       inkscape:connector-curvature="0"
       id="path447"
       d="m 1,-2.39 0,0.89 -6.14,1.4736" />
    <path
       style="stroke:none"
       inkscape:connector-curvature="0"
       id="path449"
       d="m -5.1225,0.0465 -0.035,-0.1458 0.0175,0.0729 z" />
  </g>
  <g
     style="font-size:0.5px;font-family:sans-serif;stroke-width:0.04"
     id="g451"
     transform="matrix(50,0,0,50,453.915,301)"
     font-size="0.5px">
    <line
       style="fill:none"
       id="line453"
       y2="-2.3900001"
       y1="-2.5"
       x2="1"
       x1="1" />
    <line
       style="fill:none"
       id="line455"
       y2="0"
       y1="-0.0264"
       x2="-5.25"
       x1="-5.1399999" />
  </g>
  <g
     style="font-size:0.5px;font-family:sans-serif;stroke-width:0.04"
     id="g457"
     transform="matrix(50,0,0,50,453.915,301)"
     font-size="0.5px">
    <path
       style="fill:none"
       inkscape:connector-curvature="0"
       id="path459"
       d="M 8,0.11 8,1.89" />
    <path
       style="stroke:none"
       inkscape:connector-curvature="0"
       id="path461"
       d="m 8.075,1.89 -0.15,0 0.075,0 z" />
  </g>
  <g
     style="font-size:0.5px;font-family:sans-serif;stroke-width:0.04"
     id="g463"
     transform="matrix(50,0,0,50,453.915,301)"
     font-size="0.5px">
    <line
       style="fill:none"
       id="line465"
       y2="0.11"
       y1="0"
       x2="8"
       x1="8" />
    <line
       style="fill:none"
       id="line467"
       y2="2"
       y1="1.89"
       x2="8"
       x1="8" />
  </g>
  <g
     style="font-size:0.5px;font-family:sans-serif;stroke-width:0.04"
     id="g469"
     transform="matrix(50,0,0,50,453.915,301)"
     font-size="0.5px">
    <path
       style="fill:none"
       inkscape:connector-curvature="0"
       id="path471"
       d="m 3.5,3.89 0,-2.28" />
    <path
       style="stroke:none"
       inkscape:connector-curvature="0"
       id="path473"
       d="m 3.425,1.61 0.15,0 -0.075,0 z" />
  </g>
  <g
     style="font-size:0.5px;font-family:sans-serif;stroke-width:0.04"
     id="g475"
     transform="matrix(50,0,0,50,453.915,301)"
     font-size="0.5px">
    <line
       style="fill:none"
       id="line477"
       y2="3.8900001"
       y1="4"
       x2="3.5"
       x1="3.5" />
    <line
       style="fill:none"
       id="line479"
       y2="1.5"
       y1="1.61"
       x2="3.5"
       x1="3.5" />
  </g>
  <g
     style="font-size:0.5px;font-family:sans-serif;stroke-width:0.04"
     id="g481"
     transform="matrix(50,0,0,50,453.915,301)"
     font-size="0.5px">
    <path
       style="fill:none"
       inkscape:connector-curvature="0"
       id="path483"
       d="m 1.5,1.125 0,2.515" />
    <path
       style="stroke:none"
       inkscape:connector-curvature="0"
       id="path485"
       d="m 1.575,3.64 -0.15,0 0.075,0 z" />
  </g>
  <g
     style="font-size:0.5px;font-family:sans-serif;stroke-width:0.04"
     id="g487"
     transform="matrix(50,0,0,50,453.915,301)"
     font-size="0.5px">
    <line
       style="fill:none"
       id="line489"
       y2="3.75"
       y1="3.6400001"
       x2="1.5"
       x1="1.5" />
  </g>
  <g
     style="font-size:0.5px;font-family:sans-serif;stroke-width:0.04"
     id="g491"
     transform="matrix(50,0,0,50,453.915,301)"
     font-size="0.5px">
    <path
       style="fill:none"
       inkscape:connector-curvature="0"
       id="path493"
       d="m 4.125,-3.5 1.265,0" />
    <path
       style="stroke:none"
       inkscape:connector-curvature="0"
       id="path495"
       d="m 5.39,-3.575 0,0.15 0,-0.075 z" />
  </g>
  <g
     style="font-size:0.5px;font-family:sans-serif;stroke-width:0.04"
     id="g497"
     transform="matrix(50,0,0,50,453.915,301)"
     font-size="0.5px">
    <line
       style="fill:none"
       id="line499"
       y2="-3.5"
       y1="-3.5"
       x2="5.5"
       x1="5.3899999" />
  </g>
  <g
     style="font-size:0.5px;font-family:sans-serif;stroke-width:0.04"
     id="g501"
     transform="matrix(50,0,0,50,453.915,301)"
     font-size="0.5px">
    <path
       style="fill:none"
       inkscape:connector-curvature="0"
       id="path503"
       d="m 6,-0.89 0,0.53" />
    <path
       style="stroke:none"
       inkscape:connector-curvature="0"
       id="path505"
       d="m 6.075,-0.36 -0.15,0 0.075,0 z" />
  </g>
  <g
     style="font-size:0.5px;font-family:sans-serif;stroke-width:0.04"
     id="g507"
     transform="matrix(50,0,0,50,453.915,301)"
     font-size="0.5px">
    <line
       style="fill:none"
       id="line509"
       y2="-0.88999999"
       y1="-1"
       x2="6"
       x1="6" />
    <line
       style="fill:none"
       id="line511"
       y2="-0.25"
       y1="-0.36000001"
       x2="6"
       x1="6" />
  </g>
  <g
     style="font-size:0.5px;font-family:sans-serif;stroke-width:0.04"
     id="g513"
     transform="matrix(50,0,0,50,453.915,301)"
     font-size="0.5px">
    <path
       style="fill:none"
       inkscape:connector-curvature="0"
       id="path515"
       d="m 7.61,2.5 0.28,0" />
    <path
       style="stroke:none"
       inkscape:connector-curvature="0"
       id="path517"
       d="m 7.89,2.425 0,0.15 0,-0.075 z" />
  </g>
  <g
     style="font-size:0.5px;font-family:sans-serif;stroke-width:0.04"
     id="g519"
     transform="matrix(50,0,0,50,453.915,301)"
     font-size="0.5px">
    <line
       style="fill:none"
       id="line521"
       y2="2.5"
       y1="2.5"
       x2="7.6100001"
       x1="7.5" />
    <line
       style="fill:none"
       id="line523"
       y2="2.5"
       y1="2.5"
       x2="8"
       x1="7.8899999" />
  </g>
  <g
     style="font-size:0.5px;font-family:sans-serif;stroke-width:0.04"
     id="g525"
     transform="matrix(50,0,0,50,453.915,301)"
     font-size="0.5px">
    <path
       style="fill:none"
       inkscape:connector-curvature="0"
       id="path527"
       d="m 3,2.375 0,-3.125 0.89,0" />
    <path
       style="stroke:none"
       inkscape:connector-curvature="0"
       id="path529"
       d="m 3.89,-0.825 0,0.15 0,-0.075 z" />
  </g>
  <g
     style="font-size:0.5px;font-family:sans-serif;stroke-width:0.04"
     id="g531"
     transform="matrix(50,0,0,50,453.915,301)"
     font-size="0.5px">
    <line
       style="fill:none"
       id="line533"
       y2="-0.75"
       y1="-0.75"
       x2="4"
       x1="3.8900001" />
  </g>
  <g
     style="font-size:0.5px;font-family:sans-serif;stroke-width:0.04"
     id="g535"
     transform="matrix(50,0,0,50,453.915,301)"
     font-size="0.5px">
    <path
       style="fill:none"
       inkscape:connector-curvature="0"
       id="path537"
       d="M 8,3.875 8,3.11" />
    <path
       style="stroke:none"
       inkscape:connector-curvature="0"
       id="path539"
       d="m 7.925,3.11 0.15,0 -0.075,0 z" />
  </g>
  <g
     style="font-size:0.5px;font-family:sans-serif;stroke-width:0.04"
     id="g541"
     transform="matrix(50,0,0,50,453.915,301)"
     font-size="0.5px">
    <line
       style="fill:none"
       id="line543"
       y2="3"
       y1="3.1099999"
       x2="8"
       x1="8" />
  </g>
  <g
     style="font-size:0.5px;font-family:sans-serif;stroke-width:0.04"
     id="g545"
     transform="matrix(50,0,0,50,453.915,301)"
     font-size="0.5px">
    <path
       style="fill:none"
       inkscape:connector-curvature="0"
       id="path547"
       d="M 4,-3.375 4,-1.36" />
    <path
       style="stroke:none"
       inkscape:connector-curvature="0"
       id="path549"
       d="m 4.075,-1.36 -0.15,0 0.075,0 z" />
  </g>
  <g
     style="font-size:0.5px;font-family:sans-serif;stroke-width:0.04"
     id="g551"
     transform="matrix(50,0,0,50,453.915,301)"
     font-size="0.5px">
    <line
       style="fill:none"
       id="line553"
       y2="-1.25"
       y1="-1.36"
       x2="4"
       x1="4" />
  </g>
  <g
     style="font-size:0.5px;font-family:sans-serif;stroke-width:0.04"
     id="g555"
     transform="matrix(50,0,0,50,453.915,301)"
     font-size="0.5px">
    <path
       style="fill:none"
       inkscape:connector-curvature="0"
       id="path557"
       d="m 3.125,2.5 2.265,0" />
    <path
       style="stroke:none"
       inkscape:connector-curvature="0"
       id="path559"
       d="m 5.39,2.425 0,0.15 0,-0.075 z" />
  </g>
  <g
     style="font-size:0.5px;font-family:sans-serif;stroke-width:0.04"
     id="g561"
     transform="matrix(50,0,0,50,453.915,301)"
     font-size="0.5px">
    <line
       style="fill:none"
       id="line563"
       y2="2.5"
       y1="2.5"
       x2="5.5"
       x1="5.3899999" />
  </g>
  <g
     style="font-size:0.5px;font-family:sans-serif;stroke-width:0.04"
     id="g565"
     transform="matrix(50,0,0,50,453.915,301)"
     font-size="0.5px">
    <path
       style="fill:none"
       inkscape:connector-curvature="0"
       id="path567"
       d="M 8,-0.11 8,-2.89" />
    <path
       style="stroke:none"
       inkscape:connector-curvature="0"
       id="path569"
       d="m 7.925,-2.89 0.15,0 -0.075,0 z" />
  </g>
  <g
     style="font-size:0.5px;font-family:sans-serif;stroke-width:0.04"
     id="g571"
     transform="matrix(50,0,0,50,453.915,301)"
     font-size="0.5px">
    <line
       style="fill:none"
       id="line573"
       y2="-0.11"
       y1="0"
       x2="8"
       x1="8" />
    <line
       style="fill:none"
       id="line575"
       y2="-3"
       y1="-2.8900001"
       x2="8"
       x1="8" />
  </g>
  <g
     style="font-size:0.5px;font-family:sans-serif;stroke-width:0.04"
     id="g577"
     transform="matrix(50,0,0,50,453.915,301)"
     font-size="0.5px">
    <path
       style="fill:none"
       inkscape:connector-curvature="0"
       id="path579"
       d="m 3.5,-4.89 0,5.28" />
    <path
       style="stroke:none"
       inkscape:connector-curvature="0"
       id="path581"
       d="m 3.575,0.39 -0.15,0 0.075,0 z" />
  </g>
  <g
     style="font-size:0.5px;font-family:sans-serif;stroke-width:0.04"
     id="g583"
     transform="matrix(50,0,0,50,453.915,301)"
     font-size="0.5px">
    <line
       style="fill:none"
       id="line585"
       y2="-4.8899999"
       y1="-5"
       x2="3.5"
       x1="3.5" />
    <line
       style="fill:none"
       id="line587"
       y2="0.5"
       y1="0.38999999"
       x2="3.5"
       x1="3.5" />
  </g>
  <g
     style="font-size:0.5px;font-family:sans-serif;stroke-width:0.04"
     id="g589"
     transform="matrix(50,0,0,50,453.915,301)"
     font-size="0.5px">
    <path
       style="fill:none"
       inkscape:connector-curvature="0"
       id="path591"
       d="M 1.625,1 3.39,1" />
    <path
       style="stroke:none"
       inkscape:connector-curvature="0"
       id="path593"
       d="m 3.39,0.925 0,0.15 0,-0.075 z" />
  </g>
  <g
     style="font-size:0.5px;font-family:sans-serif;stroke-width:0.04"
     id="g595"
     transform="matrix(50,0,0,50,453.915,301)"
     font-size="0.5px">
    <line
       style="fill:none"
       id="line597"
       y2="1"
       y1="1"
       x2="3.5"
       x1="3.3900001" />
  </g>
  <g
     style="font-size:0.5px;font-family:sans-serif;stroke-width:0.04"
     id="g599"
     transform="matrix(50,0,0,50,453.915,301)"
     font-size="0.5px">
    <path
       style="fill:none"
       inkscape:connector-curvature="0"
       id="path601"
       d="M 8,-4.875 8,-4.11" />
    <path
       style="stroke:none"
       inkscape:connector-curvature="0"
       id="path603"
       d="m 8.075,-4.11 -0.15,0 0.075,0 z" />
  </g>
  <g
     style="font-size:0.5px;font-family:sans-serif;stroke-width:0.04"
     id="g605"
     transform="matrix(50,0,0,50,453.915,301)"
     font-size="0.5px">
    <line
       style="fill:none"
       id="line607"
       y2="-4"
       y1="-4.1100001"
       x2="8"
       x1="8" />
  </g>
  <g
     style="font-size:0.5px;font-family:sans-serif;stroke-width:0.04"
     id="g609"
     transform="matrix(50,0,0,50,453.915,301)"
     font-size="0.5px">
    <path
       style="fill:none"
       inkscape:connector-curvature="0"
       id="path611"
       d="m 7.61,-3.5 0.28,0" />
    <path
       style="stroke:none"
       inkscape:connector-curvature="0"
       id="path613"
       d="m 7.89,-3.575 0,0.15 0,-0.075 z" />
  </g>
  <g
     style="font-size:0.5px;font-family:sans-serif;stroke-width:0.04"
     id="g615"
     transform="matrix(50,0,0,50,453.915,301)"
     font-size="0.5px">
    <line
       style="fill:none"
       id="line617"
       y2="-3.5"
       y1="-3.5"
       x2="7.6100001"
       x1="7.5" />
    <line
       style="fill:none"
       id="line619"
       y2="-3.5"
       y1="-3.5"
       x2="8"
       x1="7.8899999" />
  </g>
  <g
     style="font-size:0.5px;font-family:sans-serif;stroke-width:0.04"
     id="g621"
     transform="matrix(50,0,0,50,453.915,301)"
     font-size="0.5px">
    <path
       style="fill:none"
       inkscape:connector-curvature="0"
       id="path623"
       d="M 3.61,4 7.875,4" />
    <path
       style="stroke:none"
       inkscape:connector-curvature="0"
       id="path625"
       d="m 7.875,3.925 0,0.15 0,-0.075 z" />
  </g>
  <g
     style="font-size:0.5px;font-family:sans-serif;stroke-width:0.04"
     id="g627"
     transform="matrix(50,0,0,50,453.915,301)"
     font-size="0.5px">
    <line
       style="fill:none"
       id="line629"
       y2="4"
       y1="4"
       x2="3.6099999"
       x1="3.5" />
  </g>
  <g
     style="font-size:0.5px;font-family:sans-serif;stroke-width:0.04"
     id="g631"
     transform="matrix(50,0,0,50,453.915,301)"
     font-size="0.5px">
    <path
       style="fill:none"
       inkscape:connector-curvature="0"
       id="path633"
       d="m 3.61,-5 4.265,0" />
    <path
       style="stroke:none"
       inkscape:connector-curvature="0"
       id="path635"
       d="m 7.875,-5.075 0,0.15 0,-0.075 z" />
  </g>
  <g
     style="font-size:0.5px;font-family:sans-serif;stroke-width:0.04"
     id="g637"
     transform="matrix(50,0,0,50,453.915,301)"
     font-size="0.5px">
    <line
       style="fill:none"
       id="line639"
       y2="-5"
       y1="-5"
       x2="3.6099999"
       x1="3.5" />
  </g>
  <g
     style="font-size:0.5px;font-family:sans-serif;stroke-width:0.04"
     id="g641"
     transform="matrix(50,0,0,50,453.915,301)"
     font-size="0.5px">
    <path
       style="fill:none"
       inkscape:connector-curvature="0"
       id="path643"
       d="M 6,0.89 6,0.36" />
    <path
       style="stroke:none"
       inkscape:connector-curvature="0"
       id="path645"
       d="m 5.925,0.36 0.15,0 -0.075,0 z" />
  </g>
  <g
     style="font-size:0.5px;font-family:sans-serif;stroke-width:0.04"
     id="g647"
     transform="matrix(50,0,0,50,453.915,301)"
     font-size="0.5px">
    <line
       style="fill:none"
       id="line649"
       y2="0.88999999"
       y1="1"
       x2="6"
       x1="6" />
    <line
       style="fill:none"
       id="line651"
       y2="0.25"
       y1="0.36000001"
       x2="6"
       x1="6" />
  </g>
  <g
     style="font-size:0.5px;font-family:sans-serif;stroke-width:0.04"
     id="g653"
     transform="matrix(50,0,0,50,453.915,301)"
     font-size="0.5px">
    <path
       style="fill:none"
       inkscape:connector-curvature="0"
       id="path655"
       d="M 11.87,-2 1.625,-2" />
    <path
       style="stroke:none"
       inkscape:connector-curvature="0"
       id="path657"
       d="m 1.625,-1.925 0,-0.15 0,0.075 z" />
  </g>
  <g
     style="font-size:0.5px;font-family:sans-serif;stroke-width:0.04"
     id="g659"
     transform="matrix(50,0,0,50,453.915,301)"
     font-size="0.5px">
    <path
       style="fill:none"
       inkscape:connector-curvature="0"
       id="path661"
       d="m 1.5,-2.125 0,-2.515" />
    <path
       style="stroke:none"
       inkscape:connector-curvature="0"
       id="path663"
       d="m 1.425,-4.64 0.15,0 -0.075,0 z" />
  </g>
  <g
     style="font-size:0.5px;font-family:sans-serif;stroke-width:0.04"
     id="g665"
     transform="matrix(50,0,0,50,453.915,301)"
     font-size="0.5px">
    <line
       style="fill:none"
       id="line667"
       y2="-4.75"
       y1="-4.6399999"
       x2="1.5"
       x1="1.5" />
  </g>
  <g
     style="font-size:0.5px;font-family:sans-serif;stroke-width:0.04"
     id="g669"
     transform="matrix(50,0,0,50,453.915,301)"
     font-size="0.5px">
    <path
       style="fill:none"
       inkscape:connector-curvature="0"
       id="path671"
       d="m 1.5,-1.875 0,2.75" />
    <path
       style="stroke:none"
       inkscape:connector-curvature="0"
       id="path673"
       d="m 1.575,0.875 -0.15,0 0.075,0 z" />
  </g>
  <g
     style="font-size:0.5px;font-family:sans-serif;stroke-width:0.04"
     id="g675"
     transform="matrix(50,0,0,50,453.915,301)"
     font-size="0.5px">
    <path
       style="fill:none"
       inkscape:connector-curvature="0"
       id="path677"
       d="m -2.64,1.5 0.015,0" />
    <path
       style="stroke:none"
       inkscape:connector-curvature="0"
       id="path679"
       d="m -2.625,1.425 0,0.15 0,-0.075 z" />
  </g>
  <g
     style="font-size:0.5px;font-family:sans-serif;stroke-width:0.04"
     id="g681"
     transform="matrix(50,0,0,50,453.915,301)"
     font-size="0.5px">
    <line
       style="fill:none"
       id="line683"
       y2="1.5"
       y1="1.5"
       x2="-2.6400001"
       x1="-2.75" />
  </g>
  <g
     style="font-size:0.5px;font-family:sans-serif;stroke-width:0.04"
     id="g685"
     transform="matrix(50,0,0,50,453.915,301)"
     font-size="0.5px">
    <path
       style="fill:none"
       inkscape:connector-curvature="0"
       id="path687"
       d="m -2.375,1.5 0.015,0" />
    <path
       style="stroke:none"
       inkscape:connector-curvature="0"
       id="path689"
       d="m -2.36,1.425 0,0.15 0,-0.075 z" />
  </g>
  <g
     style="font-size:0.5px;font-family:sans-serif;stroke-width:0.04"
     id="g691"
     transform="matrix(50,0,0,50,453.915,301)"
     font-size="0.5px">
    <line
       style="fill:none"
       id="line693"
       y2="1.5"
       y1="1.5"
       x2="-2.25"
       x1="-2.3599999" />
  </g>
  <g
     style="font-size:0.5px;font-family:sans-serif;stroke-width:0.04"
     id="g695"
     transform="matrix(50,0,0,50,453.915,301)"
     font-size="0.5px">
    <path
       style="fill:none"
       inkscape:connector-curvature="0"
       id="path697"
       d="m -2.5,1.625 0,0.875 5.375,0" />
    <path
       style="stroke:none"
       inkscape:connector-curvature="0"
       id="path699"
       d="m 2.875,2.425 0,0.15 0,-0.075 z" />
  </g>
  <g
     style="font-size:0.5px;font-family:sans-serif;stroke-width:0.04"
     id="g701"
     transform="matrix(50,0,0,50,453.915,301)"
     font-size="0.5px">
    <path
       style="fill:none"
       inkscape:connector-curvature="0"
       id="path703"
       d="m -2.64,-2.5 0.015,0" />
    <path
       style="stroke:none"
       inkscape:connector-curvature="0"
       id="path705"
       d="m -2.625,-2.575 0,0.15 0,-0.075 z" />
  </g>
  <g
     style="font-size:0.5px;font-family:sans-serif;stroke-width:0.04"
     id="g707"
     transform="matrix(50,0,0,50,453.915,301)"
     font-size="0.5px">
    <line
       style="fill:none"
       id="line709"
       y2="-2.5"
       y1="-2.5"
       x2="-2.6400001"
       x1="-2.75" />
  </g>
  <g
     style="font-size:0.5px;font-family:sans-serif;stroke-width:0.04"
     id="g711"
     transform="matrix(50,0,0,50,453.915,301)"
     font-size="0.5px">
    <path
       style="fill:none"
       inkscape:connector-curvature="0"
       id="path713"
       d="m -2.5,-2.625 0,-0.875 6.375,0" />
    <path
       style="stroke:none"
       inkscape:connector-curvature="0"
       id="path715"
       d="m 3.875,-3.575 0,0.15 0,-0.075 z" />
  </g>
  <g
     style="font-size:0.5px;font-family:sans-serif;stroke-width:0.04"
     id="g717"
     transform="matrix(50,0,0,50,453.915,301)"
     font-size="0.5px">
    <path
       style="fill:none"
       inkscape:connector-curvature="0"
       id="path719"
       d="m -2.375,-2.5 0.015,0" />
    <path
       style="stroke:none"
       inkscape:connector-curvature="0"
       id="path721"
       d="m -2.36,-2.575 0,0.15 0,-0.075 z" />
  </g>
  <g
     style="font-size:0.5px;font-family:sans-serif;stroke-width:0.04"
     id="g723"
     transform="matrix(50,0,0,50,453.915,301)"
     font-size="0.5px">
    <line
       style="fill:none"
       id="line725"
       y2="-2.5"
       y1="-2.5"
       x2="-2.25"
       x1="-2.3599999" />
  </g>
</svg>
