<?xml version="1.0" encoding="UTF-8" standalone="no"?>
<svg xmlns:dc="http://purl.org/dc/elements/1.1/" xmlns:cc="http://creativecommons.org/ns#" xmlns:rdf="http://www.w3.org/1999/02/22-rdf-syntax-ns#" xmlns:svg="http://www.w3.org/2000/svg" xmlns="http://www.w3.org/2000/svg" xmlns:sodipodi="http://sodipodi.sourceforge.net/DTD/sodipodi-0.dtd" xmlns:inkscape="http://www.inkscape.org/namespaces/inkscape" font-size="12px" font-style="normal" font-weight="normal" height="100%" stroke-miterlimit="10" width="100%" id="svg2" version="1.1" inkscape:version="0.91 r13725" sodipodi:docname="om-box.circuit.svg" style="font-style:normal;font-weight:normal;font-size:12px;font-family:Dialog;color-interpolation:auto;fill:#000000;fill-opacity:1;stroke:#000000;stroke-width:1;stroke-linecap:square;stroke-linejoin:miter;stroke-miterlimit:10;stroke-dasharray:none;stroke-dashoffset:0;stroke-opacity:1;color-rendering:auto;image-rendering:auto;shape-rendering:auto;text-rendering:auto" viewBox="0 0 227 361" preserveAspectRatio="xMidYMid slice">
  <metadata
     id="metadata43">
    <rdf:RDF>
      <cc:Work
         rdf:about="">
        <dc:format>image/svg+xml</dc:format>
        <dc:type
           rdf:resource="http://purl.org/dc/dcmitype/StillImage" />
        <dc:title></dc:title>
      </cc:Work>
    </rdf:RDF>
  </metadata>
  <sodipodi:namedview
     pagecolor="#ffffff"
     bordercolor="#666666"
     borderopacity="1"
     objecttolerance="10"
     gridtolerance="10"
     guidetolerance="10"
     inkscape:pageopacity="0"
     inkscape:pageshadow="2"
     inkscape:window-width="1920"
     inkscape:window-height="1176"
     id="namedview41"
     showgrid="true"
     inkscape:object-nodes="true"
     fit-margin-top="0"
     fit-margin-left="0"
     fit-margin-right="0"
     fit-margin-bottom="0"
     inkscape:zoom="1.3765669"
     inkscape:cx="97.597147"
     inkscape:cy="140.87732"
     inkscape:window-x="0"
     inkscape:window-y="24"
     inkscape:window-maximized="1"
     inkscape:current-layer="svg2">
    <inkscape:grid
       type="xygrid"
       id="grid8103"
       originx="-9.5"
       originy="50.5" />
  </sodipodi:namedview>
  <!--Generated by the Batik Graphics2D SVG Generator-->
  <defs
     id="genericDefs">
    <inkscape:path-effect
       effect="spiro"
       id="path-effect8107"
       is_visible="true" />
    <inkscape:path-effect
       effect="spiro"
       id="path-effect8107-3"
       is_visible="true" />
  </defs>
  <g
     id="g5"
     transform="translate(-9.5,50.5)">
    <g
       transform="matrix(50,0,0,50,110.5,130)"
       id="g7"
       style="fill:#ffffff;stroke:#ffffff">
      <rect
         height="5"
         width="3.5"
         x="-1.5"
         y="-2.5"
         id="rect9"
         style="stroke:none" />
      <rect
         height="5"
         width="3.5"
         x="-1.5"
         y="-2.5"
         id="rect11"
         style="fill:none;stroke:#000000;stroke-width:0.06" />
      <line
         x1="-2"
         x2="-1.5"
         y1="-1"
         y2="-1"
         id="line13"
         style="fill:none;stroke:#000000;stroke-width:0.04" />
      <line
         x1="2.5"
         x2="2"
         y1="-0.5"
         y2="-0.5"
         id="line15"
         style="fill:none;stroke:#000000;stroke-width:0.04" />
      <line
         x1="2.5"
         x2="2"
         y1="0.5"
         y2="0.5"
         id="line17"
         style="fill:none;stroke:#000000;stroke-width:0.04" />
      <line
         x1="-2"
         x2="-1.5"
         y1="-2"
         y2="-2"
         id="line19"
         style="fill:none;stroke:#000000;stroke-width:0.04" />
      <line
         x1="-2"
         x2="-1.5"
         y1="2"
         y2="2"
         id="line21"
         style="fill:none;stroke:#000000;stroke-width:0.04" />
      <line
         x1="-2"
         x2="-1.5"
         y1="1"
         y2="1"
         id="line23"
         style="fill:none;stroke:#000000;stroke-width:0.04" />
      <path
         d="m -1.0314,-0.9702 -0.0306,0.156 -0.0449,0 0.0083,-0.0415 q -0.0198,0.0244 -0.045,0.0365 -0.0253,0.0121 -0.0563,0.0121 -0.0349,0 -0.0572,-0.0214 -0.0224,-0.0214 -0.0224,-0.0548 0,-0.0478 0.0382,-0.0757 0.0382,-0.0278 0.1054,-0.0278 l 0.0625,0 0.0024,-0.012 q 5e-4,-0.0019 7e-4,-0.0043 3e-4,-0.0023 3e-4,-0.0072 0,-0.0217 -0.0177,-0.0338 -0.0177,-0.012 -0.0497,-0.012 -0.022,0 -0.045,0.0056 -0.0231,0.0056 -0.0475,0.0168 l 0.0078,-0.0415 q 0.0254,-0.0095 0.0497,-0.0143 0.0243,-0.0047 0.047,-0.0047 0.0483,0 0.0736,0.021 0.0252,0.021 0.0252,0.061 0,0.0081 -0.0012,0.0189 -0.0012,0.0109 -0.0036,0.0231 z m -0.0486,0.0185 -0.045,0 q -0.0551,0 -0.0816,0.0148 -0.0265,0.0148 -0.0265,0.0458 0,0.0215 0.0135,0.0337 0.0136,0.0122 0.0375,0.0122 0.0366,0 0.064,-0.0263 0.0273,-0.0262 0.0361,-0.0701 l 0.002,-0.0101 z m 0.1189,0.096 0.0805,0 0.0545,-0.2805 -0.0911,0.0176 0.0086,-0.0425 0.0905,-0.0176 0.0496,0 -0.063,0.323 0.0803,0 -0.0078,0.0415 -0.2102,0 0.0081,-0.0415 z"
         id="path25"
         inkscape:connector-curvature="0"
         style="fill:#0000ff;stroke:none;stroke-width:0.04" />
      <path
         d="m 1.809,-0.5919 q -0.0068,-0.0037 -0.0156,-0.0056 -0.0088,-0.002 -0.0188,-0.002 -0.0359,0 -0.0627,0.0272 -0.0269,0.0273 -0.0357,0.0729 l -0.0276,0.1394 -0.0449,0 0.0535,-0.2734 0.0449,0 -0.0086,0.0425 Q 1.7114,-0.6146 1.7362,-0.6273 1.7609,-0.64 1.789,-0.64 q 0.0073,0 0.0144,8e-4 0.0071,9e-4 0.0142,0.0028 L 1.809,-0.5919 Z"
         id="path27"
         inkscape:connector-curvature="0"
         style="fill:#0000ff;stroke:none;stroke-width:0.04" />
      <path
         d="m 1.8156,0.4876 -0.0305,0.156 -0.0449,0 0.0083,-0.0415 Q 1.7287,0.6265 1.7035,0.6385 1.6782,0.6506 1.6472,0.6506 1.6123,0.6506 1.5899,0.6293 1.5676,0.6079 1.5676,0.5745 1.5676,0.5266 1.6058,0.4988 1.644,0.4709 1.7111,0.4709 l 0.0625,0 0.0025,-0.0119 q 5e-4,-0.002 7e-4,-0.0043 3e-4,-0.0023 3e-4,-0.0072 0,-0.0217 -0.0177,-0.0338 -0.0177,-0.0121 -0.0497,-0.0121 -0.022,0 -0.0451,0.0056 -0.023,0.0056 -0.0475,0.0169 L 1.625,0.3826 Q 1.6503,0.373 1.6746,0.3683 1.6989,0.3635 1.7216,0.3635 q 0.0484,0 0.0737,0.021 0.0252,0.021 0.0252,0.0611 0,0.008 -0.0012,0.0189 -0.0012,0.0108 -0.0037,0.0231 z m -0.0486,0.0185 -0.0449,0 q -0.0551,0 -0.0816,0.0148 -0.0265,0.0147 -0.0265,0.0457 0,0.0215 0.0135,0.0337 0.0136,0.0123 0.0375,0.0123 0.0366,0 0.064,-0.0263 0.0273,-0.0262 0.0361,-0.0702 l 0.0019,-0.01 z"
         id="path29"
         inkscape:connector-curvature="0"
         style="fill:#ff0000;stroke:none;stroke-width:0.04" />
      <path
         d="m -1.0771,-2.0497 q -0.0068,-0.0036 -0.0156,-0.0056 -0.0088,-0.002 -0.0188,-0.002 -0.0359,0 -0.0628,0.0273 -0.0268,0.0272 -0.0356,0.0728 l -0.0276,0.1395 -0.0449,0 0.0534,-0.2735 0.045,0 -0.0086,0.0425 q 0.0179,-0.0237 0.0426,-0.0364 0.0248,-0.0127 0.0529,-0.0127 0.0073,0 0.0144,9e-4 0.0071,8e-4 0.0142,0.0028 l -0.0086,0.0444 z m 0.0151,0.1905 0.0806,0 0.0545,-0.2806 -0.0911,0.0176 0.0085,-0.0425 0.0906,-0.0176 0.0496,0 -0.063,0.3231 0.0803,0 -0.0078,0.0415 -0.2102,0 0.008,-0.0415 z"
         id="path31"
         inkscape:connector-curvature="0"
         style="fill:#ff0000;stroke:none;stroke-width:0.04" />
      <path
         d="m -1.0314,2.0331 -0.0306,0.156 -0.0449,0 0.0083,-0.0415 q -0.0198,0.0244 -0.045,0.0365 -0.0253,0.0121 -0.0563,0.0121 -0.0349,0 -0.0572,-0.0214 -0.0224,-0.0214 -0.0224,-0.0548 0,-0.0479 0.0382,-0.0757 0.0382,-0.0278 0.1054,-0.0278 l 0.0625,0 0.0024,-0.012 q 5e-4,-0.0019 7e-4,-0.0043 3e-4,-0.0023 3e-4,-0.0072 0,-0.0217 -0.0177,-0.0338 -0.0177,-0.0121 -0.0497,-0.0121 -0.022,0 -0.045,0.0057 -0.0231,0.0056 -0.0475,0.0168 l 0.0078,-0.0415 q 0.0254,-0.0095 0.0497,-0.0143 0.0243,-0.0047 0.047,-0.0047 0.0483,0 0.0736,0.021 0.0252,0.021 0.0252,0.061 0,0.008 -0.0012,0.0189 -0.0012,0.0109 -0.0036,0.0231 z m -0.0486,0.0185 -0.045,0 q -0.0551,0 -0.0816,0.0148 -0.0265,0.0148 -0.0265,0.0458 0,0.0215 0.0135,0.0337 0.0136,0.0122 0.0375,0.0122 0.0366,0 0.064,-0.0263 0.0273,-0.0262 0.0361,-0.0702 l 0.002,-0.01 z m 0.3169,-0.0385 -0.1575,0.135 0.1741,0 -0.0086,0.041 -0.2366,0 0.0081,-0.0415 0.1646,-0.1411 q 0.0329,-0.0286 0.0467,-0.0502 0.0138,-0.0216 0.0138,-0.0443 0,-0.0237 -0.0166,-0.0386 -0.0166,-0.0149 -0.0435,-0.0149 -0.0231,0 -0.0515,0.0083 -0.0283,0.0083 -0.0605,0.0242 l 0.009,-0.0488 q 0.0303,-0.012 0.0579,-0.0181 0.0276,-0.0061 0.051,-0.0061 0.0479,0 0.077,0.0254 0.0292,0.0254 0.0292,0.0666 0,0.0279 -0.0139,0.0531 -0.0139,0.0253 -0.0427,0.05 z"
         id="path33"
         inkscape:connector-curvature="0"
         style="fill:#0000ff;stroke:none;stroke-width:0.04" />
      <path
         d="M -1.0771,0.9536 Q -1.0839,0.95 -1.0927,0.948 -1.1015,0.946 -1.1115,0.946 q -0.0359,0 -0.0628,0.0273 -0.0268,0.0272 -0.0356,0.0728 l -0.0276,0.1394 -0.0449,0 0.0534,-0.2734 0.045,0 -0.0086,0.0425 q 0.0179,-0.0237 0.0426,-0.0364 0.0248,-0.0127 0.0529,-0.0127 0.0073,0 0.0144,9e-4 0.0071,8e-4 0.0142,0.0028 l -0.0086,0.0444 z m 0.2131,0.0559 -0.1574,0.135 0.174,0 -0.0085,0.041 -0.2366,0 0.0081,-0.0415 0.1645,-0.1411 q 0.033,-0.0285 0.0468,-0.0501 0.0138,-0.0216 0.0138,-0.0443 0,-0.0237 -0.0166,-0.0386 -0.0166,-0.0149 -0.0435,-0.0149 -0.0232,0 -0.0515,0.0083 -0.0283,0.0083 -0.0605,0.0242 l 0.009,-0.0489 q 0.0303,-0.0119 0.0578,-0.018 0.0276,-0.0061 0.0511,-0.0061 0.0478,0 0.077,0.0253 0.0292,0.0254 0.0292,0.0667 0,0.0278 -0.0139,0.0531 -0.014,0.0253 -0.0428,0.0499 z"
         id="path35"
         inkscape:connector-curvature="0"
         style="fill:#ff0000;stroke:none;stroke-width:0.04" />
    </g>
    <g
       font-size="0.5px"
       transform="matrix(50,0,0,50,110.5,130)"
       id="g37"
       style="font-size:0.5px;font-family:sans-serif;stroke-width:0.04">
      <path
         d="m 0.0449,-0.1987 q -0.0537,0 -0.0853,0.04 -0.0316,0.0401 -0.0316,0.1092 0,0.0688 0.0316,0.1089 0.0316,0.04 0.0853,0.04 0.0537,0 0.0851,-0.04 0.0314,-0.0401 0.0314,-0.1089 0,-0.0691 -0.0314,-0.1092 -0.0314,-0.04 -0.0851,-0.04 z m 0,-0.04 q 0.0767,0 0.1226,0.0514 0.0459,0.0513 0.0459,0.1378 0,0.0862 -0.0459,0.1375 -0.0459,0.0514 -0.1226,0.0514 -0.0769,0 -0.1229,-0.0512 -0.046,-0.0513 -0.046,-0.1377 0,-0.0865 0.046,-0.1378 0.046,-0.0514 0.1229,-0.0514 z m 0.2456,0.0066 0.0735,0 0.093,0.248 0.0935,-0.248 0.0735,0 0,0.3645 -0.0481,0 0,-0.3201 -0.094,0.25 -0.0495,0 -0.094,-0.25 0,0.3201 -0.0479,0 0,-0.3645 z"
         id="path39"
         inkscape:connector-curvature="0"
         style="stroke:none" />
    </g>
  </g>
  <path
     style="fill:none;fill-rule:evenodd;stroke:#ffffff;stroke-width:1px;stroke-linecap:butt;stroke-linejoin:miter;stroke-opacity:1"
     d="m 30.5,360.5 160,0"
     id="path8105"
     inkscape:path-effect="#path-effect8107"
     inkscape:original-d="m 30.5,360.5 160,0"
     inkscape:connector-curvature="0" />
  <path
     style="fill:none;fill-rule:evenodd;stroke:#ffffff;stroke-width:1px;stroke-linecap:butt;stroke-linejoin:miter;stroke-opacity:1"
     d="m 30.5,0.5 160,0"
     id="path8105-6"
     inkscape:path-effect="#path-effect8107-3"
     inkscape:original-d="m 30.5,0.5 160,0"
     inkscape:connector-curvature="0" />
</svg>
