<?xml version="1.0" encoding="UTF-8" standalone="no"?>
<svg xmlns:dc="http://purl.org/dc/elements/1.1/" xmlns:cc="http://creativecommons.org/ns#" xmlns:rdf="http://www.w3.org/1999/02/22-rdf-syntax-ns#" xmlns:svg="http://www.w3.org/2000/svg" xmlns="http://www.w3.org/2000/svg" xmlns:sodipodi="http://sodipodi.sourceforge.net/DTD/sodipodi-0.dtd" xmlns:inkscape="http://www.inkscape.org/namespaces/inkscape" font-size="12px" font-style="normal" font-weight="normal" height="100%" stroke-miterlimit="10" width="100%" id="svg2" version="1.1" inkscape:version="0.91 r13725" sodipodi:docname="rwait.stg.svg" style="font-style:normal;font-weight:normal;font-size:12px;font-family:Dialog;color-interpolation:auto;fill:#000000;fill-opacity:1;stroke:#000000;stroke-width:1;stroke-linecap:square;stroke-linejoin:miter;stroke-miterlimit:10;stroke-dasharray:none;stroke-dashoffset:0;stroke-opacity:1;color-rendering:auto;image-rendering:auto;shape-rendering:auto;text-rendering:auto" viewBox="0 0 961 726" preserveAspectRatio="xMidYMid slice">
  <metadata
     id="metadata409">
    <rdf:RDF>
      <cc:Work
         rdf:about="">
        <dc:format>image/svg+xml</dc:format>
        <dc:type
           rdf:resource="http://purl.org/dc/dcmitype/StillImage" />
        <dc:title></dc:title>
      </cc:Work>
    </rdf:RDF>
  </metadata>
  <sodipodi:namedview
     pagecolor="#ffffff"
     bordercolor="#666666"
     borderopacity="1"
     objecttolerance="10"
     gridtolerance="10"
     guidetolerance="10"
     inkscape:pageopacity="0"
     inkscape:pageshadow="2"
     inkscape:window-width="1920"
     inkscape:window-height="1176"
     id="namedview407"
     showgrid="false"
     fit-margin-top="0"
     fit-margin-left="0"
     fit-margin-right="0"
     fit-margin-bottom="0"
     inkscape:zoom="0.88441079"
     inkscape:cx="132.7933"
     inkscape:cy="523.4442"
     inkscape:window-x="0"
     inkscape:window-y="24"
     inkscape:window-maximized="1"
     inkscape:current-layer="svg2" />
  <!--Generated by the Batik Graphics2D SVG Generator-->
  <defs
     id="genericDefs" />
  <g
     style="font-size:0.75px;font-family:sans-serif"
     id="g7"
     transform="matrix(50,0,0,50,322.335,414.6796)"
     font-size="0.75px">
    <path
       style="stroke:none"
       inkscape:connector-curvature="0"
       id="path9"
       d="m 0.1901,-0.0712 0,0.033 -0.3099,0 q 0.0044,0.0695 0.042,0.106 0.0375,0.0364 0.1045,0.0364 0.0389,0 0.0753,-0.0095 0.0364,-0.0095 0.0723,-0.0286 l 0,0.0638 Q 0.1381,0.1452 0.1,0.1533 0.0619,0.1614 0.0227,0.1614 q -0.0981,0 -0.1555,-0.0572 -0.0573,-0.0571 -0.0573,-0.1545 0,-0.1007 0.0544,-0.1599 0.0544,-0.0591 0.1467,-0.0591 0.0828,0 0.1309,0.0533 0.0482,0.0533 0.0482,0.1448 z M 0.1227,-0.091 q -8e-4,-0.0553 -0.031,-0.0882 -0.0302,-0.033 -0.08,-0.033 -0.0564,0 -0.0903,0.0319 -0.0338,0.0318 -0.039,0.0897 l 0.2403,-4e-4 z" />
  </g>
  <g
     style="font-size:0.75px;font-family:sans-serif;fill:#b20000;stroke:#b20000"
     id="g11"
     transform="matrix(50,0,0,50,472.335,714.6775)"
     font-size="0.75px">
    <path
       style="stroke:none"
       inkscape:connector-curvature="0"
       id="path13"
       d="m -0.5409,-0.1912 0,0.0629 q -0.0286,-0.0157 -0.0573,-0.0236 -0.0288,-0.0079 -0.0581,-0.0079 -0.0655,0 -0.1018,0.0416 -0.0362,0.0416 -0.0362,0.1166 0,0.0751 0.0362,0.1167 0.0363,0.0415 0.1018,0.0415 0.0293,0 0.0581,-0.0078 0.0287,-0.0079 0.0573,-0.0236 l 0,0.0622 q -0.0282,0.0132 -0.0584,0.0198 -0.0302,0.0066 -0.0643,0.0066 -0.0926,0 -0.1472,-0.0582 -0.0546,-0.0583 -0.0546,-0.1572 0,-0.1003 0.0552,-0.1578 0.0551,-0.0575 0.151,-0.0575 0.0312,0 0.0608,0.0064 0.0297,0.0064 0.0575,0.0193 z m 0.1838,-0.1323 0,0.1165 0.1388,0 0,0.0524 -0.1388,0 0,0.2226 q 0,0.0502 0.0138,0.0645 0.0137,0.0143 0.0558,0.0143 l 0.0692,0 0,0.0564 -0.0692,0 q -0.078,0 -0.1076,-0.0292 -0.0297,-0.0291 -0.0297,-0.106 l 0,-0.2226 -0.0494,0 0,-0.0524 0.0494,0 0,-0.1165 0.0677,0 z M 0.108,-0.144 Q 0.0967,-0.1506 0.0833,-0.1537 0.07,-0.1568 0.0538,-0.1568 q -0.0571,0 -0.0877,0.0371 -0.0306,0.0372 -0.0306,0.1068 l 0,0.2161 -0.0677,0 0,-0.4102 0.0677,0 0,0.0637 q 0.0213,-0.0373 0.0553,-0.0555 0.0341,-0.0181 0.0828,-0.0181 0.007,0 0.0154,9e-4 0.0084,9e-4 0.0187,0.0028 l 3e-4,0.0692 z m 0.0707,-0.2227 0.0674,0 0,0.5699 -0.0674,0 0,-0.5699 z m 0.4827,0.0996 0,0.204 0.204,0 0,0.0623 -0.204,0 0,0.204 -0.0615,0 0,-0.204 -0.204,0 0,-0.0623 0.204,0 0,-0.204 0.0615,0 z" />
  </g>
  <g
     style="font-size:0.75px;font-family:sans-serif;fill:#0000b2;stroke:#0000b2"
     id="g15"
     transform="matrix(50,0,0,50,322.335,114.6775)"
     font-size="0.75px">
    <path
       style="stroke:none"
       inkscape:connector-curvature="0"
       id="path17"
       d="m -0.6255,-0.2298 0,0.0638 q -0.0286,-0.0147 -0.0593,-0.022 -0.0308,-0.0073 -0.0637,-0.0073 -0.0502,0 -0.0753,0.0153 -0.0251,0.0154 -0.0251,0.0462 0,0.0234 0.018,0.0368 0.0179,0.0133 0.0721,0.0254 l 0.0231,0.0052 q 0.0718,0.0153 0.102,0.0434 0.0302,0.028 0.0302,0.0781 0,0.0572 -0.0452,0.0905 -0.0453,0.0333 -0.1244,0.0333 -0.0329,0 -0.0686,-0.0064 Q -0.8774,0.1661 -0.917,0.1533 l 0,-0.0696 q 0.0374,0.0194 0.0736,0.0291 0.0363,0.0097 0.0718,0.0097 0.0476,0 0.0732,-0.0163 0.0257,-0.0163 0.0257,-0.0459 0,-0.0275 -0.0185,-0.0422 Q -0.7097,0.0035 -0.7723,-0.01 l -0.0235,-0.0055 q -0.0626,-0.0132 -0.0904,-0.0405 -0.0279,-0.0273 -0.0279,-0.0749 0,-0.0579 0.041,-0.0894 0.0411,-0.0315 0.1165,-0.0315 0.0374,0 0.0703,0.0055 0.033,0.0055 0.0608,0.0165 z m 0.3157,0.1919 q -0.0817,0 -0.1132,0.0187 -0.0315,0.0187 -0.0315,0.0637 0,0.0359 0.0236,0.057 0.0237,0.021 0.0643,0.021 0.056,0 0.0899,-0.0397 0.0339,-0.0398 0.0339,-0.1057 l 0,-0.015 -0.067,0 z m 0.1344,-0.0278 0,0.234 -0.0674,0 0,-0.0623 q -0.0231,0.0374 -0.0575,0.0552 -0.0344,0.0177 -0.0842,0.0177 -0.063,0 -0.1002,-0.0353 -0.0372,-0.0354 -0.0372,-0.0947 0,-0.0692 0.0464,-0.1044 0.0463,-0.0351 0.1382,-0.0351 l 0.0945,0 0,-0.0066 q 0,-0.0465 -0.0306,-0.072 -0.0306,-0.0254 -0.0859,-0.0254 -0.0351,0 -0.0684,0.0084 -0.0334,0.0084 -0.0641,0.0253 l 0,-0.0623 q 0.037,-0.0143 0.0718,-0.0214 0.0347,-0.0072 0.0677,-0.0072 0.089,0 0.1329,0.0462 0.044,0.0461 0.044,0.1399 z m 0.4797,-0.0136 0,0.2476 -0.0674,0 0,-0.2454 q 0,-0.0582 -0.0227,-0.0871 -0.0227,-0.029 -0.0681,-0.029 -0.0545,0 -0.086,0.0348 -0.0315,0.0348 -0.0315,0.0949 l 0,0.2318 -0.0678,0 0,-0.4102 0.0678,0 0,0.0638 q 0.0241,-0.037 0.0569,-0.0553 0.0328,-0.0184 0.0756,-0.0184 0.0707,0 0.107,0.0438 0.0362,0.0438 0.0362,0.1287 z m 0.4087,-0.2226 0,0.204 0.204,0 0,0.0622 -0.204,0 0,0.204 -0.0615,0 0,-0.204 -0.204,0 0,-0.0622 0.204,0 0,-0.204 0.0615,0 z" />
  </g>
  <g
     style="font-size:0.75px;font-family:sans-serif;fill:#b20000;stroke:#b20000"
     id="g19"
     transform="matrix(50,0,0,50,472.335,414.6775)"
     font-size="0.75px">
    <path
       style="stroke:none"
       inkscape:connector-curvature="0"
       id="path21"
       d="m -0.4971,-0.3667 0,0.0561 -0.0645,0 q -0.0362,0 -0.0503,0.0146 -0.0141,0.0147 -0.0141,0.0528 l 0,0.0362 0.1109,0 0,0.0524 -0.1109,0 0,0.3578 -0.0678,0 0,-0.3578 -0.0644,0 0,-0.0524 0.0644,0 0,-0.0286 q 0,-0.0684 0.0319,-0.0998 0.0318,-0.0313 0.101,-0.0313 l 0.0638,0 z m 0.294,0.2227 q -0.0113,-0.0066 -0.0247,-0.0097 -0.0134,-0.0031 -0.0295,-0.0031 -0.0571,0 -0.0877,0.0371 -0.0306,0.0372 -0.0306,0.1068 l 0,0.2161 -0.0677,0 0,-0.4102 0.0677,0 0,0.0637 q 0.0213,-0.0373 0.0553,-0.0555 0.0341,-0.0181 0.0828,-0.0181 0.007,0 0.0154,9e-4 0.0084,9e-4 0.0187,0.0028 l 3e-4,0.0692 z m 0.3659,-0.0472 0,0.0629 Q 0.1342,-0.144 0.1055,-0.1519 0.0767,-0.1598 0.0474,-0.1598 q -0.0655,0 -0.1018,0.0416 -0.0362,0.0416 -0.0362,0.1166 0,0.0751 0.0362,0.1167 0.0363,0.0415 0.1018,0.0415 0.0293,0 0.0581,-0.0078 0.0287,-0.0079 0.0573,-0.0236 l 0,0.0622 Q 0.1346,0.2006 0.1044,0.2072 0.0741,0.2138 0.0401,0.2138 q -0.0927,0 -0.1472,-0.0582 -0.0546,-0.0583 -0.0546,-0.1572 0,-0.1003 0.0551,-0.1578 0.0551,-0.0575 0.1511,-0.0575 0.0311,0 0.0608,0.0064 0.0296,0.0064 0.0575,0.0193 z m 0.3915,-0.0759 0,0.204 0.2039,0 0,0.0623 -0.2039,0 0,0.204 -0.0616,0 0,-0.204 -0.2039,0 0,-0.0623 0.2039,0 0,-0.204 0.0616,0 z" />
  </g>
  <g
     style="font-size:0.75px;font-family:sans-serif;fill:#b20000;stroke:#b20000"
     id="g23"
     transform="matrix(50,0,0,50,772.335,414.6775)"
     font-size="0.75px">
    <path
       style="stroke:none"
       inkscape:connector-curvature="0"
       id="path25"
       d="m -0.3397,-0.3667 0,0.0561 -0.0644,0 q -0.0363,0 -0.0504,0.0146 -0.0141,0.0147 -0.0141,0.0528 l 0,0.0362 0.111,0 0,0.0524 -0.111,0 0,0.3578 -0.0677,0 0,-0.3578 -0.0645,0 0,-0.0524 0.0645,0 0,-0.0286 q 0,-0.0684 0.0318,-0.0998 0.0319,-0.0313 0.1011,-0.0313 l 0.0637,0 z m 0.2941,0.2227 q -0.0113,-0.0066 -0.0247,-0.0097 -0.0134,-0.0031 -0.0295,-0.0031 -0.0571,0 -0.0877,0.0371 -0.0306,0.0372 -0.0306,0.1068 l 0,0.2161 -0.0677,0 0,-0.4102 0.0677,0 0,0.0637 q 0.0213,-0.0373 0.0553,-0.0555 0.0341,-0.0181 0.0828,-0.0181 0.0069,0 0.0154,9e-4 0.0084,9e-4 0.0186,0.0028 l 4e-4,0.0692 z m 0.3658,-0.0472 0,0.0629 Q 0.2917,-0.144 0.2629,-0.1519 0.2342,-0.1598 0.2049,-0.1598 q -0.0656,0 -0.1018,0.0416 -0.0363,0.0416 -0.0363,0.1166 0,0.0751 0.0363,0.1167 0.0362,0.0415 0.1018,0.0415 0.0293,0 0.058,-0.0078 0.0288,-0.0079 0.0573,-0.0236 l 0,0.0622 Q 0.292,0.2006 0.2618,0.2072 0.2316,0.2138 0.1976,0.2138 q -0.0927,0 -0.1473,-0.0582 -0.0545,-0.0583 -0.0545,-0.1572 0,-0.1003 0.0551,-0.1578 0.0551,-0.0575 0.1511,-0.0575 0.0311,0 0.0608,0.0064 0.0296,0.0064 0.0574,0.0193 z m 0.0832,0.1589 0.1974,0 0,0.06 -0.1974,0 0,-0.06 z" />
  </g>
  <g
     style="font-size:0.75px;font-family:sans-serif;fill:#ffffff;stroke:#ffffff"
     id="g27"
     transform="matrix(50,0,0,50,322.335,564.6775)"
     font-size="0.75px">
    <circle
       style="stroke:none"
       id="circle29"
       r="0.44999999"
       cy="0"
       cx="0" />
    <circle
       style="fill:none;stroke:#000000;stroke-width:0.1"
       id="circle31"
       r="0.44999999"
       cy="0"
       cx="0" />
  </g>
  <g
     style="font-size:0.75px;font-family:sans-serif;fill:#0000b2;stroke:#0000b2;stroke-width:0.1"
     id="g37"
     transform="matrix(50,0,0,50,772.335,114.6775)"
     font-size="0.75px">
    <path
       style="stroke:none"
       inkscape:connector-curvature="0"
       id="path39"
       d="m -0.6255,-0.2298 0,0.0638 q -0.0286,-0.0147 -0.0593,-0.022 -0.0308,-0.0073 -0.0637,-0.0073 -0.0502,0 -0.0753,0.0153 -0.0251,0.0154 -0.0251,0.0462 0,0.0234 0.018,0.0368 0.0179,0.0133 0.0721,0.0254 l 0.0231,0.0052 q 0.0718,0.0153 0.102,0.0434 0.0302,0.028 0.0302,0.0781 0,0.0572 -0.0452,0.0905 -0.0453,0.0333 -0.1244,0.0333 -0.0329,0 -0.0686,-0.0064 Q -0.8774,0.1661 -0.917,0.1533 l 0,-0.0696 q 0.0374,0.0194 0.0736,0.0291 0.0363,0.0097 0.0718,0.0097 0.0476,0 0.0732,-0.0163 0.0257,-0.0163 0.0257,-0.0459 0,-0.0275 -0.0185,-0.0422 Q -0.7097,0.0035 -0.7723,-0.01 l -0.0235,-0.0055 q -0.0626,-0.0132 -0.0904,-0.0405 -0.0279,-0.0273 -0.0279,-0.0749 0,-0.0579 0.041,-0.0894 0.0411,-0.0315 0.1165,-0.0315 0.0374,0 0.0703,0.0055 0.033,0.0055 0.0608,0.0165 z m 0.3157,0.1919 q -0.0817,0 -0.1132,0.0187 -0.0315,0.0187 -0.0315,0.0637 0,0.0359 0.0236,0.057 0.0237,0.021 0.0643,0.021 0.056,0 0.0899,-0.0397 0.0339,-0.0398 0.0339,-0.1057 l 0,-0.015 -0.067,0 z m 0.1344,-0.0278 0,0.234 -0.0674,0 0,-0.0623 q -0.0231,0.0374 -0.0575,0.0552 -0.0344,0.0177 -0.0842,0.0177 -0.063,0 -0.1002,-0.0353 -0.0372,-0.0354 -0.0372,-0.0947 0,-0.0692 0.0464,-0.1044 0.0463,-0.0351 0.1382,-0.0351 l 0.0945,0 0,-0.0066 q 0,-0.0465 -0.0306,-0.072 -0.0306,-0.0254 -0.0859,-0.0254 -0.0351,0 -0.0684,0.0084 -0.0334,0.0084 -0.0641,0.0253 l 0,-0.0623 q 0.037,-0.0143 0.0718,-0.0214 0.0347,-0.0072 0.0677,-0.0072 0.089,0 0.1329,0.0462 0.044,0.0461 0.044,0.1399 z m 0.4797,-0.0136 0,0.2476 -0.0674,0 0,-0.2454 q 0,-0.0582 -0.0227,-0.0871 -0.0227,-0.029 -0.0681,-0.029 -0.0545,0 -0.086,0.0348 -0.0315,0.0348 -0.0315,0.0949 l 0,0.2318 -0.0678,0 0,-0.4102 0.0678,0 0,0.0638 q 0.0241,-0.037 0.0569,-0.0553 0.0328,-0.0184 0.0756,-0.0184 0.0707,0 0.107,0.0438 0.0362,0.0438 0.0362,0.1287 z m 0.4087,-0.2226 0,0.204 0.204,0 0,0.0622 -0.204,0 0,0.204 -0.0615,0 0,-0.204 -0.204,0 0,-0.0622 0.204,0 0,-0.204 0.0615,0 z" />
  </g>
  <g
     style="font-size:0.75px;font-family:sans-serif;fill:#ffffff;stroke:#ffffff;stroke-width:0.1"
     id="g41"
     transform="matrix(50,0,0,50,472.335,564.6775)"
     font-size="0.75px">
    <circle
       style="stroke:none"
       id="circle43"
       r="0.44999999"
       cy="0"
       cx="0" />
    <circle
       style="fill:none;stroke:#000000"
       id="circle45"
       r="0.44999999"
       cy="0"
       cx="0" />
  </g>
  <g
     style="font-size:0.75px;font-family:sans-serif;fill:#b20000;stroke:#b20000;stroke-width:0.1"
     id="g51"
     transform="matrix(50,0,0,50,622.335,564.6775)"
     font-size="0.75px">
    <path
       style="stroke:none"
       inkscape:connector-curvature="0"
       id="path53"
       d="m -0.3834,-0.1912 0,0.0629 q -0.0286,-0.0157 -0.0573,-0.0236 -0.0288,-0.0079 -0.0581,-0.0079 -0.0655,0 -0.1018,0.0416 -0.0362,0.0416 -0.0362,0.1166 0,0.0751 0.0362,0.1167 0.0363,0.0415 0.1018,0.0415 0.0293,0 0.0581,-0.0078 0.0287,-0.0079 0.0573,-0.0236 l 0,0.0622 q -0.0282,0.0132 -0.0584,0.0198 -0.0302,0.0066 -0.0643,0.0066 -0.0927,0 -0.1472,-0.0582 -0.0546,-0.0583 -0.0546,-0.1572 0,-0.1003 0.0551,-0.1578 0.0551,-0.0575 0.1511,-0.0575 0.0311,0 0.0608,0.0064 0.0296,0.0064 0.0575,0.0193 z m 0.1838,-0.1323 0,0.1165 0.1388,0 0,0.0524 -0.1388,0 0,0.2226 q 0,0.0502 0.0137,0.0645 0.0138,0.0143 0.0559,0.0143 l 0.0692,0 0,0.0564 -0.0692,0 q -0.078,0 -0.1077,-0.0292 -0.0296,-0.0291 -0.0296,-0.106 l 0,-0.2226 -0.0495,0 0,-0.0524 0.0495,0 0,-0.1165 0.0677,0 z M 0.2655,-0.144 Q 0.2542,-0.1506 0.2408,-0.1537 0.2274,-0.1568 0.2113,-0.1568 q -0.0571,0 -0.0877,0.0371 -0.0306,0.0372 -0.0306,0.1068 l 0,0.2161 -0.0677,0 0,-0.4102 0.0677,0 0,0.0637 q 0.0213,-0.0373 0.0553,-0.0555 0.0341,-0.0181 0.0828,-0.0181 0.0069,0 0.0154,9e-4 0.0084,9e-4 0.0186,0.0028 l 4e-4,0.0692 z m 0.0707,-0.2227 0.0674,0 0,0.5699 -0.0674,0 0,-0.5699 z m 0.1743,0.3344 0.1974,0 0,0.06 -0.1974,0 0,-0.06 z" />
  </g>
  <g
     style="font-size:0.75px;font-family:sans-serif;fill:#ffffff;stroke:#ffffff;stroke-width:0.1"
     id="g55"
     transform="matrix(50,0,0,50,322.335,264.6775)"
     font-size="0.75px">
    <circle
       style="stroke:none"
       id="circle57"
       r="0.44999999"
       cy="0"
       cx="0" />
    <circle
       style="fill:none;stroke:#000000"
       id="circle59"
       r="0.44999999"
       cy="0"
       cx="0" />
  </g>
  <circle
     cx="772.33502"
     cy="564.67749"
     r="22.5"
     id="circle67"
     style="font-style:italic;font-size:medium;font-family:sans-serif;fill:#ffffff;stroke:none;stroke-width:0.1" />
  <circle
     cx="772.33502"
     cy="564.67749"
     r="22.5"
     id="circle69"
     style="font-style:italic;font-size:medium;font-family:sans-serif;fill:none;stroke:#000000;stroke-width:5" />
  <circle
     cx="772.33502"
     cy="564.67749"
     r="13.160001"
     id="circle71"
     style="font-style:italic;font-size:medium;font-family:sans-serif;fill:#000000;stroke:none;stroke-width:0.1" />
  <g
     style="font-size:0.75px;font-family:sans-serif;fill:#0000b2;stroke:#0000b2;stroke-width:0.1"
     id="g75"
     transform="matrix(50,0,0,50,472.335,114.6775)"
     font-size="0.75px">
    <path
       style="stroke:none"
       inkscape:connector-curvature="0"
       id="path77"
       d="m -0.6255,-0.2298 0,0.0638 q -0.0286,-0.0147 -0.0593,-0.022 -0.0308,-0.0073 -0.0637,-0.0073 -0.0502,0 -0.0753,0.0153 -0.0251,0.0154 -0.0251,0.0462 0,0.0234 0.018,0.0368 0.0179,0.0133 0.0721,0.0254 l 0.0231,0.0052 q 0.0718,0.0153 0.102,0.0434 0.0302,0.028 0.0302,0.0781 0,0.0572 -0.0452,0.0905 -0.0453,0.0333 -0.1244,0.0333 -0.0329,0 -0.0686,-0.0064 Q -0.8774,0.1661 -0.917,0.1533 l 0,-0.0696 q 0.0374,0.0194 0.0736,0.0291 0.0363,0.0097 0.0718,0.0097 0.0476,0 0.0732,-0.0163 0.0257,-0.0163 0.0257,-0.0459 0,-0.0275 -0.0185,-0.0422 Q -0.7097,0.0035 -0.7723,-0.01 l -0.0235,-0.0055 q -0.0626,-0.0132 -0.0904,-0.0405 -0.0279,-0.0273 -0.0279,-0.0749 0,-0.0579 0.041,-0.0894 0.0411,-0.0315 0.1165,-0.0315 0.0374,0 0.0703,0.0055 0.033,0.0055 0.0608,0.0165 z m 0.3157,0.1919 q -0.0817,0 -0.1132,0.0187 -0.0315,0.0187 -0.0315,0.0637 0,0.0359 0.0236,0.057 0.0237,0.021 0.0643,0.021 0.056,0 0.0899,-0.0397 0.0339,-0.0398 0.0339,-0.1057 l 0,-0.015 -0.067,0 z m 0.1344,-0.0278 0,0.234 -0.0674,0 0,-0.0623 q -0.0231,0.0374 -0.0575,0.0552 -0.0344,0.0177 -0.0842,0.0177 -0.063,0 -0.1002,-0.0353 -0.0372,-0.0354 -0.0372,-0.0947 0,-0.0692 0.0464,-0.1044 0.0463,-0.0351 0.1382,-0.0351 l 0.0945,0 0,-0.0066 q 0,-0.0465 -0.0306,-0.072 -0.0306,-0.0254 -0.0859,-0.0254 -0.0351,0 -0.0684,0.0084 -0.0334,0.0084 -0.0641,0.0253 l 0,-0.0623 q 0.037,-0.0143 0.0718,-0.0214 0.0347,-0.0072 0.0677,-0.0072 0.089,0 0.1329,0.0462 0.044,0.0461 0.044,0.1399 z m 0.4797,-0.0136 0,0.2476 -0.0674,0 0,-0.2454 q 0,-0.0582 -0.0227,-0.0871 -0.0227,-0.029 -0.0681,-0.029 -0.0545,0 -0.086,0.0348 -0.0315,0.0348 -0.0315,0.0949 l 0,0.2318 -0.0678,0 0,-0.4102 0.0678,0 0,0.0638 q 0.0241,-0.037 0.0569,-0.0553 0.0328,-0.0184 0.0756,-0.0184 0.0707,0 0.107,0.0438 0.0362,0.0438 0.0362,0.1287 z m 0.4087,-0.2226 0,0.204 0.204,0 0,0.0622 -0.204,0 0,0.204 -0.0615,0 0,-0.204 -0.204,0 0,-0.0622 0.204,0 0,-0.204 0.0615,0 z" />
  </g>
  <g
     style="font-size:0.75px;font-family:sans-serif;fill:#ffffff;stroke:#ffffff;stroke-width:0.1"
     id="g79"
     transform="matrix(50,0,0,50,472.335,264.6775)"
     font-size="0.75px">
    <circle
       style="stroke:none"
       id="circle81"
       r="0.44999999"
       cy="0"
       cx="0" />
    <circle
       style="fill:none;stroke:#000000"
       id="circle83"
       r="0.44999999"
       cy="0"
       cx="0" />
  </g>
  <g
     style="font-size:0.75px;font-family:sans-serif;fill:#b20000;stroke:#b20000;stroke-width:0.1"
     id="g89"
     transform="matrix(50,0,0,50,622.335,264.6775)"
     font-size="0.75px">
    <path
       style="stroke:none"
       inkscape:connector-curvature="0"
       id="path91"
       d="m -0.3834,-0.1912 0,0.0629 q -0.0286,-0.0157 -0.0573,-0.0236 -0.0288,-0.0079 -0.0581,-0.0079 -0.0655,0 -0.1018,0.0416 -0.0362,0.0416 -0.0362,0.1166 0,0.0751 0.0362,0.1167 0.0363,0.0415 0.1018,0.0415 0.0293,0 0.0581,-0.0078 0.0287,-0.0079 0.0573,-0.0236 l 0,0.0622 q -0.0282,0.0132 -0.0584,0.0198 -0.0302,0.0066 -0.0643,0.0066 -0.0927,0 -0.1472,-0.0582 -0.0546,-0.0583 -0.0546,-0.1572 0,-0.1003 0.0551,-0.1578 0.0551,-0.0575 0.1511,-0.0575 0.0311,0 0.0608,0.0064 0.0296,0.0064 0.0575,0.0193 z m 0.1838,-0.1323 0,0.1165 0.1388,0 0,0.0524 -0.1388,0 0,0.2226 q 0,0.0502 0.0137,0.0645 0.0138,0.0143 0.0559,0.0143 l 0.0692,0 0,0.0564 -0.0692,0 q -0.078,0 -0.1077,-0.0292 -0.0296,-0.0291 -0.0296,-0.106 l 0,-0.2226 -0.0495,0 0,-0.0524 0.0495,0 0,-0.1165 0.0677,0 z M 0.2655,-0.144 Q 0.2542,-0.1506 0.2408,-0.1537 0.2274,-0.1568 0.2113,-0.1568 q -0.0571,0 -0.0877,0.0371 -0.0306,0.0372 -0.0306,0.1068 l 0,0.2161 -0.0677,0 0,-0.4102 0.0677,0 0,0.0637 q 0.0213,-0.0373 0.0553,-0.0555 0.0341,-0.0181 0.0828,-0.0181 0.0069,0 0.0154,9e-4 0.0084,9e-4 0.0186,0.0028 l 4e-4,0.0692 z m 0.0707,-0.2227 0.0674,0 0,0.5699 -0.0674,0 0,-0.5699 z m 0.1743,0.3344 0.1974,0 0,0.06 -0.1974,0 0,-0.06 z" />
  </g>
  <g
     style="font-size:0.75px;font-family:sans-serif;fill:#ffffff;stroke:#ffffff;stroke-width:0.1"
     id="g93"
     transform="matrix(50,0,0,50,622.335,414.6775)"
     font-size="0.75px">
    <circle
       style="stroke:none"
       id="circle95"
       r="0.44999999"
       cy="0"
       cx="0" />
    <circle
       style="fill:none;stroke:#000000"
       id="circle97"
       r="0.44999999"
       cy="0"
       cx="0" />
  </g>
  <circle
     cx="772.33502"
     cy="264.67752"
     r="22.5"
     id="circle105"
     style="font-style:italic;font-size:medium;font-family:sans-serif;fill:#ffffff;stroke:none;stroke-width:0.1" />
  <circle
     cx="772.33502"
     cy="264.67752"
     r="22.5"
     id="circle107"
     style="font-style:italic;font-size:medium;font-family:sans-serif;fill:none;stroke:#000000;stroke-width:5" />
  <g
     style="font-size:0.75px;font-family:sans-serif;fill:#b20000;stroke:#b20000;stroke-width:0.1"
     id="g111"
     transform="matrix(50,0,0,50,922.335,264.6775)"
     font-size="0.75px">
    <path
       style="stroke:none"
       inkscape:connector-curvature="0"
       id="path113"
       d="m -0.3834,-0.1912 0,0.0629 q -0.0286,-0.0157 -0.0573,-0.0236 -0.0288,-0.0079 -0.0581,-0.0079 -0.0655,0 -0.1018,0.0416 -0.0362,0.0416 -0.0362,0.1166 0,0.0751 0.0362,0.1167 0.0363,0.0415 0.1018,0.0415 0.0293,0 0.0581,-0.0078 0.0287,-0.0079 0.0573,-0.0236 l 0,0.0622 q -0.0282,0.0132 -0.0584,0.0198 -0.0302,0.0066 -0.0643,0.0066 -0.0927,0 -0.1472,-0.0582 -0.0546,-0.0583 -0.0546,-0.1572 0,-0.1003 0.0551,-0.1578 0.0551,-0.0575 0.1511,-0.0575 0.0311,0 0.0608,0.0064 0.0296,0.0064 0.0575,0.0193 z m 0.1838,-0.1323 0,0.1165 0.1388,0 0,0.0524 -0.1388,0 0,0.2226 q 0,0.0502 0.0137,0.0645 0.0138,0.0143 0.0559,0.0143 l 0.0692,0 0,0.0564 -0.0692,0 q -0.078,0 -0.1077,-0.0292 -0.0296,-0.0291 -0.0296,-0.106 l 0,-0.2226 -0.0495,0 0,-0.0524 0.0495,0 0,-0.1165 0.0677,0 z M 0.2655,-0.144 Q 0.2542,-0.1506 0.2408,-0.1537 0.2274,-0.1568 0.2113,-0.1568 q -0.0571,0 -0.0877,0.0371 -0.0306,0.0372 -0.0306,0.1068 l 0,0.2161 -0.0677,0 0,-0.4102 0.0677,0 0,0.0637 q 0.0213,-0.0373 0.0553,-0.0555 0.0341,-0.0181 0.0828,-0.0181 0.0069,0 0.0154,9e-4 0.0084,9e-4 0.0186,0.0028 l 4e-4,0.0692 z m 0.0707,-0.2227 0.0674,0 0,0.5699 -0.0674,0 0,-0.5699 z m 0.1743,0.3344 0.1974,0 0,0.06 -0.1974,0 0,-0.06 z" />
  </g>
  <g
     style="font-size:0.75px;font-family:sans-serif;fill:#0000b2;stroke:#0000b2;stroke-width:0.1"
     id="g115"
     transform="matrix(50,0,0,50,922.335,714.6775)"
     font-size="0.75px">
    <path
       style="stroke:none"
       inkscape:connector-curvature="0"
       id="path117"
       d="m -0.468,-0.2473 0,0.0637 q -0.0286,-0.0147 -0.0593,-0.022 -0.0308,-0.0073 -0.0638,-0.0073 -0.0501,0 -0.0752,0.0154 -0.0251,0.0153 -0.0251,0.0461 0,0.0234 0.0179,0.0368 0.018,0.0134 0.0722,0.0255 l 0.023,0.0051 q 0.0718,0.0154 0.102,0.0434 0.0302,0.028 0.0302,0.0782 0,0.0571 -0.0452,0.0904 -0.0452,0.0334 -0.1243,0.0334 -0.033,0 -0.0687,-0.0065 Q -0.72,0.1485 -0.7595,0.1357 l 0,-0.0696 q 0.0373,0.0194 0.0736,0.0292 0.0362,0.0097 0.0718,0.0097 0.0476,0 0.0732,-0.0163 0.0256,-0.0163 0.0256,-0.046 0,-0.0275 -0.0185,-0.0421 -0.0185,-0.0147 -0.0811,-0.0282 l -0.0234,-0.0055 q -0.0626,-0.0132 -0.0905,-0.0405 -0.0278,-0.0273 -0.0278,-0.0749 0,-0.0578 0.041,-0.0893 0.041,-0.0315 0.1165,-0.0315 0.0373,0 0.0703,0.0055 0.033,0.0055 0.0608,0.0165 z m 0.3156,0.1919 q -0.0816,0 -0.1131,0.0186 -0.0315,0.0187 -0.0315,0.0638 0,0.0358 0.0236,0.0569 0.0236,0.0211 0.0643,0.0211 0.056,0 0.0899,-0.0398 0.0339,-0.0397 0.0339,-0.1056 l 0,-0.015 -0.0671,0 z m 0.1345,-0.0279 0,0.234 -0.0674,0 0,-0.0622 q -0.0231,0.0373 -0.0575,0.0551 -0.0345,0.0178 -0.0843,0.0178 -0.0629,0 -0.1001,-0.0354 -0.0372,-0.0353 -0.0372,-0.0947 0,-0.0692 0.0463,-0.1043 0.0464,-0.0352 0.1383,-0.0352 l 0.0945,0 0,-0.0066 q 0,-0.0465 -0.0306,-0.0719 -0.0306,-0.0255 -0.0859,-0.0255 -0.0351,0 -0.0685,0.0084 -0.0333,0.0085 -0.0641,0.0253 l 0,-0.0622 q 0.037,-0.0143 0.0718,-0.0215 0.0348,-0.0071 0.0678,-0.0071 0.089,0 0.1329,0.0461 0.044,0.0462 0.044,0.1399 z m 0.4797,-0.0135 0,0.2475 -0.0674,0 0,-0.2453 q 0,-0.0583 -0.0227,-0.0872 -0.0227,-0.0289 -0.0681,-0.0289 -0.0546,0 -0.0861,0.0348 -0.0315,0.0348 -0.0315,0.0948 l 0,0.2318 -0.0677,0 0,-0.4101 0.0677,0 0,0.0637 q 0.0242,-0.037 0.057,-0.0553 0.0328,-0.0183 0.0756,-0.0183 0.0707,0 0.1069,0.0438 0.0363,0.0437 0.0363,0.1287 z m 0.1003,0.0121 0.1974,0 0,0.06 -0.1974,0 0,-0.06 z" />
  </g>
  <g
     style="font-size:0.75px;font-family:sans-serif;fill:#ffffff;stroke:#ffffff;stroke-width:0.1"
     id="g119"
     transform="matrix(50,0,0,50,922.335,414.6775)"
     font-size="0.75px">
    <circle
       style="stroke:none"
       id="circle121"
       r="0.44999999"
       cy="0"
       cx="0" />
    <circle
       style="fill:none;stroke:#000000"
       id="circle123"
       r="0.44999999"
       cy="0"
       cx="0" />
  </g>
  <circle
     cx="622.33502"
     cy="114.6775"
     r="22.5"
     id="circle131"
     style="font-style:italic;font-size:medium;font-family:sans-serif;fill:#ffffff;stroke:none;stroke-width:0.1" />
  <circle
     cx="622.33502"
     cy="114.6775"
     r="22.5"
     id="circle133"
     style="font-style:italic;font-size:medium;font-family:sans-serif;fill:none;stroke:#000000;stroke-width:5" />
  <g
     style="font-size:0.75px;font-family:sans-serif;fill:#b20000;stroke:#b20000;stroke-width:0.1"
     id="g137"
     transform="matrix(50,0,0,50,122.335,314.6775)"
     font-size="0.75px">
    <path
       style="stroke:none"
       inkscape:connector-curvature="0"
       id="path139"
       d="m -0.5002,-0.144 0,0.0637 q -0.0286,-0.0147 -0.0594,-0.022 -0.0307,-0.0073 -0.0637,-0.0073 -0.0502,0 -0.0753,0.0154 -0.025,0.0153 -0.025,0.0461 0,0.0235 0.0179,0.0368 0.018,0.0134 0.0722,0.0255 l 0.023,0.0051 q 0.0718,0.0154 0.102,0.0434 0.0302,0.028 0.0302,0.0782 0,0.0571 -0.0452,0.0904 -0.0452,0.0334 -0.1243,0.0334 -0.033,0 -0.0687,-0.0064 Q -0.7522,0.2518 -0.7917,0.239 l 0,-0.0696 q 0.0373,0.0195 0.0736,0.0292 0.0362,0.0097 0.0717,0.0097 0.0476,0 0.0733,-0.0163 0.0256,-0.0163 0.0256,-0.046 0,-0.0275 -0.0185,-0.0421 Q -0.5845,0.0892 -0.6471,0.0757 L -0.6705,0.0702 Q -0.7332,0.057 -0.761,0.0297 -0.7888,0.0024 -0.7888,-0.0451 q 0,-0.0579 0.041,-0.0894 0.041,-0.0315 0.1164,-0.0315 0.0374,0 0.0704,0.0055 0.0329,0.0055 0.0608,0.0165 z m 0.1292,-0.0121 0.0674,0 0,0.4101 -0.0674,0 0,-0.4101 z m 0,-0.1597 0.0674,0 0,0.0853 -0.0674,0 0,-0.0853 z m 0.4783,0.36 q 0,-0.0732 -0.0302,-0.1135 -0.0302,-0.0403 -0.0848,-0.0403 -0.0542,0 -0.0844,0.0403 -0.0302,0.0403 -0.0302,0.1135 0,0.0729 0.0302,0.1132 0.0302,0.0402 0.0844,0.0402 0.0546,0 0.0848,-0.0402 0.0302,-0.0403 0.0302,-0.1132 z m 0.0674,0.1589 q 0,0.1048 -0.0465,0.1559 -0.0465,0.051 -0.1425,0.051 -0.0355,0 -0.067,-0.0053 -0.0315,-0.0053 -0.0612,-0.0163 l 0,-0.0655 q 0.0297,0.0161 0.0586,0.0238 0.029,0.0077 0.059,0.0077 0.0663,0 0.0992,-0.0346 0.033,-0.0346 0.033,-0.1046 l 0,-0.0333 Q 0.0864,0.2181 0.0538,0.2361 0.0212,0.254 -0.0242,0.254 q -0.0754,0 -0.1216,-0.0575 -0.0461,-0.0574 -0.0461,-0.1523 0,-0.0952 0.0461,-0.1527 0.0462,-0.0575 0.1216,-0.0575 0.0454,0 0.078,0.0179 0.0326,0.018 0.0535,0.0542 l 0,-0.0622 0.0674,0 0,0.3592 z m 0.4131,-0.4193 0,0.204 0.2039,0 0,0.0623 -0.2039,0 0,0.2039 -0.0616,0 0,-0.2039 -0.2039,0 0,-0.0623 0.2039,0 0,-0.204 0.0616,0 z" />
  </g>
  <g
     style="font-size:0.75px;font-family:sans-serif;fill:#b20000;stroke:#b20000;stroke-width:0.1"
     id="g141"
     transform="matrix(50,0,0,50,122.335,514.6775)"
     font-size="0.75px">
    <path
       style="stroke:none"
       inkscape:connector-curvature="0"
       id="path143"
       d="m -0.3428,-0.144 0,0.0637 q -0.0285,-0.0147 -0.0593,-0.022 -0.0308,-0.0073 -0.0637,-0.0073 -0.0502,0 -0.0753,0.0154 -0.0251,0.0153 -0.0251,0.0461 0,0.0235 0.018,0.0368 0.0179,0.0134 0.0721,0.0255 l 0.0231,0.0051 q 0.0718,0.0154 0.102,0.0434 0.0302,0.028 0.0302,0.0782 0,0.0571 -0.0452,0.0904 -0.0453,0.0334 -0.1244,0.0334 -0.0329,0 -0.0686,-0.0064 Q -0.5947,0.2518 -0.6343,0.239 l 0,-0.0696 q 0.0374,0.0195 0.0736,0.0292 0.0363,0.0097 0.0718,0.0097 0.0476,0 0.0732,-0.0163 Q -0.39,0.1757 -0.39,0.146 -0.39,0.1185 -0.4085,0.1039 -0.427,0.0892 -0.4896,0.0757 L -0.5131,0.0702 Q -0.5757,0.057 -0.6035,0.0297 -0.6314,0.0024 -0.6314,-0.0451 q 0,-0.0579 0.0411,-0.0894 0.041,-0.0315 0.1164,-0.0315 0.0374,0 0.0703,0.0055 0.033,0.0055 0.0608,0.0165 z m 0.1293,-0.0121 0.0674,0 0,0.4101 -0.0674,0 0,-0.4101 z m 0,-0.1597 0.0674,0 0,0.0853 -0.0674,0 0,-0.0853 z m 0.4783,0.36 q 0,-0.0732 -0.0302,-0.1135 -0.0303,-0.0403 -0.0848,-0.0403 -0.0542,0 -0.0844,0.0403 -0.0302,0.0403 -0.0302,0.1135 0,0.0729 0.0302,0.1132 0.0302,0.0402 0.0844,0.0402 0.0545,0 0.0848,-0.0402 0.0302,-0.0403 0.0302,-0.1132 z m 0.0673,0.1589 q 0,0.1048 -0.0465,0.1559 Q 0.2391,0.41 0.1432,0.41 0.1077,0.41 0.0762,0.4047 0.0447,0.3994 0.015,0.3884 l 0,-0.0655 q 0.0297,0.0161 0.0586,0.0238 0.0289,0.0077 0.059,0.0077 0.0662,0 0.0992,-0.0346 0.033,-0.0346 0.033,-0.1046 l 0,-0.0333 Q 0.2439,0.2181 0.2113,0.2361 0.1787,0.254 0.1333,0.254 0.0579,0.254 0.0117,0.1965 -0.0344,0.1391 -0.0344,0.0442 q 0,-0.0952 0.0461,-0.1527 0.0462,-0.0575 0.1216,-0.0575 0.0454,0 0.078,0.0179 0.0326,0.018 0.0535,0.0542 l 0,-0.0622 0.0673,0 0,0.3592 z m 0.1048,-0.1845 0.1974,0 0,0.06 -0.1974,0 0,-0.06 z" />
  </g>
  <g
     style="font-size:0.75px;font-family:sans-serif;fill:#ffffff;stroke:#ffffff;stroke-width:0.1"
     id="g145"
     transform="matrix(50,0,0,50,222.335,414.6775)"
     font-size="0.75px">
    <circle
       style="stroke:none"
       id="circle147"
       r="0.44999999"
       cy="0"
       cx="0" />
    <circle
       style="fill:none;stroke:#000000"
       id="circle149"
       r="0.44999999"
       cy="0"
       cx="0" />
  </g>
  <g
     style="font-style:italic;font-size:0.5px;font-family:sans-serif;fill:#666666;stroke:#666666;stroke-width:0.1"
     id="g151"
     transform="matrix(50,0,0,50,222.335,414.6775)"
     font-style="italic"
     font-size="0.5px">
    <path
       style="stroke:none"
       inkscape:connector-curvature="0"
       id="path153"
       d="m -1.4092,-0.096 -0.0086,0.0425 q -0.0178,-0.0098 -0.0376,-0.0147 -0.0198,-0.0049 -0.0407,-0.0049 -0.0354,0 -0.0558,0.0121 -0.0204,0.0121 -0.0204,0.0328 0,0.0242 0.0473,0.0372 0.0037,9e-4 0.0054,0.0014 l 0.0144,0.0044 q 0.0449,0.0125 0.0599,0.0261 0.0151,0.0137 0.0151,0.0374 0,0.0435 -0.0346,0.0708 -0.0345,0.0273 -0.0904,0.0273 -0.0218,0 -0.0457,-0.0041 -0.0239,-0.0042 -0.0527,-0.013 L -1.6448,0.113 q 0.0246,0.0127 0.0486,0.0193 0.0239,0.0065 0.0459,0.0065 0.0329,0 0.0535,-0.0141 0.0207,-0.0142 0.0207,-0.0359 0,-0.0234 -0.0542,-0.0378 L -1.535,0.0497 -1.5503,0.0458 Q -1.5845,0.0368 -1.6004,0.022 -1.6163,0.0073 -1.6163,-0.0157 q 0,-0.0437 0.0329,-0.0693 0.0328,-0.0257 0.0892,-0.0257 0.0222,0 0.0433,0.0037 0.0212,0.0037 0.0417,0.011 z m 0.102,-0.1145 0.0449,0 -0.011,0.0569 -0.0449,0 0.011,-0.0569 z m -0.0205,0.1064 0.0449,0 -0.0534,0.2735 -0.045,0 0.0535,-0.2735 z m 0.366,0 -0.0467,0.2395 q -0.0134,0.0696 -0.0514,0.1038 -0.0379,0.0342 -0.1021,0.0342 -0.0237,0 -0.044,-0.0036 Q -1.2261,0.2663 -1.2437,0.259 l 0.0083,-0.0437 q 0.0166,0.0107 0.0351,0.0158 0.0186,0.0052 0.0396,0.0052 0.0427,0 0.0702,-0.0234 0.0275,-0.0233 0.0362,-0.067 l 0.0039,-0.0205 q -0.0187,0.0215 -0.0436,0.0327 -0.0249,0.0113 -0.0538,0.0113 -0.0415,0 -0.0653,-0.0275 -0.0238,-0.0275 -0.0238,-0.0756 0,-0.0378 0.0144,-0.0741 0.0144,-0.0362 0.0406,-0.0643 0.0173,-0.0186 0.0404,-0.0286 0.023,-0.01 0.0482,-0.01 0.0276,0 0.0481,0.0129 0.0205,0.0128 0.0305,0.0362 l 0.0078,-0.0425 0.0452,0 z m -0.0677,0.1004 q 0,-0.0332 -0.0156,-0.0513 -0.0156,-0.0181 -0.0444,-0.0181 -0.0178,0 -0.0339,0.0071 -0.0162,0.0071 -0.0276,0.0198 -0.0186,0.021 -0.029,0.0494 -0.0103,0.0285 -0.0103,0.0587 0,0.0337 0.0157,0.0518 0.0158,0.0181 0.0453,0.0181 0.0427,0 0.0713,-0.0387 0.0285,-0.0387 0.0285,-0.0968 z m 0.1194,0.1316 0.0806,0 0.0544,-0.2806 -0.091,0.0176 0.0085,-0.0425 0.0906,-0.0175 0.0496,0 -0.063,0.323 0.0803,0 -0.0078,0.0415 -0.2102,0 0.008,-0.0415 z" />
  </g>
  <path
     d="m 213.205,10.57 0,2.125 q -0.955,-0.49 -1.98,-0.73 -1.025,-0.245 -2.12,-0.245 -1.675,0 -2.51,0.51 -0.835,0.515 -0.835,1.54 0,0.78 0.595,1.225 0.6,0.445 2.405,0.85 l 0.77,0.17 q 2.39,0.515 3.4,1.445 1.005,0.935 1.005,2.61 0,1.905 -1.505,3.015 -1.51,1.11 -4.145,1.11 -1.1,0 -2.29,-0.215 -1.19,-0.215 -2.51,-0.64 l 0,-2.32 q 1.25,0.65 2.455,0.97 1.21,0.325 2.395,0.325 1.585,0 2.44,-0.545 0.855,-0.54 0.855,-1.53 0,-0.915 -0.615,-1.405 -0.62,-0.485 -2.705,-0.94 l -0.78,-0.185 q -2.09,-0.435 -3.015,-1.345 -0.93,-0.91 -0.93,-2.5 0,-1.925 1.365,-2.975 1.37,-1.05 3.885,-1.05 1.245,0 2.345,0.18 1.095,0.185 2.025,0.55 z m 10.52,6.4 q -2.72,0 -3.77,0.62 -1.05,0.625 -1.05,2.125 0,1.195 0.79,1.9 0.785,0.7 2.14,0.7 1.87,0 2.995,-1.325 1.13,-1.325 1.13,-3.52 l 0,-0.5 -2.235,0 z m 4.48,-0.93 0,7.8 -2.245,0 0,-2.075 q -0.77,1.245 -1.915,1.835 -1.15,0.595 -2.81,0.595 -2.1,0 -3.335,-1.18 -1.24,-1.175 -1.24,-3.155 0,-2.305 1.545,-3.48 1.54,-1.17 4.605,-1.17 l 3.15,0 0,-0.22 q 0,-1.55 -1.02,-2.4 -1.02,-0.845 -2.86,-0.845 -1.175,0 -2.285,0.28 -1.11,0.28 -2.135,0.84 l 0,-2.075 q 1.235,-0.475 2.39,-0.715 1.16,-0.235 2.26,-0.235 2.965,0 4.43,1.535 1.465,1.54 1.465,4.665 z m 15.995,-0.45 0,8.25 -2.25,0 0,-8.18 q 0,-1.94 -0.755,-2.905 -0.755,-0.965 -2.27,-0.965 -1.82,0 -2.87,1.16 -1.05,1.16 -1.05,3.165 l 0,7.725 -2.255,0 0,-13.67 2.255,0 0,2.125 q 0.805,-1.235 1.9,-1.845 1.09,-0.61 2.52,-0.61 2.355,0 3.565,1.46 1.21,1.455 1.21,4.29 z m 22.265,-4.895 0,2.1 q -0.955,-0.525 -1.91,-0.79 -0.96,-0.26 -1.935,-0.26 -2.185,0 -3.395,1.385 -1.21,1.385 -1.21,3.885 0,2.505 1.21,3.89 1.21,1.385 3.395,1.385 0.975,0 1.935,-0.26 0.955,-0.265 1.91,-0.79 l 0,2.075 q -0.94,0.44 -1.95,0.66 -1.005,0.22 -2.14,0.22 -3.09,0 -4.91,-1.94 -1.815,-1.945 -1.815,-5.24 0,-3.345 1.835,-5.26 1.84,-1.915 5.035,-1.915 1.04,0 2.025,0.215 0.99,0.21 1.92,0.64 z m 10.12,6.275 q -2.725,0 -3.775,0.62 -1.05,0.625 -1.05,2.125 0,1.195 0.79,1.9 0.785,0.7 2.14,0.7 1.87,0 3,-1.325 1.125,-1.325 1.125,-3.52 l 0,-0.5 -2.23,0 z m 4.48,-0.93 0,7.8 -2.25,0 0,-2.075 q -0.765,1.245 -1.915,1.835 -1.145,0.595 -2.805,0.595 -2.1,0 -3.34,-1.18 -1.24,-1.175 -1.24,-3.155 0,-2.305 1.545,-3.48 1.545,-1.17 4.61,-1.17 l 3.145,0 0,-0.22 q 0,-1.55 -1.015,-2.4 -1.02,-0.845 -2.865,-0.845 -1.17,0 -2.28,0.28 -1.115,0.28 -2.14,0.84 l 0,-2.075 q 1.235,-0.475 2.395,-0.715 1.16,-0.235 2.255,-0.235 2.97,0 4.435,1.535 1.465,1.54 1.465,4.665 z m 4.395,2.405 0,-8.275 2.245,0 0,8.19 q 0,1.94 0.755,2.91 0.755,0.97 2.27,0.97 1.82,0 2.875,-1.16 1.055,-1.16 1.055,-3.16 l 0,-7.75 2.25,0 0,13.67 -2.25,0 0,-2.1 q -0.815,1.245 -1.895,1.85 -1.08,0.605 -2.51,0.605 -2.355,0 -3.575,-1.465 -1.22,-1.465 -1.22,-4.285 z m 24.79,-7.875 0,2.125 q -0.95,-0.49 -1.975,-0.73 -1.03,-0.245 -2.125,-0.245 -1.675,0 -2.51,0.51 -0.835,0.515 -0.835,1.54 0,0.78 0.595,1.225 0.6,0.445 2.405,0.85 l 0.77,0.17 q 2.395,0.515 3.4,1.445 1.005,0.935 1.005,2.61 0,1.905 -1.505,3.015 -1.505,1.11 -4.145,1.11 -1.1,0 -2.29,-0.215 -1.19,-0.215 -2.505,-0.64 l 0,-2.32 q 1.245,0.65 2.45,0.97 1.21,0.325 2.395,0.325 1.585,0 2.44,-0.545 0.855,-0.54 0.855,-1.53 0,-0.915 -0.615,-1.405 -0.615,-0.485 -2.705,-0.94 l -0.78,-0.185 q -2.09,-0.435 -3.015,-1.345 -0.93,-0.91 -0.93,-2.5 0,-1.925 1.37,-2.975 1.365,-1.05 3.88,-1.05 1.245,0 2.345,0.18 1.095,0.185 2.025,0.55 z m 16.005,5.875 0,1.095 -10.33,0 q 0.15,2.32 1.4,3.535 1.25,1.215 3.485,1.215 1.295,0 2.51,-0.315 1.21,-0.32 2.41,-0.955 l 0,2.125 q -1.21,0.515 -2.48,0.78 -1.27,0.27 -2.575,0.27 -3.27,0 -5.18,-1.905 -1.91,-1.905 -1.91,-5.15 0,-3.36 1.81,-5.33 1.815,-1.97 4.89,-1.97 2.76,0 4.365,1.775 1.605,1.775 1.605,4.83 z m -2.25,-0.66 q -0.02,-1.845 -1.03,-2.945 -1.005,-1.095 -2.665,-1.095 -1.88,0 -3.01,1.06 -1.13,1.06 -1.3,2.99 l 8.005,-0.01 z m 14.93,-3.54 0,-7.4 2.25,0 0,18.995 -2.25,0 0,-2.05 q -0.705,1.22 -1.785,1.81 -1.08,0.595 -2.595,0.595 -2.48,0 -4.035,-1.98 -1.555,-1.975 -1.555,-5.2 0,-3.22 1.555,-5.2 1.555,-1.975 4.035,-1.975 1.515,0 2.595,0.59 1.08,0.595 1.785,1.815 z m -7.65,4.77 q 0,2.48 1.015,3.89 1.02,1.41 2.805,1.41 1.78,0 2.805,-1.41 1.025,-1.41 1.025,-3.89 0,-2.475 -1.025,-3.885 -1.025,-1.41 -2.805,-1.41 -1.785,0 -2.805,1.41 -1.015,1.41 -1.015,3.885 z"
     id="path163"
     inkscape:connector-curvature="0"
     style="font-style:italic;font-size:medium;font-family:sans-serif;fill:#000000;stroke:none;stroke-width:0.02;stroke-linecap:butt;stroke-miterlimit:1;stroke-dasharray:0.2, 0.2" />
  <path
     d="m 247.28,44.8875 q 0,-2.48 -1.02,-3.89 -1.02,-1.41 -2.8,-1.41 -1.785,0 -2.8,1.41 -1.02,1.41 -1.02,3.89 0,2.475 1.02,3.885 1.015,1.41 2.8,1.41 1.78,0 2.8,-1.41 1.02,-1.41 1.02,-3.885 z m -7.64,-4.775 q 0.705,-1.22 1.785,-1.815 1.085,-0.59 2.585,-0.59 2.49,0 4.045,1.98 1.555,1.975 1.555,5.2 0,3.22 -1.555,5.2 -1.555,1.975 -4.045,1.975 -1.5,0 -2.585,-0.59 -1.08,-0.595 -1.785,-1.815 l 0,2.05 -2.26,0 0,-18.995 2.26,0 0,7.4 z m 19.385,12.865 q -0.955,2.445 -1.855,3.185 -0.905,0.745 -2.42,0.745 l -1.795,0 0,-1.88 1.32,0 q 0.925,0 1.44,-0.435 0.515,-0.44 1.135,-2.08 l 0.405,-1.025 -5.53,-13.45 2.38,0 4.27,10.695 4.275,-10.695 2.38,0 -6.005,14.94 z m 25.77,-14.535 0,2.12 q -0.955,-0.485 -1.98,-0.73 -1.025,-0.245 -2.125,-0.245 -1.67,0 -2.51,0.515 -0.835,0.51 -0.835,1.535 0,0.78 0.6,1.23 0.6,0.445 2.405,0.845 l 0.77,0.17 q 2.39,0.515 3.4,1.45 1.005,0.93 1.005,2.605 0,1.905 -1.51,3.015 -1.505,1.11 -4.14,1.11 -1.1,0 -2.29,-0.215 -1.19,-0.21 -2.51,-0.64 l 0,-2.32 q 1.245,0.65 2.455,0.975 1.21,0.32 2.39,0.32 1.59,0 2.445,-0.54 0.855,-0.545 0.855,-1.535 0,-0.915 -0.62,-1.405 -0.615,-0.485 -2.705,-0.94 l -0.78,-0.18 q -2.085,-0.44 -3.015,-1.35 -0.925,-0.91 -0.925,-2.495 0,-1.93 1.365,-2.98 1.365,-1.05 3.88,-1.05 1.25,0 2.345,0.185 1.1,0.18 2.03,0.55 z m 4.305,-0.405 2.25,0 0,13.67 -2.25,0 0,-13.67 z m 0,-5.325 2.25,0 0,2.845 -2.25,0 0,-2.845 z m 15.945,12 q 0,-2.44 -1.01,-3.78 -1.005,-1.345 -2.825,-1.345 -1.805,0 -2.815,1.345 -1.005,1.34 -1.005,3.78 0,2.43 1.005,3.775 1.01,1.34 2.815,1.34 1.82,0 2.825,-1.34 1.01,-1.345 1.01,-3.775 z m 2.245,5.3 q 0,3.49 -1.55,5.195 -1.55,1.7 -4.75,1.7 -1.185,0 -2.235,-0.175 -1.045,-0.175 -2.035,-0.545 l 0,-2.185 q 0.99,0.54 1.95,0.795 0.965,0.255 1.965,0.255 2.21,0 3.31,-1.15 1.1,-1.155 1.1,-3.485 l 0,-1.115 q -0.695,1.21 -1.785,1.81 -1.085,0.595 -2.6,0.595 -2.515,0 -4.05,-1.915 -1.54,-1.915 -1.54,-5.08 0,-3.17 1.54,-5.09 1.535,-1.915 4.05,-1.915 1.515,0 2.6,0.6 1.09,0.595 1.785,1.805 l 0,-2.075 2.245,0 0,11.975 z"
     id="path165"
     inkscape:connector-curvature="0"
     style="font-style:italic;font-size:medium;font-family:sans-serif;fill:#000000;stroke:none;stroke-width:0.02;stroke-linecap:butt;stroke-miterlimit:1;stroke-dasharray:0.2, 0.2" />
  <path
     d="m 713.205,10.57 0,2.125 q -0.955,-0.49 -1.98,-0.73 -1.025,-0.245 -2.12,-0.245 -1.675,0 -2.51,0.51 -0.835,0.515 -0.835,1.54 0,0.78 0.595,1.225 0.6,0.445 2.405,0.85 l 0.77,0.17 q 2.39,0.515 3.4,1.445 1.005,0.935 1.005,2.61 0,1.905 -1.505,3.015 -1.51,1.11 -4.145,1.11 -1.1,0 -2.29,-0.215 -1.19,-0.215 -2.51,-0.64 l 0,-2.32 q 1.25,0.65 2.455,0.97 1.21,0.325 2.395,0.325 1.585,0 2.44,-0.545 0.855,-0.54 0.855,-1.53 0,-0.915 -0.615,-1.405 -0.62,-0.485 -2.705,-0.94 l -0.78,-0.185 q -2.09,-0.435 -3.015,-1.345 -0.93,-0.91 -0.93,-2.5 0,-1.925 1.365,-2.975 1.37,-1.05 3.885,-1.05 1.245,0 2.345,0.18 1.095,0.185 2.025,0.55 z m 10.52,6.4 q -2.72,0 -3.77,0.62 -1.05,0.625 -1.05,2.125 0,1.195 0.79,1.9 0.785,0.7 2.14,0.7 1.87,0 2.995,-1.325 1.13,-1.325 1.13,-3.52 l 0,-0.5 -2.235,0 z m 4.48,-0.93 0,7.8 -2.245,0 0,-2.075 q -0.77,1.245 -1.915,1.835 -1.15,0.595 -2.81,0.595 -2.1,0 -3.335,-1.18 -1.24,-1.175 -1.24,-3.155 0,-2.305 1.545,-3.48 1.54,-1.17 4.605,-1.17 l 3.15,0 0,-0.22 q 0,-1.55 -1.02,-2.4 -1.02,-0.845 -2.86,-0.845 -1.175,0 -2.285,0.28 -1.11,0.28 -2.135,0.84 l 0,-2.075 q 1.235,-0.475 2.39,-0.715 1.16,-0.235 2.26,-0.235 2.965,0 4.43,1.535 1.465,1.54 1.465,4.665 z m 15.995,-0.45 0,8.25 -2.25,0 0,-8.18 q 0,-1.94 -0.755,-2.905 -0.755,-0.965 -2.27,-0.965 -1.82,0 -2.87,1.16 -1.05,1.16 -1.05,3.165 l 0,7.725 -2.255,0 0,-13.67 2.255,0 0,2.125 q 0.805,-1.235 1.9,-1.845 1.09,-0.61 2.52,-0.61 2.355,0 3.565,1.46 1.21,1.455 1.21,4.29 z m 22.265,-4.895 0,2.1 q -0.955,-0.525 -1.91,-0.79 -0.96,-0.26 -1.935,-0.26 -2.185,0 -3.395,1.385 -1.21,1.385 -1.21,3.885 0,2.505 1.21,3.89 1.21,1.385 3.395,1.385 0.975,0 1.935,-0.26 0.955,-0.265 1.91,-0.79 l 0,2.075 q -0.94,0.44 -1.95,0.66 -1.005,0.22 -2.14,0.22 -3.09,0 -4.91,-1.94 -1.815,-1.945 -1.815,-5.24 0,-3.345 1.835,-5.26 1.84,-1.915 5.035,-1.915 1.04,0 2.025,0.215 0.99,0.21 1.92,0.64 z m 10.12,6.275 q -2.725,0 -3.775,0.62 -1.05,0.625 -1.05,2.125 0,1.195 0.79,1.9 0.785,0.7 2.14,0.7 1.87,0 3,-1.325 1.125,-1.325 1.125,-3.52 l 0,-0.5 -2.23,0 z m 4.48,-0.93 0,7.8 -2.25,0 0,-2.075 q -0.765,1.245 -1.915,1.835 -1.145,0.595 -2.805,0.595 -2.1,0 -3.34,-1.18 -1.24,-1.175 -1.24,-3.155 0,-2.305 1.545,-3.48 1.545,-1.17 4.61,-1.17 l 3.145,0 0,-0.22 q 0,-1.55 -1.015,-2.4 -1.02,-0.845 -2.865,-0.845 -1.17,0 -2.28,0.28 -1.115,0.28 -2.14,0.84 l 0,-2.075 q 1.235,-0.475 2.395,-0.715 1.16,-0.235 2.255,-0.235 2.97,0 4.435,1.535 1.465,1.54 1.465,4.665 z m 4.395,2.405 0,-8.275 2.245,0 0,8.19 q 0,1.94 0.755,2.91 0.755,0.97 2.27,0.97 1.82,0 2.875,-1.16 1.055,-1.16 1.055,-3.16 l 0,-7.75 2.25,0 0,13.67 -2.25,0 0,-2.1 q -0.815,1.245 -1.895,1.85 -1.08,0.605 -2.51,0.605 -2.355,0 -3.575,-1.465 -1.22,-1.465 -1.22,-4.285 z m 24.79,-7.875 0,2.125 q -0.95,-0.49 -1.975,-0.73 -1.03,-0.245 -2.125,-0.245 -1.675,0 -2.51,0.51 -0.835,0.515 -0.835,1.54 0,0.78 0.595,1.225 0.6,0.445 2.405,0.85 l 0.77,0.17 q 2.395,0.515 3.4,1.445 1.005,0.935 1.005,2.61 0,1.905 -1.505,3.015 -1.505,1.11 -4.145,1.11 -1.1,0 -2.29,-0.215 -1.19,-0.215 -2.505,-0.64 l 0,-2.32 q 1.245,0.65 2.45,0.97 1.21,0.325 2.395,0.325 1.585,0 2.44,-0.545 0.855,-0.54 0.855,-1.53 0,-0.915 -0.615,-1.405 -0.615,-0.485 -2.705,-0.94 l -0.78,-0.185 q -2.09,-0.435 -3.015,-1.345 -0.93,-0.91 -0.93,-2.5 0,-1.925 1.37,-2.975 1.365,-1.05 3.88,-1.05 1.245,0 2.345,0.18 1.095,0.185 2.025,0.55 z m 16.005,5.875 0,1.095 -10.33,0 q 0.15,2.32 1.4,3.535 1.25,1.215 3.485,1.215 1.295,0 2.51,-0.315 1.21,-0.32 2.41,-0.955 l 0,2.125 q -1.21,0.515 -2.48,0.78 -1.27,0.27 -2.575,0.27 -3.27,0 -5.18,-1.905 -1.91,-1.905 -1.91,-5.15 0,-3.36 1.81,-5.33 1.815,-1.97 4.89,-1.97 2.76,0 4.365,1.775 1.605,1.775 1.605,4.83 z m -2.25,-0.66 q -0.02,-1.845 -1.03,-2.945 -1.005,-1.095 -2.665,-1.095 -1.88,0 -3.01,1.06 -1.13,1.06 -1.3,2.99 l 8.005,-0.01 z m 14.93,-3.54 0,-7.4 2.25,0 0,18.995 -2.25,0 0,-2.05 q -0.705,1.22 -1.785,1.81 -1.08,0.595 -2.595,0.595 -2.48,0 -4.035,-1.98 -1.555,-1.975 -1.555,-5.2 0,-3.22 1.555,-5.2 1.555,-1.975 4.035,-1.975 1.515,0 2.595,0.59 1.08,0.595 1.785,1.815 z m -7.65,4.77 q 0,2.48 1.015,3.89 1.02,1.41 2.805,1.41 1.78,0 2.805,-1.41 1.025,-1.41 1.025,-3.89 0,-2.475 -1.025,-3.885 -1.025,-1.41 -2.805,-1.41 -1.785,0 -2.805,1.41 -1.015,1.41 -1.015,3.885 z"
     id="path173"
     inkscape:connector-curvature="0"
     style="font-size:medium;font-family:sans-serif;fill:#000000;stroke:none;stroke-width:0.02;stroke-linecap:butt;stroke-miterlimit:1;stroke-dasharray:0.2, 0.2" />
  <path
     d="m 748.43,44.8875 q 0,-2.48 -1.02,-3.89 -1.02,-1.41 -2.805,-1.41 -1.78,0 -2.8,1.41 -1.02,1.41 -1.02,3.89 0,2.475 1.02,3.885 1.02,1.41 2.8,1.41 1.785,0 2.805,-1.41 1.02,-1.41 1.02,-3.885 z m -7.645,-4.775 q 0.71,-1.22 1.79,-1.815 1.08,-0.59 2.58,-0.59 2.49,0 4.05,1.98 1.555,1.975 1.555,5.2 0,3.22 -1.555,5.2 -1.56,1.975 -4.05,1.975 -1.5,0 -2.58,-0.59 -1.08,-0.595 -1.79,-1.815 l 0,2.05 -2.255,0 0,-18.995 2.255,0 0,7.4 z m 19.385,12.865 q -0.95,2.445 -1.855,3.185 -0.905,0.745 -2.415,0.745 l -1.795,0 0,-1.88 1.32,0 q 0.925,0 1.44,-0.435 0.51,-0.44 1.135,-2.08 l 0.4,-1.025 -5.53,-13.45 2.38,0 4.275,10.695 4.27,-10.695 2.38,0 -6.005,14.94 z m 23.975,-20.265 0,1.87 -2.15,0 q -1.205,0 -1.675,0.49 -0.47,0.485 -0.47,1.755 l 0,1.21 3.695,0 0,1.745 -3.695,0 0,11.925 -2.26,0 0,-11.925 -2.15,0 0,-1.745 2.15,0 0,-0.95 q 0,-2.285 1.06,-3.33 1.065,-1.045 3.37,-1.045 l 2.125,0 z m 9.805,7.425 q -0.38,-0.22 -0.825,-0.325 -0.445,-0.1 -0.985,-0.1 -1.905,0 -2.92,1.235 -1.02,1.24 -1.02,3.56 l 0,7.2 -2.26,0 0,-13.67 2.26,0 0,2.125 q 0.705,-1.245 1.84,-1.85 1.135,-0.605 2.76,-0.605 0.23,0 0.515,0.03 0.28,0.03 0.62,0.09 l 0.015,2.31 z m 12.19,-1.575 0,2.1 q -0.95,-0.525 -1.905,-0.79 -0.96,-0.26 -1.935,-0.26 -2.185,0 -3.395,1.385 -1.21,1.385 -1.21,3.89 0,2.5 1.21,3.885 1.21,1.385 3.395,1.385 0.975,0 1.935,-0.26 0.955,-0.265 1.905,-0.79 l 0,2.075 q -0.94,0.44 -1.945,0.66 -1.005,0.22 -2.14,0.22 -3.09,0 -4.91,-1.94 -1.82,-1.94 -1.82,-5.235 0,-3.345 1.84,-5.265 1.835,-1.915 5.035,-1.915 1.04,0 2.025,0.215 0.99,0.215 1.915,0.64 z"
     id="path175"
     inkscape:connector-curvature="0"
     style="font-size:medium;font-family:sans-serif;fill:#000000;stroke:none;stroke-width:0.02;stroke-linecap:butt;stroke-miterlimit:1;stroke-dasharray:0.2, 0.2" />
  <path
     d="m 393.135,5.73 0,2.12 q -0.95,-0.485 -1.975,-0.73 -1.025,-0.245 -2.125,-0.245 -1.675,0 -2.51,0.515 -0.835,0.51 -0.835,1.535 0,0.78 0.6,1.225 0.595,0.45 2.4,0.85 l 0.77,0.17 q 2.395,0.515 3.4,1.45 1.01,0.93 1.01,2.605 0,1.905 -1.51,3.015 -1.505,1.11 -4.145,1.11 -1.095,0 -2.285,-0.215 -1.19,-0.21 -2.51,-0.64 l 0,-2.32 q 1.245,0.65 2.455,0.97 1.205,0.325 2.39,0.325 1.59,0 2.44,-0.545 0.855,-0.54 0.855,-1.53 0,-0.915 -0.615,-1.405 -0.615,-0.485 -2.705,-0.94 l -0.78,-0.18 q -2.09,-0.44 -3.015,-1.35 -0.93,-0.91 -0.93,-2.495 0,-1.93 1.37,-2.98 1.365,-1.05 3.88,-1.05 1.245,0 2.345,0.185 1.1,0.18 2.025,0.55 z m 10.525,6.395 q -2.725,0 -3.775,0.62 -1.05,0.625 -1.05,2.125 0,1.195 0.79,1.9 0.785,0.7 2.14,0.7 1.87,0 3,-1.325 1.125,-1.325 1.125,-3.52 l 0,-0.5 -2.23,0 z m 4.48,-0.93 0,7.8 -2.25,0 0,-2.075 q -0.765,1.245 -1.915,1.84 -1.145,0.59 -2.805,0.59 -2.1,0 -3.34,-1.18 -1.24,-1.175 -1.24,-3.155 0,-2.305 1.545,-3.475 1.545,-1.175 4.61,-1.175 l 3.145,0 0,-0.22 q 0,-1.55 -1.015,-2.395 -1.02,-0.85 -2.865,-0.85 -1.17,0 -2.28,0.28 -1.115,0.28 -2.14,0.84 l 0,-2.075 q 1.235,-0.475 2.395,-0.71 1.16,-0.24 2.255,-0.24 2.97,0 4.435,1.54 1.465,1.535 1.465,4.66 z m 15.99,-0.45 0,8.25 -2.245,0 0,-8.175 q 0,-1.945 -0.76,-2.905 -0.755,-0.965 -2.27,-0.965 -1.82,0 -2.865,1.16 -1.05,1.16 -1.05,3.16 l 0,7.725 -2.26,0 0,-13.67 2.26,0 0,2.125 q 0.805,-1.235 1.895,-1.845 1.095,-0.61 2.52,-0.61 2.36,0 3.565,1.46 1.21,1.455 1.21,4.29 z m 22.265,-4.895 0,2.1 q -0.95,-0.525 -1.91,-0.79 -0.96,-0.26 -1.935,-0.26 -2.185,0 -3.395,1.385 -1.205,1.385 -1.205,3.89 0,2.5 1.205,3.885 1.21,1.385 3.395,1.385 0.975,0 1.935,-0.26 0.96,-0.265 1.91,-0.79 l 0,2.075 q -0.94,0.44 -1.945,0.66 -1.01,0.22 -2.145,0.22 -3.085,0 -4.905,-1.94 -1.82,-1.94 -1.82,-5.235 0,-3.345 1.835,-5.265 1.84,-1.915 5.04,-1.915 1.035,0 2.025,0.215 0.99,0.21 1.915,0.64 z m 10.12,6.275 q -2.72,0 -3.77,0.62 -1.05,0.625 -1.05,2.125 0,1.195 0.785,1.9 0.79,0.7 2.145,0.7 1.865,0 2.995,-1.325 1.13,-1.325 1.13,-3.52 l 0,-0.5 -2.235,0 z m 4.48,-0.93 0,7.8 -2.245,0 0,-2.075 q -0.77,1.245 -1.92,1.84 -1.145,0.59 -2.805,0.59 -2.1,0 -3.34,-1.18 -1.24,-1.175 -1.24,-3.155 0,-2.305 1.545,-3.475 1.545,-1.175 4.61,-1.175 l 3.15,0 0,-0.22 q 0,-1.55 -1.02,-2.395 -1.02,-0.85 -2.865,-0.85 -1.17,0 -2.28,0.28 -1.11,0.28 -2.135,0.84 l 0,-2.075 q 1.23,-0.475 2.39,-0.71 1.16,-0.24 2.26,-0.24 2.965,0 4.43,1.54 1.465,1.535 1.465,4.66 z m 4.395,2.405 0,-8.275 2.245,0 0,8.19 q 0,1.94 0.755,2.91 0.76,0.97 2.275,0.97 1.815,0 2.875,-1.155 1.055,-1.16 1.055,-3.165 l 0,-7.75 2.245,0 0,13.67 -2.245,0 0,-2.1 q -0.82,1.245 -1.9,1.85 -1.08,0.605 -2.51,0.605 -2.355,0 -3.575,-1.465 -1.22,-1.465 -1.22,-4.285 z m 24.79,-7.87 0,2.12 q -0.95,-0.485 -1.975,-0.73 -1.025,-0.245 -2.125,-0.245 -1.67,0 -2.51,0.515 -0.835,0.51 -0.835,1.535 0,0.78 0.6,1.225 0.595,0.45 2.405,0.85 l 0.77,0.17 q 2.39,0.515 3.395,1.45 1.01,0.93 1.01,2.605 0,1.905 -1.51,3.015 -1.505,1.11 -4.14,1.11 -1.1,0 -2.29,-0.215 -1.19,-0.21 -2.51,-0.64 l 0,-2.32 q 1.245,0.65 2.455,0.97 1.205,0.325 2.39,0.325 1.59,0 2.445,-0.545 0.85,-0.54 0.85,-1.53 0,-0.915 -0.615,-1.405 -0.615,-0.485 -2.705,-0.94 l -0.78,-0.18 q -2.085,-0.44 -3.015,-1.35 -0.925,-0.91 -0.925,-2.495 0,-1.93 1.365,-2.98 1.365,-1.05 3.88,-1.05 1.245,0 2.345,0.185 1.1,0.18 2.025,0.55 z m 16.005,5.87 0,1.095 -10.325,0 q 0.145,2.32 1.395,3.535 1.25,1.215 3.485,1.215 1.295,0 2.51,-0.315 1.215,-0.32 2.41,-0.955 l 0,2.125 q -1.21,0.515 -2.475,0.78 -1.27,0.27 -2.58,0.27 -3.27,0 -5.18,-1.905 -1.91,-1.905 -1.91,-5.15 0,-3.355 1.81,-5.33 1.815,-1.97 4.89,-1.97 2.76,0 4.365,1.775 1.605,1.775 1.605,4.83 z M 503.94,10.94 Q 503.915,9.095 502.91,8 501.9,6.9 500.24,6.9 q -1.88,0 -3.01,1.06 -1.13,1.065 -1.3,2.99 l 8.01,-0.01 z m 14.93,-3.54 0,-7.4 2.245,0 0,18.995 -2.245,0 0,-2.05 q -0.71,1.22 -1.79,1.815 -1.08,0.59 -2.595,0.59 -2.475,0 -4.035,-1.975 -1.555,-1.98 -1.555,-5.2 0,-3.225 1.555,-5.2 1.56,-1.98 4.035,-1.98 1.515,0 2.595,0.59 1.08,0.595 1.79,1.815 z m -7.655,4.775 q 0,2.475 1.02,3.885 1.02,1.41 2.8,1.41 1.785,0 2.81,-1.41 1.025,-1.41 1.025,-3.885 0,-2.48 -1.025,-3.89 -1.025,-1.41 -2.81,-1.41 -1.78,0 -2.8,1.41 -1.02,1.41 -1.02,3.89 z m 32.285,0 q 0,-2.48 -1.015,-3.89 -1.02,-1.41 -2.805,-1.41 -1.78,0 -2.8,1.41 -1.02,1.41 -1.02,3.89 0,2.475 1.02,3.885 1.02,1.41 2.8,1.41 1.785,0 2.805,-1.41 1.015,-1.41 1.015,-3.885 z M 535.86,7.4 q 0.71,-1.22 1.79,-1.815 1.08,-0.59 2.58,-0.59 2.49,0 4.05,1.98 1.555,1.975 1.555,5.2 0,3.22 -1.555,5.2 -1.56,1.975 -4.05,1.975 -1.5,0 -2.58,-0.59 -1.08,-0.595 -1.79,-1.815 l 0,2.05 -2.26,0 0,-18.995 2.26,0 0,7.4 z m 19.385,12.865 q -0.95,2.445 -1.855,3.185 -0.905,0.745 -2.415,0.745 l -1.795,0 0,-1.88 1.315,0 q 0.93,0 1.44,-0.44 0.515,-0.435 1.14,-2.075 l 0.4,-1.025 -5.53,-13.45 2.38,0 4.275,10.695 4.27,-10.695 2.38,0 -6.005,14.94 z"
     id="path183"
     inkscape:connector-curvature="0"
     style="font-size:medium;font-family:sans-serif;fill:#000000;stroke:none;stroke-width:0.02;stroke-linecap:butt;stroke-miterlimit:1;stroke-dasharray:0.2, 0.2" />
  <path
     d="m 428.44,38.4375 0,2.125 q -0.955,-0.49 -1.98,-0.735 -1.025,-0.245 -2.125,-0.245 -1.67,0 -2.505,0.515 -0.835,0.51 -0.835,1.535 0,0.785 0.595,1.23 0.6,0.445 2.405,0.85 l 0.77,0.17 q 2.39,0.51 3.4,1.445 1.005,0.935 1.005,2.605 0,1.905 -1.505,3.015 -1.51,1.11 -4.145,1.11 -1.1,0 -2.29,-0.21 -1.19,-0.215 -2.51,-0.645 l 0,-2.315 q 1.245,0.645 2.455,0.97 1.21,0.32 2.395,0.32 1.585,0 2.44,-0.54 0.855,-0.545 0.855,-1.535 0,-0.915 -0.62,-1.4 -0.615,-0.49 -2.7,-0.94 l -0.785,-0.185 q -2.085,-0.44 -3.015,-1.35 -0.925,-0.91 -0.925,-2.495 0,-1.93 1.365,-2.98 1.37,-1.05 3.885,-1.05 1.245,0 2.34,0.185 1.1,0.185 2.03,0.55 z m 4.31,-0.405 2.245,0 0,13.675 -2.245,0 0,-13.675 z m 0,-5.32 2.245,0 0,2.845 -2.245,0 0,-2.845 z m 15.94,12 q 0,-2.445 -1.005,-3.785 -1.01,-1.345 -2.83,-1.345 -1.805,0 -2.81,1.345 -1.01,1.34 -1.01,3.785 0,2.425 1.01,3.77 1.005,1.345 2.81,1.345 1.82,0 2.83,-1.345 1.005,-1.345 1.005,-3.77 z m 2.245,5.295 q 0,3.49 -1.55,5.195 -1.55,1.705 -4.745,1.705 -1.185,0 -2.235,-0.18 -1.05,-0.175 -2.04,-0.54 l 0,-2.185 q 0.99,0.535 1.955,0.79 0.96,0.255 1.965,0.255 2.21,0 3.305,-1.15 1.1,-1.155 1.1,-3.485 l 0,-1.11 q -0.695,1.205 -1.78,1.805 -1.09,0.6 -2.6,0.6 -2.515,0 -4.055,-1.92 -1.54,-1.915 -1.54,-5.075 0,-3.175 1.54,-5.09 1.54,-1.92 4.055,-1.92 1.51,0 2.6,0.6 1.085,0.595 1.78,1.805 l 0,-2.075 2.245,0 0,11.975 z m 17.875,-10.4 q -1.81,0 -2.86,1.41 -1.05,1.41 -1.05,3.865 0,2.455 1.045,3.865 1.045,1.41 2.865,1.41 1.79,0 2.84,-1.42 1.05,-1.415 1.05,-3.855 0,-2.43 -1.05,-3.85 -1.05,-1.425 -2.84,-1.425 z m 0,-1.905 q 2.925,0 4.6,1.905 1.67,1.905 1.67,5.275 0,3.355 -1.67,5.265 -1.675,1.91 -4.6,1.91 -2.945,0 -4.61,-1.91 -1.665,-1.91 -1.665,-5.265 0,-3.37 1.665,-5.275 1.665,-1.905 4.61,-1.905 z m 17.915,2.43 q -0.375,-0.22 -0.82,-0.325 -0.445,-0.1 -0.985,-0.1 -1.905,0 -2.925,1.235 -1.015,1.24 -1.015,3.56 l 0,7.205 -2.26,0 0,-13.675 2.26,0 0,2.125 q 0.705,-1.245 1.84,-1.85 1.135,-0.605 2.76,-0.605 0.23,0 0.51,0.03 0.285,0.03 0.625,0.095 l 0.01,2.305 z m 17.225,-7.42 0,1.865 -2.145,0 q -1.21,0 -1.68,0.49 -0.47,0.49 -0.47,1.755 l 0,1.21 3.7,0 0,1.745 -3.7,0 0,11.93 -2.26,0 0,-11.93 -2.145,0 0,-1.745 2.145,0 0,-0.95 q 0,-2.285 1.065,-3.33 1.06,-1.04 3.365,-1.04 l 2.125,0 z m 9.805,7.42 q -0.38,-0.22 -0.825,-0.325 -0.445,-0.1 -0.985,-0.1 -1.9,0 -2.92,1.235 -1.02,1.24 -1.02,3.56 l 0,7.205 -2.26,0 0,-13.675 2.26,0 0,2.125 q 0.705,-1.245 1.84,-1.85 1.135,-0.605 2.76,-0.605 0.235,0 0.515,0.03 0.28,0.03 0.62,0.095 l 0.015,2.305 z m 12.195,-1.575 0,2.1 q -0.955,-0.525 -1.91,-0.785 -0.96,-0.265 -1.935,-0.265 -2.185,0 -3.395,1.385 -1.21,1.385 -1.21,3.89 0,2.5 1.21,3.885 1.21,1.39 3.395,1.39 0.975,0 1.935,-0.265 0.955,-0.26 1.91,-0.785 l 0,2.075 q -0.94,0.44 -1.95,0.655 -1.005,0.22 -2.14,0.22 -3.09,0 -4.91,-1.94 -1.815,-1.94 -1.815,-5.235 0,-3.345 1.835,-5.26 1.84,-1.92 5.035,-1.92 1.04,0 2.025,0.215 0.99,0.215 1.92,0.64 z"
     id="path185"
     inkscape:connector-curvature="0"
     style="font-size:medium;font-family:sans-serif;fill:#000000;stroke:none;stroke-width:0.02;stroke-linecap:butt;stroke-miterlimit:1;stroke-dasharray:0.2, 0.2" />
  <g
     style="font-size:0.5px;font-family:sans-serif;stroke-width:0.02"
     id="g187"
     transform="matrix(50,0,0,50,1222.335,714.6775)"
     font-size="0.5px">
    <path
       style="fill:none"
       inkscape:connector-curvature="0"
       id="path189"
       d="m -15.4773,-0.4773 -1.8863,-1.8863" />
    <path
       style="stroke:none"
       inkscape:connector-curvature="0"
       id="path191"
       d="m -17.4166,-2.3106 0.106,-0.106 -0.3359,-0.2298 z" />
  </g>
  <g
     style="font-size:0.5px;font-family:sans-serif;stroke-width:0.02"
     id="g193"
     transform="matrix(50,0,0,50,1222.335,714.6775)"
     font-size="0.5px">
    <path
       style="fill:none"
       inkscape:connector-curvature="0"
       id="path195"
       d="m -18,-3.5 0,-1.7201" />
    <path
       style="stroke:none"
       inkscape:connector-curvature="0"
       id="path197"
       d="m -18.075,-5.2201 0.15,0 -0.075,-0.4 z" />
  </g>
  <g
     style="font-size:0.5px;font-family:sans-serif;stroke-width:0.02"
     id="g199"
     transform="matrix(50,0,0,50,1222.335,714.6775)"
     font-size="0.5px">
    <path
       style="fill:none"
       inkscape:connector-curvature="0"
       id="path201"
       d="m -15,-3.5 0,-1.6227" />
    <path
       style="stroke:none"
       inkscape:connector-curvature="0"
       id="path203"
       d="m -15.075,-5.1227 0.15,0 -0.075,-0.4 z" />
  </g>
  <g
     style="font-size:0.5px;font-family:sans-serif;stroke-width:0.02"
     id="g205"
     transform="matrix(50,0,0,50,1222.335,714.6775)"
     font-size="0.5px">
    <path
       style="fill:none"
       inkscape:connector-curvature="0"
       id="path207"
       d="m -14.5,-3 1.2921,0" />
    <path
       style="stroke:none"
       inkscape:connector-curvature="0"
       id="path209"
       d="m -13.2079,-3.075 0,0.15 0.4,-0.075 z" />
  </g>
  <g
     style="font-size:0.5px;font-family:sans-serif;stroke-width:0.02"
     id="g211"
     transform="matrix(50,0,0,50,1222.335,714.6775)"
     font-size="0.5px">
    <path
       style="fill:none"
       inkscape:connector-curvature="0"
       id="path213"
       d="m -15.2173,-3.4503 c -0.8929,-1.9151 -1.7858,-4.6275 -2.6787,-8.1371" />
  </g>
  <g
     style="font-size:0.5px;font-family:sans-serif;stroke-width:0.02"
     id="g215"
     transform="matrix(50,0,0,50,1222.335,714.6775)"
     font-size="0.5px">
    <path
       style="fill:none"
       inkscape:connector-curvature="0"
       id="path217"
       d="M -18,-6.3799 -18,-8.1" />
    <path
       style="stroke:none"
       inkscape:connector-curvature="0"
       id="path219"
       d="m -18.075,-8.1 0.15,0 L -18,-8.5 Z" />
  </g>
  <g
     style="font-size:0.5px;font-family:sans-serif;stroke-width:0.02"
     id="g221"
     transform="matrix(50,0,0,50,1222.335,714.6775)"
     font-size="0.5px">
    <path
       style="fill:none"
       inkscape:connector-curvature="0"
       id="path223"
       d="m -18,-9.5 0,-1.6875" />
    <path
       style="stroke:none"
       inkscape:connector-curvature="0"
       id="path225"
       d="m -18.075,-11.1875 0.15,0 -0.075,-0.4 z" />
  </g>
  <g
     style="font-size:0.5px;font-family:sans-serif;stroke-width:0.02"
     id="g227"
     transform="matrix(50,0,0,50,1222.335,714.6775)"
     font-size="0.5px">
    <path
       style="fill:none"
       inkscape:connector-curvature="0"
       id="path229"
       d="M -9,-5.5227 -9,-3.9" />
    <path
       style="stroke:none"
       inkscape:connector-curvature="0"
       id="path231"
       d="m -8.925,-3.9 -0.15,0 0.075,0.4 z" />
  </g>
  <g
     style="font-size:0.5px;font-family:sans-serif;stroke-width:0.02"
     id="g233"
     transform="matrix(50,0,0,50,1222.335,714.6775)"
     font-size="0.5px">
    <path
       style="fill:none"
       inkscape:connector-curvature="0"
       id="path235"
       d="M -11.1921,-3 -9.9,-3" />
    <path
       style="stroke:none"
       inkscape:connector-curvature="0"
       id="path237"
       d="m -9.9,-3.075 0,0.15 L -9.5,-3 Z" />
  </g>
  <g
     style="font-size:0.5px;font-family:sans-serif;stroke-width:0.02"
     id="g239"
     transform="matrix(50,0,0,50,1222.335,714.6775)"
     font-size="0.5px">
    <path
       style="fill:none"
       inkscape:connector-curvature="0"
       id="path241"
       d="m -9.4472,-2.7764 -4.2404,2.1202" />
    <path
       style="stroke:none"
       inkscape:connector-curvature="0"
       id="path243"
       d="m -13.6541,-0.5891 -0.0671,-0.1342 -0.3242,0.246 z" />
  </g>
  <g
     style="font-size:0.5px;font-family:sans-serif;stroke-width:0.02"
     id="g245"
     transform="matrix(50,0,0,50,1222.335,714.6775)"
     font-size="0.5px">
    <path
       style="fill:none"
       inkscape:connector-curvature="0"
       id="path247"
       d="M -15,-0.4773 -15,-2.1" />
    <path
       style="stroke:none"
       inkscape:connector-curvature="0"
       id="path249"
       d="m -15.075,-2.1 0.15,0 L -15,-2.5 Z" />
  </g>
  <g
     style="font-size:0.5px;font-family:sans-serif;stroke-width:0.02"
     id="g251"
     transform="matrix(50,0,0,50,1222.335,714.6775)"
     font-size="0.5px">
    <path
       style="fill:none"
       inkscape:connector-curvature="0"
       id="path253"
       d="m -17.6465,-9.3536 1.9511,-1.951" />
    <path
       style="stroke:none"
       inkscape:connector-curvature="0"
       id="path255"
       d="m -15.7484,-11.3576 0.106,0.106 0.2299,-0.3359 z" />
  </g>
  <g
     style="font-size:0.5px;font-family:sans-serif;stroke-width:0.02"
     id="g257"
     transform="matrix(50,0,0,50,1222.335,714.6775)"
     font-size="0.5px">
    <path
       style="fill:none"
       inkscape:connector-curvature="0"
       id="path259"
       d="m -17.9491,-3.4974 c 0.4597,-4.3695 1.1262,-6.7369 7.5417,-8.2108" />
    <path
       style="stroke:none"
       inkscape:connector-curvature="0"
       id="path261"
       d="m -10.4237,-11.7814 0.0326,0.1464 0.3741,-0.1602 z" />
  </g>
  <g
     style="font-size:0.5px;font-family:sans-serif;stroke-width:0.02"
     id="g263"
     transform="matrix(50,0,0,50,1222.335,714.6775)"
     font-size="0.5px">
    <path
       style="fill:none"
       inkscape:connector-curvature="0"
       id="path265"
       d="M -15,-6.4773 -15,-8.1" />
    <path
       style="stroke:none"
       inkscape:connector-curvature="0"
       id="path267"
       d="m -15.075,-8.1 0.15,0 L -15,-8.5 Z" />
  </g>
  <g
     style="font-size:0.5px;font-family:sans-serif;stroke-width:0.02"
     id="g269"
     transform="matrix(50,0,0,50,1222.335,714.6775)"
     font-size="0.5px">
    <path
       style="fill:none"
       inkscape:connector-curvature="0"
       id="path271"
       d="m -14.5528,-9.2236 4.3699,-2.185" />
    <path
       style="stroke:none"
       inkscape:connector-curvature="0"
       id="path273"
       d="m -10.2164,-11.4756 0.0671,0.1341 0.3242,-0.246 z" />
  </g>
  <g
     style="font-size:0.5px;font-family:sans-serif;stroke-width:0.02"
     id="g275"
     transform="matrix(50,0,0,50,1222.335,714.6775)"
     font-size="0.5px">
    <path
       style="fill:none"
       inkscape:connector-curvature="0"
       id="path277"
       d="m -15,-9.5 0,-1.6875" />
    <path
       style="stroke:none"
       inkscape:connector-curvature="0"
       id="path279"
       d="m -15.075,-11.1875 0.15,0 -0.075,-0.4 z" />
  </g>
  <g
     style="font-size:0.5px;font-family:sans-serif;stroke-width:0.02"
     id="g281"
     transform="matrix(50,0,0,50,1222.335,714.6775)"
     font-size="0.5px">
    <path
       style="fill:none"
       inkscape:connector-curvature="0"
       id="path283"
       d="m -17.8538,-11.5875 c 0.9366,2.4906 2.6073,4.2471 5.012,5.2696" />
    <path
       style="stroke:none"
       inkscape:connector-curvature="0"
       id="path285"
       d="m -12.8137,-6.3875 -0.0561,0.1391 0.399,0.0801 z" />
  </g>
  <g
     style="font-size:0.5px;font-family:sans-serif;stroke-width:0.02"
     id="g287"
     transform="matrix(50,0,0,50,1222.335,714.6775)"
     font-size="0.5px">
    <path
       style="fill:none"
       inkscape:connector-curvature="0"
       id="path289"
       d="m -12,-5.5 0,1.6227" />
    <path
       style="stroke:none"
       inkscape:connector-curvature="0"
       id="path291"
       d="m -11.925,-3.8773 -0.15,0 0.075,0.4 z" />
  </g>
  <g
     style="font-size:0.5px;font-family:sans-serif;stroke-width:0.02"
     id="g293"
     transform="matrix(50,0,0,50,1222.335,714.6775)"
     font-size="0.5px">
    <path
       style="fill:none"
       inkscape:connector-curvature="0"
       id="path295"
       d="m -12,-6.5 0,-1.6227" />
    <path
       style="stroke:none"
       inkscape:connector-curvature="0"
       id="path297"
       d="m -12.075,-8.1227 0.15,0 -0.075,-0.4 z" />
  </g>
  <g
     style="font-size:0.5px;font-family:sans-serif;stroke-width:0.02"
     id="g299"
     transform="matrix(50,0,0,50,1222.335,714.6775)"
     font-size="0.5px">
    <path
       style="fill:none"
       inkscape:connector-curvature="0"
       id="path301"
       d="m -14.5,-9 1.2921,0" />
    <path
       style="stroke:none"
       inkscape:connector-curvature="0"
       id="path303"
       d="m -13.2079,-9.075 0,0.15 0.4,-0.075 z" />
  </g>
  <g
     style="font-size:0.5px;font-family:sans-serif;stroke-width:0.02"
     id="g305"
     transform="matrix(50,0,0,50,1222.335,714.6775)"
     font-size="0.5px">
    <path
       style="fill:none"
       inkscape:connector-curvature="0"
       id="path307"
       d="M -9,-11.5875 -9,-9.9" />
    <path
       style="stroke:none"
       inkscape:connector-curvature="0"
       id="path309"
       d="m -8.925,-9.9 -0.15,0 0.075,0.4 z" />
  </g>
  <g
     style="font-size:0.5px;font-family:sans-serif;stroke-width:0.02"
     id="g311"
     transform="matrix(50,0,0,50,1222.335,714.6775)"
     font-size="0.5px">
    <path
       style="fill:none"
       inkscape:connector-curvature="0"
       id="path313"
       d="m -9,-8.5 0,1.6227" />
    <path
       style="stroke:none"
       inkscape:connector-curvature="0"
       id="path315"
       d="m -8.925,-6.8773 -0.15,0 0.075,0.4 z" />
  </g>
  <g
     style="font-size:0.5px;font-family:sans-serif;stroke-width:0.02"
     id="g317"
     transform="matrix(50,0,0,50,1222.335,714.6775)"
     font-size="0.5px">
    <path
       style="fill:none"
       inkscape:connector-curvature="0"
       id="path319"
       d="M -11.1921,-9 -9.9,-9" />
    <path
       style="stroke:none"
       inkscape:connector-curvature="0"
       id="path321"
       d="m -9.9,-9.075 0,0.15 L -9.5,-9 Z" />
  </g>
  <g
     style="font-size:0.5px;font-family:sans-serif;stroke-width:0.02"
     id="g323"
     transform="matrix(50,0,0,50,1222.335,714.6775)"
     font-size="0.5px">
    <path
       style="fill:none"
       inkscape:connector-curvature="0"
       id="path325"
       d="m -14.1749,-11.5875 4.3699,2.185" />
    <path
       style="stroke:none"
       inkscape:connector-curvature="0"
       id="path327"
       d="m -9.7714,-9.4696 -0.0671,0.1342 0.3913,0.1118 z" />
  </g>
  <g
     style="font-size:0.5px;font-family:sans-serif;stroke-width:0.02"
     id="g329"
     transform="matrix(50,0,0,50,1222.335,714.6775)"
     font-size="0.5px">
    <path
       style="fill:none"
       inkscape:connector-curvature="0"
       id="path331"
       d="M -6,-8.5227 -6,-6.9" />
    <path
       style="stroke:none"
       inkscape:connector-curvature="0"
       id="path333"
       d="m -5.925,-6.9 -0.15,0 0.075,0.4 z" />
  </g>
  <g
     style="font-size:0.5px;font-family:sans-serif;stroke-width:0.02"
     id="g335"
     transform="matrix(50,0,0,50,1222.335,714.6775)"
     font-size="0.5px">
    <path
       style="fill:none"
       inkscape:connector-curvature="0"
       id="path337"
       d="m -11.1921,-8.5961 4.3871,2.1936" />
    <path
       style="stroke:none"
       inkscape:connector-curvature="0"
       id="path339"
       d="m -6.7714,-6.4696 -0.0671,0.1342 0.3913,0.1118 z" />
  </g>
  <g
     style="font-size:0.5px;font-family:sans-serif;stroke-width:0.02"
     id="g341"
     transform="matrix(50,0,0,50,1222.335,714.6775)"
     font-size="0.5px">
    <path
       style="fill:none"
       inkscape:connector-curvature="0"
       id="path343"
       d="M -11.1921,-3.4039 -6.805,-5.5975" />
    <path
       style="stroke:none"
       inkscape:connector-curvature="0"
       id="path345"
       d="m -6.8385,-5.6646 0.0671,0.1342 0.3242,-0.246 z" />
  </g>
  <g
     style="font-size:0.5px;font-family:sans-serif;stroke-width:0.02"
     id="g347"
     transform="matrix(50,0,0,50,1222.335,714.6775)"
     font-size="0.5px">
    <path
       style="fill:none"
       inkscape:connector-curvature="0"
       id="path349"
       d="m -6,-5.5 0,4.7201" />
    <path
       style="stroke:none"
       inkscape:connector-curvature="0"
       id="path351"
       d="m -5.925,-0.7799 -0.15,0 0.075,0.4 z" />
  </g>
  <g
     style="font-size:0.5px;font-family:sans-serif;stroke-width:0.02"
     id="g353"
     transform="matrix(50,0,0,50,1222.335,714.6775)"
     font-size="0.5px">
    <path
       style="fill:none"
       inkscape:connector-curvature="0"
       id="path355"
       d="m -6.8595,0 -6.7751,0" />
    <path
       style="stroke:none"
       inkscape:connector-curvature="0"
       id="path357"
       d="m -13.6346,0.075 0,-0.15 -0.4,0.075 z" />
  </g>
  <g
     style="font-size:0.5px;font-family:sans-serif;stroke-width:0.02"
     id="g359"
     transform="matrix(50,0,0,50,709.98,714.6775)"
     font-size="0.5px">
    <circle
       style="stroke:none"
       id="circle361"
       r="0.2105"
       cy="0"
       cx="0" />
  </g>
  <g
     style="font-size:0.5px;font-family:sans-serif;stroke-width:0.02"
     id="g363"
     transform="matrix(50,0,0,50,1222.335,714.6775)"
     font-size="0.5px">
    <path
       style="fill:none"
       inkscape:connector-curvature="0"
       id="path365"
       d="m -13.983,-12 1.083,0" />
    <path
       style="stroke:none"
       inkscape:connector-curvature="0"
       id="path367"
       d="m -12.9,-12.075 0,0.15 0.4,-0.075 z" />
  </g>
  <g
     style="font-size:0.5px;font-family:sans-serif;stroke-width:0.02"
     id="g369"
     transform="matrix(50,0,0,50,1222.335,714.6775)"
     font-size="0.5px">
    <path
       style="fill:none"
       inkscape:connector-curvature="0"
       id="path371"
       d="M -11.6464,-12.3536 -11,-13 l 5,0 0,3.1227" />
    <path
       style="stroke:none"
       inkscape:connector-curvature="0"
       id="path373"
       d="m -5.925,-9.8773 -0.15,0 0.075,0.4 z" />
  </g>
  <g
     style="font-size:0.5px;font-family:sans-serif;stroke-width:0.02"
     id="g375"
     transform="matrix(50,0,0,50,1222.335,714.6775)"
     font-size="0.5px">
    <path
       style="fill:none"
       inkscape:connector-curvature="0"
       id="path377"
       d="m -10.017,-12 -1.083,0" />
    <path
       style="stroke:none"
       inkscape:connector-curvature="0"
       id="path379"
       d="m -11.1,-11.925 0,-0.15 -0.4,0.075 z" />
  </g>
  <g
     style="font-size:0.5px;font-family:sans-serif;stroke-width:0.02"
     id="g381"
     transform="matrix(50,0,0,50,1222.335,714.6775)"
     font-size="0.5px">
    <path
       style="fill:none"
       inkscape:connector-curvature="0"
       id="path383"
       d="m -21.1083,-7.7464 c 0.36,0.2065 0.6716,0.5225 0.8719,0.8852" />
    <path
       style="stroke:none"
       inkscape:connector-curvature="0"
       id="path385"
       d="m -20.1676,-6.8909 -0.1377,0.0593 0.2271,0.3378 z" />
  </g>
  <g
     style="font-size:0.5px;font-family:sans-serif;stroke-width:0.02"
     id="g387"
     transform="matrix(50,0,0,50,1222.335,714.6775)"
     font-size="0.5px">
    <path
       style="fill:none"
       inkscape:connector-curvature="0"
       id="path389"
       d="m -20.0782,-5.5062 c -0.139,0.4436 -0.4514,0.8525 -0.8425,1.132" />
    <path
       style="stroke:none"
       inkscape:connector-curvature="0"
       id="path391"
       d="m -20.8827,-4.3095 -0.0759,-0.1294 -0.3071,0.2671 z" />
  </g>
  <g
     style="font-size:0.5px;font-family:sans-serif;stroke-width:0.02"
     id="g393"
     transform="matrix(50,0,0,50,1222.335,714.6775)"
     font-size="0.5px">
    <path
       style="fill:none"
       inkscape:connector-curvature="0"
       id="path395"
       d="m -22.7343,-4.0906 c -1.8282,-0.4846 -2.0026,-2.7792 -0.5231,-3.609" />
    <path
       style="stroke:none"
       inkscape:connector-curvature="0"
       id="path397"
       d="m -23.2878,-7.7682 0.0609,0.1372 0.3352,-0.2309 z" />
  </g>
  <g
     style="font-size:0.5px;font-family:sans-serif;stroke-width:0.02"
     id="g399"
     transform="matrix(50,0,0,50,10.525,426.3975)"
     font-size="0.5px">
    <circle
       style="stroke:none"
       id="circle401"
       r="0.2105"
       cy="0"
       cx="0" />
  </g>
  <g
     style="font-size:0.5px;font-family:sans-serif;stroke-width:0.02"
     id="g403"
     transform="matrix(50,0,0,50,1222.335,714.6775)"
     font-size="0.5px">
    <path
       style="fill:none"
       inkscape:connector-curvature="0"
       id="path405"
       d="m -19.5,-6 1.2099,0" />
  </g>
</svg>
