<?xml version="1.0" encoding="UTF-8" standalone="no"?>
<svg xmlns:dc="http://purl.org/dc/elements/1.1/" xmlns:cc="http://creativecommons.org/ns#" xmlns:rdf="http://www.w3.org/1999/02/22-rdf-syntax-ns#" xmlns:svg="http://www.w3.org/2000/svg" xmlns="http://www.w3.org/2000/svg" xmlns:sodipodi="http://sodipodi.sourceforge.net/DTD/sodipodi-0.dtd" xmlns:inkscape="http://www.inkscape.org/namespaces/inkscape" font-size="12px" font-style="normal" font-weight="normal" height="100%" stroke-miterlimit="10" width="100%" id="svg2" version="1.1" inkscape:version="0.91 r13725" sodipodi:docname="SAMPLE.circuit.svg" style="font-style:normal;font-weight:normal;font-size:12px;font-family:Dialog;color-interpolation:auto;fill:#000000;fill-opacity:1;stroke:#000000;stroke-width:1;stroke-linecap:square;stroke-linejoin:miter;stroke-miterlimit:10;stroke-dasharray:none;stroke-dashoffset:0;stroke-opacity:1;color-rendering:auto;image-rendering:auto;shape-rendering:auto;text-rendering:auto" viewBox="0 0 531 331" preserveAspectRatio="xMidYMid slice">
  <metadata
     id="metadata165">
    <rdf:RDF>
      <cc:Work
         rdf:about="">
        <dc:format>image/svg+xml</dc:format>
        <dc:type
           rdf:resource="http://purl.org/dc/dcmitype/StillImage" />
        <dc:title></dc:title>
      </cc:Work>
    </rdf:RDF>
  </metadata>
  <sodipodi:namedview
     pagecolor="#ffffff"
     bordercolor="#666666"
     borderopacity="1"
     objecttolerance="10"
     gridtolerance="10"
     guidetolerance="10"
     inkscape:pageopacity="0"
     inkscape:pageshadow="2"
     inkscape:window-width="1920"
     inkscape:window-height="1176"
     id="namedview163"
     showgrid="true"
     inkscape:object-nodes="true"
     fit-margin-top="0"
     fit-margin-left="0"
     fit-margin-right="0"
     fit-margin-bottom="0"
     inkscape:zoom="1.1444588"
     inkscape:cx="150.00466"
     inkscape:cy="111.8161"
     inkscape:window-x="0"
     inkscape:window-y="24"
     inkscape:window-maximized="1"
     inkscape:current-layer="svg2">
    <inkscape:grid
       type="xygrid"
       id="grid8225"
       originx="-4.9988"
       originy="60.5" />
  </sodipodi:namedview>
  <!--Generated by the Batik Graphics2D SVG Generator-->
  <defs
     id="genericDefs">
    <inkscape:path-effect
       effect="spiro"
       id="path-effect8229"
       is_visible="true" />
    <inkscape:path-effect
       effect="spiro"
       id="path-effect8229-3"
       is_visible="true" />
  </defs>
  <g
     id="g5"
     transform="translate(-4.9988,60.5)">
    <g
       transform="matrix(50,0,0,50,330.125,105)"
       id="g7"
       style="fill:#ffffff;stroke:#ffffff">
      <rect
         height="4"
         width="4"
         x="-2"
         y="-2"
         id="rect9"
         style="stroke:none" />
      <rect
         height="4"
         width="4"
         x="-2"
         y="-2"
         id="rect11"
         style="fill:none;stroke:#000000;stroke-width:0.06" />
      <line
         x1="2.5"
         x2="2"
         y1="-1.5"
         y2="-1.5"
         id="line13"
         style="fill:none;stroke:#000000;stroke-width:0.04" />
      <line
         x1="-2.5"
         x2="-2"
         y1="-1.5"
         y2="-1.5"
         id="line15"
         style="fill:none;stroke:#000000;stroke-width:0.04" />
      <line
         x1="2.5"
         x2="2"
         y1="0"
         y2="0"
         id="line17"
         style="fill:none;stroke:#000000;stroke-width:0.04" />
      <line
         x1="2.5"
         x2="2"
         y1="1.5"
         y2="1.5"
         id="line19"
         style="fill:none;stroke:#000000;stroke-width:0.04" />
      <line
         x1="-2.5"
         x2="-2"
         y1="1.5"
         y2="1.5"
         id="line21"
         style="fill:none;stroke:#000000;stroke-width:0.04" />
      <path
         d="m 1.2812,-1.1755 0.0129,-0.0418 q 0.0383,0.0198 0.0788,0.0198 0.0813,0 0.0964,-0.0862 l 0.0073,-0.0417 q -0.0364,0.0556 -0.0972,0.0556 -0.0476,0 -0.0696,-0.0346 -0.022,-0.0347 -0.0117,-0.0936 0.0106,-0.0605 0.0492,-0.0986 0.0387,-0.0381 0.0895,-0.0381 0.0444,0 0.0701,0.0362 l 0.0053,-0.0303 0.0483,0 -0.0338,0.1929 q -0.0108,0.0622 -0.0226,0.0921 -0.0117,0.0299 -0.0328,0.049 -0.0374,0.0334 -0.1038,0.0334 -0.0464,0 -0.0863,-0.0141 z m 0.2006,-0.18 0.0193,-0.1101 q -0.026,-0.0329 -0.0633,-0.0329 -0.0332,0 -0.0567,0.0266 -0.0234,0.0266 -0.0316,0.073 -0.0152,0.0871 0.0461,0.0871 0.0417,0 0.0862,-0.0437 z m 0.1527,0.0918 0.0063,-0.0361 0.0723,0 0.0499,-0.2852 -0.0755,0.0181 0.0065,-0.0371 0.1259,-0.03 -0.0585,0.3342 0.0723,0 -0.0064,0.0361 -0.1928,0 z"
         id="path23"
         inkscape:connector-curvature="0"
         style="fill:#0000ff;stroke:none;stroke-width:0.04" />
      <path
         d="m -1.6827,-1.2576 q -0.0329,0 -0.0773,-0.0154 l 0.0077,-0.0441 q 0.043,0.0234 0.0779,0.0234 0.0208,0 0.0364,-0.0112 0.0156,-0.0113 0.0186,-0.0281 0.0043,-0.0247 -0.0312,-0.0408 l -0.026,-0.012 q -0.0577,-0.0258 -0.0492,-0.0744 0.0061,-0.0347 0.0341,-0.0546 0.028,-0.0199 0.0707,-0.0199 0.0222,0 0.0539,0.0061 l 0.0096,0.002 -0.007,0.04 q -0.0381,-0.0119 -0.0618,-0.0119 -0.0464,0 -0.0523,0.0337 -0.0038,0.0217 0.0287,0.0366 l 0.0215,0.0097 q 0.0364,0.0166 0.0496,0.0351 0.0131,0.0184 0.0083,0.046 -0.0062,0.0349 -0.0377,0.0574 -0.0315,0.0224 -0.0745,0.0224 z m 0.1857,-0.0061 0.0464,-0.2651 0.0481,0 -0.0464,0.2651 -0.0481,0 z m 0.0548,-0.3132 0.0084,-0.0481 0.0481,0 -0.0084,0.0481 -0.0481,0 z m 0.0753,0.4014 0.0129,-0.0418 q 0.0383,0.0198 0.0788,0.0198 0.0813,0 0.0964,-0.0862 l 0.0073,-0.0417 q -0.0364,0.0556 -0.0971,0.0556 -0.0477,0 -0.0697,-0.0346 -0.022,-0.0347 -0.0117,-0.0936 0.0106,-0.0605 0.0493,-0.0986 0.0386,-0.0381 0.0894,-0.0381 0.0444,0 0.0701,0.0362 l 0.0053,-0.0303 0.0483,0 -0.0337,0.1929 q -0.0109,0.0622 -0.0226,0.0921 -0.0117,0.0299 -0.0329,0.049 -0.0373,0.0334 -0.1038,0.0334 -0.0463,0 -0.0863,-0.0141 z m 0.2006,-0.18 0.0193,-0.1101 q -0.0259,-0.0329 -0.0633,-0.0329 -0.0332,0 -0.0567,0.0266 -0.0234,0.0266 -0.0315,0.073 -0.0153,0.0871 0.046,0.0871 0.0417,0 0.0862,-0.0437 z m 0.1527,0.0918 0.0063,-0.0361 0.0723,0 0.0499,-0.2852 -0.0755,0.0181 0.0065,-0.0371 0.1259,-0.03 -0.0585,0.3342 0.0723,0 -0.0064,0.0361 -0.1928,0 z"
         id="path25"
         inkscape:connector-curvature="0"
         style="fill:#ff0000;stroke:none;stroke-width:0.04" />
      <path
         d="M 1.1791,0.2019 Q 1.1254,0.2019 1.097,0.1621 1.0685,0.1223 1.0791,0.0618 q 0.0114,-0.0647 0.0527,-0.1009 0.0414,-0.0361 0.1041,-0.0361 0.031,0 0.0679,0.0086 L 1.2967,-0.0264 Q 1.258,-0.0383 1.2324,-0.0383 q -0.0369,0 -0.064,0.0277 -0.0272,0.0277 -0.0353,0.0738 -0.0078,0.0447 0.0103,0.0723 0.0181,0.0276 0.0552,0.0276 0.033,0 0.0708,-0.0169 L 1.2622,0.1877 Q 1.2131,0.2019 1.1791,0.2019 Z m 0.2322,0 q -0.0366,0 -0.0534,-0.021 Q 1.341,0.1599 1.3476,0.1226 l 0.0272,-0.1558 -0.0332,0 0.0063,-0.0361 0.0332,0 0.0085,-0.0481 0.0489,-0.0047 -0.0093,0.0528 0.0694,0 -0.0063,0.0361 -0.0694,0 -0.0257,0.147 q -0.0091,0.052 0.0358,0.052 0.0095,0 0.0238,-0.0032 L 1.451,0.1958 Q 1.4277,0.2019 1.4113,0.2019 Z m 0.1085,-0.0061 0.0464,-0.2651 0.0481,0 -0.0087,0.0498 q 0.0383,-0.0557 0.0927,-0.0557 0.0074,0 0.0152,0.0012 l -0.0079,0.0449 q -0.0117,-0.0041 -0.0212,-0.0041 -0.0457,0 -0.0859,0.0542 l -0.0306,0.1748 -0.0481,0 z m 0.2046,0 0.0675,-0.3855 0.0481,0 -0.0675,0.3855 -0.0481,0 z"
         id="path27"
         inkscape:connector-curvature="0"
         style="fill:#ff0000;stroke:none;stroke-width:0.04" />
      <path
         d="M 1.242,1.8245 1.2549,1.7827 q 0.0383,0.0198 0.0788,0.0198 0.0813,0 0.0964,-0.0862 L 1.4374,1.6746 Q 1.4011,1.7302 1.3403,1.7302 1.2927,1.7302 1.2707,1.6956 1.2486,1.6609 1.2589,1.602 1.2695,1.5415 1.3082,1.5034 1.3468,1.4653 1.3976,1.4653 q 0.0444,0 0.0701,0.0362 l 0.0053,-0.0303 0.0484,0 -0.0338,0.1929 Q 1.4767,1.7263 1.465,1.7562 1.4533,1.7861 1.4321,1.8052 1.3948,1.8386 1.3284,1.8386 1.282,1.8386 1.242,1.8245 Z M 1.4427,1.6445 1.4619,1.5344 Q 1.436,1.5015 1.3986,1.5015 q -0.0332,0 -0.0566,0.0266 -0.0235,0.0266 -0.0316,0.073 -0.0153,0.0871 0.046,0.0871 0.0418,0 0.0863,-0.0437 z M 1.5616,1.7363 1.569,1.6941 Q 1.5986,1.645 1.6727,1.5872 L 1.7046,1.5625 Q 1.7662,1.5144 1.7745,1.467 1.7798,1.4368 1.7647,1.4194 1.7495,1.4021 1.7178,1.4021 1.6802,1.4021 1.624,1.4312 L 1.6315,1.3887 Q 1.6836,1.366 1.7309,1.366 q 0.0508,0 0.0768,0.0273 0.026,0.0274 0.0181,0.0725 Q 1.8201,1.4983 1.8002,1.5234 1.7803,1.5486 1.7318,1.5845 L 1.7104,1.6003 Q 1.644,1.6494 1.6271,1.6941 l 0.157,0 -0.0074,0.0422 -0.2151,0 z"
         id="path29"
         inkscape:connector-curvature="0"
         style="fill:#0000ff;stroke:none;stroke-width:0.04" />
      <path
         d="m -1.6827,1.7424 q -0.0329,0 -0.0773,-0.0154 l 0.0077,-0.0441 q 0.043,0.0234 0.0779,0.0234 0.0208,0 0.0364,-0.0112 0.0156,-0.0113 0.0186,-0.0281 0.0043,-0.0247 -0.0312,-0.0408 l -0.026,-0.012 q -0.0577,-0.0258 -0.0492,-0.0744 0.0061,-0.0347 0.0341,-0.0546 0.028,-0.0199 0.0707,-0.0199 0.0222,0 0.0539,0.0061 l 0.0096,0.002 -0.007,0.04 q -0.0381,-0.0119 -0.0618,-0.0119 -0.0464,0 -0.0523,0.0337 -0.0038,0.0217 0.0287,0.0366 l 0.0215,0.0097 q 0.0364,0.0166 0.0496,0.0351 0.0131,0.0184 0.0083,0.046 -0.0062,0.0349 -0.0377,0.0574 -0.0315,0.0224 -0.0745,0.0224 z m 0.1857,-0.0061 0.0464,-0.2651 0.0481,0 -0.0464,0.2651 -0.0481,0 z m 0.0548,-0.3132 0.0084,-0.0481 0.0481,0 -0.0084,0.0481 -0.0481,0 z m 0.0753,0.4014 0.0129,-0.0418 q 0.0383,0.0198 0.0788,0.0198 0.0813,0 0.0964,-0.0862 l 0.0073,-0.0417 q -0.0364,0.0556 -0.0971,0.0556 -0.0477,0 -0.0697,-0.0346 -0.022,-0.0347 -0.0117,-0.0936 0.0106,-0.0605 0.0493,-0.0986 0.0386,-0.0381 0.0894,-0.0381 0.0444,0 0.0701,0.0362 l 0.0053,-0.0303 0.0483,0 -0.0337,0.1929 q -0.0109,0.0622 -0.0226,0.0921 -0.0117,0.0299 -0.0329,0.049 -0.0373,0.0334 -0.1038,0.0334 -0.0463,0 -0.0863,-0.0141 z m 0.2006,-0.18 0.0193,-0.1101 q -0.0259,-0.0329 -0.0633,-0.0329 -0.0332,0 -0.0567,0.0266 -0.0234,0.0266 -0.0315,0.073 -0.0153,0.0871 0.046,0.0871 0.0417,0 0.0862,-0.0437 z m 0.119,0.0918 0.0074,-0.0422 Q -1.0103,1.645 -0.9362,1.5872 L -0.9043,1.5625 Q -0.8427,1.5144 -0.8344,1.467 -0.8291,1.4368 -0.8443,1.4194 -0.8594,1.4021 -0.8912,1.4021 q -0.0376,0 -0.0937,0.0291 l 0.0075,-0.0425 q 0.052,-0.0227 0.0994,-0.0227 0.0508,0 0.0768,0.0273 0.0259,0.0274 0.018,0.0725 -0.0057,0.0325 -0.0256,0.0576 -0.0199,0.0252 -0.0684,0.0611 L -0.8985,1.6003 Q -0.965,1.6494 -0.9818,1.6941 l 0.157,0 -0.0074,0.0422 -0.2151,0 z"
         id="path31"
         inkscape:connector-curvature="0"
         style="fill:#ff0000;stroke:none;stroke-width:0.04" />
    </g>
    <g
       font-size="0.5px"
       transform="matrix(50,0,0,50,330.1238,105)"
       id="g33"
       style="font-size:0.5px;font-family:sans-serif;stroke-width:0.04">
      <path
         d="m -0.7998,-0.2369 0.0498,0 0.0767,0.3081 0.0764,-0.3081 0.0554,0 0.0767,0.3081 0.0764,-0.3081 0.05,0 -0.0915,0.3645 -0.062,0 -0.0769,-0.3164 -0.0777,0.3164 -0.062,0 -0.0913,-0.3645 z m 0.6487,0.0486 -0.0669,0.1814 0.134,0 -0.0671,-0.1814 z m -0.0279,-0.0486 0.0559,0 0.139,0.3645 -0.0513,0 -0.0332,-0.0935 -0.1643,0 -0.0332,0.0935 -0.052,0 0.1391,-0.3645 z m 0.2481,0 0.0493,0 0,0.3645 -0.0493,0 0,-0.3645 z m 0.0969,0 0.3084,0 0,0.0415 -0.1294,0 0,0.323 -0.0496,0 0,-0.323 -0.1294,0 0,-0.0415 z m 0.3384,0 0.053,0 0.0905,0.1355 0.0911,-0.1355 0.053,0 -0.1172,0.175 0.125,0.1895 -0.053,0 -0.1025,-0.1551 -0.1033,0.1551 -0.0532,0 0.1301,-0.1946 -0.1135,-0.1699 z"
         id="path35"
         inkscape:connector-curvature="0"
         style="stroke:none" />
    </g>
    <g
       font-size="0.5px"
       transform="matrix(50,0,0,50,122.6238,30)"
       id="g37"
       style="font-size:0.5px;font-family:sans-serif;fill:#ffffff;stroke:#ffffff;stroke-width:0.06">
      <path
         d="m -0.5,-0.5 0,1 1,-0.5 z"
         id="path39"
         inkscape:connector-curvature="0"
         style="stroke:none" />
      <path
         d="m -0.5,-0.5 0,1 1,-0.5 z"
         id="path41"
         inkscape:connector-curvature="0"
         style="fill:none;stroke:#000000" />
      <circle
         cx="0"
         cy="0"
         r="0.15000001"
         transform="translate(0.65,0)"
         id="circle43"
         style="stroke:none" />
      <circle
         cx="0"
         cy="0"
         r="0.15000001"
         transform="translate(0.65,0)"
         id="circle45"
         style="fill:none;stroke:#000000" />
      <line
         transform="translate(0.15,0)"
         x1="0.64999998"
         x2="1"
         y1="0"
         y2="0"
         id="line47"
         style="fill:none;stroke:#000000;stroke-width:0.04" />
      <line
         transform="translate(0.15,0)"
         x1="-0.64999998"
         x2="-1"
         y1="0"
         y2="0"
         id="line49"
         style="fill:none;stroke:#000000;stroke-width:0.04" />
    </g>
    <g
       font-size="0.5px"
       transform="matrix(50,0,0,50,480.1238,30)"
       id="g51"
       style="font-size:0.5px;font-family:sans-serif;fill:#ffffff;stroke:#ffffff;stroke-width:0.06">
      <path
         d="M -0.13,-0.13 0,-0.13 0.13,0 0,0.13 l -0.13,0 z"
         id="path53"
         inkscape:connector-curvature="0"
         style="stroke:none" />
      <path
         d="M -0.13,-0.13 0,-0.13 0.13,0 0,0.13 l -0.13,0 z"
         id="path55"
         inkscape:connector-curvature="0"
         style="fill:none;stroke:#000000" />
    </g>
    <g
       font-size="0.5px"
       font-style="italic"
       transform="matrix(50,0,0,50,480.1238,30)"
       id="g57"
       style="font-style:italic;font-size:0.5px;font-family:sans-serif;fill:#0000ff;stroke:#0000ff;stroke-width:0.06">
      <path
         d="M 0.51,0.1381 0.5187,0.0883 Q 0.4797,0.1442 0.4206,0.1442 0.3727,0.1442 0.3514,0.1093 0.33,0.0744 0.3406,0.0138 q 0.0116,-0.0662 0.0498,-0.1064 0.0381,-0.0403 0.0889,-0.0403 0.0471,0 0.0718,0.0361 l 0.0264,-0.1506 0.0483,0 -0.0674,0.3855 -0.0484,0 z m 0.0353,-0.2019 q -0.0315,-0.033 -0.065,-0.033 -0.0691,0 -0.0876,0.1057 -0.0162,0.093 0.0453,0.093 0.04,0 0.086,-0.0436 l 0.0213,-0.1221 z m 0.2163,0.2109 q -0.0559,0 -0.0812,-0.0526 -0.0254,-0.0526 -0.0106,-0.1373 0.015,-0.0855 0.0589,-0.1375 0.0439,-0.052 0.1008,-0.052 0.0569,0 0.0825,0.052 0.0257,0.052 0.0109,0.1367 Q 0.9077,0.0434 0.8638,0.0952 0.82,0.1471 0.7616,0.1471 Z M 0.7684,0.111 q 0.0764,0 0.1036,-0.1553 0.0266,-0.1518 -0.0488,-0.1518 -0.0752,0 -0.1021,0.1533 Q 0.6942,0.111 0.7684,0.111 Z"
         id="path59"
         inkscape:connector-curvature="0"
         style="stroke:none" />
    </g>
    <g
       font-size="0.5px"
       font-style="italic"
       transform="matrix(50,0,0,50,480.1238,180)"
       id="g61"
       style="font-style:italic;font-size:0.5px;font-family:sans-serif;fill:#ffffff;stroke:#ffffff;stroke-width:0.06">
      <path
         d="M -0.13,-0.13 0,-0.13 0.13,0 0,0.13 l -0.13,0 z"
         id="path63"
         inkscape:connector-curvature="0"
         style="stroke:none" />
      <path
         d="M -0.13,-0.13 0,-0.13 0.13,0 0,0.13 l -0.13,0 z"
         id="path65"
         inkscape:connector-curvature="0"
         style="fill:none;stroke:#000000" />
    </g>
    <g
       font-size="0.5px"
       font-style="italic"
       transform="matrix(50,0,0,50,480.1238,180)"
       id="g67"
       style="font-style:italic;font-size:0.5px;font-family:sans-serif;fill:#0000ff;stroke:#0000ff;stroke-width:0.06">
      <path
         d="M 0.51,0.1371 0.5187,0.0873 Q 0.4797,0.1432 0.4206,0.1432 0.3727,0.1432 0.3514,0.1083 0.33,0.0733 0.3406,0.0128 q 0.0116,-0.0662 0.0498,-0.1065 0.0381,-0.0402 0.0889,-0.0402 0.0471,0 0.0718,0.0361 l 0.0264,-0.1506 0.0483,0 -0.0674,0.3855 -0.0484,0 z m 0.0353,-0.2019 q -0.0315,-0.033 -0.065,-0.033 -0.0691,0 -0.0876,0.1057 -0.0162,0.093 0.0453,0.093 0.04,0 0.086,-0.0437 l 0.0213,-0.122 z m 0.1364,0.2019 0.0063,-0.0362 0.0722,0 0.05,-0.2851 -0.0755,0.018 0.0065,-0.0371 0.1259,-0.03 -0.0585,0.3342 0.0722,0 -0.0063,0.0362 -0.1928,0 z"
         id="path69"
         inkscape:connector-curvature="0"
         style="stroke:none" />
    </g>
    <g
       font-size="0.5px"
       font-style="italic"
       transform="matrix(50,0,0,50,55.1238,105)"
       id="g71"
       style="font-style:italic;font-size:0.5px;font-family:sans-serif;fill:#ffffff;stroke:#ffffff;stroke-width:0.06">
      <path
         d="M -0.13,-0.13 0,-0.13 0.13,0 0,0.13 l -0.13,0 z"
         id="path73"
         inkscape:connector-curvature="0"
         style="stroke:none" />
      <path
         d="M -0.13,-0.13 0,-0.13 0.13,0 0,0.13 l -0.13,0 z"
         id="path75"
         inkscape:connector-curvature="0"
         style="fill:none;stroke:#000000" />
    </g>
    <g
       font-size="0.5px"
       font-style="italic"
       transform="matrix(50,0,0,50,55.1238,105)"
       id="g77"
       style="font-style:italic;font-size:0.5px;font-family:sans-serif;fill:#ff0000;stroke:#ff0000;stroke-width:0.06">
      <path
         d="m -0.9251,0.1684 q -0.0329,0 -0.0774,-0.0154 l 0.0078,-0.0442 q 0.043,0.0234 0.0779,0.0234 0.0207,0 0.0364,-0.0112 0.0156,-0.0112 0.0186,-0.0281 0.0043,-0.0246 -0.0312,-0.0407 l -0.026,-0.012 q -0.0577,-0.0259 -0.0492,-0.0745 0.006,-0.0346 0.0341,-0.0545 0.028,-0.0199 0.0707,-0.0199 0.0222,0 0.0539,0.0061 l 0.0096,0.0019 -0.007,0.0401 q -0.0382,-0.012 -0.0619,-0.012 -0.0463,0 -0.0522,0.0337 -0.0038,0.0217 0.0287,0.0366 l 0.0215,0.0098 q 0.0364,0.0166 0.0495,0.035 0.0132,0.0185 0.0083,0.046 -0.0061,0.035 -0.0376,0.0574 -0.0315,0.0225 -0.0745,0.0225 z m 0.1856,-0.0061 0.0465,-0.2652 0.048,0 -0.0464,0.2652 -0.0481,0 z m 0.0549,-0.3133 0.0084,-0.0481 0.0481,0 -0.0084,0.0481 -0.0481,0 z m 0.0752,0.4014 0.013,-0.0417 q 0.0382,0.0197 0.0788,0.0197 0.0813,0 0.0964,-0.0861 l 0.0073,-0.0418 q -0.0364,0.0557 -0.0972,0.0557 -0.0476,0 -0.0696,-0.0347 -0.022,-0.0347 -0.0117,-0.0935 0.0106,-0.0606 0.0492,-0.0986 0.0387,-0.0381 0.0894,-0.0381 0.0445,0 0.0702,0.0361 l 0.0053,-0.0303 0.0483,0 -0.0338,0.1929 q -0.0109,0.0623 -0.0226,0.0922 -0.0117,0.0299 -0.0328,0.0489 -0.0374,0.0335 -0.1038,0.0335 -0.0464,0 -0.0864,-0.0142 z m 0.2007,-0.1799 0.0193,-0.1101 q -0.026,-0.033 -0.0633,-0.033 -0.0332,0 -0.0567,0.0266 -0.0235,0.0266 -0.0316,0.073 -0.0152,0.0872 0.0461,0.0872 0.0417,0 0.0862,-0.0437 z"
         id="path79"
         inkscape:connector-curvature="0"
         style="stroke:none" />
    </g>
    <g
       font-size="0.5px"
       font-style="italic"
       transform="matrix(50,0,0,50,80.1238,105)"
       id="g81"
       style="font-style:italic;font-size:0.5px;font-family:sans-serif;stroke-width:0.06">
      <circle
         cx="0"
         cy="0"
         r="0.125"
         id="circle83"
         style="stroke:none" />
    </g>
    <g
       font-size="0.5px"
       font-style="italic"
       transform="matrix(-50,0,0,-50,480.1238,105)"
       id="g85"
       style="font-style:italic;font-size:0.5px;font-family:sans-serif;fill:#ffffff;stroke:#ffffff;stroke-width:0.06">
      <path
         d="M -0.13,-0.13 0,-0.13 0.13,0 0,0.13 l -0.13,0 z"
         id="path87"
         inkscape:connector-curvature="0"
         style="stroke:none" />
      <path
         d="M -0.13,-0.13 0,-0.13 0.13,0 0,0.13 l -0.13,0 z"
         id="path89"
         inkscape:connector-curvature="0"
         style="fill:none;stroke:#000000" />
    </g>
    <g
       font-size="0.5px"
       font-style="italic"
       transform="matrix(50,0,0,50,480.1238,105)"
       id="g91"
       style="font-style:italic;font-size:0.5px;font-family:sans-serif;fill:#ff0000;stroke:#ff0000;stroke-width:0.06">
      <path
         d="M 0.4406,0.1432 Q 0.3869,0.1432 0.3584,0.1034 0.33,0.0636 0.3406,0.003 q 0.0113,-0.0647 0.0527,-0.1008 0.0413,-0.0361 0.1041,-0.0361 0.031,0 0.0678,0.0085 l -0.007,0.0403 q -0.0387,-0.012 -0.0643,-0.012 -0.0369,0 -0.0641,0.0277 -0.0272,0.0277 -0.0353,0.0739 -0.0078,0.0447 0.0104,0.0723 0.0181,0.0275 0.0552,0.0275 0.0329,0 0.0708,-0.0168 L 0.5236,0.129 Q 0.4745,0.1432 0.4406,0.1432 Z m 0.2322,0 q -0.0366,0 -0.0535,-0.021 Q 0.6025,0.1012 0.609,0.0638 l 0.0273,-0.1557 -0.0332,0 0.0063,-0.0362 0.0332,0 0.0084,-0.0481 0.0489,-0.0046 -0.0092,0.0527 0.0693,0 -0.0063,0.0362 -0.0693,0 -0.0257,0.1469 q -0.0092,0.052 0.0358,0.052 0.0095,0 0.0237,-0.0031 L 0.7124,0.1371 Q 0.6891,0.1432 0.6728,0.1432 Z m 0.1085,-0.0061 0.0464,-0.2652 0.0481,0 -0.0088,0.0498 q 0.0383,-0.0556 0.0928,-0.0556 0.0073,0 0.0152,0.0012 l -0.0079,0.0449 q -0.0117,-0.0041 -0.0213,-0.0041 -0.0456,0 -0.0859,0.0542 l -0.0306,0.1748 -0.048,0 z m 0.2045,0 0.0675,-0.3855 0.0481,0 -0.0675,0.3855 -0.0481,0 z"
         id="path93"
         inkscape:connector-curvature="0"
         style="stroke:none" />
    </g>
    <g
       font-size="0.5px"
       font-style="italic"
       transform="matrix(50,0,0,50,330.1238,105)"
       id="g95"
       style="font-style:italic;font-size:0.5px;font-family:sans-serif;stroke-width:0.04">
      <path
         d="m -5.37,0 0.245,0"
         id="path97"
         inkscape:connector-curvature="0"
         style="fill:none" />
      <path
         d="m -5.125,-0.075 0,0.15 0,-0.075 z"
         id="path99"
         inkscape:connector-curvature="0"
         style="stroke:none" />
    </g>
    <g
       font-size="0.5px"
       font-style="italic"
       transform="matrix(50,0,0,50,330.1238,105)"
       id="g101"
       style="font-style:italic;font-size:0.5px;font-family:sans-serif;stroke-width:0.04">
      <path
         d="M -5,-0.125 -5,-1.39"
         id="path103"
         inkscape:connector-curvature="0"
         style="fill:none" />
      <path
         d="m -5.075,-1.39 0.15,0 -0.075,0 z"
         id="path105"
         inkscape:connector-curvature="0"
         style="stroke:none" />
    </g>
    <g
       font-size="0.5px"
       font-style="italic"
       transform="matrix(50,0,0,50,330.1238,105)"
       id="g107"
       style="font-style:italic;font-size:0.5px;font-family:sans-serif;stroke-width:0.04">
      <line
         x1="-5"
         x2="-5"
         y1="-1.39"
         y2="-1.5"
         id="line109"
         style="fill:none" />
    </g>
    <g
       font-size="0.5px"
       font-style="italic"
       transform="matrix(50,0,0,50,330.1238,105)"
       id="g111"
       style="font-style:italic;font-size:0.5px;font-family:sans-serif;stroke-width:0.04">
      <path
         d="m 2.61,-1.5 0.26,0"
         id="path113"
         inkscape:connector-curvature="0"
         style="fill:none" />
      <path
         d="m 2.87,-1.575 0,0.15 0,-0.075 z"
         id="path115"
         inkscape:connector-curvature="0"
         style="stroke:none" />
    </g>
    <g
       font-size="0.5px"
       font-style="italic"
       transform="matrix(50,0,0,50,330.1238,105)"
       id="g117"
       style="font-style:italic;font-size:0.5px;font-family:sans-serif;stroke-width:0.04">
      <line
         x1="2.5"
         x2="2.6099999"
         y1="-1.5"
         y2="-1.5"
         id="line119"
         style="fill:none" />
    </g>
    <g
       font-size="0.5px"
       font-style="italic"
       transform="matrix(50,0,0,50,330.1238,105)"
       id="g121"
       style="font-style:italic;font-size:0.5px;font-family:sans-serif;stroke-width:0.04">
      <path
         d="m 2.61,1.5 0.26,0"
         id="path123"
         inkscape:connector-curvature="0"
         style="fill:none" />
      <path
         d="m 2.87,1.425 0,0.15 0,-0.075 z"
         id="path125"
         inkscape:connector-curvature="0"
         style="stroke:none" />
    </g>
    <g
       font-size="0.5px"
       font-style="italic"
       transform="matrix(50,0,0,50,330.1238,105)"
       id="g127"
       style="font-style:italic;font-size:0.5px;font-family:sans-serif;stroke-width:0.04">
      <line
         x1="2.5"
         x2="2.6099999"
         y1="1.5"
         y2="1.5"
         id="line129"
         style="fill:none" />
    </g>
    <g
       font-size="0.5px"
       font-style="italic"
       transform="matrix(50,0,0,50,330.1238,105)"
       id="g131"
       style="font-style:italic;font-size:0.5px;font-family:sans-serif;stroke-width:0.04">
      <path
         d="m -2.89,-1.5 0.28,0"
         id="path133"
         inkscape:connector-curvature="0"
         style="fill:none" />
      <path
         d="m -2.61,-1.575 0,0.15 0,-0.075 z"
         id="path135"
         inkscape:connector-curvature="0"
         style="stroke:none" />
    </g>
    <g
       font-size="0.5px"
       font-style="italic"
       transform="matrix(50,0,0,50,330.1238,105)"
       id="g137"
       style="font-style:italic;font-size:0.5px;font-family:sans-serif;stroke-width:0.04">
      <line
         x1="-3"
         x2="-2.8900001"
         y1="-1.5"
         y2="-1.5"
         id="line139"
         style="fill:none" />
      <line
         x1="-2.6099999"
         x2="-2.5"
         y1="-1.5"
         y2="-1.5"
         id="line141"
         style="fill:none" />
    </g>
    <g
       font-size="0.5px"
       font-style="italic"
       transform="matrix(50,0,0,50,330.1238,105)"
       id="g143"
       style="font-style:italic;font-size:0.5px;font-family:sans-serif;stroke-width:0.04">
      <path
         d="m -5,0.125 0,1.375 2.39,0"
         id="path145"
         inkscape:connector-curvature="0"
         style="fill:none" />
      <path
         d="m -2.61,1.425 0,0.15 0,-0.075 z"
         id="path147"
         inkscape:connector-curvature="0"
         style="stroke:none" />
    </g>
    <g
       font-size="0.5px"
       font-style="italic"
       transform="matrix(50,0,0,50,330.1238,105)"
       id="g149"
       style="font-style:italic;font-size:0.5px;font-family:sans-serif;stroke-width:0.04">
      <line
         x1="-2.6099999"
         x2="-2.5"
         y1="1.5"
         y2="1.5"
         id="line151"
         style="fill:none" />
    </g>
    <g
       font-size="0.5px"
       font-style="italic"
       transform="matrix(50,0,0,50,330.1238,105)"
       id="g153"
       style="font-style:italic;font-size:0.5px;font-family:sans-serif;stroke-width:0.04">
      <path
         d="M 2.87,0 2.61,0"
         id="path155"
         inkscape:connector-curvature="0"
         style="fill:none" />
      <path
         d="m 2.61,0.075 0,-0.15 0,0.075 z"
         id="path157"
         inkscape:connector-curvature="0"
         style="stroke:none" />
    </g>
    <g
       font-size="0.5px"
       font-style="italic"
       transform="matrix(50,0,0,50,330.1238,105)"
       id="g159"
       style="font-style:italic;font-size:0.5px;font-family:sans-serif;stroke-width:0.04">
      <line
         x1="2.6099999"
         x2="2.5"
         y1="0"
         y2="0"
         id="line161"
         style="fill:none" />
    </g>
  </g>
  <path
     style="fill:none;fill-rule:evenodd;stroke:#ffffff;stroke-width:1px;stroke-linecap:butt;stroke-linejoin:miter;stroke-opacity:1"
     d="m 55.0012,330.5 420,0"
     id="path8227"
     inkscape:path-effect="#path-effect8229"
     inkscape:original-d="m 55.0012,330.5 420,0"
     inkscape:connector-curvature="0" />
  <path
     style="fill:none;fill-rule:evenodd;stroke:#ffffff;stroke-width:1px;stroke-linecap:butt;stroke-linejoin:miter;stroke-opacity:1"
     d="m 35.0012,0.5 420,0"
     id="path8227-6"
     inkscape:path-effect="#path-effect8229-3"
     inkscape:original-d="m 35.0012,0.5 420,0"
     inkscape:connector-curvature="0" />
</svg>
