<?xml version="1.0" encoding="UTF-8" standalone="no"?>
<svg xmlns:dc="http://purl.org/dc/elements/1.1/" xmlns:cc="http://creativecommons.org/ns#" xmlns:rdf="http://www.w3.org/1999/02/22-rdf-syntax-ns#" xmlns:svg="http://www.w3.org/2000/svg" xmlns="http://www.w3.org/2000/svg" xmlns:sodipodi="http://sodipodi.sourceforge.net/DTD/sodipodi-0.dtd" xmlns:inkscape="http://www.inkscape.org/namespaces/inkscape" color-interpolation="auto" color-rendering="auto" fill="black" fill-opacity="1" font-family="'Dialog'" font-size="12px" font-style="normal" font-weight="normal" height="100%" image-rendering="auto" shape-rendering="auto" stroke="black" stroke-dasharray="none" stroke-dashoffset="0" stroke-linecap="square" stroke-linejoin="miter" stroke-miterlimit="10" stroke-opacity="1" stroke-width="1" text-rendering="auto" width="100%" id="svg2" version="1.1" inkscape:version="0.91 r13725" sodipodi:docname="sample.stg.svg" viewBox="0 0 688 457" preserveAspectRatio="xMidYMid slice">
  <metadata
     id="metadata199">
    <rdf:RDF>
      <cc:Work
         rdf:about="">
        <dc:format>image/svg+xml</dc:format>
        <dc:type
           rdf:resource="http://purl.org/dc/dcmitype/StillImage" />
      </cc:Work>
    </rdf:RDF>
  </metadata>
  <sodipodi:namedview
     pagecolor="#ffffff"
     bordercolor="#666666"
     borderopacity="1"
     objecttolerance="10"
     gridtolerance="10"
     guidetolerance="10"
     inkscape:pageopacity="0"
     inkscape:pageshadow="2"
     inkscape:window-width="1920"
     inkscape:window-height="1176"
     id="namedview197"
     showgrid="false"
     inkscape:zoom="0.89826709"
     inkscape:cx="-41.967107"
     inkscape:cy="214.25983"
     inkscape:window-x="0"
     inkscape:window-y="24"
     inkscape:window-maximized="1"
     inkscape:current-layer="svg2" />
  <!--Generated by the Batik Graphics2D SVG Generator-->
  <defs
     id="genericDefs" />
  <g
     style="font-size:0.75px;font-family:sans-serif;fill:#b20000;stroke:#b20000"
     id="g7"
     transform="matrix(50,0,0,50,49.585,228.865)"
     font-size="0.75px">
    <path
       style="stroke:none"
       inkscape:connector-curvature="0"
       id="path9"
       d="m -0.5002,-0.144 0,0.0637 q -0.0286,-0.0147 -0.0594,-0.022 -0.0307,-0.0073 -0.0637,-0.0073 -0.0502,0 -0.0753,0.0154 -0.025,0.0153 -0.025,0.0461 0,0.0235 0.0179,0.0368 0.018,0.0134 0.0722,0.0255 l 0.023,0.0051 q 0.0718,0.0154 0.102,0.0434 0.0302,0.028 0.0302,0.0782 0,0.0571 -0.0452,0.0904 -0.0452,0.0334 -0.1243,0.0334 -0.033,0 -0.0687,-0.0064 Q -0.7522,0.2518 -0.7917,0.239 l 0,-0.0696 q 0.0373,0.0195 0.0736,0.0292 0.0362,0.0097 0.0717,0.0097 0.0476,0 0.0733,-0.0163 0.0256,-0.0163 0.0256,-0.046 0,-0.0275 -0.0185,-0.0421 Q -0.5845,0.0892 -0.6471,0.0757 L -0.6705,0.0702 Q -0.7332,0.057 -0.761,0.0297 -0.7888,0.0024 -0.7888,-0.0451 q 0,-0.0579 0.041,-0.0894 0.041,-0.0315 0.1164,-0.0315 0.0374,0 0.0704,0.0055 0.0329,0.0055 0.0608,0.0165 z m 0.1292,-0.0121 0.0674,0 0,0.4101 -0.0674,0 0,-0.4101 z m 0,-0.1597 0.0674,0 0,0.0853 -0.0674,0 0,-0.0853 z m 0.4783,0.36 q 0,-0.0732 -0.0302,-0.1135 -0.0302,-0.0403 -0.0848,-0.0403 -0.0542,0 -0.0844,0.0403 -0.0302,0.0403 -0.0302,0.1135 0,0.0729 0.0302,0.1132 0.0302,0.0402 0.0844,0.0402 0.0546,0 0.0848,-0.0402 0.0302,-0.0403 0.0302,-0.1132 z m 0.0674,0.1589 q 0,0.1048 -0.0465,0.1559 -0.0465,0.051 -0.1425,0.051 -0.0355,0 -0.067,-0.0053 -0.0315,-0.0053 -0.0612,-0.0163 l 0,-0.0655 q 0.0297,0.0161 0.0586,0.0238 0.029,0.0077 0.059,0.0077 0.0663,0 0.0992,-0.0346 0.033,-0.0346 0.033,-0.1046 l 0,-0.0333 Q 0.0864,0.2181 0.0538,0.2361 0.0212,0.254 -0.0242,0.254 q -0.0754,0 -0.1216,-0.0575 -0.0461,-0.0574 -0.0461,-0.1523 0,-0.0952 0.0461,-0.1527 0.0462,-0.0575 0.1216,-0.0575 0.0454,0 0.078,0.0179 0.0326,0.018 0.0535,0.0542 l 0,-0.0622 0.0674,0 0,0.3592 z m 0.4131,-0.4193 0,0.204 0.2039,0 0,0.0623 -0.2039,0 0,0.2039 -0.0616,0 0,-0.2039 -0.2039,0 0,-0.0623 0.2039,0 0,-0.204 0.0616,0 z" />
  </g>
  <g
     style="font-size:0.75px;font-family:sans-serif;fill:#b20000;stroke:#b20000"
     id="g11"
     transform="matrix(50,0,0,50,499.5873,28.8647)"
     font-size="0.75px">
    <path
       style="stroke:none"
       inkscape:connector-curvature="0"
       id="path13"
       d="m -0.3834,-0.1912 0,0.0629 q -0.0286,-0.0157 -0.0573,-0.0236 -0.0288,-0.0079 -0.0581,-0.0079 -0.0655,0 -0.1018,0.0416 -0.0362,0.0416 -0.0362,0.1166 0,0.0751 0.0362,0.1167 0.0363,0.0415 0.1018,0.0415 0.0293,0 0.0581,-0.0078 0.0287,-0.0079 0.0573,-0.0236 l 0,0.0622 q -0.0282,0.0132 -0.0584,0.0198 -0.0302,0.0066 -0.0643,0.0066 -0.0927,0 -0.1472,-0.0582 -0.0546,-0.0583 -0.0546,-0.1572 0,-0.1003 0.0551,-0.1578 0.0551,-0.0575 0.1511,-0.0575 0.0311,0 0.0608,0.0064 0.0296,0.0064 0.0575,0.0193 z m 0.1838,-0.1323 0,0.1165 0.1388,0 0,0.0524 -0.1388,0 0,0.2226 q 0,0.0502 0.0137,0.0645 0.0138,0.0143 0.0559,0.0143 l 0.0692,0 0,0.0564 -0.0692,0 q -0.078,0 -0.1077,-0.0292 -0.0296,-0.0291 -0.0296,-0.106 l 0,-0.2226 -0.0495,0 0,-0.0524 0.0495,0 0,-0.1165 0.0677,0 z M 0.2655,-0.144 Q 0.2542,-0.1506 0.2408,-0.1537 0.2274,-0.1568 0.2113,-0.1568 q -0.0571,0 -0.0877,0.0371 -0.0306,0.0372 -0.0306,0.1068 l 0,0.2161 -0.0677,0 0,-0.4102 0.0677,0 0,0.0637 q 0.0213,-0.0373 0.0553,-0.0555 0.0341,-0.0181 0.0828,-0.0181 0.0069,0 0.0154,9e-4 0.0084,9e-4 0.0186,0.0028 l 4e-4,0.0692 z m 0.0707,-0.2227 0.0674,0 0,0.5699 -0.0674,0 0,-0.5699 z m 0.1743,0.3344 0.1974,0 0,0.06 -0.1974,0 0,-0.06 z" />
  </g>
  <g
     style="font-size:0.75px;font-family:sans-serif;fill:#b20000;stroke:#b20000"
     id="g15"
     transform="matrix(50,0,0,50,499.5873,228.8647)"
     font-size="0.75px">
    <path
       style="stroke:none"
       inkscape:connector-curvature="0"
       id="path17"
       d="m -0.5409,-0.1912 0,0.0629 q -0.0286,-0.0157 -0.0573,-0.0236 -0.0288,-0.0079 -0.0581,-0.0079 -0.0655,0 -0.1018,0.0416 -0.0362,0.0416 -0.0362,0.1166 0,0.0751 0.0362,0.1167 0.0363,0.0415 0.1018,0.0415 0.0293,0 0.0581,-0.0078 0.0287,-0.0079 0.0573,-0.0236 l 0,0.0622 q -0.0282,0.0132 -0.0584,0.0198 -0.0302,0.0066 -0.0643,0.0066 -0.0926,0 -0.1472,-0.0582 -0.0546,-0.0583 -0.0546,-0.1572 0,-0.1003 0.0552,-0.1578 0.0551,-0.0575 0.151,-0.0575 0.0312,0 0.0608,0.0064 0.0297,0.0064 0.0575,0.0193 z m 0.1838,-0.1323 0,0.1165 0.1388,0 0,0.0524 -0.1388,0 0,0.2226 q 0,0.0502 0.0138,0.0645 0.0137,0.0143 0.0558,0.0143 l 0.0692,0 0,0.0564 -0.0692,0 q -0.078,0 -0.1076,-0.0292 -0.0297,-0.0291 -0.0297,-0.106 l 0,-0.2226 -0.0494,0 0,-0.0524 0.0494,0 0,-0.1165 0.0677,0 z M 0.108,-0.144 Q 0.0967,-0.1506 0.0833,-0.1537 0.07,-0.1568 0.0538,-0.1568 q -0.0571,0 -0.0877,0.0371 -0.0306,0.0372 -0.0306,0.1068 l 0,0.2161 -0.0677,0 0,-0.4102 0.0677,0 0,0.0637 q 0.0213,-0.0373 0.0553,-0.0555 0.0341,-0.0181 0.0828,-0.0181 0.007,0 0.0154,9e-4 0.0084,9e-4 0.0187,0.0028 l 3e-4,0.0692 z m 0.0707,-0.2227 0.0674,0 0,0.5699 -0.0674,0 0,-0.5699 z m 0.4827,0.0996 0,0.204 0.204,0 0,0.0623 -0.204,0 0,0.204 -0.0615,0 0,-0.204 -0.204,0 0,-0.0623 0.204,0 0,-0.204 0.0615,0 z" />
  </g>
  <g
     style="font-size:0.75px;font-family:sans-serif;fill:#0000b2;stroke:#0000b2"
     id="g19"
     transform="matrix(50,0,0,50,349.5873,428.8647)"
     font-size="0.75px">
    <path
       style="stroke:none"
       inkscape:connector-curvature="0"
       id="path21"
       d="m -0.4312,-0.1447 0,-0.222 0.0674,0 0,0.5699 -0.0674,0 0,-0.0616 q -0.0212,0.0367 -0.0537,0.0544 -0.0324,0.0178 -0.0778,0.0178 -0.0743,0 -0.121,-0.0593 -0.0467,-0.0594 -0.0467,-0.1561 0,-0.0966 0.0467,-0.156 0.0467,-0.0593 0.121,-0.0593 0.0454,0 0.0778,0.0178 0.0325,0.0177 0.0537,0.0544 z m -0.2296,0.1431 q 0,0.0744 0.0306,0.1167 0.0305,0.0423 0.084,0.0423 0.0535,0 0.0842,-0.0423 0.0308,-0.0423 0.0308,-0.1167 0,-0.0743 -0.0308,-0.1166 -0.0307,-0.0423 -0.0842,-0.0423 -0.0535,0 -0.084,0.0423 -0.0306,0.0423 -0.0306,0.1166 z m 0.4581,0.1425 0.1209,0 0,-0.4171 -0.1315,0.0264 0,-0.0674 0.1307,-0.0264 0.074,0 0,0.4845 0.1208,0 0,0.0623 -0.3149,0 0,-0.0623 z m 0.7291,-0.408 0,0.204 0.204,0 0,0.0623 -0.204,0 0,0.204 -0.0615,0 0,-0.204 -0.204,0 0,-0.0623 0.204,0 0,-0.204 0.0615,0 z" />
  </g>
  <g
     style="font-size:0.75px;font-family:sans-serif;fill:#0000b2;stroke:#0000b2"
     id="g23"
     transform="matrix(50,0,0,50,349.5873,28.8647)"
     font-size="0.75px">
    <path
       style="stroke:none"
       inkscape:connector-curvature="0"
       id="path25"
       d="m -0.4312,-0.1447 0,-0.222 0.0674,0 0,0.5699 -0.0674,0 0,-0.0616 q -0.0212,0.0367 -0.0537,0.0544 -0.0324,0.0178 -0.0778,0.0178 -0.0743,0 -0.121,-0.0593 -0.0467,-0.0594 -0.0467,-0.1561 0,-0.0966 0.0467,-0.156 0.0467,-0.0593 0.121,-0.0593 0.0454,0 0.0778,0.0178 0.0325,0.0177 0.0537,0.0544 z m -0.2296,0.1431 q 0,0.0744 0.0306,0.1167 0.0305,0.0423 0.084,0.0423 0.0535,0 0.0842,-0.0423 0.0308,-0.0423 0.0308,-0.1167 0,-0.0743 -0.0308,-0.1166 -0.0307,-0.0423 -0.0842,-0.0423 -0.0535,0 -0.084,0.0423 -0.0306,0.0423 -0.0306,0.1166 z m 0.6035,-0.2933 q -0.0571,0 -0.0859,0.0562 -0.0287,0.0562 -0.0287,0.169 0,0.1125 0.0287,0.1687 0.0288,0.0562 0.0859,0.0562 0.0575,0 0.0862,-0.0562 0.0288,-0.0562 0.0288,-0.1687 0,-0.1128 -0.0288,-0.169 Q 2e-4,-0.2949 -0.0573,-0.2949 Z m 0,-0.0586 q 0.0919,0 0.1404,0.0727 0.0486,0.0727 0.0486,0.2111 0,0.1381 -0.0486,0.2108 -0.0485,0.0727 -0.1404,0.0727 -0.0919,0 -0.1405,-0.0727 -0.0485,-0.0727 -0.0485,-0.2108 0,-0.1384 0.0485,-0.2111 0.0486,-0.0727 0.1405,-0.0727 z m 0.5837,0.0864 0,0.204 0.204,0 0,0.0623 -0.204,0 0,0.204 -0.0615,0 0,-0.204 -0.204,0 0,-0.0623 0.204,0 0,-0.204 0.0615,0 z" />
  </g>
  <g
     style="font-size:0.75px;font-family:sans-serif;fill:#b20000;stroke:#b20000"
     id="g27"
     transform="matrix(50,0,0,50,249.5873,228.8647)"
     font-size="0.75px">
    <path
       style="stroke:none"
       inkscape:connector-curvature="0"
       id="path29"
       d="m -0.3428,-0.144 0,0.0637 q -0.0285,-0.0147 -0.0593,-0.022 -0.0308,-0.0073 -0.0637,-0.0073 -0.0502,0 -0.0753,0.0154 -0.0251,0.0153 -0.0251,0.0461 0,0.0235 0.018,0.0368 0.0179,0.0134 0.0721,0.0255 l 0.0231,0.0051 q 0.0718,0.0154 0.102,0.0434 0.0302,0.028 0.0302,0.0782 0,0.0571 -0.0452,0.0904 -0.0453,0.0334 -0.1244,0.0334 -0.0329,0 -0.0686,-0.0064 Q -0.5947,0.2518 -0.6343,0.239 l 0,-0.0696 q 0.0374,0.0195 0.0736,0.0292 0.0363,0.0097 0.0718,0.0097 0.0476,0 0.0732,-0.0163 Q -0.39,0.1757 -0.39,0.146 -0.39,0.1185 -0.4085,0.1039 -0.427,0.0892 -0.4896,0.0757 L -0.5131,0.0702 Q -0.5757,0.057 -0.6035,0.0297 -0.6314,0.0024 -0.6314,-0.0451 q 0,-0.0579 0.0411,-0.0894 0.041,-0.0315 0.1164,-0.0315 0.0374,0 0.0703,0.0055 0.033,0.0055 0.0608,0.0165 z m 0.1293,-0.0121 0.0674,0 0,0.4101 -0.0674,0 0,-0.4101 z m 0,-0.1597 0.0674,0 0,0.0853 -0.0674,0 0,-0.0853 z m 0.4783,0.36 q 0,-0.0732 -0.0302,-0.1135 -0.0303,-0.0403 -0.0848,-0.0403 -0.0542,0 -0.0844,0.0403 -0.0302,0.0403 -0.0302,0.1135 0,0.0729 0.0302,0.1132 0.0302,0.0402 0.0844,0.0402 0.0545,0 0.0848,-0.0402 0.0302,-0.0403 0.0302,-0.1132 z m 0.0673,0.1589 q 0,0.1048 -0.0465,0.1559 Q 0.2391,0.41 0.1432,0.41 0.1077,0.41 0.0762,0.4047 0.0447,0.3994 0.015,0.3884 l 0,-0.0655 q 0.0297,0.0161 0.0586,0.0238 0.0289,0.0077 0.059,0.0077 0.0662,0 0.0992,-0.0346 0.033,-0.0346 0.033,-0.1046 l 0,-0.0333 Q 0.2439,0.2181 0.2113,0.2361 0.1787,0.254 0.1333,0.254 0.0579,0.254 0.0117,0.1965 -0.0344,0.1391 -0.0344,0.0442 q 0,-0.0952 0.0461,-0.1527 0.0462,-0.0575 0.1216,-0.0575 0.0454,0 0.078,0.0179 0.0326,0.018 0.0535,0.0542 l 0,-0.0622 0.0673,0 0,0.3592 z m 0.1048,-0.1845 0.1974,0 0,0.06 -0.1974,0 0,-0.06 z" />
  </g>
  <g
     style="font-size:0.75px;font-family:sans-serif;fill:#ffffff;stroke:#ffffff"
     id="g31"
     transform="matrix(50,0,0,50,149.5873,128.8647)"
     font-size="0.75px">
    <circle
       style="stroke:none"
       id="circle33"
       r="0.44999999"
       cy="0"
       cx="0" />
    <circle
       style="fill:none;stroke:#000000;stroke-width:0.1"
       id="circle35"
       r="0.44999999"
       cy="0"
       cx="0" />
  </g>
  <g
     style="font-style:italic;font-size:0.5px;font-family:sans-serif;fill:#565656;stroke:#565656;stroke-width:0.1"
     id="g37"
     transform="matrix(50,0,0,50,149.5873,134.8647)"
     font-style="italic"
     font-size="0.5px">
    <path
       style="stroke:none"
       inkscape:connector-curvature="0"
       id="path39"
       d="m -0.3954,-0.8357 q -0.033,0 -0.0774,-0.0154 l 0.0077,-0.0442 q 0.043,0.0235 0.0779,0.0235 0.0208,0 0.0364,-0.0113 0.0157,-0.0112 0.0186,-0.028 0.0043,-0.0247 -0.0312,-0.0408 l -0.026,-0.012 q -0.0577,-0.0259 -0.0492,-0.0744 0.0061,-0.0347 0.0341,-0.0546 0.028,-0.0199 0.0708,-0.0199 0.0222,0 0.0538,0.0061 l 0.0097,0.002 -0.007,0.04 q -0.0382,-0.012 -0.0619,-0.012 -0.0464,0 -0.0523,0.0337 -0.0038,0.0218 0.0288,0.0367 l 0.0215,0.0097 q 0.0364,0.0166 0.0495,0.0351 0.0131,0.0184 0.0083,0.046 -0.0061,0.0349 -0.0376,0.0574 -0.0316,0.0224 -0.0745,0.0224 z m 0.1856,-0.0061 0.0464,-0.2651 0.0481,0 -0.0464,0.2651 -0.0481,0 z m 0.0548,-0.3132 0.0084,-0.0481 0.0481,0 -0.0084,0.0481 -0.0481,0 z m 0.0753,0.4013 0.0129,-0.0417 q 0.0383,0.0198 0.0788,0.0198 0.0813,0 0.0964,-0.0862 l 0.0073,-0.0418 q -0.0363,0.0557 -0.0971,0.0557 -0.0476,0 -0.0696,-0.0347 -0.0221,-0.0346 -0.0118,-0.0935 0.0106,-0.0605 0.0493,-0.0986 0.0386,-0.0381 0.0894,-0.0381 0.0445,0 0.0701,0.0361 l 0.0053,-0.0302 0.0484,0 -0.0338,0.1928 Q 0.155,-0.8518 0.1433,-0.8219 0.1316,-0.792 0.1104,-0.773 q -0.0373,0.0335 -0.1037,0.0335 -0.0464,0 -0.0864,-0.0142 z M 0.121,-0.9336 0.1402,-1.0437 q -0.0259,-0.033 -0.0633,-0.033 -0.0332,0 -0.0566,0.0267 -0.0235,0.0266 -0.0316,0.073 -0.0153,0.0871 0.046,0.0871 0.0418,0 0.0863,-0.0437 z m 0.1526,0.0918 0.0064,-0.0361 0.0722,0 0.0499,-0.2852 -0.0754,0.0181 0.0065,-0.0371 0.1258,-0.0301 -0.0585,0.3343 0.0723,0 -0.0063,0.0361 -0.1929,0 z" />
  </g>
  <g
     style="font-size:0.75px;font-family:sans-serif;fill:#0000b2;stroke:#0000b2;stroke-width:0.1"
     id="g41"
     transform="matrix(50,0,0,50,649.5873,28.8647)"
     font-size="0.75px">
    <path
       style="stroke:none"
       inkscape:connector-curvature="0"
       id="path43"
       d="m -0.2737,-0.1447 0,-0.222 0.0673,0 0,0.5699 -0.0673,0 0,-0.0616 q -0.0213,0.0367 -0.0537,0.0544 -0.0324,0.0178 -0.0778,0.0178 -0.0744,0 -0.121,-0.0593 -0.0467,-0.0594 -0.0467,-0.1561 0,-0.0966 0.0467,-0.156 0.0466,-0.0593 0.121,-0.0593 0.0454,0 0.0778,0.0178 0.0324,0.0177 0.0537,0.0544 z m -0.2297,0.1431 q 0,0.0744 0.0306,0.1167 0.0306,0.0423 0.0841,0.0423 0.0534,0 0.0842,-0.0423 0.0308,-0.0423 0.0308,-0.1167 0,-0.0743 -0.0308,-0.1166 -0.0308,-0.0423 -0.0842,-0.0423 -0.0535,0 -0.0841,0.0423 -0.0306,0.0423 -0.0306,0.1166 z m 0.6036,-0.2933 q -0.0572,0 -0.0859,0.0562 -0.0288,0.0562 -0.0288,0.169 0,0.1125 0.0288,0.1687 0.0287,0.0562 0.0859,0.0562 0.0575,0 0.0862,-0.0562 0.0287,-0.0562 0.0287,-0.1687 0,-0.1128 -0.0287,-0.169 -0.0287,-0.0562 -0.0862,-0.0562 z m 0,-0.0586 q 0.0919,0 0.1404,0.0727 0.0485,0.0727 0.0485,0.2111 0,0.1381 -0.0485,0.2108 -0.0485,0.0727 -0.1404,0.0727 -0.092,0 -0.1405,-0.0727 -0.0485,-0.0727 -0.0485,-0.2108 0,-0.1384 0.0485,-0.2111 0.0485,-0.0727 0.1405,-0.0727 z m 0.2754,0.3212 0.1973,0 0,0.06 -0.1973,0 0,-0.06 z" />
  </g>
  <g
     style="font-size:0.75px;font-family:sans-serif;fill:#0000b2;stroke:#0000b2;stroke-width:0.1"
     id="g45"
     transform="matrix(50,0,0,50,649.5873,428.8647)"
     font-size="0.75px">
    <path
       style="stroke:none"
       inkscape:connector-curvature="0"
       id="path47"
       d="m -0.2737,-0.1447 0,-0.222 0.0673,0 0,0.5699 -0.0673,0 0,-0.0616 q -0.0213,0.0367 -0.0537,0.0544 -0.0324,0.0178 -0.0778,0.0178 -0.0744,0 -0.121,-0.0593 -0.0467,-0.0594 -0.0467,-0.1561 0,-0.0966 0.0467,-0.156 0.0466,-0.0593 0.121,-0.0593 0.0454,0 0.0778,0.0178 0.0324,0.0177 0.0537,0.0544 z m -0.2297,0.1431 q 0,0.0744 0.0306,0.1167 0.0306,0.0423 0.0841,0.0423 0.0534,0 0.0842,-0.0423 0.0308,-0.0423 0.0308,-0.1167 0,-0.0743 -0.0308,-0.1166 -0.0308,-0.0423 -0.0842,-0.0423 -0.0535,0 -0.0841,0.0423 -0.0306,0.0423 -0.0306,0.1166 z m 0.4582,0.1425 0.1208,0 0,-0.4171 -0.1315,0.0264 0,-0.0674 0.1308,-0.0264 0.074,0 0,0.4845 0.1208,0 0,0.0623 -0.3149,0 0,-0.0623 z m 0.4208,-0.1732 0.1973,0 0,0.06 -0.1973,0 0,-0.06 z" />
  </g>
  <g
     style="font-size:0.75px;font-family:sans-serif;fill:#ffffff;stroke:#ffffff;stroke-width:0.1"
     id="g49"
     transform="matrix(50,0,0,50,349.5873,228.8647)"
     font-size="0.75px">
    <circle
       style="stroke:none"
       id="circle51"
       r="0.44999999"
       cy="0"
       cx="0" />
    <circle
       style="fill:none;stroke:#000000"
       id="circle53"
       r="0.44999999"
       cy="0"
       cx="0" />
  </g>
  <g
     style="font-style:italic;font-size:0.5px;font-family:sans-serif;fill:#565656;stroke:#565656;stroke-width:0.1"
     id="g55"
     transform="matrix(50,0,0,50,337.5873,240.8647)"
     font-style="italic"
     font-size="0.5px">
    <path
       style="stroke:none"
       inkscape:connector-curvature="0"
       id="path57"
       d="m 0.7,-0.7832 0.0464,-0.2651 0.0481,0 -0.0087,0.0498 q 0.0449,-0.0557 0.1001,-0.0557 0.0532,0 0.0627,0.0557 0.044,-0.0559 0.0987,-0.0559 0.0351,0 0.0508,0.0206 0.0157,0.0206 0.0092,0.0577 l -0.0338,0.1929 -0.0483,0 0.0324,-0.1853 q 0.008,-0.0454 -0.0279,-0.0454 -0.0374,0 -0.0877,0.053 l -0.0311,0.1777 -0.0483,0 0.0324,-0.1853 q 0.008,-0.0457 -0.0286,-0.0457 -0.0364,0 -0.0872,0.0533 l -0.0311,0.1777 -0.0481,0 z m 0.6626,-0.0086 q -0.0509,0.0147 -0.0853,0.0147 -0.0586,0 -0.0888,-0.0389 -0.0301,-0.039 -0.0193,-0.101 0.0106,-0.0603 0.0499,-0.0989 0.0394,-0.0385 0.0901,-0.0385 0.0481,0 0.0684,0.0341 0.0203,0.0342 0.0092,0.0972 l -0.0028,0.0149 -0.1672,0 q -0.0061,0.0945 0.076,0.0945 0.03,0 0.0765,-0.0161 l -0.0067,0.038 z m -0.1373,-0.1525 0.1169,0 q 0.013,-0.074 -0.0422,-0.074 -0.0554,0 -0.0747,0.074 z" />
  </g>
  <circle
     cx="649.58728"
     cy="228.8647"
     r="22.5"
     id="circle61"
     style="font-style:italic;font-size:medium;font-family:sans-serif;fill:#ffffff;stroke:none;stroke-width:0.1" />
  <circle
     cx="649.58728"
     cy="228.8647"
     r="22.5"
     id="circle63"
     style="font-style:italic;font-size:medium;font-family:sans-serif;fill:none;stroke:#000000;stroke-width:5" />
  <circle
     cx="649.58728"
     cy="228.8647"
     r="13.160001"
     id="circle65"
     style="font-style:italic;font-size:medium;font-family:sans-serif;fill:#000000;stroke:none;stroke-width:0.1" />
  <path
     d="m 579.7723,201.7047 2.32,-13.255 2.405,0 -0.435,2.49 q 2.245,-2.785 5.005,-2.785 2.66,0 3.135,2.785 2.2,-2.795 4.935,-2.795 1.755,0 2.54,1.03 0.785,1.035 0.46,2.89 l -1.69,9.64 -2.415,0 1.62,-9.265 q 0.4,-2.27 -1.395,-2.27 -1.87,0 -4.385,2.65 l -1.555,8.885 -2.415,0 1.62,-9.265 q 0.4,-2.28 -1.43,-2.28 -1.82,0 -4.36,2.66 l -1.555,8.885 -2.405,0 z m 23.34,0 2.32,-13.255 2.405,0 -0.435,2.49 q 1.915,-2.785 4.635,-2.785 0.365,0 0.76,0.065 l -0.395,2.245 q -0.585,-0.21 -1.06,-0.21 -2.285,0 -4.295,2.71 l -1.53,8.74 -2.405,0 z m 9.505,4.41 0.65,-2.09 q 1.91,0.99 3.94,0.99 4.065,0 4.82,-4.31 l 0.365,-2.085 q -1.82,2.78 -4.86,2.78 -2.38,0 -3.48,-1.73 -1.1,-1.735 -0.585,-4.675 0.53,-3.03 2.46,-4.935 1.935,-1.905 4.47,-1.905 2.225,0 3.51,1.81 l 0.265,-1.515 2.415,0 -1.69,9.645 q -0.545,3.11 -1.13,4.605 -0.585,1.5 -1.64,2.45 -1.87,1.67 -5.19,1.67 -2.32,0 -4.32,-0.705 z m 10.035,-9 0.965,-5.505 q -1.3,-1.645 -3.165,-1.645 -1.66,0 -2.835,1.33 -1.175,1.33 -1.58,3.65 -0.76,4.355 2.305,4.355 2.085,0 4.31,-2.185 z"
     id="path67"
     inkscape:connector-curvature="0"
     style="font-style:italic;font-size:medium;font-family:sans-serif;fill:#565656;stroke:none;stroke-width:0.1" />
  <g
     style="font-size:0.75px;font-family:sans-serif;fill:#b20000;stroke:#b20000;stroke-width:0.1"
     id="g69"
     transform="matrix(50,0,0,50,499.5873,428.8647)"
     font-size="0.75px">
    <path
       style="stroke:none"
       inkscape:connector-curvature="0"
       id="path71"
       d="m -0.3834,-0.1912 0,0.0629 q -0.0286,-0.0157 -0.0573,-0.0236 -0.0288,-0.0079 -0.0581,-0.0079 -0.0655,0 -0.1018,0.0416 -0.0362,0.0416 -0.0362,0.1166 0,0.0751 0.0362,0.1167 0.0363,0.0415 0.1018,0.0415 0.0293,0 0.0581,-0.0078 0.0287,-0.0079 0.0573,-0.0236 l 0,0.0622 q -0.0282,0.0132 -0.0584,0.0198 -0.0302,0.0066 -0.0643,0.0066 -0.0927,0 -0.1472,-0.0582 -0.0546,-0.0583 -0.0546,-0.1572 0,-0.1003 0.0551,-0.1578 0.0551,-0.0575 0.1511,-0.0575 0.0311,0 0.0608,0.0064 0.0296,0.0064 0.0575,0.0193 z m 0.1838,-0.1323 0,0.1165 0.1388,0 0,0.0524 -0.1388,0 0,0.2226 q 0,0.0502 0.0137,0.0645 0.0138,0.0143 0.0559,0.0143 l 0.0692,0 0,0.0564 -0.0692,0 q -0.078,0 -0.1077,-0.0292 -0.0296,-0.0291 -0.0296,-0.106 l 0,-0.2226 -0.0495,0 0,-0.0524 0.0495,0 0,-0.1165 0.0677,0 z M 0.2655,-0.144 Q 0.2542,-0.1506 0.2408,-0.1537 0.2274,-0.1568 0.2113,-0.1568 q -0.0571,0 -0.0877,0.0371 -0.0306,0.0372 -0.0306,0.1068 l 0,0.2161 -0.0677,0 0,-0.4102 0.0677,0 0,0.0637 q 0.0213,-0.0373 0.0553,-0.0555 0.0341,-0.0181 0.0828,-0.0181 0.0069,0 0.0154,9e-4 0.0084,9e-4 0.0186,0.0028 l 4e-4,0.0692 z m 0.0707,-0.2227 0.0674,0 0,0.5699 -0.0674,0 0,-0.5699 z m 0.1743,0.3344 0.1974,0 0,0.06 -0.1974,0 0,-0.06 z" />
  </g>
  <g
     style="font-size:0.75px;font-family:sans-serif;fill:#ffffff;stroke:#ffffff;stroke-width:0.1"
     id="g73"
     transform="matrix(50,0,0,50,149.5873,328.8647)"
     font-size="0.75px">
    <circle
       style="stroke:none"
       id="circle75"
       r="0.44999999"
       cy="0"
       cx="0" />
    <circle
       style="fill:none;stroke:#000000"
       id="circle77"
       r="0.44999999"
       cy="0"
       cx="0" />
    <circle
       style="fill:#000000;stroke:none"
       id="circle79"
       r="0.26320001"
       cy="0"
       cx="0" />
  </g>
  <g
     style="font-style:italic;font-size:0.5px;font-family:sans-serif;fill:#565656;stroke:#565656;stroke-width:0.1"
     id="g81"
     transform="matrix(50,0,0,50,149.5873,322.8647)"
     font-style="italic"
     font-size="0.5px">
    <path
       style="stroke:none"
       inkscape:connector-curvature="0"
       id="path83"
       d="m -0.4239,1.1788 q -0.0329,0 -0.0774,-0.0154 l 0.0078,-0.0442 q 0.043,0.0234 0.0779,0.0234 0.0208,0 0.0364,-0.0112 0.0156,-0.0112 0.0186,-0.0281 0.0043,-0.0246 -0.0312,-0.0408 L -0.4178,1.0506 Q -0.4755,1.0247 -0.467,0.9761 q 0.0061,-0.0346 0.0341,-0.0545 0.028,-0.0199 0.0707,-0.0199 0.0222,0 0.0539,0.0061 l 0.0096,0.0019 -0.007,0.04 q -0.0381,-0.0119 -0.0618,-0.0119 -0.0464,0 -0.0523,0.0337 -0.0038,0.0217 0.0287,0.0366 l 0.0215,0.0098 q 0.0364,0.0166 0.0495,0.035 0.0132,0.0184 0.0083,0.046 -0.0061,0.0349 -0.0376,0.0574 -0.0315,0.0225 -0.0745,0.0225 z m 0.1857,-0.0061 0.0464,-0.2652 0.0481,0 -0.0464,0.2652 -0.0481,0 z m 0.0548,-0.3133 0.0084,-0.0481 0.0481,0 -0.0084,0.0481 -0.0481,0 z m 0.0753,0.4014 0.0129,-0.0418 q 0.0383,0.0198 0.0788,0.0198 0.0813,0 0.0964,-0.0862 L 0.0873,1.1109 q -0.0364,0.0556 -0.0972,0.0556 -0.0476,0 -0.0696,-0.0346 -0.022,-0.0347 -0.0117,-0.0935 0.0106,-0.0606 0.0492,-0.0987 0.0387,-0.038 0.0895,-0.038 0.0444,0 0.0701,0.0361 l 0.0053,-0.0303 0.0483,0 -0.0337,0.1929 Q 0.1266,1.1626 0.1149,1.1926 0.1031,1.2225 0.082,1.2415 0.0446,1.275 -0.0218,1.275 q -0.0464,0 -0.0863,-0.0142 z M 0.0925,1.0809 0.1118,0.9707 Q 0.0858,0.9378 0.0485,0.9378 q -0.0332,0 -0.0567,0.0266 -0.0234,0.0266 -0.0315,0.073 -0.0153,0.0872 0.046,0.0872 0.0417,0 0.0862,-0.0437 z M 0.3251,1.1817 Q 0.2692,1.1817 0.2439,1.1291 0.2185,1.0765 0.2334,0.9917 0.2483,0.9063 0.2922,0.8543 0.3361,0.8023 0.393,0.8023 q 0.0569,0 0.0826,0.052 Q 0.5013,0.9063 0.4864,0.991 0.4712,1.0779 0.4274,1.1298 0.3835,1.1817 0.3251,1.1817 Z M 0.332,1.1456 q 0.0764,0 0.1035,-0.1553 0.0266,-0.1519 -0.0488,-0.1519 -0.0752,0 -0.1021,0.1533 -0.0269,0.1539 0.0474,0.1539 z" />
  </g>
  <g
     style="font-size:0.75px;font-family:sans-serif;stroke-width:0.1"
     id="g85"
     transform="matrix(50,0,0,50,349.5873,128.8647)"
     font-size="0.75px">
    <path
       style="stroke:none"
       inkscape:connector-curvature="0"
       id="path87"
       d="m 0.1901,-0.0712 0,0.033 -0.3099,0 q 0.0044,0.0695 0.042,0.106 0.0375,0.0364 0.1045,0.0364 0.0389,0 0.0753,-0.0095 0.0364,-0.0095 0.0723,-0.0286 l 0,0.0638 Q 0.1381,0.1452 0.1,0.1533 0.0619,0.1614 0.0227,0.1614 q -0.0981,0 -0.1555,-0.0572 -0.0573,-0.0571 -0.0573,-0.1545 0,-0.1007 0.0544,-0.1599 0.0544,-0.0591 0.1467,-0.0591 0.0828,0 0.1309,0.0533 0.0482,0.0533 0.0482,0.1448 z M 0.1227,-0.091 q -8e-4,-0.0553 -0.031,-0.0882 -0.0302,-0.033 -0.08,-0.033 -0.0564,0 -0.0903,0.0319 -0.0338,0.0318 -0.039,0.0897 l 0.2403,-4e-4 z" />
  </g>
  <g
     style="font-size:0.75px;font-family:sans-serif;stroke-width:0.1"
     id="g89"
     transform="matrix(50,0,0,50,349.5873,328.8647)"
     font-size="0.75px">
    <path
       style="stroke:none"
       inkscape:connector-curvature="0"
       id="path91"
       d="m 0.1901,-0.0712 0,0.033 -0.3099,0 q 0.0044,0.0695 0.042,0.106 0.0375,0.0364 0.1045,0.0364 0.0389,0 0.0753,-0.0095 0.0364,-0.0095 0.0723,-0.0286 l 0,0.0638 Q 0.1381,0.1452 0.1,0.1533 0.0619,0.1614 0.0227,0.1614 q -0.0981,0 -0.1555,-0.0572 -0.0573,-0.0571 -0.0573,-0.1545 0,-0.1007 0.0544,-0.1599 0.0544,-0.0591 0.1467,-0.0591 0.0828,0 0.1309,0.0533 0.0482,0.0533 0.0482,0.1448 z M 0.1227,-0.091 q -8e-4,-0.0553 -0.031,-0.0882 -0.0302,-0.033 -0.08,-0.033 -0.0564,0 -0.0903,0.0319 -0.0338,0.0318 -0.039,0.0897 l 0.2403,-4e-4 z" />
  </g>
  <g
     style="font-size:0.75px;font-family:sans-serif;stroke-width:0.02"
     id="g93"
     transform="matrix(50,0,0,50,399.5873,228.8647)"
     font-size="0.75px">
    <path
       style="fill:none"
       inkscape:connector-curvature="0"
       id="path95"
       d="m -6.8955,-0.5718 c 0.1784,-0.4923 0.5677,-0.9341 1.0343,-1.1918" />
    <path
       style="stroke:none"
       inkscape:connector-curvature="0"
       id="path97"
       d="m -5.8909,-1.8324 0.0593,0.1377 0.3378,-0.2271 z" />
  </g>
  <g
     style="font-size:0.75px;font-family:sans-serif;stroke-width:0.02"
     id="g99"
     transform="matrix(50,0,0,50,399.5873,228.8647)"
     font-size="0.75px">
    <path
       style="fill:none"
       inkscape:connector-curvature="0"
       id="path101"
       d="m -4.5062,-1.9218 c 0.4978,0.156 0.9521,0.5305 1.2286,0.9894" />
    <path
       style="stroke:none"
       inkscape:connector-curvature="0"
       id="path103"
       d="M -3.2099,-0.9649 -3.3452,-0.9 -3.1045,-0.5718 Z" />
  </g>
  <g
     style="font-size:0.75px;font-family:sans-serif;stroke-width:0.02"
     id="g105"
     transform="matrix(50,0,0,50,399.5873,228.8647)"
     font-size="0.75px">
    <path
       style="fill:none"
       inkscape:connector-curvature="0"
       id="path107"
       d="M 1.0346,0 -0.1,0" />
    <path
       style="stroke:none"
       inkscape:connector-curvature="0"
       id="path109"
       d="m -0.1,0.075 0,-0.15 L -0.5,0 Z" />
  </g>
  <g
     style="font-size:0.75px;font-family:sans-serif;stroke-width:0.02"
     id="g111"
     transform="matrix(50,0,0,50,399.5873,228.8647)"
     font-size="0.75px">
    <path
       style="fill:none"
       inkscape:connector-curvature="0"
       id="path113"
       d="m -0.1696,-4 0.9617,0" />
    <path
       style="stroke:none"
       inkscape:connector-curvature="0"
       id="path115"
       d="m 0.7921,-4.075 0,0.15 0.4,-0.075 z" />
  </g>
  <g
     style="font-size:0.75px;font-family:sans-serif;stroke-width:0.02"
     id="g117"
     transform="matrix(50,0,0,50,399.5873,228.8647)"
     font-size="0.75px">
    <path
       style="fill:none"
       inkscape:connector-curvature="0"
       id="path119"
       d="m 2.8079,-4 1.1192,0" />
    <path
       style="stroke:none"
       inkscape:connector-curvature="0"
       id="path121"
       d="m 3.9271,-4.075 0,0.15 0.4,-0.075 z" />
  </g>
  <g
     style="font-size:0.75px;font-family:sans-serif;stroke-width:0.02"
     id="g123"
     transform="matrix(50,0,0,50,399.5873,228.8647)"
     font-size="0.75px">
    <path
       style="fill:none"
       inkscape:connector-curvature="0"
       id="path125"
       d="M 5,-3.5227 5,-0.9" />
    <path
       style="stroke:none"
       inkscape:connector-curvature="0"
       id="path127"
       d="m 5.075,-0.9 -0.15,0 L 5,-0.5 Z" />
  </g>
  <g
     style="font-size:0.75px;font-family:sans-serif;stroke-width:0.02"
     id="g129"
     transform="matrix(50,0,0,50,399.5873,228.8647)"
     font-size="0.75px">
    <path
       style="fill:none"
       inkscape:connector-curvature="0"
       id="path131"
       d="M 4.5,0 3.3654,0" />
    <path
       style="stroke:none"
       inkscape:connector-curvature="0"
       id="path133"
       d="m 3.3654,0.075 0,-0.15 -0.4,0.075 z" />
  </g>
  <g
     style="font-size:0.75px;font-family:sans-serif;stroke-width:0.02"
     id="g135"
     transform="matrix(50,0,0,50,399.5873,228.8647)"
     font-size="0.75px">
    <path
       style="fill:none"
       inkscape:connector-curvature="0"
       id="path137"
       d="M -0.1696,4 0.7921,4" />
    <path
       style="stroke:none"
       inkscape:connector-curvature="0"
       id="path139"
       d="m 0.7921,3.925 0,0.15 0.4,-0.075 z" />
  </g>
  <g
     style="font-size:0.75px;font-family:sans-serif;stroke-width:0.02"
     id="g141"
     transform="matrix(50,0,0,50,399.5873,228.8647)"
     font-size="0.75px">
    <path
       style="fill:none"
       inkscape:connector-curvature="0"
       id="path143"
       d="M 2.8079,4 3.9271,4" />
    <path
       style="stroke:none"
       inkscape:connector-curvature="0"
       id="path145"
       d="m 3.9271,3.925 0,0.15 0.4,-0.075 z" />
  </g>
  <g
     style="font-size:0.75px;font-family:sans-serif;stroke-width:0.02"
     id="g147"
     transform="matrix(50,0,0,50,399.5873,228.8647)"
     font-size="0.75px">
    <path
       style="fill:none"
       inkscape:connector-curvature="0"
       id="path149"
       d="M 5,3.5227 5,0.9" />
    <path
       style="stroke:none"
       inkscape:connector-curvature="0"
       id="path151"
       d="m 4.925,0.9 0.15,0 L 5,0.5 Z" />
  </g>
  <g
     style="font-size:0.75px;font-family:sans-serif;stroke-width:0.02"
     id="g153"
     transform="matrix(50,0,0,50,399.5873,228.8647)"
     font-size="0.75px">
    <path
       style="fill:none"
       inkscape:connector-curvature="0"
       id="path155"
       d="M -3.1045,0.5718 C -3.2829,1.0641 -3.6722,1.5059 -4.1388,1.7636" />
    <path
       style="stroke:none"
       inkscape:connector-curvature="0"
       id="path157"
       d="M -4.1091,1.8324 -4.1684,1.6947 -4.5062,1.9218 Z" />
  </g>
  <g
     style="font-size:0.75px;font-family:sans-serif;stroke-width:0.02"
     id="g159"
     transform="matrix(50,0,0,50,399.5873,228.8647)"
     font-size="0.75px">
    <path
       style="fill:none"
       inkscape:connector-curvature="0"
       id="path161"
       d="M -5.4938,1.9218 C -5.9916,1.7658 -6.4459,1.3913 -6.7224,0.9324" />
    <path
       style="stroke:none"
       inkscape:connector-curvature="0"
       id="path163"
       d="M -6.7901,0.9649 -6.6548,0.9 -6.8955,0.5718 Z" />
  </g>
  <g
     style="font-size:0.75px;font-family:sans-serif;stroke-width:0.02"
     id="g165"
     transform="matrix(50,0,0,50,399.5873,228.8647)"
     font-size="0.75px">
    <path
       style="fill:none"
       inkscape:connector-curvature="0"
       id="path167"
       d="m -1,-0.5 0,-0.7201" />
    <path
       style="stroke:none"
       inkscape:connector-curvature="0"
       id="path169"
       d="m -1.075,-1.2201 0.15,0 -0.075,-0.4 z" />
  </g>
  <g
     style="font-size:0.75px;font-family:sans-serif;stroke-width:0.02"
     id="g171"
     transform="matrix(50,0,0,50,399.5873,228.8647)"
     font-size="0.75px">
    <path
       style="fill:none"
       inkscape:connector-curvature="0"
       id="path173"
       d="m -1,-2.3799 0,-0.7428" />
    <path
       style="stroke:none"
       inkscape:connector-curvature="0"
       id="path175"
       d="m -1.075,-3.1227 0.15,0 -0.075,-0.4 z" />
  </g>
  <g
     style="font-size:0.75px;font-family:sans-serif;stroke-width:0.02"
     id="g177"
     transform="matrix(50,0,0,50,399.5873,228.8647)"
     font-size="0.75px">
    <path
       style="fill:none"
       inkscape:connector-curvature="0"
       id="path179"
       d="m -1,0.5 0,0.7201" />
    <path
       style="stroke:none"
       inkscape:connector-curvature="0"
       id="path181"
       d="m -0.925,1.2201 -0.15,0 0.075,0.4 z" />
  </g>
  <g
     style="font-size:0.75px;font-family:sans-serif;stroke-width:0.02"
     id="g183"
     transform="matrix(50,0,0,50,399.5873,228.8647)"
     font-size="0.75px">
    <path
       style="fill:none"
       inkscape:connector-curvature="0"
       id="path185"
       d="m -1,2.3799 0,0.7428" />
    <path
       style="stroke:none"
       inkscape:connector-curvature="0"
       id="path187"
       d="m -0.925,3.1227 -0.15,0 0.075,0.4 z" />
  </g>
  <g
     style="font-size:0.75px;font-family:sans-serif;stroke-width:0.02"
     id="g189"
     transform="matrix(50,0,0,50,399.5873,228.8647)"
     font-size="0.75px">
    <path
       style="fill:none"
       inkscape:connector-curvature="0"
       id="path191"
       d="m -4.5,2 3.2099,0" />
  </g>
  <g
     style="font-size:0.75px;font-family:sans-serif;stroke-width:0.02"
     id="g193"
     transform="matrix(50,0,0,50,399.5873,228.8647)"
     font-size="0.75px">
    <path
       style="fill:none"
       inkscape:connector-curvature="0"
       id="path195"
       d="m -4.5,-2 3.2099,0" />
  </g>
</svg>
