<?xml version="1.0" encoding="UTF-8" standalone="no"?>
<svg xmlns:dc="http://purl.org/dc/elements/1.1/" xmlns:cc="http://creativecommons.org/ns#" xmlns:rdf="http://www.w3.org/1999/02/22-rdf-syntax-ns#" xmlns:svg="http://www.w3.org/2000/svg" xmlns="http://www.w3.org/2000/svg" xmlns:sodipodi="http://sodipodi.sourceforge.net/DTD/sodipodi-0.dtd" xmlns:inkscape="http://www.inkscape.org/namespaces/inkscape" color-interpolation="auto" color-rendering="auto" fill="black" fill-opacity="1" font-family="'Dialog'" font-size="12px" font-style="normal" font-weight="normal" height="100%" image-rendering="auto" shape-rendering="auto" stroke="black" stroke-dasharray="none" stroke-dashoffset="0" stroke-linecap="square" stroke-linejoin="miter" stroke-miterlimit="10" stroke-opacity="1" stroke-width="1" text-rendering="auto" width="100%" id="svg2" version="1.1" inkscape:version="0.91 r13725" sodipodi:docname="sg-WAIT.svg" viewBox="0 0 923 397" preserveAspectRatio="xMidYMid slice">
  <metadata
     id="metadata261">
    <rdf:RDF>
      <cc:Work
         rdf:about="">
        <dc:format>image/svg+xml</dc:format>
        <dc:type
           rdf:resource="http://purl.org/dc/dcmitype/StillImage" />
      </cc:Work>
    </rdf:RDF>
  </metadata>
  <sodipodi:namedview
     pagecolor="#ffffff"
     bordercolor="#666666"
     borderopacity="1"
     objecttolerance="10"
     gridtolerance="10"
     guidetolerance="10"
     inkscape:pageopacity="0"
     inkscape:pageshadow="2"
     inkscape:window-width="2560"
     inkscape:window-height="1363"
     id="namedview259"
     showgrid="false"
     inkscape:zoom="2.1289274"
     inkscape:cx="461.5"
     inkscape:cy="198.5"
     inkscape:window-x="-9"
     inkscape:window-y="-9"
     inkscape:window-maximized="1"
     inkscape:current-layer="svg2" />
  <!--Generated by the Batik Graphics2D SVG Generator-->
  <defs
     id="genericDefs" />
  <rect
     height="95"
     width="892.54999"
     x="23.85498"
     y="297.61499"
     id="rect9"
     style="fill:none;stroke:#808080;stroke-width:2.5;stroke-miterlimit:1;stroke-dasharray:10, 10" />
  <rect
     height="60.000004"
     width="75.104996"
     x="841.30499"
     y="297.61499"
     id="rect11"
     style="fill:#ffffc8;stroke:none;stroke-width:0.05;stroke-miterlimit:1;stroke-dasharray:0.2, 0.2" />
  <rect
     height="60.000004"
     width="75.104996"
     x="841.30499"
     y="297.61499"
     id="rect13"
     style="fill:none;stroke:#808080;stroke-width:1;stroke-miterlimit:1;stroke-dasharray:10, 10" />
  <path
     d="m 851.305,331.875 2.17,-0.34 q 0.185,1.305 1.02,2 0.835,0.695 2.34,0.695 1.51,0 2.245,-0.615 0.73,-0.615 0.73,-1.445 0,-0.745 -0.645,-1.175 -0.45,-0.29 -2.245,-0.745 -2.42,-0.61 -3.35,-1.055 -0.935,-0.445 -1.42,-1.23 -0.48,-0.79 -0.48,-1.74 0,-0.87 0.395,-1.605 0.4,-0.74 1.08,-1.23 0.515,-0.375 1.4,-0.64 0.885,-0.26 1.9,-0.26 1.525,0 2.68,0.44 1.15,0.435 1.7,1.19 0.55,0.75 0.755,2.005 l -2.145,0.295 q -0.15,-1 -0.85,-1.565 -0.7,-0.56 -1.985,-0.56 -1.51,0 -2.16,0.5 -0.645,0.5 -0.645,1.17 0,0.43 0.27,0.77 0.265,0.355 0.84,0.59 0.33,0.12 1.94,0.56 2.335,0.62 3.255,1.02 0.92,0.395 1.445,1.15 0.525,0.76 0.525,1.88 0,1.1 -0.64,2.07 -0.64,0.97 -1.85,1.505 -1.21,0.53 -2.735,0.53 -2.525,0 -3.85,-1.05 -1.325,-1.05 -1.69,-3.115 z m 13.39,-11.5 0,-2.525 2.2,0 0,2.525 -2.2,0 z m 0,15.37 0,-12.965 2.2,0 0,12.965 -2.2,0 z m 5.14,1.075 2.135,0.315 q 0.135,0.99 0.745,1.44 0.82,0.615 2.235,0.615 1.525,0 2.355,-0.615 0.83,-0.61 1.125,-1.705 0.17,-0.675 0.155,-2.82 -1.44,1.695 -3.585,1.695 -2.675,0 -4.14,-1.93 -1.465,-1.925 -1.465,-4.625 0,-1.855 0.67,-3.425 0.67,-1.565 1.95,-2.42 1.275,-0.855 2.995,-0.855 2.295,0 3.785,1.855 l 0,-1.565 2.025,0 0,11.21 q 0,3.025 -0.615,4.29 -0.62,1.26 -1.955,1.995 -1.335,0.73 -3.29,0.73 -2.32,0 -3.745,-1.04 -1.43,-1.045 -1.38,-3.145 z m 1.82,-7.79 q 0,2.555 1.01,3.725 1.015,1.17 2.54,1.17 1.515,0 2.54,-1.165 1.025,-1.165 1.025,-3.655 0,-2.38 -1.055,-3.59 -1.055,-1.21 -2.545,-1.21 -1.465,0 -2.49,1.19 -1.025,1.195 -1.025,3.535 z m 24.045,-3.805 -11.815,0 0,-2.055 11.815,0 0,2.055 z m 0,5.43 -11.815,0 0,-2.05 11.815,0 0,2.05 z m 10.705,5.09 -2.195,0 0,-14 q -0.795,0.755 -2.08,1.515 -1.29,0.755 -2.315,1.135 l 0,-2.125 q 1.845,-0.87 3.22,-2.1 1.38,-1.235 1.955,-2.395 l 1.415,0 0,17.97 z"
     id="path17"
     inkscape:connector-curvature="0"
     style="font-size:medium;font-family:sans-serif;stroke:none;stroke-width:0.02;stroke-miterlimit:1;stroke-dasharray:0.2, 0.2" />
  <circle
     cx="553.85309"
     cy="327.61499"
     r="22.5"
     id="circle21"
     style="font-size:medium;font-family:sans-serif;fill:#ffffff;stroke:none;stroke-width:0.02;stroke-miterlimit:1;stroke-dasharray:0.2, 0.2" />
  <circle
     cx="553.85309"
     cy="327.61499"
     r="22.5"
     id="circle25"
     style="font-size:medium;font-family:sans-serif;fill:none;stroke-width:5" />
  <circle
     cx="803.85309"
     cy="327.61499"
     r="22.5"
     id="circle29"
     style="font-size:medium;font-family:sans-serif;fill:#ffffff;stroke:none;stroke-width:0.1" />
  <circle
     cx="803.85309"
     cy="327.61499"
     r="22.5"
     id="circle31"
     style="font-size:medium;font-family:sans-serif;fill:none;stroke:#000000;stroke-width:5" />
  <circle
     cx="303.85309"
     cy="327.61499"
     r="22.5"
     id="circle35"
     style="font-size:medium;font-family:sans-serif;fill:#ffffff;stroke:none;stroke-width:0.1" />
  <circle
     cx="303.85309"
     cy="327.61499"
     r="22.5"
     id="circle37"
     style="font-size:medium;font-family:sans-serif;fill:none;stroke:#000000;stroke-width:5" />
  <circle
     cx="53.8531"
     cy="327.61499"
     r="22.5"
     id="circle41"
     style="font-size:medium;font-family:sans-serif;fill:#ffffff;stroke:none;stroke-width:0.1" />
  <circle
     cx="53.8531"
     cy="327.61499"
     r="22.5"
     id="circle43"
     style="font-size:medium;font-family:sans-serif;fill:none;stroke:#000000;stroke-width:5" />
  <path
     d="m 786.1731,345.295 -32.32,32.32 -650,0 -18.18,-18.18"
     id="path47"
     inkscape:connector-curvature="0"
     style="font-size:medium;font-family:sans-serif;fill:none;stroke-width:1" />
  <path
     d="m 83.0231,362.085 5.3,-5.3 -16.79,-11.49 z"
     id="path49"
     inkscape:connector-curvature="0"
     style="font-size:medium;font-family:sans-serif;stroke:none;stroke-width:0.02" />
  <path
     d="m 405.3131,369.6825 2.17,-0.345 q 0.185,1.305 1.02,2.005 0.84,0.695 2.34,0.695 1.51,0 2.245,-0.62 0.73,-0.615 0.73,-1.445 0,-0.745 -0.645,-1.17 -0.45,-0.295 -2.245,-0.745 -2.42,-0.61 -3.35,-1.055 -0.935,-0.445 -1.415,-1.235 -0.485,-0.785 -0.485,-1.74 0,-0.865 0.395,-1.605 0.4,-0.74 1.08,-1.225 0.515,-0.38 1.4,-0.64 0.885,-0.265 1.9,-0.265 1.525,0 2.68,0.44 1.15,0.44 1.7,1.19 0.55,0.75 0.76,2.01 l -2.15,0.29 q -0.15,-1 -0.85,-1.56 -0.7,-0.56 -1.985,-0.56 -1.51,0 -2.16,0.5 -0.645,0.5 -0.645,1.17 0,0.425 0.27,0.77 0.265,0.355 0.84,0.585 0.33,0.12 1.94,0.56 2.335,0.625 3.255,1.02 0.92,0.395 1.445,1.155 0.525,0.755 0.525,1.88 0,1.095 -0.64,2.07 -0.64,0.97 -1.85,1.5 -1.21,0.53 -2.735,0.53 -2.525,0 -3.85,-1.05 -1.325,-1.05 -1.69,-3.11 z m 21.84,2.27 q -1.225,1.035 -2.355,1.465 -1.125,0.425 -2.42,0.425 -2.135,0 -3.285,-1.045 -1.145,-1.04 -1.145,-2.665 0,-0.955 0.43,-1.74 0.435,-0.785 1.135,-1.265 0.705,-0.475 1.585,-0.72 0.645,-0.17 1.95,-0.33 2.66,-0.315 3.92,-0.755 0.01,-0.45 0.01,-0.575 0,-1.34 -0.62,-1.89 -0.845,-0.745 -2.505,-0.745 -1.55,0 -2.285,0.545 -0.74,0.54 -1.095,1.92 l -2.15,-0.29 q 0.295,-1.38 0.965,-2.23 0.67,-0.85 1.94,-1.305 1.27,-0.46 2.945,-0.46 1.66,0 2.695,0.39 1.04,0.39 1.525,0.985 0.49,0.59 0.685,1.495 0.11,0.56 0.11,2.025 l 0,2.93 q 0,3.065 0.14,3.875 0.14,0.815 0.555,1.56 l -2.295,0 q -0.34,-0.685 -0.435,-1.6 z m -0.185,-4.91 q -1.195,0.49 -3.59,0.83 -1.355,0.195 -1.915,0.44 -0.56,0.245 -0.87,0.715 -0.305,0.47 -0.305,1.045 0,0.88 0.665,1.465 0.665,0.585 1.95,0.585 1.27,0 2.26,-0.555 0.985,-0.555 1.45,-1.52 0.355,-0.745 0.355,-2.2 l 0,-0.805 z m 5.625,6.51 0,-12.965 1.98,0 0,1.84 q 1.43,-2.135 4.125,-2.135 1.17,0 2.155,0.42 0.985,0.425 1.47,1.105 0.49,0.685 0.685,1.625 0.12,0.61 0.12,2.135 l 0,7.975 -2.195,0 0,-7.89 q 0,-1.34 -0.255,-2.005 -0.26,-0.665 -0.91,-1.065 -0.655,-0.395 -1.535,-0.395 -1.405,0 -2.42,0.89 -1.02,0.89 -1.02,3.38 l 0,7.085 -2.2,0 z m 13.05,-5.375 0,-2.21 6.75,0 0,2.21 -6.75,0 z"
     id="path53"
     inkscape:connector-curvature="0"
     style="font-size:medium;font-family:sans-serif;fill:#0000b2;stroke:none;stroke-width:0.02" />
  <path
     d="m 328.8531,327.615 180,0"
     id="path57"
     inkscape:connector-curvature="0"
     style="font-size:medium;font-family:sans-serif;fill:none;stroke-width:1" />
  <path
     d="m 508.8531,323.865 0,7.5 20,-3.75 z"
     id="path59"
     inkscape:connector-curvature="0"
     style="font-size:medium;font-family:sans-serif;stroke:none;stroke-width:0.02" />
  <path
     d="m 402.4781,319.2404 2.175,-0.34 q 0.185,1.305 1.02,2 0.835,0.695 2.335,0.695 1.515,0 2.25,-0.615 0.73,-0.615 0.73,-1.445 0,-0.745 -0.645,-1.175 -0.455,-0.29 -2.25,-0.745 -2.415,-0.61 -3.35,-1.055 -0.93,-0.445 -1.415,-1.23 -0.48,-0.79 -0.48,-1.74 0,-0.87 0.395,-1.605 0.395,-0.74 1.08,-1.23 0.515,-0.375 1.4,-0.64 0.885,-0.26 1.895,-0.26 1.525,0 2.68,0.44 1.155,0.435 1.705,1.19 0.55,0.75 0.755,2.005 l -2.15,0.295 q -0.145,-1 -0.845,-1.565 -0.705,-0.56 -1.985,-0.56 -1.515,0 -2.16,0.5 -0.65,0.5 -0.65,1.17 0,0.43 0.27,0.77 0.27,0.355 0.845,0.59 0.33,0.12 1.94,0.56 2.33,0.62 3.25,1.02 0.925,0.395 1.45,1.15 0.525,0.76 0.525,1.88 0,1.1 -0.64,2.07 -0.645,0.97 -1.85,1.5 -1.21,0.535 -2.735,0.535 -2.53,0 -3.85,-1.05 -1.325,-1.05 -1.695,-3.115 z m 21.84,2.27 q -1.22,1.04 -2.35,1.465 -1.13,0.43 -2.425,0.43 -2.135,0 -3.28,-1.045 -1.15,-1.045 -1.15,-2.67 0,-0.95 0.435,-1.735 0.435,-0.79 1.135,-1.265 0.7,-0.475 1.58,-0.72 0.65,-0.17 1.955,-0.33 2.66,-0.32 3.915,-0.755 0.015,-0.455 0.015,-0.575 0,-1.345 -0.625,-1.895 -0.84,-0.745 -2.5,-0.745 -1.55,0 -2.29,0.545 -0.74,0.545 -1.09,1.925 l -2.15,-0.295 q 0.295,-1.38 0.965,-2.23 0.67,-0.845 1.94,-1.305 1.27,-0.455 2.94,-0.455 1.66,0 2.7,0.39 1.035,0.39 1.525,0.98 0.49,0.595 0.685,1.495 0.11,0.565 0.11,2.03 l 0,2.93 q 0,3.06 0.14,3.875 0.14,0.81 0.555,1.555 l -2.295,0 q -0.34,-0.685 -0.44,-1.6 z m -0.185,-4.905 q -1.195,0.485 -3.585,0.83 -1.355,0.195 -1.92,0.44 -0.56,0.24 -0.865,0.71 -0.305,0.47 -0.305,1.045 0,0.88 0.665,1.465 0.665,0.585 1.945,0.585 1.27,0 2.26,-0.555 0.99,-0.555 1.455,-1.52 0.35,-0.745 0.35,-2.195 l 0,-0.805 z m 5.63,6.505 0,-12.965 1.98,0 0,1.845 q 1.425,-2.135 4.125,-2.135 1.17,0 2.155,0.42 0.98,0.42 1.47,1.105 0.485,0.685 0.685,1.62 0.12,0.615 0.12,2.14 l 0,7.97 -2.2,0 0,-7.885 q 0,-1.345 -0.255,-2.01 -0.255,-0.665 -0.91,-1.06 -0.65,-0.395 -1.53,-0.395 -1.405,0 -2.425,0.89 -1.02,0.89 -1.02,3.38 l 0,7.08 -2.195,0 z m 18.52,-2.895 0,-4.905 -4.875,0 0,-2.05 4.875,0 0,-4.87 2.075,0 0,4.87 4.87,0 0,2.05 -4.87,0 0,4.905 -2.075,0 z"
     id="path63"
     inkscape:connector-curvature="0"
     style="font-size:medium;font-family:sans-serif;fill:#0000b2;stroke:none;stroke-width:0.02" />
  <path
     d="m 78.8531,327.615 180,0"
     id="path67"
     inkscape:connector-curvature="0"
     style="font-size:medium;font-family:sans-serif;fill:none;stroke-width:1" />
  <path
     d="m 258.8531,323.865 0,7.5 20,-3.75 z"
     id="path69"
     inkscape:connector-curvature="0"
     style="font-size:medium;font-family:sans-serif;stroke:none;stroke-width:0.02" />
  <path
     d="m 165.2081,317.4076 2.16,0.285 q -0.355,2.23 -1.815,3.495 -1.46,1.265 -3.58,1.265 -2.665,0 -4.28,-1.74 -1.62,-1.74 -1.62,-4.985 0,-2.1 0.695,-3.675 0.7,-1.575 2.12,-2.365 1.425,-0.785 3.095,-0.785 2.11,0 3.455,1.065 1.34,1.07 1.72,3.035 l -2.135,0.33 q -0.305,-1.305 -1.08,-1.965 -0.775,-0.66 -1.875,-0.66 -1.66,0 -2.695,1.19 -1.04,1.19 -1.04,3.765 0,2.615 1,3.8 1,1.18 2.615,1.18 1.29,0 2.16,-0.79 0.865,-0.795 1.1,-2.445 z m 8.835,2.785 0.32,1.94 q -0.93,0.195 -1.66,0.195 -1.2,0 -1.86,-0.375 -0.655,-0.38 -0.925,-0.995 -0.27,-0.62 -0.27,-2.595 l 0,-7.46 -1.61,0 0,-1.71 1.61,0 0,-3.21 2.185,-1.315 0,4.525 2.21,0 0,1.71 -2.21,0 0,7.58 q 0,0.94 0.115,1.21 0.12,0.27 0.38,0.425 0.265,0.16 0.75,0.16 0.365,0 0.965,-0.085 z m 2.125,1.965 0,-12.965 1.975,0 0,1.965 q 0.76,-1.375 1.4,-1.815 0.64,-0.44 1.41,-0.44 1.11,0 2.26,0.705 l -0.76,2.04 q -0.805,-0.475 -1.61,-0.475 -0.72,0 -1.295,0.435 -0.575,0.43 -0.815,1.2 -0.37,1.17 -0.37,2.565 l 0,6.785 -2.195,0 z m 8.3,0 0,-17.895 2.195,0 0,17.895 -2.195,0 z m 10.22,-2.89 0,-4.91 -4.875,0 0,-2.05 4.875,0 0,-4.87 2.075,0 0,4.87 4.87,0 0,2.05 -4.87,0 0,4.91 -2.075,0 z"
     id="path73"
     inkscape:connector-curvature="0"
     style="font-size:medium;font-family:sans-serif;fill:#b20000;stroke:none;stroke-width:0.02" />
  <path
     d="m 578.8531,327.615 180,0"
     id="path77"
     inkscape:connector-curvature="0"
     style="font-size:medium;font-family:sans-serif;fill:none;stroke-width:1" />
  <path
     d="m 758.8531,323.865 0,7.5 20,-3.75 z"
     id="path79"
     inkscape:connector-curvature="0"
     style="font-size:medium;font-family:sans-serif;stroke:none;stroke-width:0.02" />
  <path
     d="m 668.0381,317.4076 2.16,0.285 q -0.355,2.23 -1.81,3.495 -1.46,1.265 -3.585,1.265 -2.66,0 -4.28,-1.74 -1.615,-1.74 -1.615,-4.985 0,-2.1 0.695,-3.675 0.695,-1.575 2.115,-2.365 1.425,-0.785 3.095,-0.785 2.115,0 3.455,1.065 1.345,1.07 1.725,3.035 l -2.14,0.33 q -0.305,-1.305 -1.08,-1.965 -0.775,-0.66 -1.87,-0.66 -1.665,0 -2.7,1.19 -1.04,1.19 -1.04,3.765 0,2.615 1.005,3.8 1,1.18 2.61,1.18 1.295,0 2.16,-0.79 0.87,-0.795 1.1,-2.445 z m 8.84,2.785 0.315,1.94 q -0.93,0.195 -1.66,0.195 -1.195,0 -1.855,-0.375 -0.66,-0.38 -0.93,-0.995 -0.265,-0.62 -0.265,-2.595 l 0,-7.46 -1.615,0 0,-1.71 1.615,0 0,-3.21 2.185,-1.315 0,4.525 2.21,0 0,1.71 -2.21,0 0,7.58 q 0,0.94 0.115,1.21 0.115,0.27 0.38,0.425 0.26,0.16 0.75,0.16 0.365,0 0.965,-0.085 z m 2.12,1.965 0,-12.965 1.98,0 0,1.965 q 0.755,-1.375 1.395,-1.815 0.645,-0.44 1.41,-0.44 1.115,0 2.26,0.705 l -0.755,2.04 q -0.805,-0.475 -1.615,-0.475 -0.72,0 -1.29,0.435 -0.575,0.43 -0.82,1.2 -0.365,1.17 -0.365,2.565 l 0,6.785 -2.2,0 z m 8.3,0 0,-17.895 2.2,0 0,17.895 -2.2,0 z m 4.75,-5.37 0,-2.21 6.75,0 0,2.21 -6.75,0 z"
     id="path83"
     inkscape:connector-curvature="0"
     style="font-size:medium;font-family:sans-serif;fill:#b20000;stroke:none;stroke-width:0.02" />
  <rect
     height="102.615"
     width="894.25"
     x="23.853081"
     y="4.9999995"
     id="rect87"
     style="font-size:medium;font-family:sans-serif;fill:none;stroke:#808080;stroke-width:2.5;stroke-miterlimit:1;stroke-dasharray:10, 10" />
  <rect
     height="60.000004"
     width="78.495003"
     x="839.60309"
     y="47.614998"
     id="rect89"
     style="font-size:medium;font-family:sans-serif;fill:#ffffc8;stroke:none;stroke-width:0.05;stroke-miterlimit:1;stroke-dasharray:0.2, 0.2" />
  <rect
     height="60.000004"
     width="78.495003"
     x="839.60309"
     y="47.614998"
     id="rect91"
     style="font-size:medium;font-family:sans-serif;fill:none;stroke:#808080;stroke-width:1;stroke-miterlimit:1;stroke-dasharray:10, 10" />
  <path
     d="m 849.6031,81.875 2.175,-0.34 q 0.185,1.305 1.02,2 0.835,0.695 2.335,0.695 1.515,0 2.25,-0.615 0.73,-0.615 0.73,-1.445 0,-0.745 -0.645,-1.175 -0.455,-0.29 -2.25,-0.745 -2.415,-0.61 -3.35,-1.055 -0.93,-0.445 -1.415,-1.23 -0.48,-0.79 -0.48,-1.74 0,-0.87 0.395,-1.605 0.395,-0.74 1.08,-1.23 0.515,-0.375 1.4,-0.64 0.885,-0.26 1.895,-0.26 1.525,0 2.68,0.44 1.155,0.435 1.705,1.19 0.55,0.75 0.755,2.005 l -2.15,0.295 q -0.145,-1 -0.845,-1.565 -0.705,-0.56 -1.985,-0.56 -1.515,0 -2.16,0.5 -0.65,0.5 -0.65,1.17 0,0.43 0.27,0.77 0.27,0.355 0.845,0.59 0.33,0.12 1.94,0.56 2.33,0.62 3.25,1.02 0.925,0.395 1.45,1.15 0.525,0.76 0.525,1.88 0,1.1 -0.64,2.07 -0.645,0.97 -1.85,1.505 -1.21,0.53 -2.735,0.53 -2.53,0 -3.85,-1.05 -1.325,-1.05 -1.695,-3.115 z m 13.395,-11.5 0,-2.525 2.195,0 0,2.525 -2.195,0 z m 0,15.37 0,-12.965 2.195,0 0,12.965 -2.195,0 z m 5.135,1.075 2.14,0.315 q 0.135,0.99 0.745,1.44 0.815,0.615 2.23,0.615 1.53,0 2.36,-0.615 0.83,-0.61 1.12,-1.705 0.17,-0.675 0.16,-2.82 -1.44,1.695 -3.59,1.695 -2.675,0 -4.14,-1.93 -1.46,-1.925 -1.46,-4.625 0,-1.855 0.67,-3.425 0.67,-1.565 1.945,-2.42 1.275,-0.855 3,-0.855 2.295,0 3.785,1.855 l 0,-1.565 2.025,0 0,11.21 q 0,3.025 -0.62,4.29 -0.615,1.26 -1.95,1.995 -1.34,0.73 -3.29,0.73 -2.32,0 -3.75,-1.04 -1.425,-1.045 -1.38,-3.145 z m 1.82,-7.79 q 0,2.555 1.015,3.725 1.015,1.17 2.54,1.17 1.51,0 2.535,-1.165 1.03,-1.165 1.03,-3.655 0,-2.38 -1.06,-3.59 -1.055,-1.21 -2.545,-1.21 -1.465,0 -2.49,1.19 -1.025,1.195 -1.025,3.535 z m 24.05,-3.805 -11.82,0 0,-2.055 11.82,0 0,2.055 z m 0,5.43 -11.82,0 0,-2.05 11.82,0 0,2.05 z m 2.43,-3.735 q 0,-3.175 0.65,-5.11 0.655,-1.935 1.94,-2.985 1.29,-1.05 3.245,-1.05 1.44,0 2.525,0.58 1.085,0.58 1.795,1.675 0.705,1.09 1.11,2.66 0.405,1.57 0.405,4.23 0,3.15 -0.65,5.085 -0.645,1.935 -1.935,2.99 -1.285,1.055 -3.25,1.055 -2.59,0 -4.065,-1.855 -1.77,-2.235 -1.77,-7.275 z m 2.255,0 q 0,4.405 1.035,5.865 1.03,1.46 2.545,1.46 1.51,0 2.545,-1.465 1.03,-1.465 1.03,-5.86 0,-4.42 -1.03,-5.87 -1.035,-1.455 -2.57,-1.455 -1.515,0 -2.42,1.28 -1.135,1.64 -1.135,6.045 z"
     id="path93"
     inkscape:connector-curvature="0"
     style="font-size:medium;font-family:sans-serif;fill:#000000;stroke:none;stroke-width:0.02;stroke-miterlimit:1;stroke-dasharray:0.2, 0.2" />
  <circle
     cx="803.85309"
     cy="77.614998"
     r="22.5"
     id="circle97"
     style="font-size:medium;font-family:sans-serif;fill:#ffffff;stroke:none;stroke-width:0.02;stroke-miterlimit:1;stroke-dasharray:0.2, 0.2" />
  <circle
     cx="803.85309"
     cy="77.614998"
     r="22.5"
     id="circle101"
     style="font-size:medium;font-family:sans-serif;fill:none;stroke-width:5" />
  <circle
     cx="53.8531"
     cy="77.614998"
     r="22.5"
     id="circle105"
     style="font-size:medium;font-family:sans-serif;fill:#ffffff;stroke:none;stroke-width:0.1" />
  <circle
     cx="53.8531"
     cy="77.614998"
     r="22.5"
     id="circle107"
     style="font-size:medium;font-family:sans-serif;fill:none;stroke:#000000;stroke-width:5" />
  <path
     d="m 53.8531,27.615 0,25 m -6.25,-12.5 6.25,12.5 6.25,-12.5"
     id="path109"
     inkscape:connector-curvature="0"
     style="font-size:medium;font-family:sans-serif;fill:none;stroke:#000000;stroke-width:5" />
  <circle
     cx="553.85309"
     cy="77.614998"
     r="22.5"
     id="circle113"
     style="font-size:medium;font-family:sans-serif;fill:#ffffff;stroke:none;stroke-width:0.1" />
  <circle
     cx="553.85309"
     cy="77.614998"
     r="22.5"
     id="circle115"
     style="font-size:medium;font-family:sans-serif;fill:none;stroke:#000000;stroke-width:5" />
  <circle
     cx="228.8531"
     cy="77.614998"
     r="22.5"
     id="circle119"
     style="font-size:medium;font-family:sans-serif;fill:#ffffff;stroke:none;stroke-width:0.1" />
  <circle
     cx="228.8531"
     cy="77.614998"
     r="22.5"
     id="circle121"
     style="font-size:medium;font-family:sans-serif;fill:none;stroke:#000000;stroke-width:5" />
  <circle
     cx="303.85309"
     cy="77.614998"
     r="22.5"
     id="circle125"
     style="font-size:medium;font-family:sans-serif;fill:#ffffff;stroke:none;stroke-width:0.1" />
  <circle
     cx="303.85309"
     cy="77.614998"
     r="22.5"
     id="circle127"
     style="font-size:medium;font-family:sans-serif;fill:none;stroke:#000000;stroke-width:5" />
  <path
     d="m 328.8531,77.615 180,0"
     id="path131"
     inkscape:connector-curvature="0"
     style="font-size:medium;font-family:sans-serif;fill:none;stroke-width:1;stroke-miterlimit:10;stroke-dasharray:6,6;stroke-dashoffset:0" />
  <path
     d="m 508.8531,73.865 0,7.5 20,-3.75 z"
     id="path133"
     inkscape:connector-curvature="0"
     style="font-size:medium;font-family:sans-serif;stroke:none;stroke-width:0.02" />
  <path
     d="m 402.4781,69.2404 2.175,-0.34 q 0.185,1.305 1.02,2 0.835,0.695 2.335,0.695 1.515,0 2.25,-0.615 0.73,-0.615 0.73,-1.445 0,-0.745 -0.645,-1.175 -0.455,-0.29 -2.25,-0.745 -2.415,-0.61 -3.35,-1.055 -0.93,-0.445 -1.415,-1.23 -0.48,-0.79 -0.48,-1.74 0,-0.87 0.395,-1.605 0.395,-0.74 1.08,-1.23 0.515,-0.375 1.4,-0.64 0.885,-0.26 1.895,-0.26 1.525,0 2.68,0.44 1.155,0.435 1.705,1.19 0.55,0.75 0.755,2.005 l -2.15,0.295 q -0.145,-1 -0.845,-1.565 -0.705,-0.56 -1.985,-0.56 -1.515,0 -2.16,0.5 -0.65,0.5 -0.65,1.17 0,0.43 0.27,0.77 0.27,0.355 0.845,0.59 0.33,0.12 1.94,0.56 2.33,0.62 3.25,1.02 0.925,0.395 1.45,1.15 0.525,0.76 0.525,1.88 0,1.1 -0.64,2.07 -0.645,0.97 -1.85,1.5 -1.21,0.535 -2.735,0.535 -2.53,0 -3.85,-1.05 -1.325,-1.05 -1.695,-3.115 z m 21.84,2.27 q -1.22,1.04 -2.35,1.465 -1.13,0.43 -2.425,0.43 -2.135,0 -3.28,-1.045 -1.15,-1.045 -1.15,-2.67 0,-0.95 0.435,-1.735 0.435,-0.79 1.135,-1.265 0.7,-0.475 1.58,-0.72 0.65,-0.17 1.955,-0.33 2.66,-0.32 3.915,-0.755 0.015,-0.455 0.015,-0.575 0,-1.345 -0.625,-1.895 -0.84,-0.745 -2.5,-0.745 -1.55,0 -2.29,0.545 -0.74,0.545 -1.09,1.925 l -2.15,-0.295 q 0.295,-1.38 0.965,-2.23 0.67,-0.845 1.94,-1.305 1.27,-0.455 2.94,-0.455 1.66,0 2.7,0.39 1.035,0.39 1.525,0.98 0.49,0.595 0.685,1.495 0.11,0.565 0.11,2.03 l 0,2.93 q 0,3.06 0.14,3.875 0.14,0.81 0.555,1.555 l -2.295,0 q -0.34,-0.685 -0.44,-1.6 z m -0.185,-4.905 q -1.195,0.485 -3.585,0.83 -1.355,0.195 -1.92,0.44 -0.56,0.24 -0.865,0.71 -0.305,0.47 -0.305,1.045 0,0.88 0.665,1.465 0.665,0.585 1.945,0.585 1.27,0 2.26,-0.555 0.99,-0.555 1.455,-1.52 0.35,-0.745 0.35,-2.195 l 0,-0.805 z m 5.63,6.505 0,-12.965 1.98,0 0,1.845 q 1.425,-2.135 4.125,-2.135 1.17,0 2.155,0.42 0.98,0.42 1.47,1.105 0.485,0.685 0.685,1.62 0.12,0.615 0.12,2.14 l 0,7.97 -2.2,0 0,-7.885 q 0,-1.345 -0.255,-2.01 -0.255,-0.665 -0.91,-1.06 -0.65,-0.395 -1.53,-0.395 -1.405,0 -2.425,0.89 -1.02,0.89 -1.02,3.38 l 0,7.08 -2.195,0 z m 18.52,-2.895 0,-4.905 -4.875,0 0,-2.05 4.875,0 0,-4.87 2.075,0 0,4.87 4.87,0 0,2.05 -4.87,0 0,4.905 -2.075,0 z"
     id="path137"
     inkscape:connector-curvature="0"
     style="font-size:medium;font-family:sans-serif;fill:#0000b2;stroke:none;stroke-width:0.02" />
  <path
     d="m 786.1731,59.935 -32.32,-32.32 -650,0 -18.18,18.18"
     id="path141"
     inkscape:connector-curvature="0"
     style="font-size:medium;font-family:sans-serif;fill:none;stroke-width:1" />
  <path
     d="m 88.3231,48.445 -5.3,-5.3 -11.49,16.79 z"
     id="path143"
     inkscape:connector-curvature="0"
     style="font-size:medium;font-family:sans-serif;stroke:none;stroke-width:0.02" />
  <path
     d="m 405.3131,19.6825 2.17,-0.345 q 0.185,1.305 1.02,2.005 0.84,0.695 2.34,0.695 1.51,0 2.245,-0.62 0.73,-0.615 0.73,-1.445 0,-0.745 -0.645,-1.17 -0.45,-0.295 -2.245,-0.745 -2.42,-0.61 -3.35,-1.055 -0.935,-0.445 -1.415,-1.235 -0.485,-0.785 -0.485,-1.74 0,-0.865 0.395,-1.605 0.4,-0.74 1.08,-1.225 0.515,-0.38 1.4,-0.64 0.885,-0.265 1.9,-0.265 1.525,0 2.68,0.44 1.15,0.44 1.7,1.19 0.55,0.75 0.76,2.01 l -2.15,0.29 q -0.15,-1 -0.85,-1.56 -0.7,-0.56 -1.985,-0.56 -1.51,0 -2.16,0.5 -0.645,0.5 -0.645,1.17 0,0.425 0.27,0.77 0.265,0.355 0.84,0.585 0.33,0.12 1.94,0.56 2.335,0.625 3.255,1.02 0.92,0.395 1.445,1.155 0.525,0.755 0.525,1.88 0,1.095 -0.64,2.07 -0.64,0.97 -1.85,1.5 -1.21,0.53 -2.735,0.53 -2.525,0 -3.85,-1.05 -1.325,-1.05 -1.69,-3.11 z m 21.84,2.27 q -1.225,1.035 -2.355,1.465 -1.125,0.425 -2.42,0.425 -2.135,0 -3.285,-1.045 -1.145,-1.04 -1.145,-2.665 0,-0.955 0.43,-1.74 0.435,-0.785 1.135,-1.265 0.705,-0.475 1.585,-0.72 0.645,-0.17 1.95,-0.33 2.66,-0.315 3.92,-0.755 0.01,-0.45 0.01,-0.575 0,-1.34 -0.62,-1.89 -0.845,-0.745 -2.505,-0.745 -1.55,0 -2.285,0.545 -0.74,0.54 -1.095,1.92 l -2.15,-0.29 q 0.295,-1.38 0.965,-2.23 0.67,-0.85 1.94,-1.305 1.27,-0.46 2.945,-0.46 1.66,0 2.695,0.39 1.04,0.39 1.525,0.985 0.49,0.59 0.685,1.495 0.11,0.56 0.11,2.025 l 0,2.93 q 0,3.065 0.14,3.875 0.14,0.815 0.555,1.56 l -2.295,0 q -0.34,-0.685 -0.435,-1.6 z m -0.185,-4.91 q -1.195,0.49 -3.59,0.83 -1.355,0.195 -1.915,0.44 -0.56,0.245 -0.87,0.715 -0.305,0.47 -0.305,1.045 0,0.88 0.665,1.465 0.665,0.585 1.95,0.585 1.27,0 2.26,-0.555 0.985,-0.555 1.45,-1.52 0.355,-0.745 0.355,-2.2 l 0,-0.805 z m 5.625,6.51 0,-12.965 1.98,0 0,1.84 q 1.43,-2.135 4.125,-2.135 1.17,0 2.155,0.42 0.985,0.425 1.47,1.105 0.49,0.685 0.685,1.625 0.12,0.61 0.12,2.135 l 0,7.975 -2.195,0 0,-7.89 q 0,-1.34 -0.255,-2.005 -0.26,-0.665 -0.91,-1.065 -0.655,-0.395 -1.535,-0.395 -1.405,0 -2.42,0.89 -1.02,0.89 -1.02,3.38 l 0,7.085 -2.2,0 z m 13.05,-5.375 0,-2.21 6.75,0 0,2.21 -6.75,0 z"
     id="path147"
     inkscape:connector-curvature="0"
     style="font-size:medium;font-family:sans-serif;fill:#0000b2;stroke:none;stroke-width:0.02" />
  <path
     d="m 78.8531,77.615 105,0"
     id="path151"
     inkscape:connector-curvature="0"
     style="font-size:medium;font-family:sans-serif;fill:none;stroke-width:1" />
  <path
     d="m 183.8531,73.865 0,7.5 20,-3.75 z"
     id="path153"
     inkscape:connector-curvature="0"
     style="font-size:medium;font-family:sans-serif;stroke:none;stroke-width:0.02" />
  <path
     d="m 127.7081,67.4076 2.16,0.285 q -0.355,2.23 -1.815,3.495 -1.46,1.265 -3.58,1.265 -2.665,0 -4.28,-1.74 -1.62,-1.74 -1.62,-4.985 0,-2.1 0.695,-3.675 0.7,-1.575 2.12,-2.365 1.425,-0.785 3.095,-0.785 2.11,0 3.455,1.065 1.34,1.07 1.72,3.035 l -2.135,0.33 q -0.305,-1.305 -1.08,-1.965 -0.775,-0.66 -1.875,-0.66 -1.66,0 -2.695,1.19 -1.04,1.19 -1.04,3.765 0,2.615 1,3.8 1,1.18 2.615,1.18 1.29,0 2.16,-0.79 0.865,-0.795 1.1,-2.445 z m 8.835,2.785 0.32,1.94 q -0.93,0.195 -1.66,0.195 -1.2,0 -1.86,-0.375 -0.655,-0.38 -0.925,-0.995 -0.27,-0.62 -0.27,-2.595 l 0,-7.46 -1.61,0 0,-1.71 1.61,0 0,-3.21 2.185,-1.315 0,4.525 2.21,0 0,1.71 -2.21,0 0,7.58 q 0,0.94 0.115,1.21 0.12,0.27 0.38,0.425 0.265,0.16 0.75,0.16 0.365,0 0.965,-0.085 z m 2.125,1.965 0,-12.965 1.975,0 0,1.965 q 0.76,-1.375 1.4,-1.815 0.64,-0.44 1.41,-0.44 1.11,0 2.26,0.705 l -0.76,2.04 q -0.805,-0.475 -1.61,-0.475 -0.72,0 -1.295,0.435 -0.575,0.43 -0.815,1.2 -0.37,1.17 -0.37,2.565 l 0,6.785 -2.195,0 z m 8.3,0 0,-17.895 2.195,0 0,17.895 -2.195,0 z m 10.22,-2.89 0,-4.91 -4.875,0 0,-2.05 4.875,0 0,-4.87 2.075,0 0,4.87 4.87,0 0,2.05 -4.87,0 0,4.91 -2.075,0 z"
     id="path157"
     inkscape:connector-curvature="0"
     style="font-size:medium;font-family:sans-serif;fill:#b20000;stroke:none;stroke-width:0.02" />
  <path
     d="m 578.8531,77.615 180,0"
     id="path161"
     inkscape:connector-curvature="0"
     style="font-size:medium;font-family:sans-serif;fill:none;stroke-width:1" />
  <path
     d="m 758.8531,73.865 0,7.5 20,-3.75 z"
     id="path163"
     inkscape:connector-curvature="0"
     style="font-size:medium;font-family:sans-serif;stroke:none;stroke-width:0.02" />
  <path
     d="m 668.0381,67.4076 2.16,0.285 q -0.355,2.23 -1.81,3.495 -1.46,1.265 -3.585,1.265 -2.66,0 -4.28,-1.74 -1.615,-1.74 -1.615,-4.985 0,-2.1 0.695,-3.675 0.695,-1.575 2.115,-2.365 1.425,-0.785 3.095,-0.785 2.115,0 3.455,1.065 1.345,1.07 1.725,3.035 l -2.14,0.33 q -0.305,-1.305 -1.08,-1.965 -0.775,-0.66 -1.87,-0.66 -1.665,0 -2.7,1.19 -1.04,1.19 -1.04,3.765 0,2.615 1.005,3.8 1,1.18 2.61,1.18 1.295,0 2.16,-0.79 0.87,-0.795 1.1,-2.445 z m 8.84,2.785 0.315,1.94 q -0.93,0.195 -1.66,0.195 -1.195,0 -1.855,-0.375 -0.66,-0.38 -0.93,-0.995 -0.265,-0.62 -0.265,-2.595 l 0,-7.46 -1.615,0 0,-1.71 1.615,0 0,-3.21 2.185,-1.315 0,4.525 2.21,0 0,1.71 -2.21,0 0,7.58 q 0,0.94 0.115,1.21 0.115,0.27 0.38,0.425 0.26,0.16 0.75,0.16 0.365,0 0.965,-0.085 z m 2.12,1.965 0,-12.965 1.98,0 0,1.965 q 0.755,-1.375 1.395,-1.815 0.645,-0.44 1.41,-0.44 1.115,0 2.26,0.705 l -0.755,2.04 q -0.805,-0.475 -1.615,-0.475 -0.72,0 -1.29,0.435 -0.575,0.43 -0.82,1.2 -0.365,1.17 -0.365,2.565 l 0,6.785 -2.2,0 z m 8.3,0 0,-17.895 2.2,0 0,17.895 -2.2,0 z m 4.75,-5.37 0,-2.21 6.75,0 0,2.21 -6.75,0 z"
     id="path167"
     inkscape:connector-curvature="0"
     style="font-size:medium;font-family:sans-serif;fill:#b20000;stroke:none;stroke-width:0.02" />
  <path
     d="m 545.5131,101.185 c -12.325,47.785 -13.705,128.19 -4.145,183.295"
     id="path171"
     inkscape:connector-curvature="0"
     style="font-size:medium;font-family:sans-serif;fill:none;stroke-width:1" />
  <path
     d="m 545.0331,283.705 -7.335,1.555 7.815,18.785 z"
     id="path173"
     inkscape:connector-curvature="0"
     style="font-size:medium;font-family:sans-serif;stroke:none;stroke-width:0.02" />
  <path
     d="m 515.8166,180.415 0.34,2.175 q -1.305,0.185 -2,1.02 -0.695,0.835 -0.695,2.335 0,1.515 0.615,2.25 0.615,0.73 1.445,0.73 0.745,0 1.175,-0.645 0.29,-0.455 0.745,-2.25 0.61,-2.415 1.055,-3.35 0.445,-0.93 1.23,-1.415 0.79,-0.48 1.74,-0.48 0.87,0 1.605,0.395 0.74,0.395 1.23,1.08 0.375,0.515 0.64,1.4 0.26,0.885 0.26,1.895 0,1.525 -0.435,2.68 -0.44,1.155 -1.19,1.705 -0.755,0.55 -2.01,0.755 l -0.295,-2.15 q 1.005,-0.145 1.565,-0.845 0.56,-0.705 0.56,-1.985 0,-1.515 -0.5,-2.16 -0.5,-0.65 -1.17,-0.65 -0.43,0 -0.77,0.27 -0.355,0.27 -0.585,0.845 -0.125,0.33 -0.565,1.94 -0.62,2.33 -1.02,3.25 -0.395,0.925 -1.15,1.45 -0.76,0.525 -1.88,0.525 -1.1,0 -2.07,-0.64 -0.97,-0.645 -1.5,-1.85 -0.535,-1.21 -0.535,-2.735 0,-2.53 1.05,-3.855 1.05,-1.32 3.115,-1.69 z m 11.5,13.395 2.525,0 0,2.195 -2.525,0 0,-2.195 z m -15.37,0 12.965,0 0,2.195 -12.965,0 0,-2.195 z m -1.075,5.135 -0.315,2.14 q -0.99,0.135 -1.44,0.745 -0.61,0.815 -0.61,2.23 0,1.53 0.61,2.36 0.61,0.83 1.705,1.12 0.675,0.17 2.82,0.16 -1.695,-1.44 -1.695,-3.59 0,-2.675 1.93,-4.14 1.93,-1.465 4.625,-1.465 1.855,0 3.425,0.675 1.57,0.67 2.425,1.945 0.85,1.275 0.85,3 0,2.295 -1.855,3.78 l 1.565,0 0,2.03 -11.205,0 q -3.03,0 -4.295,-0.62 -1.26,-0.615 -1.995,-1.95 -0.73,-1.34 -0.73,-3.29 0,-2.32 1.045,-3.75 1.04,-1.425 3.14,-1.38 z m 7.79,1.82 q -2.55,0 -3.725,1.015 -1.17,1.015 -1.17,2.54 0,1.51 1.165,2.535 1.165,1.025 3.655,1.025 2.38,0 3.59,-1.055 1.21,-1.055 1.21,-2.545 0,-1.465 -1.19,-2.49 -1.19,-1.025 -3.535,-1.025 z m -3.82,17.105 4.905,0 0,-4.875 2.05,0 0,4.875 4.87,0 0,2.075 -4.87,0 0,4.87 -2.05,0 0,-4.87 -4.905,0 0,-2.075 z"
     id="path177"
     inkscape:connector-curvature="0"
     style="font-size:medium;font-family:sans-serif;fill:#b20000;stroke:none;stroke-width:0.02" />
  <path
     d="m 562.1931,304.045 c 12.325,-47.785 13.705,-128.19 4.145,-183.295"
     id="path181"
     inkscape:connector-curvature="0"
     style="font-size:medium;font-family:sans-serif;fill:none;stroke-width:1" />
  <path
     d="m 562.6731,121.525 7.335,-1.555 -7.815,-18.785 z"
     id="path183"
     inkscape:connector-curvature="0"
     style="font-size:medium;font-family:sans-serif;stroke:none;stroke-width:0.02" />
  <path
     d="m 591.8897,221.98 -0.34,-2.17 q 1.305,-0.185 2,-1.02 0.695,-0.835 0.695,-2.34 0,-1.51 -0.615,-2.245 -0.615,-0.73 -1.445,-0.73 -0.745,0 -1.175,0.645 -0.29,0.45 -0.745,2.245 -0.61,2.42 -1.055,3.35 -0.445,0.935 -1.23,1.42 -0.79,0.48 -1.74,0.48 -0.87,0 -1.605,-0.395 -0.74,-0.4 -1.23,-1.08 -0.375,-0.515 -0.64,-1.4 -0.26,-0.885 -0.26,-1.9 0,-1.525 0.435,-2.68 0.44,-1.15 1.19,-1.7 0.755,-0.55 2.01,-0.755 l 0.295,2.145 q -1.005,0.15 -1.565,0.85 -0.56,0.7 -0.56,1.985 0,1.51 0.5,2.16 0.5,0.645 1.17,0.645 0.43,0 0.77,-0.27 0.355,-0.265 0.585,-0.84 0.125,-0.33 0.565,-1.94 0.62,-2.335 1.02,-3.255 0.395,-0.92 1.15,-1.445 0.76,-0.525 1.88,-0.525 1.1,0 2.07,0.64 0.97,0.64 1.5,1.85 0.535,1.21 0.535,2.735 0,2.525 -1.05,3.85 -1.05,1.325 -3.115,1.69 z m -11.5,-13.39 -2.525,0 0,-2.2 2.525,0 0,2.2 z m 15.37,0 -12.965,0 0,-2.2 12.965,0 0,2.2 z m 1.075,-5.14 0.315,-2.135 q 0.99,-0.135 1.44,-0.745 0.61,-0.82 0.61,-2.235 0,-1.525 -0.61,-2.355 -0.61,-0.83 -1.705,-1.125 -0.675,-0.17 -2.82,-0.155 1.695,1.44 1.695,3.585 0,2.675 -1.93,4.14 -1.93,1.465 -4.625,1.465 -1.855,0 -3.425,-0.67 -1.57,-0.67 -2.425,-1.95 -0.85,-1.275 -0.85,-2.995 0,-2.295 1.855,-3.785 l -1.565,0 0,-2.025 11.205,0 q 3.03,0 4.295,0.615 1.26,0.62 1.995,1.955 0.73,1.335 0.73,3.29 0,2.32 -1.045,3.745 -1.04,1.43 -3.14,1.38 z m -7.79,-1.82 q 2.55,0 3.725,-1.01 1.17,-1.015 1.17,-2.54 0,-1.515 -1.165,-2.54 -1.165,-1.025 -3.655,-1.025 -2.38,0 -3.59,1.055 -1.21,1.055 -1.21,2.545 0,1.465 1.19,2.49 1.19,1.025 3.535,1.025 z m 1.345,-11.63 -2.21,0 0,-6.75 2.21,0 0,6.75 z"
     id="path187"
     inkscape:connector-curvature="0"
     style="font-size:medium;font-family:sans-serif;fill:#b20000;stroke:none;stroke-width:0.02" />
  <path
     d="m 312.1931,304.045 c 12.325,-47.785 13.705,-128.19 4.145,-183.295"
     id="path191"
     inkscape:connector-curvature="0"
     style="font-size:medium;font-family:sans-serif;fill:none;stroke-width:1" />
  <path
     d="m 312.6731,121.525 7.335,-1.555 -7.815,-18.785 z"
     id="path193"
     inkscape:connector-curvature="0"
     style="font-size:medium;font-family:sans-serif;stroke:none;stroke-width:0.02" />
  <path
     d="m 341.8897,221.98 -0.34,-2.17 q 1.305,-0.185 2,-1.02 0.695,-0.835 0.695,-2.34 0,-1.51 -0.615,-2.245 -0.615,-0.73 -1.445,-0.73 -0.745,0 -1.175,0.645 -0.29,0.45 -0.745,2.245 -0.61,2.42 -1.055,3.35 -0.445,0.935 -1.23,1.42 -0.79,0.48 -1.74,0.48 -0.87,0 -1.605,-0.395 -0.74,-0.4 -1.23,-1.08 -0.375,-0.515 -0.64,-1.4 -0.26,-0.885 -0.26,-1.9 0,-1.525 0.435,-2.68 0.44,-1.15 1.19,-1.7 0.755,-0.55 2.01,-0.755 l 0.295,2.145 q -1.005,0.15 -1.565,0.85 -0.56,0.7 -0.56,1.985 0,1.51 0.5,2.16 0.5,0.645 1.17,0.645 0.43,0 0.77,-0.27 0.355,-0.265 0.585,-0.84 0.125,-0.33 0.565,-1.94 0.62,-2.335 1.02,-3.255 0.395,-0.92 1.15,-1.445 0.76,-0.525 1.88,-0.525 1.1,0 2.07,0.64 0.97,0.64 1.5,1.85 0.535,1.21 0.535,2.735 0,2.525 -1.05,3.85 -1.05,1.325 -3.115,1.69 z m -11.5,-13.39 -2.525,0 0,-2.2 2.525,0 0,2.2 z m 15.37,0 -12.965,0 0,-2.2 12.965,0 0,2.2 z m 1.075,-5.14 0.315,-2.135 q 0.99,-0.135 1.44,-0.745 0.61,-0.82 0.61,-2.235 0,-1.525 -0.61,-2.355 -0.61,-0.83 -1.705,-1.125 -0.675,-0.17 -2.82,-0.155 1.695,1.44 1.695,3.585 0,2.675 -1.93,4.14 -1.93,1.465 -4.625,1.465 -1.855,0 -3.425,-0.67 -1.57,-0.67 -2.425,-1.95 -0.85,-1.275 -0.85,-2.995 0,-2.295 1.855,-3.785 l -1.565,0 0,-2.025 11.205,0 q 3.03,0 4.295,0.615 1.26,0.62 1.995,1.955 0.73,1.335 0.73,3.29 0,2.32 -1.045,3.745 -1.04,1.43 -3.14,1.38 z m -7.79,-1.82 q 2.55,0 3.725,-1.01 1.17,-1.015 1.17,-2.54 0,-1.515 -1.165,-2.54 -1.165,-1.025 -3.655,-1.025 -2.38,0 -3.59,1.055 -1.21,1.055 -1.21,2.545 0,1.465 1.19,2.49 1.19,1.025 3.535,1.025 z m 1.345,-11.63 -2.21,0 0,-6.75 2.21,0 0,6.75 z"
     id="path197"
     inkscape:connector-curvature="0"
     style="font-size:medium;font-family:sans-serif;fill:#b20000;stroke:none;stroke-width:0.02" />
  <path
     d="m 295.5131,101.185 c -12.325,47.785 -13.705,128.19 -4.145,183.295"
     id="path201"
     inkscape:connector-curvature="0"
     style="font-size:medium;font-family:sans-serif;fill:none;stroke-width:1" />
  <path
     d="m 295.0331,283.705 -7.335,1.555 7.815,18.785 z"
     id="path203"
     inkscape:connector-curvature="0"
     style="font-size:medium;font-family:sans-serif;stroke:none;stroke-width:0.02" />
  <path
     d="m 265.8166,180.415 0.34,2.175 q -1.305,0.185 -2,1.02 -0.695,0.835 -0.695,2.335 0,1.515 0.615,2.25 0.615,0.73 1.445,0.73 0.745,0 1.175,-0.645 0.29,-0.455 0.745,-2.25 0.61,-2.415 1.055,-3.35 0.445,-0.93 1.23,-1.415 0.79,-0.48 1.74,-0.48 0.87,0 1.605,0.395 0.74,0.395 1.23,1.08 0.375,0.515 0.64,1.4 0.26,0.885 0.26,1.895 0,1.525 -0.435,2.68 -0.44,1.155 -1.19,1.705 -0.755,0.55 -2.01,0.755 l -0.295,-2.15 q 1.005,-0.145 1.565,-0.845 0.56,-0.705 0.56,-1.985 0,-1.515 -0.5,-2.16 -0.5,-0.65 -1.17,-0.65 -0.43,0 -0.77,0.27 -0.355,0.27 -0.585,0.845 -0.125,0.33 -0.565,1.94 -0.62,2.33 -1.02,3.25 -0.395,0.925 -1.15,1.45 -0.76,0.525 -1.88,0.525 -1.1,0 -2.07,-0.64 -0.97,-0.645 -1.5,-1.85 -0.535,-1.21 -0.535,-2.735 0,-2.53 1.05,-3.855 1.05,-1.32 3.115,-1.69 z m 11.5,13.395 2.525,0 0,2.195 -2.525,0 0,-2.195 z m -15.37,0 12.965,0 0,2.195 -12.965,0 0,-2.195 z m -1.075,5.135 -0.315,2.14 q -0.99,0.135 -1.44,0.745 -0.61,0.815 -0.61,2.23 0,1.53 0.61,2.36 0.61,0.83 1.705,1.12 0.675,0.17 2.82,0.16 -1.695,-1.44 -1.695,-3.59 0,-2.675 1.93,-4.14 1.93,-1.465 4.625,-1.465 1.855,0 3.425,0.675 1.57,0.67 2.425,1.945 0.85,1.275 0.85,3 0,2.295 -1.855,3.78 l 1.565,0 0,2.03 -11.205,0 q -3.03,0 -4.295,-0.62 -1.26,-0.615 -1.995,-1.95 -0.73,-1.34 -0.73,-3.29 0,-2.32 1.045,-3.75 1.04,-1.425 3.14,-1.38 z m 7.79,1.82 q -2.55,0 -3.725,1.015 -1.17,1.015 -1.17,2.54 0,1.51 1.165,2.535 1.165,1.025 3.655,1.025 2.38,0 3.59,-1.055 1.21,-1.055 1.21,-2.545 0,-1.465 -1.19,-2.49 -1.19,-1.025 -3.535,-1.025 z m -3.82,17.105 4.905,0 0,-4.875 2.05,0 0,4.875 4.87,0 0,2.075 -4.87,0 0,4.87 -2.05,0 0,-4.87 -4.905,0 0,-2.075 z"
     id="path207"
     inkscape:connector-curvature="0"
     style="font-size:medium;font-family:sans-serif;fill:#b20000;stroke:none;stroke-width:0.02" />
  <path
     d="m 795.6931,101.245 c -11.645,47.655 -11.195,127.665 -2.595,182.735"
     id="path211"
     inkscape:connector-curvature="0"
     style="font-size:medium;font-family:sans-serif;fill:none;stroke-width:1" />
  <path
     d="m 796.7831,283.295 -7.375,1.375 7.355,18.97 z"
     id="path213"
     inkscape:connector-curvature="0"
     style="font-size:medium;font-family:sans-serif;stroke:none;stroke-width:0.02" />
  <path
     d="m 767.28451,180.63777 0.36494,2.17095 q -1.30279,0.19996 -1.98816,1.04289 -0.68537,0.84292 -0.66816,2.34282 0.0174,1.5149 0.64078,2.24279 0.62334,0.72289 1.45328,0.71337 0.74495,-0.009 1.16752,-0.65844 0.28476,-0.4583 0.71913,-2.2584 0.58225,-2.42184 1.01649,-3.36189 0.4343,-0.93504 1.21368,-1.42902 0.78444,-0.48904 1.73438,-0.49994 0.86994,-0.01 1.60942,0.37656 0.74449,0.38648 1.24232,1.06581 0.38088,0.51066 0.65602,1.39256 0.27014,0.88196 0.28173,1.89189 0.0175,1.5249 -0.40422,2.68482 -0.42671,1.15997 -1.17035,1.71854 -0.74864,0.55863 -2.0012,0.77802 l -0.31966,-2.14647 q 1.00327,-0.15653 1.5552,-0.86291 0.55187,-0.71138 0.53718,-1.99129 -0.0174,-1.5149 -0.52475,-2.15412 -0.50743,-0.64422 -1.17738,-0.63653 -0.42997,0.005 -0.76685,0.27882 -0.35188,0.27405 -0.57527,0.85165 -0.1212,0.33142 -0.5427,1.94636 -0.59322,2.33696 -0.98263,3.26149 -0.38436,0.92947 -1.13329,1.4631 -0.75392,0.53369 -1.87385,0.54654 -1.09992,0.0126 -2.07721,-0.6162 -0.97733,-0.63382 -1.52113,-1.83266 -0.54885,-1.20378 -0.56635,-2.72868 -0.029,-2.52984 1.00569,-3.8668 1.03478,-1.33196 3.0954,-1.72563 z m 11.65296,13.26214 2.52484,-0.029 0.0252,2.19486 -2.52484,0.029 -0.0252,-2.19485 z m -15.36898,0.17638 12.96414,-0.14878 0.0252,2.19485 -12.96414,0.14879 -0.0252,-2.19486 z m -1.016,5.147 -0.29042,2.14348 q -0.98839,0.14635 -1.43136,0.76147 -0.6006,0.82195 -0.58437,2.23686 0.0176,1.52989 0.63705,2.35284 0.61948,0.82294 1.71774,1.10036 0.6769,0.16224 2.82165,0.12763 -1.71142,-1.42046 -1.73609,-3.57032 -0.0307,-2.67482 1.88236,-4.16187 1.91306,-1.48705 4.60789,-1.51798 1.85487,-0.0213 3.43252,0.63565 1.57758,0.65194 2.44716,1.91704 0.86457,1.26516 0.88437,2.99005 0.0263,2.29485 -1.8115,3.80104 l 1.5649,-0.018 0.0233,2.02986 -11.20426,0.12859 q -3.0298,0.0348 -4.30183,-0.57067 -1.26697,-0.6005 -2.01725,-1.92697 -0.74532,-1.33154 -0.7677,-3.28141 -0.0266,-2.31985 1.00189,-3.76174 1.02358,-1.43685 3.12396,-1.41595 z m 7.81037,1.73048 q -2.54983,0.0293 -3.7131,1.05768 -1.15828,1.02836 -1.14078,2.55326 0.0173,1.5099 1.19402,2.52147 1.17668,1.01156 3.66652,0.98298 2.37984,-0.0273 3.57765,-1.09612 1.19782,-1.06882 1.18072,-2.55872 -0.0168,-1.46491 -1.2185,-2.47618 -1.20168,-1.01128 -3.54653,-0.98437 z m -3.62345,17.14771 4.90468,-0.0563 -0.056,-4.87467 2.04987,-0.0235 0.0559,4.87468 4.86968,-0.0559 0.0238,2.07486 -4.86968,0.0559 0.0559,4.86968 -2.04986,0.0235 -0.0559,-4.86967 -4.90468,0.0563 -0.0238,-2.07487 z"
     id="path217"
     inkscape:connector-curvature="0"
     style="font-size:medium;font-family:sans-serif;fill:#b20000;stroke:none;stroke-width:0.02" />
  <path
     d="m 45.5131,101.185 c -12.325,47.785 -13.705,128.19 -4.145,183.295"
     id="path221"
     inkscape:connector-curvature="0"
     style="font-size:medium;font-family:sans-serif;fill:none;stroke-width:1" />
  <path
     d="m 45.0331,283.705 -7.335,1.555 7.815,18.785 z"
     id="path223"
     inkscape:connector-curvature="0"
     style="font-size:medium;font-family:sans-serif;stroke:none;stroke-width:0.02" />
  <path
     d="m 15.8166,180.415 0.34,2.175 q -1.305,0.185 -2,1.02 -0.695,0.835 -0.695,2.335 0,1.515 0.615,2.25 0.615,0.73 1.445,0.73 0.745,0 1.175,-0.645 0.29,-0.455 0.745,-2.25 0.61,-2.415 1.055,-3.35 0.445,-0.93 1.23,-1.415 0.79,-0.48 1.74,-0.48 0.87,0 1.605,0.395 0.74,0.395 1.23,1.08 0.375,0.515 0.64,1.4 0.26,0.885 0.26,1.895 0,1.525 -0.435,2.68 -0.44,1.155 -1.19,1.705 -0.755,0.55 -2.01,0.755 l -0.295,-2.15 q 1.005,-0.145 1.565,-0.845 0.56,-0.705 0.56,-1.985 0,-1.515 -0.5,-2.16 -0.5,-0.65 -1.17,-0.65 -0.43,0 -0.77,0.27 -0.355,0.27 -0.585,0.845 -0.125,0.33 -0.565,1.94 -0.62,2.33 -1.02,3.25 -0.395,0.925 -1.15,1.45 -0.76,0.525 -1.88,0.525 -1.1,0 -2.07,-0.64 -0.97,-0.645 -1.5,-1.85 -0.535,-1.21 -0.535,-2.735 0,-2.53 1.05,-3.855 1.05,-1.32 3.115,-1.69 z m 11.5,13.395 2.525,0 0,2.195 -2.525,0 0,-2.195 z m -15.37,0 12.965,0 0,2.195 -12.965,0 0,-2.195 z m -1.075,5.135 -0.315,2.14 q -0.99,0.135 -1.44,0.745 -0.61,0.815 -0.61,2.23 0,1.53 0.61,2.36 0.61,0.83 1.705,1.12 0.675,0.17 2.82,0.16 -1.695,-1.44 -1.695,-3.59 0,-2.675 1.93,-4.14 1.93,-1.465 4.625,-1.465 1.855,0 3.425,0.675 1.57,0.67 2.425,1.945 0.85,1.275 0.85,3 0,2.295 -1.855,3.78 l 1.565,0 0,2.03 -11.205,0 q -3.03,0 -4.295,-0.62 -1.26,-0.615 -1.995,-1.95 -0.73,-1.34 -0.73,-3.29 0,-2.32 1.045,-3.75 1.04,-1.425 3.14,-1.38 z m 7.79,1.82 q -2.55,0 -3.725,1.015 -1.17,1.015 -1.17,2.54 0,1.51 1.165,2.535 1.165,1.025 3.655,1.025 2.38,0 3.59,-1.055 1.21,-1.055 1.21,-2.545 0,-1.465 -1.19,-2.49 -1.19,-1.025 -3.535,-1.025 z m -3.82,17.105 4.905,0 0,-4.875 2.05,0 0,4.875 4.87,0 0,2.075 -4.87,0 0,4.87 -2.05,0 0,-4.87 -4.905,0 0,-2.075 z"
     id="path227"
     inkscape:connector-curvature="0"
     style="font-size:medium;font-family:sans-serif;fill:#b20000;stroke:none;stroke-width:0.02" />
  <path
     d="m 227.8681,102.595 c -2.895,52.91 -8.36,144.085 40.27,197.97"
     id="path231"
     inkscape:connector-curvature="0"
     style="font-size:medium;font-family:sans-serif;fill:none;stroke-width:1" />
  <path
     d="m 270.7031,297.83 -5.13,5.47 17.16,10.94 z"
     id="path233"
     inkscape:connector-curvature="0"
     style="font-size:medium;font-family:sans-serif;stroke:none;stroke-width:0.02" />
  <path
     d="m 206.96195,182.97861 0.60715,2.11604 q -1.27198,0.34543 -1.85804,1.26019 -0.58607,0.91475 -0.40002,2.40317 0.18791,1.5033 0.88933,2.15634 0.70079,0.64809 1.52439,0.54514 0.73924,-0.0924 1.08592,-0.78576 0.23133,-0.48746 0.46017,-2.32503 0.30575,-2.47201 0.63134,-3.45499 0.32621,-0.97801 1.04499,-1.55663 0.72437,-0.57428 1.66703,-0.69212 0.86328,-0.10791 1.6416,0.19288 0.78328,0.30016 1.35446,0.9191 0.43598,0.46451 0.8087,1.3098 0.36777,0.84592 0.49304,1.84812 0.18915,1.51323 -0.0992,2.71326 -0.29334,1.20066 -0.96933,1.83944 -0.68095,0.6394 -1.90083,0.99847 l -0.5594,-2.0968 q 0.97926,-0.26854 1.44811,-1.03259 0.46823,-0.76902 0.30947,-2.03913 -0.18792,-1.5033 -0.76406,-2.08131 -0.57676,-0.58296 -1.24158,-0.49986 -0.42668,0.0533 -0.73057,0.36342 -0.31877,0.31195 -0.47567,0.91104 -0.0831,0.34296 -0.32001,1.9951 -0.32622,2.38891 -0.60902,3.35142 -0.27722,0.96685 -0.96127,1.58144 -0.68901,0.61521 -1.80036,0.75413 -1.09151,0.13644 -2.1334,-0.37831 -1.04251,-0.51971 -1.71788,-1.64966 -0.68095,-1.1343 -0.8701,-2.64752 -0.31381,-2.51047 0.56374,-3.95547 0.87817,-1.44004 2.88133,-2.06332 z m 13.07263,11.86518 2.5055,-0.31319 0.27226,2.17805 -2.50551,0.31319 -0.27225,-2.17805 z m -15.25131,1.9064 12.86488,-1.6081 0.27226,2.17805 -12.86489,1.6081 -0.27225,-2.17805 z m -0.42979,5.22868 -0.0471,2.16255 q -0.96561,0.25675 -1.33648,0.91785 -0.5042,0.88437 -0.32869,2.28844 0.18977,1.51819 0.89801,2.26612 0.70824,0.74793 1.83075,0.89987 0.69087,0.085 2.81807,-0.19101 -1.86052,-1.21864 -2.12719,-3.35204 -0.33179,-2.65434 1.40159,-4.34742 1.73339,-1.69307 4.40758,-2.02734 1.84068,-0.23008 3.48227,0.24497 1.64098,0.47009 2.64752,1.6292 1.00158,1.15973 1.21554,2.8714 0.28466,2.27728 -1.37182,3.9809 l 1.55291,-0.19411 0.25179,2.01432 -11.11848,1.3898 q -3.0066,0.37582 -4.33873,-0.0825 -1.32655,-0.45396 -2.22146,-1.68749 -0.89057,-1.23911 -1.13244,-3.17405 -0.28775,-2.30208 0.57181,-3.85066 0.85522,-1.54299 2.94458,-1.75881 z m 7.95559,0.83972 q -2.53031,0.31629 -3.57034,1.46919 -1.03507,1.15228 -0.84592,2.66551 0.18729,1.49834 1.47043,2.37092 1.28314,0.87259 3.75391,0.56374 2.36162,-0.2952 3.43142,-1.49213 1.0698,-1.19694 0.88499,-2.67543 -0.18171,-1.45369 -1.48965,-2.32317 -1.30795,-0.86949 -3.63484,-0.57863 z m -1.6689,17.44673 4.86712,-0.60839 -0.60466,-4.83735 2.03417,-0.25427 0.60466,4.83735 4.8324,-0.60404 0.25737,2.05897 -4.8324,0.60405 0.60405,4.83239 -2.03417,0.25427 -0.60405,-4.83239 -4.86712,0.60838 -0.25737,-2.05897 z"
     id="path237"
     inkscape:connector-curvature="0"
     style="font-size:medium;font-family:sans-serif;fill:#b20000;stroke:none;stroke-width:0.02" />
  <path
     d="m 62.1931,304.045 c 12.325,-47.785 13.705,-128.19 4.145,-183.295"
     id="path241"
     inkscape:connector-curvature="0"
     style="font-size:medium;font-family:sans-serif;fill:none;stroke-width:1" />
  <path
     d="m 62.6731,121.525 7.335,-1.555 -7.815,-18.785 z"
     id="path243"
     inkscape:connector-curvature="0"
     style="font-size:medium;font-family:sans-serif;stroke:none;stroke-width:0.02" />
  <path
     d="m 91.8897,221.98 -0.34,-2.17 q 1.305,-0.185 2,-1.02 0.695,-0.835 0.695,-2.34 0,-1.51 -0.615,-2.245 -0.615,-0.73 -1.445,-0.73 -0.745,0 -1.175,0.645 -0.29,0.45 -0.745,2.245 -0.61,2.42 -1.055,3.35 -0.445,0.935 -1.23,1.42 -0.79,0.48 -1.74,0.48 -0.87,0 -1.605,-0.395 -0.74,-0.4 -1.23,-1.08 -0.375,-0.515 -0.64,-1.4 -0.26,-0.885 -0.26,-1.9 0,-1.525 0.435,-2.68 0.44,-1.15 1.19,-1.7 0.755,-0.55 2.01,-0.755 l 0.295,2.145 q -1.005,0.15 -1.565,0.85 -0.56,0.7 -0.56,1.985 0,1.51 0.5,2.16 0.5,0.645 1.17,0.645 0.43,0 0.77,-0.27 0.355,-0.265 0.585,-0.84 0.125,-0.33 0.565,-1.94 0.62,-2.335 1.02,-3.255 0.395,-0.92 1.15,-1.445 0.76,-0.525 1.88,-0.525 1.1,0 2.07,0.64 0.97,0.64 1.5,1.85 0.535,1.21 0.535,2.735 0,2.525 -1.05,3.85 -1.05,1.325 -3.115,1.69 z m -11.5,-13.39 -2.525,0 0,-2.2 2.525,0 0,2.2 z m 15.37,0 -12.965,0 0,-2.2 12.965,0 0,2.2 z m 1.075,-5.14 0.315,-2.135 q 0.99,-0.135 1.44,-0.745 0.61,-0.82 0.61,-2.235 0,-1.525 -0.61,-2.355 -0.61,-0.83 -1.705,-1.125 -0.675,-0.17 -2.82,-0.155 1.695,1.44 1.695,3.585 0,2.675 -1.93,4.14 -1.93,1.465 -4.625,1.465 -1.855,0 -3.425,-0.67 -1.57,-0.67 -2.425,-1.95 -0.85,-1.275 -0.85,-2.995 0,-2.295 1.855,-3.785 l -1.565,0 0,-2.025 11.205,0 q 3.03,0 4.295,0.615 1.26,0.62 1.995,1.955 0.73,1.335 0.73,3.29 0,2.32 -1.045,3.745 -1.04,1.43 -3.14,1.38 z m -7.79,-1.82 q 2.55,0 3.725,-1.01 1.17,-1.015 1.17,-2.54 0,-1.515 -1.165,-2.54 -1.165,-1.025 -3.655,-1.025 -2.38,0 -3.59,1.055 -1.21,1.055 -1.21,2.545 0,1.465 1.19,2.49 1.19,1.025 3.535,1.025 z m 1.345,-11.63 -2.21,0 0,-6.75 2.21,0 0,6.75 z"
     id="path247"
     inkscape:connector-curvature="0"
     style="font-size:medium;font-family:sans-serif;fill:#b20000;stroke:none;stroke-width:0.02" />
  <path
     d="m 812.1931,304.045 c 12.325,-47.785 13.705,-128.19 4.145,-183.295"
     id="path251"
     inkscape:connector-curvature="0"
     style="font-size:medium;font-family:sans-serif;fill:none;stroke-width:1" />
  <path
     d="m 812.6731,121.525 7.335,-1.555 -7.815,-18.785 z"
     id="path253"
     inkscape:connector-curvature="0"
     style="font-size:medium;font-family:sans-serif;stroke:none;stroke-width:0.02" />
  <path
     d="m 841.8897,221.98 -0.34,-2.17 q 1.305,-0.185 2,-1.02 0.695,-0.835 0.695,-2.34 0,-1.51 -0.615,-2.245 -0.615,-0.73 -1.445,-0.73 -0.745,0 -1.175,0.645 -0.29,0.45 -0.745,2.245 -0.61,2.42 -1.055,3.35 -0.445,0.935 -1.23,1.42 -0.79,0.48 -1.74,0.48 -0.87,0 -1.605,-0.395 -0.74,-0.4 -1.23,-1.08 -0.375,-0.515 -0.64,-1.4 -0.26,-0.885 -0.26,-1.9 0,-1.525 0.435,-2.68 0.44,-1.15 1.19,-1.7 0.755,-0.55 2.01,-0.755 l 0.295,2.145 q -1.005,0.15 -1.565,0.85 -0.56,0.7 -0.56,1.985 0,1.51 0.5,2.16 0.5,0.645 1.17,0.645 0.43,0 0.77,-0.27 0.355,-0.265 0.585,-0.84 0.125,-0.33 0.565,-1.94 0.62,-2.335 1.02,-3.255 0.395,-0.92 1.15,-1.445 0.76,-0.525 1.88,-0.525 1.1,0 2.07,0.64 0.97,0.64 1.5,1.85 0.535,1.21 0.535,2.735 0,2.525 -1.05,3.85 -1.05,1.325 -3.115,1.69 z m -11.5,-13.39 -2.525,0 0,-2.2 2.525,0 0,2.2 z m 15.37,0 -12.965,0 0,-2.2 12.965,0 0,2.2 z m 1.075,-5.14 0.315,-2.135 q 0.99,-0.135 1.44,-0.745 0.61,-0.82 0.61,-2.235 0,-1.525 -0.61,-2.355 -0.61,-0.83 -1.705,-1.125 -0.675,-0.17 -2.82,-0.155 1.695,1.44 1.695,3.585 0,2.675 -1.93,4.14 -1.93,1.465 -4.625,1.465 -1.855,0 -3.425,-0.67 -1.57,-0.67 -2.425,-1.95 -0.85,-1.275 -0.85,-2.995 0,-2.295 1.855,-3.785 l -1.565,0 0,-2.025 11.205,0 q 3.03,0 4.295,0.615 1.26,0.62 1.995,1.955 0.73,1.335 0.73,3.29 0,2.32 -1.045,3.745 -1.04,1.43 -3.14,1.38 z m -7.79,-1.82 q 2.55,0 3.725,-1.01 1.17,-1.015 1.17,-2.54 0,-1.515 -1.165,-2.54 -1.165,-1.025 -3.655,-1.025 -2.38,0 -3.59,1.055 -1.21,1.055 -1.21,2.545 0,1.465 1.19,2.49 1.19,1.025 3.535,1.025 z m 1.345,-11.63 -2.21,0 0,-6.75 2.21,0 0,6.75 z"
     id="path257"
     inkscape:connector-curvature="0"
     style="font-size:medium;font-family:sans-serif;fill:#b20000;stroke:none;stroke-width:0.02" />
  <text
     xml:space="preserve"
     style="font-style:normal;font-variant:normal;font-weight:normal;font-stretch:normal;font-size:20px;line-height:125%;font-family:sans-serif;-inkscape-font-specification:'sans-serif, Normal';text-align:start;letter-spacing:0px;word-spacing:0px;writing-mode:lr-tb;text-anchor:start;fill:#000000;fill-opacity:1;stroke:none;stroke-width:1px;stroke-linecap:butt;stroke-linejoin:miter;stroke-opacity:1"
     x="347.59286"
     y="97.318573"
     id="text4593"
     sodipodi:linespacing="125%"><tspan
       sodipodi:role="line"
       id="tspan4595"
       x="347.59286"
       y="97.318573">optional output</tspan></text>
</svg>
