<?xml version="1.0" encoding="UTF-8" standalone="no"?>
<svg xmlns:dc="http://purl.org/dc/elements/1.1/" xmlns:cc="http://creativecommons.org/ns#" xmlns:rdf="http://www.w3.org/1999/02/22-rdf-syntax-ns#" xmlns:svg="http://www.w3.org/2000/svg" xmlns="http://www.w3.org/2000/svg" xmlns:sodipodi="http://sodipodi.sourceforge.net/DTD/sodipodi-0.dtd" xmlns:inkscape="http://www.inkscape.org/namespaces/inkscape" font-size="12px" font-style="normal" font-weight="normal" height="100%" stroke-miterlimit="10" width="100%" id="svg2" version="1.1" inkscape:version="0.91 r13725" sodipodi:docname="WAIT2.stg.svg" style="font-style:normal;font-weight:normal;font-size:12px;font-family:Dialog;color-interpolation:auto;fill:#000000;fill-opacity:1;stroke:#000000;stroke-width:1;stroke-linecap:square;stroke-linejoin:miter;stroke-miterlimit:10;stroke-dasharray:none;stroke-dashoffset:0;stroke-opacity:1;color-rendering:auto;image-rendering:auto;shape-rendering:auto;text-rendering:auto" viewBox="0 0 434 401" preserveAspectRatio="xMidYMid slice">
  <metadata
     id="metadata135">
    <rdf:RDF>
      <cc:Work
         rdf:about="">
        <dc:format>image/svg+xml</dc:format>
        <dc:type
           rdf:resource="http://purl.org/dc/dcmitype/StillImage" />
        <dc:title></dc:title>
      </cc:Work>
    </rdf:RDF>
  </metadata>
  <sodipodi:namedview
     pagecolor="#ffffff"
     bordercolor="#666666"
     borderopacity="1"
     objecttolerance="10"
     gridtolerance="10"
     guidetolerance="10"
     inkscape:pageopacity="0"
     inkscape:pageshadow="2"
     inkscape:window-width="1920"
     inkscape:window-height="1176"
     id="namedview133"
     showgrid="true"
     fit-margin-top="0"
     fit-margin-left="0"
     fit-margin-right="0"
     fit-margin-bottom="0"
     inkscape:zoom="0.96723585"
     inkscape:cx="-80.338426"
     inkscape:cy="150.31693"
     inkscape:window-x="0"
     inkscape:window-y="24"
     inkscape:window-maximized="1"
     inkscape:current-layer="svg2"
     inkscape:object-nodes="true">
    <inkscape:grid
       type="xygrid"
       id="grid12880"
       originx="0"
       originy="30.499996" />
  </sodipodi:namedview>
  <!--Generated by the Batik Graphics2D SVG Generator-->
  <defs
     id="genericDefs">
    <inkscape:path-effect
       effect="spiro"
       id="path-effect8077"
       is_visible="true" />
    <inkscape:path-effect
       effect="spiro"
       id="path-effect8077-7"
       is_visible="true" />
  </defs>
  <g
     style="font-size:0.75px;font-family:sans-serif;fill:#0000b2;stroke:#0000b2"
     id="g7"
     transform="matrix(50,0,0,50,395.8505,297.47501)"
     font-size="0.75px">
    <path
       style="stroke:none"
       inkscape:connector-curvature="0"
       id="path9"
       d="m -0.468,-0.2473 0,0.0637 q -0.0286,-0.0147 -0.0593,-0.022 -0.0308,-0.0073 -0.0638,-0.0073 -0.0501,0 -0.0752,0.0154 -0.0251,0.0153 -0.0251,0.0461 0,0.0234 0.0179,0.0368 0.018,0.0134 0.0722,0.0255 l 0.023,0.0051 q 0.0718,0.0154 0.102,0.0434 0.0302,0.028 0.0302,0.0782 0,0.0571 -0.0452,0.0904 -0.0452,0.0334 -0.1243,0.0334 -0.033,0 -0.0687,-0.0065 Q -0.72,0.1485 -0.7595,0.1357 l 0,-0.0696 q 0.0373,0.0194 0.0736,0.0292 0.0362,0.0097 0.0718,0.0097 0.0476,0 0.0732,-0.0163 0.0256,-0.0163 0.0256,-0.046 0,-0.0275 -0.0185,-0.0421 -0.0185,-0.0147 -0.0811,-0.0282 l -0.0234,-0.0055 q -0.0626,-0.0132 -0.0905,-0.0405 -0.0278,-0.0273 -0.0278,-0.0749 0,-0.0578 0.041,-0.0893 0.041,-0.0315 0.1165,-0.0315 0.0373,0 0.0703,0.0055 0.033,0.0055 0.0608,0.0165 z m 0.3156,0.1919 q -0.0816,0 -0.1131,0.0186 -0.0315,0.0187 -0.0315,0.0638 0,0.0358 0.0236,0.0569 0.0236,0.0211 0.0643,0.0211 0.056,0 0.0899,-0.0398 0.0339,-0.0397 0.0339,-0.1056 l 0,-0.015 -0.0671,0 z m 0.1345,-0.0279 0,0.234 -0.0674,0 0,-0.0622 q -0.0231,0.0373 -0.0575,0.0551 -0.0345,0.0178 -0.0843,0.0178 -0.0629,0 -0.1001,-0.0354 -0.0372,-0.0353 -0.0372,-0.0947 0,-0.0692 0.0463,-0.1043 0.0464,-0.0352 0.1383,-0.0352 l 0.0945,0 0,-0.0066 q 0,-0.0465 -0.0306,-0.0719 -0.0306,-0.0255 -0.0859,-0.0255 -0.0351,0 -0.0685,0.0084 -0.0333,0.0085 -0.0641,0.0253 l 0,-0.0622 q 0.037,-0.0143 0.0718,-0.0215 0.0348,-0.0071 0.0678,-0.0071 0.089,0 0.1329,0.0461 0.044,0.0462 0.044,0.1399 z m 0.4797,-0.0135 0,0.2475 -0.0674,0 0,-0.2453 q 0,-0.0583 -0.0227,-0.0872 -0.0227,-0.0289 -0.0681,-0.0289 -0.0546,0 -0.0861,0.0348 -0.0315,0.0348 -0.0315,0.0948 l 0,0.2318 -0.0677,0 0,-0.4101 0.0677,0 0,0.0637 q 0.0242,-0.037 0.057,-0.0553 0.0328,-0.0183 0.0756,-0.0183 0.0707,0 0.1069,0.0438 0.0363,0.0437 0.0363,0.1287 z m 0.1003,0.0121 0.1974,0 0,0.06 -0.1974,0 0,-0.06 z" />
  </g>
  <g
     style="font-size:0.75px;font-family:sans-serif;fill:#b20000;stroke:#b20000"
     id="g11"
     transform="matrix(50,0,0,50,220.85,297.47501)"
     font-size="0.75px">
    <path
       style="stroke:none"
       inkscape:connector-curvature="0"
       id="path13"
       d="m -0.5002,-0.144 0,0.0637 q -0.0286,-0.0147 -0.0594,-0.022 -0.0307,-0.0073 -0.0637,-0.0073 -0.0502,0 -0.0753,0.0154 -0.025,0.0153 -0.025,0.0461 0,0.0235 0.0179,0.0368 0.018,0.0134 0.0722,0.0255 l 0.023,0.0051 q 0.0718,0.0154 0.102,0.0434 0.0302,0.028 0.0302,0.0782 0,0.0571 -0.0452,0.0904 -0.0452,0.0334 -0.1243,0.0334 -0.033,0 -0.0687,-0.0064 Q -0.7522,0.2518 -0.7917,0.239 l 0,-0.0696 q 0.0373,0.0195 0.0736,0.0292 0.0362,0.0097 0.0717,0.0097 0.0476,0 0.0733,-0.0163 0.0256,-0.0163 0.0256,-0.046 0,-0.0275 -0.0185,-0.0421 Q -0.5845,0.0892 -0.6471,0.0757 L -0.6705,0.0702 Q -0.7332,0.057 -0.761,0.0297 -0.7888,0.0024 -0.7888,-0.0451 q 0,-0.0579 0.041,-0.0894 0.041,-0.0315 0.1164,-0.0315 0.0374,0 0.0704,0.0055 0.0329,0.0055 0.0608,0.0165 z m 0.1292,-0.0121 0.0674,0 0,0.4101 -0.0674,0 0,-0.4101 z m 0,-0.1597 0.0674,0 0,0.0853 -0.0674,0 0,-0.0853 z m 0.4783,0.36 q 0,-0.0732 -0.0302,-0.1135 -0.0302,-0.0403 -0.0848,-0.0403 -0.0542,0 -0.0844,0.0403 -0.0302,0.0403 -0.0302,0.1135 0,0.0729 0.0302,0.1132 0.0302,0.0402 0.0844,0.0402 0.0546,0 0.0848,-0.0402 0.0302,-0.0403 0.0302,-0.1132 z m 0.0674,0.1589 q 0,0.1048 -0.0465,0.1559 -0.0465,0.051 -0.1425,0.051 -0.0355,0 -0.067,-0.0053 -0.0315,-0.0053 -0.0612,-0.0163 l 0,-0.0655 q 0.0297,0.0161 0.0586,0.0238 0.029,0.0077 0.059,0.0077 0.0663,0 0.0992,-0.0346 0.033,-0.0346 0.033,-0.1046 l 0,-0.0333 Q 0.0864,0.2181 0.0538,0.2361 0.0212,0.254 -0.0242,0.254 q -0.0754,0 -0.1216,-0.0575 -0.0461,-0.0574 -0.0461,-0.1523 0,-0.0952 0.0461,-0.1527 0.0462,-0.0575 0.1216,-0.0575 0.0454,0 0.078,0.0179 0.0326,0.018 0.0535,0.0542 l 0,-0.0622 0.0674,0 0,0.3592 z m 0.4131,-0.4193 0,0.204 0.2039,0 0,0.0623 -0.2039,0 0,0.2039 -0.0616,0 0,-0.2039 -0.2039,0 0,-0.0623 0.2039,0 0,-0.204 0.0616,0 z" />
  </g>
  <g
     style="font-size:0.75px;font-family:sans-serif;fill:#0000b2;stroke:#0000b2"
     id="g15"
     transform="matrix(50,0,0,50,45.85,97.475006)"
     font-size="0.75px">
    <path
       style="stroke:none"
       inkscape:connector-curvature="0"
       id="path17"
       d="m -0.6255,-0.2298 0,0.0638 q -0.0286,-0.0147 -0.0593,-0.022 -0.0308,-0.0073 -0.0637,-0.0073 -0.0502,0 -0.0753,0.0153 -0.0251,0.0154 -0.0251,0.0462 0,0.0234 0.018,0.0368 0.0179,0.0133 0.0721,0.0254 l 0.0231,0.0052 q 0.0718,0.0153 0.102,0.0434 0.0302,0.028 0.0302,0.0781 0,0.0572 -0.0452,0.0905 -0.0453,0.0333 -0.1244,0.0333 -0.0329,0 -0.0686,-0.0064 Q -0.8774,0.1661 -0.917,0.1533 l 0,-0.0696 q 0.0374,0.0194 0.0736,0.0291 0.0363,0.0097 0.0718,0.0097 0.0476,0 0.0732,-0.0163 0.0257,-0.0163 0.0257,-0.0459 0,-0.0275 -0.0185,-0.0422 Q -0.7097,0.0035 -0.7723,-0.01 l -0.0235,-0.0055 q -0.0626,-0.0132 -0.0904,-0.0405 -0.0279,-0.0273 -0.0279,-0.0749 0,-0.0579 0.041,-0.0894 0.0411,-0.0315 0.1165,-0.0315 0.0374,0 0.0703,0.0055 0.033,0.0055 0.0608,0.0165 z m 0.3157,0.1919 q -0.0817,0 -0.1132,0.0187 -0.0315,0.0187 -0.0315,0.0637 0,0.0359 0.0236,0.057 0.0237,0.021 0.0643,0.021 0.056,0 0.0899,-0.0397 0.0339,-0.0398 0.0339,-0.1057 l 0,-0.015 -0.067,0 z m 0.1344,-0.0278 0,0.234 -0.0674,0 0,-0.0623 q -0.0231,0.0374 -0.0575,0.0552 -0.0344,0.0177 -0.0842,0.0177 -0.063,0 -0.1002,-0.0353 -0.0372,-0.0354 -0.0372,-0.0947 0,-0.0692 0.0464,-0.1044 0.0463,-0.0351 0.1382,-0.0351 l 0.0945,0 0,-0.0066 q 0,-0.0465 -0.0306,-0.072 -0.0306,-0.0254 -0.0859,-0.0254 -0.0351,0 -0.0684,0.0084 -0.0334,0.0084 -0.0641,0.0253 l 0,-0.0623 q 0.037,-0.0143 0.0718,-0.0214 0.0347,-0.0072 0.0677,-0.0072 0.089,0 0.1329,0.0462 0.044,0.0461 0.044,0.1399 z m 0.4797,-0.0136 0,0.2476 -0.0674,0 0,-0.2454 q 0,-0.0582 -0.0227,-0.0871 -0.0227,-0.029 -0.0681,-0.029 -0.0545,0 -0.086,0.0348 -0.0315,0.0348 -0.0315,0.0949 l 0,0.2318 -0.0678,0 0,-0.4102 0.0678,0 0,0.0638 q 0.0241,-0.037 0.0569,-0.0553 0.0328,-0.0184 0.0756,-0.0184 0.0707,0 0.107,0.0438 0.0362,0.0438 0.0362,0.1287 z m 0.4087,-0.2226 0,0.204 0.204,0 0,0.0622 -0.204,0 0,0.204 -0.0615,0 0,-0.204 -0.204,0 0,-0.0622 0.204,0 0,-0.204 0.0615,0 z" />
  </g>
  <g
     style="font-size:0.75px;font-family:sans-serif;fill:#b20000;stroke:#b20000"
     id="g19"
     transform="matrix(50,0,0,50,45.85,297.47501)"
     font-size="0.75px">
    <path
       style="stroke:none"
       inkscape:connector-curvature="0"
       id="path21"
       d="m -0.5409,-0.1912 0,0.0629 q -0.0286,-0.0157 -0.0573,-0.0236 -0.0288,-0.0079 -0.0581,-0.0079 -0.0655,0 -0.1018,0.0416 -0.0362,0.0416 -0.0362,0.1166 0,0.0751 0.0362,0.1167 0.0363,0.0415 0.1018,0.0415 0.0293,0 0.0581,-0.0078 0.0287,-0.0079 0.0573,-0.0236 l 0,0.0622 q -0.0282,0.0132 -0.0584,0.0198 -0.0302,0.0066 -0.0643,0.0066 -0.0926,0 -0.1472,-0.0582 -0.0546,-0.0583 -0.0546,-0.1572 0,-0.1003 0.0552,-0.1578 0.0551,-0.0575 0.151,-0.0575 0.0312,0 0.0608,0.0064 0.0297,0.0064 0.0575,0.0193 z m 0.1838,-0.1323 0,0.1165 0.1388,0 0,0.0524 -0.1388,0 0,0.2226 q 0,0.0502 0.0138,0.0645 0.0137,0.0143 0.0558,0.0143 l 0.0692,0 0,0.0564 -0.0692,0 q -0.078,0 -0.1076,-0.0292 -0.0297,-0.0291 -0.0297,-0.106 l 0,-0.2226 -0.0494,0 0,-0.0524 0.0494,0 0,-0.1165 0.0677,0 z M 0.108,-0.144 Q 0.0967,-0.1506 0.0833,-0.1537 0.07,-0.1568 0.0538,-0.1568 q -0.0571,0 -0.0877,0.0371 -0.0306,0.0372 -0.0306,0.1068 l 0,0.2161 -0.0677,0 0,-0.4102 0.0677,0 0,0.0637 q 0.0213,-0.0373 0.0553,-0.0555 0.0341,-0.0181 0.0828,-0.0181 0.007,0 0.0154,9e-4 0.0084,9e-4 0.0187,0.0028 l 3e-4,0.0692 z m 0.0707,-0.2227 0.0674,0 0,0.5699 -0.0674,0 0,-0.5699 z m 0.4827,0.0996 0,0.204 0.204,0 0,0.0623 -0.204,0 0,0.204 -0.0615,0 0,-0.204 -0.204,0 0,-0.0623 0.204,0 0,-0.204 0.0615,0 z" />
  </g>
  <g
     style="font-size:0.75px;font-family:sans-serif;fill:#b20000;stroke:#b20000"
     id="g23"
     transform="matrix(50,0,0,50,220.85,97.475006)"
     font-size="0.75px">
    <path
       style="stroke:none"
       inkscape:connector-curvature="0"
       id="path25"
       d="m -0.3428,-0.144 0,0.0637 q -0.0285,-0.0147 -0.0593,-0.022 -0.0308,-0.0073 -0.0637,-0.0073 -0.0502,0 -0.0753,0.0154 -0.0251,0.0153 -0.0251,0.0461 0,0.0235 0.018,0.0368 0.0179,0.0134 0.0721,0.0255 l 0.0231,0.0051 q 0.0718,0.0154 0.102,0.0434 0.0302,0.028 0.0302,0.0782 0,0.0571 -0.0452,0.0904 -0.0453,0.0334 -0.1244,0.0334 -0.0329,0 -0.0686,-0.0064 Q -0.5947,0.2518 -0.6343,0.239 l 0,-0.0696 q 0.0374,0.0195 0.0736,0.0292 0.0363,0.0097 0.0718,0.0097 0.0476,0 0.0732,-0.0163 Q -0.39,0.1757 -0.39,0.146 -0.39,0.1185 -0.4085,0.1039 -0.427,0.0892 -0.4896,0.0757 L -0.5131,0.0702 Q -0.5757,0.057 -0.6035,0.0297 -0.6314,0.0024 -0.6314,-0.0451 q 0,-0.0579 0.0411,-0.0894 0.041,-0.0315 0.1164,-0.0315 0.0374,0 0.0703,0.0055 0.033,0.0055 0.0608,0.0165 z m 0.1293,-0.0121 0.0674,0 0,0.4101 -0.0674,0 0,-0.4101 z m 0,-0.1597 0.0674,0 0,0.0853 -0.0674,0 0,-0.0853 z m 0.4783,0.36 q 0,-0.0732 -0.0302,-0.1135 -0.0303,-0.0403 -0.0848,-0.0403 -0.0542,0 -0.0844,0.0403 -0.0302,0.0403 -0.0302,0.1135 0,0.0729 0.0302,0.1132 0.0302,0.0402 0.0844,0.0402 0.0545,0 0.0848,-0.0402 0.0302,-0.0403 0.0302,-0.1132 z m 0.0673,0.1589 q 0,0.1048 -0.0465,0.1559 Q 0.2391,0.41 0.1432,0.41 0.1077,0.41 0.0762,0.4047 0.0447,0.3994 0.015,0.3884 l 0,-0.0655 q 0.0297,0.0161 0.0586,0.0238 0.0289,0.0077 0.059,0.0077 0.0662,0 0.0992,-0.0346 0.033,-0.0346 0.033,-0.1046 l 0,-0.0333 Q 0.2439,0.2181 0.2113,0.2361 0.1787,0.254 0.1333,0.254 0.0579,0.254 0.0117,0.1965 -0.0344,0.1391 -0.0344,0.0442 q 0,-0.0952 0.0461,-0.1527 0.0462,-0.0575 0.1216,-0.0575 0.0454,0 0.078,0.0179 0.0326,0.018 0.0535,0.0542 l 0,-0.0622 0.0673,0 0,0.3592 z m 0.1048,-0.1845 0.1974,0 0,0.06 -0.1974,0 0,-0.06 z" />
  </g>
  <g
     style="font-size:0.75px;font-family:sans-serif;fill:#ffffff;stroke:#ffffff"
     id="g27"
     transform="matrix(50,0,0,50,120.85,197.47501)"
     font-size="0.75px">
    <circle
       style="stroke:none"
       id="circle29"
       r="0.44999999"
       cy="0"
       cx="0" />
    <circle
       style="fill:none;stroke:#000000;stroke-width:0.1"
       id="circle31"
       r="0.44999999"
       cy="0"
       cx="0" />
  </g>
  <g
     style="font-style:italic;font-size:0.5px;font-family:sans-serif;fill:#666666;stroke:#666666;stroke-width:0.1"
     id="g33"
     transform="matrix(50,0,0,50,120.85,197.47501)"
     font-style="italic"
     font-size="0.5px">
    <path
       style="stroke:none"
       inkscape:connector-curvature="0"
       id="path35"
       d="M 0.9444,-0.096 0.9358,-0.0535 Q 0.918,-0.0633 0.8983,-0.0682 0.8785,-0.0731 0.8575,-0.0731 q -0.0354,0 -0.0558,0.0121 -0.0204,0.0121 -0.0204,0.0328 0,0.0242 0.0474,0.0372 0.0036,9e-4 0.0053,0.0014 l 0.0144,0.0044 q 0.045,0.0125 0.06,0.0261 0.015,0.0137 0.015,0.0374 0,0.0435 -0.0346,0.0708 Q 0.8543,0.1764 0.7984,0.1764 0.7767,0.1764 0.7527,0.1723 0.7288,0.1681 0.7,0.1593 L 0.7088,0.113 q 0.0247,0.0127 0.0486,0.0193 0.0239,0.0065 0.0459,0.0065 0.0329,0 0.0536,-0.0141 0.0206,-0.0142 0.0206,-0.0359 0,-0.0234 -0.0542,-0.0378 L 0.8187,0.0497 0.8033,0.0458 Q 0.7691,0.0368 0.7532,0.022 0.7374,0.0073 0.7374,-0.0157 q 0,-0.0437 0.0328,-0.0693 0.0328,-0.0257 0.0892,-0.0257 0.0222,0 0.0434,0.0037 0.0211,0.0037 0.0416,0.011 z m 0.102,-0.1145 0.045,0 -0.011,0.0569 -0.0449,0 0.0109,-0.0569 z m -0.0205,0.1064 0.045,0 -0.0535,0.2735 -0.0449,0 0.0534,-0.2735 z m 0.366,0 -0.0466,0.2395 Q 1.3318,0.205 1.2939,0.2392 1.2559,0.2734 1.1917,0.2734 1.168,0.2734 1.1478,0.2698 1.1275,0.2663 1.1099,0.259 L 1.1182,0.2153 q 0.0166,0.0107 0.0352,0.0158 0.0185,0.0052 0.0395,0.0052 0.0427,0 0.0702,-0.0234 0.0275,-0.0233 0.0363,-0.067 L 1.3033,0.1254 Q 1.2845,0.1469 1.2596,0.1581 1.2347,0.1694 1.2059,0.1694 1.1644,0.1694 1.1406,0.1419 1.1168,0.1144 1.1168,0.0663 q 0,-0.0378 0.0144,-0.0741 0.0144,-0.0362 0.0405,-0.0643 0.0173,-0.0186 0.0404,-0.0286 0.0231,-0.01 0.0482,-0.01 0.0276,0 0.0481,0.0129 0.0205,0.0128 0.0305,0.0362 l 0.0078,-0.0425 0.0452,0 z m -0.0676,0.1004 q 0,-0.0332 -0.0157,-0.0513 -0.0156,-0.0181 -0.0444,-0.0181 -0.0178,0 -0.0339,0.0071 -0.0161,0.0071 -0.0276,0.0198 -0.0186,0.021 -0.0289,0.0494 -0.0104,0.0285 -0.0104,0.0587 0,0.0337 0.0157,0.0518 0.0158,0.0181 0.0453,0.0181 0.0427,0 0.0713,-0.0387 0.0286,-0.0387 0.0286,-0.0968 z m 0.1194,0.1316 0.0805,0 0.0545,-0.2806 -0.0911,0.0176 0.0086,-0.0425 0.0905,-0.0175 0.0496,0 -0.063,0.323 0.0803,0 -0.0078,0.0415 -0.2102,0 0.0081,-0.0415 z" />
  </g>
  <g
     style="font-size:0.75px;font-family:sans-serif;fill:#b20000;stroke:#b20000;stroke-width:0.1"
     id="g37"
     transform="matrix(50,0,0,50,395.85,97.475006)"
     font-size="0.75px">
    <path
       style="stroke:none"
       inkscape:connector-curvature="0"
       id="path39"
       d="m -0.3834,-0.1912 0,0.0629 q -0.0286,-0.0157 -0.0573,-0.0236 -0.0288,-0.0079 -0.0581,-0.0079 -0.0655,0 -0.1018,0.0416 -0.0362,0.0416 -0.0362,0.1166 0,0.0751 0.0362,0.1167 0.0363,0.0415 0.1018,0.0415 0.0293,0 0.0581,-0.0078 0.0287,-0.0079 0.0573,-0.0236 l 0,0.0622 q -0.0282,0.0132 -0.0584,0.0198 -0.0302,0.0066 -0.0643,0.0066 -0.0927,0 -0.1472,-0.0582 -0.0546,-0.0583 -0.0546,-0.1572 0,-0.1003 0.0551,-0.1578 0.0551,-0.0575 0.1511,-0.0575 0.0311,0 0.0608,0.0064 0.0296,0.0064 0.0575,0.0193 z m 0.1838,-0.1323 0,0.1165 0.1388,0 0,0.0524 -0.1388,0 0,0.2226 q 0,0.0502 0.0137,0.0645 0.0138,0.0143 0.0559,0.0143 l 0.0692,0 0,0.0564 -0.0692,0 q -0.078,0 -0.1077,-0.0292 -0.0296,-0.0291 -0.0296,-0.106 l 0,-0.2226 -0.0495,0 0,-0.0524 0.0495,0 0,-0.1165 0.0677,0 z M 0.2655,-0.144 Q 0.2542,-0.1506 0.2408,-0.1537 0.2274,-0.1568 0.2113,-0.1568 q -0.0571,0 -0.0877,0.0371 -0.0306,0.0372 -0.0306,0.1068 l 0,0.2161 -0.0677,0 0,-0.4102 0.0677,0 0,0.0637 q 0.0213,-0.0373 0.0553,-0.0555 0.0341,-0.0181 0.0828,-0.0181 0.0069,0 0.0154,9e-4 0.0084,9e-4 0.0186,0.0028 l 4e-4,0.0692 z m 0.0707,-0.2227 0.0674,0 0,0.5699 -0.0674,0 0,-0.5699 z m 0.1743,0.3344 0.1974,0 0,0.06 -0.1974,0 0,-0.06 z" />
  </g>
  <g
     style="font-size:0.75px;font-family:sans-serif;stroke-width:0.1"
     id="g41"
     transform="matrix(50,0,0,50,45.85,197.47501)"
     font-size="0.75px">
    <path
       style="stroke:none"
       inkscape:connector-curvature="0"
       id="path43"
       d="m 0.1901,-0.0712 0,0.033 -0.3099,0 q 0.0044,0.0695 0.042,0.106 0.0375,0.0364 0.1045,0.0364 0.0389,0 0.0753,-0.0095 0.0364,-0.0095 0.0723,-0.0286 l 0,0.0638 Q 0.1381,0.1452 0.1,0.1533 0.0619,0.1614 0.0227,0.1614 q -0.0981,0 -0.1555,-0.0572 -0.0573,-0.0571 -0.0573,-0.1545 0,-0.1007 0.0544,-0.1599 0.0544,-0.0591 0.1467,-0.0591 0.0828,0 0.1309,0.0533 0.0482,0.0533 0.0482,0.1448 z M 0.1227,-0.091 q -8e-4,-0.0553 -0.031,-0.0882 -0.0302,-0.033 -0.08,-0.033 -0.0564,0 -0.0903,0.0319 -0.0338,0.0318 -0.039,0.0897 l 0.2403,-4e-4 z" />
  </g>
  <g
     style="font-size:0.75px;font-family:sans-serif;fill:#ffffff;stroke:#ffffff;stroke-width:0.1"
     id="g45"
     transform="matrix(50,0,0,50,320.85,197.47501)"
     font-size="0.75px">
    <circle
       style="stroke:none"
       id="circle47"
       r="0.44999999"
       cy="0"
       cx="0" />
    <circle
       style="fill:none;stroke:#000000"
       id="circle49"
       r="0.44999999"
       cy="0"
       cx="0" />
    <circle
       style="fill:#000000;stroke:none"
       id="circle51"
       r="0.26320001"
       cy="0"
       cx="0" />
  </g>
  <g
     style="font-style:italic;font-size:0.5px;font-family:sans-serif;fill:#666666;stroke:#666666;stroke-width:0.1"
     id="g53"
     transform="matrix(50,0,0,50,320.85,197.47501)"
     font-style="italic"
     font-size="0.5px">
    <path
       style="stroke:none"
       inkscape:connector-curvature="0"
       id="path55"
       d="m -1.4598,-0.096 -0.0085,0.0425 q -0.0178,-0.0098 -0.0376,-0.0147 -0.0198,-0.0049 -0.0408,-0.0049 -0.0354,0 -0.0558,0.0121 -0.0203,0.0121 -0.0203,0.0328 0,0.0242 0.0473,0.0372 0.0037,9e-4 0.0054,0.0014 l 0.0144,0.0044 q 0.0449,0.0125 0.0599,0.0261 0.015,0.0137 0.015,0.0374 0,0.0435 -0.0345,0.0708 -0.0346,0.0273 -0.0905,0.0273 -0.0217,0 -0.0456,-0.0041 -0.0239,-0.0042 -0.0528,-0.013 L -1.6954,0.113 q 0.0247,0.0127 0.0486,0.0193 0.024,0.0065 0.0459,0.0065 0.033,0 0.0536,-0.0141 0.0206,-0.0142 0.0206,-0.0359 0,-0.0234 -0.0542,-0.0378 L -1.5855,0.0497 -1.6009,0.0458 q -0.0342,-0.009 -0.05,-0.0238 -0.0159,-0.0147 -0.0159,-0.0377 0,-0.0437 0.0328,-0.0693 0.0329,-0.0257 0.0893,-0.0257 0.0222,0 0.0433,0.0037 0.0211,0.0037 0.0416,0.011 z m 0.1021,-0.1145 0.0449,0 -0.011,0.0569 -0.0449,0 0.011,-0.0569 z m -0.0205,0.1064 0.0449,0 -0.0535,0.2735 -0.0449,0 0.0535,-0.2735 z m 0.3659,0 -0.0466,0.2395 q -0.0134,0.0696 -0.0514,0.1038 -0.0379,0.0342 -0.1021,0.0342 -0.0237,0 -0.044,-0.0036 Q -1.2767,0.2663 -1.2942,0.259 l 0.0083,-0.0437 q 0.0166,0.0107 0.0351,0.0158 0.0186,0.0052 0.0396,0.0052 0.0427,0 0.0702,-0.0234 0.0274,-0.0233 0.0362,-0.067 l 0.0039,-0.0205 q -0.0188,0.0215 -0.0437,0.0327 -0.0249,0.0113 -0.0537,0.0113 -0.0415,0 -0.0653,-0.0275 -0.0238,-0.0275 -0.0238,-0.0756 0,-0.0378 0.0144,-0.0741 0.0144,-0.0362 0.0405,-0.0643 0.0174,-0.0186 0.0404,-0.0286 0.0231,-0.01 0.0482,-0.01 0.0276,0 0.0482,0.0129 0.0205,0.0128 0.0305,0.0362 l 0.0078,-0.0425 0.0451,0 z m -0.0676,0.1004 q 0,-0.0332 -0.0156,-0.0513 -0.0156,-0.0181 -0.0444,-0.0181 -0.0179,0 -0.034,0.0071 -0.0161,0.0071 -0.0276,0.0198 -0.0185,0.021 -0.0289,0.0494 -0.0104,0.0285 -0.0104,0.0587 0,0.0337 0.0158,0.0518 0.0157,0.0181 0.0453,0.0181 0.0427,0 0.0713,-0.0387 0.0285,-0.0387 0.0285,-0.0968 z m 0.2779,-0.198 q 0.0495,0 0.0758,0.0329 0.0262,0.033 0.0262,0.0948 0,0.0468 -0.0123,0.0931 -0.0124,0.0463 -0.0346,0.0829 -0.0227,0.0366 -0.0533,0.0555 -0.0307,0.0189 -0.0678,0.0189 -0.0478,0 -0.0739,-0.0332 -0.0262,-0.0332 -0.0262,-0.0944 0,-0.0464 0.0126,-0.0929 0.0126,-0.0466 0.035,-0.0829 0.0225,-0.0367 0.0527,-0.0557 0.0301,-0.019 0.0658,-0.019 z m -0.003,0.039 q -0.0185,0 -0.0353,0.0099 -0.0167,0.0099 -0.0301,0.0292 -0.0225,0.0322 -0.0358,0.0804 -0.0133,0.0482 -0.0133,0.099 0,0.0403 0.0143,0.0609 0.0143,0.0207 0.0421,0.0207 0.0196,0 0.0362,-0.0099 0.0166,-0.0099 0.03,-0.0292 0.0222,-0.032 0.0353,-0.0802 0.013,-0.0482 0.013,-0.0992 0,-0.0403 -0.0143,-0.0609 -0.0142,-0.0207 -0.0421,-0.0207 z" />
  </g>
  <g
     style="font-size:0.75px;font-family:sans-serif;stroke-width:0.1"
     id="g57"
     transform="matrix(50,0,0,50,395.85,197.47501)"
     font-size="0.75px">
    <path
       style="stroke:none"
       inkscape:connector-curvature="0"
       id="path59"
       d="m 0.1901,-0.0712 0,0.033 -0.3099,0 q 0.0044,0.0695 0.042,0.106 0.0375,0.0364 0.1045,0.0364 0.0389,0 0.0753,-0.0095 0.0364,-0.0095 0.0723,-0.0286 l 0,0.0638 Q 0.1381,0.1452 0.1,0.1533 0.0619,0.1614 0.0227,0.1614 q -0.0981,0 -0.1555,-0.0572 -0.0573,-0.0571 -0.0573,-0.1545 0,-0.1007 0.0544,-0.1599 0.0544,-0.0591 0.1467,-0.0591 0.0828,0 0.1309,0.0533 0.0482,0.0533 0.0482,0.1448 z M 0.1227,-0.091 q -8e-4,-0.0553 -0.031,-0.0882 -0.0302,-0.033 -0.08,-0.033 -0.0564,0 -0.0903,0.0319 -0.0338,0.0318 -0.039,0.0897 l 0.2403,-4e-4 z" />
  </g>
  <g
     style="font-size:0.75px;font-family:sans-serif;stroke-width:0.02"
     id="g61"
     transform="matrix(50,0,0,50,320.85,197.47501)"
     font-size="0.75px">
    <path
       style="fill:none"
       inkscape:connector-curvature="0"
       id="path63"
       d="M -2.8917,1.7464 C -3.2517,1.5399 -3.5633,1.2239 -3.7636,0.8612" />
    <path
       style="stroke:none"
       inkscape:connector-curvature="0"
       id="path65"
       d="M -3.8324,0.8909 -3.6947,0.8316 -3.9218,0.4938 Z" />
  </g>
  <g
     style="font-size:0.75px;font-family:sans-serif;stroke-width:0.02"
     id="g67"
     transform="matrix(50,0,0,50,320.85,197.47501)"
     font-size="0.75px">
    <path
       style="fill:none"
       inkscape:connector-curvature="0"
       id="path69"
       d="m -3.9218,-0.4938 c 0.139,-0.4436 0.4514,-0.8525 0.8425,-1.132" />
    <path
       style="stroke:none"
       inkscape:connector-curvature="0"
       id="path71"
       d="m -3.1173,-1.6905 0.0759,0.1294 0.3071,-0.2671 z" />
  </g>
  <g
     style="font-size:0.75px;font-family:sans-serif;stroke-width:0.02"
     id="g73"
     transform="matrix(50,0,0,50,320.85,197.47501)"
     font-size="0.75px">
    <path
       style="fill:none"
       inkscape:connector-curvature="0"
       id="path75"
       d="m -5.5,-2.4125 0,-0.8375 7,0 0,0.3727" />
    <path
       style="stroke:none"
       inkscape:connector-curvature="0"
       id="path77"
       d="m 1.575,-2.8773 -0.15,0 0.075,0.4 z" />
  </g>
  <g
     style="font-size:0.75px;font-family:sans-serif;stroke-width:0.02"
     id="g79"
     transform="matrix(50,0,0,50,320.85,197.47501)"
     font-size="0.75px">
    <path
       style="fill:none"
       inkscape:connector-curvature="0"
       id="path81"
       d="m 1.5,2.3799 0,0.8701 -7,0 0,-0.3727" />
    <path
       style="stroke:none"
       inkscape:connector-curvature="0"
       id="path83"
       d="m -5.575,2.8773 0.15,0 -0.075,-0.4 z" />
  </g>
  <g
     style="font-size:0.75px;font-family:sans-serif;stroke-width:0.02"
     id="g85"
     transform="matrix(50,0,0,50,220.85,359.97501)"
     font-size="0.75px">
    <circle
       style="stroke:none"
       id="circle87"
       r="0.2105"
       cy="0"
       cx="0" />
  </g>
  <g
     style="font-size:0.75px;font-family:sans-serif;stroke-width:0.02"
     id="g89"
     transform="matrix(50,0,0,50,320.85,197.47501)"
     font-size="0.75px">
    <path
       style="fill:none"
       inkscape:connector-curvature="0"
       id="path91"
       d="m -5.5,1.5227 0,-0.7428" />
    <path
       style="stroke:none"
       inkscape:connector-curvature="0"
       id="path93"
       d="m -5.575,0.7799 0.15,0 -0.075,-0.4 z" />
  </g>
  <g
     style="font-size:0.75px;font-family:sans-serif;stroke-width:0.02"
     id="g95"
     transform="matrix(50,0,0,50,320.85,197.47501)"
     font-size="0.75px">
    <path
       style="fill:none"
       inkscape:connector-curvature="0"
       id="path97"
       d="m -5.5,-0.3799 0,-0.8076" />
    <path
       style="stroke:none"
       inkscape:connector-curvature="0"
       id="path99"
       d="m -5.575,-1.1875 0.15,0 -0.075,-0.4 z" />
  </g>
  <g
     style="font-size:0.75px;font-family:sans-serif;stroke-width:0.02"
     id="g101"
     transform="matrix(50,0,0,50,320.85,197.47501)"
     font-size="0.75px">
    <path
       style="fill:none"
       inkscape:connector-curvature="0"
       id="path103"
       d="M -4.5,0 -5.2099,0" />
  </g>
  <g
     style="font-size:0.75px;font-family:sans-serif;stroke-width:0.02"
     id="g105"
     transform="matrix(50,0,0,50,320.85,197.47501)"
     font-size="0.75px">
    <path
       style="fill:none"
       inkscape:connector-curvature="0"
       id="path107"
       d="m -1.2657,-1.8282 c 0.4259,0.1988 0.8003,0.5524 1.0293,0.967" />
    <path
       style="stroke:none"
       inkscape:connector-curvature="0"
       id="path109"
       d="m -0.1676,-0.8909 -0.1377,0.0593 0.2271,0.3378 z" />
  </g>
  <g
     style="font-size:0.75px;font-family:sans-serif;stroke-width:0.02"
     id="g111"
     transform="matrix(50,0,0,50,320.85,197.47501)"
     font-size="0.75px">
    <path
       style="fill:none"
       inkscape:connector-curvature="0"
       id="path113"
       d="M -0.0782,0.4938 C -0.2001,0.8829 -0.4555,1.2454 -0.7804,1.5172" />
    <path
       style="stroke:none"
       inkscape:connector-curvature="0"
       id="path115"
       d="m -0.7374,1.5787 -0.086,-0.123 -0.2849,0.2907 z" />
  </g>
  <g
     style="font-size:0.75px;font-family:sans-serif;stroke-width:0.02"
     id="g117"
     transform="matrix(50,0,0,50,320.85,197.47501)"
     font-size="0.75px">
    <path
       style="fill:none"
       inkscape:connector-curvature="0"
       id="path119"
       d="m 1.5,-1.5227 0,0.7428" />
    <path
       style="stroke:none"
       inkscape:connector-curvature="0"
       id="path121"
       d="m 1.575,-0.7799 -0.15,0 0.075,0.4 z" />
  </g>
  <g
     style="font-size:0.75px;font-family:sans-serif;stroke-width:0.02"
     id="g123"
     transform="matrix(50,0,0,50,320.85,197.47501)"
     font-size="0.75px">
    <path
       style="fill:none"
       inkscape:connector-curvature="0"
       id="path125"
       d="m 1.5,0.3799 0,0.8402" />
    <path
       style="stroke:none"
       inkscape:connector-curvature="0"
       id="path127"
       d="m 1.575,1.2201 -0.15,0 0.075,0.4 z" />
  </g>
  <g
     style="font-size:0.75px;font-family:sans-serif;stroke-width:0.02"
     id="g129"
     transform="matrix(50,0,0,50,320.85,197.47501)"
     font-size="0.75px">
    <path
       style="fill:none"
       inkscape:connector-curvature="0"
       id="path131"
       d="M 0.5,0 1.2099,0" />
  </g>
  <path
     style="font-style:normal;font-weight:normal;font-size:12px;font-family:Dialog;color-interpolation:auto;fill:none;fill-opacity:1;fill-rule:evenodd;stroke:#ffffff;stroke-width:1px;stroke-linecap:butt;stroke-linejoin:miter;stroke-miterlimit:10;stroke-dasharray:none;stroke-dashoffset:0;stroke-opacity:1;color-rendering:auto;image-rendering:auto;shape-rendering:auto;text-rendering:auto"
     d="m 50,400.5 360,0"
     id="path8075"
     inkscape:path-effect="#path-effect8077"
     inkscape:original-d="m 50,400.5 360,0"
     inkscape:connector-curvature="0"
     sodipodi:nodetypes="cc" />
  <path
     style="font-style:normal;font-weight:normal;font-size:12px;font-family:Dialog;color-interpolation:auto;fill:none;fill-opacity:1;fill-rule:evenodd;stroke:#ffffff;stroke-width:1px;stroke-linecap:butt;stroke-linejoin:miter;stroke-miterlimit:10;stroke-dasharray:none;stroke-dashoffset:0;stroke-opacity:1;color-rendering:auto;image-rendering:auto;shape-rendering:auto;text-rendering:auto"
     d="m 50,0.5 360,0"
     id="path8075-5"
     inkscape:path-effect="#path-effect8077-7"
     inkscape:original-d="m 50,0.5 360,0"
     inkscape:connector-curvature="0"
     sodipodi:nodetypes="cc" />
</svg>
