<?xml version="1.0" encoding="UTF-8" standalone="no"?>
<svg xmlns:dc="http://purl.org/dc/elements/1.1/" xmlns:cc="http://creativecommons.org/ns#" xmlns:rdf="http://www.w3.org/1999/02/22-rdf-syntax-ns#" xmlns:svg="http://www.w3.org/2000/svg" xmlns="http://www.w3.org/2000/svg" xmlns:sodipodi="http://sodipodi.sourceforge.net/DTD/sodipodi-0.dtd" xmlns:inkscape="http://www.inkscape.org/namespaces/inkscape" font-size="12px" font-style="normal" font-weight="normal" height="100%" stroke-miterlimit="10" width="100%" id="svg2" version="1.1" inkscape:version="0.91 r13725" sodipodi:docname="waitx2.stg.svg" style="font-style:normal;font-weight:normal;font-size:12px;font-family:Dialog;color-interpolation:auto;fill:#000000;fill-opacity:1;stroke:#000000;stroke-width:1;stroke-linecap:square;stroke-linejoin:miter;stroke-miterlimit:10;stroke-dasharray:none;stroke-dashoffset:0;stroke-opacity:1;color-rendering:auto;image-rendering:auto;shape-rendering:auto;text-rendering:auto" viewBox="0 0 552 739" preserveAspectRatio="xMidYMid slice">
  <metadata
     id="metadata277">
    <rdf:RDF>
      <cc:Work
         rdf:about="">
        <dc:format>image/svg+xml</dc:format>
        <dc:type
           rdf:resource="http://purl.org/dc/dcmitype/StillImage" />
        <dc:title></dc:title>
      </cc:Work>
    </rdf:RDF>
  </metadata>
  <sodipodi:namedview
     pagecolor="#ffffff"
     bordercolor="#666666"
     borderopacity="1"
     objecttolerance="10"
     gridtolerance="10"
     guidetolerance="10"
     inkscape:pageopacity="0"
     inkscape:pageshadow="2"
     inkscape:window-width="1920"
     inkscape:window-height="1176"
     id="namedview275"
     showgrid="true"
     inkscape:zoom="0.96642443"
     inkscape:cx="112.00009"
     inkscape:cy="393.01809"
     inkscape:window-x="0"
     inkscape:window-y="24"
     inkscape:window-maximized="1"
     inkscape:current-layer="svg2"
     inkscape:object-nodes="true"
     fit-margin-top="0"
     fit-margin-left="0"
     fit-margin-right="0"
     fit-margin-bottom="0">
    <inkscape:grid
       type="xygrid"
       id="grid8196"
       originx="-4.998"
       originy="-12.890555" />
  </sodipodi:namedview>
  <!--Generated by the Batik Graphics2D SVG Generator-->
  <defs
     id="genericDefs">
    <inkscape:path-effect
       effect="spiro"
       id="path-effect8200"
       is_visible="true" />
    <inkscape:path-effect
       effect="spiro"
       id="path-effect8200-3"
       is_visible="true" />
  </defs>
  <g
     style="font-size:0.75px;font-family:sans-serif;fill:#b20000;stroke:#b20000"
     id="g7"
     transform="matrix(50,0,0,50,269.897,268.3356)"
     font-size="0.75px">
    <path
       style="stroke:none"
       inkscape:connector-curvature="0"
       id="path9"
       d="m -0.7388,-0.144 0,0.0637 q -0.0286,-0.0147 -0.0594,-0.022 -0.0307,-0.0073 -0.0637,-0.0073 -0.0502,0 -0.0752,0.0154 -0.0251,0.0153 -0.0251,0.0461 0,0.0235 0.0179,0.0368 0.018,0.0134 0.0722,0.0255 l 0.023,0.0051 q 0.0718,0.0154 0.102,0.0434 0.0302,0.028 0.0302,0.0782 0,0.0571 -0.0452,0.0904 -0.0452,0.0334 -0.1243,0.0334 -0.033,0 -0.0687,-0.0064 Q -0.9908,0.2518 -1.0303,0.239 l 0,-0.0696 q 0.0373,0.0195 0.0736,0.0292 0.0362,0.0097 0.0717,0.0097 0.0477,0 0.0733,-0.0163 0.0256,-0.0163 0.0256,-0.046 0,-0.0275 -0.0185,-0.0421 Q -0.8231,0.0892 -0.8857,0.0757 L -0.9091,0.0702 Q -0.9717,0.057 -0.9996,0.0297 -1.0274,0.0024 -1.0274,-0.0451 q 0,-0.0579 0.041,-0.0894 0.041,-0.0315 0.1165,-0.0315 0.0373,0 0.0703,0.0055 0.0329,0.0055 0.0608,0.0165 z m 0.1292,-0.0121 0.0674,0 0,0.4101 -0.0674,0 0,-0.4101 z m 0,-0.1597 0.0674,0 0,0.0853 -0.0674,0 0,-0.0853 z m 0.4783,0.36 q 0,-0.0732 -0.0302,-0.1135 -0.0302,-0.0403 -0.0848,-0.0403 -0.0542,0 -0.0844,0.0403 -0.0302,0.0403 -0.0302,0.1135 0,0.0729 0.0302,0.1132 0.0302,0.0402 0.0844,0.0402 0.0546,0 0.0848,-0.0402 0.0302,-0.0403 0.0302,-0.1132 z m 0.0674,0.1589 q 0,0.1048 -0.0465,0.1559 -0.0465,0.051 -0.1425,0.051 -0.0355,0 -0.067,-0.0053 Q -0.3514,0.3994 -0.381,0.3884 l 0,-0.0655 q 0.0296,0.0161 0.0585,0.0238 0.029,0.0077 0.059,0.0077 0.0663,0 0.0992,-0.0346 0.033,-0.0346 0.033,-0.1046 l 0,-0.0333 q -0.0209,0.0362 -0.0535,0.0542 -0.0326,0.0179 -0.078,0.0179 -0.0754,0 -0.1215,-0.0575 -0.0462,-0.0574 -0.0462,-0.1523 0,-0.0952 0.0462,-0.1527 0.0461,-0.0575 0.1215,-0.0575 0.0454,0 0.078,0.0179 0.0326,0.018 0.0535,0.0542 l 0,-0.0622 0.0674,0 0,0.3592 z m 0.1611,-0.0113 0.1209,0 0,-0.4171 -0.1315,0.0263 0,-0.0674 0.1307,-0.0263 0.074,0 0,0.4845 0.1209,0 0,0.0622 -0.315,0 0,-0.0622 z m 0.7291,-0.408 0,0.204 0.204,0 0,0.0623 -0.204,0 0,0.2039 -0.0615,0 0,-0.2039 -0.204,0 0,-0.0623 0.204,0 0,-0.204 0.0615,0 z" />
  </g>
  <g
     style="font-size:0.75px;font-family:sans-serif;fill:#b20000;stroke:#b20000"
     id="g11"
     transform="matrix(50,0,0,50,269.895,668.335)"
     font-size="0.75px">
    <path
       style="stroke:none"
       inkscape:connector-curvature="0"
       id="path13"
       d="m -0.7388,-0.144 0,0.0637 q -0.0286,-0.0147 -0.0594,-0.022 -0.0307,-0.0073 -0.0637,-0.0073 -0.0502,0 -0.0752,0.0154 -0.0251,0.0153 -0.0251,0.0461 0,0.0235 0.0179,0.0368 0.018,0.0134 0.0722,0.0255 l 0.023,0.0051 q 0.0718,0.0154 0.102,0.0434 0.0302,0.028 0.0302,0.0782 0,0.0571 -0.0452,0.0904 -0.0452,0.0334 -0.1243,0.0334 -0.033,0 -0.0687,-0.0064 Q -0.9908,0.2518 -1.0303,0.239 l 0,-0.0696 q 0.0373,0.0195 0.0736,0.0292 0.0362,0.0097 0.0717,0.0097 0.0477,0 0.0733,-0.0163 0.0256,-0.0163 0.0256,-0.046 0,-0.0275 -0.0185,-0.0421 Q -0.8231,0.0892 -0.8857,0.0757 L -0.9091,0.0702 Q -0.9717,0.057 -0.9996,0.0297 -1.0274,0.0024 -1.0274,-0.0451 q 0,-0.0579 0.041,-0.0894 0.041,-0.0315 0.1165,-0.0315 0.0373,0 0.0703,0.0055 0.0329,0.0055 0.0608,0.0165 z m 0.1292,-0.0121 0.0674,0 0,0.4101 -0.0674,0 0,-0.4101 z m 0,-0.1597 0.0674,0 0,0.0853 -0.0674,0 0,-0.0853 z m 0.4783,0.36 q 0,-0.0732 -0.0302,-0.1135 -0.0302,-0.0403 -0.0848,-0.0403 -0.0542,0 -0.0844,0.0403 -0.0302,0.0403 -0.0302,0.1135 0,0.0729 0.0302,0.1132 0.0302,0.0402 0.0844,0.0402 0.0546,0 0.0848,-0.0402 0.0302,-0.0403 0.0302,-0.1132 z m 0.0674,0.1589 q 0,0.1048 -0.0465,0.1559 -0.0465,0.051 -0.1425,0.051 -0.0355,0 -0.067,-0.0053 Q -0.3514,0.3994 -0.381,0.3884 l 0,-0.0655 q 0.0296,0.0161 0.0585,0.0238 0.029,0.0077 0.059,0.0077 0.0663,0 0.0992,-0.0346 0.033,-0.0346 0.033,-0.1046 l 0,-0.0333 q -0.0209,0.0362 -0.0535,0.0542 -0.0326,0.0179 -0.078,0.0179 -0.0754,0 -0.1215,-0.0575 -0.0462,-0.0574 -0.0462,-0.1523 0,-0.0952 0.0462,-0.1527 0.0461,-0.0575 0.1215,-0.0575 0.0454,0 0.078,0.0179 0.0326,0.018 0.0535,0.0542 l 0,-0.0622 0.0674,0 0,0.3592 z m 0.212,-0.0113 0.2582,0 0,0.0622 -0.3472,0 0,-0.0622 Q 0.1013,0.1482 0.1739,0.0748 0.2466,0.0014 0.2653,-0.0199 0.3008,-0.0598 0.3149,-0.0875 0.329,-0.1151 0.329,-0.1418 q 0,-0.0436 -0.0305,-0.0711 -0.0306,-0.0275 -0.0797,-0.0275 -0.0348,0 -0.0734,0.0121 -0.0386,0.0121 -0.0826,0.0367 l 0,-0.0748 q 0.0447,-0.0179 0.0835,-0.027 0.0388,-0.0092 0.071,-0.0092 0.085,0 0.1355,0.0425 0.0506,0.0425 0.0506,0.1135 0,0.0337 -0.0127,0.0639 Q 0.3781,-0.0525 0.3448,-0.0115 0.3356,-9e-4 0.2866,0.0499 0.2375,0.1006 0.1481,0.1918 Z m 0.6782,-0.408 0,0.204 0.204,0 0,0.0623 -0.204,0 0,0.2039 -0.0615,0 0,-0.2039 -0.204,0 0,-0.0623 0.204,0 0,-0.204 0.0615,0 z" />
  </g>
  <g
     style="font-size:0.75px;font-family:sans-serif;fill:#b20000;stroke:#b20000"
     id="g15"
     transform="matrix(50,0,0,50,469.895,18.335)"
     font-size="0.75px">
    <path
       style="stroke:none"
       inkscape:connector-curvature="0"
       id="path17"
       d="m -0.3834,-0.1912 0,0.0629 q -0.0286,-0.0157 -0.0573,-0.0236 -0.0288,-0.0079 -0.0581,-0.0079 -0.0655,0 -0.1018,0.0416 -0.0362,0.0416 -0.0362,0.1166 0,0.0751 0.0362,0.1167 0.0363,0.0415 0.1018,0.0415 0.0293,0 0.0581,-0.0078 0.0287,-0.0079 0.0573,-0.0236 l 0,0.0622 q -0.0282,0.0132 -0.0584,0.0198 -0.0302,0.0066 -0.0643,0.0066 -0.0927,0 -0.1472,-0.0582 -0.0546,-0.0583 -0.0546,-0.1572 0,-0.1003 0.0551,-0.1578 0.0551,-0.0575 0.1511,-0.0575 0.0311,0 0.0608,0.0064 0.0296,0.0064 0.0575,0.0193 z m 0.1838,-0.1323 0,0.1165 0.1388,0 0,0.0524 -0.1388,0 0,0.2226 q 0,0.0502 0.0137,0.0645 0.0138,0.0143 0.0559,0.0143 l 0.0692,0 0,0.0564 -0.0692,0 q -0.078,0 -0.1077,-0.0292 -0.0296,-0.0291 -0.0296,-0.106 l 0,-0.2226 -0.0495,0 0,-0.0524 0.0495,0 0,-0.1165 0.0677,0 z M 0.2655,-0.144 Q 0.2542,-0.1506 0.2408,-0.1537 0.2274,-0.1568 0.2113,-0.1568 q -0.0571,0 -0.0877,0.0371 -0.0306,0.0372 -0.0306,0.1068 l 0,0.2161 -0.0677,0 0,-0.4102 0.0677,0 0,0.0637 q 0.0213,-0.0373 0.0553,-0.0555 0.0341,-0.0181 0.0828,-0.0181 0.0069,0 0.0154,9e-4 0.0084,9e-4 0.0186,0.0028 l 4e-4,0.0692 z m 0.0707,-0.2227 0.0674,0 0,0.5699 -0.0674,0 0,-0.5699 z m 0.1743,0.3344 0.1974,0 0,0.06 -0.1974,0 0,-0.06 z" />
  </g>
  <g
     style="font-size:0.75px;font-family:sans-serif;fill:#b20000;stroke:#b20000"
     id="g19"
     transform="matrix(50,0,0,50,269.895,368.335)"
     font-size="0.75px">
    <path
       style="stroke:none"
       inkscape:connector-curvature="0"
       id="path21"
       d="m -0.5409,-0.1912 0,0.0629 q -0.0286,-0.0157 -0.0573,-0.0236 -0.0288,-0.0079 -0.0581,-0.0079 -0.0655,0 -0.1018,0.0416 -0.0362,0.0416 -0.0362,0.1166 0,0.0751 0.0362,0.1167 0.0363,0.0415 0.1018,0.0415 0.0293,0 0.0581,-0.0078 0.0287,-0.0079 0.0573,-0.0236 l 0,0.0622 q -0.0282,0.0132 -0.0584,0.0198 -0.0302,0.0066 -0.0643,0.0066 -0.0926,0 -0.1472,-0.0582 -0.0546,-0.0583 -0.0546,-0.1572 0,-0.1003 0.0552,-0.1578 0.0551,-0.0575 0.151,-0.0575 0.0312,0 0.0608,0.0064 0.0297,0.0064 0.0575,0.0193 z m 0.1838,-0.1323 0,0.1165 0.1388,0 0,0.0524 -0.1388,0 0,0.2226 q 0,0.0502 0.0138,0.0645 0.0137,0.0143 0.0558,0.0143 l 0.0692,0 0,0.0564 -0.0692,0 q -0.078,0 -0.1076,-0.0292 -0.0297,-0.0291 -0.0297,-0.106 l 0,-0.2226 -0.0494,0 0,-0.0524 0.0494,0 0,-0.1165 0.0677,0 z M 0.108,-0.144 Q 0.0967,-0.1506 0.0833,-0.1537 0.07,-0.1568 0.0538,-0.1568 q -0.0571,0 -0.0877,0.0371 -0.0306,0.0372 -0.0306,0.1068 l 0,0.2161 -0.0677,0 0,-0.4102 0.0677,0 0,0.0637 q 0.0213,-0.0373 0.0553,-0.0555 0.0341,-0.0181 0.0828,-0.0181 0.007,0 0.0154,9e-4 0.0084,9e-4 0.0187,0.0028 l 3e-4,0.0692 z m 0.0707,-0.2227 0.0674,0 0,0.5699 -0.0674,0 0,-0.5699 z m 0.4827,0.0996 0,0.204 0.204,0 0,0.0623 -0.204,0 0,0.204 -0.0615,0 0,-0.204 -0.204,0 0,-0.0623 0.204,0 0,-0.204 0.0615,0 z" />
  </g>
  <g
     style="font-size:0.75px;font-family:sans-serif;fill:#0000b2;stroke:#0000b2"
     id="g23"
     transform="matrix(50,0,0,50,69.895,718.335)"
     font-size="0.75px">
    <path
       style="stroke:none"
       inkscape:connector-curvature="0"
       id="path25"
       d="m -0.4312,0.0396 q 0,-0.0733 -0.0302,-0.1135 -0.0302,-0.0403 -0.0848,-0.0403 -0.0542,0 -0.0844,0.0403 -0.0302,0.0402 -0.0302,0.1135 0,0.0729 0.0302,0.1131 0.0302,0.0403 0.0844,0.0403 0.0546,0 0.0848,-0.0403 0.0302,-0.0402 0.0302,-0.1131 z m 0.0674,0.1589 q 0,0.1048 -0.0465,0.1558 -0.0466,0.0511 -0.1425,0.0511 -0.0355,0 -0.067,-0.0053 Q -0.6513,0.3948 -0.681,0.3838 l 0,-0.0655 q 0.0297,0.0161 0.0586,0.0238 0.029,0.0077 0.059,0.0077 0.0663,0 0.0992,-0.0346 0.033,-0.0347 0.033,-0.1046 l 0,-0.0333 q -0.0209,0.0362 -0.0535,0.0542 -0.0326,0.0179 -0.078,0.0179 -0.0754,0 -0.1216,-0.0575 -0.0461,-0.0575 -0.0461,-0.1523 0,-0.0952 0.0461,-0.1527 0.0462,-0.0575 0.1216,-0.0575 0.0454,0 0.078,0.0179 0.0326,0.018 0.0535,0.0542 l 0,-0.0622 0.0674,0 0,0.3592 z m 0.212,-0.0113 0.2582,0 0,0.0622 -0.3472,0 0,-0.0622 q 0.0421,-0.0436 0.1148,-0.117 0.0727,-0.0735 0.0914,-0.0947 0.0355,-0.0399 0.0496,-0.0676 0.0141,-0.0276 0.0141,-0.0544 0,-0.0435 -0.0306,-0.071 -0.0305,-0.0275 -0.0796,-0.0275 -0.0348,0 -0.0734,0.0121 -0.0387,0.0121 -0.0826,0.0367 l 0,-0.0748 q 0.0447,-0.0179 0.0835,-0.0271 0.0388,-0.0091 0.071,-0.0091 0.085,0 0.1355,0.0425 0.0506,0.0424 0.0506,0.1135 0,0.0337 -0.0127,0.0639 -0.0126,0.0302 -0.0459,0.0712 -0.0092,0.0106 -0.0583,0.0614 -0.049,0.0507 -0.1384,0.1419 z m 0.6782,-0.408 0,0.204 0.204,0 0,0.0622 -0.204,0 0,0.204 -0.0615,0 0,-0.204 -0.204,0 0,-0.0622 0.204,0 0,-0.204 0.0615,0 z" />
  </g>
  <g
     style="font-size:0.75px;font-family:sans-serif;fill:#0000b2;stroke:#0000b2"
     id="g27"
     transform="matrix(50,0,0,50,69.895,18.335)"
     font-size="0.75px">
    <path
       style="stroke:none"
       inkscape:connector-curvature="0"
       id="path29"
       d="m -0.4312,0.0361 q 0,-0.0732 -0.0302,-0.1135 -0.0302,-0.0403 -0.0848,-0.0403 -0.0542,0 -0.0844,0.0403 -0.0302,0.0403 -0.0302,0.1135 0,0.0729 0.0302,0.1132 0.0302,0.0403 0.0844,0.0403 0.0546,0 0.0848,-0.0403 0.0302,-0.0403 0.0302,-0.1132 z m 0.0674,0.159 q 0,0.1047 -0.0465,0.1558 -0.0466,0.0511 -0.1425,0.0511 -0.0355,0 -0.067,-0.0053 Q -0.6513,0.3914 -0.681,0.3804 l 0,-0.0656 q 0.0297,0.0161 0.0586,0.0238 0.029,0.0077 0.059,0.0077 0.0663,0 0.0992,-0.0346 0.033,-0.0346 0.033,-0.1046 l 0,-0.0333 q -0.0209,0.0363 -0.0535,0.0542 -0.0326,0.018 -0.078,0.018 -0.0754,0 -0.1216,-0.0575 -0.0461,-0.0575 -0.0461,-0.1524 0,-0.0952 0.0461,-0.1527 0.0462,-0.0575 0.1216,-0.0575 0.0454,0 0.078,0.018 0.0326,0.0179 0.0535,0.0542 l 0,-0.0623 0.0674,0 0,0.3593 z m 0.1611,-0.0114 0.1209,0 0,-0.4171 -0.1315,0.0264 0,-0.0674 0.1307,-0.0264 0.074,0 0,0.4845 0.1208,0 0,0.0623 -0.3149,0 0,-0.0623 z m 0.7291,-0.408 0,0.204 0.204,0 0,0.0623 -0.204,0 0,0.204 -0.0615,0 0,-0.204 -0.204,0 0,-0.0623 0.204,0 0,-0.204 0.0615,0 z" />
  </g>
  <g
     style="font-size:0.75px;font-family:sans-serif;fill:#b20000;stroke:#b20000"
     id="g31"
     transform="matrix(50,0,0,50,269.895,68.335)"
     font-size="0.75px">
    <path
       style="stroke:none"
       inkscape:connector-curvature="0"
       id="path33"
       d="m -0.5814,-0.144 0,0.0637 q -0.0285,-0.0147 -0.0593,-0.022 -0.0308,-0.0073 -0.0637,-0.0073 -0.0502,0 -0.0753,0.0154 -0.0251,0.0153 -0.0251,0.0461 0,0.0235 0.018,0.0368 0.0179,0.0134 0.0721,0.0255 l 0.0231,0.0051 q 0.0718,0.0154 0.102,0.0434 0.0302,0.028 0.0302,0.0782 0,0.0571 -0.0452,0.0904 -0.0452,0.0334 -0.1243,0.0334 -0.033,0 -0.0687,-0.0064 Q -0.8333,0.2518 -0.8729,0.239 l 0,-0.0696 q 0.0374,0.0195 0.0736,0.0292 0.0363,0.0097 0.0718,0.0097 0.0476,0 0.0733,-0.0163 0.0256,-0.0163 0.0256,-0.046 0,-0.0275 -0.0185,-0.0421 Q -0.6656,0.0892 -0.7282,0.0757 L -0.7517,0.0702 Q -0.8143,0.057 -0.8421,0.0297 -0.8699,0.0024 -0.8699,-0.0451 q 0,-0.0579 0.041,-0.0894 0.041,-0.0315 0.1164,-0.0315 0.0374,0 0.0703,0.0055 0.033,0.0055 0.0608,0.0165 z m 0.1293,-0.0121 0.0674,0 0,0.4101 -0.0674,0 0,-0.4101 z m 0,-0.1597 0.0674,0 0,0.0853 -0.0674,0 0,-0.0853 z m 0.4783,0.36 q 0,-0.0732 -0.0302,-0.1135 -0.0302,-0.0403 -0.0848,-0.0403 -0.0542,0 -0.0844,0.0403 -0.0302,0.0403 -0.0302,0.1135 0,0.0729 0.0302,0.1132 0.0302,0.0402 0.0844,0.0402 0.0546,0 0.0848,-0.0402 Q 0.0262,0.1171 0.0262,0.0442 Z M 0.0936,0.2031 Q 0.0936,0.3079 0.047,0.359 5e-4,0.41 -0.0954,0.41 -0.1309,0.41 -0.1624,0.4047 -0.1939,0.3994 -0.2236,0.3884 l 0,-0.0655 q 0.0297,0.0161 0.0586,0.0238 0.0289,0.0077 0.059,0.0077 0.0663,0 0.0992,-0.0346 0.033,-0.0346 0.033,-0.1046 l 0,-0.0333 Q 0.0053,0.2181 -0.0273,0.2361 -0.0599,0.254 -0.1053,0.254 -0.1807,0.254 -0.2269,0.1965 -0.273,0.1391 -0.273,0.0442 q 0,-0.0952 0.0461,-0.1527 0.0462,-0.0575 0.1216,-0.0575 0.0454,0 0.078,0.0179 0.0326,0.018 0.0535,0.0542 l 0,-0.0622 0.0674,0 0,0.3592 z m 0.1611,-0.0113 0.1209,0 0,-0.4171 -0.1315,0.0263 0,-0.0674 0.1307,-0.0263 0.074,0 0,0.4845 0.1208,0 0,0.0622 -0.3149,0 0,-0.0622 z m 0.4208,-0.1732 0.1974,0 0,0.06 -0.1974,0 0,-0.06 z" />
  </g>
  <g
     style="font-size:0.75px;font-family:sans-serif;fill:#b20000;stroke:#b20000"
     id="g35"
     transform="matrix(50,0,0,50,269.895,468.335)"
     font-size="0.75px">
    <path
       style="stroke:none"
       inkscape:connector-curvature="0"
       id="path37"
       d="m -0.5814,-0.144 0,0.0637 q -0.0285,-0.0147 -0.0593,-0.022 -0.0308,-0.0073 -0.0637,-0.0073 -0.0502,0 -0.0753,0.0154 -0.0251,0.0153 -0.0251,0.0461 0,0.0235 0.018,0.0368 0.0179,0.0134 0.0721,0.0255 l 0.0231,0.0051 q 0.0718,0.0154 0.102,0.0434 0.0302,0.028 0.0302,0.0782 0,0.0571 -0.0452,0.0904 -0.0452,0.0334 -0.1243,0.0334 -0.033,0 -0.0687,-0.0064 Q -0.8333,0.2518 -0.8729,0.239 l 0,-0.0696 q 0.0374,0.0195 0.0736,0.0292 0.0363,0.0097 0.0718,0.0097 0.0476,0 0.0733,-0.0163 0.0256,-0.0163 0.0256,-0.046 0,-0.0275 -0.0185,-0.0421 Q -0.6656,0.0892 -0.7282,0.0757 L -0.7517,0.0702 Q -0.8143,0.057 -0.8421,0.0297 -0.8699,0.0024 -0.8699,-0.0451 q 0,-0.0579 0.041,-0.0894 0.041,-0.0315 0.1164,-0.0315 0.0374,0 0.0703,0.0055 0.033,0.0055 0.0608,0.0165 z m 0.1293,-0.0121 0.0674,0 0,0.4101 -0.0674,0 0,-0.4101 z m 0,-0.1597 0.0674,0 0,0.0853 -0.0674,0 0,-0.0853 z m 0.4783,0.36 q 0,-0.0732 -0.0302,-0.1135 -0.0302,-0.0403 -0.0848,-0.0403 -0.0542,0 -0.0844,0.0403 -0.0302,0.0403 -0.0302,0.1135 0,0.0729 0.0302,0.1132 0.0302,0.0402 0.0844,0.0402 0.0546,0 0.0848,-0.0402 Q 0.0262,0.1171 0.0262,0.0442 Z M 0.0936,0.2031 Q 0.0936,0.3079 0.047,0.359 5e-4,0.41 -0.0954,0.41 -0.1309,0.41 -0.1624,0.4047 -0.1939,0.3994 -0.2236,0.3884 l 0,-0.0655 q 0.0297,0.0161 0.0586,0.0238 0.0289,0.0077 0.059,0.0077 0.0663,0 0.0992,-0.0346 0.033,-0.0346 0.033,-0.1046 l 0,-0.0333 Q 0.0053,0.2181 -0.0273,0.2361 -0.0599,0.254 -0.1053,0.254 -0.1807,0.254 -0.2269,0.1965 -0.273,0.1391 -0.273,0.0442 q 0,-0.0952 0.0461,-0.1527 0.0462,-0.0575 0.1216,-0.0575 0.0454,0 0.078,0.0179 0.0326,0.018 0.0535,0.0542 l 0,-0.0622 0.0674,0 0,0.3592 z m 0.212,-0.0113 0.2582,0 0,0.0622 -0.3472,0 0,-0.0622 q 0.0421,-0.0436 0.1148,-0.117 0.0727,-0.0734 0.0914,-0.0947 0.0355,-0.0399 0.0496,-0.0676 0.0141,-0.0276 0.0141,-0.0543 0,-0.0436 -0.0306,-0.0711 -0.0306,-0.0275 -0.0796,-0.0275 -0.0348,0 -0.0734,0.0121 -0.0387,0.0121 -0.0826,0.0367 l 0,-0.0748 q 0.0446,-0.0179 0.0835,-0.027 0.0388,-0.0092 0.071,-0.0092 0.085,0 0.1355,0.0425 0.0505,0.0425 0.0505,0.1135 0,0.0337 -0.0126,0.0639 Q 0.5356,-0.0525 0.5023,-0.0115 0.4931,-9e-4 0.444,0.0499 0.395,0.1006 0.3056,0.1918 Z m 0.3699,-0.1732 0.1974,0 0,0.06 -0.1974,0 0,-0.06 z" />
  </g>
  <g
     style="font-size:0.75px;font-family:sans-serif;fill:#ffffff;stroke:#ffffff"
     id="g39"
     transform="matrix(50,0,0,50,169.895,168.335)"
     font-size="0.75px">
    <circle
       style="stroke:none"
       id="circle41"
       r="0.44999999"
       cy="0"
       cx="0" />
    <circle
       style="fill:none;stroke:#000000;stroke-width:0.1"
       id="circle43"
       r="0.44999999"
       cy="0"
       cx="0" />
  </g>
  <g
     style="font-style:italic;font-size:0.5px;font-family:sans-serif;fill:#666666;stroke:#666666;stroke-width:0.1"
     id="g45"
     transform="matrix(50,0,0,50,155.895,136.335)"
     font-style="italic"
     font-size="0.5px">
    <path
       style="stroke:none"
       inkscape:connector-curvature="0"
       id="path47"
       d="M 0.7774,0.1715 Q 0.7444,0.1715 0.7,0.1561 L 0.7077,0.112 q 0.0431,0.0234 0.078,0.0234 0.0207,0 0.0363,-0.0112 Q 0.8377,0.1129 0.8406,0.0961 0.845,0.0714 0.8094,0.0553 L 0.7835,0.0434 Q 0.7257,0.0175 0.7342,-0.0311 q 0.0061,-0.0347 0.0341,-0.0546 0.028,-0.0199 0.0708,-0.0199 0.0222,0 0.0538,0.0061 l 0.0097,0.002 -0.007,0.04 q -0.0382,-0.0119 -0.0619,-0.0119 -0.0464,0 -0.0523,0.0337 Q 0.7776,-0.014 0.8102,9e-4 L 0.8317,0.0106 Q 0.8681,0.0272 0.8812,0.0457 0.8943,0.0641 0.8895,0.0917 0.8834,0.1266 0.8519,0.1491 0.8204,0.1715 0.7774,0.1715 Z m 0.1856,-0.0061 0.0464,-0.2651 0.0481,0 -0.0464,0.2651 -0.0481,0 z m 0.0548,-0.3132 0.0085,-0.0481 0.0481,0 -0.0085,0.0481 -0.0481,0 z M 1.0931,0.2536 1.106,0.2118 q 0.0383,0.0198 0.0789,0.0198 0.0812,0 0.0963,-0.0862 L 1.2885,0.1037 Q 1.2522,0.1593 1.1914,0.1593 1.1438,0.1593 1.1218,0.1247 1.0998,0.09 1.1101,0.0311 q 0.0105,-0.0605 0.0492,-0.0986 0.0386,-0.0381 0.0894,-0.0381 0.0445,0 0.0701,0.0362 l 0.0053,-0.0303 0.0484,0 -0.0338,0.1929 Q 1.3278,0.1554 1.3161,0.1853 1.3044,0.2152 1.2833,0.2343 1.2459,0.2677 1.1795,0.2677 q -0.0464,0 -0.0864,-0.0141 z m 0.2007,-0.18 0.0193,-0.1101 q -0.026,-0.0329 -0.0634,-0.0329 -0.0332,0 -0.0566,0.0266 -0.0235,0.0266 -0.0316,0.073 -0.0152,0.0871 0.046,0.0871 0.0418,0 0.0863,-0.0437 z m 0.1526,0.0918 0.0064,-0.0361 0.0722,0 0.0499,-0.2852 -0.0754,0.0181 0.0065,-0.0371 0.1258,-0.03 -0.0584,0.3342 0.0722,0 -0.0063,0.0361 -0.1929,0 z m 0.2557,0.0362 0.0063,-0.0362 0.2078,0 -0.0064,0.0362 -0.2077,0 z m 0.3105,-0.0362 0.0063,-0.0361 0.0723,0 0.0499,-0.2852 -0.0754,0.0181 0.0065,-0.0371 0.1258,-0.03 -0.0585,0.3342 0.0723,0 -0.0063,0.0361 -0.1929,0 z" />
  </g>
  <circle
     cx="169.895"
     cy="568.33502"
     r="22.5"
     id="circle51"
     style="font-style:italic;font-size:medium;font-family:sans-serif;fill:#ffffff;stroke:none;stroke-width:0.1" />
  <circle
     cx="169.895"
     cy="568.33502"
     r="22.5"
     id="circle53"
     style="font-style:italic;font-size:medium;font-family:sans-serif;fill:none;stroke:#000000;stroke-width:5" />
  <path
     d="m 194.765,544.91 q -1.65,0 -3.87,-0.77 l 0.385,-2.205 q 2.155,1.17 3.9,1.17 1.035,0 1.815,-0.56 0.785,-0.565 0.93,-1.405 0.22,-1.235 -1.56,-2.04 l -1.295,-0.595 q -2.89,-1.295 -2.465,-3.725 0.305,-1.735 1.705,-2.73 1.4,-0.995 3.54,-0.995 1.11,0 2.69,0.305 l 0.485,0.1 -0.35,2 q -1.91,-0.595 -3.095,-0.595 -2.32,0 -2.615,1.685 -0.19,1.085 1.44,1.83 l 1.075,0.485 q 1.82,0.83 2.475,1.755 0.655,0.92 0.415,2.3 -0.305,1.745 -1.88,2.87 -1.575,1.12 -3.725,1.12 z m 9.28,-0.305 2.32,-13.255 2.405,0 -2.32,13.255 -2.405,0 z m 2.74,-15.66 0.425,-2.405 2.405,0 -0.425,2.405 -2.405,0 z m 3.765,20.07 0.645,-2.09 q 1.915,0.99 3.945,0.99 4.06,0 4.815,-4.30999 L 220.32,541.52 q -1.815,2.78 -4.855,2.78 -2.38,0 -3.48,-1.73 -1.1,-1.735 -0.585,-4.68 0.525,-3.02499 2.46,-4.92999 1.93,-1.905 4.47,-1.905 2.225,0 3.505,1.81 l 0.265,-1.515 2.42,0 -1.69,9.645 q -0.545,3.11 -1.13,4.605 -0.585,1.495 -1.64,2.45 -1.87,1.67 -5.19,1.67 -2.32,0 -4.32,-0.70501 z m 10.035,-9 0.965,-5.505 q -1.3,-1.64499 -3.17,-1.64499 -1.66,0 -2.83,1.33 -1.175,1.33001 -1.58,3.65 -0.76,4.355 2.3,4.355 2.09,0 4.315,-2.18499 z m 5.945,4.59001 0.37,-2.11 q 1.48,-2.45501 5.185,-5.34501 l 1.595,-1.235 q 3.085,-2.405 3.495,-4.775 0.265,-1.50999 -0.49,-2.38 -0.76,-0.865 -2.345,-0.865 -1.88,0 -4.685,1.45501 l 0.37,-2.125 q 2.605,-1.135 4.97,-1.135 2.54,0 3.84,1.365 1.3,1.37 0.905,3.625 -0.285,1.625 -1.28,2.88 -0.995,1.26 -3.42,3.05499 l -1.07,0.79 q -3.32,2.455 -4.165,4.69001 l 7.85,0 -0.37,2.11 -10.755,0 z m 14.47,1.80999 0.315,-1.80999 10.39,0 -0.32,1.80999 -10.385,0 z m 15.525,-1.80999 0.315,-1.805 3.615,0 2.495,-14.25999 -3.77,0.90499 0.325,-1.855 6.29,-1.5 -2.925,16.71 3.615,0 -0.315,1.805 -9.645,0 z"
     id="path55"
     inkscape:connector-curvature="0"
     style="font-style:italic;font-size:medium;font-family:sans-serif;fill:#666666;stroke:none;stroke-width:0.1" />
  <g
     style="font-size:0.75px;font-family:sans-serif;fill:#0000b2;stroke:#0000b2;stroke-width:0.1"
     id="g57"
     transform="matrix(50,0,0,50,469.895,268.335)"
     font-size="0.75px">
    <path
       style="stroke:none"
       inkscape:connector-curvature="0"
       id="path59"
       d="m -0.2737,0.0361 q 0,-0.0732 -0.0303,-0.1135 -0.0302,-0.0403 -0.0847,-0.0403 -0.0542,0 -0.0844,0.0403 -0.0303,0.0403 -0.0303,0.1135 0,0.0729 0.0303,0.1132 0.0302,0.0403 0.0844,0.0403 0.0545,0 0.0847,-0.0403 0.0303,-0.0403 0.0303,-0.1132 z m 0.0673,0.159 q 0,0.1047 -0.0465,0.1558 -0.0465,0.0511 -0.1424,0.0511 -0.0356,0 -0.067,-0.0053 -0.0315,-0.0053 -0.0612,-0.0163 l 0,-0.0656 q 0.0297,0.0161 0.0586,0.0238 0.0289,0.0077 0.059,0.0077 0.0662,0 0.0992,-0.0346 0.033,-0.0346 0.033,-0.1046 l 0,-0.0333 q -0.0209,0.0363 -0.0535,0.0542 -0.0326,0.018 -0.078,0.018 -0.0754,0 -0.1216,-0.0575 -0.0461,-0.0575 -0.0461,-0.1524 0,-0.0952 0.0461,-0.1527 0.0462,-0.0575 0.1216,-0.0575 0.0454,0 0.078,0.018 0.0326,0.0179 0.0535,0.0542 l 0,-0.0623 0.0673,0 0,0.3593 z m 0.1612,-0.0114 0.1208,0 0,-0.4171 -0.1315,0.0264 0,-0.0674 0.1308,-0.0264 0.074,0 0,0.4845 0.1208,0 0,0.0623 -0.3149,0 0,-0.0623 z m 0.4208,-0.1732 0.1973,0 0,0.06 -0.1973,0 0,-0.06 z" />
  </g>
  <g
     style="font-size:0.75px;font-family:sans-serif;fill:#0000b2;stroke:#0000b2;stroke-width:0.1"
     id="g61"
     transform="matrix(50,0,0,50,469.895,468.335)"
     font-size="0.75px">
    <path
       style="stroke:none"
       inkscape:connector-curvature="0"
       id="path63"
       d="m -0.2737,0.0396 q 0,-0.0733 -0.0303,-0.1135 -0.0302,-0.0403 -0.0847,-0.0403 -0.0542,0 -0.0844,0.0403 -0.0303,0.0402 -0.0303,0.1135 0,0.0729 0.0303,0.1131 0.0302,0.0403 0.0844,0.0403 0.0545,0 0.0847,-0.0403 0.0303,-0.0402 0.0303,-0.1131 z m 0.0673,0.1589 q 0,0.1048 -0.0465,0.1558 -0.0465,0.0511 -0.1424,0.0511 -0.0356,0 -0.067,-0.0053 -0.0315,-0.0053 -0.0612,-0.0163 l 0,-0.0655 q 0.0297,0.0161 0.0586,0.0238 0.0289,0.0077 0.059,0.0077 0.0662,0 0.0992,-0.0346 0.033,-0.0347 0.033,-0.1046 l 0,-0.0333 q -0.0209,0.0362 -0.0535,0.0542 -0.0326,0.0179 -0.078,0.0179 -0.0754,0 -0.1216,-0.0575 -0.0461,-0.0575 -0.0461,-0.1523 0,-0.0952 0.0461,-0.1527 0.0462,-0.0575 0.1216,-0.0575 0.0454,0 0.078,0.0179 0.0326,0.018 0.0535,0.0542 l 0,-0.0622 0.0673,0 0,0.3592 z m 0.2121,-0.0113 0.2581,0 0,0.0622 -0.3471,0 0,-0.0622 q 0.0421,-0.0436 0.1148,-0.117 0.0727,-0.0735 0.0914,-0.0947 0.0355,-0.0399 0.0496,-0.0676 0.0141,-0.0276 0.0141,-0.0544 0,-0.0435 -0.0306,-0.071 -0.0306,-0.0275 -0.0797,-0.0275 -0.0347,0 -0.0734,0.0121 -0.0386,0.0121 -0.0826,0.0367 l 0,-0.0748 q 0.0447,-0.0179 0.0835,-0.0271 0.0389,-0.0091 0.0711,-0.0091 0.0849,0 0.1355,0.0425 0.0505,0.0424 0.0505,0.1135 0,0.0337 -0.0126,0.0639 -0.0126,0.0302 -0.046,0.0712 Q 0.1932,-0.0055 0.1441,0.0453 0.095,0.096 0.0057,0.1872 Z m 0.3699,-0.1732 0.1973,0 0,0.06 -0.1973,0 0,-0.06 z" />
  </g>
  <g
     style="font-size:0.75px;font-family:sans-serif;fill:#ffffff;stroke:#ffffff;stroke-width:0.1"
     id="g65"
     transform="matrix(50,0,0,50,69.895,368.335)"
     font-size="0.75px">
    <circle
       style="stroke:none"
       id="circle67"
       r="0.44999999"
       cy="0"
       cx="0" />
    <circle
       style="fill:none;stroke:#000000"
       id="circle69"
       r="0.44999999"
       cy="0"
       cx="0" />
  </g>
  <g
     style="font-style:italic;font-size:0.5px;font-family:sans-serif;fill:#666666;stroke:#666666;stroke-width:0.1"
     id="g71"
     transform="matrix(50,0,0,50,69.895,368.335)"
     font-style="italic"
     font-size="0.5px">
    <path
       style="stroke:none"
       inkscape:connector-curvature="0"
       id="path73"
       d="m -1.3979,0.0971 0.0464,-0.2652 0.0481,0 -0.0087,0.0498 q 0.0449,-0.0556 0.1001,-0.0556 0.0532,0 0.0628,0.0556 0.0439,-0.0559 0.0986,-0.0559 0.0352,0 0.0508,0.0207 0.0157,0.0206 0.0092,0.0577 l -0.0337,0.1929 -0.0484,0 0.0325,-0.1853 q 0.0079,-0.0454 -0.028,-0.0454 -0.0373,0 -0.0876,0.0529 l -0.0311,0.1778 -0.0484,0 0.0325,-0.1853 q 0.008,-0.0457 -0.0287,-0.0457 -0.0363,0 -0.0872,0.0532 l -0.0311,0.1778 -0.0481,0 z m 0.6627,-0.0086 q -0.0509,0.0147 -0.0853,0.0147 -0.0586,0 -0.0888,-0.039 -0.0302,-0.0389 -0.0193,-0.1009 0.0105,-0.0603 0.0498,-0.0989 0.0394,-0.0386 0.0902,-0.0386 0.0481,0 0.0683,0.0342 0.0203,0.0342 0.0093,0.0972 l -0.0029,0.0149 -0.1672,0 q -0.006,0.0945 0.076,0.0945 0.03,0 0.0765,-0.0162 l -0.0066,0.0381 z m -0.1374,-0.1526 0.117,0 q 0.0129,-0.0739 -0.0423,-0.0739 -0.0554,0 -0.0747,0.0739 z" />
  </g>
  <g
     style="font-style:italic;font-size:0.5px;font-family:sans-serif;fill:#ffffff;stroke:#ffffff;stroke-width:0.1"
     id="g75"
     transform="matrix(50,0,0,50,469.895,368.335)"
     font-style="italic"
     font-size="0.5px">
    <circle
       style="stroke:none"
       id="circle77"
       r="0.44999999"
       cy="0"
       cx="0" />
    <circle
       style="fill:none;stroke:#000000"
       id="circle79"
       r="0.44999999"
       cy="0"
       cx="0" />
    <circle
       style="fill:#000000;stroke:none"
       id="circle81"
       r="0.26320001"
       cy="0"
       cx="0" />
    <path
       style="fill:#666666;stroke:none"
       inkscape:connector-curvature="0"
       id="path83"
       d="m 0.7,0.1307 0.0464,-0.2651 0.0481,0 -0.0087,0.0498 q 0.0449,-0.0557 0.1001,-0.0557 0.0532,0 0.0627,0.0557 0.044,-0.0559 0.0987,-0.0559 0.0351,0 0.0508,0.0206 0.0157,0.0207 0.0092,0.0578 l -0.0338,0.1928 -0.0483,0 0.0324,-0.1853 Q 1.0656,-0.1 1.0297,-0.1 0.9923,-0.1 0.942,-0.047 l -0.0311,0.1777 -0.0483,0 0.0324,-0.1853 q 0.008,-0.0456 -0.0286,-0.0456 -0.0364,0 -0.0872,0.0532 l -0.0311,0.1777 -0.0481,0 z m 0.4668,0 0.0464,-0.2651 0.0481,0 -0.0087,0.0498 q 0.0383,-0.0557 0.0927,-0.0557 0.0074,0 0.0152,0.0013 l -0.0079,0.0449 q -0.0117,-0.0042 -0.0212,-0.0042 -0.0457,0 -0.0859,0.0542 l -0.0306,0.1748 -0.0481,0 z m 0.1901,0.0882 0.013,-0.0418 q 0.0383,0.0198 0.0788,0.0198 0.0813,0 0.0964,-0.0862 L 1.5524,0.069 Q 1.516,0.1246 1.4552,0.1246 1.4076,0.1246 1.3856,0.09 1.3636,0.0553 1.3739,-0.0035 q 0.0106,-0.0606 0.0492,-0.0987 0.0387,-0.0381 0.0895,-0.0381 0.0444,0 0.0701,0.0362 l 0.0053,-0.0303 0.0483,0 -0.0338,0.1929 Q 1.5917,0.1207 1.5799,0.1506 1.5682,0.1805 1.5471,0.1996 1.5097,0.233 1.4433,0.233 1.3969,0.233 1.3569,0.2189 Z m 0.2007,-0.18 0.0193,-0.1101 q -0.026,-0.0329 -0.0633,-0.0329 -0.0332,0 -0.0567,0.0266 -0.0235,0.0266 -0.0316,0.073 -0.0152,0.0871 0.0461,0.0871 0.0417,0 0.0862,-0.0437 z" />
  </g>
  <g
     style="font-size:0.75px;font-family:sans-serif;fill:#b20000;stroke:#b20000;stroke-width:0.1"
     id="g85"
     transform="matrix(50,0,0,50,469.895,718.335)"
     font-size="0.75px">
    <path
       style="stroke:none"
       inkscape:connector-curvature="0"
       id="path87"
       d="m -0.3834,-0.1912 0,0.0629 q -0.0286,-0.0157 -0.0573,-0.0236 -0.0288,-0.0079 -0.0581,-0.0079 -0.0655,0 -0.1018,0.0416 -0.0362,0.0416 -0.0362,0.1166 0,0.0751 0.0362,0.1167 0.0363,0.0415 0.1018,0.0415 0.0293,0 0.0581,-0.0078 0.0287,-0.0079 0.0573,-0.0236 l 0,0.0622 q -0.0282,0.0132 -0.0584,0.0198 -0.0302,0.0066 -0.0643,0.0066 -0.0927,0 -0.1472,-0.0582 -0.0546,-0.0583 -0.0546,-0.1572 0,-0.1003 0.0551,-0.1578 0.0551,-0.0575 0.1511,-0.0575 0.0311,0 0.0608,0.0064 0.0296,0.0064 0.0575,0.0193 z m 0.1838,-0.1323 0,0.1165 0.1388,0 0,0.0524 -0.1388,0 0,0.2226 q 0,0.0502 0.0137,0.0645 0.0138,0.0143 0.0559,0.0143 l 0.0692,0 0,0.0564 -0.0692,0 q -0.078,0 -0.1077,-0.0292 -0.0296,-0.0291 -0.0296,-0.106 l 0,-0.2226 -0.0495,0 0,-0.0524 0.0495,0 0,-0.1165 0.0677,0 z M 0.2655,-0.144 Q 0.2542,-0.1506 0.2408,-0.1537 0.2274,-0.1568 0.2113,-0.1568 q -0.0571,0 -0.0877,0.0371 -0.0306,0.0372 -0.0306,0.1068 l 0,0.2161 -0.0677,0 0,-0.4102 0.0677,0 0,0.0637 q 0.0213,-0.0373 0.0553,-0.0555 0.0341,-0.0181 0.0828,-0.0181 0.0069,0 0.0154,9e-4 0.0084,9e-4 0.0186,0.0028 l 4e-4,0.0692 z m 0.0707,-0.2227 0.0674,0 0,0.5699 -0.0674,0 0,-0.5699 z m 0.1743,0.3344 0.1974,0 0,0.06 -0.1974,0 0,-0.06 z" />
  </g>
  <g
     style="font-size:0.75px;font-family:sans-serif;stroke-width:0.1"
     id="g89"
     transform="matrix(50,0,0,50,69.895,168.335)"
     font-size="0.75px">
    <path
       style="stroke:none"
       inkscape:connector-curvature="0"
       id="path91"
       d="m 0.1901,-0.0712 0,0.033 -0.3099,0 q 0.0044,0.0695 0.042,0.106 0.0375,0.0364 0.1045,0.0364 0.0389,0 0.0753,-0.0095 0.0364,-0.0095 0.0723,-0.0286 l 0,0.0638 Q 0.1381,0.1452 0.1,0.1533 0.0619,0.1614 0.0227,0.1614 q -0.0981,0 -0.1555,-0.0572 -0.0573,-0.0571 -0.0573,-0.1545 0,-0.1007 0.0544,-0.1599 0.0544,-0.0591 0.1467,-0.0591 0.0828,0 0.1309,0.0533 0.0482,0.0533 0.0482,0.1448 z M 0.1227,-0.091 q -8e-4,-0.0553 -0.031,-0.0882 -0.0302,-0.033 -0.08,-0.033 -0.0564,0 -0.0903,0.0319 -0.0338,0.0318 -0.039,0.0897 l 0.2403,-4e-4 z" />
  </g>
  <g
     style="font-size:0.75px;font-family:sans-serif;stroke-width:0.1"
     id="g93"
     transform="matrix(50,0,0,50,69.895,568.335)"
     font-size="0.75px">
    <path
       style="stroke:none"
       inkscape:connector-curvature="0"
       id="path95"
       d="m 0.1901,-0.0712 0,0.033 -0.3099,0 q 0.0044,0.0695 0.042,0.106 0.0375,0.0364 0.1045,0.0364 0.0389,0 0.0753,-0.0095 0.0364,-0.0095 0.0723,-0.0286 l 0,0.0638 Q 0.1381,0.1452 0.1,0.1533 0.0619,0.1614 0.0227,0.1614 q -0.0981,0 -0.1555,-0.0572 -0.0573,-0.0571 -0.0573,-0.1545 0,-0.1007 0.0544,-0.1599 0.0544,-0.0591 0.1467,-0.0591 0.0828,0 0.1309,0.0533 0.0482,0.0533 0.0482,0.1448 z M 0.1227,-0.091 q -8e-4,-0.0553 -0.031,-0.0882 -0.0302,-0.033 -0.08,-0.033 -0.0564,0 -0.0903,0.0319 -0.0338,0.0318 -0.039,0.0897 l 0.2403,-4e-4 z" />
  </g>
  <g
     style="font-size:0.75px;font-family:sans-serif;fill:#ffffff;stroke:#ffffff;stroke-width:0.1"
     id="g97"
     transform="matrix(50,0,0,50,369.895,168.335)"
     font-size="0.75px">
    <circle
       style="stroke:none"
       id="circle99"
       r="0.44999999"
       cy="0"
       cx="0" />
    <circle
       style="fill:none;stroke:#000000"
       id="circle101"
       r="0.44999999"
       cy="0"
       cx="0" />
    <circle
       style="fill:#000000;stroke:none"
       id="circle103"
       r="0.26320001"
       cy="0"
       cx="0" />
  </g>
  <g
     style="font-style:italic;font-size:0.5px;font-family:sans-serif;fill:#666666;stroke:#666666;stroke-width:0.1"
     id="g105"
     transform="matrix(50,0,0,50,383.895,200.335)"
     font-style="italic"
     font-size="0.5px">
    <path
       style="stroke:none"
       inkscape:connector-curvature="0"
       id="path107"
       d="m -2.1913,0.1715 q -0.0329,0 -0.0774,-0.0154 L -2.2609,0.112 q 0.043,0.0234 0.0779,0.0234 0.0207,0 0.0364,-0.0112 Q -2.131,0.1129 -2.128,0.0961 -2.1237,0.0714 -2.1592,0.0553 l -0.026,-0.0119 q -0.0577,-0.0259 -0.0492,-0.0745 0.006,-0.0347 0.0341,-0.0546 0.028,-0.0199 0.0707,-0.0199 0.0222,0 0.0539,0.0061 l 0.0096,0.002 -0.007,0.04 q -0.0382,-0.0119 -0.0619,-0.0119 -0.0463,0 -0.0522,0.0337 -0.0038,0.0217 0.0287,0.0366 l 0.0215,0.0097 q 0.0364,0.0166 0.0495,0.0351 0.0132,0.0184 0.0083,0.046 -0.0061,0.0349 -0.0376,0.0574 -0.0315,0.0224 -0.0745,0.0224 z m 0.1857,-0.0061 0.0464,-0.2651 0.0481,0 -0.0465,0.2651 -0.048,0 z m 0.0548,-0.3132 0.0084,-0.0481 0.0481,0 -0.0084,0.0481 -0.0481,0 z m 0.0752,0.4014 0.013,-0.0418 q 0.0382,0.0198 0.0788,0.0198 0.0813,0 0.0964,-0.0862 l 0.0073,-0.0417 q -0.0364,0.0556 -0.0972,0.0556 -0.0476,0 -0.0696,-0.0346 -0.022,-0.0347 -0.0117,-0.0936 0.0106,-0.0605 0.0492,-0.0986 0.0387,-0.0381 0.0895,-0.0381 0.0444,0 0.0701,0.0362 l 0.0053,-0.0303 0.0483,0 -0.0338,0.1929 q -0.0109,0.0622 -0.0226,0.0921 -0.0117,0.0299 -0.0328,0.049 -0.0374,0.0334 -0.1038,0.0334 -0.0464,0 -0.0864,-0.0141 z m 0.2007,-0.18 0.0193,-0.1101 q -0.026,-0.0329 -0.0633,-0.0329 -0.0332,0 -0.0567,0.0266 -0.0235,0.0266 -0.0316,0.073 -0.0152,0.0871 0.0461,0.0871 0.0417,0 0.0862,-0.0437 z m 0.1527,0.0918 0.0063,-0.0361 0.0723,0 0.0499,-0.2852 -0.0755,0.0181 0.0065,-0.0371 0.1259,-0.03 -0.0585,0.3342 0.0722,0 -0.0063,0.0361 -0.1928,0 z m 0.2556,0.0362 0.0063,-0.0362 0.2078,0 -0.0063,0.0362 -0.2078,0 z m 0.3905,-0.0271 q -0.0559,0 -0.0813,-0.0526 -0.0253,-0.0527 -0.0105,-0.1374 0.015,-0.0854 0.0589,-0.1374 0.0438,-0.052 0.1007,-0.052 0.0569,0 0.0826,0.052 0.0257,0.052 0.0109,0.1367 -0.0152,0.0869 -0.0591,0.1388 -0.0439,0.0519 -0.1022,0.0519 z m 0.0068,-0.0362 q 0.0764,0 0.1036,-0.1552 0.0266,-0.1519 -0.0489,-0.1519 -0.0752,0 -0.102,0.1533 -0.0269,0.1538 0.0473,0.1538 z" />
  </g>
  <circle
     cx="369.89502"
     cy="568.33502"
     r="22.5"
     id="circle111"
     style="font-style:italic;font-size:medium;font-family:sans-serif;fill:#ffffff;stroke:none;stroke-width:0.1" />
  <circle
     cx="369.89502"
     cy="568.33502"
     r="22.5"
     id="circle113"
     style="font-style:italic;font-size:medium;font-family:sans-serif;fill:none;stroke:#000000;stroke-width:5" />
  <circle
     cx="369.89502"
     cy="568.33502"
     r="13.160001"
     id="circle115"
     style="font-style:italic;font-size:medium;font-family:sans-serif;fill:#000000;stroke:none;stroke-width:0.1" />
  <path
     d="m 274.33,608.91 q -1.645,0 -3.87,-0.77 l 0.39,-2.205 q 2.15,1.17 3.895,1.17 1.035,0 1.82,-0.56 0.78,-0.565 0.93,-1.405 0.215,-1.235 -1.56,-2.04 l -1.3,-0.595 q -2.885,-1.295 -2.46,-3.725 0.3,-1.735 1.705,-2.73 1.4,-0.995 3.535,-0.995 1.11,0 2.695,0.305 l 0.48,0.1 -0.35,2 q -1.91,-0.595 -3.095,-0.595 -2.315,0 -2.61,1.685 -0.19,1.085 1.435,1.83 l 1.075,0.485 q 1.82,0.83 2.475,1.755 0.66,0.92 0.415,2.3 -0.305,1.745 -1.88,2.87 -1.575,1.12 -3.725,1.12 z m 9.285,-0.305 2.32,-13.255 2.405,0 -2.325,13.255 -2.4,0 z m 2.74,-15.66 0.42,-2.405 2.405,0 -0.42,2.405 -2.405,0 z m 3.76,20.07 0.65,-2.09 q 1.91,0.99 3.94,0.99 4.065,0 4.82,-4.30999 L 299.89,605.52 q -1.82,2.78 -4.86,2.78 -2.38,0 -3.48,-1.73 -1.1,-1.735 -0.585,-4.68 0.53,-3.02499 2.46,-4.92999 1.935,-1.905 4.475,-1.905 2.22,0 3.505,1.81 l 0.265,-1.515 2.415,0 -1.69,9.645 q -0.545,3.11 -1.13,4.605 -0.585,1.495 -1.64,2.45 -1.87,1.67 -5.19,1.67 -2.32,0 -4.32,-0.70501 z m 10.035,-9 0.965,-5.505 q -1.3,-1.64499 -3.165,-1.64499 -1.66,0 -2.835,1.33 -1.175,1.33001 -1.58,3.65 -0.76,4.355 2.305,4.355 2.085,0 4.31,-2.18499 z m 5.95,4.59001 0.365,-2.11 q 1.48,-2.45501 5.185,-5.34501 l 1.595,-1.235 q 3.085,-2.405 3.5,-4.775 0.265,-1.50999 -0.495,-2.38 -0.755,-0.865 -2.345,-0.865 -1.88,0 -4.685,1.45501 l 0.37,-2.125 q 2.605,-1.135 4.975,-1.135 2.54,0 3.835,1.365 1.3,1.37 0.905,3.625 -0.285,1.625 -1.28,2.88 -0.995,1.26 -3.42,3.05499 l -1.065,0.79 q -3.325,2.455 -4.165,4.69001 l 7.845,0 -0.365,2.11 -10.755,0 z m 14.465,1.80999 0.315,-1.80999 10.39,0 -0.315,1.80999 -10.39,0 z m 19.525,-1.355 q -2.795,0 -4.065,-2.63 -1.265,-2.635 -0.525,-6.87 0.75,-4.27 2.945,-6.87 2.19,-2.6 5.035,-2.6 2.845,0 4.13,2.6 1.285,2.6 0.545,6.835 -0.76,4.34501 -2.955,6.94001 -2.195,2.595 -5.11,2.595 z m 0.34,-1.80999 q 3.82,0 5.18,-7.76 1.33,-7.59501 -2.445,-7.59501 -3.76,0 -5.1,7.665 -1.345,7.69001 2.365,7.69001 z"
     id="path117"
     inkscape:connector-curvature="0"
     style="font-style:italic;font-size:medium;font-family:sans-serif;fill:#666666;stroke:none;stroke-width:0.1" />
  <g
     style="font-size:0.75px;font-family:sans-serif;stroke-width:0.1"
     id="g119"
     transform="matrix(50,0,0,50,469.895,168.335)"
     font-size="0.75px">
    <path
       style="stroke:none"
       inkscape:connector-curvature="0"
       id="path121"
       d="m 0.1901,-0.0712 0,0.033 -0.3099,0 q 0.0044,0.0695 0.042,0.106 0.0375,0.0364 0.1045,0.0364 0.0389,0 0.0753,-0.0095 0.0364,-0.0095 0.0723,-0.0286 l 0,0.0638 Q 0.1381,0.1452 0.1,0.1533 0.0619,0.1614 0.0227,0.1614 q -0.0981,0 -0.1555,-0.0572 -0.0573,-0.0571 -0.0573,-0.1545 0,-0.1007 0.0544,-0.1599 0.0544,-0.0591 0.1467,-0.0591 0.0828,0 0.1309,0.0533 0.0482,0.0533 0.0482,0.1448 z M 0.1227,-0.091 q -8e-4,-0.0553 -0.031,-0.0882 -0.0302,-0.033 -0.08,-0.033 -0.0564,0 -0.0903,0.0319 -0.0338,0.0318 -0.039,0.0897 l 0.2403,-4e-4 z" />
  </g>
  <g
     style="font-size:0.75px;font-family:sans-serif;stroke-width:0.1"
     id="g123"
     transform="matrix(50,0,0,50,469.895,568.335)"
     font-size="0.75px">
    <path
       style="stroke:none"
       inkscape:connector-curvature="0"
       id="path125"
       d="m 0.1901,-0.0712 0,0.033 -0.3099,0 q 0.0044,0.0695 0.042,0.106 0.0375,0.0364 0.1045,0.0364 0.0389,0 0.0753,-0.0095 0.0364,-0.0095 0.0723,-0.0286 l 0,0.0638 Q 0.1381,0.1452 0.1,0.1533 0.0619,0.1614 0.0227,0.1614 q -0.0981,0 -0.1555,-0.0572 -0.0573,-0.0571 -0.0573,-0.1545 0,-0.1007 0.0544,-0.1599 0.0544,-0.0591 0.1467,-0.0591 0.0828,0 0.1309,0.0533 0.0482,0.0533 0.0482,0.1448 z M 0.1227,-0.091 q -8e-4,-0.0553 -0.031,-0.0882 -0.0302,-0.033 -0.08,-0.033 -0.0564,0 -0.0903,0.0319 -0.0338,0.0318 -0.039,0.0897 l 0.2403,-4e-4 z" />
  </g>
  <g
     style="font-size:0.75px;font-family:sans-serif;stroke-width:0.02"
     id="g127"
     transform="matrix(50,0,0,50,969.895,668.335)"
     font-size="0.75px">
    <path
       style="fill:none"
       inkscape:connector-curvature="0"
       id="path129"
       d="m -15.1303,-8.4117 c -0.2581,-0.1954 -0.4788,-0.4473 -0.6333,-0.7271" />
    <path
       style="stroke:none"
       inkscape:connector-curvature="0"
       id="path131"
       d="m -15.8324,-9.1091 0.1377,-0.0593 -0.2271,-0.3378 z" />
  </g>
  <g
     style="font-size:0.75px;font-family:sans-serif;stroke-width:0.02"
     id="g133"
     transform="matrix(50,0,0,50,969.895,668.335)"
     font-size="0.75px">
    <path
       style="fill:none"
       inkscape:connector-curvature="0"
       id="path135"
       d="m -15.9218,-10.4938 c 0.1129,-0.3601 0.34,-0.6975 0.6308,-0.9612" />
    <path
       style="stroke:none"
       inkscape:connector-curvature="0"
       id="path137"
       d="m -15.3365,-11.5147 0.091,0.1193 0.2726,-0.3021 z" />
  </g>
  <g
     style="font-size:0.75px;font-family:sans-serif;stroke-width:0.02"
     id="g139"
     transform="matrix(50,0,0,50,969.895,668.335)"
     font-size="0.75px">
    <path
       style="fill:none"
       inkscape:connector-curvature="0"
       id="path141"
       d="m -15.9218,-2.4938 c 0.1129,-0.3601 0.34,-0.6975 0.6308,-0.9612" />
    <path
       style="stroke:none"
       inkscape:connector-curvature="0"
       id="path143"
       d="m -15.3365,-3.5147 0.091,0.1193 0.2726,-0.3021 z" />
  </g>
  <g
     style="font-size:0.75px;font-family:sans-serif;stroke-width:0.02"
     id="g145"
     transform="matrix(50,0,0,50,969.895,668.335)"
     font-size="0.75px">
    <path
       style="fill:none"
       inkscape:connector-curvature="0"
       id="path147"
       d="m -15.1303,-0.4117 c -0.2581,-0.1954 -0.4788,-0.4473 -0.6333,-0.7271" />
    <path
       style="stroke:none"
       inkscape:connector-curvature="0"
       id="path149"
       d="m -15.8324,-1.1091 0.1377,-0.0593 -0.2271,-0.3378 z" />
  </g>
  <g
     style="font-size:0.75px;font-family:sans-serif;stroke-width:0.02"
     id="g151"
     transform="matrix(50,0,0,50,969.895,668.335)"
     font-size="0.75px">
    <path
       style="fill:none"
       inkscape:connector-curvature="0"
       id="path153"
       d="M -14.9654,-6 -17.1,-6" />
    <path
       style="stroke:none"
       inkscape:connector-curvature="0"
       id="path155"
       d="m -17.1,-5.925 0,-0.15 -0.4,0.075 z" />
  </g>
  <g
     style="font-size:0.75px;font-family:sans-serif;stroke-width:0.02"
     id="g157"
     transform="matrix(50,0,0,50,969.895,668.335)"
     font-size="0.75px">
    <path
       style="fill:none"
       inkscape:connector-curvature="0"
       id="path159"
       d="m -17.1696,-13 5.9617,0" />
    <path
       style="stroke:none"
       inkscape:connector-curvature="0"
       id="path161"
       d="m -11.2079,-13.075 0,0.15 0.4,-0.075 z" />
  </g>
  <g
     style="font-size:0.75px;font-family:sans-serif;stroke-width:0.02"
     id="g163"
     transform="matrix(50,0,0,50,969.895,668.335)"
     font-size="0.75px">
    <path
       style="fill:none"
       inkscape:connector-curvature="0"
       id="path165"
       d="m -10.5,-6 -2.1346,0" />
    <path
       style="stroke:none"
       inkscape:connector-curvature="0"
       id="path167"
       d="m -12.6346,-5.925 0,-0.15 -0.4,0.075 z" />
  </g>
  <g
     style="font-size:0.75px;font-family:sans-serif;stroke-width:0.02"
     id="g169"
     transform="matrix(50,0,0,50,969.895,668.335)"
     font-size="0.75px">
    <path
       style="fill:none"
       inkscape:connector-curvature="0"
       id="path171"
       d="m -17.1696,1 5.9617,0" />
    <path
       style="stroke:none"
       inkscape:connector-curvature="0"
       id="path173"
       d="m -11.2079,0.925 0,0.15 0.4,-0.075 z" />
  </g>
  <g
     style="font-size:0.75px;font-family:sans-serif;stroke-width:0.02"
     id="g175"
     transform="matrix(50,0,0,50,969.895,668.335)"
     font-size="0.75px">
    <path
       style="fill:none"
       inkscape:connector-curvature="0"
       id="path177"
       d="m -16.5,-10 -1.2099,0" />
  </g>
  <g
     style="font-size:0.75px;font-family:sans-serif;stroke-width:0.02"
     id="g179"
     transform="matrix(50,0,0,50,969.895,668.335)"
     font-size="0.75px">
    <path
       style="fill:none"
       inkscape:connector-curvature="0"
       id="path181"
       d="m -16.5,-2 -1.2099,0" />
  </g>
  <g
     style="font-size:0.75px;font-family:sans-serif;stroke-width:0.02"
     id="g183"
     transform="matrix(50,0,0,50,969.895,668.335)"
     font-size="0.75px">
    <path
       style="fill:none"
       inkscape:connector-curvature="0"
       id="path185"
       d="m -18,-6.5 0,-2.7201" />
    <path
       style="stroke:none"
       inkscape:connector-curvature="0"
       id="path187"
       d="m -18.075,-9.2201 0.15,0 -0.075,-0.4 z" />
  </g>
  <g
     style="font-size:0.75px;font-family:sans-serif;stroke-width:0.02"
     id="g189"
     transform="matrix(50,0,0,50,969.895,668.335)"
     font-size="0.75px">
    <path
       style="fill:none"
       inkscape:connector-curvature="0"
       id="path191"
       d="m -18,-10.3799 0,-1.6633" />
    <path
       style="stroke:none"
       inkscape:connector-curvature="0"
       id="path193"
       d="m -18.075,-12.0432 0.15,0 -0.075,-0.4 z" />
  </g>
  <g
     style="font-size:0.75px;font-family:sans-serif;stroke-width:0.02"
     id="g195"
     transform="matrix(50,0,0,50,969.895,668.335)"
     font-size="0.75px">
    <path
       style="fill:none"
       inkscape:connector-curvature="0"
       id="path197"
       d="m -18,-5.5 0,2.7201" />
    <path
       style="stroke:none"
       inkscape:connector-curvature="0"
       id="path199"
       d="m -17.925,-2.7799 -0.15,0 0.075,0.4 z" />
  </g>
  <g
     style="font-size:0.75px;font-family:sans-serif;stroke-width:0.02"
     id="g201"
     transform="matrix(50,0,0,50,969.895,668.335)"
     font-size="0.75px">
    <path
       style="fill:none"
       inkscape:connector-curvature="0"
       id="path203"
       d="m -18,-1.6201 0,1.6569" />
    <path
       style="stroke:none"
       inkscape:connector-curvature="0"
       id="path205"
       d="m -17.925,0.0368 -0.15,0 0.075,0.4 z" />
  </g>
  <g
     style="font-size:0.75px;font-family:sans-serif;stroke-width:0.02"
     id="g207"
     transform="matrix(50,0,0,50,969.895,668.335)"
     font-size="0.75px">
    <path
       style="fill:none"
       inkscape:connector-curvature="0"
       id="path209"
       d="m -13.0271,-11.6975 c 0.3255,0.2059 0.6056,0.5011 0.7907,0.8363" />
    <path
       style="stroke:none"
       inkscape:connector-curvature="0"
       id="path211"
       d="m -12.1676,-10.8909 -0.1377,0.0593 0.2271,0.3378 z" />
  </g>
  <g
     style="font-size:0.75px;font-family:sans-serif;stroke-width:0.02"
     id="g213"
     transform="matrix(50,0,0,50,969.895,668.335)"
     font-size="0.75px">
    <path
       style="fill:none"
       inkscape:connector-curvature="0"
       id="path215"
       d="m -12.0782,-9.5062 c -0.0945,0.3016 -0.2692,0.5871 -0.4942,0.8269" />
    <path
       style="stroke:none"
       inkscape:connector-curvature="0"
       id="path217"
       d="m -12.5222,-8.6236 -0.1004,-0.1115 -0.2471,0.3234 z" />
  </g>
  <g
     style="font-size:0.75px;font-family:sans-serif;stroke-width:0.02"
     id="g219"
     transform="matrix(50,0,0,50,969.895,668.335)"
     font-size="0.75px">
    <path
       style="fill:none"
       inkscape:connector-curvature="0"
       id="path221"
       d="m -13.0271,-3.6975 c 0.3255,0.2059 0.6056,0.5011 0.7907,0.8363" />
    <path
       style="stroke:none"
       inkscape:connector-curvature="0"
       id="path223"
       d="m -12.1676,-2.8909 -0.1377,0.0593 0.2271,0.3378 z" />
  </g>
  <g
     style="font-size:0.75px;font-family:sans-serif;stroke-width:0.02"
     id="g225"
     transform="matrix(50,0,0,50,969.895,668.335)"
     font-size="0.75px">
    <path
       style="fill:none"
       inkscape:connector-curvature="0"
       id="path227"
       d="m -12.0782,-1.5062 c -0.0945,0.3016 -0.2692,0.5871 -0.4942,0.8269" />
    <path
       style="stroke:none"
       inkscape:connector-curvature="0"
       id="path229"
       d="m -12.5222,-0.6236 -0.1004,-0.1115 -0.2471,0.3234 z" />
  </g>
  <g
     style="font-size:0.75px;font-family:sans-serif;stroke-width:0.02"
     id="g231"
     transform="matrix(50,0,0,50,969.895,668.335)"
     font-size="0.75px">
    <path
       style="fill:none"
       inkscape:connector-curvature="0"
       id="path233"
       d="m -11.5,-10 1.2099,0" />
  </g>
  <g
     style="font-size:0.75px;font-family:sans-serif;stroke-width:0.02"
     id="g235"
     transform="matrix(50,0,0,50,969.895,668.335)"
     font-size="0.75px">
    <path
       style="fill:none"
       inkscape:connector-curvature="0"
       id="path237"
       d="m -11.5,-2 1.2099,0" />
  </g>
  <g
     style="font-size:0.75px;font-family:sans-serif;stroke-width:0.02"
     id="g239"
     transform="matrix(50,0,0,50,969.895,668.335)"
     font-size="0.75px">
    <path
       style="fill:none"
       inkscape:connector-curvature="0"
       id="path241"
       d="m -10,0.5227 0,-1.7428" />
    <path
       style="stroke:none"
       inkscape:connector-curvature="0"
       id="path243"
       d="m -10.075,-1.2201 0.15,0 -0.075,-0.4 z" />
  </g>
  <g
     style="font-size:0.75px;font-family:sans-serif;stroke-width:0.02"
     id="g245"
     transform="matrix(50,0,0,50,969.895,668.335)"
     font-size="0.75px">
    <path
       style="fill:none"
       inkscape:connector-curvature="0"
       id="path247"
       d="m -10,-2.3799 0,-0.6569" />
    <path
       style="stroke:none"
       inkscape:connector-curvature="0"
       id="path249"
       d="m -10.075,-3.0368 0.15,0 -0.075,-0.4 z" />
  </g>
  <g
     style="font-size:0.75px;font-family:sans-serif;stroke-width:0.02"
     id="g251"
     transform="matrix(50,0,0,50,969.895,668.335)"
     font-size="0.75px">
    <path
       style="fill:none"
       inkscape:connector-curvature="0"
       id="path253"
       d="M -10,-4.5632 -10,-5.1" />
    <path
       style="stroke:none"
       inkscape:connector-curvature="0"
       id="path255"
       d="m -10.075,-5.1 0.15,0 L -10,-5.5 Z" />
  </g>
  <g
     style="font-size:0.75px;font-family:sans-serif;stroke-width:0.02"
     id="g257"
     transform="matrix(50,0,0,50,969.895,668.335)"
     font-size="0.75px">
    <path
       style="fill:none"
       inkscape:connector-curvature="0"
       id="path259"
       d="m -10,-12.5227 0,1.7428" />
    <path
       style="stroke:none"
       inkscape:connector-curvature="0"
       id="path261"
       d="m -9.925,-10.7799 -0.15,0 0.075,0.4 z" />
  </g>
  <g
     style="font-size:0.75px;font-family:sans-serif;stroke-width:0.02"
     id="g263"
     transform="matrix(50,0,0,50,969.895,668.335)"
     font-size="0.75px">
    <path
       style="fill:none"
       inkscape:connector-curvature="0"
       id="path265"
       d="m -10,-9.6201 0,0.6633" />
    <path
       style="stroke:none"
       inkscape:connector-curvature="0"
       id="path267"
       d="m -9.925,-8.9568 -0.15,0 0.075,0.4 z" />
  </g>
  <g
     style="font-size:0.75px;font-family:sans-serif;stroke-width:0.02"
     id="g269"
     transform="matrix(50,0,0,50,969.895,668.335)"
     font-size="0.75px">
    <path
       style="fill:none"
       inkscape:connector-curvature="0"
       id="path271"
       d="M -10,-7.4432 -10,-6.9" />
    <path
       style="stroke:none"
       inkscape:connector-curvature="0"
       id="path273"
       d="m -9.925,-6.9 -0.15,0 0.075,0.4 z" />
  </g>
</svg>
