<?xml version="1.0" encoding="UTF-8" standalone="no"?>
<svg xmlns:dc="http://purl.org/dc/elements/1.1/" xmlns:cc="http://creativecommons.org/ns#" xmlns:rdf="http://www.w3.org/1999/02/22-rdf-syntax-ns#" xmlns:svg="http://www.w3.org/2000/svg" xmlns="http://www.w3.org/2000/svg" xmlns:sodipodi="http://sodipodi.sourceforge.net/DTD/sodipodi-0.dtd" xmlns:inkscape="http://www.inkscape.org/namespaces/inkscape" font-size="12px" font-style="normal" font-weight="normal" height="100%" stroke-miterlimit="10" width="100%" id="svg2" version="1.1" inkscape:version="0.91 r13725" sodipodi:docname="wait-box.circuit.svg" style="font-style:normal;font-weight:normal;font-size:12px;font-family:Dialog;color-interpolation:auto;fill:#000000;fill-opacity:1;stroke:#000000;stroke-width:1;stroke-linecap:square;stroke-linejoin:miter;stroke-miterlimit:10;stroke-dasharray:none;stroke-dashoffset:0;stroke-opacity:1;color-rendering:auto;image-rendering:auto;shape-rendering:auto;text-rendering:auto" viewBox="0 0 227 181" preserveAspectRatio="xMidYMid slice">
  <metadata
     id="metadata31">
    <rdf:RDF>
      <cc:Work
         rdf:about="">
        <dc:format>image/svg+xml</dc:format>
        <dc:type
           rdf:resource="http://purl.org/dc/dcmitype/StillImage" />
        <dc:title></dc:title>
      </cc:Work>
    </rdf:RDF>
  </metadata>
  <sodipodi:namedview
     pagecolor="#ffffff"
     bordercolor="#666666"
     borderopacity="1"
     objecttolerance="10"
     gridtolerance="10"
     guidetolerance="10"
     inkscape:pageopacity="0"
     inkscape:pageshadow="2"
     inkscape:window-width="1920"
     inkscape:window-height="1176"
     id="namedview29"
     showgrid="true"
     fit-margin-top="0"
     fit-margin-left="0"
     fit-margin-right="0"
     fit-margin-bottom="0"
     inkscape:zoom="1.0866503"
     inkscape:cx="471.12891"
     inkscape:cy="-39.260111"
     inkscape:window-x="0"
     inkscape:window-y="24"
     inkscape:window-maximized="1"
     inkscape:current-layer="svg2"
     inkscape:object-nodes="true">
    <inkscape:grid
       type="xygrid"
       id="grid8074"
       originx="0"
       originy="30.5" />
  </sodipodi:namedview>
  <!--Generated by the Batik Graphics2D SVG Generator-->
  <defs
     id="genericDefs">
    <inkscape:path-effect
       effect="spiro"
       id="path-effect8080"
       is_visible="true" />
    <inkscape:path-effect
       effect="spiro"
       id="path-effect8082"
       is_visible="true" />
    <inkscape:path-effect
       effect="spiro"
       id="path-effect8078"
       is_visible="true" />
    <inkscape:path-effect
       effect="spiro"
       id="path-effect8080-3"
       is_visible="true" />
  </defs>
  <rect
     height="125"
     width="175"
     x="26"
     y="24"
     id="rect9"
     style="fill:#ffffff;stroke:none" />
  <rect
     height="125"
     width="175"
     x="26"
     y="24"
     id="rect11"
     style="fill:none;stroke:#000000;stroke-width:3" />
  <line
     x1="1"
     x2="26"
     y1="86.5"
     y2="86.5"
     id="line13"
     style="fill:none;stroke:#000000;stroke-width:2" />
  <line
     x1="226"
     x2="201"
     y1="49"
     y2="49"
     id="line15"
     style="fill:none;stroke:#000000;stroke-width:2" />
  <line
     x1="226"
     x2="201"
     y1="124"
     y2="124"
     id="line17"
     style="fill:none;stroke:#000000;stroke-width:2" />
  <path
     d="m 48.5,79.33 -0.425,2.12 q -0.895,-0.485 -1.88,-0.73 -0.99,-0.245 -2.04,-0.245 -1.77,0 -2.79,0.605 -1.02,0.605 -1.02,1.64 0,1.21 2.37,1.855 0.18,0.05 0.27,0.075 l 0.715,0.22 q 2.25,0.625 3,1.305 0.75,0.685 0.75,1.87 0,2.17 -1.725,3.54 -1.73,1.365 -4.525,1.365 -1.085,0 -2.28,-0.205 -1.2,-0.21 -2.64,-0.65 l 0.44,-2.315 q 1.235,0.63 2.43,0.96 1.195,0.33 2.295,0.33 1.645,0 2.68,-0.705 1.03,-0.71 1.03,-1.795 0,-1.175 -2.71,-1.895 l -0.23,-0.06 -0.77,-0.195 q -1.71,-0.45 -2.505,-1.19 -0.79,-0.74 -0.79,-1.885 0,-2.185 1.64,-3.47 1.64,-1.28 4.46,-1.28 1.115,0 2.17,0.185 1.055,0.18 2.08,0.55 z m 5.1,-5.725 2.25,0 -0.55,2.84 -2.245,0 0.545,-2.84 z m -1.025,5.32 2.25,0 -2.675,13.67 -2.245,0 2.67,-13.67 z m 18.3,0 -2.33,11.975 q -0.675,3.48 -2.57,5.19 -1.9,1.705 -5.11,1.705 -1.185,0 -2.195,-0.175 -1.015,-0.175 -1.895,-0.545 l 0.415,-2.18 q 0.83,0.535 1.76,0.79 0.925,0.255 1.975,0.255 2.14,0 3.51,-1.165 1.375,-1.165 1.815,-3.35 L 66.445,90.4 q -0.94,1.075 -2.185,1.635 -1.245,0.56 -2.685,0.56 -2.075,0 -3.265,-1.37 -1.19,-1.375 -1.19,-3.78 0,-1.89 0.72,-3.705 0.72,-1.81 2.025,-3.215 0.865,-0.93 2.02,-1.43 1.155,-0.5 2.41,-0.5 1.38,0 2.405,0.64 1.025,0.645 1.525,1.815 l 0.395,-2.125 2.255,0 z m -3.38,5.02 q 0,-1.665 -0.78,-2.565 -0.785,-0.905 -2.225,-0.905 -0.89,0 -1.695,0.355 -0.805,0.355 -1.38,0.99 -0.93,1.05 -1.445,2.47 -0.52,1.42 -0.52,2.935 0,1.685 0.785,2.59 0.79,0.905 2.265,0.905 2.14,0 3.565,-1.935 1.43,-1.935 1.43,-4.84 z"
     id="path19"
     inkscape:connector-curvature="0"
     style="fill:#ff0000;stroke:none;stroke-width:0.04" />
  <path
     d="m 161.29,42.91 -0.43,2.12 q -0.89,-0.485 -1.88,-0.73 -0.99,-0.245 -2.035,-0.245 -1.775,0 -2.79,0.605 -1.02,0.605 -1.02,1.64 0,1.21 2.365,1.855 0.185,0.05 0.27,0.075 l 0.72,0.22 q 2.245,0.625 2.995,1.305 0.755,0.685 0.755,1.87 0,2.17 -1.73,3.54 -1.725,1.365 -4.52,1.365 -1.09,0 -2.285,-0.205 -1.195,-0.21 -2.635,-0.65 l 0.44,-2.315 q 1.23,0.635 2.43,0.96 1.195,0.33 2.295,0.33 1.645,0 2.675,-0.705 1.035,-0.71 1.035,-1.795 0,-1.17 -2.71,-1.895 L 155,50.195 154.235,50 q -1.71,-0.45 -2.505,-1.19 -0.795,-0.74 -0.795,-1.885 0,-2.185 1.645,-3.465 1.64,-1.285 4.46,-1.285 1.11,0 2.165,0.185 1.06,0.185 2.085,0.55 z m 13.95,5.47 -1.525,7.8 -2.245,0 0.415,-2.075 q -0.99,1.22 -2.255,1.82 -1.26,0.605 -2.81,0.605 -1.75,0 -2.865,-1.065 -1.115,-1.07 -1.115,-2.74 0,-2.395 1.91,-3.785 1.91,-1.395 5.265,-1.395 l 3.125,0 0.125,-0.595 q 0.025,-0.1 0.035,-0.215 0.01,-0.115 0.01,-0.36 0,-1.085 -0.885,-1.69 -0.885,-0.605 -2.48,-0.605 -1.1,0 -2.255,0.28 -1.155,0.28 -2.375,0.845 l 0.39,-2.075 q 1.27,-0.48 2.485,-0.715 1.215,-0.24 2.35,-0.24 2.42,0 3.68,1.05 1.265,1.05 1.265,3.055 0,0.4 -0.06,0.945 -0.06,0.54 -0.185,1.155 z m -2.43,0.925 -2.245,0 q -2.76,0 -4.085,0.74 -1.32,0.735 -1.32,2.285 0,1.075 0.675,1.685 0.68,0.615 1.875,0.615 1.83,0 3.2,-1.315 1.365,-1.31 1.805,-3.51 l 0.095,-0.5 z m 18.25,-1.38 -1.6,8.255 -2.255,0 1.6,-8.17 q 0.105,-0.575 0.17,-1.01 0.06,-0.44 0.06,-0.7 0,-1.025 -0.65,-1.595 -0.645,-0.575 -1.805,-0.575 -1.805,0 -3.11,1.2 -1.305,1.205 -1.71,3.265 l -1.5,7.585 -2.25,0 2.65,-13.675 2.245,0 -0.45,2.15 q 0.94,-1.185 2.26,-1.83 1.315,-0.65 2.77,-0.65 1.805,0 2.8,0.98 0.995,0.975 0.995,2.745 0,0.44 -0.055,0.94 -0.055,0.5 -0.165,1.085 z"
     id="path21"
     inkscape:connector-curvature="0"
     style="fill:#0000ff;stroke:none;stroke-width:0.04" />
  <path
     d="m 164.9,118.525 -0.45,2.225 q -0.805,-0.585 -1.715,-0.88 -0.91,-0.295 -1.885,-0.295 -1.075,0 -2.045,0.38 -0.97,0.38 -1.63,1.075 -1.05,1.06 -1.625,2.49 -0.575,1.43 -0.575,2.955 0,1.84 0.925,2.745 0.92,0.905 2.8,0.905 0.93,0 1.97,-0.28 1.045,-0.28 2.18,-0.845 l -0.425,2.225 q -0.98,0.4 -2.01,0.6 -1.03,0.205 -2.115,0.205 -2.725,0 -4.19,-1.365 -1.465,-1.36 -1.465,-3.885 0,-2.125 0.765,-3.915 0.76,-1.785 2.265,-3.215 1.025,-0.975 2.405,-1.475 1.38,-0.5 3.015,-0.5 0.95,0 1.89,0.21 0.94,0.215 1.915,0.64 z m 10.915,-0.525 -0.34,1.75 -4.48,0 -1.455,7.42 q -0.075,0.415 -0.11,0.695 -0.035,0.28 -0.035,0.44 0,0.78 0.47,1.135 0.47,0.355 1.505,0.355 l 2.27,0 -0.375,1.88 -2.15,0 q -2,0 -2.985,-0.78 -0.98,-0.785 -0.98,-2.37 0,-0.28 0.035,-0.615 0.035,-0.335 0.11,-0.74 l 1.45,-7.42 -1.9,0 0.35,-1.75 1.87,0 0.755,-3.88 2.245,0 -0.74,3.88 4.49,0 z m 10.375,2.075 q -0.34,-0.18 -0.78,-0.28 -0.44,-0.095 -0.94,-0.095 -1.795,0 -3.135,1.36 -1.345,1.36 -1.785,3.645 l -1.38,6.97 -2.245,0 2.675,-13.675 2.245,0 -0.43,2.125 q 0.895,-1.185 2.13,-1.82 1.24,-0.63 2.645,-0.63 0.365,0 0.72,0.04 0.355,0.045 0.71,0.14 l -0.43,2.22 z m 3.71,-7.395 2.25,0 -3.7,18.995 -2.245,0 3.695,-18.995 z"
     id="path23"
     inkscape:connector-curvature="0"
     style="fill:#ff0000;stroke:none;stroke-width:0.04" />
  <g
     style="font-size:0.5px;font-family:sans-serif;stroke-width:0.04"
     id="g25"
     transform="matrix(50,0,0,50,119.5,86.5)"
     font-size="0.5px">
    <path
       style="stroke:none"
       inkscape:connector-curvature="0"
       id="path27"
       d="m -0.6371,-0.2369 0.0498,0 0.0767,0.3081 0.0764,-0.3081 0.0554,0 0.0767,0.3081 0.0764,-0.3081 0.05,0 -0.0915,0.3645 -0.062,0 -0.0769,-0.3164 -0.0777,0.3164 -0.062,0 -0.0913,-0.3645 z m 0.6487,0.0486 -0.0669,0.1814 0.134,0 -0.0671,-0.1814 z m -0.0278,-0.0486 0.0559,0 0.1389,0.3645 -0.0513,0 -0.0332,-0.0935 -0.1643,0 -0.0332,0.0935 -0.052,0 0.1392,-0.3645 z m 0.248,0 0.0493,0 0,0.3645 -0.0493,0 0,-0.3645 z m 0.0969,0 0.3084,0 0,0.0415 -0.1294,0 0,0.323 -0.0496,0 0,-0.323 -0.1294,0 0,-0.0415 z" />
  </g>
  <path
     style="fill:none;fill-rule:evenodd;stroke:#ffffff;stroke-width:1px;stroke-linecap:butt;stroke-linejoin:miter;stroke-opacity:1"
     d="m 30,180.5 175,0"
     id="path8078"
     inkscape:path-effect="#path-effect8080"
     inkscape:original-d="m 30,180.5 175,0"
     inkscape:connector-curvature="0" />
  <path
     style="font-style:normal;font-weight:normal;font-size:12px;font-family:Dialog;color-interpolation:auto;fill:none;fill-opacity:1;fill-rule:evenodd;stroke:#ffffff;stroke-width:1px;stroke-linecap:butt;stroke-linejoin:miter;stroke-miterlimit:10;stroke-dasharray:none;stroke-dashoffset:0;stroke-opacity:1;color-rendering:auto;image-rendering:auto;shape-rendering:auto;text-rendering:auto"
     d="m 30,0.5 175,0"
     id="path8078-6"
     inkscape:path-effect="#path-effect8080-3"
     inkscape:original-d="m 30,0.5 175,0"
     inkscape:connector-curvature="0" />
</svg>
