<?xml version="1.0" encoding="UTF-8" standalone="no"?>
<svg xmlns:dc="http://purl.org/dc/elements/1.1/" xmlns:cc="http://creativecommons.org/ns#" xmlns:rdf="http://www.w3.org/1999/02/22-rdf-syntax-ns#" xmlns:svg="http://www.w3.org/2000/svg" xmlns="http://www.w3.org/2000/svg" xmlns:sodipodi="http://sodipodi.sourceforge.net/DTD/sodipodi-0.dtd" xmlns:inkscape="http://www.inkscape.org/namespaces/inkscape" font-size="12px" font-style="normal" font-weight="normal" height="100%" stroke-miterlimit="10" width="100%" id="svg2" version="1.1" inkscape:version="0.91 r13725" sodipodi:docname="WAITX2-box.circuit.svg" style="font-style:normal;font-weight:normal;font-size:12px;font-family:Dialog;color-interpolation:auto;fill:#000000;fill-opacity:1;stroke:#000000;stroke-width:1;stroke-linecap:square;stroke-linejoin:miter;stroke-miterlimit:10;stroke-dasharray:none;stroke-dashoffset:0;stroke-opacity:1;color-rendering:auto;image-rendering:auto;shape-rendering:auto;text-rendering:auto" viewBox="0 0 252 521" preserveAspectRatio="xMidYMid slice">
  <metadata
     id="metadata39">
    <rdf:RDF>
      <cc:Work
         rdf:about="">
        <dc:format>image/svg+xml</dc:format>
        <dc:type
           rdf:resource="http://purl.org/dc/dcmitype/StillImage" />
        <dc:title></dc:title>
      </cc:Work>
    </rdf:RDF>
  </metadata>
  <sodipodi:namedview
     pagecolor="#ffffff"
     bordercolor="#666666"
     borderopacity="1"
     objecttolerance="10"
     gridtolerance="10"
     guidetolerance="10"
     inkscape:pageopacity="0"
     inkscape:pageshadow="2"
     inkscape:window-width="1920"
     inkscape:window-height="1176"
     id="namedview37"
     showgrid="true"
     fit-margin-top="0"
     fit-margin-left="0"
     fit-margin-right="0"
     fit-margin-bottom="0"
     inkscape:zoom="0.61364025"
     inkscape:cx="-183.6311"
     inkscape:cy="165.76459"
     inkscape:window-x="0"
     inkscape:window-y="24"
     inkscape:window-maximized="1"
     inkscape:current-layer="svg2"
     inkscape:object-paths="true"
     inkscape:object-nodes="true">
    <inkscape:grid
       type="xygrid"
       id="grid8079"
       originx="-6.7055226e-08"
       originy="180.5" />
  </sodipodi:namedview>
  <!--Generated by the Batik Graphics2D SVG Generator-->
  <defs
     id="genericDefs">
    <inkscape:path-effect
       effect="spiro"
       id="path-effect8083"
       is_visible="true" />
    <inkscape:path-effect
       effect="spiro"
       id="path-effect8083-3"
       is_visible="true" />
  </defs>
  <g
     style="fill:#ffffff;stroke:#ffffff"
     id="g7"
     transform="matrix(50,0,0,50,126,264)">
    <rect
       style="stroke:none"
       id="rect9"
       y="-1.5"
       x="-2"
       width="4"
       height="3" />
    <rect
       style="fill:none;stroke:#000000;stroke-width:0.06"
       id="rect11"
       y="-1.5"
       x="-2"
       width="4"
       height="3" />
    <line
       style="fill:none;stroke:#000000;stroke-width:0.04"
       id="line13"
       y2="-1"
       y1="-1"
       x2="2"
       x1="2.5" />
    <line
       style="fill:none;stroke:#000000;stroke-width:0.04"
       id="line15"
       y2="-1"
       y1="-1"
       x2="-2"
       x1="-2.5" />
    <line
       style="fill:none;stroke:#000000;stroke-width:0.04"
       id="line17"
       y2="1"
       y1="1"
       x2="-2"
       x1="-2.5" />
    <line
       style="fill:none;stroke:#000000;stroke-width:0.04"
       id="line19"
       y2="1"
       y1="1"
       x2="2"
       x1="2.5" />
    <line
       style="fill:none;stroke:#000000;stroke-width:0.04"
       id="line21"
       y2="0"
       y1="0"
       x2="2"
       x1="2.5" />
    <path
       style="fill:#0000ff;stroke:none;stroke-width:0.04"
       inkscape:connector-curvature="0"
       id="path23"
       d="m 1.5544,-1.0392 -0.0466,0.2395 q -0.0135,0.0696 -0.0514,0.1038 -0.038,0.0342 -0.1022,0.0342 -0.0237,0 -0.044,-0.0036 Q 1.29,-0.6688 1.2724,-0.6762 l 0.0083,-0.0436 q 0.0166,0.0107 0.0352,0.0158 0.0185,0.0051 0.0395,0.0051 0.0427,0 0.0702,-0.0233 0.0275,-0.0233 0.0363,-0.067 l 0.0039,-0.0205 q -0.0188,0.0215 -0.0437,0.0327 -0.0249,0.0113 -0.0537,0.0113 -0.0415,0 -0.0654,-0.0275 -0.0238,-0.0275 -0.0238,-0.0756 0,-0.0378 0.0144,-0.0741 0.0145,-0.0362 0.0406,-0.0643 0.0173,-0.0186 0.0404,-0.0286 0.023,-0.01 0.0482,-0.01 0.0276,0 0.0481,0.0128 0.0205,0.0129 0.0305,0.0363 l 0.0078,-0.0425 0.0452,0 z m -0.0676,0.1004 q 0,-0.0332 -0.0157,-0.0513 -0.0156,-0.0181 -0.0444,-0.0181 -0.0178,0 -0.0339,0.0071 -0.0162,0.0071 -0.0276,0.0198 -0.0186,0.021 -0.029,0.0494 -0.0103,0.0284 -0.0103,0.0587 0,0.0337 0.0157,0.0518 0.0158,0.0181 0.0453,0.0181 0.0427,0 0.0713,-0.0387 0.0286,-0.0387 0.0286,-0.0968 z m 0.1193,0.1316 0.0806,0 0.0545,-0.2806 -0.0911,0.0176 0.0085,-0.0425 0.0906,-0.0175 0.0496,0 -0.063,0.323 0.0803,0 -0.0078,0.0415 -0.2102,0 0.008,-0.0415 z" />
    <path
       style="fill:#ff0000;stroke:none;stroke-width:0.04"
       inkscape:connector-curvature="0"
       id="path25"
       d="m -1.55,-1.0234 -0.0085,0.0424 q -0.0179,-0.0097 -0.0376,-0.0146 -0.0198,-0.0049 -0.0408,-0.0049 -0.0354,0 -0.0558,0.0121 -0.0204,0.0121 -0.0204,0.0328 0,0.0242 0.0474,0.0371 0.0036,0.001 0.0054,0.0015 l 0.0143,0.0044 q 0.045,0.0125 0.06,0.0261 0.015,0.0137 0.015,0.0374 0,0.0434 -0.0345,0.0708 -0.0346,0.0273 -0.0905,0.0273 -0.0217,0 -0.0456,-0.0041 -0.024,-0.0042 -0.0528,-0.013 l 0.0088,-0.0463 q 0.0247,0.0126 0.0486,0.0192 0.0239,0.0066 0.0459,0.0066 0.0329,0 0.0536,-0.0141 0.0206,-0.0142 0.0206,-0.0359 0,-0.0235 -0.0542,-0.0379 l -0.0046,-0.0012 -0.0154,-0.0039 q -0.0342,-0.009 -0.0501,-0.0238 -0.0158,-0.0148 -0.0158,-0.0377 0,-0.0437 0.0328,-0.0694 0.0328,-0.0256 0.0892,-0.0256 0.0223,0 0.0434,0.0037 0.0211,0.0036 0.0416,0.011 z m 0.102,-0.1145 0.045,0 -0.011,0.0568 -0.0449,0 0.0109,-0.0568 z m -0.0205,0.1064 0.045,0 -0.0535,0.2734 -0.0449,0 0.0534,-0.2734 z m 0.366,0 -0.0466,0.2395 q -0.0135,0.0696 -0.0514,0.1038 -0.038,0.0341 -0.1022,0.0341 -0.0237,0 -0.0439,-0.0035 -0.0203,-0.0035 -0.0379,-0.0109 l 0.0083,-0.0436 q 0.0166,0.0107 0.0352,0.0158 0.0185,0.0051 0.0395,0.0051 0.0428,0 0.0702,-0.0233 0.0275,-0.0233 0.0363,-0.067 l 0.0039,-0.0205 q -0.0188,0.0215 -0.0437,0.0327 -0.0249,0.0112 -0.0537,0.0112 -0.0415,0 -0.0653,-0.0274 -0.0238,-0.0275 -0.0238,-0.0756 0,-0.0378 0.0144,-0.0741 0.0144,-0.0362 0.0405,-0.0643 0.0173,-0.0186 0.0404,-0.0286 0.0231,-0.01 0.0482,-0.01 0.0276,0 0.0481,0.0128 0.0205,0.0129 0.0305,0.0363 l 0.0079,-0.0425 0.0451,0 z m -0.0676,0.1004 q 0,-0.0333 -0.0156,-0.0513 -0.0157,-0.0181 -0.0445,-0.0181 -0.0178,0 -0.0339,0.0071 -0.0161,0.0071 -0.0276,0.0198 -0.0186,0.021 -0.0289,0.0494 -0.0104,0.0284 -0.0104,0.0587 0,0.0337 0.0157,0.0518 0.0158,0.0181 0.0453,0.0181 0.0428,0 0.0713,-0.0387 0.0286,-0.0387 0.0286,-0.0968 z m 0.1194,0.1315 0.0805,0 0.0545,-0.2805 -0.0911,0.0176 0.0086,-0.0425 0.0905,-0.0176 0.0496,0 -0.063,0.323 0.0803,0 -0.0078,0.0415 -0.2102,0 0.0081,-0.0415 z" />
    <path
       style="fill:#ff0000;stroke:none;stroke-width:0.04"
       inkscape:connector-curvature="0"
       id="path27"
       d="M -1.55,0.9766 -1.5585,1.019 Q -1.5764,1.0093 -1.5961,1.0044 -1.6159,0.9995 -1.6369,0.9995 q -0.0354,0 -0.0558,0.0121 -0.0204,0.0121 -0.0204,0.0328 0,0.0242 0.0474,0.0371 0.0036,0.001 0.0054,0.0015 l 0.0143,0.0044 q 0.045,0.0125 0.06,0.0261 0.015,0.0137 0.015,0.0374 0,0.0434 -0.0345,0.0708 -0.0346,0.0273 -0.0905,0.0273 -0.0217,0 -0.0456,-0.0041 -0.024,-0.0042 -0.0528,-0.013 l 0.0088,-0.0463 q 0.0247,0.0126 0.0486,0.0192 0.0239,0.0066 0.0459,0.0066 0.0329,0 0.0536,-0.0141 0.0206,-0.0142 0.0206,-0.0359 0,-0.0235 -0.0542,-0.0379 L -1.6757,1.1223 -1.6911,1.1184 Q -1.7253,1.1094 -1.7412,1.0946 -1.757,1.0798 -1.757,1.0569 q 0,-0.0437 0.0328,-0.0694 0.0328,-0.0256 0.0892,-0.0256 0.0223,0 0.0434,0.0037 0.0211,0.0036 0.0416,0.011 z m 0.102,-0.1145 0.045,0 -0.011,0.0568 -0.0449,0 0.0109,-0.0568 z m -0.0205,0.1064 0.045,0 -0.0535,0.2734 -0.0449,0 0.0534,-0.2734 z m 0.366,0 -0.0466,0.2395 q -0.0135,0.0696 -0.0514,0.1038 -0.038,0.0341 -0.1022,0.0341 -0.0237,0 -0.0439,-0.0035 -0.0203,-0.0035 -0.0379,-0.0109 l 0.0083,-0.0436 q 0.0166,0.0107 0.0352,0.0158 0.0185,0.0051 0.0395,0.0051 0.0428,0 0.0702,-0.0233 0.0275,-0.0233 0.0363,-0.067 L -1.1911,1.198 q -0.0188,0.0215 -0.0437,0.0327 -0.0249,0.0112 -0.0537,0.0112 -0.0415,0 -0.0653,-0.0274 -0.0238,-0.0275 -0.0238,-0.0756 0,-0.0378 0.0144,-0.0741 0.0144,-0.0362 0.0405,-0.0643 0.0173,-0.0186 0.0404,-0.0286 0.0231,-0.01 0.0482,-0.01 0.0276,0 0.0481,0.0128 0.0205,0.0129 0.0305,0.0363 l 0.0079,-0.0425 0.0451,0 z m -0.0676,0.1004 q 0,-0.0333 -0.0156,-0.0513 -0.0157,-0.0181 -0.0445,-0.0181 -0.0178,0 -0.0339,0.0071 -0.0161,0.0071 -0.0276,0.0198 -0.0186,0.021 -0.0289,0.0494 -0.0104,0.0284 -0.0104,0.0587 0,0.0337 0.0157,0.0518 0.0158,0.0181 0.0453,0.0181 0.0428,0 0.0713,-0.0387 0.0286,-0.0387 0.0286,-0.0968 z m 0.3174,-0.003 -0.1575,0.135 0.1741,0 -0.0086,0.041 -0.2365,0 0.008,-0.0415 0.1646,-0.1411 q 0.0329,-0.0285 0.0467,-0.0501 0.0138,-0.0216 0.0138,-0.0443 0,-0.0237 -0.0166,-0.0386 -0.0166,-0.0149 -0.0435,-0.0149 -0.0231,0 -0.0515,0.0083 -0.0283,0.0083 -0.0605,0.0242 l 0.009,-0.0489 q 0.0303,-0.0119 0.0579,-0.018 0.0276,-0.0061 0.051,-0.0061 0.0479,0 0.077,0.0253 0.0292,0.0254 0.0292,0.0667 0,0.0278 -0.0139,0.0531 -0.0139,0.0253 -0.0427,0.0499 z" />
    <path
       style="fill:#0000ff;stroke:none;stroke-width:0.04"
       inkscape:connector-curvature="0"
       id="path29"
       d="M 1.5097,0.9641 1.4631,1.2036 Q 1.4496,1.2732 1.4117,1.3074 1.3737,1.3415 1.3095,1.3415 1.2858,1.3415 1.2656,1.338 1.2453,1.3345 1.2277,1.3271 L 1.236,1.2835 q 0.0166,0.0107 0.0352,0.0158 0.0185,0.0051 0.0395,0.0051 0.0428,0 0.0702,-0.0233 0.0275,-0.0233 0.0363,-0.067 L 1.4211,1.1936 Q 1.4023,1.2151 1.3774,1.2263 1.3525,1.2375 1.3237,1.2375 1.2822,1.2375 1.2584,1.2101 1.2346,1.1826 1.2346,1.1345 1.2346,1.0967 1.249,1.0604 1.2634,1.0242 1.2895,0.9961 1.3068,0.9775 1.3299,0.9675 q 0.0231,-0.01 0.0482,-0.01 0.0276,0 0.0481,0.0128 0.0205,0.0129 0.0305,0.0363 l 0.0079,-0.0425 0.0451,0 z M 1.4421,1.0645 Q 1.4421,1.0312 1.4265,1.0132 1.4108,0.9951 1.382,0.9951 1.3642,0.9951 1.3481,1.0022 1.332,1.0093 1.3205,1.022 1.3019,1.043 1.2916,1.0714 1.2812,1.0998 1.2812,1.1301 q 0,0.0337 0.0157,0.0518 Q 1.3127,1.2 1.3422,1.2 1.385,1.2 1.4135,1.1613 1.4421,1.1226 1.4421,1.0645 Z m 0.3174,-0.003 -0.1575,0.135 0.1741,0 -0.0086,0.041 -0.2365,0 L 1.539,1.196 1.7036,1.0549 Q 1.7365,1.0264 1.7503,1.0048 1.7641,0.9832 1.7641,0.9605 1.7641,0.9368 1.7475,0.9219 1.7309,0.907 1.704,0.907 1.6809,0.907 1.6525,0.9153 1.6242,0.9236 1.592,0.9395 L 1.601,0.8906 q 0.0303,-0.0119 0.0579,-0.018 0.0276,-0.0061 0.051,-0.0061 0.0479,0 0.077,0.0253 0.0292,0.0254 0.0292,0.0667 0,0.0278 -0.0139,0.0531 -0.0139,0.0253 -0.0427,0.0499 z" />
    <path
       style="fill:#ff0000;stroke:none;stroke-width:0.04"
       inkscape:connector-curvature="0"
       id="path31"
       d="M 1.278,-0.0695 1.269,-0.025 Q 1.2529,-0.0367 1.2347,-0.0426 1.2165,-0.0485 1.197,-0.0485 q -0.0215,0 -0.0409,0.0076 Q 1.1367,-0.0333 1.1235,-0.0194 1.1025,0.0018 1.091,0.0304 1.0795,0.059 1.0795,0.0895 q 0,0.0368 0.0185,0.0549 0.0184,0.0181 0.056,0.0181 0.0186,0 0.0394,-0.0056 Q 1.2143,0.1512 1.237,0.14 L 1.2285,0.1845 Q 1.2089,0.1925 1.1883,0.1965 1.1677,0.2006 1.146,0.2006 1.0915,0.2006 1.0622,0.1733 1.0329,0.1461 1.0329,0.0956 q 0,-0.0425 0.0153,-0.0783 0.0152,-0.0357 0.0453,-0.0643 0.0205,-0.0195 0.0481,-0.0295 0.0276,-0.01 0.0603,-0.01 0.019,0 0.0378,0.0042 0.0188,0.0043 0.0383,0.0128 z m 0.2183,-0.0105 -0.0068,0.035 -0.0896,0 -0.0291,0.1484 q -0.0015,0.0083 -0.0022,0.0139 -7e-4,0.0056 -7e-4,0.0088 0,0.0156 0.0094,0.0227 0.0094,0.0071 0.0301,0.0071 l 0.0454,0 -0.0075,0.0376 -0.043,0 q -0.04,0 -0.0597,-0.0156 Q 1.323,0.1622 1.323,0.1305 q 0,-0.0056 7e-4,-0.0123 7e-4,-0.0067 0.0022,-0.0148 l 0.029,-0.1484 -0.038,0 0.007,-0.035 0.0374,0 0.0151,-0.0776 0.0449,0 -0.0148,0.0776 0.0898,0 z m 0.2075,0.0415 Q 1.697,-0.0421 1.6882,-0.0441 1.6794,-0.046 1.6694,-0.046 1.6335,-0.046 1.6067,-0.0188 1.5798,0.0084 1.571,0.0541 l -0.0276,0.1394 -0.0449,0 0.0535,-0.2735 0.0449,0 -0.0086,0.0425 q 0.0179,-0.0237 0.0426,-0.0364 0.0248,-0.0126 0.0529,-0.0126 0.0073,0 0.0144,8e-4 0.0071,9e-4 0.0142,0.0028 l -0.0086,0.0444 z m 0.0742,-0.1479 0.045,0 -0.074,0.3799 -0.0449,0 0.0739,-0.3799 z" />
  </g>
  <g
     style="font-size:0.5px;font-family:sans-serif;stroke-width:0.04"
     id="g33"
     transform="matrix(50,0,0,50,126,264)"
     font-size="0.5px">
    <path
       style="stroke:none"
       inkscape:connector-curvature="0"
       id="path35"
       d="m -0.9416,-0.2346 0.0498,0 0.0766,0.3081 0.0764,-0.3081 0.0555,0 0.0766,0.3081 0.0764,-0.3081 0.0501,0 -0.0916,0.3645 -0.062,0 -0.0769,-0.3164 -0.0776,0.3164 -0.062,0 -0.0913,-0.3645 z m 0.6486,0.0486 -0.0669,0.1814 0.1341,0 -0.0672,-0.1814 z m -0.0278,-0.0486 0.0559,0 0.1389,0.3645 -0.0512,0 -0.0332,-0.0935 -0.1644,0 -0.0332,0.0935 -0.052,0 0.1392,-0.3645 z m 0.248,0 0.0494,0 0,0.3645 -0.0494,0 0,-0.3645 z m 0.097,0 0.3083,0 0,0.0415 -0.1294,0 0,0.323 -0.0495,0 0,-0.323 -0.1294,0 0,-0.0415 z m 0.3384,0 0.0529,0 0.0906,0.1355 0.0911,-0.1355 0.0529,0 -0.1171,0.175 0.125,0.1895 -0.053,0 -0.1026,-0.155 -0.1032,0.155 -0.0533,0 0.1302,-0.1946 -0.1135,-0.1699 z m 0.4069,0.323 0.1721,0 0,0.0415 -0.2314,0 0,-0.0415 q 0.0281,-0.0291 0.0765,-0.078 0.0485,-0.049 0.061,-0.0631 0.0236,-0.0267 0.033,-0.0451 0.0094,-0.0184 0.0094,-0.0362 0,-0.0291 -0.0204,-0.0474 -0.0203,-0.0183 -0.0531,-0.0183 -0.0231,0 -0.0489,0.008 -0.0258,0.0081 -0.0551,0.0245 l 0,-0.0498 q 0.0298,-0.012 0.0557,-0.0181 0.0259,-0.0061 0.0474,-0.0061 0.0566,0 0.0903,0.0283 0.0337,0.0283 0.0337,0.0757 0,0.0225 -0.0084,0.0426 Q 0.9228,-0.0745 0.9006,-0.0471 0.8945,-0.04 0.8618,-0.0062 0.8291,0.0276 0.7695,0.0884 Z" />
  </g>
  <path
     style="fill:none;fill-rule:evenodd;stroke:#ffffff;stroke-width:1px;stroke-linecap:butt;stroke-linejoin:miter;stroke-opacity:1"
     d="m 40,520.5 180,0"
     id="path8081"
     inkscape:path-effect="#path-effect8083"
     inkscape:original-d="m 40,520.5 180,0"
     inkscape:connector-curvature="0"
     sodipodi:nodetypes="cc" />
  <path
     style="font-style:normal;font-weight:normal;font-size:12px;font-family:Dialog;color-interpolation:auto;fill:none;fill-opacity:1;fill-rule:evenodd;stroke:#ffffff;stroke-width:1px;stroke-linecap:butt;stroke-linejoin:miter;stroke-miterlimit:10;stroke-dasharray:none;stroke-dashoffset:0;stroke-opacity:1;color-rendering:auto;image-rendering:auto;shape-rendering:auto;text-rendering:auto"
     d="m 40,0.5 180,0"
     id="path8081-6"
     inkscape:path-effect="#path-effect8083-3"
     inkscape:original-d="m 40,0.5 180,0"
     inkscape:connector-curvature="0"
     sodipodi:nodetypes="cc" />
</svg>
