<?xml version="1.0" encoding="UTF-8" standalone="no"?>
<svg xmlns:dc="http://purl.org/dc/elements/1.1/" xmlns:cc="http://creativecommons.org/ns#" xmlns:rdf="http://www.w3.org/1999/02/22-rdf-syntax-ns#" xmlns:svg="http://www.w3.org/2000/svg" xmlns="http://www.w3.org/2000/svg" xmlns:sodipodi="http://sodipodi.sourceforge.net/DTD/sodipodi-0.dtd" xmlns:inkscape="http://www.inkscape.org/namespaces/inkscape" font-size="12px" font-style="normal" font-weight="normal" height="100%" stroke-miterlimit="10" width="100%" id="svg2" version="1.1" inkscape:version="0.91 r13725" sodipodi:docname="WAIT2-compact.circuit.svg" style="font-style:normal;font-weight:normal;font-size:12px;font-family:Dialog;color-interpolation:auto;fill:#000000;fill-opacity:1;stroke:#000000;stroke-width:1;stroke-linecap:square;stroke-linejoin:miter;stroke-miterlimit:10;stroke-dasharray:none;stroke-dashoffset:0;stroke-opacity:1;color-rendering:auto;image-rendering:auto;shape-rendering:auto;text-rendering:auto" viewBox="0 0 423 278" preserveAspectRatio="xMidYMid slice">
  <metadata
     id="metadata287">
    <rdf:RDF>
      <cc:Work
         rdf:about="">
        <dc:format>image/svg+xml</dc:format>
        <dc:type
           rdf:resource="http://purl.org/dc/dcmitype/StillImage" />
        <dc:title></dc:title>
      </cc:Work>
    </rdf:RDF>
  </metadata>
  <sodipodi:namedview
     pagecolor="#ffffff"
     bordercolor="#666666"
     borderopacity="1"
     objecttolerance="10"
     gridtolerance="10"
     guidetolerance="10"
     inkscape:pageopacity="0"
     inkscape:pageshadow="2"
     inkscape:window-width="1920"
     inkscape:window-height="1176"
     id="namedview285"
     showgrid="false"
     fit-margin-top="0"
     fit-margin-left="0"
     fit-margin-right="0"
     fit-margin-bottom="0"
     inkscape:zoom="1.8132675"
     inkscape:cx="62.96845"
     inkscape:cy="127.81059"
     inkscape:window-x="0"
     inkscape:window-y="24"
     inkscape:window-maximized="1"
     inkscape:current-layer="svg2" />
  <!--Generated by the Batik Graphics2D SVG Generator-->
  <defs
     id="genericDefs" />
  <rect
     height="125"
     width="150"
     x="77.0951"
     y="151.5"
     id="rect9"
     style="fill:#ffffff;stroke:none" />
  <rect
     height="125"
     width="150"
     x="77.0951"
     y="151.5"
     id="rect11"
     style="fill:none;stroke:#000000;stroke-width:3" />
  <line
     x1="52.0951"
     x2="77.0951"
     y1="214"
     y2="214"
     id="line13"
     style="fill:none;stroke:#000000;stroke-width:2" />
  <line
     x1="252.09511"
     x2="227.09511"
     y1="176.5"
     y2="176.5"
     id="line15"
     style="fill:none;stroke:#000000;stroke-width:2" />
  <line
     x1="252.09511"
     x2="227.09511"
     y1="251.5"
     y2="251.5"
     id="line17"
     style="fill:none;stroke:#000000;stroke-width:2" />
  <path
     d="m 99.5951,206.83 -0.425,2.12 q -0.895,-0.485 -1.88,-0.73 -0.99,-0.245 -2.04,-0.245 -1.77,0 -2.79,0.605 -1.02,0.605 -1.02,1.64 0,1.21 2.37,1.855 0.18,0.05 0.27,0.075 l 0.715,0.22 q 2.25,0.625 3,1.305 0.75,0.685 0.75,1.87 0,2.17 -1.725,3.54 -1.73,1.365 -4.525,1.365 -1.085,0 -2.28,-0.205 -1.2,-0.21 -2.64,-0.65 l 0.44,-2.315 q 1.235,0.63 2.43,0.96 1.195,0.33 2.295,0.33 1.645,0 2.68,-0.705 1.03,-0.71 1.03,-1.795 0,-1.175 -2.71,-1.895 l -0.23,-0.06 -0.77,-0.195 q -1.71,-0.45 -2.505,-1.19 -0.79,-0.74 -0.79,-1.885 0,-2.185 1.64,-3.47 1.64,-1.28 4.46,-1.28 1.115,0 2.17,0.185 1.055,0.18 2.08,0.55 z m 5.1,-5.725 2.25,0 -0.55,2.84 -2.245,0 0.545,-2.84 z m -1.025,5.32 2.25,0 -2.675,13.67 -2.245,0 2.67,-13.67 z m 18.3,0 -2.33,11.975 q -0.675,3.48 -2.57,5.19 -1.9,1.705 -5.11,1.705 -1.185,0 -2.195,-0.175 -1.015,-0.175 -1.895,-0.545 l 0.415,-2.18 q 0.83,0.535 1.76,0.79 0.925,0.255 1.975,0.255 2.14,0 3.51,-1.165 1.375,-1.165 1.815,-3.35 l 0.195,-1.025 q -0.94,1.075 -2.185,1.635 -1.245,0.56 -2.685,0.56 -2.075,0 -3.265,-1.37 -1.19,-1.375 -1.19,-3.78 0,-1.89 0.72,-3.705 0.72,-1.81 2.025,-3.215 0.865,-0.93 2.02,-1.43 1.155,-0.5 2.41,-0.5 1.38,0 2.405,0.64 1.025,0.645 1.525,1.815 l 0.395,-2.125 2.255,0 z m -3.38,5.02 q 0,-1.665 -0.78,-2.565 -0.785,-0.905 -2.225,-0.905 -0.89,0 -1.695,0.355 -0.805,0.355 -1.38,0.99 -0.93,1.05 -1.445,2.47 -0.52,1.42 -0.52,2.935 0,1.685 0.785,2.59 0.79,0.905 2.265,0.905 2.14,0 3.565,-1.935 1.43,-1.935 1.43,-4.84 z"
     id="path19"
     inkscape:connector-curvature="0"
     style="fill:#ff0000;stroke:none;stroke-width:0.04" />
  <path
     d="m 187.3851,170.41 -0.43,2.12 q -0.89,-0.485 -1.88,-0.73 -0.99,-0.245 -2.035,-0.245 -1.775,0 -2.79,0.605 -1.02,0.605 -1.02,1.64 0,1.21 2.365,1.855 0.185,0.05 0.27,0.075 l 0.72,0.22 q 2.245,0.625 2.995,1.305 0.755,0.685 0.755,1.87 0,2.17 -1.73,3.54 -1.725,1.365 -4.52,1.365 -1.09,0 -2.285,-0.205 -1.195,-0.21 -2.635,-0.65 l 0.44,-2.315 q 1.23,0.635 2.43,0.96 1.195,0.33 2.295,0.33 1.645,0 2.675,-0.705 1.035,-0.71 1.035,-1.795 0,-1.17 -2.71,-1.895 l -0.235,-0.06 -0.765,-0.195 q -1.71,-0.45 -2.505,-1.19 -0.795,-0.74 -0.795,-1.885 0,-2.185 1.645,-3.465 1.64,-1.285 4.46,-1.285 1.11,0 2.165,0.185 1.06,0.185 2.085,0.55 z m 13.95,5.47 -1.525,7.8 -2.245,0 0.415,-2.075 q -0.99,1.22 -2.255,1.82 -1.26,0.605 -2.81,0.605 -1.75,0 -2.865,-1.065 -1.115,-1.07 -1.115,-2.74 0,-2.395 1.91,-3.785 1.91,-1.395 5.265,-1.395 l 3.125,0 0.125,-0.595 q 0.025,-0.1 0.035,-0.215 0.01,-0.115 0.01,-0.36 0,-1.085 -0.885,-1.69 -0.885,-0.605 -2.48,-0.605 -1.1,0 -2.255,0.28 -1.155,0.28 -2.375,0.845 l 0.39,-2.075 q 1.27,-0.48 2.485,-0.715 1.215,-0.24 2.35,-0.24 2.42,0 3.68,1.05 1.265,1.05 1.265,3.055 0,0.4 -0.06,0.945 -0.06,0.54 -0.185,1.155 z m -2.43,0.925 -2.245,0 q -2.76,0 -4.085,0.74 -1.32,0.735 -1.32,2.285 0,1.075 0.675,1.685 0.68,0.615 1.875,0.615 1.83,0 3.2,-1.315 1.365,-1.31 1.805,-3.51 l 0.095,-0.5 z m 18.25,-1.38 -1.6,8.255 -2.255,0 1.6,-8.17 q 0.105,-0.575 0.17,-1.01 0.06,-0.44 0.06,-0.7 0,-1.025 -0.65,-1.595 -0.645,-0.575 -1.805,-0.575 -1.805,0 -3.11,1.2 -1.305,1.205 -1.71,3.265 l -1.5,7.585 -2.25,0 2.65,-13.675 2.245,0 -0.45,2.15 q 0.94,-1.185 2.26,-1.83 1.315,-0.65 2.77,-0.65 1.805,0 2.8,0.98 0.995,0.975 0.995,2.745 0,0.44 -0.055,0.94 -0.055,0.5 -0.165,1.085 z"
     id="path21"
     inkscape:connector-curvature="0"
     style="fill:#0000ff;stroke:none;stroke-width:0.04" />
  <path
     d="m 190.9951,246.025 -0.45,2.225 q -0.805,-0.585 -1.715,-0.88 -0.91,-0.295 -1.885,-0.295 -1.075,0 -2.045,0.38 -0.97,0.38 -1.63,1.075 -1.05,1.06 -1.625,2.49 -0.575,1.43 -0.575,2.955 0,1.84 0.925,2.745 0.92,0.905 2.8,0.905 0.93,0 1.97,-0.28 1.045,-0.28 2.18,-0.845 l -0.425,2.225 q -0.98,0.4 -2.01,0.6 -1.03,0.205 -2.115,0.205 -2.725,0 -4.19,-1.365 -1.465,-1.36 -1.465,-3.885 0,-2.125 0.765,-3.915 0.76,-1.785 2.265,-3.215 1.025,-0.975 2.405,-1.475 1.38,-0.5 3.015,-0.5 0.95,0 1.89,0.21 0.94,0.215 1.915,0.64 z m 10.915,-0.525 -0.34,1.75 -4.48,0 -1.455,7.42 q -0.075,0.415 -0.11,0.695 -0.035,0.28 -0.035,0.44 0,0.78 0.47,1.135 0.47,0.355 1.505,0.355 l 2.27,0 -0.375,1.88 -2.15,0 q -2,0 -2.985,-0.78 -0.98,-0.785 -0.98,-2.37 0,-0.28 0.035,-0.615 0.035,-0.335 0.11,-0.74 l 1.45,-7.42 -1.9,0 0.35,-1.75 1.87,0 0.755,-3.88 2.245,0 -0.74,3.88 4.49,0 z m 10.375,2.075 q -0.34,-0.18 -0.78,-0.28 -0.44,-0.095 -0.94,-0.095 -1.795,0 -3.135,1.36 -1.345,1.36 -1.785,3.645 l -1.38,6.97 -2.245,0 2.675,-13.675 2.245,0 -0.43,2.125 q 0.895,-1.185 2.13,-1.82 1.24,-0.63 2.645,-0.63 0.365,0 0.72,0.04 0.355,0.045 0.71,0.14 l -0.43,2.22 z m 3.71,-7.395 2.25,0 -3.7,18.995 -2.245,0 3.695,-18.995 z"
     id="path23"
     inkscape:connector-curvature="0"
     style="fill:#ff0000;stroke:none;stroke-width:0.04" />
  <g
     style="font-size:0.5px;font-family:sans-serif;stroke-width:0.04"
     id="g25"
     transform="matrix(50,0,0,50,157.595,214)"
     font-size="0.5px">
    <path
       style="stroke:none"
       inkscape:connector-curvature="0"
       id="path27"
       d="m -0.3871,-0.2369 0.0498,0 0.0767,0.3081 0.0764,-0.3081 0.0554,0 0.0767,0.3081 0.0764,-0.3081 0.05,0 -0.0915,0.3645 -0.062,0 -0.0769,-0.3164 -0.0777,0.3164 -0.062,0 -0.0913,-0.3645 z m 0.6487,0.0486 -0.0669,0.1814 0.134,0 -0.0671,-0.1814 z m -0.0278,-0.0486 0.0559,0 0.1389,0.3645 -0.0513,0 -0.0332,-0.0935 -0.1643,0 -0.0332,0.0935 -0.052,0 0.1392,-0.3645 z m 0.248,0 0.0493,0 0,0.3645 -0.0493,0 0,-0.3645 z m 0.0969,0 0.3084,0 0,0.0415 -0.1294,0 0,0.323 -0.0496,0 0,-0.323 -0.1294,0 0,-0.0415 z" />
  </g>
  <rect
     height="125"
     width="150"
     x="77.095001"
     y="1.5"
     id="rect31"
     style="font-size:medium;font-family:sans-serif;fill:#ffffff;stroke:none;stroke-width:0.04" />
  <rect
     height="125"
     width="150"
     x="77.095001"
     y="1.5"
     id="rect33"
     style="font-size:medium;font-family:sans-serif;fill:none;stroke:#000000;stroke-width:3" />
  <line
     x1="52.095001"
     x2="77.095001"
     y1="64"
     y2="64"
     id="line35"
     style="font-size:medium;font-family:sans-serif;fill:none;stroke:#000000;stroke-width:2" />
  <line
     x1="252.09502"
     x2="227.09502"
     y1="101.5"
     y2="101.5"
     id="line37"
     style="font-size:medium;font-family:sans-serif;fill:none;stroke:#000000;stroke-width:2" />
  <line
     x1="252.09502"
     x2="227.09502"
     y1="26.5"
     y2="26.5"
     id="line39"
     style="font-size:medium;font-family:sans-serif;fill:none;stroke:#000000;stroke-width:2" />
  <path
     d="m 99.595,56.83 -0.425,2.12 q -0.895,-0.485 -1.88,-0.73 -0.99,-0.245 -2.04,-0.245 -1.77,0 -2.79,0.605 -1.02,0.605 -1.02,1.64 0,1.21 2.37,1.855 0.18,0.05 0.27,0.075 l 0.715,0.22 q 2.25,0.625 3,1.305 0.75,0.685 0.75,1.87 0,2.17 -1.725,3.54 -1.73,1.365 -4.525,1.365 -1.085,0 -2.28,-0.205 -1.2,-0.21 -2.64,-0.65 l 0.44,-2.315 q 1.235,0.63 2.43,0.96 1.195,0.33 2.295,0.33 1.645,0 2.68,-0.705 1.03,-0.71 1.03,-1.795 0,-1.175 -2.71,-1.895 l -0.23,-0.06 -0.77,-0.195 q -1.71,-0.45 -2.505,-1.19 -0.79,-0.74 -0.79,-1.885 0,-2.185 1.64,-3.47 1.64,-1.28 4.46,-1.28 1.115,0 2.17,0.185 1.055,0.18 2.08,0.55 z m 5.1,-5.725 2.25,0 -0.55,2.84 -2.245,0 0.545,-2.84 z m -1.025,5.32 2.25,0 -2.675,13.67 -2.245,0 2.67,-13.67 z m 18.3,0 -2.33,11.975 q -0.675,3.48 -2.57,5.19 -1.9,1.705 -5.11,1.705 -1.185,0 -2.195,-0.175 -1.015,-0.175 -1.895,-0.545 l 0.415,-2.18 q 0.83,0.535 1.76,0.79 0.925,0.255 1.975,0.255 2.14,0 3.51,-1.165 1.375,-1.165 1.815,-3.35 L 117.54,67.9 q -0.94,1.075 -2.185,1.635 -1.245,0.56 -2.685,0.56 -2.075,0 -3.265,-1.37 -1.19,-1.375 -1.19,-3.78 0,-1.89 0.72,-3.705 0.72,-1.81 2.025,-3.215 0.865,-0.93 2.02,-1.43 1.155,-0.5 2.41,-0.5 1.38,0 2.405,0.64 1.025,0.645 1.525,1.815 l 0.395,-2.125 2.255,0 z m -3.38,5.02 q 0,-1.665 -0.78,-2.565 -0.785,-0.905 -2.225,-0.905 -0.89,0 -1.695,0.355 -0.805,0.355 -1.38,0.99 -0.93,1.05 -1.445,2.47 -0.52,1.42 -0.52,2.935 0,1.685 0.785,2.59 0.79,0.905 2.265,0.905 2.14,0 3.565,-1.935 1.43,-1.935 1.43,-4.84 z"
     id="path41"
     inkscape:connector-curvature="0"
     style="font-size:medium;font-family:sans-serif;fill:#ff0000;stroke:none;stroke-width:0.04" />
  <path
     d="m 187.385,95.41 -0.43,2.12 q -0.89,-0.485 -1.88,-0.73 -0.99,-0.245 -2.035,-0.245 -1.775,0 -2.79,0.605 -1.02,0.605 -1.02,1.64 0,1.21 2.365,1.855 0.185,0.05 0.27,0.075 l 0.72,0.22 q 2.245,0.625 2.995,1.305 0.755,0.685 0.755,1.87 0,2.17 -1.73,3.54 -1.725,1.365 -4.52,1.365 -1.09,0 -2.285,-0.205 -1.195,-0.21 -2.635,-0.65 l 0.44,-2.315 q 1.23,0.635 2.43,0.96 1.195,0.33 2.295,0.33 1.645,0 2.675,-0.705 1.035,-0.71 1.035,-1.795 0,-1.17 -2.71,-1.895 l -0.235,-0.06 -0.765,-0.195 q -1.71,-0.45 -2.505,-1.19 -0.795,-0.74 -0.795,-1.885 0,-2.185 1.645,-3.465 1.64,-1.285 4.46,-1.285 1.11,0 2.165,0.185 1.06,0.185 2.085,0.55 z m 13.95,5.47 -1.525,7.8 -2.245,0 0.415,-2.075 q -0.99,1.22 -2.255,1.82 -1.26,0.605 -2.81,0.605 -1.75,0 -2.865,-1.065 -1.115,-1.07 -1.115,-2.74 0,-2.395 1.91,-3.785 1.91,-1.395 5.265,-1.395 l 3.125,0 0.125,-0.595 q 0.025,-0.1 0.035,-0.215 0.01,-0.115 0.01,-0.36 0,-1.085 -0.885,-1.69 -0.885,-0.605 -2.48,-0.605 -1.1,0 -2.255,0.28 -1.155,0.28 -2.375,0.845 l 0.39,-2.075 q 1.27,-0.48 2.485,-0.715 1.215,-0.24 2.35,-0.24 2.42,0 3.68,1.05 1.265,1.05 1.265,3.055 0,0.4 -0.06,0.945 -0.06,0.54 -0.185,1.155 z m -2.43,0.925 -2.245,0 q -2.76,0 -4.085,0.74 -1.32,0.735 -1.32,2.285 0,1.075 0.675,1.685 0.68,0.615 1.875,0.615 1.83,0 3.2,-1.315 1.365,-1.31 1.805,-3.51 l 0.095,-0.5 z m 18.25,-1.38 -1.6,8.255 -2.255,0 1.6,-8.17 q 0.105,-0.575 0.17,-1.01 0.06,-0.44 0.06,-0.7 0,-1.025 -0.65,-1.595 -0.645,-0.575 -1.805,-0.575 -1.805,0 -3.11,1.2 -1.305,1.205 -1.71,3.265 l -1.5,7.585 -2.25,0 2.65,-13.675 2.245,0 -0.45,2.15 q 0.94,-1.185 2.26,-1.83 1.315,-0.65 2.77,-0.65 1.805,0 2.8,0.98 0.995,0.975 0.995,2.745 0,0.44 -0.055,0.94 -0.055,0.5 -0.165,1.085 z"
     id="path43"
     inkscape:connector-curvature="0"
     style="font-size:medium;font-family:sans-serif;fill:#0000ff;stroke:none;stroke-width:0.04" />
  <path
     d="m 190.995,21.025 -0.45,2.225 q -0.805,-0.585 -1.715,-0.88 -0.91,-0.295 -1.885,-0.295 -1.075,0 -2.045,0.38 -0.97,0.38 -1.63,1.075 -1.05,1.06 -1.625,2.49 -0.575,1.43 -0.575,2.955 0,1.84 0.925,2.745 0.92,0.905 2.8,0.905 0.93,0 1.97,-0.28 1.045,-0.28 2.18,-0.845 l -0.425,2.225 q -0.98,0.4 -2.01,0.6 -1.03,0.205 -2.115,0.205 -2.725,0 -4.19,-1.365 -1.465,-1.36 -1.465,-3.885 0,-2.125 0.765,-3.915 0.76,-1.785 2.265,-3.215 1.025,-0.975 2.405,-1.475 1.38,-0.5 3.015,-0.5 0.95,0 1.89,0.21 0.94,0.215 1.915,0.64 z m 10.915,-0.525 -0.34,1.75 -4.48,0 -1.455,7.42 q -0.075,0.415 -0.11,0.695 -0.035,0.28 -0.035,0.44 0,0.78 0.47,1.135 0.47,0.355 1.505,0.355 l 2.27,0 -0.375,1.88 -2.15,0 q -2,0 -2.985,-0.78 -0.98,-0.785 -0.98,-2.37 0,-0.28 0.035,-0.615 0.035,-0.335 0.11,-0.74 l 1.45,-7.42 -1.9,0 0.35,-1.75 1.87,0 0.755,-3.88 2.245,0 -0.74,3.88 4.49,0 z m 10.375,2.075 q -0.34,-0.18 -0.78,-0.28 -0.44,-0.095 -0.94,-0.095 -1.795,0 -3.135,1.36 -1.345,1.36 -1.785,3.645 l -1.38,6.97 -2.245,0 2.675,-13.675 2.245,0 -0.43,2.125 q 0.895,-1.185 2.13,-1.82 1.24,-0.63 2.645,-0.63 0.365,0 0.72,0.04 0.355,0.045 0.71,0.14 l -0.43,2.22 z m 3.71,-7.395 2.25,0 -3.7,18.995 -2.245,0 3.695,-18.995 z"
     id="path45"
     inkscape:connector-curvature="0"
     style="font-size:medium;font-family:sans-serif;fill:#ff0000;stroke:none;stroke-width:0.04" />
  <g
     style="font-size:0.5px;font-family:sans-serif;stroke-width:0.04"
     id="g47"
     transform="matrix(50,0,0,50,159.595,64)"
     font-size="0.5px">
    <path
       style="stroke:none"
       inkscape:connector-curvature="0"
       id="path49"
       d="m -0.5288,-0.2321 0.0498,0 0.0767,0.3081 0.0764,-0.3081 0.0554,0 0.0767,0.3081 0.0764,-0.3081 0.05,0 -0.0915,0.3645 -0.062,0 -0.0769,-0.3164 -0.0777,0.3164 -0.062,0 -0.0913,-0.3645 z m 0.6487,0.0485 -0.0669,0.1814 0.134,0 -0.0671,-0.1814 z m -0.0279,-0.0485 0.0559,0 0.139,0.3645 -0.0513,0 -0.0332,-0.0935 -0.1643,0 -0.0332,0.0935 -0.052,0 0.1391,-0.3645 z m 0.2481,0 0.0493,0 0,0.3645 -0.0493,0 0,-0.3645 z m 0.0969,0 0.3084,0 0,0.0415 -0.1294,0 0,0.323 -0.0496,0 0,-0.323 -0.1294,0 0,-0.0415 z m 0.4658,0.0324 q -0.0381,0 -0.0572,0.0375 -0.0192,0.0375 -0.0192,0.1127 0,0.0749 0.0192,0.1124 0.0191,0.0375 0.0572,0.0375 0.0384,0 0.0575,-0.0375 0.0192,-0.0375 0.0192,-0.1124 0,-0.0752 -0.0192,-0.1127 -0.0191,-0.0375 -0.0575,-0.0375 z m 0,-0.039 q 0.0613,0 0.0937,0.0484 0.0323,0.0485 0.0323,0.1408 0,0.092 -0.0323,0.1405 -0.0324,0.0484 -0.0937,0.0484 -0.0612,0 -0.0936,-0.0484 -0.0324,-0.0485 -0.0324,-0.1405 0,-0.0923 0.0324,-0.1408 0.0324,-0.0484 0.0936,-0.0484 z" />
  </g>
  <g
     style="font-size:0.5px;font-family:sans-serif;fill:#ffffff;stroke:#ffffff;stroke-width:0.06"
     id="g51"
     transform="matrix(50,0,0,50,27.095,139)"
     font-size="0.5px">
    <path
       style="stroke:none"
       inkscape:connector-curvature="0"
       id="path53"
       d="M -0.13,-0.13 0,-0.13 0.13,0 0,0.13 l -0.13,0 z" />
    <path
       style="fill:none;stroke:#000000"
       inkscape:connector-curvature="0"
       id="path55"
       d="M -0.13,-0.13 0,-0.13 0.13,0 0,0.13 l -0.13,0 z" />
  </g>
  <g
     style="font-style:italic;font-size:0.5px;font-family:sans-serif;fill:#ff0000;stroke:#ff0000;stroke-width:0.06"
     id="g57"
     transform="matrix(50,0,0,50,51.095,113)"
     font-style="italic"
     font-size="0.5px">
    <path
       style="stroke:none"
       inkscape:connector-curvature="0"
       id="path59"
       d="m -0.7775,-0.096 -0.0086,0.0425 q -0.0178,-0.0098 -0.0375,-0.0147 -0.0198,-0.0049 -0.0408,-0.0049 -0.0354,0 -0.0558,0.0121 -0.0204,0.0121 -0.0204,0.0328 0,0.0242 0.0474,0.0372 0.0036,9e-4 0.0053,0.0014 l 0.0144,0.0044 q 0.045,0.0125 0.06,0.0261 0.015,0.0137 0.015,0.0374 0,0.0435 -0.0346,0.0708 -0.0345,0.0273 -0.0904,0.0273 -0.0217,0 -0.0457,-0.0041 -0.0239,-0.0042 -0.0527,-0.013 L -1.0131,0.113 q 0.0247,0.0127 0.0486,0.0193 0.0239,0.0065 0.0459,0.0065 0.0329,0 0.0536,-0.0141 0.0206,-0.0142 0.0206,-0.0359 0,-0.0234 -0.0542,-0.0378 L -0.9032,0.0497 -0.9186,0.0458 Q -0.9528,0.0368 -0.9687,0.022 -0.9845,0.0073 -0.9845,-0.0157 q 0,-0.0437 0.0328,-0.0693 0.0328,-0.0257 0.0892,-0.0257 0.0222,0 0.0434,0.0037 0.0211,0.0037 0.0416,0.011 z m 0.102,-0.1145 0.045,0 -0.011,0.0569 -0.0449,0 0.0109,-0.0569 z m -0.0205,0.1064 0.045,0 -0.0535,0.2735 -0.0449,0 0.0534,-0.2735 z m 0.366,0 -0.0466,0.2395 Q -0.3901,0.205 -0.428,0.2392 -0.466,0.2734 -0.5302,0.2734 -0.5539,0.2734 -0.5741,0.2698 -0.5944,0.2663 -0.612,0.259 l 0.0083,-0.0437 q 0.0166,0.0107 0.0352,0.0158 0.0185,0.0052 0.0395,0.0052 0.0428,0 0.0702,-0.0234 0.0275,-0.0233 0.0363,-0.067 l 0.0039,-0.0205 q -0.0188,0.0215 -0.0437,0.0327 -0.0249,0.0113 -0.0537,0.0113 -0.0415,0 -0.0653,-0.0275 -0.0238,-0.0275 -0.0238,-0.0756 0,-0.0378 0.0144,-0.0741 0.0144,-0.0362 0.0405,-0.0643 0.0173,-0.0186 0.0404,-0.0286 0.0231,-0.01 0.0482,-0.01 0.0276,0 0.0481,0.0129 0.0205,0.0128 0.0305,0.0362 l 0.0078,-0.0425 0.0452,0 z m -0.0676,0.1004 q 0,-0.0332 -0.0156,-0.0513 -0.0157,-0.0181 -0.0445,-0.0181 -0.0178,0 -0.0339,0.0071 -0.0161,0.0071 -0.0276,0.0198 -0.0186,0.021 -0.0289,0.0494 -0.0104,0.0285 -0.0104,0.0587 0,0.0337 0.0157,0.0518 0.0158,0.0181 0.0453,0.0181 0.0428,0 0.0713,-0.0387 0.0286,-0.0387 0.0286,-0.0968 z" />
  </g>
  <g
     style="font-style:italic;font-size:0.5px;font-family:sans-serif;stroke-width:0.06"
     id="g61"
     transform="matrix(50,0,0,50,52.095,139)"
     font-style="italic"
     font-size="0.5px">
    <circle
       style="stroke:none"
       id="circle63"
       r="0.125"
       cy="0"
       cx="0" />
  </g>
  <g
     style="font-style:italic;font-size:0.5px;font-family:sans-serif;fill:#ffffff;stroke:#ffffff;stroke-width:0.06"
     id="g65"
     transform="matrix(50,0,0,50,389.595,139)"
     font-style="italic"
     font-size="0.5px">
    <path
       style="stroke:none"
       inkscape:connector-curvature="0"
       id="path67"
       d="M -0.13,-0.13 0,-0.13 0.13,0 0,0.13 l -0.13,0 z" />
    <path
       style="fill:none;stroke:#000000"
       inkscape:connector-curvature="0"
       id="path69"
       d="M -0.13,-0.13 0,-0.13 0.13,0 0,0.13 l -0.13,0 z" />
  </g>
  <g
     style="font-style:italic;font-size:0.5px;font-family:sans-serif;fill:#0000ff;stroke:#0000ff;stroke-width:0.06"
     id="g71"
     transform="matrix(50,0,0,50,363.595,121)"
     font-style="italic"
     font-size="0.5px">
    <path
       style="stroke:none"
       inkscape:connector-curvature="0"
       id="path73"
       d="M 0.5744,-0.1649 0.5658,-0.1224 Q 0.548,-0.1322 0.5282,-0.1371 0.5085,-0.1419 0.4875,-0.1419 q -0.0354,0 -0.0558,0.012 -0.0204,0.0121 -0.0204,0.0329 0,0.0241 0.0474,0.0371 0.0036,0.001 0.0053,0.0015 l 0.0144,0.0043 q 0.045,0.0125 0.06,0.0262 0.015,0.0136 0.015,0.0373 0,0.0435 -0.0346,0.0708 Q 0.4843,0.1076 0.4284,0.1076 0.4067,0.1076 0.3827,0.1034 0.3588,0.0993 0.33,0.0905 L 0.3388,0.0441 Q 0.3635,0.0568 0.3874,0.0634 0.4113,0.07 0.4333,0.07 q 0.0329,0 0.0536,-0.0142 0.0206,-0.0142 0.0206,-0.0359 0,-0.0234 -0.0542,-0.0378 L 0.4487,-0.0191 0.4333,-0.023 Q 0.3991,-0.0321 0.3832,-0.0468 0.3674,-0.0616 0.3674,-0.0846 q 0,-0.0437 0.0328,-0.0693 0.0328,-0.0256 0.0892,-0.0256 0.0222,0 0.0434,0.0036 0.0211,0.0037 0.0416,0.011 z m 0.2791,0.1094 -0.0306,0.156 -0.0449,0 L 0.7863,0.059 Q 0.7665,0.0834 0.7413,0.0955 0.716,0.1076 0.685,0.1076 0.6501,0.1076 0.6277,0.0862 0.6054,0.0648 0.6054,0.0314 q 0,-0.0478 0.0382,-0.0757 0.0382,-0.0278 0.1054,-0.0278 l 0.0625,0 0.0024,-0.012 q 5e-4,-0.0019 7e-4,-0.0043 3e-4,-0.0023 3e-4,-0.0072 0,-0.0217 -0.0177,-0.0338 -0.0177,-0.012 -0.0497,-0.012 -0.022,0 -0.0451,0.0056 -0.023,0.0056 -0.0474,0.0168 l 0.0078,-0.0415 q 0.0254,-0.0095 0.0497,-0.0143 0.0242,-0.0047 0.047,-0.0047 0.0483,0 0.0736,0.021 0.0252,0.021 0.0252,0.061 0,0.0081 -0.0012,0.0189 -0.0012,0.0109 -0.0036,0.0231 z m -0.0486,0.0185 -0.045,0 q -0.0551,0 -0.0816,0.0148 -0.0265,0.0148 -0.0265,0.0458 0,0.0215 0.0135,0.0337 0.0136,0.0122 0.0375,0.0122 0.0366,0 0.064,-0.0263 0.0273,-0.0262 0.0361,-0.0701 l 0.002,-0.0101 z m 0.3649,-0.0276 -0.0319,0.1651 -0.0452,0 0.032,-0.1633 q 0.0022,-0.0115 0.0034,-0.0203 0.0012,-0.0088 0.0012,-0.0139 0,-0.0205 -0.0129,-0.032 -0.013,-0.0115 -0.0361,-0.0115 -0.0362,0 -0.0623,0.0241 -0.0261,0.024 -0.0342,0.0653 l -0.03,0.1516 -0.0449,0 0.0529,-0.2734 0.045,0 -0.0091,0.0429 q 0.0188,-0.0237 0.0452,-0.0366 0.0264,-0.0129 0.0554,-0.0129 0.0362,0 0.056,0.0195 0.0199,0.0195 0.0199,0.0549 0,0.0088 -0.0011,0.0188 -0.001,0.01 -0.0033,0.0217 z" />
  </g>
  <g
     style="font-style:italic;font-size:0.5px;font-family:sans-serif;fill:#ffffff;stroke:#ffffff;stroke-width:0.06"
     id="g75"
     transform="matrix(-50,0,0,-50,389.595,176.5)"
     font-style="italic"
     font-size="0.5px">
    <path
       style="stroke:none"
       inkscape:connector-curvature="0"
       id="path77"
       d="M -0.13,-0.13 0,-0.13 0.13,0 0,0.13 l -0.13,0 z" />
    <path
       style="fill:none;stroke:#000000"
       inkscape:connector-curvature="0"
       id="path79"
       d="M -0.13,-0.13 0,-0.13 0.13,0 0,0.13 l -0.13,0 z" />
  </g>
  <g
     style="font-style:italic;font-size:0.5px;font-family:sans-serif;fill:#ff0000;stroke:#ff0000;stroke-width:0.06"
     id="g81"
     transform="matrix(50,0,0,50,365.595,196.5)"
     font-style="italic"
     font-size="0.5px">
    <path
       style="stroke:none"
       inkscape:connector-curvature="0"
       id="path83"
       d="m 0.5751,-0.1275 -0.009,0.0444 Q 0.55,-0.0948 0.5318,-0.1006 0.5136,-0.1065 0.4941,-0.1065 q -0.0215,0 -0.0409,0.0076 -0.0195,0.0075 -0.0326,0.0214 -0.021,0.0213 -0.0325,0.0499 -0.0115,0.0285 -0.0115,0.059 0,0.0369 0.0185,0.055 0.0184,0.018 0.056,0.018 0.0185,0 0.0394,-0.0056 Q 0.5114,0.0932 0.5341,0.082 L 0.5255,0.1264 Q 0.506,0.1345 0.4854,0.1385 0.4648,0.1425 0.443,0.1425 0.3886,0.1425 0.3593,0.1153 0.33,0.0881 0.33,0.0375 q 0,-0.0424 0.0153,-0.0782 0.0152,-0.0358 0.0452,-0.0643 0.0205,-0.0196 0.0481,-0.0296 0.0276,-0.01 0.0603,-0.01 0.0191,0 0.0379,0.0043 0.0188,0.0043 0.0383,0.0128 z m 0.2183,-0.0105 -0.0069,0.0349 -0.0896,0 -0.029,0.1484 q -0.0015,0.0084 -0.0022,0.014 -7e-4,0.0056 -7e-4,0.0087 0,0.0157 0.0094,0.0228 0.0094,0.007 0.0301,0.007 l 0.0454,0 -0.0075,0.0376 -0.043,0 Q 0.6593,0.1354 0.6397,0.1198 0.62,0.1042 0.62,0.0725 q 0,-0.0057 8e-4,-0.0124 7e-4,-0.0067 0.0022,-0.0148 l 0.029,-0.1484 -0.0381,0 0.0071,-0.0349 0.0374,0 0.0151,-0.0776 0.0449,0 -0.0149,0.0776 0.0899,0 z m 0.2075,0.0415 q -0.0068,-0.0037 -0.0156,-0.0056 -0.0088,-0.002 -0.0188,-0.002 -0.0359,0 -0.0628,0.0273 -0.0268,0.0272 -0.0356,0.0728 l -0.0276,0.1394 -0.0449,0 0.0534,-0.2734 0.045,0 -0.0086,0.0425 q 0.0178,-0.0237 0.0426,-0.0364 0.0248,-0.0127 0.0529,-0.0127 0.0073,0 0.0144,9e-4 0.0071,8e-4 0.0141,0.0028 l -0.0085,0.0444 z m 0.0742,-0.148 0.0449,0 -0.0739,0.3799 -0.045,0 0.074,-0.3799 z" />
  </g>
  <g
     style="font-style:italic;font-size:0.5px;font-family:sans-serif;fill:#ffffff;stroke:#ffffff;stroke-width:0.06"
     id="g85"
     transform="matrix(-50,0,0,-50,309.595,251.5)"
     font-style="italic"
     font-size="0.5px">
    <path
       style="stroke:none"
       inkscape:connector-curvature="0"
       id="path87"
       d="m -0.2,-0.5 c 0.5,0 0.85,0.25 1,0.5 -0.15,0.25 -0.5,0.5 -1,0.5 q 0.3333,-0.5 0,-1 z" />
    <path
       style="fill:none;stroke:#000000"
       inkscape:connector-curvature="0"
       id="path89"
       d="m -0.2,-0.5 c 0.5,0 0.85,0.25 1,0.5 -0.15,0.25 -0.5,0.5 -1,0.5 q 0.3333,-0.5 0,-1 z" />
    <circle
       style="stroke:none"
       id="circle91"
       transform="translate(-0.225,-0.25)"
       r="0.15000001"
       cy="0"
       cx="0" />
    <circle
       style="fill:none;stroke:#000000"
       id="circle93"
       transform="translate(-0.225,-0.25)"
       r="0.15000001"
       cy="0"
       cx="0" />
    <circle
       style="stroke:none"
       id="circle95"
       transform="translate(0.8,0)"
       r="0.15000001"
       cy="0"
       cx="0" />
    <circle
       style="fill:none;stroke:#000000"
       id="circle97"
       transform="translate(0.8,0)"
       r="0.15000001"
       cy="0"
       cx="0" />
    <line
       style="fill:none;stroke:#000000;stroke-width:0.04"
       id="line99"
       y2="0"
       y1="0"
       x2="-1"
       x1="-0.80000001"
       transform="matrix(-1,0,0,-1,0.15,0)" />
    <line
       style="fill:none;stroke:#000000;stroke-width:0.04"
       id="line101"
       y2="0.25"
       y1="0.25"
       x2="0.75"
       x1="0.52499998"
       transform="matrix(-1,0,0,-1,0.15,0)" />
    <line
       style="fill:none;stroke:#000000;stroke-width:0.04"
       id="line103"
       y2="-0.25"
       y1="-0.25"
       x2="0.75"
       x1="0.22499999"
       transform="matrix(-1,0,0,-1,0.15,0)" />
  </g>
  <g
     style="font-style:italic;font-size:0.5px;font-family:sans-serif;fill:#ffffff;stroke:#ffffff;stroke-width:0.06"
     id="g105"
     transform="matrix(50,0,0,50,289.595,139)"
     font-style="italic"
     font-size="0.5px">
    <path
       style="stroke:none"
       inkscape:connector-curvature="0"
       id="path107"
       d="m -0.2562,-0.5 0.2499,0 c 0.75,0 0.75,1 0,1 l -0.2499,0 z" />
    <path
       style="fill:none;stroke:#000000"
       inkscape:connector-curvature="0"
       id="path109"
       d="m -0.2562,-0.5 0.2499,0 c 0.75,0 0.75,1 0,1 l -0.2499,0 z" />
    <circle
       style="stroke:none"
       id="circle111"
       transform="translate(-0.4062,-0.25)"
       r="0.15000001"
       cy="0"
       cx="0" />
    <circle
       style="fill:none;stroke:#000000"
       id="circle113"
       transform="translate(-0.4062,-0.25)"
       r="0.15000001"
       cy="0"
       cx="0" />
  </g>
  <g
     style="font-style:italic;font-size:0.5px;font-family:sans-serif;stroke-width:0.04"
     id="g115"
     transform="matrix(50,0,0,50,289.595,139)"
     font-style="italic"
     font-size="0.5px">
    <line
       style="fill:none"
       id="line117"
       y2="0"
       y1="0"
       x2="1"
       x1="0.55629998" />
    <line
       style="fill:none"
       id="line119"
       y2="-0.25"
       y1="-0.25"
       x2="-0.75"
       x1="-0.55620003" />
    <line
       style="fill:none"
       id="line121"
       y2="0.25"
       y1="0.25"
       x2="-0.75"
       x1="-0.25619999" />
    <path
       style="fill:none"
       inkscape:connector-curvature="0"
       id="path123"
       d="m 0.225,-0.1299 a 0.15,0.15 0 1 0 0,0.2598" />
    <circle
       style="stroke:none"
       id="circle125"
       transform="translate(1,0)"
       r="0.125"
       cy="0"
       cx="0" />
  </g>
  <g
     style="font-style:italic;font-size:0.5px;font-family:sans-serif;fill:#ffffff;stroke:#ffffff;stroke-width:0.06"
     id="g127"
     transform="matrix(-50,0,0,-50,309.595,26.5)"
     font-style="italic"
     font-size="0.5px">
    <path
       style="stroke:none"
       inkscape:connector-curvature="0"
       id="path129"
       d="m -0.2,-0.5 c 0.5,0 0.85,0.25 1,0.5 -0.15,0.25 -0.5,0.5 -1,0.5 q 0.3333,-0.5 0,-1 z" />
    <path
       style="fill:none;stroke:#000000"
       inkscape:connector-curvature="0"
       id="path131"
       d="m -0.2,-0.5 c 0.5,0 0.85,0.25 1,0.5 -0.15,0.25 -0.5,0.5 -1,0.5 q 0.3333,-0.5 0,-1 z" />
    <circle
       style="stroke:none"
       id="circle133"
       transform="translate(-0.225,-0.25)"
       r="0.15000001"
       cy="0"
       cx="0" />
    <circle
       style="fill:none;stroke:#000000"
       id="circle135"
       transform="translate(-0.225,-0.25)"
       r="0.15000001"
       cy="0"
       cx="0" />
    <circle
       style="stroke:none"
       id="circle137"
       transform="translate(0.8,0)"
       r="0.15000001"
       cy="0"
       cx="0" />
    <circle
       style="fill:none;stroke:#000000"
       id="circle139"
       transform="translate(0.8,0)"
       r="0.15000001"
       cy="0"
       cx="0" />
    <line
       style="fill:none;stroke:#000000;stroke-width:0.04"
       id="line141"
       y2="0"
       y1="0"
       x2="-1"
       x1="-0.80000001"
       transform="matrix(-1,0,0,-1,0.15,0)" />
    <line
       style="fill:none;stroke:#000000;stroke-width:0.04"
       id="line143"
       y2="0.25"
       y1="0.25"
       x2="0.75"
       x1="0.52499998"
       transform="matrix(-1,0,0,-1,0.15,0)" />
    <line
       style="fill:none;stroke:#000000;stroke-width:0.04"
       id="line145"
       y2="-0.25"
       y1="-0.25"
       x2="0.75"
       x1="0.22499999"
       transform="matrix(-1,0,0,-1,0.15,0)" />
  </g>
  <g
     style="font-style:italic;font-size:0.5px;font-family:sans-serif;stroke-width:0.04"
     id="g147"
     transform="matrix(50,0,0,50,364.595,176.5)"
     font-style="italic"
     font-size="0.5px">
    <circle
       style="stroke:none"
       id="circle149"
       r="0.125"
       cy="0"
       cx="0" />
  </g>
  <g
     style="font-style:italic;font-size:0.5px;font-family:sans-serif;stroke-width:0.04"
     id="g151"
     transform="matrix(50,0,0,50,252.095,214)"
     font-style="italic"
     font-size="0.5px">
    <path
       style="fill:none"
       inkscape:connector-curvature="0"
       id="path153"
       d="m -4.37,-1.5 0.245,0" />
    <path
       style="stroke:none"
       inkscape:connector-curvature="0"
       id="path155"
       d="m -4.125,-1.575 0,0.15 0,-0.075 z" />
  </g>
  <g
     style="font-style:italic;font-size:0.5px;font-family:sans-serif;stroke-width:0.04"
     id="g157"
     transform="matrix(50,0,0,50,252.095,214)"
     font-style="italic"
     font-size="0.5px">
    <path
       style="fill:none"
       inkscape:connector-curvature="0"
       id="path159"
       d="m -4,-1.375 0,1.265" />
    <path
       style="stroke:none"
       inkscape:connector-curvature="0"
       id="path161"
       d="m -3.925,-0.11 -0.15,0 0.075,0 z" />
  </g>
  <g
     style="font-style:italic;font-size:0.5px;font-family:sans-serif;stroke-width:0.04"
     id="g163"
     transform="matrix(50,0,0,50,252.095,214)"
     font-style="italic"
     font-size="0.5px">
    <line
       style="fill:none"
       id="line165"
       y2="0"
       y1="-0.11"
       x2="-4"
       x1="-4" />
  </g>
  <g
     style="font-style:italic;font-size:0.5px;font-family:sans-serif;stroke-width:0.04"
     id="g167"
     transform="matrix(50,0,0,50,252.095,214)"
     font-style="italic"
     font-size="0.5px">
    <path
       style="fill:none"
       inkscape:connector-curvature="0"
       id="path169"
       d="M -4,-1.625 -4,-2.89" />
    <path
       style="stroke:none"
       inkscape:connector-curvature="0"
       id="path171"
       d="m -4.075,-2.89 0.15,0 -0.075,0 z" />
  </g>
  <g
     style="font-style:italic;font-size:0.5px;font-family:sans-serif;stroke-width:0.04"
     id="g173"
     transform="matrix(50,0,0,50,252.095,214)"
     font-style="italic"
     font-size="0.5px">
    <line
       style="fill:none"
       id="line175"
       y2="-3"
       y1="-2.8900001"
       x2="-4"
       x1="-4" />
  </g>
  <g
     style="font-style:italic;font-size:0.5px;font-family:sans-serif;stroke-width:0.04"
     id="g177"
     transform="matrix(50,0,0,50,252.095,214)"
     font-style="italic"
     font-size="0.5px">
    <path
       style="fill:none"
       inkscape:connector-curvature="0"
       id="path179"
       d="m 2.62,-0.75 -0.245,0" />
    <path
       style="stroke:none"
       inkscape:connector-curvature="0"
       id="path181"
       d="m 2.375,-0.675 0,-0.15 0,0.075 z" />
  </g>
  <g
     style="font-style:italic;font-size:0.5px;font-family:sans-serif;stroke-width:0.04"
     id="g183"
     transform="matrix(50,0,0,50,252.095,214)"
     font-style="italic"
     font-size="0.5px">
    <path
       style="fill:none"
       inkscape:connector-curvature="0"
       id="path185"
       d="M 0,-0.86 0,-1.14" />
    <path
       style="stroke:none"
       inkscape:connector-curvature="0"
       id="path187"
       d="m -0.075,-1.14 0.15,0 -0.075,0 z" />
  </g>
  <g
     style="font-style:italic;font-size:0.5px;font-family:sans-serif;stroke-width:0.04"
     id="g189"
     transform="matrix(50,0,0,50,252.095,214)"
     font-style="italic"
     font-size="0.5px">
    <line
       style="fill:none"
       id="line191"
       y2="-0.86000001"
       y1="-0.75"
       x2="0"
       x1="0" />
    <line
       style="fill:none"
       id="line193"
       y2="-1.25"
       y1="-1.14"
       x2="0"
       x1="0" />
  </g>
  <g
     style="font-style:italic;font-size:0.5px;font-family:sans-serif;stroke-width:0.04"
     id="g195"
     transform="matrix(50,0,0,50,252.095,214)"
     font-style="italic"
     font-size="0.5px">
    <path
       style="fill:none"
       inkscape:connector-curvature="0"
       id="path197"
       d="m 0,-3.75 0,0" />
    <path
       style="stroke:none"
       inkscape:connector-curvature="0"
       id="path199"
       d="m -0.075,-3.75 0.15,0 -0.075,0 z" />
  </g>
  <g
     style="font-style:italic;font-size:0.5px;font-family:sans-serif;stroke-width:0.04"
     id="g201"
     transform="matrix(50,0,0,50,252.095,214)"
     font-style="italic"
     font-size="0.5px">
    <line
       style="fill:none"
       id="line203"
       y2="-3.75"
       y1="-3.75"
       x2="0"
       x1="0" />
    <line
       style="fill:none"
       id="line205"
       y2="-3.75"
       y1="-3.75"
       x2="0"
       x1="0" />
  </g>
  <g
     style="font-style:italic;font-size:0.5px;font-family:sans-serif;stroke-width:0.04"
     id="g207"
     transform="matrix(50,0,0,50,252.095,214)"
     font-style="italic"
     font-size="0.5px">
    <path
       style="fill:none"
       inkscape:connector-curvature="0"
       id="path209"
       d="m 0,0.75 0,0" />
    <path
       style="stroke:none"
       inkscape:connector-curvature="0"
       id="path211"
       d="m 0.075,0.75 -0.15,0 0.075,0 z" />
  </g>
  <g
     style="font-style:italic;font-size:0.5px;font-family:sans-serif;stroke-width:0.04"
     id="g213"
     transform="matrix(50,0,0,50,252.095,214)"
     font-style="italic"
     font-size="0.5px">
    <line
       style="fill:none"
       id="line215"
       y2="0.75"
       y1="0.75"
       x2="0"
       x1="0" />
    <line
       style="fill:none"
       id="line217"
       y2="0.75"
       y1="0.75"
       x2="0"
       x1="0" />
  </g>
  <g
     style="font-style:italic;font-size:0.5px;font-family:sans-serif;stroke-width:0.04"
     id="g219"
     transform="matrix(50,0,0,50,252.095,214)"
     font-style="italic"
     font-size="0.5px">
    <path
       style="fill:none"
       inkscape:connector-curvature="0"
       id="path221"
       d="M 2.25,-0.875 2.25,-4 1.86,-4" />
    <path
       style="stroke:none"
       inkscape:connector-curvature="0"
       id="path223"
       d="m 1.86,-3.925 0,-0.15 0,0.075 z" />
  </g>
  <g
     style="font-style:italic;font-size:0.5px;font-family:sans-serif;stroke-width:0.04"
     id="g225"
     transform="matrix(50,0,0,50,252.095,214)"
     font-style="italic"
     font-size="0.5px">
    <line
       style="fill:none"
       id="line227"
       y2="-4"
       y1="-4"
       x2="1.75"
       x1="1.86" />
  </g>
  <g
     style="font-style:italic;font-size:0.5px;font-family:sans-serif;stroke-width:0.04"
     id="g229"
     transform="matrix(50,0,0,50,252.095,214)"
     font-style="italic"
     font-size="0.5px">
    <path
       style="fill:none"
       inkscape:connector-curvature="0"
       id="path231"
       d="M 2.25,-0.625 2.25,1 1.86,1" />
    <path
       style="stroke:none"
       inkscape:connector-curvature="0"
       id="path233"
       d="m 1.86,1.075 0,-0.15 0,0.075 z" />
  </g>
  <g
     style="font-style:italic;font-size:0.5px;font-family:sans-serif;stroke-width:0.04"
     id="g235"
     transform="matrix(50,0,0,50,252.095,214)"
     font-style="italic"
     font-size="0.5px">
    <line
       style="fill:none"
       id="line237"
       y2="1"
       y1="1"
       x2="1.75"
       x1="1.86" />
  </g>
  <g
     style="font-style:italic;font-size:0.5px;font-family:sans-serif;stroke-width:0.04"
     id="g239"
     transform="matrix(50,0,0,50,252.095,214)"
     font-style="italic"
     font-size="0.5px">
    <path
       style="fill:none"
       inkscape:connector-curvature="0"
       id="path241"
       d="m 0,-2.14 0,0.28" />
    <path
       style="stroke:none"
       inkscape:connector-curvature="0"
       id="path243"
       d="m 0.075,-1.86 -0.15,0 0.075,0 z" />
  </g>
  <g
     style="font-style:italic;font-size:0.5px;font-family:sans-serif;stroke-width:0.04"
     id="g245"
     transform="matrix(50,0,0,50,252.095,214)"
     font-style="italic"
     font-size="0.5px">
    <line
       style="fill:none"
       id="line247"
       y2="-2.1400001"
       y1="-2.25"
       x2="0"
       x1="0" />
    <line
       style="fill:none"
       id="line249"
       y2="-1.75"
       y1="-1.86"
       x2="0"
       x1="0" />
  </g>
  <g
     style="font-style:italic;font-size:0.5px;font-family:sans-serif;stroke-width:0.04"
     id="g251"
     transform="matrix(50,0,0,50,252.095,214)"
     font-style="italic"
     font-size="0.5px">
    <path
       style="fill:none"
       inkscape:connector-curvature="0"
       id="path253"
       d="m 1.86,-1.5 0.76,0" />
    <path
       style="stroke:none"
       inkscape:connector-curvature="0"
       id="path255"
       d="m 2.62,-1.575 0,0.15 0,-0.075 z" />
  </g>
  <g
     style="font-style:italic;font-size:0.5px;font-family:sans-serif;stroke-width:0.04"
     id="g257"
     transform="matrix(50,0,0,50,252.095,214)"
     font-style="italic"
     font-size="0.5px">
    <line
       style="fill:none"
       id="line259"
       y2="-1.5"
       y1="-1.5"
       x2="1.86"
       x1="1.75" />
  </g>
  <g
     style="font-style:italic;font-size:0.5px;font-family:sans-serif;stroke-width:0.04"
     id="g261"
     transform="matrix(50,0,0,50,252.095,214)"
     font-style="italic"
     font-size="0.5px">
    <path
       style="fill:none"
       inkscape:connector-curvature="0"
       id="path263"
       d="m 1.75,-1.61 0,-1.78" />
    <path
       style="stroke:none"
       inkscape:connector-curvature="0"
       id="path265"
       d="m 1.675,-3.39 0.15,0 -0.075,0 z" />
  </g>
  <g
     style="font-style:italic;font-size:0.5px;font-family:sans-serif;stroke-width:0.04"
     id="g267"
     transform="matrix(50,0,0,50,252.095,214)"
     font-style="italic"
     font-size="0.5px">
    <line
       style="fill:none"
       id="line269"
       y2="-1.61"
       y1="-1.5"
       x2="1.75"
       x1="1.75" />
    <line
       style="fill:none"
       id="line271"
       y2="-3.5"
       y1="-3.3900001"
       x2="1.75"
       x1="1.75" />
  </g>
  <g
     style="font-style:italic;font-size:0.5px;font-family:sans-serif;stroke-width:0.04"
     id="g273"
     transform="matrix(50,0,0,50,252.095,214)"
     font-style="italic"
     font-size="0.5px">
    <path
       style="fill:none"
       inkscape:connector-curvature="0"
       id="path275"
       d="m 1.75,-1.39 0,1.78" />
    <path
       style="stroke:none"
       inkscape:connector-curvature="0"
       id="path277"
       d="m 1.825,0.39 -0.15,0 0.075,0 z" />
  </g>
  <g
     style="font-style:italic;font-size:0.5px;font-family:sans-serif;stroke-width:0.04"
     id="g279"
     transform="matrix(50,0,0,50,252.095,214)"
     font-style="italic"
     font-size="0.5px">
    <line
       style="fill:none"
       id="line281"
       y2="-1.39"
       y1="-1.5"
       x2="1.75"
       x1="1.75" />
    <line
       style="fill:none"
       id="line283"
       y2="0.5"
       y1="0.38999999"
       x2="1.75"
       x1="1.75" />
  </g>
</svg>
