<?xml version="1.0" encoding="UTF-8" standalone="no"?>
<svg xmlns:dc="http://purl.org/dc/elements/1.1/" xmlns:cc="http://creativecommons.org/ns#" xmlns:rdf="http://www.w3.org/1999/02/22-rdf-syntax-ns#" xmlns:svg="http://www.w3.org/2000/svg" xmlns="http://www.w3.org/2000/svg" xmlns:sodipodi="http://sodipodi.sourceforge.net/DTD/sodipodi-0.dtd" xmlns:inkscape="http://www.inkscape.org/namespaces/inkscape" font-size="12px" font-style="normal" font-weight="normal" height="100%" stroke-miterlimit="10" width="100%" id="svg2" version="1.1" inkscape:version="0.91 r13725" sodipodi:docname="WAITX.stg.svg" style="font-style:normal;font-weight:normal;font-size:12px;font-family:Dialog;color-interpolation:auto;fill:#000000;fill-opacity:1;stroke:#000000;stroke-width:1;stroke-linecap:square;stroke-linejoin:miter;stroke-miterlimit:10;stroke-dasharray:none;stroke-dashoffset:0;stroke-opacity:1;color-rendering:auto;image-rendering:auto;shape-rendering:auto;text-rendering:auto" viewBox="0 0 755 580" preserveAspectRatio="xMidYMid slice">
  <metadata
     id="metadata223">
    <rdf:RDF>
      <cc:Work
         rdf:about="">
        <dc:format>image/svg+xml</dc:format>
        <dc:type
           rdf:resource="http://purl.org/dc/dcmitype/StillImage" />
        <dc:title></dc:title>
      </cc:Work>
    </rdf:RDF>
  </metadata>
  <sodipodi:namedview
     pagecolor="#ffffff"
     bordercolor="#666666"
     borderopacity="1"
     objecttolerance="10"
     gridtolerance="10"
     guidetolerance="10"
     inkscape:pageopacity="0"
     inkscape:pageshadow="2"
     inkscape:window-width="1920"
     inkscape:window-height="1176"
     id="namedview221"
     showgrid="true"
     inkscape:zoom="1.0805372"
     inkscape:cx="117.04356"
     inkscape:cy="447.87492"
     inkscape:window-x="0"
     inkscape:window-y="24"
     inkscape:window-maximized="1"
     inkscape:current-layer="svg2"
     fit-margin-top="0"
     fit-margin-left="0"
     fit-margin-right="0"
     fit-margin-bottom="0">
    <inkscape:grid
       type="xygrid"
       id="grid8171"
       originx="-52.75"
       originy="8.89442" />
  </sodipodi:namedview>
  <!--Generated by the Batik Graphics2D SVG Generator-->
  <defs
     id="genericDefs">
    <inkscape:path-effect
       effect="spiro"
       id="path-effect8179"
       is_visible="true" />
    <inkscape:path-effect
       effect="spiro"
       id="path-effect8175"
       is_visible="true" />
  </defs>
  <g
     style="font-size:0.75px;font-family:sans-serif;fill:#b20000;stroke:#b20000"
     id="g7"
     transform="matrix(50,0,0,50,122.25,237.33534)"
     font-size="0.75px">
    <path
       style="stroke:none"
       inkscape:connector-curvature="0"
       id="path9"
       d="m -0.7388,-0.144 0,0.0637 q -0.0286,-0.0147 -0.0594,-0.022 -0.0307,-0.0073 -0.0637,-0.0073 -0.0502,0 -0.0752,0.0154 -0.0251,0.0153 -0.0251,0.0461 0,0.0235 0.0179,0.0368 0.018,0.0134 0.0722,0.0255 l 0.023,0.0051 q 0.0718,0.0154 0.102,0.0434 0.0302,0.028 0.0302,0.0782 0,0.0571 -0.0452,0.0904 -0.0452,0.0334 -0.1243,0.0334 -0.033,0 -0.0687,-0.0064 Q -0.9908,0.2518 -1.0303,0.239 l 0,-0.0696 q 0.0373,0.0195 0.0736,0.0292 0.0362,0.0097 0.0717,0.0097 0.0477,0 0.0733,-0.0163 0.0256,-0.0163 0.0256,-0.046 0,-0.0275 -0.0185,-0.0421 Q -0.8231,0.0892 -0.8857,0.0757 L -0.9091,0.0702 Q -0.9717,0.057 -0.9996,0.0297 -1.0274,0.0024 -1.0274,-0.0451 q 0,-0.0579 0.041,-0.0894 0.041,-0.0315 0.1165,-0.0315 0.0373,0 0.0703,0.0055 0.0329,0.0055 0.0608,0.0165 z m 0.1292,-0.0121 0.0674,0 0,0.4101 -0.0674,0 0,-0.4101 z m 0,-0.1597 0.0674,0 0,0.0853 -0.0674,0 0,-0.0853 z m 0.4783,0.36 q 0,-0.0732 -0.0302,-0.1135 -0.0302,-0.0403 -0.0848,-0.0403 -0.0542,0 -0.0844,0.0403 -0.0302,0.0403 -0.0302,0.1135 0,0.0729 0.0302,0.1132 0.0302,0.0402 0.0844,0.0402 0.0546,0 0.0848,-0.0402 0.0302,-0.0403 0.0302,-0.1132 z m 0.0674,0.1589 q 0,0.1048 -0.0465,0.1559 -0.0465,0.051 -0.1425,0.051 -0.0355,0 -0.067,-0.0053 Q -0.3514,0.3994 -0.381,0.3884 l 0,-0.0655 q 0.0296,0.0161 0.0585,0.0238 0.029,0.0077 0.059,0.0077 0.0663,0 0.0992,-0.0346 0.033,-0.0346 0.033,-0.1046 l 0,-0.0333 q -0.0209,0.0362 -0.0535,0.0542 -0.0326,0.0179 -0.078,0.0179 -0.0754,0 -0.1215,-0.0575 -0.0462,-0.0574 -0.0462,-0.1523 0,-0.0952 0.0462,-0.1527 0.0461,-0.0575 0.1215,-0.0575 0.0454,0 0.078,0.0179 0.0326,0.018 0.0535,0.0542 l 0,-0.0622 0.0674,0 0,0.3592 z m 0.1611,-0.0113 0.1209,0 0,-0.4171 -0.1315,0.0263 0,-0.0674 0.1307,-0.0263 0.074,0 0,0.4845 0.1209,0 0,0.0622 -0.315,0 0,-0.0622 z m 0.7291,-0.408 0,0.204 0.204,0 0,0.0623 -0.204,0 0,0.2039 -0.0615,0 0,-0.2039 -0.204,0 0,-0.0623 0.204,0 0,-0.204 0.0615,0 z" />
  </g>
  <g
     style="font-size:0.75px;font-family:sans-serif;fill:#b20000;stroke:#b20000"
     id="g11"
     transform="matrix(50,0,0,50,122.25,537.33474)"
     font-size="0.75px">
    <path
       style="stroke:none"
       inkscape:connector-curvature="0"
       id="path13"
       d="m -0.7388,-0.144 0,0.0637 q -0.0286,-0.0147 -0.0594,-0.022 -0.0307,-0.0073 -0.0637,-0.0073 -0.0502,0 -0.0752,0.0154 -0.0251,0.0153 -0.0251,0.0461 0,0.0235 0.0179,0.0368 0.018,0.0134 0.0722,0.0255 l 0.023,0.0051 q 0.0718,0.0154 0.102,0.0434 0.0302,0.028 0.0302,0.0782 0,0.0571 -0.0452,0.0904 -0.0452,0.0334 -0.1243,0.0334 -0.033,0 -0.0687,-0.0064 Q -0.9908,0.2518 -1.0303,0.239 l 0,-0.0696 q 0.0373,0.0195 0.0736,0.0292 0.0362,0.0097 0.0717,0.0097 0.0477,0 0.0733,-0.0163 0.0256,-0.0163 0.0256,-0.046 0,-0.0275 -0.0185,-0.0421 Q -0.8231,0.0892 -0.8857,0.0757 L -0.9091,0.0702 Q -0.9717,0.057 -0.9996,0.0297 -1.0274,0.0024 -1.0274,-0.0451 q 0,-0.0579 0.041,-0.0894 0.041,-0.0315 0.1165,-0.0315 0.0373,0 0.0703,0.0055 0.0329,0.0055 0.0608,0.0165 z m 0.1292,-0.0121 0.0674,0 0,0.4101 -0.0674,0 0,-0.4101 z m 0,-0.1597 0.0674,0 0,0.0853 -0.0674,0 0,-0.0853 z m 0.4783,0.36 q 0,-0.0732 -0.0302,-0.1135 -0.0302,-0.0403 -0.0848,-0.0403 -0.0542,0 -0.0844,0.0403 -0.0302,0.0403 -0.0302,0.1135 0,0.0729 0.0302,0.1132 0.0302,0.0402 0.0844,0.0402 0.0546,0 0.0848,-0.0402 0.0302,-0.0403 0.0302,-0.1132 z m 0.0674,0.1589 q 0,0.1048 -0.0465,0.1559 -0.0465,0.051 -0.1425,0.051 -0.0355,0 -0.067,-0.0053 Q -0.3514,0.3994 -0.381,0.3884 l 0,-0.0655 q 0.0296,0.0161 0.0585,0.0238 0.029,0.0077 0.059,0.0077 0.0663,0 0.0992,-0.0346 0.033,-0.0346 0.033,-0.1046 l 0,-0.0333 q -0.0209,0.0362 -0.0535,0.0542 -0.0326,0.0179 -0.078,0.0179 -0.0754,0 -0.1215,-0.0575 -0.0462,-0.0574 -0.0462,-0.1523 0,-0.0952 0.0462,-0.1527 0.0461,-0.0575 0.1215,-0.0575 0.0454,0 0.078,0.0179 0.0326,0.018 0.0535,0.0542 l 0,-0.0622 0.0674,0 0,0.3592 z m 0.212,-0.0113 0.2582,0 0,0.0622 -0.3472,0 0,-0.0622 Q 0.1013,0.1482 0.1739,0.0748 0.2466,0.0014 0.2653,-0.0199 0.3008,-0.0598 0.3149,-0.0875 0.329,-0.1151 0.329,-0.1418 q 0,-0.0436 -0.0305,-0.0711 -0.0306,-0.0275 -0.0797,-0.0275 -0.0348,0 -0.0734,0.0121 -0.0386,0.0121 -0.0826,0.0367 l 0,-0.0748 q 0.0447,-0.0179 0.0835,-0.027 0.0388,-0.0092 0.071,-0.0092 0.085,0 0.1355,0.0425 0.0506,0.0425 0.0506,0.1135 0,0.0337 -0.0127,0.0639 Q 0.3781,-0.0525 0.3448,-0.0115 0.3356,-9e-4 0.2866,0.0499 0.2375,0.1006 0.1481,0.1918 Z m 0.6782,-0.408 0,0.204 0.204,0 0,0.0623 -0.204,0 0,0.2039 -0.0615,0 0,-0.2039 -0.204,0 0,-0.0623 0.204,0 0,-0.204 0.0615,0 z" />
  </g>
  <g
     style="font-size:0.75px;font-family:sans-serif;fill:#b20000;stroke:#b20000"
     id="g15"
     transform="matrix(50,0,0,50,497.25,37.334749)"
     font-size="0.75px">
    <path
       style="stroke:none"
       inkscape:connector-curvature="0"
       id="path17"
       d="m -0.3834,-0.1912 0,0.0629 q -0.0286,-0.0157 -0.0573,-0.0236 -0.0288,-0.0079 -0.0581,-0.0079 -0.0655,0 -0.1018,0.0416 -0.0362,0.0416 -0.0362,0.1166 0,0.0751 0.0362,0.1167 0.0363,0.0415 0.1018,0.0415 0.0293,0 0.0581,-0.0078 0.0287,-0.0079 0.0573,-0.0236 l 0,0.0622 q -0.0282,0.0132 -0.0584,0.0198 -0.0302,0.0066 -0.0643,0.0066 -0.0927,0 -0.1472,-0.0582 -0.0546,-0.0583 -0.0546,-0.1572 0,-0.1003 0.0551,-0.1578 0.0551,-0.0575 0.1511,-0.0575 0.0311,0 0.0608,0.0064 0.0296,0.0064 0.0575,0.0193 z m 0.1838,-0.1323 0,0.1165 0.1388,0 0,0.0524 -0.1388,0 0,0.2226 q 0,0.0502 0.0137,0.0645 0.0138,0.0143 0.0559,0.0143 l 0.0692,0 0,0.0564 -0.0692,0 q -0.078,0 -0.1077,-0.0292 -0.0296,-0.0291 -0.0296,-0.106 l 0,-0.2226 -0.0495,0 0,-0.0524 0.0495,0 0,-0.1165 0.0677,0 z M 0.2655,-0.144 Q 0.2542,-0.1506 0.2408,-0.1537 0.2274,-0.1568 0.2113,-0.1568 q -0.0571,0 -0.0877,0.0371 -0.0306,0.0372 -0.0306,0.1068 l 0,0.2161 -0.0677,0 0,-0.4102 0.0677,0 0,0.0637 q 0.0213,-0.0373 0.0553,-0.0555 0.0341,-0.0181 0.0828,-0.0181 0.0069,0 0.0154,9e-4 0.0084,9e-4 0.0186,0.0028 l 4e-4,0.0692 z m 0.0707,-0.2227 0.0674,0 0,0.5699 -0.0674,0 0,-0.5699 z m 0.1743,0.3344 0.1974,0 0,0.06 -0.1974,0 0,-0.06 z" />
  </g>
  <g
     style="font-size:0.75px;font-family:sans-serif;fill:#b20000;stroke:#b20000"
     id="g19"
     transform="matrix(50,0,0,50,497.25,287.33474)"
     font-size="0.75px">
    <path
       style="stroke:none"
       inkscape:connector-curvature="0"
       id="path21"
       d="m -0.5409,-0.1912 0,0.0629 q -0.0286,-0.0157 -0.0573,-0.0236 -0.0288,-0.0079 -0.0581,-0.0079 -0.0655,0 -0.1018,0.0416 -0.0362,0.0416 -0.0362,0.1166 0,0.0751 0.0362,0.1167 0.0363,0.0415 0.1018,0.0415 0.0293,0 0.0581,-0.0078 0.0287,-0.0079 0.0573,-0.0236 l 0,0.0622 q -0.0282,0.0132 -0.0584,0.0198 -0.0302,0.0066 -0.0643,0.0066 -0.0926,0 -0.1472,-0.0582 -0.0546,-0.0583 -0.0546,-0.1572 0,-0.1003 0.0552,-0.1578 0.0551,-0.0575 0.151,-0.0575 0.0312,0 0.0608,0.0064 0.0297,0.0064 0.0575,0.0193 z m 0.1838,-0.1323 0,0.1165 0.1388,0 0,0.0524 -0.1388,0 0,0.2226 q 0,0.0502 0.0138,0.0645 0.0137,0.0143 0.0558,0.0143 l 0.0692,0 0,0.0564 -0.0692,0 q -0.078,0 -0.1076,-0.0292 -0.0297,-0.0291 -0.0297,-0.106 l 0,-0.2226 -0.0494,0 0,-0.0524 0.0494,0 0,-0.1165 0.0677,0 z M 0.108,-0.144 Q 0.0967,-0.1506 0.0833,-0.1537 0.07,-0.1568 0.0538,-0.1568 q -0.0571,0 -0.0877,0.0371 -0.0306,0.0372 -0.0306,0.1068 l 0,0.2161 -0.0677,0 0,-0.4102 0.0677,0 0,0.0637 q 0.0213,-0.0373 0.0553,-0.0555 0.0341,-0.0181 0.0828,-0.0181 0.007,0 0.0154,9e-4 0.0084,9e-4 0.0187,0.0028 l 3e-4,0.0692 z m 0.0707,-0.2227 0.0674,0 0,0.5699 -0.0674,0 0,-0.5699 z m 0.4827,0.0996 0,0.204 0.204,0 0,0.0623 -0.204,0 0,0.204 -0.0615,0 0,-0.204 -0.204,0 0,-0.0623 0.204,0 0,-0.204 0.0615,0 z" />
  </g>
  <g
     style="font-size:0.75px;font-family:sans-serif;fill:#0000b2;stroke:#0000b2"
     id="g23"
     transform="matrix(50,0,0,50,322.25,537.33474)"
     font-size="0.75px">
    <path
       style="stroke:none"
       inkscape:connector-curvature="0"
       id="path25"
       d="m -0.4312,0.0396 q 0,-0.0733 -0.0302,-0.1135 -0.0302,-0.0403 -0.0848,-0.0403 -0.0542,0 -0.0844,0.0403 -0.0302,0.0402 -0.0302,0.1135 0,0.0729 0.0302,0.1131 0.0302,0.0403 0.0844,0.0403 0.0546,0 0.0848,-0.0403 0.0302,-0.0402 0.0302,-0.1131 z m 0.0674,0.1589 q 0,0.1048 -0.0465,0.1558 -0.0466,0.0511 -0.1425,0.0511 -0.0355,0 -0.067,-0.0053 Q -0.6513,0.3948 -0.681,0.3838 l 0,-0.0655 q 0.0297,0.0161 0.0586,0.0238 0.029,0.0077 0.059,0.0077 0.0663,0 0.0992,-0.0346 0.033,-0.0347 0.033,-0.1046 l 0,-0.0333 q -0.0209,0.0362 -0.0535,0.0542 -0.0326,0.0179 -0.078,0.0179 -0.0754,0 -0.1216,-0.0575 -0.0461,-0.0575 -0.0461,-0.1523 0,-0.0952 0.0461,-0.1527 0.0462,-0.0575 0.1216,-0.0575 0.0454,0 0.078,0.0179 0.0326,0.018 0.0535,0.0542 l 0,-0.0622 0.0674,0 0,0.3592 z m 0.212,-0.0113 0.2582,0 0,0.0622 -0.3472,0 0,-0.0622 q 0.0421,-0.0436 0.1148,-0.117 0.0727,-0.0735 0.0914,-0.0947 0.0355,-0.0399 0.0496,-0.0676 0.0141,-0.0276 0.0141,-0.0544 0,-0.0435 -0.0306,-0.071 -0.0305,-0.0275 -0.0796,-0.0275 -0.0348,0 -0.0734,0.0121 -0.0387,0.0121 -0.0826,0.0367 l 0,-0.0748 q 0.0447,-0.0179 0.0835,-0.0271 0.0388,-0.0091 0.071,-0.0091 0.085,0 0.1355,0.0425 0.0506,0.0424 0.0506,0.1135 0,0.0337 -0.0127,0.0639 -0.0126,0.0302 -0.0459,0.0712 -0.0092,0.0106 -0.0583,0.0614 -0.049,0.0507 -0.1384,0.1419 z m 0.6782,-0.408 0,0.204 0.204,0 0,0.0622 -0.204,0 0,0.204 -0.0615,0 0,-0.204 -0.204,0 0,-0.0622 0.204,0 0,-0.204 0.0615,0 z" />
  </g>
  <g
     style="font-size:0.75px;font-family:sans-serif;fill:#0000b2;stroke:#0000b2"
     id="g27"
     transform="matrix(50,0,0,50,322.25,37.334749)"
     font-size="0.75px">
    <path
       style="stroke:none"
       inkscape:connector-curvature="0"
       id="path29"
       d="m -0.4312,0.0361 q 0,-0.0732 -0.0302,-0.1135 -0.0302,-0.0403 -0.0848,-0.0403 -0.0542,0 -0.0844,0.0403 -0.0302,0.0403 -0.0302,0.1135 0,0.0729 0.0302,0.1132 0.0302,0.0403 0.0844,0.0403 0.0546,0 0.0848,-0.0403 0.0302,-0.0403 0.0302,-0.1132 z m 0.0674,0.159 q 0,0.1047 -0.0465,0.1558 -0.0466,0.0511 -0.1425,0.0511 -0.0355,0 -0.067,-0.0053 Q -0.6513,0.3914 -0.681,0.3804 l 0,-0.0656 q 0.0297,0.0161 0.0586,0.0238 0.029,0.0077 0.059,0.0077 0.0663,0 0.0992,-0.0346 0.033,-0.0346 0.033,-0.1046 l 0,-0.0333 q -0.0209,0.0363 -0.0535,0.0542 -0.0326,0.018 -0.078,0.018 -0.0754,0 -0.1216,-0.0575 -0.0461,-0.0575 -0.0461,-0.1524 0,-0.0952 0.0461,-0.1527 0.0462,-0.0575 0.1216,-0.0575 0.0454,0 0.078,0.018 0.0326,0.0179 0.0535,0.0542 l 0,-0.0623 0.0674,0 0,0.3593 z m 0.1611,-0.0114 0.1209,0 0,-0.4171 -0.1315,0.0264 0,-0.0674 0.1307,-0.0264 0.074,0 0,0.4845 0.1208,0 0,0.0623 -0.3149,0 0,-0.0623 z m 0.7291,-0.408 0,0.204 0.204,0 0,0.0623 -0.204,0 0,0.204 -0.0615,0 0,-0.204 -0.204,0 0,-0.0623 0.204,0 0,-0.204 0.0615,0 z" />
  </g>
  <g
     style="font-size:0.75px;font-family:sans-serif;fill:#b20000;stroke:#b20000"
     id="g31"
     transform="matrix(50,0,0,50,122.25,37.334749)"
     font-size="0.75px">
    <path
       style="stroke:none"
       inkscape:connector-curvature="0"
       id="path33"
       d="m -0.5814,-0.144 0,0.0637 q -0.0285,-0.0147 -0.0593,-0.022 -0.0308,-0.0073 -0.0637,-0.0073 -0.0502,0 -0.0753,0.0154 -0.0251,0.0153 -0.0251,0.0461 0,0.0235 0.018,0.0368 0.0179,0.0134 0.0721,0.0255 l 0.0231,0.0051 q 0.0718,0.0154 0.102,0.0434 0.0302,0.028 0.0302,0.0782 0,0.0571 -0.0452,0.0904 -0.0452,0.0334 -0.1243,0.0334 -0.033,0 -0.0687,-0.0064 Q -0.8333,0.2518 -0.8729,0.239 l 0,-0.0696 q 0.0374,0.0195 0.0736,0.0292 0.0363,0.0097 0.0718,0.0097 0.0476,0 0.0733,-0.0163 0.0256,-0.0163 0.0256,-0.046 0,-0.0275 -0.0185,-0.0421 Q -0.6656,0.0892 -0.7282,0.0757 L -0.7517,0.0702 Q -0.8143,0.057 -0.8421,0.0297 -0.8699,0.0024 -0.8699,-0.0451 q 0,-0.0579 0.041,-0.0894 0.041,-0.0315 0.1164,-0.0315 0.0374,0 0.0703,0.0055 0.033,0.0055 0.0608,0.0165 z m 0.1293,-0.0121 0.0674,0 0,0.4101 -0.0674,0 0,-0.4101 z m 0,-0.1597 0.0674,0 0,0.0853 -0.0674,0 0,-0.0853 z m 0.4783,0.36 q 0,-0.0732 -0.0302,-0.1135 -0.0302,-0.0403 -0.0848,-0.0403 -0.0542,0 -0.0844,0.0403 -0.0302,0.0403 -0.0302,0.1135 0,0.0729 0.0302,0.1132 0.0302,0.0402 0.0844,0.0402 0.0546,0 0.0848,-0.0402 Q 0.0262,0.1171 0.0262,0.0442 Z M 0.0936,0.2031 Q 0.0936,0.3079 0.047,0.359 5e-4,0.41 -0.0954,0.41 -0.1309,0.41 -0.1624,0.4047 -0.1939,0.3994 -0.2236,0.3884 l 0,-0.0655 q 0.0297,0.0161 0.0586,0.0238 0.0289,0.0077 0.059,0.0077 0.0663,0 0.0992,-0.0346 0.033,-0.0346 0.033,-0.1046 l 0,-0.0333 Q 0.0053,0.2181 -0.0273,0.2361 -0.0599,0.254 -0.1053,0.254 -0.1807,0.254 -0.2269,0.1965 -0.273,0.1391 -0.273,0.0442 q 0,-0.0952 0.0461,-0.1527 0.0462,-0.0575 0.1216,-0.0575 0.0454,0 0.078,0.0179 0.0326,0.018 0.0535,0.0542 l 0,-0.0622 0.0674,0 0,0.3592 z m 0.1611,-0.0113 0.1209,0 0,-0.4171 -0.1315,0.0263 0,-0.0674 0.1307,-0.0263 0.074,0 0,0.4845 0.1208,0 0,0.0622 -0.3149,0 0,-0.0622 z m 0.4208,-0.1732 0.1974,0 0,0.06 -0.1974,0 0,-0.06 z" />
  </g>
  <g
     style="font-size:0.75px;font-family:sans-serif;fill:#b20000;stroke:#b20000"
     id="g35"
     transform="matrix(50,0,0,50,122.25,337.33474)"
     font-size="0.75px">
    <path
       style="stroke:none"
       inkscape:connector-curvature="0"
       id="path37"
       d="m -0.5814,-0.144 0,0.0637 q -0.0285,-0.0147 -0.0593,-0.022 -0.0308,-0.0073 -0.0637,-0.0073 -0.0502,0 -0.0753,0.0154 -0.0251,0.0153 -0.0251,0.0461 0,0.0235 0.018,0.0368 0.0179,0.0134 0.0721,0.0255 l 0.0231,0.0051 q 0.0718,0.0154 0.102,0.0434 0.0302,0.028 0.0302,0.0782 0,0.0571 -0.0452,0.0904 -0.0452,0.0334 -0.1243,0.0334 -0.033,0 -0.0687,-0.0064 Q -0.8333,0.2518 -0.8729,0.239 l 0,-0.0696 q 0.0374,0.0195 0.0736,0.0292 0.0363,0.0097 0.0718,0.0097 0.0476,0 0.0733,-0.0163 0.0256,-0.0163 0.0256,-0.046 0,-0.0275 -0.0185,-0.0421 Q -0.6656,0.0892 -0.7282,0.0757 L -0.7517,0.0702 Q -0.8143,0.057 -0.8421,0.0297 -0.8699,0.0024 -0.8699,-0.0451 q 0,-0.0579 0.041,-0.0894 0.041,-0.0315 0.1164,-0.0315 0.0374,0 0.0703,0.0055 0.033,0.0055 0.0608,0.0165 z m 0.1293,-0.0121 0.0674,0 0,0.4101 -0.0674,0 0,-0.4101 z m 0,-0.1597 0.0674,0 0,0.0853 -0.0674,0 0,-0.0853 z m 0.4783,0.36 q 0,-0.0732 -0.0302,-0.1135 -0.0302,-0.0403 -0.0848,-0.0403 -0.0542,0 -0.0844,0.0403 -0.0302,0.0403 -0.0302,0.1135 0,0.0729 0.0302,0.1132 0.0302,0.0402 0.0844,0.0402 0.0546,0 0.0848,-0.0402 Q 0.0262,0.1171 0.0262,0.0442 Z M 0.0936,0.2031 Q 0.0936,0.3079 0.047,0.359 5e-4,0.41 -0.0954,0.41 -0.1309,0.41 -0.1624,0.4047 -0.1939,0.3994 -0.2236,0.3884 l 0,-0.0655 q 0.0297,0.0161 0.0586,0.0238 0.0289,0.0077 0.059,0.0077 0.0663,0 0.0992,-0.0346 0.033,-0.0346 0.033,-0.1046 l 0,-0.0333 Q 0.0053,0.2181 -0.0273,0.2361 -0.0599,0.254 -0.1053,0.254 -0.1807,0.254 -0.2269,0.1965 -0.273,0.1391 -0.273,0.0442 q 0,-0.0952 0.0461,-0.1527 0.0462,-0.0575 0.1216,-0.0575 0.0454,0 0.078,0.0179 0.0326,0.018 0.0535,0.0542 l 0,-0.0622 0.0674,0 0,0.3592 z m 0.212,-0.0113 0.2582,0 0,0.0622 -0.3472,0 0,-0.0622 q 0.0421,-0.0436 0.1148,-0.117 0.0727,-0.0734 0.0914,-0.0947 0.0355,-0.0399 0.0496,-0.0676 0.0141,-0.0276 0.0141,-0.0543 0,-0.0436 -0.0306,-0.0711 -0.0306,-0.0275 -0.0796,-0.0275 -0.0348,0 -0.0734,0.0121 -0.0387,0.0121 -0.0826,0.0367 l 0,-0.0748 q 0.0446,-0.0179 0.0835,-0.027 0.0388,-0.0092 0.071,-0.0092 0.085,0 0.1355,0.0425 0.0505,0.0425 0.0505,0.1135 0,0.0337 -0.0126,0.0639 Q 0.5356,-0.0525 0.5023,-0.0115 0.4931,-9e-4 0.444,0.0499 0.395,0.1006 0.3056,0.1918 Z m 0.3699,-0.1732 0.1974,0 0,0.06 -0.1974,0 0,-0.06 z" />
  </g>
  <g
     style="font-size:0.75px;font-family:sans-serif;fill:#ffffff;stroke:#ffffff"
     id="g39"
     transform="matrix(50,0,0,50,222.25,137.33474)"
     font-size="0.75px">
    <circle
       style="stroke:none"
       id="circle41"
       r="0.44999999"
       cy="0"
       cx="0" />
    <circle
       style="fill:none;stroke:#000000;stroke-width:0.1"
       id="circle43"
       r="0.44999999"
       cy="0"
       cx="0" />
  </g>
  <g
     style="font-style:italic;font-size:0.5px;font-family:sans-serif;fill:#595959;stroke:#595959;stroke-width:0.1"
     id="g45"
     transform="matrix(50,0,0,50,222.25,137.33474)"
     font-style="italic"
     font-size="0.5px">
    <path
       style="stroke:none"
       inkscape:connector-curvature="0"
       id="path47"
       d="m -2.1344,0.1715 q -0.0329,0 -0.0774,-0.0154 L -2.204,0.112 q 0.043,0.0234 0.0779,0.0234 0.0207,0 0.0364,-0.0112 0.0156,-0.0113 0.0186,-0.0281 0.0043,-0.0247 -0.0312,-0.0408 l -0.026,-0.0119 q -0.0577,-0.0259 -0.0492,-0.0745 0.006,-0.0347 0.034,-0.0546 0.0281,-0.0199 0.0708,-0.0199 0.0222,0 0.0539,0.0061 l 0.0096,0.002 -0.007,0.04 q -0.0382,-0.0119 -0.0619,-0.0119 -0.0463,0 -0.0522,0.0337 -0.0038,0.0217 0.0287,0.0366 l 0.0215,0.0097 q 0.0364,0.0166 0.0495,0.0351 0.0131,0.0184 0.0083,0.046 -0.0061,0.0349 -0.0376,0.0574 -0.0315,0.0224 -0.0745,0.0224 z m 0.1856,-0.0061 0.0464,-0.2651 0.0481,0 -0.0464,0.2651 -0.0481,0 z m 0.0549,-0.3132 0.0084,-0.0481 0.0481,0 -0.0085,0.0481 -0.048,0 z m 0.0752,0.4014 0.013,-0.0418 q 0.0382,0.0198 0.0788,0.0198 0.0813,0 0.0963,-0.0862 L -1.6232,0.1037 Q -1.6596,0.1593 -1.7204,0.1593 -1.768,0.1593 -1.79,0.1247 -1.812,0.09 -1.8017,0.0311 q 0.0106,-0.0605 0.0492,-0.0986 0.0387,-0.0381 0.0894,-0.0381 0.0445,0 0.0702,0.0362 l 0.0053,-0.0303 0.0483,0 -0.0338,0.1929 q -0.0109,0.0622 -0.0226,0.0921 -0.0117,0.0299 -0.0328,0.049 -0.0374,0.0334 -0.1038,0.0334 -0.0464,0 -0.0864,-0.0141 z m 0.2007,-0.18 0.0193,-0.1101 q -0.026,-0.0329 -0.0633,-0.0329 -0.0332,0 -0.0567,0.0266 -0.0235,0.0266 -0.0316,0.073 -0.0152,0.0871 0.0461,0.0871 0.0417,0 0.0862,-0.0437 z m 0.1527,0.0918 0.0063,-0.0361 0.0722,0 0.05,-0.2852 -0.0755,0.0181 0.0065,-0.0371 0.1259,-0.03 -0.0585,0.3342 0.0722,0 -0.0063,0.0361 -0.1928,0 z m 0.2556,0.0362 0.0063,-0.0362 0.2078,0 -0.0064,0.0362 -0.2077,0 z m 0.3105,-0.0362 0.0063,-0.0361 0.0723,0 0.0499,-0.2852 -0.0754,0.0181 0.0065,-0.0371 0.1258,-0.03 -0.0585,0.3342 0.0723,0 -0.0063,0.0361 -0.1929,0 z" />
  </g>
  <g
     style="font-style:italic;font-size:0.5px;font-family:sans-serif;fill:#ffffff;stroke:#ffffff;stroke-width:0.1"
     id="g49"
     transform="matrix(50,0,0,50,222.25,437.33474)"
     font-style="italic"
     font-size="0.5px">
    <circle
       style="stroke:none"
       id="circle51"
       r="0.44999999"
       cy="0"
       cx="0" />
    <circle
       style="fill:none;stroke:#000000"
       id="circle53"
       r="0.44999999"
       cy="0"
       cx="0" />
    <path
       style="fill:#595959;stroke:none"
       inkscape:connector-curvature="0"
       id="path55"
       d="m -2.1344,0.1715 q -0.0329,0 -0.0774,-0.0154 L -2.204,0.112 q 0.043,0.0234 0.0779,0.0234 0.0207,0 0.0364,-0.0112 0.0156,-0.0113 0.0186,-0.0281 0.0043,-0.0247 -0.0312,-0.0408 l -0.026,-0.0119 q -0.0577,-0.0259 -0.0492,-0.0745 0.006,-0.0347 0.034,-0.0546 0.0281,-0.0199 0.0708,-0.0199 0.0222,0 0.0539,0.0061 l 0.0096,0.002 -0.007,0.04 q -0.0382,-0.0119 -0.0619,-0.0119 -0.0463,0 -0.0522,0.0337 -0.0038,0.0217 0.0287,0.0366 l 0.0215,0.0097 q 0.0364,0.0166 0.0495,0.0351 0.0131,0.0184 0.0083,0.046 -0.0061,0.0349 -0.0376,0.0574 -0.0315,0.0224 -0.0745,0.0224 z m 0.1856,-0.0061 0.0464,-0.2651 0.0481,0 -0.0464,0.2651 -0.0481,0 z m 0.0549,-0.3132 0.0084,-0.0481 0.0481,0 -0.0085,0.0481 -0.048,0 z m 0.0752,0.4014 0.013,-0.0418 q 0.0382,0.0198 0.0788,0.0198 0.0813,0 0.0963,-0.0862 L -1.6232,0.1037 Q -1.6596,0.1593 -1.7204,0.1593 -1.768,0.1593 -1.79,0.1247 -1.812,0.09 -1.8017,0.0311 q 0.0106,-0.0605 0.0492,-0.0986 0.0387,-0.0381 0.0894,-0.0381 0.0445,0 0.0702,0.0362 l 0.0053,-0.0303 0.0483,0 -0.0338,0.1929 q -0.0109,0.0622 -0.0226,0.0921 -0.0117,0.0299 -0.0328,0.049 -0.0374,0.0334 -0.1038,0.0334 -0.0464,0 -0.0864,-0.0141 z m 0.2007,-0.18 0.0193,-0.1101 q -0.026,-0.0329 -0.0633,-0.0329 -0.0332,0 -0.0567,0.0266 -0.0235,0.0266 -0.0316,0.073 -0.0152,0.0871 0.0461,0.0871 0.0417,0 0.0862,-0.0437 z m 0.1189,0.0918 0.0074,-0.0422 Q -1.4621,0.0741 -1.388,0.0163 l 0.0319,-0.0247 q 0.0617,-0.0481 0.07,-0.0955 0.0053,-0.0302 -0.0099,-0.0476 -0.0151,-0.0173 -0.0469,-0.0173 -0.0376,0 -0.0937,0.0291 l 0.0074,-0.0425 q 0.0521,-0.0227 0.0995,-0.0227 0.0507,0 0.0767,0.0273 0.026,0.0274 0.0181,0.0725 -0.0057,0.0325 -0.0256,0.0576 -0.0199,0.0252 -0.0684,0.0611 l -0.0214,0.0158 q -0.0664,0.0491 -0.0833,0.0938 l 0.157,0 -0.0074,0.0422 -0.2151,0 z m 0.2894,0.0362 0.0063,-0.0362 0.2078,0 -0.0064,0.0362 -0.2077,0 z m 0.3105,-0.0362 0.0063,-0.0361 0.0723,0 0.0499,-0.2852 -0.0754,0.0181 0.0065,-0.0371 0.1258,-0.03 -0.0585,0.3342 0.0723,0 -0.0063,0.0361 -0.1929,0 z" />
  </g>
  <g
     style="font-size:0.75px;font-family:sans-serif;fill:#0000b2;stroke:#0000b2;stroke-width:0.1"
     id="g57"
     transform="matrix(50,0,0,50,672.25,37.334749)"
     font-size="0.75px">
    <path
       style="stroke:none"
       inkscape:connector-curvature="0"
       id="path59"
       d="m -0.2737,0.0361 q 0,-0.0732 -0.0303,-0.1135 -0.0302,-0.0403 -0.0847,-0.0403 -0.0542,0 -0.0844,0.0403 -0.0303,0.0403 -0.0303,0.1135 0,0.0729 0.0303,0.1132 0.0302,0.0403 0.0844,0.0403 0.0545,0 0.0847,-0.0403 0.0303,-0.0403 0.0303,-0.1132 z m 0.0673,0.159 q 0,0.1047 -0.0465,0.1558 -0.0465,0.0511 -0.1424,0.0511 -0.0356,0 -0.067,-0.0053 -0.0315,-0.0053 -0.0612,-0.0163 l 0,-0.0656 q 0.0297,0.0161 0.0586,0.0238 0.0289,0.0077 0.059,0.0077 0.0662,0 0.0992,-0.0346 0.033,-0.0346 0.033,-0.1046 l 0,-0.0333 q -0.0209,0.0363 -0.0535,0.0542 -0.0326,0.018 -0.078,0.018 -0.0754,0 -0.1216,-0.0575 -0.0461,-0.0575 -0.0461,-0.1524 0,-0.0952 0.0461,-0.1527 0.0462,-0.0575 0.1216,-0.0575 0.0454,0 0.078,0.018 0.0326,0.0179 0.0535,0.0542 l 0,-0.0623 0.0673,0 0,0.3593 z m 0.1612,-0.0114 0.1208,0 0,-0.4171 -0.1315,0.0264 0,-0.0674 0.1308,-0.0264 0.074,0 0,0.4845 0.1208,0 0,0.0623 -0.3149,0 0,-0.0623 z m 0.4208,-0.1732 0.1973,0 0,0.06 -0.1973,0 0,-0.06 z" />
  </g>
  <g
     style="font-size:0.75px;font-family:sans-serif;fill:#0000b2;stroke:#0000b2;stroke-width:0.1"
     id="g61"
     transform="matrix(50,0,0,50,672.25,537.33474)"
     font-size="0.75px">
    <path
       style="stroke:none"
       inkscape:connector-curvature="0"
       id="path63"
       d="m -0.2737,0.0396 q 0,-0.0733 -0.0303,-0.1135 -0.0302,-0.0403 -0.0847,-0.0403 -0.0542,0 -0.0844,0.0403 -0.0303,0.0402 -0.0303,0.1135 0,0.0729 0.0303,0.1131 0.0302,0.0403 0.0844,0.0403 0.0545,0 0.0847,-0.0403 0.0303,-0.0402 0.0303,-0.1131 z m 0.0673,0.1589 q 0,0.1048 -0.0465,0.1558 -0.0465,0.0511 -0.1424,0.0511 -0.0356,0 -0.067,-0.0053 -0.0315,-0.0053 -0.0612,-0.0163 l 0,-0.0655 q 0.0297,0.0161 0.0586,0.0238 0.0289,0.0077 0.059,0.0077 0.0662,0 0.0992,-0.0346 0.033,-0.0347 0.033,-0.1046 l 0,-0.0333 q -0.0209,0.0362 -0.0535,0.0542 -0.0326,0.0179 -0.078,0.0179 -0.0754,0 -0.1216,-0.0575 -0.0461,-0.0575 -0.0461,-0.1523 0,-0.0952 0.0461,-0.1527 0.0462,-0.0575 0.1216,-0.0575 0.0454,0 0.078,0.0179 0.0326,0.018 0.0535,0.0542 l 0,-0.0622 0.0673,0 0,0.3592 z m 0.2121,-0.0113 0.2581,0 0,0.0622 -0.3471,0 0,-0.0622 q 0.0421,-0.0436 0.1148,-0.117 0.0727,-0.0735 0.0914,-0.0947 0.0355,-0.0399 0.0496,-0.0676 0.0141,-0.0276 0.0141,-0.0544 0,-0.0435 -0.0306,-0.071 -0.0306,-0.0275 -0.0797,-0.0275 -0.0347,0 -0.0734,0.0121 -0.0386,0.0121 -0.0826,0.0367 l 0,-0.0748 q 0.0447,-0.0179 0.0835,-0.0271 0.0389,-0.0091 0.0711,-0.0091 0.0849,0 0.1355,0.0425 0.0505,0.0424 0.0505,0.1135 0,0.0337 -0.0126,0.0639 -0.0126,0.0302 -0.046,0.0712 Q 0.1932,-0.0055 0.1441,0.0453 0.095,0.096 0.0057,0.1872 Z m 0.3699,-0.1732 0.1973,0 0,0.06 -0.1973,0 0,-0.06 z" />
  </g>
  <g
     style="font-size:0.75px;font-family:sans-serif;fill:#ffffff;stroke:#ffffff;stroke-width:0.1"
     id="g65"
     transform="matrix(50,0,0,50,322.25,287.33474)"
     font-size="0.75px">
    <circle
       style="stroke:none"
       id="circle67"
       r="0.44999999"
       cy="0"
       cx="0" />
    <circle
       style="fill:none;stroke:#000000"
       id="circle69"
       r="0.44999999"
       cy="0"
       cx="0" />
  </g>
  <g
     style="font-style:italic;font-size:0.5px;font-family:sans-serif;fill:#595959;stroke:#595959;stroke-width:0.1"
     id="g71"
     transform="matrix(50,0,0,50,322.25,287.33474)"
     font-style="italic"
     font-size="0.5px">
    <path
       style="stroke:none"
       inkscape:connector-curvature="0"
       id="path73"
       d="m -1.3979,0.0971 0.0464,-0.2652 0.0481,0 -0.0087,0.0498 q 0.0449,-0.0556 0.1001,-0.0556 0.0532,0 0.0628,0.0556 0.0439,-0.0559 0.0986,-0.0559 0.0352,0 0.0508,0.0207 0.0157,0.0206 0.0092,0.0577 l -0.0337,0.1929 -0.0484,0 0.0325,-0.1853 q 0.0079,-0.0454 -0.028,-0.0454 -0.0373,0 -0.0876,0.0529 l -0.0311,0.1778 -0.0484,0 0.0325,-0.1853 q 0.008,-0.0457 -0.0287,-0.0457 -0.0363,0 -0.0872,0.0532 l -0.0311,0.1778 -0.0481,0 z m 0.6627,-0.0086 q -0.0509,0.0147 -0.0853,0.0147 -0.0586,0 -0.0888,-0.039 -0.0302,-0.0389 -0.0193,-0.1009 0.0105,-0.0603 0.0498,-0.0989 0.0394,-0.0386 0.0902,-0.0386 0.0481,0 0.0683,0.0342 0.0203,0.0342 0.0093,0.0972 l -0.0029,0.0149 -0.1672,0 q -0.006,0.0945 0.076,0.0945 0.03,0 0.0765,-0.0162 l -0.0066,0.0381 z m -0.1374,-0.1526 0.117,0 q 0.0129,-0.0739 -0.0423,-0.0739 -0.0554,0 -0.0747,0.0739 z" />
  </g>
  <g
     style="font-style:italic;font-size:0.5px;font-family:sans-serif;fill:#ffffff;stroke:#ffffff;stroke-width:0.1"
     id="g75"
     transform="matrix(50,0,0,50,672.25,287.33474)"
     font-style="italic"
     font-size="0.5px">
    <circle
       style="stroke:none"
       id="circle77"
       r="0.44999999"
       cy="0"
       cx="0" />
    <circle
       style="fill:none;stroke:#000000"
       id="circle79"
       r="0.44999999"
       cy="0"
       cx="0" />
    <circle
       style="fill:#000000;stroke:none"
       id="circle81"
       r="0.26320001"
       cy="0"
       cx="0" />
    <path
       style="fill:#595959;stroke:none"
       inkscape:connector-curvature="0"
       id="path83"
       d="m 0.7,0.1307 0.0464,-0.2651 0.0481,0 -0.0087,0.0498 q 0.0449,-0.0557 0.1001,-0.0557 0.0532,0 0.0627,0.0557 0.044,-0.0559 0.0987,-0.0559 0.0351,0 0.0508,0.0206 0.0157,0.0207 0.0092,0.0578 l -0.0338,0.1928 -0.0483,0 0.0324,-0.1853 Q 1.0656,-0.1 1.0297,-0.1 0.9923,-0.1 0.942,-0.047 l -0.0311,0.1777 -0.0483,0 0.0324,-0.1853 q 0.008,-0.0456 -0.0286,-0.0456 -0.0364,0 -0.0872,0.0532 l -0.0311,0.1777 -0.0481,0 z m 0.4668,0 0.0464,-0.2651 0.0481,0 -0.0087,0.0498 q 0.0383,-0.0557 0.0927,-0.0557 0.0074,0 0.0152,0.0013 l -0.0079,0.0449 q -0.0117,-0.0042 -0.0212,-0.0042 -0.0457,0 -0.0859,0.0542 l -0.0306,0.1748 -0.0481,0 z m 0.1901,0.0882 0.013,-0.0418 q 0.0383,0.0198 0.0788,0.0198 0.0813,0 0.0964,-0.0862 L 1.5524,0.069 Q 1.516,0.1246 1.4552,0.1246 1.4076,0.1246 1.3856,0.09 1.3636,0.0553 1.3739,-0.0035 q 0.0106,-0.0606 0.0492,-0.0987 0.0387,-0.0381 0.0895,-0.0381 0.0444,0 0.0701,0.0362 l 0.0053,-0.0303 0.0483,0 -0.0338,0.1929 Q 1.5917,0.1207 1.5799,0.1506 1.5682,0.1805 1.5471,0.1996 1.5097,0.233 1.4433,0.233 1.3969,0.233 1.3569,0.2189 Z m 0.2007,-0.18 0.0193,-0.1101 q -0.026,-0.0329 -0.0633,-0.0329 -0.0332,0 -0.0567,0.0266 -0.0235,0.0266 -0.0316,0.073 -0.0152,0.0871 0.0461,0.0871 0.0417,0 0.0862,-0.0437 z" />
  </g>
  <g
     style="font-size:0.75px;font-family:sans-serif;fill:#b20000;stroke:#b20000;stroke-width:0.1"
     id="g85"
     transform="matrix(50,0,0,50,497.25,537.33474)"
     font-size="0.75px">
    <path
       style="stroke:none"
       inkscape:connector-curvature="0"
       id="path87"
       d="m -0.3834,-0.1912 0,0.0629 q -0.0286,-0.0157 -0.0573,-0.0236 -0.0288,-0.0079 -0.0581,-0.0079 -0.0655,0 -0.1018,0.0416 -0.0362,0.0416 -0.0362,0.1166 0,0.0751 0.0362,0.1167 0.0363,0.0415 0.1018,0.0415 0.0293,0 0.0581,-0.0078 0.0287,-0.0079 0.0573,-0.0236 l 0,0.0622 q -0.0282,0.0132 -0.0584,0.0198 -0.0302,0.0066 -0.0643,0.0066 -0.0927,0 -0.1472,-0.0582 -0.0546,-0.0583 -0.0546,-0.1572 0,-0.1003 0.0551,-0.1578 0.0551,-0.0575 0.1511,-0.0575 0.0311,0 0.0608,0.0064 0.0296,0.0064 0.0575,0.0193 z m 0.1838,-0.1323 0,0.1165 0.1388,0 0,0.0524 -0.1388,0 0,0.2226 q 0,0.0502 0.0137,0.0645 0.0138,0.0143 0.0559,0.0143 l 0.0692,0 0,0.0564 -0.0692,0 q -0.078,0 -0.1077,-0.0292 -0.0296,-0.0291 -0.0296,-0.106 l 0,-0.2226 -0.0495,0 0,-0.0524 0.0495,0 0,-0.1165 0.0677,0 z M 0.2655,-0.144 Q 0.2542,-0.1506 0.2408,-0.1537 0.2274,-0.1568 0.2113,-0.1568 q -0.0571,0 -0.0877,0.0371 -0.0306,0.0372 -0.0306,0.1068 l 0,0.2161 -0.0677,0 0,-0.4102 0.0677,0 0,0.0637 q 0.0213,-0.0373 0.0553,-0.0555 0.0341,-0.0181 0.0828,-0.0181 0.0069,0 0.0154,9e-4 0.0084,9e-4 0.0186,0.0028 l 4e-4,0.0692 z m 0.0707,-0.2227 0.0674,0 0,0.5699 -0.0674,0 0,-0.5699 z m 0.1743,0.3344 0.1974,0 0,0.06 -0.1974,0 0,-0.06 z" />
  </g>
  <g
     style="font-size:0.75px;font-family:sans-serif;stroke-width:0.1"
     id="g89"
     transform="matrix(50,0,0,50,322.25,137.33474)"
     font-size="0.75px">
    <path
       style="stroke:none"
       inkscape:connector-curvature="0"
       id="path91"
       d="m 0.1901,-0.0712 0,0.033 -0.3099,0 q 0.0044,0.0695 0.042,0.106 0.0375,0.0364 0.1045,0.0364 0.0389,0 0.0753,-0.0095 0.0364,-0.0095 0.0723,-0.0286 l 0,0.0638 Q 0.1381,0.1452 0.1,0.1533 0.0619,0.1614 0.0227,0.1614 q -0.0981,0 -0.1555,-0.0572 -0.0573,-0.0571 -0.0573,-0.1545 0,-0.1007 0.0544,-0.1599 0.0544,-0.0591 0.1467,-0.0591 0.0828,0 0.1309,0.0533 0.0482,0.0533 0.0482,0.1448 z M 0.1227,-0.091 q -8e-4,-0.0553 -0.031,-0.0882 -0.0302,-0.033 -0.08,-0.033 -0.0564,0 -0.0903,0.0319 -0.0338,0.0318 -0.039,0.0897 l 0.2403,-4e-4 z" />
  </g>
  <g
     style="font-size:0.75px;font-family:sans-serif;stroke-width:0.1"
     id="g93"
     transform="matrix(50,0,0,50,322.25,437.33474)"
     font-size="0.75px">
    <path
       style="stroke:none"
       inkscape:connector-curvature="0"
       id="path95"
       d="m 0.1901,-0.0712 0,0.033 -0.3099,0 q 0.0044,0.0695 0.042,0.106 0.0375,0.0364 0.1045,0.0364 0.0389,0 0.0753,-0.0095 0.0364,-0.0095 0.0723,-0.0286 l 0,0.0638 Q 0.1381,0.1452 0.1,0.1533 0.0619,0.1614 0.0227,0.1614 q -0.0981,0 -0.1555,-0.0572 -0.0573,-0.0571 -0.0573,-0.1545 0,-0.1007 0.0544,-0.1599 0.0544,-0.0591 0.1467,-0.0591 0.0828,0 0.1309,0.0533 0.0482,0.0533 0.0482,0.1448 z M 0.1227,-0.091 q -8e-4,-0.0553 -0.031,-0.0882 -0.0302,-0.033 -0.08,-0.033 -0.0564,0 -0.0903,0.0319 -0.0338,0.0318 -0.039,0.0897 l 0.2403,-4e-4 z" />
  </g>
  <g
     style="font-size:0.75px;font-family:sans-serif;stroke-width:0.02"
     id="g97"
     transform="matrix(50,0,0,50,822.25,587.33474)"
     font-size="0.75px">
    <path
       style="fill:none"
       inkscape:connector-curvature="0"
       id="path99"
       d="m -14.9729,-10.8326 c -1.5153,0.5798 -1.6822,2.5142 -0.5006,3.3923" />
    <path
       style="stroke:none"
       inkscape:connector-curvature="0"
       id="path101"
       d="m -15.4349,-7.5047 -0.0771,0.1287 0.3817,0.1412 z" />
  </g>
  <g
     style="font-size:0.75px;font-family:sans-serif;stroke-width:0.02"
     id="g103"
     transform="matrix(50,0,0,50,10.525,124.91974)"
     font-size="0.75px">
    <circle
       style="stroke:none"
       id="circle105"
       r="0.2105"
       cy="0"
       cx="0" />
  </g>
  <g
     style="font-size:0.75px;font-family:sans-serif;stroke-width:0.02"
     id="g107"
     transform="matrix(50,0,0,50,822.25,587.33474)"
     font-size="0.75px">
    <path
       style="fill:none"
       inkscape:connector-curvature="0"
       id="path109"
       d="m -12.8697,-7.4117 c 0.2581,-0.1954 0.4788,-0.4473 0.6333,-0.7271" />
    <path
       style="stroke:none"
       inkscape:connector-curvature="0"
       id="path111"
       d="m -12.3053,-8.1684 0.1377,0.0593 0.0894,-0.3971 z" />
  </g>
  <g
     style="font-size:0.75px;font-family:sans-serif;stroke-width:0.02"
     id="g113"
     transform="matrix(50,0,0,50,822.25,587.33474)"
     font-size="0.75px">
    <path
       style="fill:none"
       inkscape:connector-curvature="0"
       id="path115"
       d="m -12.0782,-9.4938 c -0.1129,-0.3601 -0.34,-0.6975 -0.6308,-0.9612" />
    <path
       style="stroke:none"
       inkscape:connector-curvature="0"
       id="path117"
       d="m -12.7545,-10.3954 0.091,-0.1193 -0.3636,-0.1828 z" />
  </g>
  <g
     style="font-size:0.75px;font-family:sans-serif;stroke-width:0.02"
     id="g119"
     transform="matrix(50,0,0,50,822.25,587.33474)"
     font-size="0.75px">
    <path
       style="fill:none"
       inkscape:connector-curvature="0"
       id="path121"
       d="m -12.0782,-3.4938 c -0.1129,-0.3601 -0.34,-0.6975 -0.6308,-0.9612" />
    <path
       style="stroke:none"
       inkscape:connector-curvature="0"
       id="path123"
       d="m -12.7545,-4.3954 0.091,-0.1193 -0.3636,-0.1828 z" />
  </g>
  <g
     style="font-size:0.75px;font-family:sans-serif;stroke-width:0.02"
     id="g125"
     transform="matrix(50,0,0,50,822.25,587.33474)"
     font-size="0.75px">
    <path
       style="fill:none"
       inkscape:connector-curvature="0"
       id="path127"
       d="m -14.9729,-4.8326 c -1.5153,0.5798 -1.6822,2.5142 -0.5006,3.3923" />
    <path
       style="stroke:none"
       inkscape:connector-curvature="0"
       id="path129"
       d="m -15.4349,-1.5047 -0.0771,0.1287 0.3817,0.1412 z" />
  </g>
  <g
     style="font-size:0.75px;font-family:sans-serif;stroke-width:0.02"
     id="g131"
     transform="matrix(50,0,0,50,10.525,424.91974)"
     font-size="0.75px">
    <circle
       style="stroke:none"
       id="circle133"
       r="0.2105"
       cy="0"
       cx="0" />
  </g>
  <g
     style="font-size:0.75px;font-family:sans-serif;stroke-width:0.02"
     id="g135"
     transform="matrix(50,0,0,50,822.25,587.33474)"
     font-size="0.75px">
    <path
       style="fill:none"
       inkscape:connector-curvature="0"
       id="path137"
       d="m -12.8697,-1.4117 c 0.2581,-0.1954 0.4788,-0.4473 0.6333,-0.7271" />
    <path
       style="stroke:none"
       inkscape:connector-curvature="0"
       id="path139"
       d="m -12.3053,-2.1684 0.1377,0.0593 0.0894,-0.3971 z" />
  </g>
  <g
     style="font-size:0.75px;font-family:sans-serif;stroke-width:0.02"
     id="g141"
     transform="matrix(50,0,0,50,822.25,587.33474)"
     font-size="0.75px">
    <path
       style="fill:none"
       inkscape:connector-curvature="0"
       id="path143"
       d="M -7.4654,-6 -9.1,-6" />
    <path
       style="stroke:none"
       inkscape:connector-curvature="0"
       id="path145"
       d="m -9.1,-5.925 0,-0.15 L -9.5,-6 Z" />
  </g>
  <g
     style="font-size:0.75px;font-family:sans-serif;stroke-width:0.02"
     id="g147"
     transform="matrix(50,0,0,50,822.25,587.33474)"
     font-size="0.75px">
    <path
       style="fill:none"
       inkscape:connector-curvature="0"
       id="path149"
       d="m -9.1696,-11 1.4617,0" />
    <path
       style="stroke:none"
       inkscape:connector-curvature="0"
       id="path151"
       d="m -7.7079,-11.075 0,0.15 0.4,-0.075 z" />
  </g>
  <g
     style="font-size:0.75px;font-family:sans-serif;stroke-width:0.02"
     id="g153"
     transform="matrix(50,0,0,50,822.25,587.33474)"
     font-size="0.75px">
    <path
       style="fill:none"
       inkscape:connector-curvature="0"
       id="path155"
       d="m -5.6921,-11 1.6192,0" />
    <path
       style="stroke:none"
       inkscape:connector-curvature="0"
       id="path157"
       d="m -4.0729,-11.075 0,0.15 0.4,-0.075 z" />
  </g>
  <g
     style="font-size:0.75px;font-family:sans-serif;stroke-width:0.02"
     id="g159"
     transform="matrix(50,0,0,50,822.25,587.33474)"
     font-size="0.75px">
    <path
       style="fill:none"
       inkscape:connector-curvature="0"
       id="path161"
       d="M -3,-10.4432 -3,-6.9" />
    <path
       style="stroke:none"
       inkscape:connector-curvature="0"
       id="path163"
       d="m -2.925,-6.9 -0.15,0 0.075,0.4 z" />
  </g>
  <g
     style="font-size:0.75px;font-family:sans-serif;stroke-width:0.02"
     id="g165"
     transform="matrix(50,0,0,50,822.25,587.33474)"
     font-size="0.75px">
    <path
       style="fill:none"
       inkscape:connector-curvature="0"
       id="path167"
       d="m -3.5,-6 -1.6346,0" />
    <path
       style="stroke:none"
       inkscape:connector-curvature="0"
       id="path169"
       d="m -5.1346,-5.925 0,-0.15 -0.4,0.075 z" />
  </g>
  <g
     style="font-size:0.75px;font-family:sans-serif;stroke-width:0.02"
     id="g171"
     transform="matrix(50,0,0,50,822.25,587.33474)"
     font-size="0.75px">
    <path
       style="fill:none"
       inkscape:connector-curvature="0"
       id="path173"
       d="m -9.1696,-1 1.4617,0" />
    <path
       style="stroke:none"
       inkscape:connector-curvature="0"
       id="path175"
       d="m -7.7079,-1.075 0,0.15 0.4,-0.075 z" />
  </g>
  <g
     style="font-size:0.75px;font-family:sans-serif;stroke-width:0.02"
     id="g177"
     transform="matrix(50,0,0,50,822.25,587.33474)"
     font-size="0.75px">
    <path
       style="fill:none"
       inkscape:connector-curvature="0"
       id="path179"
       d="m -5.6921,-1 1.6192,0" />
    <path
       style="stroke:none"
       inkscape:connector-curvature="0"
       id="path181"
       d="m -4.0729,-1.075 0,0.15 0.4,-0.075 z" />
  </g>
  <g
     style="font-size:0.75px;font-family:sans-serif;stroke-width:0.02"
     id="g183"
     transform="matrix(50,0,0,50,822.25,587.33474)"
     font-size="0.75px">
    <path
       style="fill:none"
       inkscape:connector-curvature="0"
       id="path185"
       d="M -3,-1.5632 -3,-5.1" />
    <path
       style="stroke:none"
       inkscape:connector-curvature="0"
       id="path187"
       d="m -3.075,-5.1 0.15,0 L -3,-5.5 Z" />
  </g>
  <g
     style="font-size:0.75px;font-family:sans-serif;stroke-width:0.02"
     id="g189"
     transform="matrix(50,0,0,50,822.25,587.33474)"
     font-size="0.75px">
    <path
       style="fill:none"
       inkscape:connector-curvature="0"
       id="path191"
       d="m -11.5,-9 1.2099,0" />
  </g>
  <g
     style="font-size:0.75px;font-family:sans-serif;stroke-width:0.02"
     id="g193"
     transform="matrix(50,0,0,50,822.25,587.33474)"
     font-size="0.75px">
    <path
       style="fill:none"
       inkscape:connector-curvature="0"
       id="path195"
       d="m -11.5,-3 1.2099,0" />
  </g>
  <g
     style="font-size:0.75px;font-family:sans-serif;stroke-width:0.02"
     id="g197"
     transform="matrix(50,0,0,50,822.25,587.33474)"
     font-size="0.75px">
    <path
       style="fill:none"
       inkscape:connector-curvature="0"
       id="path199"
       d="m -10,-6.5 0,-1.7201" />
    <path
       style="stroke:none"
       inkscape:connector-curvature="0"
       id="path201"
       d="m -10.075,-8.2201 0.15,0 -0.075,-0.4 z" />
  </g>
  <g
     style="font-size:0.75px;font-family:sans-serif;stroke-width:0.02"
     id="g203"
     transform="matrix(50,0,0,50,822.25,587.33474)"
     font-size="0.75px">
    <path
       style="fill:none"
       inkscape:connector-curvature="0"
       id="path205"
       d="m -10,-9.3799 0,-0.6633" />
    <path
       style="stroke:none"
       inkscape:connector-curvature="0"
       id="path207"
       d="m -10.075,-10.0432 0.15,0 -0.075,-0.4 z" />
  </g>
  <g
     style="font-size:0.75px;font-family:sans-serif;stroke-width:0.02"
     id="g209"
     transform="matrix(50,0,0,50,822.25,587.33474)"
     font-size="0.75px">
    <path
       style="fill:none"
       inkscape:connector-curvature="0"
       id="path211"
       d="m -10,-5.5 0,1.7201" />
    <path
       style="stroke:none"
       inkscape:connector-curvature="0"
       id="path213"
       d="m -9.925,-3.7799 -0.15,0 0.075,0.4 z" />
  </g>
  <g
     style="font-size:0.75px;font-family:sans-serif;stroke-width:0.02"
     id="g215"
     transform="matrix(50,0,0,50,822.25,587.33474)"
     font-size="0.75px">
    <path
       style="fill:none"
       inkscape:connector-curvature="0"
       id="path217"
       d="m -10,-2.6201 0,0.6569" />
    <path
       style="stroke:none"
       inkscape:connector-curvature="0"
       id="path219"
       d="m -9.925,-1.9632 -0.15,0 0.075,0.4 z" />
  </g>
  <path
     style="fill:none;fill-rule:evenodd;stroke:#ffffff;stroke-width:0;stroke-linecap:butt;stroke-linejoin:miter;stroke-miterlimit:10;stroke-dasharray:none;stroke-opacity:1"
     d="m 7.2500002,579.63975 659.9999998,0"
     id="path8173"
     inkscape:path-effect="#path-effect8175"
     inkscape:original-d="m 7.2500002,579.63975 659.9999998,0"
     inkscape:connector-curvature="0" />
  <path
     style="fill:none;fill-rule:evenodd;stroke:#ffffff;stroke-width:0;stroke-linecap:butt;stroke-linejoin:miter;stroke-miterlimit:10;stroke-dasharray:none;stroke-opacity:1"
     d="m 6.3245346,4.9999998e-6 659.9999954,0"
     id="path8177"
     inkscape:path-effect="#path-effect8179"
     inkscape:original-d="m 6.3245346,4.9999998e-6 659.9999954,0"
     inkscape:connector-curvature="0" />
</svg>
