<?xml version="1.0" encoding="UTF-8" standalone="no"?>
<svg xmlns:dc="http://purl.org/dc/elements/1.1/" xmlns:cc="http://creativecommons.org/ns#" xmlns:rdf="http://www.w3.org/1999/02/22-rdf-syntax-ns#" xmlns:svg="http://www.w3.org/2000/svg" xmlns="http://www.w3.org/2000/svg" xmlns:sodipodi="http://sodipodi.sourceforge.net/DTD/sodipodi-0.dtd" xmlns:inkscape="http://www.inkscape.org/namespaces/inkscape" font-size="12px" font-style="normal" font-weight="normal" height="100%" stroke-miterlimit="10" width="100%" id="svg2" version="1.1" inkscape:version="0.91 r13725" sodipodi:docname="WAITX2.circuit.svg" style="font-style:normal;font-weight:normal;font-size:12px;font-family:Dialog;color-interpolation:auto;fill:#000000;fill-opacity:1;stroke:#000000;stroke-width:1;stroke-linecap:square;stroke-linejoin:miter;stroke-miterlimit:10;stroke-dasharray:none;stroke-dashoffset:0;stroke-opacity:1;color-rendering:auto;image-rendering:auto;shape-rendering:auto;text-rendering:auto" viewBox="0 0 635 531" preserveAspectRatio="xMidYMid slice">
  <metadata
     id="metadata519">
    <rdf:RDF>
      <cc:Work
         rdf:about="">
        <dc:format>image/svg+xml</dc:format>
        <dc:type
           rdf:resource="http://purl.org/dc/dcmitype/StillImage" />
        <dc:title></dc:title>
      </cc:Work>
    </rdf:RDF>
  </metadata>
  <sodipodi:namedview
     pagecolor="#ffffff"
     bordercolor="#666666"
     borderopacity="1"
     objecttolerance="10"
     gridtolerance="10"
     guidetolerance="10"
     inkscape:pageopacity="0"
     inkscape:pageshadow="2"
     inkscape:window-width="1920"
     inkscape:window-height="1176"
     id="namedview517"
     showgrid="true"
     fit-margin-top="0"
     fit-margin-left="0"
     fit-margin-right="0"
     fit-margin-bottom="0"
     inkscape:zoom="0.96218752"
     inkscape:cx="13.379456"
     inkscape:cy="324.85165"
     inkscape:window-x="0"
     inkscape:window-y="24"
     inkscape:window-maximized="1"
     inkscape:current-layer="svg2"
     inkscape:object-nodes="true">
    <inkscape:grid
       type="xygrid"
       id="grid8319"
       originx="0"
       originy="40.5" />
  </sodipodi:namedview>
  <!--Generated by the Batik Graphics2D SVG Generator-->
  <defs
     id="genericDefs">
    <inkscape:path-effect
       effect="spiro"
       id="path-effect8323"
       is_visible="true" />
    <inkscape:path-effect
       effect="spiro"
       id="path-effect8323-3"
       is_visible="true" />
  </defs>
  <g
     style="fill:#ffffff;stroke:#ffffff"
     id="g7"
     transform="matrix(50,0,0,50,228.9152,264)">
    <rect
       style="stroke:none"
       id="rect9"
       y="-1.5"
       x="-2"
       width="4"
       height="3" />
    <rect
       style="fill:none;stroke:#000000;stroke-width:0.06"
       id="rect11"
       y="-1.5"
       x="-2"
       width="4"
       height="3" />
    <line
       style="fill:none;stroke:#000000;stroke-width:0.04"
       id="line13"
       y2="-1"
       y1="-1"
       x2="2"
       x1="2.5" />
    <line
       style="fill:none;stroke:#000000;stroke-width:0.04"
       id="line15"
       y2="-1"
       y1="-1"
       x2="-2"
       x1="-2.5" />
    <line
       style="fill:none;stroke:#000000;stroke-width:0.04"
       id="line17"
       y2="1"
       y1="1"
       x2="-2"
       x1="-2.5" />
    <line
       style="fill:none;stroke:#000000;stroke-width:0.04"
       id="line19"
       y2="1"
       y1="1"
       x2="2"
       x1="2.5" />
    <line
       style="fill:none;stroke:#000000;stroke-width:0.04"
       id="line21"
       y2="0"
       y1="0"
       x2="2"
       x1="2.5" />
    <path
       style="fill:#0000ff;stroke:none;stroke-width:0.04"
       inkscape:connector-curvature="0"
       id="path23"
       d="m 1.5544,-1.0392 -0.0466,0.2395 q -0.0135,0.0696 -0.0514,0.1038 -0.038,0.0342 -0.1022,0.0342 -0.0237,0 -0.044,-0.0036 Q 1.29,-0.6688 1.2724,-0.6762 l 0.0083,-0.0436 q 0.0166,0.0107 0.0352,0.0158 0.0185,0.0051 0.0395,0.0051 0.0427,0 0.0702,-0.0233 0.0275,-0.0233 0.0363,-0.067 l 0.0039,-0.0205 q -0.0188,0.0215 -0.0437,0.0327 -0.0249,0.0113 -0.0537,0.0113 -0.0415,0 -0.0654,-0.0275 -0.0238,-0.0275 -0.0238,-0.0756 0,-0.0378 0.0144,-0.0741 0.0145,-0.0362 0.0406,-0.0643 0.0173,-0.0186 0.0404,-0.0286 0.023,-0.01 0.0482,-0.01 0.0276,0 0.0481,0.0128 0.0205,0.0129 0.0305,0.0363 l 0.0078,-0.0425 0.0452,0 z m -0.0676,0.1004 q 0,-0.0332 -0.0157,-0.0513 -0.0156,-0.0181 -0.0444,-0.0181 -0.0178,0 -0.0339,0.0071 -0.0162,0.0071 -0.0276,0.0198 -0.0186,0.021 -0.029,0.0494 -0.0103,0.0284 -0.0103,0.0587 0,0.0337 0.0157,0.0518 0.0158,0.0181 0.0453,0.0181 0.0427,0 0.0713,-0.0387 0.0286,-0.0387 0.0286,-0.0968 z m 0.1193,0.1316 0.0806,0 0.0545,-0.2806 -0.0911,0.0176 0.0085,-0.0425 0.0906,-0.0175 0.0496,0 -0.063,0.323 0.0803,0 -0.0078,0.0415 -0.2102,0 0.008,-0.0415 z" />
    <path
       style="fill:#ff0000;stroke:none;stroke-width:0.04"
       inkscape:connector-curvature="0"
       id="path25"
       d="m -1.55,-1.0234 -0.0085,0.0424 q -0.0179,-0.0097 -0.0376,-0.0146 -0.0198,-0.0049 -0.0408,-0.0049 -0.0354,0 -0.0558,0.0121 -0.0204,0.0121 -0.0204,0.0328 0,0.0242 0.0474,0.0371 0.0036,0.001 0.0054,0.0015 l 0.0143,0.0044 q 0.045,0.0125 0.06,0.0261 0.015,0.0137 0.015,0.0374 0,0.0434 -0.0345,0.0708 -0.0346,0.0273 -0.0905,0.0273 -0.0217,0 -0.0456,-0.0041 -0.024,-0.0042 -0.0528,-0.013 l 0.0088,-0.0463 q 0.0247,0.0126 0.0486,0.0192 0.0239,0.0066 0.0459,0.0066 0.0329,0 0.0536,-0.0141 0.0206,-0.0142 0.0206,-0.0359 0,-0.0235 -0.0542,-0.0379 l -0.0046,-0.0012 -0.0154,-0.0039 q -0.0342,-0.009 -0.0501,-0.0238 -0.0158,-0.0148 -0.0158,-0.0377 0,-0.0437 0.0328,-0.0694 0.0328,-0.0256 0.0892,-0.0256 0.0223,0 0.0434,0.0037 0.0211,0.0036 0.0416,0.011 z m 0.102,-0.1145 0.045,0 -0.011,0.0568 -0.0449,0 0.0109,-0.0568 z m -0.0205,0.1064 0.045,0 -0.0535,0.2734 -0.0449,0 0.0534,-0.2734 z m 0.366,0 -0.0466,0.2395 q -0.0135,0.0696 -0.0514,0.1038 -0.038,0.0341 -0.1022,0.0341 -0.0237,0 -0.0439,-0.0035 -0.0203,-0.0035 -0.0379,-0.0109 l 0.0083,-0.0436 q 0.0166,0.0107 0.0352,0.0158 0.0185,0.0051 0.0395,0.0051 0.0428,0 0.0702,-0.0233 0.0275,-0.0233 0.0363,-0.067 l 0.0039,-0.0205 q -0.0188,0.0215 -0.0437,0.0327 -0.0249,0.0112 -0.0537,0.0112 -0.0415,0 -0.0653,-0.0274 -0.0238,-0.0275 -0.0238,-0.0756 0,-0.0378 0.0144,-0.0741 0.0144,-0.0362 0.0405,-0.0643 0.0173,-0.0186 0.0404,-0.0286 0.0231,-0.01 0.0482,-0.01 0.0276,0 0.0481,0.0128 0.0205,0.0129 0.0305,0.0363 l 0.0079,-0.0425 0.0451,0 z m -0.0676,0.1004 q 0,-0.0333 -0.0156,-0.0513 -0.0157,-0.0181 -0.0445,-0.0181 -0.0178,0 -0.0339,0.0071 -0.0161,0.0071 -0.0276,0.0198 -0.0186,0.021 -0.0289,0.0494 -0.0104,0.0284 -0.0104,0.0587 0,0.0337 0.0157,0.0518 0.0158,0.0181 0.0453,0.0181 0.0428,0 0.0713,-0.0387 0.0286,-0.0387 0.0286,-0.0968 z m 0.1194,0.1315 0.0805,0 0.0545,-0.2805 -0.0911,0.0176 0.0086,-0.0425 0.0905,-0.0176 0.0496,0 -0.063,0.323 0.0803,0 -0.0078,0.0415 -0.2102,0 0.0081,-0.0415 z" />
    <path
       style="fill:#ff0000;stroke:none;stroke-width:0.04"
       inkscape:connector-curvature="0"
       id="path27"
       d="M -1.55,0.9766 -1.5585,1.019 Q -1.5764,1.0093 -1.5961,1.0044 -1.6159,0.9995 -1.6369,0.9995 q -0.0354,0 -0.0558,0.0121 -0.0204,0.0121 -0.0204,0.0328 0,0.0242 0.0474,0.0371 0.0036,0.001 0.0054,0.0015 l 0.0143,0.0044 q 0.045,0.0125 0.06,0.0261 0.015,0.0137 0.015,0.0374 0,0.0434 -0.0345,0.0708 -0.0346,0.0273 -0.0905,0.0273 -0.0217,0 -0.0456,-0.0041 -0.024,-0.0042 -0.0528,-0.013 l 0.0088,-0.0463 q 0.0247,0.0126 0.0486,0.0192 0.0239,0.0066 0.0459,0.0066 0.0329,0 0.0536,-0.0141 0.0206,-0.0142 0.0206,-0.0359 0,-0.0235 -0.0542,-0.0379 L -1.6757,1.1223 -1.6911,1.1184 Q -1.7253,1.1094 -1.7412,1.0946 -1.757,1.0798 -1.757,1.0569 q 0,-0.0437 0.0328,-0.0694 0.0328,-0.0256 0.0892,-0.0256 0.0223,0 0.0434,0.0037 0.0211,0.0036 0.0416,0.011 z m 0.102,-0.1145 0.045,0 -0.011,0.0568 -0.0449,0 0.0109,-0.0568 z m -0.0205,0.1064 0.045,0 -0.0535,0.2734 -0.0449,0 0.0534,-0.2734 z m 0.366,0 -0.0466,0.2395 q -0.0135,0.0696 -0.0514,0.1038 -0.038,0.0341 -0.1022,0.0341 -0.0237,0 -0.0439,-0.0035 -0.0203,-0.0035 -0.0379,-0.0109 l 0.0083,-0.0436 q 0.0166,0.0107 0.0352,0.0158 0.0185,0.0051 0.0395,0.0051 0.0428,0 0.0702,-0.0233 0.0275,-0.0233 0.0363,-0.067 L -1.1911,1.198 q -0.0188,0.0215 -0.0437,0.0327 -0.0249,0.0112 -0.0537,0.0112 -0.0415,0 -0.0653,-0.0274 -0.0238,-0.0275 -0.0238,-0.0756 0,-0.0378 0.0144,-0.0741 0.0144,-0.0362 0.0405,-0.0643 0.0173,-0.0186 0.0404,-0.0286 0.0231,-0.01 0.0482,-0.01 0.0276,0 0.0481,0.0128 0.0205,0.0129 0.0305,0.0363 l 0.0079,-0.0425 0.0451,0 z m -0.0676,0.1004 q 0,-0.0333 -0.0156,-0.0513 -0.0157,-0.0181 -0.0445,-0.0181 -0.0178,0 -0.0339,0.0071 -0.0161,0.0071 -0.0276,0.0198 -0.0186,0.021 -0.0289,0.0494 -0.0104,0.0284 -0.0104,0.0587 0,0.0337 0.0157,0.0518 0.0158,0.0181 0.0453,0.0181 0.0428,0 0.0713,-0.0387 0.0286,-0.0387 0.0286,-0.0968 z m 0.3174,-0.003 -0.1575,0.135 0.1741,0 -0.0086,0.041 -0.2365,0 0.008,-0.0415 0.1646,-0.1411 q 0.0329,-0.0285 0.0467,-0.0501 0.0138,-0.0216 0.0138,-0.0443 0,-0.0237 -0.0166,-0.0386 -0.0166,-0.0149 -0.0435,-0.0149 -0.0231,0 -0.0515,0.0083 -0.0283,0.0083 -0.0605,0.0242 l 0.009,-0.0489 q 0.0303,-0.0119 0.0579,-0.018 0.0276,-0.0061 0.051,-0.0061 0.0479,0 0.077,0.0253 0.0292,0.0254 0.0292,0.0667 0,0.0278 -0.0139,0.0531 -0.0139,0.0253 -0.0427,0.0499 z" />
    <path
       style="fill:#0000ff;stroke:none;stroke-width:0.04"
       inkscape:connector-curvature="0"
       id="path29"
       d="M 1.5097,0.9641 1.4631,1.2036 Q 1.4496,1.2732 1.4117,1.3074 1.3737,1.3415 1.3095,1.3415 1.2858,1.3415 1.2656,1.338 1.2453,1.3345 1.2277,1.3271 L 1.236,1.2835 q 0.0166,0.0107 0.0352,0.0158 0.0185,0.0051 0.0395,0.0051 0.0428,0 0.0702,-0.0233 0.0275,-0.0233 0.0363,-0.067 L 1.4211,1.1936 Q 1.4023,1.2151 1.3774,1.2263 1.3525,1.2375 1.3237,1.2375 1.2822,1.2375 1.2584,1.2101 1.2346,1.1826 1.2346,1.1345 1.2346,1.0967 1.249,1.0604 1.2634,1.0242 1.2895,0.9961 1.3068,0.9775 1.3299,0.9675 q 0.0231,-0.01 0.0482,-0.01 0.0276,0 0.0481,0.0128 0.0205,0.0129 0.0305,0.0363 l 0.0079,-0.0425 0.0451,0 z M 1.4421,1.0645 Q 1.4421,1.0312 1.4265,1.0132 1.4108,0.9951 1.382,0.9951 1.3642,0.9951 1.3481,1.0022 1.332,1.0093 1.3205,1.022 1.3019,1.043 1.2916,1.0714 1.2812,1.0998 1.2812,1.1301 q 0,0.0337 0.0157,0.0518 Q 1.3127,1.2 1.3422,1.2 1.385,1.2 1.4135,1.1613 1.4421,1.1226 1.4421,1.0645 Z m 0.3174,-0.003 -0.1575,0.135 0.1741,0 -0.0086,0.041 -0.2365,0 L 1.539,1.196 1.7036,1.0549 Q 1.7365,1.0264 1.7503,1.0048 1.7641,0.9832 1.7641,0.9605 1.7641,0.9368 1.7475,0.9219 1.7309,0.907 1.704,0.907 1.6809,0.907 1.6525,0.9153 1.6242,0.9236 1.592,0.9395 L 1.601,0.8906 q 0.0303,-0.0119 0.0579,-0.018 0.0276,-0.0061 0.051,-0.0061 0.0479,0 0.077,0.0253 0.0292,0.0254 0.0292,0.0667 0,0.0278 -0.0139,0.0531 -0.0139,0.0253 -0.0427,0.0499 z" />
    <path
       style="fill:#ff0000;stroke:none;stroke-width:0.04"
       inkscape:connector-curvature="0"
       id="path31"
       d="M 1.278,-0.0695 1.269,-0.025 Q 1.2529,-0.0367 1.2347,-0.0426 1.2165,-0.0485 1.197,-0.0485 q -0.0215,0 -0.0409,0.0076 Q 1.1367,-0.0333 1.1235,-0.0194 1.1025,0.0018 1.091,0.0304 1.0795,0.059 1.0795,0.0895 q 0,0.0368 0.0185,0.0549 0.0184,0.0181 0.056,0.0181 0.0186,0 0.0394,-0.0056 Q 1.2143,0.1512 1.237,0.14 L 1.2285,0.1845 Q 1.2089,0.1925 1.1883,0.1965 1.1677,0.2006 1.146,0.2006 1.0915,0.2006 1.0622,0.1733 1.0329,0.1461 1.0329,0.0956 q 0,-0.0425 0.0153,-0.0783 0.0152,-0.0357 0.0453,-0.0643 0.0205,-0.0195 0.0481,-0.0295 0.0276,-0.01 0.0603,-0.01 0.019,0 0.0378,0.0042 0.0188,0.0043 0.0383,0.0128 z m 0.2183,-0.0105 -0.0068,0.035 -0.0896,0 -0.0291,0.1484 q -0.0015,0.0083 -0.0022,0.0139 -7e-4,0.0056 -7e-4,0.0088 0,0.0156 0.0094,0.0227 0.0094,0.0071 0.0301,0.0071 l 0.0454,0 -0.0075,0.0376 -0.043,0 q -0.04,0 -0.0597,-0.0156 Q 1.323,0.1622 1.323,0.1305 q 0,-0.0056 7e-4,-0.0123 7e-4,-0.0067 0.0022,-0.0148 l 0.029,-0.1484 -0.038,0 0.007,-0.035 0.0374,0 0.0151,-0.0776 0.0449,0 -0.0148,0.0776 0.0898,0 z m 0.2075,0.0415 Q 1.697,-0.0421 1.6882,-0.0441 1.6794,-0.046 1.6694,-0.046 1.6335,-0.046 1.6067,-0.0188 1.5798,0.0084 1.571,0.0541 l -0.0276,0.1394 -0.0449,0 0.0535,-0.2735 0.0449,0 -0.0086,0.0425 q 0.0179,-0.0237 0.0426,-0.0364 0.0248,-0.0126 0.0529,-0.0126 0.0073,0 0.0144,8e-4 0.0071,9e-4 0.0142,0.0028 l -0.0086,0.0444 z m 0.0742,-0.1479 0.045,0 -0.074,0.3799 -0.0449,0 0.0739,-0.3799 z" />
  </g>
  <g
     style="font-size:0.5px;font-family:sans-serif;stroke-width:0.04"
     id="g33"
     transform="matrix(50,0,0,50,228.915,264)"
     font-size="0.5px">
    <path
       style="stroke:none"
       inkscape:connector-curvature="0"
       id="path35"
       d="m -0.7998,-0.2369 0.0498,0 0.0767,0.3081 0.0764,-0.3081 0.0554,0 0.0767,0.3081 0.0764,-0.3081 0.05,0 -0.0915,0.3645 -0.062,0 -0.0769,-0.3164 -0.0777,0.3164 -0.062,0 -0.0913,-0.3645 z m 0.6487,0.0486 -0.0669,0.1814 0.134,0 -0.0671,-0.1814 z m -0.0279,-0.0486 0.0559,0 0.139,0.3645 -0.0513,0 -0.0332,-0.0935 -0.1643,0 -0.0332,0.0935 -0.052,0 0.1391,-0.3645 z m 0.2481,0 0.0493,0 0,0.3645 -0.0493,0 0,-0.3645 z m 0.0969,0 0.3084,0 0,0.0415 -0.1294,0 0,0.323 -0.0496,0 0,-0.323 -0.1294,0 0,-0.0415 z m 0.3384,0 0.053,0 0.0905,0.1355 0.0911,-0.1355 0.053,0 -0.1172,0.175 0.125,0.1895 -0.053,0 -0.1025,-0.1551 -0.1033,0.1551 -0.0532,0 0.1301,-0.1946 -0.1135,-0.1699 z" />
  </g>
  <g
     style="font-size:0.5px;font-family:sans-serif;fill:#ffffff;stroke:#ffffff;stroke-width:0.04"
     id="g37"
     transform="matrix(50,0,0,50,228.915,101.5)"
     font-size="0.5px">
    <rect
       style="stroke:none"
       id="rect39"
       y="-1.25"
       x="-2"
       width="4"
       height="2.5" />
    <rect
       style="fill:none;stroke:#000000;stroke-width:0.06"
       id="rect41"
       y="-1.25"
       x="-2"
       width="4"
       height="2.5" />
    <line
       style="fill:none;stroke:#000000"
       id="line43"
       y2="0"
       y1="0"
       x2="-2"
       x1="-2.5" />
    <line
       style="fill:none;stroke:#000000"
       id="line45"
       y2="-0.75"
       y1="-0.75"
       x2="2"
       x1="2.5" />
    <line
       style="fill:none;stroke:#000000"
       id="line47"
       y2="0.75"
       y1="0.75"
       x2="2"
       x1="2.5" />
    <path
       style="fill:#ff0000;stroke:none"
       inkscape:connector-curvature="0"
       id="path49"
       d="M -1.55,-0.0234 -1.5585,0.019 Q -1.5764,0.0093 -1.5961,0.0044 -1.6159,-5e-4 -1.6369,-5e-4 q -0.0354,0 -0.0558,0.0121 -0.0204,0.0121 -0.0204,0.0328 0,0.0242 0.0474,0.0371 0.0036,0.001 0.0054,0.0015 l 0.0143,0.0044 q 0.045,0.0125 0.06,0.0261 0.015,0.0137 0.015,0.0374 0,0.0434 -0.0345,0.0708 -0.0346,0.0273 -0.0905,0.0273 -0.0217,0 -0.0456,-0.0041 -0.024,-0.0042 -0.0528,-0.013 l 0.0088,-0.0463 q 0.0247,0.0126 0.0486,0.0192 0.0239,0.0066 0.0459,0.0066 0.0329,0 0.0536,-0.0141 0.0206,-0.0142 0.0206,-0.0359 0,-0.0235 -0.0542,-0.0379 L -1.6757,0.1223 -1.6911,0.1184 Q -1.7253,0.1094 -1.7412,0.0946 -1.757,0.0798 -1.757,0.0569 q 0,-0.0437 0.0328,-0.0694 0.0328,-0.0256 0.0892,-0.0256 0.0223,0 0.0434,0.0037 0.0211,0.0036 0.0416,0.011 z m 0.102,-0.1145 0.045,0 -0.011,0.0568 -0.0449,0 0.0109,-0.0568 z m -0.0205,0.1064 0.045,0 -0.0535,0.2734 -0.0449,0 0.0534,-0.2734 z m 0.366,0 -0.0466,0.2395 q -0.0135,0.0696 -0.0514,0.1038 -0.038,0.0341 -0.1022,0.0341 -0.0237,0 -0.0439,-0.0035 -0.0203,-0.0035 -0.0379,-0.0109 l 0.0083,-0.0436 q 0.0166,0.0107 0.0352,0.0158 0.0185,0.0051 0.0395,0.0051 0.0428,0 0.0702,-0.0233 0.0275,-0.0233 0.0363,-0.067 L -1.1911,0.198 q -0.0188,0.0215 -0.0437,0.0327 -0.0249,0.0112 -0.0537,0.0112 -0.0415,0 -0.0653,-0.0274 -0.0238,-0.0275 -0.0238,-0.0756 0,-0.0378 0.0144,-0.0741 0.0144,-0.0362 0.0405,-0.0643 0.0173,-0.0186 0.0404,-0.0286 0.0231,-0.01 0.0482,-0.01 0.0276,0 0.0481,0.0128 0.0205,0.0129 0.0305,0.0363 l 0.0079,-0.0425 0.0451,0 z m -0.0676,0.1004 q 0,-0.0333 -0.0156,-0.0513 -0.0157,-0.0181 -0.0445,-0.0181 -0.0178,0 -0.0339,0.0071 -0.0161,0.0071 -0.0276,0.0198 -0.0186,0.021 -0.0289,0.0494 -0.0104,0.0284 -0.0104,0.0587 0,0.0337 0.0157,0.0518 0.0158,0.0181 0.0453,0.0181 0.0428,0 0.0713,-0.0387 0.0286,-0.0387 0.0286,-0.0968 z" />
    <path
       style="fill:#0000ff;stroke:none"
       inkscape:connector-curvature="0"
       id="path51"
       d="M 1.2058,-0.8718 1.1972,-0.8294 Q 1.1794,-0.8391 1.1596,-0.844 1.1398,-0.8489 1.1189,-0.8489 q -0.0355,0 -0.0558,0.0121 -0.0204,0.0121 -0.0204,0.0328 0,0.0242 0.0473,0.0371 0.0037,0.001 0.0054,0.0015 l 0.0144,0.0044 q 0.0449,0.0125 0.0599,0.0261 0.0151,0.0137 0.0151,0.0374 0,0.0434 -0.0346,0.0708 -0.0345,0.0273 -0.0904,0.0273 -0.0218,0 -0.0457,-0.0041 -0.0239,-0.0042 -0.0527,-0.013 l 0.0088,-0.0463 q 0.0246,0.0127 0.0486,0.0192 0.0239,0.0066 0.0459,0.0066 0.0329,0 0.0535,-0.0141 0.0207,-0.0142 0.0207,-0.0359 0,-0.0234 -0.0542,-0.0379 L 1.08,-0.7261 1.0647,-0.73 Q 1.0305,-0.739 1.0146,-0.7538 0.9987,-0.7686 0.9987,-0.7915 q 0,-0.0437 0.0329,-0.0693 0.0328,-0.0257 0.0892,-0.0257 0.0222,0 0.0433,0.0037 0.0212,0.0037 0.0417,0.011 z m 0.279,0.1094 -0.0305,0.156 -0.0449,0 0.0083,-0.0415 q -0.0198,0.0244 -0.0451,0.0364 -0.0252,0.0121 -0.0562,0.0121 -0.035,0 -0.0573,-0.0213 -0.0223,-0.0214 -0.0223,-0.0548 0,-0.0479 0.0382,-0.0757 0.0382,-0.0279 0.1053,-0.0279 l 0.0625,0 0.0025,-0.0119 q 5e-4,-0.002 7e-4,-0.0043 2e-4,-0.0023 2e-4,-0.0072 0,-0.0217 -0.0177,-0.0338 -0.0177,-0.0121 -0.0496,-0.0121 -0.022,0 -0.0451,0.0056 -0.0231,0.0056 -0.0475,0.0169 l 0.0078,-0.0415 q 0.0254,-0.0096 0.0497,-0.0143 0.0243,-0.0048 0.047,-0.0048 0.0484,0 0.0736,0.021 0.0253,0.021 0.0253,0.0611 0,0.008 -0.0012,0.0189 -0.0012,0.0108 -0.0037,0.0231 z m -0.0486,0.0185 -0.0449,0 q -0.0552,0 -0.0817,0.0148 -0.0264,0.0147 -0.0264,0.0457 0,0.0215 0.0135,0.0337 0.0136,0.0123 0.0375,0.0123 0.0366,0 0.064,-0.0263 0.0273,-0.0262 0.0361,-0.0702 l 0.0019,-0.01 z m 0.365,-0.0276 -0.032,0.1651 -0.0451,0 0.032,-0.1634 q 0.0021,-0.0115 0.0034,-0.0202 0.0012,-0.0088 0.0012,-0.014 0,-0.0205 -0.013,-0.0319 -0.0129,-0.0115 -0.0361,-0.0115 -0.0361,0 -0.0622,0.024 -0.0261,0.0241 -0.0342,0.0653 l -0.03,0.1517 -0.045,0 0.053,-0.2735 0.0449,0 -0.009,0.043 q 0.0188,-0.0237 0.0452,-0.0366 0.0263,-0.013 0.0554,-0.013 0.0361,0 0.056,0.0196 0.0199,0.0195 0.0199,0.0549 0,0.0088 -0.0011,0.0188 -0.0011,0.01 -0.0033,0.0217 z" />
    <path
       style="fill:#ff0000;stroke:none"
       inkscape:connector-curvature="0"
       id="path53"
       d="M 1.278,0.6805 1.269,0.725 Q 1.2529,0.7133 1.2347,0.7074 1.2165,0.7015 1.197,0.7015 1.1755,0.7015 1.1561,0.7091 1.1367,0.7167 1.1235,0.7306 1.1025,0.7518 1.091,0.7804 1.0795,0.809 1.0795,0.8395 q 0,0.0368 0.0185,0.0549 0.0184,0.0181 0.056,0.0181 0.0186,0 0.0394,-0.0056 Q 1.2143,0.9013 1.237,0.89 L 1.2285,0.9345 Q 1.2089,0.9425 1.1883,0.9465 1.1677,0.9506 1.146,0.9506 1.0915,0.9506 1.0622,0.9233 1.0329,0.8961 1.0329,0.8456 1.0329,0.8031 1.0482,0.7673 1.0634,0.7316 1.0935,0.703 1.114,0.6835 1.1416,0.6735 q 0.0276,-0.01 0.0603,-0.01 0.019,0 0.0378,0.0042 Q 1.2585,0.672 1.278,0.6805 Z M 1.4963,0.67 1.4895,0.705 l -0.0896,0 -0.0291,0.1484 q -0.0015,0.0083 -0.0022,0.0139 -7e-4,0.0056 -7e-4,0.0088 0,0.0156 0.0094,0.0227 0.0094,0.0071 0.0301,0.0071 l 0.0454,0 -0.0075,0.0376 -0.043,0 q -0.04,0 -0.0597,-0.0156 Q 1.323,0.9122 1.323,0.8805 q 0,-0.0056 7e-4,-0.0123 7e-4,-0.0067 0.0022,-0.0148 l 0.029,-0.1484 -0.038,0 0.007,-0.035 0.0374,0 0.0151,-0.0776 0.0449,0 -0.0148,0.0776 0.0898,0 z M 1.7038,0.7115 Q 1.697,0.7079 1.6882,0.7059 1.6794,0.704 1.6694,0.704 1.6335,0.704 1.6067,0.7312 1.5798,0.7584 1.571,0.8041 l -0.0276,0.1394 -0.0449,0 L 1.552,0.67 1.5969,0.67 1.5883,0.7125 Q 1.6062,0.6888 1.6309,0.6761 1.6557,0.6635 1.6838,0.6635 q 0.0073,0 0.0144,8e-4 0.0071,9e-4 0.0142,0.0028 L 1.7038,0.7115 Z m 0.0742,-0.1479 0.045,0 -0.074,0.3799 -0.0449,0 0.0739,-0.3799 z" />
  </g>
  <g
     style="font-size:0.5px;font-family:sans-serif;stroke-width:0.04"
     id="g55"
     transform="matrix(50,0,0,50,228.915,101.5)"
     font-size="0.5px">
    <path
       style="stroke:none"
       inkscape:connector-curvature="0"
       id="path57"
       d="m -0.7788,-0.2321 0.0498,0 0.0767,0.3081 0.0764,-0.3081 0.0554,0 0.0767,0.3081 0.0764,-0.3081 0.05,0 -0.0915,0.3645 -0.062,0 -0.0769,-0.3164 -0.0777,0.3164 -0.062,0 -0.0913,-0.3645 z m 0.6487,0.0485 -0.0669,0.1814 0.134,0 -0.0671,-0.1814 z m -0.0279,-0.0485 0.0559,0 0.139,0.3645 -0.0513,0 -0.0332,-0.0935 -0.1643,0 -0.0332,0.0935 -0.052,0 0.1391,-0.3645 z m 0.2481,0 0.0493,0 0,0.3645 -0.0493,0 0,-0.3645 z m 0.0969,0 0.3084,0 0,0.0415 -0.1294,0 0,0.323 -0.0496,0 0,-0.323 -0.1294,0 0,-0.0415 z m 0.4658,0.0324 q -0.0381,0 -0.0572,0.0375 -0.0192,0.0375 -0.0192,0.1127 0,0.0749 0.0192,0.1124 0.0191,0.0375 0.0572,0.0375 0.0384,0 0.0575,-0.0375 0.0192,-0.0375 0.0192,-0.1124 0,-0.0752 -0.0192,-0.1127 -0.0191,-0.0375 -0.0575,-0.0375 z m 0,-0.039 q 0.0613,0 0.0937,0.0484 0.0323,0.0485 0.0323,0.1408 0,0.092 -0.0323,0.1405 -0.0324,0.0484 -0.0937,0.0484 -0.0612,0 -0.0936,-0.0484 -0.0324,-0.0485 -0.0324,-0.1405 0,-0.0923 0.0324,-0.1408 0.0324,-0.0484 0.0936,-0.0484 z" />
  </g>
  <g
     style="font-size:0.5px;font-family:sans-serif;fill:#ffffff;stroke:#ffffff;stroke-width:0.04"
     id="g59"
     transform="matrix(50,0,0,50,228.915,414)"
     font-size="0.5px">
    <rect
       style="stroke:none"
       id="rect61"
       y="-1"
       x="-2"
       width="4"
       height="2.5" />
    <rect
       style="fill:none;stroke:#000000;stroke-width:0.06"
       id="rect63"
       y="-1"
       x="-2"
       width="4"
       height="2.5" />
    <line
       style="fill:none;stroke:#000000"
       id="line65"
       y2="0.25"
       y1="0.25"
       x2="-2"
       x1="-2.5" />
    <line
       style="fill:none;stroke:#000000"
       id="line67"
       y2="1"
       y1="1"
       x2="2"
       x1="2.5" />
    <line
       style="fill:none;stroke:#000000"
       id="line69"
       y2="-0.5"
       y1="-0.5"
       x2="2"
       x1="2.5" />
    <path
       style="fill:#ff0000;stroke:none"
       inkscape:connector-curvature="0"
       id="path71"
       d="M -1.55,0.2266 -1.5585,0.269 Q -1.5764,0.2593 -1.5961,0.2544 -1.6159,0.2495 -1.6369,0.2495 q -0.0354,0 -0.0558,0.0121 -0.0204,0.0121 -0.0204,0.0328 0,0.0242 0.0474,0.0371 0.0036,0.001 0.0054,0.0015 l 0.0143,0.0044 q 0.045,0.0125 0.06,0.0261 0.015,0.0137 0.015,0.0374 0,0.0434 -0.0345,0.0708 -0.0346,0.0273 -0.0905,0.0273 -0.0217,0 -0.0456,-0.0041 -0.024,-0.0042 -0.0528,-0.013 l 0.0088,-0.0463 q 0.0247,0.0126 0.0486,0.0192 0.0239,0.0066 0.0459,0.0066 0.0329,0 0.0536,-0.0141 0.0206,-0.0142 0.0206,-0.0359 0,-0.0235 -0.0542,-0.0379 L -1.6757,0.3723 -1.6911,0.3684 Q -1.7253,0.3594 -1.7412,0.3446 -1.757,0.3298 -1.757,0.3069 q 0,-0.0437 0.0328,-0.0694 0.0328,-0.0256 0.0892,-0.0256 0.0223,0 0.0434,0.0037 0.0211,0.0036 0.0416,0.011 z m 0.102,-0.1145 0.045,0 -0.011,0.0568 -0.0449,0 0.0109,-0.0568 z m -0.0205,0.1064 0.045,0 -0.0535,0.2734 -0.0449,0 0.0534,-0.2734 z m 0.366,0 -0.0466,0.2395 q -0.0135,0.0696 -0.0514,0.1038 -0.038,0.0341 -0.1022,0.0341 -0.0237,0 -0.0439,-0.0035 -0.0203,-0.0035 -0.0379,-0.0109 l 0.0083,-0.0436 q 0.0166,0.0107 0.0352,0.0158 0.0185,0.0051 0.0395,0.0051 0.0428,0 0.0702,-0.0233 0.0275,-0.0233 0.0363,-0.067 L -1.1911,0.448 q -0.0188,0.0215 -0.0437,0.0327 -0.0249,0.0112 -0.0537,0.0112 -0.0415,0 -0.0653,-0.0274 -0.0238,-0.0275 -0.0238,-0.0756 0,-0.0378 0.0144,-0.0741 0.0144,-0.0362 0.0405,-0.0643 0.0173,-0.0186 0.0404,-0.0286 0.0231,-0.01 0.0482,-0.01 0.0276,0 0.0481,0.0128 0.0205,0.0129 0.0305,0.0363 l 0.0079,-0.0425 0.0451,0 z m -0.0676,0.1004 q 0,-0.0333 -0.0156,-0.0513 -0.0157,-0.0181 -0.0445,-0.0181 -0.0178,0 -0.0339,0.0071 -0.0161,0.0071 -0.0276,0.0198 -0.0186,0.021 -0.0289,0.0494 -0.0104,0.0284 -0.0104,0.0587 0,0.0337 0.0157,0.0518 0.0158,0.0181 0.0453,0.0181 0.0428,0 0.0713,-0.0387 0.0286,-0.0387 0.0286,-0.0968 z" />
    <path
       style="fill:#0000ff;stroke:none"
       inkscape:connector-curvature="0"
       id="path73"
       d="M 1.2058,0.8782 1.1972,0.9206 Q 1.1794,0.9109 1.1596,0.906 1.1398,0.9011 1.1189,0.9011 q -0.0355,0 -0.0558,0.0121 -0.0204,0.0121 -0.0204,0.0328 0,0.0242 0.0473,0.0371 0.0037,0.001 0.0054,0.0015 L 1.1098,0.989 q 0.0449,0.0125 0.0599,0.0261 0.0151,0.0137 0.0151,0.0374 0,0.0434 -0.0346,0.0708 Q 1.1157,1.1506 1.0598,1.1506 1.038,1.1506 1.0141,1.1465 0.9902,1.1423 0.9614,1.1335 L 0.9702,1.0872 Q 0.9948,1.0999 1.0188,1.1064 1.0427,1.113 1.0647,1.113 1.0976,1.113 1.1182,1.0989 1.1389,1.0847 1.1389,1.063 1.1389,1.0396 1.0847,1.0251 L 1.08,1.0239 1.0647,1.02 Q 1.0305,1.011 1.0146,0.9962 0.9987,0.9814 0.9987,0.9585 q 0,-0.0437 0.0329,-0.0693 0.0328,-0.0257 0.0892,-0.0257 0.0222,0 0.0433,0.0037 0.0212,0.0037 0.0417,0.011 z m 0.279,0.1094 -0.0305,0.156 -0.0449,0 0.0083,-0.0415 Q 1.3979,1.1265 1.3726,1.1385 1.3474,1.1506 1.3164,1.1506 1.2814,1.1506 1.2591,1.1293 1.2368,1.1079 1.2368,1.0745 1.2368,1.0266 1.275,0.9988 1.3132,0.9709 1.3803,0.9709 l 0.0625,0 0.0025,-0.0119 q 5e-4,-0.002 7e-4,-0.0043 2e-4,-0.0023 2e-4,-0.0072 0,-0.0217 -0.0177,-0.0338 Q 1.4108,0.9016 1.3789,0.9016 1.3569,0.9016 1.3338,0.9072 1.3107,0.9128 1.2863,0.9241 L 1.2941,0.8826 Q 1.3195,0.873 1.3438,0.8683 1.3681,0.8635 1.3908,0.8635 q 0.0484,0 0.0736,0.021 0.0253,0.021 0.0253,0.0611 0,0.008 -0.0012,0.0189 -0.0012,0.0108 -0.0037,0.0231 z m -0.0486,0.0185 -0.0449,0 q -0.0552,0 -0.0817,0.0148 -0.0264,0.0147 -0.0264,0.0457 0,0.0215 0.0135,0.0337 0.0136,0.0123 0.0375,0.0123 0.0366,0 0.064,-0.0263 0.0273,-0.0262 0.0361,-0.0702 l 0.0019,-0.01 z m 0.365,-0.0276 -0.032,0.1651 -0.0451,0 0.032,-0.1634 Q 1.7582,0.9687 1.7595,0.96 1.7607,0.9512 1.7607,0.946 1.7607,0.9255 1.7477,0.9141 1.7348,0.9026 1.7116,0.9026 q -0.0361,0 -0.0622,0.024 -0.0261,0.0241 -0.0342,0.0653 l -0.03,0.1517 -0.045,0 0.053,-0.2735 0.0449,0 -0.009,0.043 q 0.0188,-0.0237 0.0452,-0.0366 0.0263,-0.013 0.0554,-0.013 0.0361,0 0.056,0.0196 0.0199,0.0195 0.0199,0.0549 0,0.0088 -0.0011,0.0188 -0.0011,0.01 -0.0033,0.0217 z" />
    <path
       style="fill:#ff0000;stroke:none"
       inkscape:connector-curvature="0"
       id="path75"
       d="M 1.278,-0.5695 1.269,-0.525 Q 1.2529,-0.5367 1.2347,-0.5426 1.2165,-0.5485 1.197,-0.5485 q -0.0215,0 -0.0409,0.0076 -0.0194,0.0076 -0.0326,0.0215 -0.021,0.0212 -0.0325,0.0498 -0.0115,0.0286 -0.0115,0.0591 0,0.0368 0.0185,0.0549 0.0184,0.0181 0.056,0.0181 0.0186,0 0.0394,-0.0056 Q 1.2143,-0.3487 1.237,-0.36 l -0.0085,0.0445 q -0.0196,0.008 -0.0402,0.012 -0.0206,0.0041 -0.0423,0.0041 -0.0545,0 -0.0838,-0.0273 -0.0293,-0.0272 -0.0293,-0.0777 0,-0.0425 0.0153,-0.0783 0.0152,-0.0357 0.0453,-0.0643 0.0205,-0.0195 0.0481,-0.0295 0.0276,-0.01 0.0603,-0.01 0.019,0 0.0378,0.0042 0.0188,0.0043 0.0383,0.0128 z m 0.2183,-0.0105 -0.0068,0.035 -0.0896,0 -0.0291,0.1484 q -0.0015,0.0083 -0.0022,0.0139 -7e-4,0.0056 -7e-4,0.0088 0,0.0156 0.0094,0.0227 0.0094,0.0071 0.0301,0.0071 l 0.0454,0 -0.0075,0.0376 -0.043,0 q -0.04,0 -0.0597,-0.0156 -0.0196,-0.0157 -0.0196,-0.0474 0,-0.0056 7e-4,-0.0123 7e-4,-0.0067 0.0022,-0.0148 l 0.029,-0.1484 -0.038,0 0.007,-0.035 0.0374,0 0.0151,-0.0776 0.0449,0 -0.0148,0.0776 0.0898,0 z m 0.2075,0.0415 Q 1.697,-0.5421 1.6882,-0.5441 1.6794,-0.546 1.6694,-0.546 q -0.0359,0 -0.0627,0.0272 -0.0269,0.0272 -0.0357,0.0729 l -0.0276,0.1394 -0.0449,0 0.0535,-0.2735 0.0449,0 -0.0086,0.0425 q 0.0179,-0.0237 0.0426,-0.0364 0.0248,-0.0126 0.0529,-0.0126 0.0073,0 0.0144,8e-4 0.0071,9e-4 0.0142,0.0028 l -0.0086,0.0444 z m 0.0742,-0.1479 0.045,0 -0.074,0.3799 -0.0449,0 0.0739,-0.3799 z" />
  </g>
  <g
     style="font-size:0.5px;font-family:sans-serif;stroke-width:0.04"
     id="g77"
     transform="matrix(50,0,0,50,228.915,414)"
     font-size="0.5px">
    <path
       style="stroke:none"
       inkscape:connector-curvature="0"
       id="path79"
       d="m -0.7788,0.0179 0.0498,0 0.0767,0.3081 0.0764,-0.3081 0.0554,0 0.0767,0.3081 0.0764,-0.3081 0.05,0 -0.0915,0.3645 -0.062,0 -0.0769,-0.3164 -0.0777,0.3164 -0.062,0 -0.0913,-0.3645 z m 0.6487,0.0485 -0.0669,0.1814 0.134,0 -0.0671,-0.1814 z m -0.0279,-0.0485 0.0559,0 0.139,0.3645 -0.0513,0 -0.0332,-0.0935 -0.1643,0 -0.0332,0.0935 -0.052,0 0.1391,-0.3645 z m 0.2481,0 0.0493,0 0,0.3645 -0.0493,0 0,-0.3645 z m 0.0969,0 0.3084,0 0,0.0415 -0.1294,0 0,0.323 -0.0496,0 0,-0.323 -0.1294,0 0,-0.0415 z m 0.4658,0.0324 q -0.0381,0 -0.0572,0.0375 -0.0192,0.0375 -0.0192,0.1127 0,0.0749 0.0192,0.1124 0.0191,0.0375 0.0572,0.0375 0.0384,0 0.0575,-0.0375 Q 0.7295,0.2754 0.7295,0.2005 0.7295,0.1253 0.7103,0.0878 0.6912,0.0503 0.6528,0.0503 Z m 0,-0.039 q 0.0613,0 0.0937,0.0484 0.0323,0.0485 0.0323,0.1408 0,0.092 -0.0323,0.1405 Q 0.7141,0.3894 0.6528,0.3894 0.5916,0.3894 0.5592,0.341 0.5268,0.2925 0.5268,0.2005 0.5268,0.1082 0.5592,0.0597 0.5916,0.0113 0.6528,0.0113 Z" />
  </g>
  <g
     style="font-size:0.5px;font-family:sans-serif;fill:#ffffff;stroke:#ffffff;stroke-width:0.06"
     id="g81"
     transform="matrix(50,0,0,50,66.415,214)"
     font-size="0.5px">
    <path
       style="stroke:none"
       inkscape:connector-curvature="0"
       id="path83"
       d="M -0.13,-0.13 0,-0.13 0.13,0 0,0.13 l -0.13,0 z" />
    <path
       style="fill:none;stroke:#000000"
       inkscape:connector-curvature="0"
       id="path85"
       d="M -0.13,-0.13 0,-0.13 0.13,0 0,0.13 l -0.13,0 z" />
  </g>
  <g
     style="font-style:italic;font-size:0.5px;font-family:sans-serif;fill:#ff0000;stroke:#ff0000;stroke-width:0.06"
     id="g87"
     transform="matrix(50,0,0,50,66.415,214)"
     font-style="italic"
     font-size="0.5px">
    <path
       style="stroke:none"
       inkscape:connector-curvature="0"
       id="path89"
       d="m -1.0392,-0.096 -0.0086,0.0425 q -0.0178,-0.0098 -0.0376,-0.0147 -0.0198,-0.0049 -0.0407,-0.0049 -0.0354,0 -0.0558,0.0121 -0.0204,0.0121 -0.0204,0.0328 0,0.0242 0.0473,0.0372 0.0037,9e-4 0.0054,0.0014 l 0.0144,0.0044 q 0.0449,0.0125 0.0599,0.0261 0.0151,0.0137 0.0151,0.0374 0,0.0435 -0.0346,0.0708 -0.0345,0.0273 -0.0904,0.0273 -0.0218,0 -0.0457,-0.0041 -0.0239,-0.0042 -0.0527,-0.013 L -1.2748,0.113 q 0.0246,0.0127 0.0486,0.0193 0.0239,0.0065 0.0459,0.0065 0.0329,0 0.0535,-0.0141 0.0207,-0.0142 0.0207,-0.0359 0,-0.0234 -0.0542,-0.0378 L -1.165,0.0497 -1.1803,0.0458 Q -1.2145,0.0368 -1.2304,0.022 -1.2463,0.0073 -1.2463,-0.0157 q 0,-0.0437 0.0329,-0.0693 0.0328,-0.0257 0.0892,-0.0257 0.0222,0 0.0433,0.0037 0.0212,0.0037 0.0417,0.011 z m 0.102,-0.1145 0.0449,0 -0.011,0.0569 -0.0449,0 0.011,-0.0569 z m -0.0205,0.1064 0.0449,0 -0.0534,0.2735 -0.045,0 0.0535,-0.2735 z m 0.366,0 -0.0467,0.2395 q -0.0134,0.0696 -0.0514,0.1038 -0.0379,0.0342 -0.1021,0.0342 -0.0237,0 -0.044,-0.0036 Q -0.8561,0.2663 -0.8737,0.259 l 0.0083,-0.0437 q 0.0166,0.0107 0.0351,0.0158 0.0186,0.0052 0.0396,0.0052 0.0427,0 0.0702,-0.0234 0.0275,-0.0233 0.0362,-0.067 l 0.0039,-0.0205 q -0.0187,0.0215 -0.0436,0.0327 -0.0249,0.0113 -0.0538,0.0113 -0.0415,0 -0.0653,-0.0275 -0.0238,-0.0275 -0.0238,-0.0756 0,-0.0378 0.0144,-0.0741 0.0144,-0.0362 0.0406,-0.0643 0.0173,-0.0186 0.0404,-0.0286 0.023,-0.01 0.0482,-0.01 0.0276,0 0.0481,0.0129 0.0205,0.0128 0.0305,0.0362 l 0.0078,-0.0425 0.0452,0 z m -0.0677,0.1004 q 0,-0.0332 -0.0156,-0.0513 -0.0156,-0.0181 -0.0444,-0.0181 -0.0178,0 -0.0339,0.0071 -0.0162,0.0071 -0.0276,0.0198 -0.0186,0.021 -0.029,0.0494 -0.0103,0.0285 -0.0103,0.0587 0,0.0337 0.0157,0.0518 0.0158,0.0181 0.0453,0.0181 0.0427,0 0.0713,-0.0387 0.0285,-0.0387 0.0285,-0.0968 z m 0.1194,0.1316 0.0806,0 0.0544,-0.2806 -0.091,0.0176 0.0085,-0.0425 0.0906,-0.0175 0.0496,0 -0.063,0.323 0.0803,0 -0.0078,0.0415 -0.2102,0 0.008,-0.0415 z" />
  </g>
  <g
     style="font-style:italic;font-size:0.5px;font-family:sans-serif;fill:#ffffff;stroke:#ffffff;stroke-width:0.06"
     id="g91"
     transform="matrix(50,0,0,50,66.415,314)"
     font-style="italic"
     font-size="0.5px">
    <path
       style="stroke:none"
       inkscape:connector-curvature="0"
       id="path93"
       d="M -0.13,-0.13 0,-0.13 0.13,0 0,0.13 l -0.13,0 z" />
    <path
       style="fill:none;stroke:#000000"
       inkscape:connector-curvature="0"
       id="path95"
       d="M -0.13,-0.13 0,-0.13 0.13,0 0,0.13 l -0.13,0 z" />
  </g>
  <g
     style="font-style:italic;font-size:0.5px;font-family:sans-serif;fill:#ff0000;stroke:#ff0000;stroke-width:0.06"
     id="g97"
     transform="matrix(50,0,0,50,66.415,314)"
     font-style="italic"
     font-size="0.5px">
    <path
       style="stroke:none"
       inkscape:connector-curvature="0"
       id="path99"
       d="m -1.0839,-0.096 -0.0086,0.0425 q -0.0178,-0.0098 -0.0375,-0.0147 -0.0198,-0.0049 -0.0408,-0.0049 -0.0354,0 -0.0558,0.0121 -0.0204,0.0121 -0.0204,0.0328 0,0.0242 0.0474,0.0372 0.0036,9e-4 0.0054,0.0014 l 0.0143,0.0044 q 0.045,0.0125 0.06,0.0261 0.015,0.0137 0.015,0.0374 0,0.0435 -0.0346,0.0708 -0.0345,0.0273 -0.0904,0.0273 -0.0217,0 -0.0457,-0.0041 -0.0239,-0.0042 -0.0527,-0.013 L -1.3195,0.113 q 0.0247,0.0127 0.0486,0.0193 0.0239,0.0065 0.0459,0.0065 0.0329,0 0.0536,-0.0141 0.0206,-0.0142 0.0206,-0.0359 0,-0.0234 -0.0542,-0.0378 L -1.2096,0.0497 -1.225,0.0458 Q -1.2592,0.0368 -1.2751,0.022 -1.2909,0.0073 -1.2909,-0.0157 q 0,-0.0437 0.0328,-0.0693 0.0328,-0.0257 0.0892,-0.0257 0.0222,0 0.0434,0.0037 0.0211,0.0037 0.0416,0.011 z m 0.102,-0.1145 0.045,0 -0.011,0.0569 -0.0449,0 0.0109,-0.0569 z m -0.0205,0.1064 0.045,0 -0.0535,0.2735 -0.0449,0 0.0534,-0.2735 z m 0.366,0 -0.0466,0.2395 q -0.0135,0.0696 -0.0514,0.1038 -0.038,0.0342 -0.1022,0.0342 -0.0237,0 -0.0439,-0.0036 Q -0.9008,0.2663 -0.9184,0.259 l 0.0083,-0.0437 q 0.0166,0.0107 0.0352,0.0158 0.0185,0.0052 0.0395,0.0052 0.0428,0 0.0702,-0.0234 0.0275,-0.0233 0.0363,-0.067 L -0.725,0.1254 q -0.0188,0.0215 -0.0437,0.0327 -0.0249,0.0113 -0.0537,0.0113 -0.0415,0 -0.0653,-0.0275 -0.0238,-0.0275 -0.0238,-0.0756 0,-0.0378 0.0144,-0.0741 0.0144,-0.0362 0.0405,-0.0643 0.0173,-0.0186 0.0404,-0.0286 0.0231,-0.01 0.0482,-0.01 0.0276,0 0.0481,0.0129 0.0205,0.0128 0.0305,0.0362 l 0.0078,-0.0425 0.0452,0 z m -0.0676,0.1004 q 0,-0.0332 -0.0156,-0.0513 -0.0157,-0.0181 -0.0445,-0.0181 -0.0178,0 -0.0339,0.0071 -0.0161,0.0071 -0.0276,0.0198 -0.0186,0.021 -0.0289,0.0494 -0.0104,0.0285 -0.0104,0.0587 0,0.0337 0.0157,0.0518 0.0158,0.0181 0.0453,0.0181 0.0428,0 0.0713,-0.0387 0.0286,-0.0387 0.0286,-0.0968 z m 0.3174,-0.003 -0.1575,0.135 0.1741,0 -0.0086,0.0411 -0.2366,0 0.0081,-0.0415 0.1646,-0.1412 q 0.0329,-0.0285 0.0467,-0.0501 0.0138,-0.0216 0.0138,-0.0443 0,-0.0237 -0.0166,-0.0386 -0.0166,-0.0149 -0.0435,-0.0149 -0.0231,0 -0.0515,0.0083 -0.0283,0.0083 -0.0605,0.0242 l 0.009,-0.0489 q 0.0303,-0.0119 0.0579,-0.018 0.0276,-0.0061 0.051,-0.0061 0.0479,0 0.077,0.0254 0.0292,0.0253 0.0292,0.0666 0,0.0278 -0.0139,0.0531 -0.0139,0.0253 -0.0427,0.0499 z" />
  </g>
  <g
     style="font-style:italic;font-size:0.5px;font-family:sans-serif;stroke-width:0.06"
     id="g101"
     transform="matrix(50,0,0,50,91.415,314)"
     font-style="italic"
     font-size="0.5px">
    <circle
       style="stroke:none"
       id="circle103"
       r="0.125"
       cy="0"
       cx="0" />
  </g>
  <g
     style="font-style:italic;font-size:0.5px;font-family:sans-serif;stroke-width:0.06"
     id="g105"
     transform="matrix(50,0,0,50,91.415,214)"
     font-style="italic"
     font-size="0.5px">
    <circle
       style="stroke:none"
       id="circle107"
       r="0.125"
       cy="0"
       cx="0" />
  </g>
  <g
     style="font-style:italic;font-size:0.5px;font-family:sans-serif;fill:#ffffff;stroke:#ffffff;stroke-width:0.06"
     id="g109"
     transform="matrix(-50,0,0,-50,578.915,264)"
     font-style="italic"
     font-size="0.5px">
    <path
       style="stroke:none"
       inkscape:connector-curvature="0"
       id="path111"
       d="M -0.13,-0.13 0,-0.13 0.13,0 0,0.13 l -0.13,0 z" />
    <path
       style="fill:none;stroke:#000000"
       inkscape:connector-curvature="0"
       id="path113"
       d="M -0.13,-0.13 0,-0.13 0.13,0 0,0.13 l -0.13,0 z" />
  </g>
  <g
     style="font-style:italic;font-size:0.5px;font-family:sans-serif;fill:#ff0000;stroke:#ff0000;stroke-width:0.06"
     id="g115"
     transform="matrix(50,0,0,50,578.915,264)"
     font-style="italic"
     font-size="0.5px">
    <path
       style="stroke:none"
       inkscape:connector-curvature="0"
       id="path117"
       d="m 0.5751,-0.1275 -0.009,0.0444 Q 0.55,-0.0948 0.5318,-0.1006 0.5136,-0.1065 0.4941,-0.1065 q -0.0215,0 -0.0409,0.0076 -0.0195,0.0075 -0.0326,0.0214 -0.021,0.0213 -0.0325,0.0499 -0.0115,0.0285 -0.0115,0.059 0,0.0369 0.0185,0.055 0.0184,0.018 0.056,0.018 0.0185,0 0.0394,-0.0056 Q 0.5114,0.0932 0.5341,0.082 L 0.5255,0.1264 Q 0.506,0.1345 0.4854,0.1385 0.4648,0.1425 0.443,0.1425 0.3886,0.1425 0.3593,0.1153 0.33,0.0881 0.33,0.0375 q 0,-0.0424 0.0153,-0.0782 0.0152,-0.0358 0.0452,-0.0643 0.0205,-0.0196 0.0481,-0.0296 0.0276,-0.01 0.0603,-0.01 0.0191,0 0.0379,0.0043 0.0188,0.0043 0.0383,0.0128 z m 0.2183,-0.0105 -0.0069,0.0349 -0.0896,0 -0.029,0.1484 q -0.0015,0.0084 -0.0022,0.014 -7e-4,0.0056 -7e-4,0.0087 0,0.0157 0.0094,0.0228 0.0094,0.007 0.0301,0.007 l 0.0454,0 -0.0075,0.0376 -0.043,0 Q 0.6593,0.1354 0.6397,0.1198 0.62,0.1042 0.62,0.0725 q 0,-0.0057 8e-4,-0.0124 7e-4,-0.0067 0.0022,-0.0148 l 0.029,-0.1484 -0.0381,0 0.0071,-0.0349 0.0374,0 0.0151,-0.0776 0.0449,0 -0.0149,0.0776 0.0899,0 z m 0.2075,0.0415 q -0.0068,-0.0037 -0.0156,-0.0056 -0.0088,-0.002 -0.0188,-0.002 -0.0359,0 -0.0628,0.0273 -0.0268,0.0272 -0.0356,0.0728 l -0.0276,0.1394 -0.0449,0 0.0534,-0.2734 0.045,0 -0.0086,0.0425 q 0.0178,-0.0237 0.0426,-0.0364 0.0248,-0.0127 0.0529,-0.0127 0.0073,0 0.0144,9e-4 0.0071,8e-4 0.0141,0.0028 l -0.0085,0.0444 z m 0.0742,-0.148 0.0449,0 -0.0739,0.3799 -0.045,0 0.074,-0.3799 z" />
  </g>
  <g
     style="font-style:italic;font-size:0.5px;font-family:sans-serif;fill:#ffffff;stroke:#ffffff;stroke-width:0.06"
     id="g119"
     transform="matrix(50,0,0,50,578.915,76.5)"
     font-style="italic"
     font-size="0.5px">
    <path
       style="stroke:none"
       inkscape:connector-curvature="0"
       id="path121"
       d="M -0.13,-0.13 0,-0.13 0.13,0 0,0.13 l -0.13,0 z" />
    <path
       style="fill:none;stroke:#000000"
       inkscape:connector-curvature="0"
       id="path123"
       d="M -0.13,-0.13 0,-0.13 0.13,0 0,0.13 l -0.13,0 z" />
  </g>
  <g
     style="font-style:italic;font-size:0.5px;font-family:sans-serif;fill:#0000ff;stroke:#0000ff;stroke-width:0.06"
     id="g125"
     transform="matrix(50,0,0,50,578.915,76.5)"
     font-style="italic"
     font-size="0.5px">
    <path
       style="stroke:none"
       inkscape:connector-curvature="0"
       id="path127"
       d="M 0.612,-0.1095 0.5654,0.13 Q 0.5519,0.1996 0.514,0.2338 0.476,0.268 0.4118,0.268 0.3881,0.268 0.3678,0.2644 0.3476,0.2609 0.33,0.2536 L 0.3383,0.2099 Q 0.3549,0.2206 0.3735,0.2257 0.392,0.2309 0.413,0.2309 0.4557,0.2309 0.4832,0.2076 0.5107,0.1842 0.5195,0.1405 L 0.5234,0.12 Q 0.5046,0.1415 0.4797,0.1527 0.4548,0.164 0.426,0.164 0.3845,0.164 0.3606,0.1365 0.3368,0.109 0.3368,0.0609 q 0,-0.0378 0.0145,-0.0741 0.0144,-0.0362 0.0405,-0.0643 0.0173,-0.0185 0.0404,-0.0285 0.0231,-0.0101 0.0482,-0.0101 0.0276,0 0.0481,0.0129 0.0205,0.0128 0.0305,0.0362 l 0.0078,-0.0425 0.0452,0 z m -0.0676,0.1004 q 0,-0.0332 -0.0157,-0.0513 -0.0156,-0.0181 -0.0444,-0.0181 -0.0178,0 -0.0339,0.0071 -0.0162,0.0071 -0.0276,0.0198 -0.0186,0.021 -0.029,0.0494 -0.0103,0.0285 -0.0103,0.0588 0,0.0336 0.0157,0.0517 0.0158,0.0181 0.0453,0.0181 0.0427,0 0.0713,-0.0387 0.0286,-0.0387 0.0286,-0.0968 z m 0.1193,0.1316 0.0806,0 0.0545,-0.2805 -0.0911,0.0175 0.0085,-0.0424 0.0906,-0.0176 0.0496,0 -0.063,0.323 0.0803,0 -0.0078,0.0415 -0.2102,0 0.008,-0.0415 z" />
  </g>
  <g
     style="font-style:italic;font-size:0.5px;font-family:sans-serif;fill:#ffffff;stroke:#ffffff;stroke-width:0.06"
     id="g129"
     transform="matrix(50,0,0,50,578.915,451.5)"
     font-style="italic"
     font-size="0.5px">
    <path
       style="stroke:none"
       inkscape:connector-curvature="0"
       id="path131"
       d="M -0.13,-0.13 0,-0.13 0.13,0 0,0.13 l -0.13,0 z" />
    <path
       style="fill:none;stroke:#000000"
       inkscape:connector-curvature="0"
       id="path133"
       d="M -0.13,-0.13 0,-0.13 0.13,0 0,0.13 l -0.13,0 z" />
  </g>
  <g
     style="font-style:italic;font-size:0.5px;font-family:sans-serif;fill:#0000ff;stroke:#0000ff;stroke-width:0.06"
     id="g135"
     transform="matrix(50,0,0,50,578.915,451.5)"
     font-style="italic"
     font-size="0.5px">
    <path
       style="stroke:none"
       inkscape:connector-curvature="0"
       id="path137"
       d="M 0.612,-0.1072 0.5654,0.1323 Q 0.5519,0.2019 0.514,0.2361 0.476,0.2703 0.4118,0.2703 0.3881,0.2703 0.3678,0.2667 0.3476,0.2632 0.33,0.2559 L 0.3383,0.2122 Q 0.3549,0.2229 0.3735,0.228 0.392,0.2332 0.413,0.2332 0.4557,0.2332 0.4832,0.2099 0.5107,0.1865 0.5195,0.1428 L 0.5234,0.1223 Q 0.5046,0.1438 0.4797,0.155 0.4548,0.1663 0.426,0.1663 0.3845,0.1663 0.3606,0.1388 0.3368,0.1113 0.3368,0.0633 q 0,-0.0379 0.0145,-0.0741 0.0144,-0.0363 0.0405,-0.0644 0.0173,-0.0185 0.0404,-0.0285 0.0231,-0.01 0.0482,-0.01 0.0276,0 0.0481,0.0128 0.0205,0.0128 0.0305,0.0362 l 0.0078,-0.0425 0.0452,0 z m -0.0676,0.1004 q 0,-0.0332 -0.0157,-0.0513 -0.0156,-0.0181 -0.0444,-0.0181 -0.0178,0 -0.0339,0.0071 -0.0162,0.0071 -0.0276,0.0198 -0.0186,0.021 -0.029,0.0494 -0.0103,0.0285 -0.0103,0.0588 0,0.0336 0.0157,0.0517 0.0158,0.0181 0.0453,0.0181 0.0427,0 0.0713,-0.0387 0.0286,-0.0387 0.0286,-0.0968 z m 0.3173,-0.0029 -0.1574,0.135 0.1741,0 -0.0086,0.041 -0.2366,0 0.0081,-0.0415 0.1645,-0.1411 q 0.033,-0.0286 0.0468,-0.0502 0.0138,-0.0216 0.0138,-0.0443 0,-0.0237 -0.0166,-0.0386 -0.0166,-0.0149 -0.0435,-0.0149 -0.0232,0 -0.0515,0.0083 -0.0283,0.0083 -0.0605,0.0242 l 0.009,-0.0488 q 0.0303,-0.012 0.0579,-0.0181 0.0275,-0.0061 0.051,-0.0061 0.0478,0 0.077,0.0254 0.0292,0.0254 0.0292,0.0666 0,0.0279 -0.0139,0.0531 -0.0139,0.0253 -0.0428,0.05 z" />
  </g>
  <g
     style="font-style:italic;font-size:0.5px;font-family:sans-serif;stroke-width:0.06"
     id="g139"
     transform="matrix(50,0,0,50,528.8037,451.5)"
     font-style="italic"
     font-size="0.5px">
    <circle
       style="stroke:none"
       id="circle141"
       r="0.125"
       cy="0"
       cx="0" />
  </g>
  <g
     style="font-style:italic;font-size:0.5px;font-family:sans-serif;fill:#ffffff;stroke:#ffffff;stroke-width:0.06"
     id="g143"
     transform="matrix(-50,0,0,-50,461.415,264)"
     font-style="italic"
     font-size="0.5px">
    <path
       style="stroke:none"
       inkscape:connector-curvature="0"
       id="path145"
       d="m -0.45,-0.75 c 0.75,0 1.275,0.375 1.5,0.75 -0.225,0.375 -0.75,0.75 -1.5,0.75 q 0.5,-0.75 0,-1.5 z" />
    <path
       style="fill:none;stroke:#000000"
       inkscape:connector-curvature="0"
       id="path147"
       d="m -0.45,-0.75 c 0.75,0 1.275,0.375 1.5,0.75 -0.225,0.375 -0.75,0.75 -1.5,0.75 q 0.5,-0.75 0,-1.5 z" />
    <circle
       style="stroke:none"
       id="circle149"
       transform="translate(-0.35,0)"
       r="0.15000001"
       cy="0"
       cx="0" />
    <circle
       style="fill:none;stroke:#000000"
       id="circle151"
       transform="translate(-0.35,0)"
       r="0.15000001"
       cy="0"
       cx="0" />
    <circle
       style="stroke:none"
       id="circle153"
       transform="translate(1.05,0)"
       r="0.15000001"
       cy="0"
       cx="0" />
    <circle
       style="fill:none;stroke:#000000"
       id="circle155"
       transform="translate(1.05,0)"
       r="0.15000001"
       cy="0"
       cx="0" />
    <line
       style="fill:none;stroke:#000000;stroke-width:0.04"
       id="line157"
       y2="0"
       y1="0"
       x2="-1.5"
       x1="-1.05"
       transform="matrix(-1,0,0,-1,0.15,0)" />
    <line
       style="fill:none;stroke:#000000;stroke-width:0.04"
       id="line159"
       y2="0"
       y1="0"
       x2="1"
       x1="0.64999998"
       transform="matrix(-1,0,0,-1,0.15,0)" />
    <line
       style="fill:none;stroke:#000000;stroke-width:0.04"
       id="line161"
       y2="0.5"
       y1="0.5"
       x2="1"
       x1="0.46110001"
       transform="matrix(-1,0,0,-1,0.15,0)" />
    <line
       style="fill:none;stroke:#000000;stroke-width:0.04"
       id="line163"
       y2="-0.5"
       y1="-0.5"
       x2="1"
       x1="0.46110001"
       transform="matrix(-1,0,0,-1,0.15,0)" />
  </g>
  <g
     style="font-style:italic;font-size:0.5px;font-family:sans-serif;fill:#ffffff;stroke:#ffffff;stroke-width:0.06"
     id="g165"
     transform="matrix(-50,0,0,-50,461.415,139)"
     font-style="italic"
     font-size="0.5px">
    <path
       style="stroke:none"
       inkscape:connector-curvature="0"
       id="path167"
       d="m -0.2,-0.5 c 0.5,0 0.85,0.25 1,0.5 -0.15,0.25 -0.5,0.5 -1,0.5 q 0.3333,-0.5 0,-1 z" />
    <path
       style="fill:none;stroke:#000000"
       inkscape:connector-curvature="0"
       id="path169"
       d="m -0.2,-0.5 c 0.5,0 0.85,0.25 1,0.5 -0.15,0.25 -0.5,0.5 -1,0.5 q 0.3333,-0.5 0,-1 z" />
    <circle
       style="stroke:none"
       id="circle171"
       transform="translate(-0.225,0.25)"
       r="0.15000001"
       cy="0"
       cx="0" />
    <circle
       style="fill:none;stroke:#000000"
       id="circle173"
       transform="translate(-0.225,0.25)"
       r="0.15000001"
       cy="0"
       cx="0" />
    <circle
       style="stroke:none"
       id="circle175"
       transform="translate(0.8,0)"
       r="0.15000001"
       cy="0"
       cx="0" />
    <circle
       style="fill:none;stroke:#000000"
       id="circle177"
       transform="translate(0.8,0)"
       r="0.15000001"
       cy="0"
       cx="0" />
    <line
       style="fill:none;stroke:#000000;stroke-width:0.04"
       id="line179"
       y2="0"
       y1="0"
       x2="-1.5"
       x1="-0.80000001"
       transform="matrix(-1,0,0,-1,0.15,0)" />
    <line
       style="fill:none;stroke:#000000;stroke-width:0.04"
       id="line181"
       y2="-0.25"
       y1="-0.25"
       x2="1.5"
       x1="0.52499998"
       transform="matrix(-1,0,0,-1,0.15,0)" />
    <line
       style="fill:none;stroke:#000000;stroke-width:0.04"
       id="line183"
       y2="0.25"
       y1="0.25"
       x2="1.5"
       x1="0.22499999"
       transform="matrix(-1,0,0,-1,0.15,0)" />
  </g>
  <g
     style="font-style:italic;font-size:0.5px;font-family:sans-serif;fill:#ffffff;stroke:#ffffff;stroke-width:0.06"
     id="g185"
     transform="matrix(-50,0,0,-50,461.415,389)"
     font-style="italic"
     font-size="0.5px">
    <path
       style="stroke:none"
       inkscape:connector-curvature="0"
       id="path187"
       d="m -0.2,-0.5 c 0.5,0 0.85,0.25 1,0.5 -0.15,0.25 -0.5,0.5 -1,0.5 q 0.3333,-0.5 0,-1 z" />
    <path
       style="fill:none;stroke:#000000"
       inkscape:connector-curvature="0"
       id="path189"
       d="m -0.2,-0.5 c 0.5,0 0.85,0.25 1,0.5 -0.15,0.25 -0.5,0.5 -1,0.5 q 0.3333,-0.5 0,-1 z" />
    <circle
       style="stroke:none"
       id="circle191"
       transform="translate(-0.225,-0.25)"
       r="0.15000001"
       cy="0"
       cx="0" />
    <circle
       style="fill:none;stroke:#000000"
       id="circle193"
       transform="translate(-0.225,-0.25)"
       r="0.15000001"
       cy="0"
       cx="0" />
    <circle
       style="stroke:none"
       id="circle195"
       transform="translate(0.8,0)"
       r="0.15000001"
       cy="0"
       cx="0" />
    <circle
       style="fill:none;stroke:#000000"
       id="circle197"
       transform="translate(0.8,0)"
       r="0.15000001"
       cy="0"
       cx="0" />
    <line
       style="fill:none;stroke:#000000;stroke-width:0.04"
       id="line199"
       y2="0"
       y1="0"
       x2="-1.5"
       x1="-0.80000001"
       transform="matrix(-1,0,0,-1,0.15,0)" />
    <line
       style="fill:none;stroke:#000000;stroke-width:0.04"
       id="line201"
       y2="0.25"
       y1="0.25"
       x2="1.5"
       x1="0.52499998"
       transform="matrix(-1,0,0,-1,0.15,0)" />
    <line
       style="fill:none;stroke:#000000;stroke-width:0.04"
       id="line203"
       y2="-0.25"
       y1="-0.25"
       x2="1.5"
       x1="0.22499999"
       transform="matrix(-1,0,0,-1,0.15,0)" />
  </g>
  <g
     style="font-style:italic;font-size:0.5px;font-family:sans-serif;stroke-width:0.04"
     id="g205"
     transform="matrix(50,0,0,50,528.915,264)"
     font-style="italic"
     font-size="0.5px">
    <circle
       style="stroke:none"
       id="circle207"
       r="0.125"
       cy="0"
       cx="0" />
  </g>
  <g
     style="font-style:italic;font-size:0.5px;font-family:sans-serif;stroke-width:0.04"
     id="g209"
     transform="matrix(50,0,0,50,528.915,76.5)"
     font-style="italic"
     font-size="0.5px">
    <circle
       style="stroke:none"
       id="circle211"
       r="0.125"
       cy="0"
       cx="0" />
  </g>
  <g
     style="font-style:italic;font-size:0.5px;font-family:sans-serif;fill:#ffffff;stroke:#ffffff;stroke-width:0.06"
     id="g213"
     transform="matrix(50,0,0,50,428.915,76.5)"
     font-style="italic"
     font-size="0.5px">
    <path
       style="stroke:none"
       inkscape:connector-curvature="0"
       id="path215"
       d="m -0.2562,-0.5 0.2499,0 c 0.75,0 0.75,1 0,1 l -0.2499,0 z" />
    <path
       style="fill:none;stroke:#000000"
       inkscape:connector-curvature="0"
       id="path217"
       d="m -0.2562,-0.5 0.2499,0 c 0.75,0 0.75,1 0,1 l -0.2499,0 z" />
    <circle
       style="stroke:none"
       id="circle219"
       transform="translate(-0.4062,-0.25)"
       r="0.15000001"
       cy="0"
       cx="0" />
    <circle
       style="fill:none;stroke:#000000"
       id="circle221"
       transform="translate(-0.4062,-0.25)"
       r="0.15000001"
       cy="0"
       cx="0" />
  </g>
  <g
     style="font-style:italic;font-size:0.5px;font-family:sans-serif;stroke-width:0.04"
     id="g223"
     transform="matrix(50,0,0,50,428.915,76.5)"
     font-style="italic"
     font-size="0.5px">
    <line
       style="fill:none"
       id="line225"
       y2="0"
       y1="0"
       x2="1"
       x1="0.55629998" />
    <line
       style="fill:none"
       id="line227"
       y2="-0.25"
       y1="-0.25"
       x2="-1"
       x1="-0.55620003" />
    <line
       style="fill:none"
       id="line229"
       y2="0.25"
       y1="0.25"
       x2="-1"
       x1="-0.25619999" />
    <path
       style="fill:none"
       inkscape:connector-curvature="0"
       id="path231"
       d="m 0.225,-0.1299 a 0.15,0.15 0 1 0 0,0.2598" />
  </g>
  <g
     style="font-style:italic;font-size:0.5px;font-family:sans-serif;fill:#ffffff;stroke:#ffffff;stroke-width:0.06"
     id="g233"
     transform="matrix(50,0,0,50,428.915,451.5)"
     font-style="italic"
     font-size="0.5px">
    <path
       style="stroke:none"
       inkscape:connector-curvature="0"
       id="path235"
       d="m -0.2562,-0.5 0.2499,0 c 0.75,0 0.75,1 0,1 l -0.2499,0 z" />
    <path
       style="fill:none;stroke:#000000"
       inkscape:connector-curvature="0"
       id="path237"
       d="m -0.2562,-0.5 0.2499,0 c 0.75,0 0.75,1 0,1 l -0.2499,0 z" />
    <circle
       style="stroke:none"
       id="circle239"
       transform="translate(-0.4062,0.25)"
       r="0.15000001"
       cy="0"
       cx="0" />
    <circle
       style="fill:none;stroke:#000000"
       id="circle241"
       transform="translate(-0.4062,0.25)"
       r="0.15000001"
       cy="0"
       cx="0" />
  </g>
  <g
     style="font-style:italic;font-size:0.5px;font-family:sans-serif;stroke-width:0.04"
     id="g243"
     transform="matrix(50,0,0,50,428.915,451.5)"
     font-style="italic"
     font-size="0.5px">
    <line
       style="fill:none"
       id="line245"
       y2="0"
       y1="0"
       x2="1"
       x1="0.55629998" />
    <line
       style="fill:none"
       id="line247"
       y2="-0.25"
       y1="-0.25"
       x2="-1"
       x1="-0.25619999" />
    <line
       style="fill:none"
       id="line249"
       y2="0.25"
       y1="0.25"
       x2="-1"
       x1="-0.55620003" />
    <path
       style="fill:none"
       inkscape:connector-curvature="0"
       id="path251"
       d="m 0.225,-0.1299 a 0.15,0.15 0 1 0 0,0.2598" />
  </g>
  <g
     style="font-style:italic;font-size:0.5px;font-family:sans-serif;stroke-width:0.04"
     id="g253"
     transform="matrix(50,0,0,50,553.915,451.5)"
     font-style="italic"
     font-size="0.5px">
    <circle
       style="stroke:none"
       id="circle255"
       r="0.125"
       cy="0"
       cx="0" />
  </g>
  <g
     style="font-style:italic;font-size:0.5px;font-family:sans-serif;stroke-width:0.04"
     id="g257"
     transform="matrix(50,0,0,50,553.915,76.5)"
     font-style="italic"
     font-size="0.5px">
    <circle
       style="stroke:none"
       id="circle259"
       r="0.125"
       cy="0"
       cx="0" />
  </g>
  <g
     style="font-style:italic;font-size:0.5px;font-family:sans-serif;stroke-width:0.04"
     id="g261"
     transform="matrix(50,0,0,50,403.915,214)"
     font-style="italic"
     font-size="0.5px">
    <path
       style="fill:none"
       inkscape:connector-curvature="0"
       id="path263"
       d="m -6.62,2 0.245,0" />
    <path
       style="stroke:none"
       inkscape:connector-curvature="0"
       id="path265"
       d="m -6.375,1.925 0,0.15 0,-0.075 z" />
  </g>
  <g
     style="font-style:italic;font-size:0.5px;font-family:sans-serif;stroke-width:0.04"
     id="g267"
     transform="matrix(50,0,0,50,403.915,214)"
     font-style="italic"
     font-size="0.5px">
    <path
       style="fill:none"
       inkscape:connector-curvature="0"
       id="path269"
       d="M -6.125,2 -6.11,2" />
    <path
       style="stroke:none"
       inkscape:connector-curvature="0"
       id="path271"
       d="m -6.11,1.925 0,0.15 0,-0.075 z" />
  </g>
  <g
     style="font-style:italic;font-size:0.5px;font-family:sans-serif;stroke-width:0.04"
     id="g273"
     transform="matrix(50,0,0,50,403.915,214)"
     font-style="italic"
     font-size="0.5px">
    <line
       style="fill:none"
       id="line275"
       y2="2"
       y1="2"
       x2="-6"
       x1="-6.1100001" />
  </g>
  <g
     style="font-style:italic;font-size:0.5px;font-family:sans-serif;stroke-width:0.04"
     id="g277"
     transform="matrix(50,0,0,50,403.915,214)"
     font-style="italic"
     font-size="0.5px">
    <path
       style="fill:none"
       inkscape:connector-curvature="0"
       id="path279"
       d="m -6.25,2.125 0,2.125 0.14,0" />
    <path
       style="stroke:none"
       inkscape:connector-curvature="0"
       id="path281"
       d="m -6.11,4.175 0,0.15 0,-0.075 z" />
  </g>
  <g
     style="font-style:italic;font-size:0.5px;font-family:sans-serif;stroke-width:0.04"
     id="g283"
     transform="matrix(50,0,0,50,403.915,214)"
     font-style="italic"
     font-size="0.5px">
    <line
       style="fill:none"
       id="line285"
       y2="4.25"
       y1="4.25"
       x2="-6"
       x1="-6.1100001" />
  </g>
  <g
     style="font-style:italic;font-size:0.5px;font-family:sans-serif;stroke-width:0.04"
     id="g287"
     transform="matrix(50,0,0,50,403.915,214)"
     font-style="italic"
     font-size="0.5px">
    <path
       style="fill:none"
       inkscape:connector-curvature="0"
       id="path289"
       d="m -6.62,0 0.245,0" />
    <path
       style="stroke:none"
       inkscape:connector-curvature="0"
       id="path291"
       d="m -6.375,-0.075 0,0.15 0,-0.075 z" />
  </g>
  <g
     style="font-style:italic;font-size:0.5px;font-family:sans-serif;stroke-width:0.04"
     id="g293"
     transform="matrix(50,0,0,50,403.915,214)"
     font-style="italic"
     font-size="0.5px">
    <path
       style="fill:none"
       inkscape:connector-curvature="0"
       id="path295"
       d="M -6.125,0 -6.11,0" />
    <path
       style="stroke:none"
       inkscape:connector-curvature="0"
       id="path297"
       d="m -6.11,-0.075 0,0.15 0,-0.075 z" />
  </g>
  <g
     style="font-style:italic;font-size:0.5px;font-family:sans-serif;stroke-width:0.04"
     id="g299"
     transform="matrix(50,0,0,50,403.915,214)"
     font-style="italic"
     font-size="0.5px">
    <line
       style="fill:none"
       id="line301"
       y2="0"
       y1="0"
       x2="-6"
       x1="-6.1100001" />
  </g>
  <g
     style="font-style:italic;font-size:0.5px;font-family:sans-serif;stroke-width:0.04"
     id="g303"
     transform="matrix(50,0,0,50,403.915,214)"
     font-style="italic"
     font-size="0.5px">
    <path
       style="fill:none"
       inkscape:connector-curvature="0"
       id="path305"
       d="m -6.25,-0.125 0,-2.125 0.14,0" />
    <path
       style="stroke:none"
       inkscape:connector-curvature="0"
       id="path307"
       d="m -6.11,-2.325 0,0.15 0,-0.075 z" />
  </g>
  <g
     style="font-style:italic;font-size:0.5px;font-family:sans-serif;stroke-width:0.04"
     id="g309"
     transform="matrix(50,0,0,50,403.915,214)"
     font-style="italic"
     font-size="0.5px">
    <line
       style="fill:none"
       id="line311"
       y2="-2.25"
       y1="-2.25"
       x2="-6"
       x1="-6.1100001" />
  </g>
  <g
     style="font-style:italic;font-size:0.5px;font-family:sans-serif;stroke-width:0.04"
     id="g313"
     transform="matrix(50,0,0,50,403.915,214)"
     font-style="italic"
     font-size="0.5px">
    <path
       style="fill:none"
       inkscape:connector-curvature="0"
       id="path315"
       d="m -0.89,-3 0.28,0" />
    <path
       style="stroke:none"
       inkscape:connector-curvature="0"
       id="path317"
       d="m -0.61,-3.075 0,0.15 0,-0.075 z" />
  </g>
  <g
     style="font-style:italic;font-size:0.5px;font-family:sans-serif;stroke-width:0.04"
     id="g319"
     transform="matrix(50,0,0,50,403.915,214)"
     font-style="italic"
     font-size="0.5px">
    <line
       style="fill:none"
       id="line321"
       y2="-3"
       y1="-3"
       x2="-0.88999999"
       x1="-1" />
    <line
       style="fill:none"
       id="line323"
       y2="-3"
       y1="-3"
       x2="-0.5"
       x1="-0.61000001" />
  </g>
  <g
     style="font-style:italic;font-size:0.5px;font-family:sans-serif;stroke-width:0.04"
     id="g325"
     transform="matrix(50,0,0,50,403.915,214)"
     font-style="italic"
     font-size="0.5px">
    <path
       style="fill:none"
       inkscape:connector-curvature="0"
       id="path327"
       d="m -0.61,-1.5 -0.28,0" />
    <path
       style="stroke:none"
       inkscape:connector-curvature="0"
       id="path329"
       d="m -0.89,-1.425 0,-0.15 0,0.075 z" />
  </g>
  <g
     style="font-style:italic;font-size:0.5px;font-family:sans-serif;stroke-width:0.04"
     id="g331"
     transform="matrix(50,0,0,50,403.915,214)"
     font-style="italic"
     font-size="0.5px">
    <line
       style="fill:none"
       id="line333"
       y2="-1.5"
       y1="-1.5"
       x2="-0.61000001"
       x1="-0.5" />
    <line
       style="fill:none"
       id="line335"
       y2="-1.5"
       y1="-1.5"
       x2="-1"
       x1="-0.88999999" />
  </g>
  <g
     style="font-style:italic;font-size:0.5px;font-family:sans-serif;stroke-width:0.04"
     id="g337"
     transform="matrix(50,0,0,50,403.915,214)"
     font-style="italic"
     font-size="0.5px">
    <path
       style="fill:none"
       inkscape:connector-curvature="0"
       id="path339"
       d="M -0.61,1 -0.89,1" />
    <path
       style="stroke:none"
       inkscape:connector-curvature="0"
       id="path341"
       d="m -0.89,1.075 0,-0.15 0,0.075 z" />
  </g>
  <g
     style="font-style:italic;font-size:0.5px;font-family:sans-serif;stroke-width:0.04"
     id="g343"
     transform="matrix(50,0,0,50,403.915,214)"
     font-style="italic"
     font-size="0.5px">
    <line
       style="fill:none"
       id="line345"
       y2="1"
       y1="1"
       x2="-0.61000001"
       x1="-0.5" />
    <line
       style="fill:none"
       id="line347"
       y2="1"
       y1="1"
       x2="-1"
       x1="-0.88999999" />
  </g>
  <g
     style="font-style:italic;font-size:0.5px;font-family:sans-serif;stroke-width:0.04"
     id="g349"
     transform="matrix(50,0,0,50,403.915,214)"
     font-style="italic"
     font-size="0.5px">
    <path
       style="fill:none"
       inkscape:connector-curvature="0"
       id="path351"
       d="m -0.61,3.5 -0.28,0" />
    <path
       style="stroke:none"
       inkscape:connector-curvature="0"
       id="path353"
       d="m -0.89,3.575 0,-0.15 0,0.075 z" />
  </g>
  <g
     style="font-style:italic;font-size:0.5px;font-family:sans-serif;stroke-width:0.04"
     id="g355"
     transform="matrix(50,0,0,50,403.915,214)"
     font-style="italic"
     font-size="0.5px">
    <line
       style="fill:none"
       id="line357"
       y2="3.5"
       y1="3.5"
       x2="-0.61000001"
       x1="-0.5" />
    <line
       style="fill:none"
       id="line359"
       y2="3.5"
       y1="3.5"
       x2="-1"
       x1="-0.88999999" />
  </g>
  <g
     style="font-style:italic;font-size:0.5px;font-family:sans-serif;stroke-width:0.04"
     id="g361"
     transform="matrix(50,0,0,50,403.915,214)"
     font-style="italic"
     font-size="0.5px">
    <path
       style="fill:none"
       inkscape:connector-curvature="0"
       id="path363"
       d="m -0.89,2 0.39,0 0,2.39" />
    <path
       style="stroke:none"
       inkscape:connector-curvature="0"
       id="path365"
       d="m -0.425,4.39 -0.15,0 0.075,0 z" />
  </g>
  <g
     style="font-style:italic;font-size:0.5px;font-family:sans-serif;stroke-width:0.04"
     id="g367"
     transform="matrix(50,0,0,50,403.915,214)"
     font-style="italic"
     font-size="0.5px">
    <line
       style="fill:none"
       id="line369"
       y2="2"
       y1="2"
       x2="-0.88999999"
       x1="-1" />
    <line
       style="fill:none"
       id="line371"
       y2="4.5"
       y1="4.3899999"
       x2="-0.5"
       x1="-0.5" />
  </g>
  <g
     style="font-style:italic;font-size:0.5px;font-family:sans-serif;stroke-width:0.04"
     id="g373"
     transform="matrix(50,0,0,50,403.915,214)"
     font-style="italic"
     font-size="0.5px">
    <path
       style="fill:none"
       inkscape:connector-curvature="0"
       id="path375"
       d="m 2.625,-2.75 0.745,0" />
    <path
       style="stroke:none"
       inkscape:connector-curvature="0"
       id="path377"
       d="m 3.37,-2.825 0,0.15 0,-0.075 z" />
  </g>
  <g
     style="font-style:italic;font-size:0.5px;font-family:sans-serif;stroke-width:0.04"
     id="g379"
     transform="matrix(50,0,0,50,403.915,214)"
     font-style="italic"
     font-size="0.5px">
    <path
       style="fill:none"
       inkscape:connector-curvature="0"
       id="path381"
       d="M 3.37,1 2.625,1" />
    <path
       style="stroke:none"
       inkscape:connector-curvature="0"
       id="path383"
       d="m 2.625,1.075 0,-0.15 0,0.075 z" />
  </g>
  <g
     style="font-style:italic;font-size:0.5px;font-family:sans-serif;stroke-width:0.04"
     id="g385"
     transform="matrix(50,0,0,50,403.915,214)"
     font-style="italic"
     font-size="0.5px">
    <path
       style="fill:none"
       inkscape:connector-curvature="0"
       id="path387"
       d="M 2.375,1 2.11,1" />
    <path
       style="stroke:none"
       inkscape:connector-curvature="0"
       id="path389"
       d="m 2.11,1.075 0,-0.15 0,0.075 z" />
  </g>
  <g
     style="font-style:italic;font-size:0.5px;font-family:sans-serif;stroke-width:0.04"
     id="g391"
     transform="matrix(50,0,0,50,403.915,214)"
     font-style="italic"
     font-size="0.5px">
    <line
       style="fill:none"
       id="line393"
       y2="1"
       y1="1"
       x2="2"
       x1="2.1099999" />
  </g>
  <g
     style="font-style:italic;font-size:0.5px;font-family:sans-serif;stroke-width:0.04"
     id="g395"
     transform="matrix(50,0,0,50,403.915,214)"
     font-style="italic"
     font-size="0.5px">
    <path
       style="fill:none"
       inkscape:connector-curvature="0"
       id="path397"
       d="m 2.5,1.125 0,2.015" />
    <path
       style="stroke:none"
       inkscape:connector-curvature="0"
       id="path399"
       d="m 2.575,3.14 -0.15,0 0.075,0 z" />
  </g>
  <g
     style="font-style:italic;font-size:0.5px;font-family:sans-serif;stroke-width:0.04"
     id="g401"
     transform="matrix(50,0,0,50,403.915,214)"
     font-style="italic"
     font-size="0.5px">
    <line
       style="fill:none"
       id="line403"
       y2="3.25"
       y1="3.1400001"
       x2="2.5"
       x1="2.5" />
  </g>
  <g
     style="font-style:italic;font-size:0.5px;font-family:sans-serif;stroke-width:0.04"
     id="g405"
     transform="matrix(50,0,0,50,403.915,214)"
     font-style="italic"
     font-size="0.5px">
    <path
       style="fill:none"
       inkscape:connector-curvature="0"
       id="path407"
       d="m 2.5,-2.625 0,0.765" />
    <path
       style="stroke:none"
       inkscape:connector-curvature="0"
       id="path409"
       d="m 2.575,-1.86 -0.15,0 0.075,0 z" />
  </g>
  <g
     style="font-style:italic;font-size:0.5px;font-family:sans-serif;stroke-width:0.04"
     id="g411"
     transform="matrix(50,0,0,50,403.915,214)"
     font-style="italic"
     font-size="0.5px">
    <line
       style="fill:none"
       id="line413"
       y2="-1.75"
       y1="-1.86"
       x2="2.5"
       x1="2.5" />
  </g>
  <g
     style="font-style:italic;font-size:0.5px;font-family:sans-serif;stroke-width:0.04"
     id="g415"
     transform="matrix(50,0,0,50,403.915,214)"
     font-style="italic"
     font-size="0.5px">
    <path
       style="fill:none"
       inkscape:connector-curvature="0"
       id="path417"
       d="M 2.4981,4.625 2.4998,3.86" />
    <path
       style="stroke:none"
       inkscape:connector-curvature="0"
       id="path419"
       d="m 2.4248,3.8598 0.15,4e-4 -0.075,-2e-4 z" />
  </g>
  <g
     style="font-style:italic;font-size:0.5px;font-family:sans-serif;stroke-width:0.04"
     id="g421"
     transform="matrix(50,0,0,50,403.915,214)"
     font-style="italic"
     font-size="0.5px">
    <line
       style="fill:none"
       id="line423"
       y2="3.75"
       y1="3.8599999"
       x2="2.5"
       x1="2.4998" />
  </g>
  <g
     style="font-style:italic;font-size:0.5px;font-family:sans-serif;stroke-width:0.04"
     id="g425"
     transform="matrix(50,0,0,50,403.915,214)"
     font-style="italic"
     font-size="0.5px">
    <path
       style="fill:none"
       inkscape:connector-curvature="0"
       id="path427"
       d="m 1.61,4.75 0.7628,0" />
    <path
       style="stroke:none"
       inkscape:connector-curvature="0"
       id="path429"
       d="m 2.3728,4.675 0,0.15 0,-0.075 z" />
  </g>
  <g
     style="font-style:italic;font-size:0.5px;font-family:sans-serif;stroke-width:0.04"
     id="g431"
     transform="matrix(50,0,0,50,403.915,214)"
     font-style="italic"
     font-size="0.5px">
    <line
       style="fill:none"
       id="line433"
       y2="4.75"
       y1="4.75"
       x2="1.61"
       x1="1.5" />
  </g>
  <g
     style="font-style:italic;font-size:0.5px;font-family:sans-serif;stroke-width:0.04"
     id="g435"
     transform="matrix(50,0,0,50,403.915,214)"
     font-style="italic"
     font-size="0.5px">
    <path
       style="fill:none"
       inkscape:connector-curvature="0"
       id="path437"
       d="m 2.5,0.875 0,-2.015" />
    <path
       style="stroke:none"
       inkscape:connector-curvature="0"
       id="path439"
       d="m 2.425,-1.14 0.15,0 -0.075,0 z" />
  </g>
  <g
     style="font-style:italic;font-size:0.5px;font-family:sans-serif;stroke-width:0.04"
     id="g441"
     transform="matrix(50,0,0,50,403.915,214)"
     font-style="italic"
     font-size="0.5px">
    <line
       style="fill:none"
       id="line443"
       y2="-1.25"
       y1="-1.14"
       x2="2.5"
       x1="2.5" />
  </g>
  <g
     style="font-style:italic;font-size:0.5px;font-family:sans-serif;stroke-width:0.04"
     id="g445"
     transform="matrix(50,0,0,50,403.915,214)"
     font-style="italic"
     font-size="0.5px">
    <path
       style="fill:none"
       inkscape:connector-curvature="0"
       id="path447"
       d="m -0.89,5 0.28,0" />
    <path
       style="stroke:none"
       inkscape:connector-curvature="0"
       id="path449"
       d="m -0.61,4.925 0,0.15 0,-0.075 z" />
  </g>
  <g
     style="font-style:italic;font-size:0.5px;font-family:sans-serif;stroke-width:0.04"
     id="g451"
     transform="matrix(50,0,0,50,403.915,214)"
     font-style="italic"
     font-size="0.5px">
    <line
       style="fill:none"
       id="line453"
       y2="5"
       y1="5"
       x2="-0.88999999"
       x1="-1" />
    <line
       style="fill:none"
       id="line455"
       y2="5"
       y1="5"
       x2="-0.5"
       x1="-0.61000001" />
  </g>
  <g
     style="font-style:italic;font-size:0.5px;font-family:sans-serif;stroke-width:0.04"
     id="g457"
     transform="matrix(50,0,0,50,403.915,214)"
     font-style="italic"
     font-size="0.5px">
    <path
       style="fill:none"
       inkscape:connector-curvature="0"
       id="path459"
       d="m -0.89,0 0.39,0 0,-2.39" />
    <path
       style="stroke:none"
       inkscape:connector-curvature="0"
       id="path461"
       d="m -0.575,-2.39 0.15,0 -0.075,0 z" />
  </g>
  <g
     style="font-style:italic;font-size:0.5px;font-family:sans-serif;stroke-width:0.04"
     id="g463"
     transform="matrix(50,0,0,50,403.915,214)"
     font-style="italic"
     font-size="0.5px">
    <line
       style="fill:none"
       id="line465"
       y2="0"
       y1="0"
       x2="-0.88999999"
       x1="-1" />
    <line
       style="fill:none"
       id="line467"
       y2="-2.5"
       y1="-2.3900001"
       x2="-0.5"
       x1="-0.5" />
  </g>
  <g
     style="font-style:italic;font-size:0.5px;font-family:sans-serif;stroke-width:0.04"
     id="g469"
     transform="matrix(50,0,0,50,403.915,214)"
     font-style="italic"
     font-size="0.5px">
    <path
       style="fill:none"
       inkscape:connector-curvature="0"
       id="path471"
       d="m 2.6228,4.75 0.2522,0" />
    <path
       style="stroke:none"
       inkscape:connector-curvature="0"
       id="path473"
       d="m 2.875,4.675 0,0.15 0,-0.075 z" />
  </g>
  <g
     style="font-style:italic;font-size:0.5px;font-family:sans-serif;stroke-width:0.04"
     id="g475"
     transform="matrix(50,0,0,50,403.915,214)"
     font-style="italic"
     font-size="0.5px">
    <path
       style="fill:none"
       inkscape:connector-curvature="0"
       id="path477"
       d="m 3.125,4.75 0.245,0" />
    <path
       style="stroke:none"
       inkscape:connector-curvature="0"
       id="path479"
       d="m 3.37,4.675 0,0.15 0,-0.075 z" />
  </g>
  <g
     style="font-style:italic;font-size:0.5px;font-family:sans-serif;stroke-width:0.04"
     id="g481"
     transform="matrix(50,0,0,50,403.915,214)"
     font-style="italic"
     font-size="0.5px">
    <path
       style="fill:none"
       inkscape:connector-curvature="0"
       id="path483"
       d="M 3,4.625 3,1.5 2.11,1.5" />
    <path
       style="stroke:none"
       inkscape:connector-curvature="0"
       id="path485"
       d="m 2.11,1.575 0,-0.15 0,0.075 z" />
  </g>
  <g
     style="font-style:italic;font-size:0.5px;font-family:sans-serif;stroke-width:0.04"
     id="g487"
     transform="matrix(50,0,0,50,403.915,214)"
     font-style="italic"
     font-size="0.5px">
    <line
       style="fill:none"
       id="line489"
       y2="1.5"
       y1="1.5"
       x2="2"
       x1="2.1099999" />
  </g>
  <g
     style="font-style:italic;font-size:0.5px;font-family:sans-serif;stroke-width:0.04"
     id="g491"
     transform="matrix(50,0,0,50,403.915,214)"
     font-style="italic"
     font-size="0.5px">
    <path
       style="fill:none"
       inkscape:connector-curvature="0"
       id="path493"
       d="m 1.61,-2.75 1.265,0" />
    <path
       style="stroke:none"
       inkscape:connector-curvature="0"
       id="path495"
       d="m 2.875,-2.825 0,0.15 0,-0.075 z" />
  </g>
  <g
     style="font-style:italic;font-size:0.5px;font-family:sans-serif;stroke-width:0.04"
     id="g497"
     transform="matrix(50,0,0,50,403.915,214)"
     font-style="italic"
     font-size="0.5px">
    <line
       style="fill:none"
       id="line499"
       y2="-2.75"
       y1="-2.75"
       x2="1.61"
       x1="1.5" />
  </g>
  <g
     style="font-style:italic;font-size:0.5px;font-family:sans-serif;stroke-width:0.04"
     id="g501"
     transform="matrix(50,0,0,50,403.915,214)"
     font-style="italic"
     font-size="0.5px">
    <path
       style="fill:none"
       inkscape:connector-curvature="0"
       id="path503"
       d="m 2.875,-2.75 -0.25,0" />
    <path
       style="stroke:none"
       inkscape:connector-curvature="0"
       id="path505"
       d="m 2.625,-2.675 0,-0.15 0,0.075 z" />
  </g>
  <g
     style="font-style:italic;font-size:0.5px;font-family:sans-serif;stroke-width:0.04"
     id="g507"
     transform="matrix(50,0,0,50,403.915,214)"
     font-style="italic"
     font-size="0.5px">
    <path
       style="fill:none"
       inkscape:connector-curvature="0"
       id="path509"
       d="M 3,-2.625 3,0.5 2.11,0.5" />
    <path
       style="stroke:none"
       inkscape:connector-curvature="0"
       id="path511"
       d="m 2.11,0.575 0,-0.15 0,0.075 z" />
  </g>
  <g
     style="font-style:italic;font-size:0.5px;font-family:sans-serif;stroke-width:0.04"
     id="g513"
     transform="matrix(50,0,0,50,403.915,214)"
     font-style="italic"
     font-size="0.5px">
    <line
       style="fill:none"
       id="line515"
       y2="0.5"
       y1="0.5"
       x2="2"
       x1="2.1099999" />
  </g>
  <path
     style="fill:none;fill-rule:evenodd;stroke:#ffffff;stroke-width:1px;stroke-linecap:butt;stroke-linejoin:miter;stroke-opacity:1"
     d="m 60,530.5 520,0"
     id="path8321"
     inkscape:path-effect="#path-effect8323"
     inkscape:original-d="m 60,530.5 520,0"
     inkscape:connector-curvature="0"
     sodipodi:nodetypes="cc" />
  <path
     style="font-style:normal;font-weight:normal;font-size:12px;font-family:Dialog;color-interpolation:auto;fill:none;fill-opacity:1;fill-rule:evenodd;stroke:#ffffff;stroke-width:1px;stroke-linecap:butt;stroke-linejoin:miter;stroke-miterlimit:10;stroke-dasharray:none;stroke-dashoffset:0;stroke-opacity:1;color-rendering:auto;image-rendering:auto;shape-rendering:auto;text-rendering:auto"
     d="m 60,0.5 520,0"
     id="path8321-6"
     inkscape:path-effect="#path-effect8323-3"
     inkscape:original-d="m 60,0.5 520,0"
     inkscape:connector-curvature="0"
     sodipodi:nodetypes="cc" />
</svg>
