<?xml version="1.0" encoding="UTF-8" standalone="no"?>
<svg xmlns:dc="http://purl.org/dc/elements/1.1/" xmlns:cc="http://creativecommons.org/ns#" xmlns:rdf="http://www.w3.org/1999/02/22-rdf-syntax-ns#" xmlns:svg="http://www.w3.org/2000/svg" xmlns="http://www.w3.org/2000/svg" xmlns:sodipodi="http://sodipodi.sourceforge.net/DTD/sodipodi-0.dtd" xmlns:inkscape="http://www.inkscape.org/namespaces/inkscape" color-interpolation="auto" color-rendering="auto" font-size="12" font-style="normal" font-weight="normal" height="100%" image-rendering="auto" shape-rendering="auto" stroke-miterlimit="10" text-rendering="auto" width="100%" id="svg3286" version="1.1" inkscape:version="0.48.4 r9939" sodipodi:docname="a2d-csc-petrify.svg" inkscape:export-filename="a2d-csc-petrify.png" inkscape:export-xdpi="30.017372" inkscape:export-ydpi="30.017372" style="font-size:12px;font-style:normal;font-weight:normal;fill:#000000;fill-opacity:1;stroke:#000000;stroke-width:1;stroke-linecap:square;stroke-linejoin:miter;stroke-miterlimit:10;stroke-opacity:1;stroke-dasharray:none;stroke-dashoffset:0;font-family:Dialog" viewBox="0 0 751 1200" preserveAspectRatio="xMidYMid slice">
  <metadata
     id="metadata3593">
    <rdf:RDF>
      <cc:Work
         rdf:about="">
        <dc:format>image/svg+xml</dc:format>
        <dc:type
           rdf:resource="http://purl.org/dc/dcmitype/StillImage" />
        <dc:title></dc:title>
      </cc:Work>
    </rdf:RDF>
  </metadata>
  <sodipodi:namedview
     pagecolor="#ffffff"
     bordercolor="#666666"
     borderopacity="1"
     objecttolerance="10"
     gridtolerance="10"
     guidetolerance="10"
     inkscape:pageopacity="0"
     inkscape:pageshadow="2"
     inkscape:window-width="1920"
     inkscape:window-height="1176"
     id="namedview3591"
     showgrid="false"
     inkscape:zoom="0.53400704"
     inkscape:cx="430.35393"
     inkscape:cy="318.93855"
     inkscape:window-x="0"
     inkscape:window-y="24"
     inkscape:window-maximized="1"
     inkscape:current-layer="svg3286"
     fit-margin-top="0"
     fit-margin-left="0"
     fit-margin-right="0"
     fit-margin-bottom="0" />
  <!--Generated by the Batik Graphics2D SVG Generator-->
  <defs
     id="genericDefs" />
  <g
     style="font-size:0.75px;fill:#b20000;stroke:#b20000;font-family:sans-serif"
     id="g3291"
     transform="matrix(50,0,0,50,200.5,1077.085)"
     font-size="0.75">
    <path
       style="stroke:none"
       inkscape:connector-curvature="0"
       id="path3293"
       d="m -0.8361,-0.21 0,0.0637 q -0.0285,-0.0147 -0.0593,-0.022 -0.0308,-0.0073 -0.0637,-0.0073 -0.0502,0 -0.0753,0.0154 -0.0251,0.0153 -0.0251,0.0461 0,0.0234 0.018,0.0368 0.0179,0.0134 0.0721,0.0255 l 0.0231,0.0051 q 0.0718,0.0154 0.102,0.0434 0.0302,0.028 0.0302,0.0782 0,0.0571 -0.0452,0.0904 -0.0452,0.0334 -0.1243,0.0334 -0.033,0 -0.0687,-0.0065 Q -1.088,0.1858 -1.1276,0.173 l 0,-0.0696 q 0.0374,0.0194 0.0736,0.0291 0.0363,0.0098 0.0718,0.0098 0.0476,0 0.0733,-0.0163 0.0256,-0.0163 0.0256,-0.046 0,-0.0275 -0.0185,-0.0421 Q -0.9203,0.0232 -0.9829,0.0097 L -1.0064,0.0042 q -0.0626,-0.0132 -0.0904,-0.0405 -0.0278,-0.0273 -0.0278,-0.0749 0,-0.0578 0.041,-0.0893 0.041,-0.0315 0.1164,-0.0315 0.0374,0 0.0703,0.0055 0.033,0.0055 0.0608,0.0165 z m 0.196,-0.1286 0,0.1165 0.1388,0 0,0.0524 -0.1388,0 0,0.2226 q 0,0.0502 0.0137,0.0645 0.0137,0.0142 0.0558,0.0142 l 0.0693,0 0,0.0564 -0.0693,0 q -0.078,0 -0.1076,-0.0291 -0.0297,-0.0291 -0.0297,-0.106 l 0,-0.2226 -0.0494,0 0,-0.0524 0.0494,0 0,-0.1165 0.0678,0 z m 0.4138,0.3205 q -0.0817,0 -0.1132,0.0186 -0.0315,0.0187 -0.0315,0.0638 0,0.0358 0.0236,0.0569 0.0237,0.0211 0.0643,0.0211 0.056,0 0.0899,-0.0398 0.0339,-0.0397 0.0339,-0.1056 l 0,-0.015 -0.067,0 z m 0.1344,-0.0279 0,0.234 -0.0674,0 0,-0.0622 q -0.0231,0.0373 -0.0575,0.0551 -0.0344,0.0178 -0.0842,0.0178 -0.063,0 -0.1002,-0.0354 -0.0372,-0.0353 -0.0372,-0.0947 0,-0.0692 0.0464,-0.1043 0.0463,-0.0352 0.1382,-0.0352 l 0.0945,0 0,-0.0066 q 0,-0.0465 -0.0306,-0.0719 -0.0306,-0.0255 -0.0859,-0.0255 -0.0351,0 -0.0684,0.0084 -0.0334,0.0085 -0.0641,0.0253 l 0,-0.0623 q 0.037,-0.0142 0.0717,-0.0214 0.0348,-0.0071 0.0678,-0.0071 0.089,0 0.1329,0.0461 0.044,0.0462 0.044,0.1399 z M 0.2845,-0.1591 Q 0.2732,-0.1657 0.2598,-0.1688 0.2465,-0.172 0.2303,-0.172 q -0.0571,0 -0.0877,0.0372 -0.0305,0.0372 -0.0305,0.1068 l 0,0.216 -0.0678,0 0,-0.4101 0.0678,0 0,0.0637 q 0.0212,-0.0374 0.0553,-0.0555 0.034,-0.0181 0.0827,-0.0181 0.007,0 0.0154,9e-4 0.0084,9e-4 0.0187,0.0028 l 3e-4,0.0692 z m 0.1374,-0.1795 0,0.1165 0.1388,0 0,0.0524 -0.1388,0 0,0.2226 q 0,0.0502 0.0137,0.0645 0.0137,0.0142 0.0558,0.0142 l 0.0693,0 0,0.0564 -0.0693,0 Q 0.4134,0.188 0.3838,0.1589 0.3541,0.1298 0.3541,0.0529 l 0,-0.2226 -0.0494,0 0,-0.0524 0.0494,0 0,-0.1165 0.0678,0 z m 0.5017,0.0564 0,0.204 0.204,0 0,0.0622 -0.204,0 0,0.204 -0.0615,0 0,-0.204 -0.204,0 0,-0.0622 0.204,0 0,-0.204 0.0615,0 z" />
  </g>
  <g
     style="font-size:0.75px;fill:#ffffff;stroke:#ffffff;font-family:sans-serif"
     id="g3295"
     transform="matrix(50,0,0,50,450.5,24.999999)"
     font-size="0.75">
    <circle
       style="stroke:none"
       sodipodi:ry="0.44999999"
       sodipodi:rx="0.44999999"
       sodipodi:cy="0"
       sodipodi:cx="0"
       d="M 0.44999999,0 C 0.44999999,0.24852813 0.24852813,0.44999999 0,0.44999999 -0.24852813,0.44999999 -0.44999999,0.24852813 -0.44999999,0 c 0,-0.24852813 0.20147186,-0.44999999 0.44999999,-0.44999999 0.24852813,0 0.44999999,0.20147186 0.44999999,0.44999999 z"
       id="circle3297"
       r="0.44999999"
       cy="0"
       cx="0" />
    <circle
       style="fill:none;stroke:#000000;stroke-width:0.1"
       sodipodi:ry="0.44999999"
       sodipodi:rx="0.44999999"
       sodipodi:cy="0"
       sodipodi:cx="0"
       d="M 0.44999999,0 C 0.44999999,0.24852813 0.24852813,0.44999999 0,0.44999999 -0.24852813,0.44999999 -0.44999999,0.24852813 -0.44999999,0 c 0,-0.24852813 0.20147186,-0.44999999 0.44999999,-0.44999999 0.24852813,0 0.44999999,0.20147186 0.44999999,0.44999999 z"
       id="circle3299"
       r="0.44999999"
       cy="0"
       cx="0" />
  </g>
  <g
     style="font-size:0.75px;fill:#0000b2;stroke:#0000b2;stroke-width:0.1;font-family:sans-serif"
     id="g3305"
     transform="matrix(50,0,0,50,450.5,125)"
     font-size="0.75">
    <path
       style="stroke:none"
       inkscape:connector-curvature="0"
       id="path3307"
       d="m -0.6008,-0.3554 0.074,0 0,0.4845 0.2662,0 0,0.0623 -0.3402,0 0,-0.5468 z m 0.6526,0.1996 Q 0.0405,-0.1624 0.0271,-0.1655 0.0137,-0.1686 -0.0024,-0.1686 q -0.0571,0 -0.0877,0.0372 -0.0306,0.0371 -0.0306,0.1067 l 0,0.2161 -0.0677,0 0,-0.4102 0.0677,0 0,0.0637 q 0.0213,-0.0373 0.0553,-0.0555 0.0341,-0.0181 0.0828,-0.0181 0.007,0 0.0154,9e-4 0.0084,9e-4 0.0187,0.0028 l 3e-4,0.0692 z m 0.345,-0.1231 0,0.204 0.204,0 0,0.0623 -0.204,0 0,0.204 -0.0615,0 0,-0.204 -0.204,0 0,-0.0623 0.204,0 0,-0.204 0.0615,0 z" />
  </g>
  <g
     style="font-size:0.75px;fill:#ffffff;stroke:#ffffff;stroke-width:0.1;font-family:sans-serif"
     id="g3309"
     transform="matrix(50,0,0,50,450.5,225)"
     font-size="0.75">
    <circle
       style="stroke:none"
       sodipodi:ry="0.44999999"
       sodipodi:rx="0.44999999"
       sodipodi:cy="0"
       sodipodi:cx="0"
       d="M 0.44999999,0 C 0.44999999,0.24852813 0.24852813,0.44999999 0,0.44999999 -0.24852813,0.44999999 -0.44999999,0.24852813 -0.44999999,0 c 0,-0.24852813 0.20147186,-0.44999999 0.44999999,-0.44999999 0.24852813,0 0.44999999,0.20147186 0.44999999,0.44999999 z"
       id="circle3311"
       r="0.44999999"
       cy="0"
       cx="0" />
    <circle
       style="fill:none;stroke:#000000"
       sodipodi:ry="0.44999999"
       sodipodi:rx="0.44999999"
       sodipodi:cy="0"
       sodipodi:cx="0"
       d="M 0.44999999,0 C 0.44999999,0.24852813 0.24852813,0.44999999 0,0.44999999 -0.24852813,0.44999999 -0.44999999,0.24852813 -0.44999999,0 c 0,-0.24852813 0.20147186,-0.44999999 0.44999999,-0.44999999 0.24852813,0 0.44999999,0.20147186 0.44999999,0.44999999 z"
       id="circle3313"
       r="0.44999999"
       cy="0"
       cx="0" />
  </g>
  <g
     style="font-size:0.75px;fill:#b20000;stroke:#b20000;stroke-width:0.1;font-family:sans-serif"
     id="g3319"
     transform="matrix(50,0,0,50,350.5,325)"
     font-size="0.75">
    <path
       style="stroke:none"
       inkscape:connector-curvature="0"
       id="path3321"
       d="m -0.8084,-0.3436 0.074,0 0,0.4845 0.2662,0 0,0.0623 -0.3402,0 0,-0.5468 z m 0.6013,0.3406 q -0.0817,0 -0.1132,0.0187 -0.0315,0.0186 -0.0315,0.0637 0,0.0359 0.0237,0.0569 0.0236,0.0211 0.0642,0.0211 0.0561,0 0.0899,-0.0398 0.0339,-0.0397 0.0339,-0.1056 l 0,-0.015 -0.067,0 z m 0.1344,-0.0279 0,0.2341 -0.0674,0 0,-0.0623 q -0.023,0.0374 -0.0575,0.0551 -0.0344,0.0178 -0.0842,0.0178 -0.063,0 -0.1002,-0.0354 -0.0371,-0.0353 -0.0371,-0.0946 0,-0.0692 0.0463,-0.1044 0.0463,-0.0351 0.1382,-0.0351 l 0.0945,0 0,-0.0066 q 0,-0.0466 -0.0306,-0.072 -0.0305,-0.0255 -0.0858,-0.0255 -0.0352,0 -0.0685,0.0085 -0.0333,0.0084 -0.0641,0.0252 l 0,-0.0622 q 0.037,-0.0143 0.0718,-0.0214 0.0348,-0.0072 0.0677,-0.0072 0.089,0 0.133,0.0462 0.0439,0.0461 0.0439,0.1398 z m 0.3464,-0.3358 0,0.0561 -0.0644,0 q -0.0363,0 -0.0504,0.0146 -0.0141,0.0147 -0.0141,0.0528 l 0,0.0362 0.111,0 0,0.0524 -0.111,0 0,0.3578 -0.0677,0 0,-0.3578 -0.0645,0 0,-0.0524 0.0645,0 0,-0.0286 q 0,-0.0684 0.0319,-0.0998 0.0318,-0.0313 0.101,-0.0313 l 0.0637,0 z m 0.3307,0.0996 0,0.204 0.204,0 0,0.0623 -0.204,0 0,0.204 -0.0615,0 0,-0.204 -0.204,0 0,-0.0623 0.204,0 0,-0.204 0.0615,0 z" />
  </g>
  <g
     style="font-size:0.75px;fill:#b20000;stroke:#b20000;stroke-width:0.1;font-family:sans-serif"
     id="g3323"
     transform="matrix(50,0,0,50,550.5,325)"
     font-size="0.75">
    <path
       style="stroke:none"
       inkscape:connector-curvature="0"
       id="path3325"
       d="m -1.0417,-0.3517 0.074,0 0,0.4845 0.2662,0 0,0.0623 -0.3402,0 0,-0.5468 z m 0.6013,0.3406 q -0.0816,0 -0.1131,0.0187 -0.0315,0.0187 -0.0315,0.0637 0,0.0359 0.0236,0.0569 0.0236,0.0211 0.0643,0.0211 0.056,0 0.0899,-0.0397 0.0338,-0.0398 0.0338,-0.1057 l 0,-0.015 -0.067,0 z m 0.1344,-0.0278 0,0.234 -0.0674,0 0,-0.0623 q -0.023,0.0374 -0.0574,0.0551 -0.0345,0.0178 -0.0843,0.0178 -0.063,0 -0.1001,-0.0353 -0.0372,-0.0354 -0.0372,-0.0947 0,-0.0692 0.0463,-0.1044 0.0464,-0.0351 0.1383,-0.0351 l 0.0944,0 0,-0.0066 q 0,-0.0465 -0.0305,-0.072 -0.0306,-0.0254 -0.0859,-0.0254 -0.0352,0 -0.0685,0.0084 -0.0333,0.0084 -0.0641,0.0253 l 0,-0.0623 q 0.037,-0.0143 0.0718,-0.0214 0.0348,-0.0072 0.0677,-0.0072 0.089,0 0.133,0.0462 0.0439,0.0461 0.0439,0.1399 z m 0.4582,-0.0974 q 0.0252,-0.0454 0.0604,-0.0671 0.0351,-0.0216 0.0827,-0.0216 0.0641,0 0.0989,0.0449 0.0348,0.0449 0.0348,0.1276 l 0,0.2476 -0.0677,0 0,-0.2454 q 0,-0.0589 -0.0209,-0.0875 -0.0209,-0.0286 -0.0637,-0.0286 -0.0524,0 -0.0828,0.0348 -0.0304,0.0348 -0.0304,0.0949 l 0,0.2318 -0.0677,0 0,-0.2454 q 0,-0.0593 -0.0209,-0.0877 -0.0209,-0.0284 -0.0645,-0.0284 -0.0516,0 -0.082,0.035 -0.0304,0.035 -0.0304,0.0947 l 0,0.2318 -0.0677,0 0,-0.4102 0.0677,0 0,0.0637 q 0.0231,-0.0377 0.0553,-0.0556 0.0322,-0.018 0.0765,-0.018 0.0447,0 0.076,0.0227 0.0313,0.0227 0.0464,0.066 z m 0.6855,-0.1388 0,0.2039 0.204,0 0,0.0623 -0.204,0 0,0.204 -0.0615,0 0,-0.204 -0.204,0 0,-0.0623 0.204,0 0,-0.2039 0.0615,0 z" />
  </g>
  <g
     style="font-size:0.75px;fill:#0000b2;stroke:#0000b2;stroke-width:0.1;font-family:sans-serif"
     id="g3327"
     transform="matrix(50,0,0,50,200.5,425)"
     font-size="0.75">
    <path
       style="stroke:none"
       inkscape:connector-curvature="0"
       id="path3329"
       d="m -1.0748,-0.0931 q -0.0114,-0.0066 -0.0247,-0.0097 -0.0134,-0.0031 -0.0295,-0.0031 -0.0572,0 -0.0877,0.0371 -0.0306,0.0372 -0.0306,0.1068 l 0,0.216 -0.0678,0 0,-0.4101 0.0678,0 0,0.0637 q 0.0212,-0.0374 0.0553,-0.0555 0.034,-0.0181 0.0827,-0.0181 0.007,0 0.0154,9e-4 0.0085,9e-4 0.0187,0.0028 l 4e-4,0.0692 z m 0.4215,0.1252 0,0.033 -0.3098,0 q 0.0044,0.0695 0.0419,0.106 0.0375,0.0364 0.1045,0.0364 0.0389,0 0.0753,-0.0095 0.0364,-0.0095 0.0723,-0.0286 l 0,0.0638 q -0.0362,0.0153 -0.0743,0.0234 -0.0381,0.0081 -0.0773,0.0081 -0.0981,0 -0.1554,-0.0572 -0.0574,-0.0571 -0.0574,-0.1545 0,-0.1007 0.0544,-0.1599 0.0544,-0.0591 0.1467,-0.0591 0.0828,0 0.1309,0.0533 0.0482,0.0533 0.0482,0.1448 z M -0.7207,0.0123 q -7e-4,-0.0553 -0.0309,-0.0882 -0.0303,-0.033 -0.0801,-0.033 -0.0564,0 -0.0902,0.0319 -0.0339,0.0319 -0.039,0.0897 l 0.2402,-4e-4 z m 0.3644,0.0356 q -0.0817,0 -0.1132,0.0186 -0.0315,0.0187 -0.0315,0.0638 0,0.0358 0.0236,0.0569 0.0237,0.0211 0.0643,0.0211 0.056,0 0.0899,-0.0398 0.0339,-0.0397 0.0339,-0.1056 l 0,-0.015 -0.067,0 z m 0.1344,-0.0279 0,0.234 -0.0674,0 0,-0.0622 q -0.0231,0.0373 -0.0575,0.0551 -0.0344,0.0178 -0.0842,0.0178 -0.063,0 -0.1002,-0.0354 -0.0372,-0.0353 -0.0372,-0.0947 0,-0.0692 0.0464,-0.1043 0.0463,-0.0352 0.1382,-0.0352 l 0.0945,0 0,-0.0066 q 0,-0.0465 -0.0306,-0.0719 -0.0306,-0.0255 -0.0859,-0.0255 -0.0351,0 -0.0684,0.0084 -0.0334,0.0085 -0.0641,0.0253 l 0,-0.0622 q 0.037,-0.0143 0.0717,-0.0215 0.0348,-0.0071 0.0678,-0.0071 0.089,0 0.1329,0.0461 0.044,0.0462 0.044,0.1399 z m 0.4087,-0.1139 0,-0.2219 0.0673,0 0,0.5698 -0.0673,0 0,-0.0615 Q 0.1655,0.2291 0.1331,0.2469 0.1007,0.2647 0.0553,0.2647 q -0.0743,0 -0.121,-0.0594 -0.0467,-0.0593 -0.0467,-0.156 0,-0.0967 0.0467,-0.156 0.0467,-0.0593 0.121,-0.0593 0.0454,0 0.0778,0.0178 0.0324,0.0177 0.0537,0.0543 z m -0.2296,0.1432 q 0,0.0744 0.0305,0.1167 0.0306,0.0423 0.0841,0.0423 0.0534,0 0.0842,-0.0423 0.0308,-0.0423 0.0308,-0.1167 0,-0.0743 -0.0308,-0.1166 -0.0308,-0.0423 -0.0842,-0.0423 -0.0535,0 -0.0841,0.0423 -0.0305,0.0423 -0.0305,0.1166 z M 0.5636,0.2921 Q 0.535,0.3654 0.5079,0.3877 0.4808,0.41 0.4354,0.41 l -0.0538,0 0,-0.0564 0.0395,0 q 0.0279,0 0.0433,-0.0131 0.0153,-0.0132 0.034,-0.0623 l 0.0121,-0.0308 -0.1659,-0.4035 0.0714,0 0.1282,0.3208 0.1282,-0.3208 0.0714,0 -0.1802,0.4482 z m 0.5475,-0.5083 0,0.204 0.204,0 0,0.0623 -0.204,0 0,0.2039 -0.0615,0 0,-0.2039 -0.204,0 0,-0.0623 0.204,0 0,-0.204 0.0615,0 z" />
  </g>
  <g
     style="font-size:0.75px;fill:#0000b2;stroke:#0000b2;stroke-width:0.1;font-family:sans-serif"
     id="g3331"
     transform="matrix(50,0,0,50,350.5,427.0833)"
     font-size="0.75">
    <path
       style="stroke:none"
       inkscape:connector-curvature="0"
       id="path3333"
       d="m -0.2743,-0.2825 -0.1003,0.2721 0.201,0 -0.1007,-0.2721 z m -0.0417,-0.0729 0.0838,0 0.2084,0.5468 -0.0769,0 -0.0498,-0.1403 -0.2465,0 -0.0498,0.1403 -0.078,0 0.2088,-0.5468 z m 0.6068,0.1996 Q 0.2794,-0.1624 0.2661,-0.1655 0.2527,-0.1686 0.2366,-0.1686 q -0.0572,0 -0.0877,0.0372 -0.0306,0.0371 -0.0306,0.1067 l 0,0.2161 -0.0678,0 0,-0.4102 0.0678,0 0,0.0637 q 0.0212,-0.0373 0.0553,-0.0555 0.034,-0.0181 0.0827,-0.0181 0.007,0 0.0154,9e-4 0.0085,9e-4 0.0187,0.0028 l 4e-4,0.0692 z m 0.0366,0.1117 0.1974,0 0,0.06 -0.1974,0 0,-0.06 z" />
  </g>
  <g
     style="font-size:0.75px;fill:#b20000;stroke:#b20000;stroke-width:0.1;font-family:sans-serif"
     id="g3335"
     transform="matrix(50,0,0,50,200.5,625)"
     font-size="0.75">
    <path
       style="stroke:none"
       inkscape:connector-curvature="0"
       id="path3337"
       d="m -0.6786,-0.21 0,0.0637 q -0.0286,-0.0147 -0.0593,-0.022 -0.0308,-0.0073 -0.0637,-0.0073 -0.0502,0 -0.0753,0.0154 -0.0251,0.0153 -0.0251,0.0461 0,0.0234 0.018,0.0368 0.0179,0.0134 0.0721,0.0255 l 0.0231,0.0051 q 0.0718,0.0154 0.102,0.0434 0.0302,0.028 0.0302,0.0782 0,0.0571 -0.0453,0.0904 -0.0452,0.0334 -0.1243,0.0334 -0.0329,0 -0.0686,-0.0065 Q -0.9305,0.1858 -0.9701,0.173 l 0,-0.0696 q 0.0374,0.0194 0.0736,0.0291 0.0363,0.0098 0.0718,0.0098 0.0476,0 0.0732,-0.0163 0.0257,-0.0163 0.0257,-0.046 0,-0.0275 -0.0185,-0.0421 Q -0.7628,0.0232 -0.8255,0.0097 L -0.8489,0.0042 q -0.0626,-0.0132 -0.0904,-0.0405 -0.0279,-0.0273 -0.0279,-0.0749 0,-0.0578 0.041,-0.0893 0.0411,-0.0315 0.1165,-0.0315 0.0374,0 0.0703,0.0055 0.033,0.0055 0.0608,0.0165 z m 0.1959,-0.1286 0,0.1165 0.1388,0 0,0.0524 -0.1388,0 0,0.2226 q 0,0.0502 0.0138,0.0645 0.0137,0.0142 0.0558,0.0142 l 0.0692,0 0,0.0564 -0.0692,0 q -0.078,0 -0.1077,-0.0291 -0.0296,-0.0291 -0.0296,-0.106 l 0,-0.2226 -0.0495,0 0,-0.0524 0.0495,0 0,-0.1165 0.0677,0 z m 0.4138,0.3205 q -0.0816,0 -0.1131,0.0186 -0.0315,0.0187 -0.0315,0.0638 0,0.0358 0.0236,0.0569 0.0236,0.0211 0.0643,0.0211 0.056,0 0.0899,-0.0398 0.0339,-0.0397 0.0339,-0.1056 l 0,-0.015 -0.0671,0 z m 0.1344,-0.0279 0,0.234 -0.0673,0 0,-0.0622 q -0.0231,0.0373 -0.0575,0.0551 -0.0345,0.0178 -0.0843,0.0178 -0.0629,0 -0.1001,-0.0354 -0.0372,-0.0353 -0.0372,-0.0947 0,-0.0692 0.0463,-0.1043 0.0464,-0.0352 0.1383,-0.0352 l 0.0945,0 0,-0.0066 q 0,-0.0465 -0.0306,-0.0719 -0.0306,-0.0255 -0.0859,-0.0255 -0.0352,0 -0.0685,0.0084 -0.0333,0.0085 -0.0641,0.0253 l 0,-0.0623 q 0.037,-0.0142 0.0718,-0.0214 0.0348,-0.0071 0.0678,-0.0071 0.089,0 0.1329,0.0461 0.0439,0.0462 0.0439,0.1399 z M 0.442,-0.1591 Q 0.4307,-0.1657 0.4173,-0.1688 0.4039,-0.172 0.3878,-0.172 q -0.0571,0 -0.0877,0.0372 -0.0306,0.0372 -0.0306,0.1068 l 0,0.216 -0.0677,0 0,-0.4101 0.0677,0 0,0.0637 q 0.0213,-0.0374 0.0553,-0.0555 0.0341,-0.0181 0.0828,-0.0181 0.007,0 0.0154,9e-4 0.0084,9e-4 0.0186,0.0028 l 4e-4,0.0692 z m 0.1373,-0.1795 0,0.1165 0.1388,0 0,0.0524 -0.1388,0 0,0.2226 q 0,0.0502 0.0138,0.0645 0.0137,0.0142 0.0558,0.0142 l 0.0692,0 0,0.0564 -0.0692,0 Q 0.5709,0.188 0.5413,0.1589 0.5116,0.1298 0.5116,0.0529 l 0,-0.2226 -0.0494,0 0,-0.0524 0.0494,0 0,-0.1165 0.0677,0 z m 0.1934,0.2912 0.1974,0 0,0.06 -0.1974,0 0,-0.06 z" />
  </g>
  <g
     style="font-size:0.75px;fill:#0000b2;stroke:#0000b2;stroke-width:0.1;font-family:sans-serif"
     id="g3339"
     transform="matrix(50,0,0,50,200.5,925)"
     font-size="0.75">
    <path
       style="stroke:none"
       inkscape:connector-curvature="0"
       id="path3341"
       d="m -0.9174,-0.0931 q -0.0113,-0.0066 -0.0247,-0.0097 -0.0133,-0.0031 -0.0295,-0.0031 -0.0571,0 -0.0877,0.0371 -0.0305,0.0372 -0.0305,0.1068 l 0,0.216 -0.0678,0 0,-0.4101 0.0678,0 0,0.0637 q 0.0212,-0.0374 0.0553,-0.0555 0.034,-0.0181 0.0827,-0.0181 0.007,0 0.0154,9e-4 0.0084,9e-4 0.0187,0.0028 l 3e-4,0.0692 z m 0.4216,0.1252 0,0.033 -0.3099,0 q 0.0044,0.0695 0.042,0.106 0.0375,0.0364 0.1045,0.0364 0.0388,0 0.0753,-0.0095 0.0364,-0.0095 0.0723,-0.0286 l 0,0.0638 q -0.0363,0.0153 -0.0743,0.0234 -0.0381,0.0081 -0.0773,0.0081 -0.0982,0 -0.1555,-0.0572 Q -0.876,0.1504 -0.876,0.053 q 0,-0.1007 0.0544,-0.1599 0.0544,-0.0591 0.1467,-0.0591 0.0827,0 0.1309,0.0533 0.0482,0.0533 0.0482,0.1448 z M -0.5632,0.0123 q -8e-4,-0.0553 -0.031,-0.0882 -0.0302,-0.033 -0.08,-0.033 -0.0564,0 -0.0903,0.0319 -0.0338,0.0319 -0.039,0.0897 l 0.2403,-4e-4 z m 0.3643,0.0356 q -0.0816,0 -0.1131,0.0186 -0.0315,0.0187 -0.0315,0.0638 0,0.0358 0.0236,0.0569 0.0236,0.0211 0.0643,0.0211 0.056,0 0.0899,-0.0398 0.0339,-0.0397 0.0339,-0.1056 l 0,-0.015 -0.0671,0 z m 0.1345,-0.0279 0,0.234 -0.0674,0 0,-0.0622 q -0.0231,0.0373 -0.0575,0.0551 -0.0345,0.0178 -0.0843,0.0178 -0.0629,0 -0.1001,-0.0354 -0.0372,-0.0353 -0.0372,-0.0947 0,-0.0692 0.0463,-0.1043 0.0464,-0.0352 0.1383,-0.0352 l 0.0945,0 0,-0.0066 q 0,-0.0465 -0.0306,-0.0719 -0.0306,-0.0255 -0.0859,-0.0255 -0.0351,0 -0.0685,0.0084 -0.0333,0.0085 -0.0641,0.0253 l 0,-0.0622 q 0.037,-0.0143 0.0718,-0.0215 0.0348,-0.0071 0.0678,-0.0071 0.089,0 0.1329,0.0461 0.044,0.0462 0.044,0.1399 z m 0.4086,-0.1139 0,-0.2219 0.0674,0 0,0.5698 -0.0674,0 0,-0.0615 Q 0.323,0.2291 0.2906,0.2469 0.2582,0.2647 0.2128,0.2647 0.1384,0.2647 0.0917,0.2053 0.045,0.146 0.045,0.0493 q 0,-0.0967 0.0467,-0.156 0.0467,-0.0593 0.1211,-0.0593 0.0454,0 0.0778,0.0178 0.0324,0.0177 0.0536,0.0543 z M 0.1146,0.0493 q 0,0.0744 0.0306,0.1167 0.0306,0.0423 0.0841,0.0423 0.0534,0 0.0842,-0.0423 0.0307,-0.0423 0.0307,-0.1167 0,-0.0743 -0.0307,-0.1166 -0.0308,-0.0423 -0.0842,-0.0423 -0.0535,0 -0.0841,0.0423 Q 0.1146,-0.025 0.1146,0.0493 z M 0.7211,0.2921 Q 0.6925,0.3654 0.6654,0.3877 0.6383,0.41 0.5929,0.41 l -0.0538,0 0,-0.0564 0.0395,0 q 0.0278,0 0.0432,-0.0131 Q 0.6372,0.3273 0.6559,0.2782 L 0.668,0.2474 0.5021,-0.1561 l 0.0714,0 0.1282,0.3208 0.1281,-0.3208 0.0715,0 -0.1802,0.4482 z m 0.2391,-0.2735 0.1974,0 0,0.06 -0.1974,0 0,-0.06 z" />
  </g>
  <g
     style="font-size:0.75px;fill:#b20000;stroke:#b20000;stroke-width:0.1;font-family:sans-serif"
     id="g3343"
     transform="matrix(50,0,0,50,450.5,525)"
     font-size="0.75">
    <path
       style="stroke:none"
       inkscape:connector-curvature="0"
       id="path3345"
       d="m -0.3582,-0.2707 -0.1003,0.2721 0.2011,0 -0.1008,-0.2721 z m -0.0417,-0.0729 0.0839,0 0.2083,0.5468 -0.0769,0 -0.0498,-0.1403 -0.2464,0 -0.0498,0.1403 -0.078,0 0.2087,-0.5468 z m 0.639,0.1989 0,-0.222 0.0674,0 0,0.5699 -0.0674,0 0,-0.0616 Q 0.2179,0.1783 0.1855,0.196 0.1531,0.2138 0.1077,0.2138 q -0.0744,0 -0.1211,-0.0593 -0.0467,-0.0594 -0.0467,-0.1561 0,-0.0966 0.0467,-0.156 0.0467,-0.0593 0.1211,-0.0593 0.0454,0 0.0778,0.0178 0.0324,0.0177 0.0536,0.0544 z m -0.2296,0.1431 q 0,0.0744 0.0306,0.1167 0.0306,0.0423 0.084,0.0423 0.0535,0 0.0843,-0.0423 0.0307,-0.0423 0.0307,-0.1167 0,-0.0743 -0.0307,-0.1166 -0.0308,-0.0423 -0.0843,-0.0423 -0.0534,0 -0.084,0.0423 -0.0306,0.0423 -0.0306,0.1166 z m 0.4018,-0.0307 0.1973,0 0,0.06 -0.1973,0 0,-0.06 z" />
  </g>
  <g
     style="font-size:0.75px;fill:#0000b2;stroke:#0000b2;stroke-width:0.1;font-family:sans-serif"
     id="g3347"
     transform="matrix(50,0,0,50,350.5,625)"
     font-size="0.75">
    <path
       style="stroke:none"
       inkscape:connector-curvature="0"
       id="path3349"
       d="m -0.4433,-0.3554 0.074,0 0,0.4845 0.2662,0 0,0.0623 -0.3402,0 0,-0.5468 z m 0.6526,0.1996 Q 0.1979,-0.1624 0.1846,-0.1655 0.1712,-0.1686 0.1551,-0.1686 q -0.0571,0 -0.0877,0.0372 -0.0306,0.0371 -0.0306,0.1067 l 0,0.2161 -0.0678,0 0,-0.4102 0.0678,0 0,0.0637 q 0.0212,-0.0373 0.0553,-0.0555 0.0341,-0.0181 0.0828,-0.0181 0.0069,0 0.0153,9e-4 0.0085,9e-4 0.0187,0.0028 l 4e-4,0.0692 z m 0.0366,0.1117 0.1974,0 0,0.06 -0.1974,0 0,-0.06 z" />
  </g>
  <g
     style="font-size:0.75px;fill:#0000b2;stroke:#0000b2;stroke-width:0.1;font-family:sans-serif"
     id="g3351"
     transform="matrix(50,0,0,50,350.5,925)"
     font-size="0.75">
    <path
       style="stroke:none"
       inkscape:connector-curvature="0"
       id="path3353"
       d="m -0.4318,-0.2825 -0.1003,0.2721 0.2011,0 -0.1008,-0.2721 z m -0.0417,-0.0729 0.0839,0 0.2083,0.5468 -0.0769,0 -0.0498,-0.1403 -0.2464,0 -0.0499,0.1403 -0.078,0 0.2088,-0.5468 z m 0.6068,0.1996 Q 0.1219,-0.1624 0.1086,-0.1655 0.0952,-0.1686 0.0791,-0.1686 q -0.0571,0 -0.0877,0.0372 -0.0306,0.0371 -0.0306,0.1067 l 0,0.2161 -0.0677,0 0,-0.4102 0.0677,0 0,0.0637 q 0.0213,-0.0373 0.0553,-0.0555 0.0341,-0.0181 0.0828,-0.0181 0.0069,0 0.0154,9e-4 0.0084,9e-4 0.0186,0.0028 l 4e-4,0.0692 z m 0.345,-0.1231 0,0.204 0.204,0 0,0.0623 -0.204,0 0,0.204 -0.0615,0 0,-0.204 -0.204,0 0,-0.0623 0.204,0 0,-0.204 0.0615,0 z" />
  </g>
  <g
     style="font-size:0.75px;fill:#b20000;stroke:#b20000;stroke-width:0.1;font-family:sans-serif"
     id="g3355"
     transform="matrix(50,0,0,50,350.5,727.0833)"
     font-size="0.75">
    <path
       style="stroke:none"
       inkscape:connector-curvature="0"
       id="path3357"
       d="m -0.6509,-0.3436 0.0739,0 0,0.4845 0.2663,0 0,0.0623 -0.3402,0 0,-0.5468 z m 0.6013,0.3406 q -0.0817,0 -0.1132,0.0187 -0.0315,0.0186 -0.0315,0.0637 0,0.0359 0.0236,0.0569 0.0237,0.0211 0.0643,0.0211 0.056,0 0.0899,-0.0398 Q 0.0174,0.0779 0.0174,0.012 l 0,-0.015 -0.067,0 z m 0.1344,-0.0279 0,0.2341 -0.0674,0 0,-0.0623 q -0.0231,0.0374 -0.0575,0.0551 -0.0344,0.0178 -0.0842,0.0178 -0.063,0 -0.1002,-0.0354 -0.0372,-0.0353 -0.0372,-0.0946 0,-0.0692 0.0464,-0.1044 0.0463,-0.0351 0.1382,-0.0351 l 0.0945,0 0,-0.0066 q 0,-0.0466 -0.0306,-0.072 -0.0306,-0.0255 -0.0859,-0.0255 -0.0351,0 -0.0684,0.0085 -0.0334,0.0084 -0.0641,0.0252 l 0,-0.0622 q 0.037,-0.0143 0.0717,-0.0214 0.0348,-0.0072 0.0678,-0.0072 0.089,0 0.1329,0.0462 0.044,0.0461 0.044,0.1398 z m 0.3464,-0.3358 0,0.0561 -0.0644,0 q -0.0363,0 -0.0504,0.0146 -0.0141,0.0147 -0.0141,0.0528 l 0,0.0362 0.111,0 0,0.0524 -0.111,0 0,0.3578 -0.0677,0 0,-0.3578 -0.0645,0 0,-0.0524 0.0645,0 0,-0.0286 q 0,-0.0684 0.0318,-0.0998 0.0319,-0.0313 0.1011,-0.0313 l 0.0637,0 z m 0.0224,0.3344 0.1973,0 0,0.06 -0.1973,0 0,-0.06 z" />
  </g>
  <g
     style="font-size:0.75px;fill:#b20000;stroke:#b20000;stroke-width:0.1;font-family:sans-serif"
     id="g3359"
     transform="matrix(50,0,0,50,350.5,1076.3889)"
     font-size="0.75">
    <path
       style="stroke:none"
       inkscape:connector-curvature="0"
       id="path3361"
       d="m -0.5156,-0.2707 -0.1004,0.2721 0.2011,0 -0.1007,-0.2721 z m -0.0418,-0.0729 0.0839,0 0.2084,0.5468 -0.0769,0 -0.0498,-0.1403 -0.2465,0 -0.0498,0.1403 -0.078,0 0.2087,-0.5468 z m 0.6391,0.1989 0,-0.222 0.0673,0 0,0.5699 -0.0673,0 0,-0.0616 Q 0.0604,0.1783 0.028,0.196 q -0.0324,0.0178 -0.0778,0.0178 -0.0743,0 -0.121,-0.0593 -0.0467,-0.0594 -0.0467,-0.1561 0,-0.0966 0.0467,-0.156 0.0467,-0.0593 0.121,-0.0593 0.0454,0 0.0778,0.0178 0.0324,0.0177 0.0537,0.0544 z m -0.2296,0.1431 q 0,0.0744 0.0305,0.1167 0.0306,0.0423 0.0841,0.0423 0.0534,0 0.0842,-0.0423 0.0308,-0.0423 0.0308,-0.1167 0,-0.0743 -0.0308,-0.1166 -0.0308,-0.0423 -0.0842,-0.0423 -0.0535,0 -0.0841,0.0423 -0.0305,0.0423 -0.0305,0.1166 z m 0.71,-0.2655 0,0.204 0.204,0 0,0.0623 -0.204,0 0,0.204 -0.0615,0 0,-0.204 -0.204,0 0,-0.0623 0.204,0 0,-0.204 0.0615,0 z" />
  </g>
  <g
     style="font-size:0.75px;fill:#ffffff;stroke:#ffffff;stroke-width:0.1;font-family:sans-serif"
     id="g3363"
     transform="matrix(50,0,0,50,450.5,1174.3056)"
     font-size="0.75">
    <circle
       style="stroke:none"
       sodipodi:ry="0.44999999"
       sodipodi:rx="0.44999999"
       sodipodi:cy="0"
       sodipodi:cx="0"
       d="M 0.44999999,0 C 0.44999999,0.24852813 0.24852813,0.44999999 0,0.44999999 -0.24852813,0.44999999 -0.44999999,0.24852813 -0.44999999,0 c 0,-0.24852813 0.20147186,-0.44999999 0.44999999,-0.44999999 0.24852813,0 0.44999999,0.20147186 0.44999999,0.44999999 z"
       id="circle3365"
       r="0.44999999"
       cy="0"
       cx="0" />
    <circle
       style="fill:none;stroke:#000000"
       sodipodi:ry="0.44999999"
       sodipodi:rx="0.44999999"
       sodipodi:cy="0"
       sodipodi:cx="0"
       d="M 0.44999999,0 C 0.44999999,0.24852813 0.24852813,0.44999999 0,0.44999999 -0.24852813,0.44999999 -0.44999999,0.24852813 -0.44999999,0 c 0,-0.24852813 0.20147186,-0.44999999 0.44999999,-0.44999999 0.24852813,0 0.44999999,0.20147186 0.44999999,0.44999999 z"
       id="circle3367"
       r="0.44999999"
       cy="0"
       cx="0" />
    <circle
       style="fill:#000000;stroke:none"
       sodipodi:ry="0.26320001"
       sodipodi:rx="0.26320001"
       sodipodi:cy="0"
       sodipodi:cx="0"
       d="M 0.26320001,0 C 0.26320001,0.14536135 0.14536135,0.26320001 0,0.26320001 -0.14536135,0.26320001 -0.26320001,0.14536135 -0.26320001,0 c 0,-0.14536135 0.11783866,-0.26320001 0.26320001,-0.26320001 0.14536135,0 0.26320001,0.11783866 0.26320001,0.26320001 z"
       id="circle3369"
       r="0.26320001"
       cy="0"
       cx="0" />
  </g>
  <g
     style="font-size:0.75px;fill:#0000b2;stroke:#0000b2;stroke-width:0.1;font-family:sans-serif"
     id="g3375"
     transform="matrix(50,0,0,50,550.5,525)"
     font-size="0.75">
    <path
       style="stroke:none"
       inkscape:connector-curvature="0"
       id="path3377"
       d="m -0.2743,-0.2825 -0.1003,0.2721 0.201,0 -0.1007,-0.2721 z m -0.0417,-0.0729 0.0838,0 0.2084,0.5468 -0.0769,0 -0.0498,-0.1403 -0.2465,0 -0.0498,0.1403 -0.078,0 0.2088,-0.5468 z m 0.6068,0.1996 Q 0.2794,-0.1624 0.2661,-0.1655 0.2527,-0.1686 0.2366,-0.1686 q -0.0572,0 -0.0877,0.0372 -0.0306,0.0371 -0.0306,0.1067 l 0,0.2161 -0.0678,0 0,-0.4102 0.0678,0 0,0.0637 q 0.0212,-0.0373 0.0553,-0.0555 0.034,-0.0181 0.0827,-0.0181 0.007,0 0.0154,9e-4 0.0085,9e-4 0.0187,0.0028 l 4e-4,0.0692 z m 0.0366,0.1117 0.1974,0 0,0.06 -0.1974,0 0,-0.06 z" />
  </g>
  <g
     style="font-size:0.75px;fill:#b20000;stroke:#b20000;stroke-width:0.1;font-family:sans-serif"
     id="g3379"
     transform="matrix(50,0,0,50,550.5,625)"
     font-size="0.75">
    <path
       style="stroke:none"
       inkscape:connector-curvature="0"
       id="path3381"
       d="m -0.3582,-0.2707 -0.1003,0.2721 0.2011,0 -0.1008,-0.2721 z m -0.0417,-0.0729 0.0839,0 0.2083,0.5468 -0.0769,0 -0.0498,-0.1403 -0.2464,0 -0.0498,0.1403 -0.078,0 0.2087,-0.5468 z m 0.639,0.1989 0,-0.222 0.0674,0 0,0.5699 -0.0674,0 0,-0.0616 Q 0.2179,0.1783 0.1855,0.196 0.1531,0.2138 0.1077,0.2138 q -0.0744,0 -0.1211,-0.0593 -0.0467,-0.0594 -0.0467,-0.1561 0,-0.0966 0.0467,-0.156 0.0467,-0.0593 0.1211,-0.0593 0.0454,0 0.0778,0.0178 0.0324,0.0177 0.0536,0.0544 z m -0.2296,0.1431 q 0,0.0744 0.0306,0.1167 0.0306,0.0423 0.084,0.0423 0.0535,0 0.0843,-0.0423 0.0307,-0.0423 0.0307,-0.1167 0,-0.0743 -0.0307,-0.1166 -0.0308,-0.0423 -0.0843,-0.0423 -0.0534,0 -0.084,0.0423 -0.0306,0.0423 -0.0306,0.1166 z m 0.4018,-0.0307 0.1973,0 0,0.06 -0.1973,0 0,-0.06 z" />
  </g>
  <g
     style="font-size:0.75px;fill:#0000b2;stroke:#0000b2;stroke-width:0.1;font-family:sans-serif"
     id="g3383"
     transform="matrix(50,0,0,50,650.5,625)"
     font-size="0.75">
    <path
       style="stroke:none"
       inkscape:connector-curvature="0"
       id="path3385"
       d="m -0.4433,-0.3554 0.074,0 0,0.4845 0.2662,0 0,0.0623 -0.3402,0 0,-0.5468 z m 0.6526,0.1996 Q 0.1979,-0.1624 0.1846,-0.1655 0.1712,-0.1686 0.1551,-0.1686 q -0.0571,0 -0.0877,0.0372 -0.0306,0.0371 -0.0306,0.1067 l 0,0.2161 -0.0678,0 0,-0.4102 0.0678,0 0,0.0637 q 0.0212,-0.0373 0.0553,-0.0555 0.0341,-0.0181 0.0828,-0.0181 0.0069,0 0.0153,9e-4 0.0085,9e-4 0.0187,0.0028 l 4e-4,0.0692 z m 0.0366,0.1117 0.1974,0 0,0.06 -0.1974,0 0,-0.06 z" />
  </g>
  <g
     style="font-size:0.75px;fill:#0000b2;stroke:#0000b2;stroke-width:0.1;font-family:sans-serif"
     id="g3387"
     transform="matrix(50,0,0,50,550.5,925)"
     font-size="0.75">
    <path
       style="stroke:none"
       inkscape:connector-curvature="0"
       id="path3389"
       d="m -0.4318,-0.2825 -0.1003,0.2721 0.2011,0 -0.1008,-0.2721 z m -0.0417,-0.0729 0.0839,0 0.2083,0.5468 -0.0769,0 -0.0498,-0.1403 -0.2464,0 -0.0499,0.1403 -0.078,0 0.2088,-0.5468 z m 0.6068,0.1996 Q 0.1219,-0.1624 0.1086,-0.1655 0.0952,-0.1686 0.0791,-0.1686 q -0.0571,0 -0.0877,0.0372 -0.0306,0.0371 -0.0306,0.1067 l 0,0.2161 -0.0677,0 0,-0.4102 0.0677,0 0,0.0637 q 0.0213,-0.0373 0.0553,-0.0555 0.0341,-0.0181 0.0828,-0.0181 0.0069,0 0.0154,9e-4 0.0084,9e-4 0.0186,0.0028 l 4e-4,0.0692 z m 0.345,-0.1231 0,0.204 0.204,0 0,0.0623 -0.204,0 0,0.204 -0.0615,0 0,-0.204 -0.204,0 0,-0.0623 0.204,0 0,-0.204 0.0615,0 z" />
  </g>
  <g
     style="font-size:0.75px;fill:#b20000;stroke:#b20000;stroke-width:0.1;font-family:sans-serif"
     id="g3391"
     transform="matrix(50,0,0,50,650.5,725)"
     font-size="0.75">
    <path
       style="stroke:none"
       inkscape:connector-curvature="0"
       id="path3393"
       d="m -0.8842,-0.3517 0.0739,0 0,0.4845 0.2663,0 0,0.0623 -0.3402,0 0,-0.5468 z m 0.6013,0.3406 q -0.0817,0 -0.1132,0.0187 -0.0315,0.0187 -0.0315,0.0637 0,0.0359 0.0237,0.0569 0.0236,0.0211 0.0642,0.0211 0.0561,0 0.0899,-0.0397 0.0339,-0.0398 0.0339,-0.1057 l 0,-0.015 -0.067,0 z m 0.1344,-0.0278 0,0.234 -0.0674,0 0,-0.0623 q -0.0231,0.0374 -0.0575,0.0551 -0.0344,0.0178 -0.0842,0.0178 -0.063,0 -0.1002,-0.0353 -0.0371,-0.0354 -0.0371,-0.0947 0,-0.0692 0.0463,-0.1044 0.0463,-0.0351 0.1382,-0.0351 l 0.0945,0 0,-0.0066 q 0,-0.0465 -0.0306,-0.072 -0.0305,-0.0254 -0.0858,-0.0254 -0.0352,0 -0.0685,0.0084 -0.0334,0.0084 -0.0641,0.0253 l 0,-0.0623 q 0.037,-0.0143 0.0718,-0.0214 0.0348,-0.0072 0.0677,-0.0072 0.089,0 0.133,0.0462 0.0439,0.0461 0.0439,0.1399 z m 0.4581,-0.0974 q 0.0253,-0.0454 0.0605,-0.0671 0.0351,-0.0216 0.0827,-0.0216 0.0641,0 0.0989,0.0449 0.0348,0.0449 0.0348,0.1276 l 0,0.2476 -0.0678,0 0,-0.2454 q 0,-0.0589 -0.0208,-0.0875 -0.0209,-0.0286 -0.0638,-0.0286 -0.0523,0 -0.0827,0.0348 -0.0304,0.0348 -0.0304,0.0949 l 0,0.2318 -0.0678,0 0,-0.2454 q 0,-0.0593 -0.0208,-0.0877 -0.0209,-0.0284 -0.0645,-0.0284 -0.0516,0 -0.082,0.035 -0.0304,0.035 -0.0304,0.0947 l 0,0.2318 -0.0678,0 0,-0.4102 0.0678,0 0,0.0637 q 0.0231,-0.0377 0.0553,-0.0556 0.0322,-0.018 0.0765,-0.018 0.0447,0 0.076,0.0227 0.0313,0.0227 0.0463,0.066 z m 0.3772,0.0959 0.1974,0 0,0.0601 -0.1974,0 0,-0.0601 z" />
  </g>
  <g
     style="font-size:0.75px;fill:#b20000;stroke:#b20000;stroke-width:0.1;font-family:sans-serif"
     id="g3395"
     transform="matrix(50,0,0,50,550.5,1075)"
     font-size="0.75">
    <path
       style="stroke:none"
       inkscape:connector-curvature="0"
       id="path3397"
       d="m -0.5156,-0.2707 -0.1004,0.2721 0.2011,0 -0.1007,-0.2721 z m -0.0418,-0.0729 0.0839,0 0.2084,0.5468 -0.0769,0 -0.0498,-0.1403 -0.2465,0 -0.0498,0.1403 -0.078,0 0.2087,-0.5468 z m 0.6391,0.1989 0,-0.222 0.0673,0 0,0.5699 -0.0673,0 0,-0.0616 Q 0.0604,0.1783 0.028,0.196 q -0.0324,0.0178 -0.0778,0.0178 -0.0743,0 -0.121,-0.0593 -0.0467,-0.0594 -0.0467,-0.1561 0,-0.0966 0.0467,-0.156 0.0467,-0.0593 0.121,-0.0593 0.0454,0 0.0778,0.0178 0.0324,0.0177 0.0537,0.0544 z m -0.2296,0.1431 q 0,0.0744 0.0305,0.1167 0.0306,0.0423 0.0841,0.0423 0.0534,0 0.0842,-0.0423 0.0308,-0.0423 0.0308,-0.1167 0,-0.0743 -0.0308,-0.1166 -0.0308,-0.0423 -0.0842,-0.0423 -0.0535,0 -0.0841,0.0423 -0.0305,0.0423 -0.0305,0.1166 z m 0.71,-0.2655 0,0.204 0.204,0 0,0.0623 -0.204,0 0,0.204 -0.0615,0 0,-0.204 -0.204,0 0,-0.0623 0.204,0 0,-0.204 0.0615,0 z" />
  </g>
  <g
     style="font-size:0.75px;fill:#00b200;stroke:#00b200;stroke-width:0.1;font-family:sans-serif"
     id="g3399"
     transform="matrix(50,0,0,50,200.5,827.0833)"
     font-size="0.75">
    <path
       style="stroke:none"
       inkscape:connector-curvature="0"
       id="path3401"
       d="m -0.6182,-0.1959 0,0.063 q -0.0285,-0.0157 -0.0573,-0.0236 -0.0287,-0.0079 -0.058,-0.0079 -0.0656,0 -0.1018,0.0416 -0.0363,0.0416 -0.0363,0.1166 0,0.0751 0.0363,0.1167 0.0362,0.0415 0.1018,0.0415 0.0293,0 0.058,-0.0078 0.0288,-0.0079 0.0573,-0.0237 l 0,0.0623 q -0.0282,0.0132 -0.0584,0.0198 -0.0302,0.0066 -0.0642,0.0066 -0.0927,0 -0.1473,-0.0583 -0.0545,-0.0582 -0.0545,-0.1571 0,-0.1003 0.0551,-0.1578 0.0551,-0.0575 0.1511,-0.0575 0.0311,0 0.0607,0.0064 0.0297,0.0064 0.0575,0.0192 z m 0.3787,-0.0036 0,0.0637 q -0.0286,-0.0147 -0.0593,-0.022 -0.0308,-0.0073 -0.0637,-0.0073 -0.0502,0 -0.0753,0.0154 -0.0251,0.0154 -0.0251,0.0461 0,0.0235 0.018,0.0368 0.0179,0.0134 0.0721,0.0255 l 0.0231,0.0051 q 0.0717,0.0154 0.102,0.0434 0.0302,0.028 0.0302,0.0782 0,0.0571 -0.0453,0.0904 -0.0452,0.0334 -0.1243,0.0334 -0.0329,0 -0.0686,-0.0064 Q -0.4915,0.1963 -0.531,0.1835 l 0,-0.0696 q 0.0373,0.0195 0.0736,0.0292 0.0363,0.0097 0.0718,0.0097 0.0476,0 0.0732,-0.0163 0.0257,-0.0163 0.0257,-0.046 0,-0.0275 -0.0185,-0.0421 Q -0.3237,0.0337 -0.3864,0.0202 L -0.4098,0.0147 q -0.0626,-0.0132 -0.0904,-0.0405 -0.0279,-0.0273 -0.0279,-0.0748 0,-0.0579 0.041,-0.0894 0.0411,-0.0315 0.1165,-0.0315 0.0374,0 0.0703,0.0055 0.033,0.0055 0.0608,0.0165 z m 0.4244,0.0036 0,0.063 Q 0.1564,-0.1486 0.1276,-0.1565 0.0989,-0.1644 0.0696,-0.1644 q -0.0656,0 -0.1018,0.0416 -0.0363,0.0416 -0.0363,0.1166 0,0.0751 0.0363,0.1167 0.0362,0.0415 0.1018,0.0415 0.0293,0 0.058,-0.0078 0.0288,-0.0079 0.0573,-0.0237 l 0,0.0623 Q 0.1567,0.196 0.1265,0.2026 0.0963,0.2092 0.0623,0.2092 q -0.0927,0 -0.1473,-0.0583 -0.0545,-0.0582 -0.0545,-0.1571 0,-0.1003 0.0551,-0.1578 0.0551,-0.0575 0.1511,-0.0575 0.0311,0 0.0607,0.0064 0.0297,0.0064 0.0575,0.0192 z m 0.285,-0.1036 q -0.0572,0 -0.0859,0.0562 -0.0288,0.0562 -0.0288,0.169 0,0.1124 0.0288,0.1687 0.0287,0.0562 0.0859,0.0562 0.0575,0 0.0862,-0.0562 0.0287,-0.0563 0.0287,-0.1687 0,-0.1128 -0.0287,-0.169 -0.0287,-0.0562 -0.0862,-0.0562 z m 0,-0.0586 q 0.0919,0 0.1404,0.0727 0.0485,0.0727 0.0485,0.2111 0,0.1381 -0.0485,0.2108 -0.0485,0.0727 -0.1404,0.0727 -0.092,0 -0.1405,-0.0727 -0.0485,-0.0727 -0.0485,-0.2108 0,-0.1384 0.0485,-0.2111 0.0485,-0.0727 0.1405,-0.0727 z m 0.2753,0.3212 0.1974,0 0,0.06 -0.1974,0 0,-0.06 z" />
  </g>
  <g
     style="font-size:0.75px;fill:#00b200;stroke:#00b200;stroke-width:0.1;font-family:sans-serif"
     id="g3403"
     transform="matrix(50,0,0,50,350.5,525)"
     font-size="0.75">
    <path
       style="stroke:none"
       inkscape:connector-curvature="0"
       id="path3405"
       d="m -0.7756,-0.1959 0,0.063 q -0.0286,-0.0157 -0.0573,-0.0236 -0.0288,-0.0079 -0.0581,-0.0079 -0.0655,0 -0.1018,0.0416 -0.0363,0.0416 -0.0363,0.1166 0,0.0751 0.0363,0.1167 0.0363,0.0415 0.1018,0.0415 0.0293,0 0.0581,-0.0078 0.0287,-0.0079 0.0573,-0.0237 l 0,0.0623 q -0.0282,0.0132 -0.0584,0.0198 -0.0303,0.0066 -0.0643,0.0066 -0.0927,0 -0.1472,-0.0583 -0.0546,-0.0582 -0.0546,-0.1571 0,-0.1003 0.0551,-0.1578 0.0551,-0.0575 0.1511,-0.0575 0.0311,0 0.0608,0.0064 0.0296,0.0064 0.0575,0.0192 z m 0.3786,-0.0036 0,0.0637 q -0.0285,-0.0147 -0.0593,-0.022 -0.0308,-0.0073 -0.0637,-0.0073 -0.0502,0 -0.0753,0.0154 -0.0251,0.0154 -0.0251,0.0461 0,0.0235 0.018,0.0368 0.0179,0.0134 0.0721,0.0255 l 0.0231,0.0051 q 0.0718,0.0154 0.102,0.0434 0.0302,0.028 0.0302,0.0782 0,0.0571 -0.0452,0.0904 -0.0453,0.0334 -0.1243,0.0334 -0.033,0 -0.0687,-0.0064 -0.0357,-0.0065 -0.0753,-0.0193 l 0,-0.0696 q 0.0374,0.0195 0.0736,0.0292 0.0363,0.0097 0.0718,0.0097 0.0476,0 0.0732,-0.0163 0.0257,-0.0163 0.0257,-0.046 0,-0.0275 -0.0185,-0.0421 Q -0.4812,0.0337 -0.5438,0.0202 L -0.5673,0.0147 q -0.0626,-0.0132 -0.0904,-0.0405 -0.0278,-0.0273 -0.0278,-0.0748 0,-0.0579 0.041,-0.0894 0.041,-0.0315 0.1164,-0.0315 0.0374,0 0.0703,0.0055 0.033,0.0055 0.0608,0.0165 z m 0.4245,0.0036 0,0.063 q -0.0286,-0.0157 -0.0573,-0.0236 -0.0288,-0.0079 -0.0581,-0.0079 -0.0655,0 -0.1018,0.0416 -0.0363,0.0416 -0.0363,0.1166 0,0.0751 0.0363,0.1167 0.0363,0.0415 0.1018,0.0415 0.0293,0 0.0581,-0.0078 0.0287,-0.0079 0.0573,-0.0237 l 0,0.0623 Q -7e-4,0.196 -0.0309,0.2026 q -0.0303,0.0066 -0.0643,0.0066 -0.0927,0 -0.1472,-0.0583 -0.0546,-0.0582 -0.0546,-0.1571 0,-0.1003 0.0551,-0.1578 0.0551,-0.0575 0.1511,-0.0575 0.0311,0 0.0608,0.0064 0.0296,0.0064 0.0575,0.0192 z m 0.2849,-0.1036 q -0.0571,0 -0.0859,0.0562 -0.0287,0.0562 -0.0287,0.169 0,0.1124 0.0287,0.1687 0.0288,0.0562 0.0859,0.0562 0.0575,0 0.0862,-0.0562 0.0288,-0.0563 0.0288,-0.1687 0,-0.1128 -0.0288,-0.169 -0.0287,-0.0562 -0.0862,-0.0562 z m 0,-0.0586 q 0.0919,0 0.1404,0.0727 0.0486,0.0727 0.0486,0.2111 0,0.1381 -0.0486,0.2108 -0.0485,0.0727 -0.1404,0.0727 -0.0919,0 -0.1405,-0.0727 -0.0485,-0.0727 -0.0485,-0.2108 0,-0.1384 0.0485,-0.2111 0.0486,-0.0727 0.1405,-0.0727 z m 0.5837,0.0864 0,0.204 0.204,0 0,0.0623 -0.204,0 0,0.2039 -0.0615,0 0,-0.2039 -0.204,0 0,-0.0623 0.204,0 0,-0.204 0.0615,0 z" />
  </g>
  <g
     style="font-size:0.75px;stroke-width:0.02;font-family:sans-serif"
     id="g3407"
     transform="matrix(50,0,0,50,450.5,1425)"
     font-size="0.75">
    <path
       style="fill:none"
       inkscape:connector-curvature="0"
       id="path3409"
       d="M -6.2276,-6.9583 -9,-6.9583 -9,-28 l 8.1,0" />
    <path
       style="stroke:none"
       inkscape:connector-curvature="0"
       id="path3411"
       d="m -0.9,-28.075 0,0.15 0.4,-0.075 z" />
  </g>
  <g
     style="font-size:0.75px;stroke-width:0.02;font-family:sans-serif"
     id="g3413"
     transform="matrix(50,0,0,50,450.5,1425)"
     font-size="0.75">
    <path
       style="fill:none"
       inkscape:connector-curvature="0"
       id="path3415"
       d="m 0,-27.5 0,0.6446" />
    <path
       style="stroke:none"
       inkscape:connector-curvature="0"
       id="path3417"
       d="m 0.075,-26.8554 -0.15,0 0.075,0.4 z" />
  </g>
  <g
     style="font-size:0.75px;stroke-width:0.02;font-family:sans-serif"
     id="g3419"
     transform="matrix(50,0,0,50,450.5,1425)"
     font-size="0.75">
    <path
       style="fill:none"
       inkscape:connector-curvature="0"
       id="path3421"
       d="M 0,-25.5446 0,-24.9" />
    <path
       style="stroke:none"
       inkscape:connector-curvature="0"
       id="path3423"
       d="m 0.075,-24.9 -0.15,0 0.075,0.4 z" />
  </g>
  <g
     style="font-size:0.75px;stroke-width:0.02;font-family:sans-serif"
     id="g3425"
     transform="matrix(50,0,0,50,450.5,1425)"
     font-size="0.75">
    <path
       style="fill:none"
       inkscape:connector-curvature="0"
       id="path3427"
       d="m -0.3536,-23.6464 -0.8863,0.8863" />
    <path
       style="stroke:none"
       inkscape:connector-curvature="0"
       id="path3429"
       d="m -1.1868,-22.7071 -0.1061,-0.1061 -0.2298,0.3359 z" />
  </g>
  <g
     style="font-size:0.75px;stroke-width:0.02;font-family:sans-serif"
     id="g3431"
     transform="matrix(50,0,0,50,450.5,1425)"
     font-size="0.75">
    <path
       style="fill:none"
       inkscape:connector-curvature="0"
       id="path3433"
       d="m 0.3536,-23.6464 0.9013,0.9013" />
    <path
       style="stroke:none"
       inkscape:connector-curvature="0"
       id="path3435"
       d="m 1.3079,-22.7982 -0.1061,0.1061 0.3359,0.2298 z" />
  </g>
  <g
     style="font-size:0.75px;stroke-width:0.02;font-family:sans-serif"
     id="g3437"
     transform="matrix(50,0,0,50,450.5,1425)"
     font-size="0.75">
    <path
       style="fill:none"
       inkscape:connector-curvature="0"
       id="path3439"
       d="m -1.5126,-6.4949 0.8695,0.8513" />
    <path
       style="stroke:none"
       inkscape:connector-curvature="0"
       id="path3441"
       d="m -0.5906,-5.6971 -0.1049,0.1071 0.3382,0.2263 z" />
  </g>
  <g
     style="font-size:0.75px;stroke-width:0.02;font-family:sans-serif"
     id="g3443"
     transform="matrix(50,0,0,50,450.5,1425)"
     font-size="0.75">
    <path
       style="fill:none"
       inkscape:connector-curvature="0"
       id="path3445"
       d="M 1.5194,-6.5227 0.6386,-5.6481" />
    <path
       style="stroke:none"
       inkscape:connector-curvature="0"
       id="path3447"
       d="M 0.6915,-5.5948 0.5858,-5.7013 0.3548,-5.3662 z" />
  </g>
  <g
     style="font-size:0.75px;stroke-width:0.02;font-family:sans-serif"
     id="g3449"
     transform="matrix(50,0,0,50,450.5,1425)"
     font-size="0.75">
    <path
       style="fill:none"
       inkscape:connector-curvature="0"
       id="path3451"
       d="M 2.8661,-7 6,-7 6,-28 0.9,-28" />
    <path
       style="stroke:none"
       inkscape:connector-curvature="0"
       id="path3453"
       d="m 0.9,-27.925 0,-0.15 L 0.5,-28 z" />
  </g>
  <g
     style="font-size:0.75px;stroke-width:0.02;font-family:sans-serif"
     id="g3455"
     transform="matrix(50,0,0,50,450.5,1425)"
     font-size="0.75">
    <path
       style="fill:none"
       inkscape:connector-curvature="0"
       id="path3457"
       d="m -0.5,-5.0139 -7,0 0,-20.9861 6.3992,0" />
    <path
       style="stroke:none"
       inkscape:connector-curvature="0"
       id="path3459"
       d="m -1.1008,-26.075 0,0.15 0.4,-0.075 z" />
  </g>
  <g
     style="font-size:0.75px;stroke-width:0.02;font-family:sans-serif"
     id="g3461"
     transform="matrix(50,0,0,50,450.5,1425)"
     font-size="0.75">
    <path
       style="fill:none"
       inkscape:connector-curvature="0"
       id="path3463"
       d="m -5,-19.4282 0,2.579" />
    <path
       style="stroke:none"
       inkscape:connector-curvature="0"
       id="path3465"
       d="m -4.925,-16.8492 -0.15,0 0.075,0.4 z" />
  </g>
  <g
     style="font-size:0.75px;stroke-width:0.02;font-family:sans-serif"
     id="g3467"
     transform="matrix(50,0,0,50,450.5,1425)"
     font-size="0.75">
    <path
       style="fill:none"
       inkscape:connector-curvature="0"
       id="path3469"
       d="m -5,-9.4282 0,1.6207" />
    <path
       style="stroke:none"
       inkscape:connector-curvature="0"
       id="path3471"
       d="m -4.925,-7.8075 -0.15,0 0.075,0.4 z" />
  </g>
  <g
     style="font-size:0.75px;stroke-width:0.02;font-family:sans-serif"
     id="g3473"
     transform="matrix(50,0,0,50,200.5,1001.04)"
     font-size="0.75">
    <circle
       style="stroke:none"
       sodipodi:ry="0.2105"
       sodipodi:rx="0.2105"
       sodipodi:cy="0"
       sodipodi:cx="0"
       d="m 0.2105,0 c 0,0.11625594 -0.0942441,0.2105 -0.2105,0.2105 -0.11625594,0 -0.2105,-0.0942441 -0.2105,-0.2105 0,-0.11625594 0.0942441,-0.2105 0.2105,-0.2105 0.11625594,0 0.2105,0.0942441 0.2105,0.2105 z"
       id="circle3475"
       r="0.2105"
       cy="0"
       cx="0" />
  </g>
  <g
     style="font-size:0.75px;stroke-width:0.02;font-family:sans-serif"
     id="g3477"
     transform="matrix(50,0,0,50,450.5,1425)"
     font-size="0.75">
    <path
       style="fill:none"
       inkscape:connector-curvature="0"
       id="path3479"
       d="m -1.5349,-19.5029 0.7616,0.7458" />
    <path
       style="stroke:none"
       inkscape:connector-curvature="0"
       id="path3481"
       d="m -0.7208,-18.8107 -0.1049,0.1071 0.3383,0.2263 z" />
  </g>
  <g
     style="font-size:0.75px;stroke-width:0.02;font-family:sans-serif"
     id="g3483"
     transform="matrix(50,0,0,50,450.5,1425)"
     font-size="0.75">
    <path
       style="fill:none"
       inkscape:connector-curvature="0"
       id="path3485"
       d="m -0.1193,-17.5227 -1.6698,6.6793" />
    <path
       style="stroke:none"
       inkscape:connector-curvature="0"
       id="path3487"
       d="m -1.7164,-10.8252 -0.1455,-0.0364 -0.0243,0.4062 z" />
  </g>
  <g
     style="font-size:0.75px;stroke-width:0.02;font-family:sans-serif"
     id="g3489"
     transform="matrix(50,0,0,50,450.5,1425)"
     font-size="0.75">
    <path
       style="fill:none"
       inkscape:connector-curvature="0"
       id="path3491"
       d="m -2,-15.5446 0,0.709" />
    <path
       style="stroke:none"
       inkscape:connector-curvature="0"
       id="path3493"
       d="m -1.925,-14.8356 -0.15,0 0.075,0.4 z" />
  </g>
  <g
     style="font-size:0.75px;stroke-width:0.02;font-family:sans-serif"
     id="g3495"
     transform="matrix(50,0,0,50,450.5,1425)"
     font-size="0.75">
    <path
       style="fill:none"
       inkscape:connector-curvature="0"
       id="path3497"
       d="m -2,-13.481 0,2.6256" />
    <path
       style="stroke:none"
       inkscape:connector-curvature="0"
       id="path3499"
       d="m -1.925,-10.8554 -0.15,0 0.075,0.4 z" />
  </g>
  <g
     style="font-size:0.75px;stroke-width:0.02;font-family:sans-serif"
     id="g3501"
     transform="matrix(50,0,0,50,450.5,1425)"
     font-size="0.75">
    <path
       style="fill:none"
       inkscape:connector-curvature="0"
       id="path3503"
       d="m -2,-9.5446 0,1.6951" />
    <path
       style="stroke:none"
       inkscape:connector-curvature="0"
       id="path3505"
       d="m -1.925,-7.8495 -0.15,0 0.075,0.4 z" />
  </g>
  <g
     style="font-size:0.75px;stroke-width:0.02;font-family:sans-serif"
     id="g3507"
     transform="matrix(50,0,0,50,450.5,1425)"
     font-size="0.75">
    <path
       style="fill:none"
       inkscape:connector-curvature="0"
       id="path3509"
       d="m 2,-21.5377 0,2.6823" />
    <path
       style="stroke:none"
       inkscape:connector-curvature="0"
       id="path3511"
       d="m 2.075,-18.8554 -0.15,0 0.075,0.4 z" />
  </g>
  <g
     style="font-size:0.75px;stroke-width:0.02;font-family:sans-serif"
     id="g3513"
     transform="matrix(50,0,0,50,450.5,1425)"
     font-size="0.75">
    <path
       style="fill:none"
       inkscape:connector-curvature="0"
       id="path3515"
       d="m 2,-17.5446 0,0.6673" />
    <path
       style="stroke:none"
       inkscape:connector-curvature="0"
       id="path3517"
       d="m 2.075,-16.8773 -0.15,0 0.075,0.4 z" />
  </g>
  <g
     style="font-size:0.75px;stroke-width:0.02;font-family:sans-serif"
     id="g3519"
     transform="matrix(50,0,0,50,450.5,1425)"
     font-size="0.75">
    <path
       style="fill:none"
       inkscape:connector-curvature="0"
       id="path3521"
       d="m 2.4554,-17.5446 0.8064,0.8064" />
    <path
       style="stroke:none"
       inkscape:connector-curvature="0"
       id="path3523"
       d="m 3.3148,-16.7913 -0.1061,0.1061 0.3359,0.2298 z" />
  </g>
  <g
     style="font-size:0.75px;stroke-width:0.02;font-family:sans-serif"
     id="g3525"
     transform="matrix(50,0,0,50,450.5,1425)"
     font-size="0.75">
    <path
       style="fill:none"
       inkscape:connector-curvature="0"
       id="path3527"
       d="m 2,-15.5227 0,4.6673" />
    <path
       style="stroke:none"
       inkscape:connector-curvature="0"
       id="path3529"
       d="m 2.075,-10.8554 -0.15,0 0.075,0.4 z" />
  </g>
  <g
     style="font-size:0.75px;stroke-width:0.02;font-family:sans-serif"
     id="g3531"
     transform="matrix(50,0,0,50,450.5,1425)"
     font-size="0.75">
    <path
       style="fill:none"
       inkscape:connector-curvature="0"
       id="path3533"
       d="m 4,-15.5446 0,0.6823" />
    <path
       style="stroke:none"
       inkscape:connector-curvature="0"
       id="path3535"
       d="m 4.075,-14.8623 -0.15,0 0.075,0.4 z" />
  </g>
  <g
     style="font-size:0.75px;stroke-width:0.02;font-family:sans-serif"
     id="g3537"
     transform="matrix(50,0,0,50,450.5,1425)"
     font-size="0.75">
    <path
       style="fill:none"
       inkscape:connector-curvature="0"
       id="path3539"
       d="m 3.7689,-13.5377 -1.3623,2.7245" />
    <path
       style="stroke:none"
       inkscape:connector-curvature="0"
       id="path3541"
       d="m 2.4737,-10.7796 -0.1342,-0.0671 -0.1118,0.3913 z" />
  </g>
  <g
     style="font-size:0.75px;stroke-width:0.02;font-family:sans-serif"
     id="g3543"
     transform="matrix(50,0,0,50,450.5,1425)"
     font-size="0.75">
    <path
       style="fill:none"
       inkscape:connector-curvature="0"
       id="path3545"
       d="m 2,-9.5446 0,1.6673" />
    <path
       style="stroke:none"
       inkscape:connector-curvature="0"
       id="path3547"
       d="m 2.075,-7.8773 -0.15,0 0.075,0.4 z" />
  </g>
  <g
     style="font-size:0.75px;stroke-width:0.02;font-family:sans-serif"
     id="g3549"
     transform="matrix(50,0,0,50,450.5,1425)"
     font-size="0.75">
    <path
       style="fill:none"
       inkscape:connector-curvature="0"
       id="path3551"
       d="m -2.7159,-13.481 -1.2482,0.8321" />
    <path
       style="stroke:none"
       inkscape:connector-curvature="0"
       id="path3553"
       d="m -3.9225,-12.5865 -0.0832,-0.1248 -0.2912,0.2842 z" />
  </g>
  <g
     style="font-size:0.75px;stroke-width:0.02;font-family:sans-serif"
     id="g3555"
     transform="matrix(50,0,0,50,450.5,1425)"
     font-size="0.75">
    <path
       style="fill:none"
       inkscape:connector-curvature="0"
       id="path3557"
       d="m -5,-15.5508 0,2.7237" />
    <path
       style="stroke:none"
       inkscape:connector-curvature="0"
       id="path3559"
       d="m -4.925,-12.8271 -0.15,0 0.075,0.4 z" />
  </g>
  <g
     style="font-size:0.75px;stroke-width:0.02;font-family:sans-serif"
     id="g3561"
     transform="matrix(50,0,0,50,450.5,1425)"
     font-size="0.75">
    <path
       style="fill:none"
       inkscape:connector-curvature="0"
       id="path3563"
       d="m -5,-11.4896 0,0.5178" />
    <path
       style="stroke:none"
       inkscape:connector-curvature="0"
       id="path3565"
       d="m -4.925,-10.9718 -0.15,0 0.075,0.4 z" />
  </g>
  <g
     style="font-size:0.75px;stroke-width:0.02;font-family:sans-serif"
     id="g3567"
     transform="matrix(50,0,0,50,450.5,1425)"
     font-size="0.75">
    <path
       style="fill:none"
       inkscape:connector-curvature="0"
       id="path3569"
       d="m -2,-21.5227 0,0.709" />
    <path
       style="stroke:none"
       inkscape:connector-curvature="0"
       id="path3571"
       d="m -1.925,-20.8137 -0.15,0 0.075,0.4 z" />
  </g>
  <g
     style="font-size:0.75px;stroke-width:0.02;font-family:sans-serif"
     id="g3573"
     transform="matrix(50,0,0,50,450.5,1425)"
     font-size="0.75">
    <path
       style="fill:none"
       inkscape:connector-curvature="0"
       id="path3575"
       d="m -2.7159,-21.5227 -1.0936,0.729" />
    <path
       style="stroke:none"
       inkscape:connector-curvature="0"
       id="path3577"
       d="m -3.7679,-20.7313 -0.0832,-0.1248 -0.2912,0.2843 z" />
  </g>
  <g
     style="font-size:0.75px;stroke-width:0.02;font-family:sans-serif"
     id="g3579"
     transform="matrix(50,0,0,50,450.5,1425)"
     font-size="0.75">
    <path
       style="fill:none"
       inkscape:connector-curvature="0"
       id="path3581"
       d="m -2,-19.5029 0,0.6342" />
    <path
       style="stroke:none"
       inkscape:connector-curvature="0"
       id="path3583"
       d="m -1.925,-18.8687 -0.15,0 0.075,0.4 z" />
  </g>
  <g
     style="font-size:0.75px;stroke-width:0.02;font-family:sans-serif"
     id="g3585"
     transform="matrix(50,0,0,50,450.5,1425)"
     font-size="0.75">
    <path
       style="fill:none"
       inkscape:connector-curvature="0"
       id="path3587"
       d="m -2,-17.5313 0,0.6759" />
    <path
       style="stroke:none"
       inkscape:connector-curvature="0"
       id="path3589"
       d="m -1.925,-16.8554 -0.15,0 0.075,0.4 z" />
  </g>
</svg>
