<?xml version="1.0" encoding="UTF-8" standalone="no"?>
<svg xmlns:dc="http://purl.org/dc/elements/1.1/" xmlns:cc="http://creativecommons.org/ns#" xmlns:rdf="http://www.w3.org/1999/02/22-rdf-syntax-ns#" xmlns:svg="http://www.w3.org/2000/svg" xmlns="http://www.w3.org/2000/svg" xmlns:sodipodi="http://sodipodi.sourceforge.net/DTD/sodipodi-0.dtd" xmlns:inkscape="http://www.inkscape.org/namespaces/inkscape" color-interpolation="auto" color-rendering="auto" fill="black" fill-opacity="1" font-family="'Dialog'" font-size="12" font-style="normal" font-weight="normal" height="100%" image-rendering="auto" shape-rendering="auto" stroke="black" stroke-dasharray="none" stroke-dashoffset="0" stroke-linecap="square" stroke-linejoin="miter" stroke-miterlimit="10" stroke-opacity="1" stroke-width="1" text-rendering="auto" width="100%" id="svg2" version="1.1" inkscape:version="0.48.4 r9939" sodipodi:docname="concurrency-reduction-choice.svg" viewBox="0 0 937 508" preserveAspectRatio="xMidYMid slice">
  <metadata
     id="metadata151">
    <rdf:RDF>
      <cc:Work
         rdf:about="">
        <dc:format>image/svg+xml</dc:format>
        <dc:type
           rdf:resource="http://purl.org/dc/dcmitype/StillImage" />
      </cc:Work>
    </rdf:RDF>
  </metadata>
  <sodipodi:namedview
     pagecolor="#ffffff"
     bordercolor="#666666"
     borderopacity="1"
     objecttolerance="10"
     gridtolerance="10"
     guidetolerance="10"
     inkscape:pageopacity="0"
     inkscape:pageshadow="2"
     inkscape:window-width="1858"
     inkscape:window-height="1058"
     id="namedview149"
     showgrid="false"
     inkscape:zoom="1.5667022"
     inkscape:cx="468.5"
     inkscape:cy="254"
     inkscape:window-x="54"
     inkscape:window-y="-8"
     inkscape:window-maximized="1"
     inkscape:current-layer="svg2" />
  <!--Generated by the Batik Graphics2D SVG Generator-->
  <defs
     id="genericDefs" />
  <path
     d="m 323.655,329.99 3.245,0.42 q -0.535,3.355 -2.72,5.25 -2.19,1.895 -5.375,1.895 -3.99,0 -6.42,-2.61 -2.425,-2.61 -2.425,-7.48 0,-3.15 1.045,-5.515 1.045,-2.36 3.175,-3.54 2.135,-1.18 4.645,-1.18 3.165,0 5.18,1.6 2.015,1.605 2.58,4.55 l -3.2,0.495 q -0.46,-1.96 -1.625,-2.95 -1.16,-0.985 -2.81,-0.985 -2.49,0 -4.045,1.785 -1.555,1.785 -1.555,5.645 0,3.92 1.5,5.695 1.5,1.78 3.92,1.78 1.94,0 3.24,-1.19 1.3,-1.19 1.645,-3.665 z"
     id="path9"
     inkscape:connector-curvature="0"
     style="font-size:0.75px;stroke:none;font-family:sans-serif" />
  <rect
     height="395.84998"
     width="138.05501"
     x="99.332001"
     y="106.79"
     id="rect13"
     style="font-size:0.75000000000000000px;fill:#000000;stroke:#808080;stroke-width:2.50000000000000000;stroke-miterlimit:1;stroke-dasharray:10, 10;font-family:sans-serif;fill-opacity:0.19607843" />
  <path
     d="m 223.282,184.715 q -1.83,1.555 -3.52,2.2 -1.695,0.64 -3.635,0.64 -3.205,0 -4.925,-1.565 -1.725,-1.57 -1.725,-4.005 0,-1.425 0.65,-2.61 0.65,-1.18 1.705,-1.89 1.05,-0.715 2.37,-1.085 0.97,-0.255 2.93,-0.49 3.99,-0.48 5.88,-1.14 0.015,-0.675 0.015,-0.86 0,-2.015 -0.935,-2.835 -1.26,-1.12 -3.75,-1.12 -2.325,0 -3.435,0.815 -1.105,0.815 -1.64,2.885 l -3.22,-0.44 q 0.44,-2.07 1.445,-3.34 1.01,-1.275 2.91,-1.96 1.905,-0.685 4.415,-0.685 2.49,0 4.045,0.585 1.555,0.585 2.29,1.475 0.73,0.885 1.025,2.24 0.165,0.845 0.165,3.04 l 0,4.395 q 0,4.595 0.21,5.815 0.21,1.215 0.835,2.335 l -3.445,0 q -0.51,-1.025 -0.66,-2.4 z m -0.27,-7.36 q -1.795,0.73 -5.385,1.245 -2.035,0.295 -2.875,0.66 -0.845,0.365 -1.3,1.07 -0.46,0.705 -0.46,1.565 0,1.32 1,2.2 1,0.875 2.92,0.875 1.905,0 3.39,-0.83 1.48,-0.835 2.175,-2.28 0.535,-1.12 0.535,-3.295 l 0,-1.21 z"
     id="path15"
     inkscape:connector-curvature="0"
     style="font-size:0.75px;fill:#000000;stroke:none;font-family:sans-serif" />
  <path
     d="m 147.162,129.99 3.245,0.42 q -0.535,3.355 -2.72,5.25 -2.19,1.895 -5.375,1.895 -3.99,0 -6.42,-2.61 -2.425,-2.61 -2.425,-7.48 0,-3.15 1.045,-5.515 1.045,-2.36 3.175,-3.54 2.135,-1.18 4.645,-1.18 3.165,0 5.18,1.6 2.015,1.605 2.58,4.55 l -3.2,0.495 q -0.46,-1.96 -1.625,-2.95 -1.16,-0.985 -2.81,-0.985 -2.49,0 -4.045,1.785 -1.555,1.785 -1.555,5.645 0,3.92 1.5,5.695 1.5,1.78 3.92,1.78 1.94,0 3.24,-1.19 1.3,-1.19 1.645,-3.665 z m 4.835,-2.6 q 0,-5.4 3.005,-8 2.505,-2.16 6.115,-2.16 4.01,0 6.555,2.625 2.545,2.63 2.545,7.26 0,3.755 -1.125,5.905 -1.125,2.155 -3.28,3.345 -2.15,1.19 -4.695,1.19 -4.085,0 -6.6,-2.62 -2.52,-2.62 -2.52,-7.545 z m 3.39,0 q 0,3.735 1.63,5.595 1.63,1.86 4.1,1.86 2.455,0 4.085,-1.87 1.63,-1.865 1.63,-5.695 0,-3.605 -1.64,-5.465 -1.64,-1.86 -4.075,-1.86 -2.47,0 -4.1,1.85 -1.63,1.85 -1.63,5.585 z m 18.655,9.725 0,-19.445 2.97,0 0,2.945 q 1.135,-2.07 2.095,-2.725 0.96,-0.66 2.115,-0.66 1.665,0 3.39,1.06 l -1.135,3.06 q -1.21,-0.715 -2.42,-0.715 -1.08,0 -1.94,0.65 -0.86,0.65 -1.23,1.805 -0.545,1.755 -0.545,3.845 l 0,10.18 -3.3,0 z m 25.84,-6.265 3.405,0.42 q -0.805,2.99 -2.985,4.635 -2.18,1.65 -5.565,1.65 -4.27,0 -6.77,-2.63 -2.495,-2.625 -2.495,-7.37 0,-4.905 2.525,-7.615 2.525,-2.71 6.555,-2.71 3.9,0 6.37,2.655 2.475,2.655 2.475,7.47 0,0.29 -0.02,0.88 l -14.5,0 q 0.18,3.2 1.81,4.905 1.63,1.705 4.065,1.705 1.815,0 3.095,-0.955 1.285,-0.95 2.035,-3.04 z m -10.825,-5.325 10.86,0 q -0.22,-2.455 -1.245,-3.68 -1.575,-1.905 -4.085,-1.905 -2.27,0 -3.815,1.52 -1.55,1.52 -1.715,4.065 z"
     id="path19"
     inkscape:connector-curvature="0"
     style="font-size:0.75px;stroke:none;font-family:sans-serif" />
  <path
     d="m 109.332,486.805 7.105,-10.105 -6.575,-9.34 4.12,0 2.985,4.56 q 0.84,1.3 1.355,2.18 0.805,-1.21 1.485,-2.145 l 3.275,-4.595 3.935,0 -6.715,9.155 7.23,10.29 -4.045,0 -3.995,-6.04 -1.06,-1.63 -5.11,7.67 -3.99,0 z"
     id="path23"
     inkscape:connector-curvature="0"
     style="font-size:0.75px;fill:#0000b2;stroke:none;font-family:sans-serif" />
  <rect
     height="396.42001"
     width="137.425"
     x="699.96198"
     y="106.79"
     id="rect27"
     style="font-size:0.75000000000000000px;fill:#000000;stroke:#808080;stroke-width:2.50000000000000000;stroke-miterlimit:1;stroke-dasharray:10, 10;font-family:sans-serif;fill-opacity:0.19607843" />
  <path
     d="m 723.657,479.99 3.245,0.42 q -0.535,3.355 -2.72,5.25 -2.19,1.895 -5.375,1.895 -3.99,0 -6.42,-2.61 -2.425,-2.61 -2.425,-7.48 0,-3.15 1.045,-5.515 1.045,-2.36 3.175,-3.54 2.135,-1.18 4.645,-1.18 3.165,0 5.18,1.6 2.015,1.605 2.58,4.55 l -3.2,0.495 q -0.46,-1.96 -1.625,-2.95 -1.16,-0.985 -2.81,-0.985 -2.49,0 -4.045,1.785 -1.555,1.785 -1.555,5.645 0,3.92 1.5,5.695 1.5,1.78 3.92,1.78 1.94,0 3.24,-1.19 1.3,-1.19 1.645,-3.665 z"
     id="path29"
     inkscape:connector-curvature="0"
     style="font-size:0.75px;fill:#000000;stroke:none;font-family:sans-serif" />
  <path
     d="m 823.282,184.715 q -1.83,1.555 -3.52,2.2 -1.695,0.64 -3.635,0.64 -3.205,0 -4.925,-1.565 -1.725,-1.57 -1.725,-4.005 0,-1.425 0.65,-2.61 0.65,-1.18 1.705,-1.89 1.05,-0.715 2.37,-1.085 0.97,-0.255 2.93,-0.49 3.99,-0.48 5.88,-1.14 0.015,-0.675 0.015,-0.86 0,-2.015 -0.935,-2.835 -1.26,-1.12 -3.75,-1.12 -2.325,0 -3.435,0.815 -1.105,0.815 -1.64,2.885 l -3.22,-0.44 q 0.44,-2.07 1.445,-3.34 1.01,-1.275 2.91,-1.96 1.905,-0.685 4.415,-0.685 2.49,0 4.045,0.585 1.555,0.585 2.29,1.475 0.73,0.885 1.025,2.24 0.165,0.845 0.165,3.04 l 0,4.395 q 0,4.595 0.21,5.815 0.21,1.215 0.835,2.335 l -3.445,0 q -0.51,-1.025 -0.66,-2.4 z m -0.27,-7.36 q -1.795,0.73 -5.385,1.245 -2.035,0.295 -2.875,0.66 -0.845,0.365 -1.3,1.07 -0.46,0.705 -0.46,1.565 0,1.32 1,2.2 1,0.875 2.92,0.875 1.905,0 3.39,-0.83 1.48,-0.835 2.175,-2.28 0.535,-1.12 0.535,-3.295 l 0,-1.21 z"
     id="path33"
     inkscape:connector-curvature="0"
     style="font-size:0.75px;stroke:none;font-family:sans-serif" />
  <path
     d="m 747.162,129.99 3.245,0.42 q -0.535,3.355 -2.72,5.25 -2.19,1.895 -5.375,1.895 -3.99,0 -6.42,-2.61 -2.425,-2.61 -2.425,-7.48 0,-3.15 1.045,-5.515 1.045,-2.36 3.175,-3.54 2.135,-1.18 4.645,-1.18 3.165,0 5.18,1.6 2.015,1.605 2.58,4.55 l -3.2,0.495 q -0.46,-1.96 -1.625,-2.95 -1.16,-0.985 -2.81,-0.985 -2.49,0 -4.045,1.785 -1.555,1.785 -1.555,5.645 0,3.92 1.5,5.695 1.5,1.78 3.92,1.78 1.94,0 3.24,-1.19 1.3,-1.19 1.645,-3.665 z m 4.835,-2.6 q 0,-5.4 3.005,-8 2.505,-2.16 6.115,-2.16 4.01,0 6.555,2.625 2.545,2.63 2.545,7.26 0,3.755 -1.125,5.905 -1.125,2.155 -3.28,3.345 -2.15,1.19 -4.695,1.19 -4.085,0 -6.6,-2.62 -2.52,-2.62 -2.52,-7.545 z m 3.39,0 q 0,3.735 1.63,5.595 1.63,1.86 4.1,1.86 2.455,0 4.085,-1.87 1.63,-1.865 1.63,-5.695 0,-3.605 -1.64,-5.465 -1.64,-1.86 -4.075,-1.86 -2.47,0 -4.1,1.85 -1.63,1.85 -1.63,5.585 z m 18.655,9.725 0,-19.445 2.97,0 0,2.945 q 1.135,-2.07 2.095,-2.725 0.96,-0.66 2.115,-0.66 1.665,0 3.39,1.06 l -1.135,3.06 q -1.21,-0.715 -2.42,-0.715 -1.08,0 -1.94,0.65 -0.86,0.65 -1.23,1.805 -0.545,1.755 -0.545,3.845 l 0,10.18 -3.3,0 z m 25.84,-6.265 3.405,0.42 q -0.805,2.99 -2.985,4.635 -2.18,1.65 -5.565,1.65 -4.27,0 -6.77,-2.63 -2.495,-2.625 -2.495,-7.37 0,-4.905 2.525,-7.615 2.525,-2.71 6.555,-2.71 3.9,0 6.37,2.655 2.475,2.655 2.475,7.47 0,0.29 -0.02,0.88 l -14.5,0 q 0.18,3.2 1.81,4.905 1.63,1.705 4.065,1.705 1.815,0 3.095,-0.955 1.285,-0.95 2.035,-3.04 z m -10.825,-5.325 10.86,0 q -0.22,-2.455 -1.245,-3.68 -1.575,-1.905 -4.085,-1.905 -2.27,0 -3.815,1.52 -1.55,1.52 -1.715,4.065 z"
     id="path37"
     inkscape:connector-curvature="0"
     style="font-size:0.75px;stroke:none;font-family:sans-serif" />
  <path
     d="m 13.057,239.55 -3.055,0 0,-26.845 3.295,0 0,9.575 q 2.085,-2.615 5.325,-2.615 1.795,0 3.4,0.72 1.6,0.725 2.635,2.035 1.035,1.31 1.62,3.16 0.585,1.845 0.585,3.955 0,4.995 -2.47,7.725 -2.47,2.73 -5.935,2.73 -3.44,0 -5.4,-2.875 l 0,2.435 z m -0.035,-9.87 q 0,3.495 0.95,5.055 1.56,2.545 4.21,2.545 2.165,0 3.74,-1.88 1.575,-1.875 1.575,-5.59 0,-3.81 -1.515,-5.625 -1.51,-1.81 -3.65,-1.81 -2.16,0 -3.735,1.875 -1.575,1.875 -1.575,5.43 z"
     id="path41"
     inkscape:connector-curvature="0"
     style="font-size:0.75px;stroke:none;font-family:sans-serif" />
  <circle
     cx="0"
     cy="0"
     r="0.44999999"
     id="circle45"
     d="M 0.44999999,0 C 0.44999999,0.24852813 0.24852813,0.44999999 0,0.44999999 -0.24852813,0.44999999 -0.44999999,0.24852813 -0.44999999,0 c 0,-0.24852813 0.20147186,-0.44999999 0.44999999,-0.44999999 0.24852813,0 0.44999999,0.20147186 0.44999999,0.44999999 z"
     sodipodi:cx="0"
     sodipodi:cy="0"
     sodipodi:rx="0.44999999"
     sodipodi:ry="0.44999999"
     style="font-size:0.75px;fill:#ffffff;stroke:none;font-family:sans-serif"
     transform="matrix(50,0,0,50,168.432,30)" />
  <circle
     cx="0"
     cy="0"
     r="0.44999999"
     id="circle49"
     d="M 0.44999999,0 C 0.44999999,0.24852813 0.24852813,0.44999999 0,0.44999999 -0.24852813,0.44999999 -0.44999999,0.24852813 -0.44999999,0 c 0,-0.24852813 0.20147186,-0.44999999 0.44999999,-0.44999999 0.24852813,0 0.44999999,0.20147186 0.44999999,0.44999999 z"
     sodipodi:cx="0"
     sodipodi:cy="0"
     sodipodi:rx="0.44999999"
     sodipodi:ry="0.44999999"
     style="font-size:0.75px;fill:none;stroke-width:0.1;font-family:sans-serif"
     transform="matrix(50,0,0,50,168.432,30)" />
  <circle
     cx="0"
     cy="0"
     r="0.44999999"
     id="circle53"
     d="M 0.44999999,0 C 0.44999999,0.24852813 0.24852813,0.44999999 0,0.44999999 -0.24852813,0.44999999 -0.44999999,0.24852813 -0.44999999,0 c 0,-0.24852813 0.20147186,-0.44999999 0.44999999,-0.44999999 0.24852813,0 0.44999999,0.20147186 0.44999999,0.44999999 z"
     sodipodi:cx="0"
     sodipodi:cy="0"
     sodipodi:rx="0.44999999"
     sodipodi:ry="0.44999999"
     style="font-size:0.75px;fill:#ffffff;stroke:none;font-family:sans-serif"
     transform="matrix(50,0,0,50,168.432,330)" />
  <circle
     cx="0"
     cy="0"
     r="0.44999999"
     id="circle55"
     d="M 0.44999999,0 C 0.44999999,0.24852813 0.24852813,0.44999999 0,0.44999999 -0.24852813,0.44999999 -0.44999999,0.24852813 -0.44999999,0 c 0,-0.24852813 0.20147186,-0.44999999 0.44999999,-0.44999999 0.24852813,0 0.44999999,0.20147186 0.44999999,0.44999999 z"
     sodipodi:cx="0"
     sodipodi:cy="0"
     sodipodi:rx="0.44999999"
     sodipodi:ry="0.44999999"
     style="font-size:0.75px;fill:none;stroke:#ff6600;stroke-width:0.1;font-family:sans-serif"
     transform="matrix(50,0,0,50,168.432,330)" />
  <circle
     cx="0"
     cy="0"
     r="0.44999999"
     id="circle59"
     d="M 0.44999999,0 C 0.44999999,0.24852813 0.24852813,0.44999999 0,0.44999999 -0.24852813,0.44999999 -0.44999999,0.24852813 -0.44999999,0 c 0,-0.24852813 0.20147186,-0.44999999 0.44999999,-0.44999999 0.24852813,0 0.44999999,0.20147186 0.44999999,0.44999999 z"
     sodipodi:cx="0"
     sodipodi:cy="0"
     sodipodi:rx="0.44999999"
     sodipodi:ry="0.44999999"
     style="font-size:0.75px;fill:#ffffff;stroke:none;font-family:sans-serif"
     transform="matrix(50,0,0,50,768.432,330)" />
  <circle
     cx="0"
     cy="0"
     r="0.44999999"
     id="circle61"
     d="M 0.44999999,0 C 0.44999999,0.24852813 0.24852813,0.44999999 0,0.44999999 -0.24852813,0.44999999 -0.44999999,0.24852813 -0.44999999,0 c 0,-0.24852813 0.20147186,-0.44999999 0.44999999,-0.44999999 0.24852813,0 0.44999999,0.20147186 0.44999999,0.44999999 z"
     sodipodi:cx="0"
     sodipodi:cy="0"
     sodipodi:rx="0.44999999"
     sodipodi:ry="0.44999999"
     style="font-size:0.75px;fill:none;stroke:#ff6600;stroke-width:0.1;font-family:sans-serif"
     transform="matrix(50,0,0,50,768.432,330)" />
  <path
     d="m 613.057,239.55 -3.055,0 0,-26.845 3.295,0 0,9.575 q 2.085,-2.615 5.325,-2.615 1.795,0 3.4,0.72 1.6,0.725 2.635,2.035 1.035,1.31 1.62,3.16 0.585,1.845 0.585,3.955 0,4.995 -2.47,7.725 -2.47,2.73 -5.935,2.73 -3.44,0 -5.4,-2.875 l 0,2.435 z m -0.035,-9.87 q 0,3.495 0.95,5.055 1.56,2.545 4.21,2.545 2.165,0 3.74,-1.88 1.575,-1.875 1.575,-5.59 0,-3.81 -1.515,-5.625 -1.51,-1.81 -3.65,-1.81 -2.16,0 -3.735,1.875 -1.575,1.875 -1.575,5.43 z"
     id="path65"
     inkscape:connector-curvature="0"
     style="font-size:0.75px;stroke:none;font-family:sans-serif" />
  <circle
     cx="0"
     cy="0"
     r="0.44999999"
     id="circle69"
     d="M 0.44999999,0 C 0.44999999,0.24852813 0.24852813,0.44999999 0,0.44999999 -0.24852813,0.44999999 -0.44999999,0.24852813 -0.44999999,0 c 0,-0.24852813 0.20147186,-0.44999999 0.44999999,-0.44999999 0.24852813,0 0.44999999,0.20147186 0.44999999,0.44999999 z"
     sodipodi:cx="0"
     sodipodi:cy="0"
     sodipodi:rx="0.44999999"
     sodipodi:ry="0.44999999"
     style="font-size:0.75px;fill:#ffffff;stroke:none;font-family:sans-serif"
     transform="matrix(50,0,0,50,768.432,30)" />
  <circle
     cx="0"
     cy="0"
     r="0.44999999"
     id="circle71"
     d="M 0.44999999,0 C 0.44999999,0.24852813 0.24852813,0.44999999 0,0.44999999 -0.24852813,0.44999999 -0.44999999,0.24852813 -0.44999999,0 c 0,-0.24852813 0.20147186,-0.44999999 0.44999999,-0.44999999 0.24852813,0 0.44999999,0.20147186 0.44999999,0.44999999 z"
     sodipodi:cx="0"
     sodipodi:cy="0"
     sodipodi:rx="0.44999999"
     sodipodi:ry="0.44999999"
     style="font-size:0.75px;fill:none;stroke:#000000;stroke-width:0.1;font-family:sans-serif"
     transform="matrix(50,0,0,50,768.432,30)" />
  <path
     d="m 909.332,336.805 7.105,-10.105 -6.575,-9.34 4.12,0 2.985,4.56 q 0.84,1.3 1.355,2.18 0.805,-1.21 1.485,-2.145 l 3.275,-4.595 3.935,0 -6.715,9.155 7.23,10.29 -4.045,0 -3.995,-6.04 -1.06,-1.63 -5.11,7.67 -3.99,0 z"
     id="path75"
     inkscape:connector-curvature="0"
     style="font-size:0.75px;fill:#0000b2;stroke:none;font-family:sans-serif" />
  <path
     d="m 230.572,198.21 64.625,96.94"
     id="path79"
     inkscape:connector-curvature="0"
     style="font-size:0.75px;fill:none;stroke-width:1;font-family:sans-serif" />
  <path
     d="m 298.317,293.07 -6.24,4.16 14.215,14.56 z"
     id="path81"
     inkscape:connector-curvature="0"
     style="font-size:0.75px;stroke:none;font-family:sans-serif" />
  <path
     d="M 147.632,43.865 18.432,130 l 0,57.265"
     id="path85"
     inkscape:connector-curvature="0"
     style="font-size:0.75px;fill:none;stroke-width:1;font-family:sans-serif" />
  <path
     d="m 22.182,187.265 -7.5,0 3.75,20 z"
     id="path87"
     inkscape:connector-curvature="0"
     style="font-size:0.75px;stroke:none;font-family:sans-serif" />
  <path
     d="m 189.232,43.865 129.2,86.135 0,161.79"
     id="path91"
     inkscape:connector-curvature="0"
     style="font-size:0.75px;fill:none;stroke-width:1;font-family:sans-serif" />
  <path
     d="m 322.182,291.79 -7.5,0 3.75,20 z"
     id="path93"
     inkscape:connector-curvature="0"
     style="font-size:0.75px;stroke:none;font-family:sans-serif" />
  <path
     d="m 304.962,330 -91.53,0"
     id="path97"
     inkscape:connector-curvature="0"
     style="font-size:0.75px;fill:none;stroke:#ff6600;stroke-width:5;font-family:sans-serif" />
  <path
     d="m 213.432,337.5 0,-15 -20,7.5 z"
     id="path99"
     inkscape:connector-curvature="0"
     style="font-size:0.75px;fill:#ff6600;stroke:none;font-family:sans-serif" />
  <path
     d="m 31.862,238.955 99.13,66.085"
     id="path103"
     inkscape:connector-curvature="0"
     style="font-size:0.75px;fill:none;stroke:#ff6600;stroke-width:5;font-family:sans-serif" />
  <path
     d="m 135.152,298.8 -8.32,12.48 20.8,4.855 z"
     id="path105"
     inkscape:connector-curvature="0"
     style="font-size:0.75px;fill:#ff6600;stroke:none;font-family:sans-serif" />
  <path
     d="m 747.632,43.865 -129.2,86.135 0,57.265"
     id="path109"
     inkscape:connector-curvature="0"
     style="font-size:0.75px;fill:none;stroke-width:1;font-family:sans-serif" />
  <path
     d="m 622.182,187.265 -7.5,0 3.75,20 z"
     id="path111"
     inkscape:connector-curvature="0"
     style="font-size:0.75px;stroke:none;font-family:sans-serif" />
  <path
     d="m 631.862,238.955 99.13,66.085"
     id="path115"
     inkscape:connector-curvature="0"
     style="font-size:0.75px;fill:none;stroke:#ff6600;stroke-width:5;font-family:sans-serif" />
  <path
     d="m 735.152,298.8 -8.32,12.48 20.8,4.855 z"
     id="path117"
     inkscape:connector-curvature="0"
     style="font-size:0.75px;fill:#ff6600;stroke:none;font-family:sans-serif" />
  <path
     d="m 812.362,198.21 -29.7,89.1"
     id="path121"
     inkscape:connector-curvature="0"
     style="font-size:0.75px;fill:none;stroke:#ff6600;stroke-width:5;font-family:sans-serif" />
  <path
     d="m 789.777,289.68 -14.23,-4.74 0.79,21.345 z"
     id="path123"
     inkscape:connector-curvature="0"
     style="font-size:0.75px;fill:#ff6600;stroke:none;font-family:sans-serif" />
  <path
     d="m 160.527,353.715 -29.89,89.67"
     id="path127"
     inkscape:connector-curvature="0"
     style="font-size:0.75px;fill:none;stroke:#ff6600;stroke-width:5;font-family:sans-serif" />
  <path
     d="m 137.752,445.76 -14.23,-4.745 0.79,21.345 z"
     id="path129"
     inkscape:connector-curvature="0"
     style="font-size:0.75px;fill:#ff6600;stroke:none;font-family:sans-serif" />
  <path
     d="m 793.432,330 90.9,0"
     id="path133"
     inkscape:connector-curvature="0"
     style="font-size:0.75px;fill:none;stroke:#ff6600;stroke-width:5;font-family:sans-serif" />
  <path
     d="m 884.332,322.5 0,15 20,-7.5 z"
     id="path135"
     inkscape:connector-curvature="0"
     style="font-size:0.75px;fill:#ff6600;stroke:none;font-family:sans-serif" />
  <path
     d="M 904.332,340.575 747.902,457.9"
     id="path139"
     inkscape:connector-curvature="0"
     style="font-size:0.75px;fill:none;stroke-width:1;font-family:sans-serif" />
  <path
     d="m 750.152,460.9 -4.5,-6 -13.75,15 z"
     id="path141"
     inkscape:connector-curvature="0"
     style="font-size:0.75px;stroke:none;font-family:sans-serif" />
  <path
     d="m 786.112,47.68 32.32,32.32 0,61.79"
     id="path145"
     inkscape:connector-curvature="0"
     style="font-size:0.75px;fill:none;stroke-width:1;font-family:sans-serif" />
  <path
     d="m 822.182,141.79 -7.5,0 3.75,20 z"
     id="path147"
     inkscape:connector-curvature="0"
     style="font-size:0.75px;stroke:none;font-family:sans-serif" />
</svg>
