<?xml version="1.0" encoding="UTF-8" standalone="no"?>
<svg xmlns:dc="http://purl.org/dc/elements/1.1/" xmlns:cc="http://creativecommons.org/ns#" xmlns:rdf="http://www.w3.org/1999/02/22-rdf-syntax-ns#" xmlns:svg="http://www.w3.org/2000/svg" xmlns="http://www.w3.org/2000/svg" xmlns:sodipodi="http://sodipodi.sourceforge.net/DTD/sodipodi-0.dtd" xmlns:inkscape="http://www.inkscape.org/namespaces/inkscape" color-interpolation="auto" color-rendering="auto" fill="black" fill-opacity="1" font-family="'Dialog'" font-size="12" font-style="normal" font-weight="normal" height="100%" image-rendering="auto" shape-rendering="auto" stroke="black" stroke-dasharray="none" stroke-dashoffset="0" stroke-linecap="square" stroke-linejoin="miter" stroke-miterlimit="10" stroke-opacity="1" stroke-width="1" text-rendering="auto" width="100%" id="svg2" version="1.1" inkscape:version="0.48.4 r9939" sodipodi:docname="stg-vme-read-RTA.svg" viewBox="0 0 1160 292" preserveAspectRatio="xMidYMid slice">
  <sodipodi:namedview
     pagecolor="#ffffff"
     bordercolor="#666666"
     borderopacity="1"
     objecttolerance="10"
     gridtolerance="10"
     guidetolerance="10"
     inkscape:pageopacity="0"
     inkscape:pageshadow="2"
     inkscape:window-width="1858"
     inkscape:window-height="1058"
     id="namedview121"
     showgrid="true"
     inkscape:zoom="1.2655172"
     inkscape:cx="563.32885"
     inkscape:cy="114.39237"
     inkscape:window-x="54"
     inkscape:window-y="-8"
     inkscape:window-maximized="1"
     inkscape:current-layer="layer1">
    <inkscape:grid
       id="grid4557"
       type="xygrid" />
  </sodipodi:namedview>
  <metadata
     id="metadata123">
    <rdf:RDF>
      <cc:Work
         rdf:about="">
        <dc:format>image/svg+xml</dc:format>
        <dc:type
           rdf:resource="http://purl.org/dc/dcmitype/StillImage" />
      </cc:Work>
    </rdf:RDF>
  </metadata>
  <!--Generated by the Batik Graphics2D SVG Generator-->
  <defs
     id="genericDefs">
    <marker
       style="overflow:visible;"
       id="Arrow1Mend"
       refX="0.0"
       refY="0.0"
       orient="auto"
       inkscape:stockid="Arrow1Mend">
      <path
         transform="scale(0.4) rotate(180) translate(10,0)"
         style="fill-rule:evenodd;stroke:#000000;stroke-width:1.0pt;"
         d="M 0.0,0.0 L 5.0,-5.0 L -12.5,0.0 L 5.0,5.0 L 0.0,0.0 z "
         id="path3940" />
    </marker>
    <marker
       style="overflow:visible;"
       id="Arrow1Lend"
       refX="0.0"
       refY="0.0"
       orient="auto"
       inkscape:stockid="Arrow1Lend">
      <path
         transform="scale(0.8) rotate(180) translate(12.5,0)"
         style="fill-rule:evenodd;stroke:#000000;stroke-width:1.0pt;"
         d="M 0.0,0.0 L 5.0,-5.0 L -12.5,0.0 L 5.0,5.0 L 0.0,0.0 z "
         id="path3934" />
    </marker>
    <marker
       style="overflow:visible;"
       id="Arrow1Mendt"
       refX="0.0"
       refY="0.0"
       orient="auto"
       inkscape:stockid="Arrow1Mendt">
      <path
         transform="scale(0.4) rotate(180) translate(10,0)"
         style="stroke:#ff0000;stroke-width:1.0pt;fill:#ff0000;fill-rule:evenodd"
         d="M 0.0,0.0 L 5.0,-5.0 L -12.5,0.0 L 5.0,5.0 L 0.0,0.0 z "
         id="path5210" />
    </marker>
  </defs>
  <g
     inkscape:label="background"
     id="layer1"
     inkscape:groupmode="layer">
    <path
       sodipodi:nodetypes="ccccccc"
       inkscape:connector-curvature="0"
       id="path4559"
       d="m 152.0981,1.9999955 0,160.0000045 570,0 L 820,62 l 222.098,0 0,-60.0000045 z"
       style="fill:#c29e00;fill-opacity:0.58823529;stroke:#000000;stroke-width:1px;stroke-linecap:butt;stroke-linejoin:miter;stroke-opacity:1" />
  </g>
  <g
     inkscape:label="main"
     id="layer2"
     inkscape:groupmode="layer" />
  <g
     font-size="0.75"
     transform="matrix(50,0,0,50,967.6874,27.7338)"
     id="g7"
     style="font-size:0.75000000000000000px;fill:#b20000;stroke:#b20000;font-family:sans-serif">
    <path
       d="m -0.4301,0.191 0,-0.0491 q -0.037,0.0579 -0.1088,0.0579 -0.0465,0 -0.0855,-0.0257 -0.039,-0.0256 -0.0604,-0.0716 -0.0214,-0.0459 -0.0214,-0.1056 0,-0.0582 0.0194,-0.1057 0.0194,-0.0474 0.0582,-0.0727 0.0388,-0.0252 0.0868,-0.0252 0.0351,0 0.0626,0.0148 0.0275,0.0148 0.0447,0.0386 l 0,-0.1926 0.0655,0 0,0.5369 -0.0611,0 z m -0.2084,-0.1941 q 0,0.0747 0.0315,0.1117 0.0315,0.037 0.0743,0.037 0.0433,0 0.0735,-0.0354 0.0302,-0.0353 0.0302,-0.1078 0,-0.0799 -0.0308,-0.1172 -0.0307,-0.0374 -0.0758,-0.0374 -0.0439,0 -0.0734,0.0359 -0.0295,0.0359 -0.0295,0.1132 z m 0.3468,0.078 0.0652,-0.0103 q 0.0055,0.0392 0.0306,0.0601 0.0251,0.0209 0.0701,0.0209 0.0454,0 0.0674,-0.0185 0.022,-0.0185 0.022,-0.0434 0,-0.0224 -0.0195,-0.0352 -0.0135,-0.0088 -0.0673,-0.0223 -0.0725,-0.0183 -0.1006,-0.0317 -0.028,-0.0134 -0.0424,-0.037 -0.0145,-0.0236 -0.0145,-0.0522 0,-0.026 0.0119,-0.0481 0.0119,-0.0222 0.0324,-0.0368 0.0154,-0.0114 0.0419,-0.0192 0.0266,-0.0079 0.057,-0.0079 0.0458,0 0.0804,0.0132 0.0346,0.0131 0.0511,0.0357 0.0164,0.0225 0.0227,0.0602 l -0.0645,0.0088 q -0.0044,-0.03 -0.0254,-0.0469 -0.0211,-0.0168 -0.0596,-0.0168 -0.0454,0 -0.0648,0.015 -0.0194,0.015 -0.0194,0.0352 0,0.0128 0.0081,0.023 0.008,0.0106 0.0253,0.0176 0.0098,0.0036 0.0582,0.0168 0.0699,0.0187 0.0976,0.0306 0.0276,0.0119 0.0434,0.0346 0.0157,0.0227 0.0157,0.0564 0,0.033 -0.0192,0.0621 -0.0192,0.0291 -0.0555,0.045 -0.0362,0.016 -0.082,0.016 -0.0758,0 -0.1156,-0.0315 -0.0397,-0.0315 -0.0507,-0.0934 z m 0.4006,0.1161 0,-0.3889 0.0594,0 0,0.0589 q 0.0227,-0.0414 0.0419,-0.0545 0.0192,-0.0132 0.0423,-0.0132 0.0333,0 0.0678,0.0212 l -0.0227,0.0612 q -0.0242,-0.0143 -0.0484,-0.0143 -0.0216,0 -0.0388,0.013 -0.0172,0.013 -0.0245,0.0361 -0.011,0.0351 -0.011,0.0769 l 0,0.2036 -0.066,0 z m 0.389,-0.0868 0,-0.1472 -0.1462,0 0,-0.0616 0.1462,0 0,-0.1461 0.0622,0 0,0.1461 0.1461,0 0,0.0616 -0.1461,0 0,0.1472 -0.0622,0 z"
       id="path9"
       inkscape:connector-curvature="0"
       style="stroke:none" />
  </g>
  <g
     font-size="0.75"
     transform="matrix(50,0,0,50,1117.6874,127.7338)"
     id="g11"
     style="font-size:0.75000000000000000px;fill:#0000b2;stroke:#0000b2;font-family:sans-serif">
    <path
       d="m -0.6535,0.191 0,-0.5369 0.0659,0 0,0.5369 -0.0659,0 z m 0.4204,0 0,-0.0491 q -0.037,0.0579 -0.1087,0.0579 -0.0466,0 -0.0856,-0.0257 -0.039,-0.0256 -0.0604,-0.0716 -0.0214,-0.0459 -0.0214,-0.1056 0,-0.0582 0.0194,-0.1057 0.0194,-0.0474 0.0582,-0.0727 0.0388,-0.0252 0.0868,-0.0252 0.0352,0 0.0626,0.0148 0.0275,0.0148 0.0447,0.0386 l 0,-0.1926 0.0656,0 0,0.5369 -0.0612,0 z m -0.2084,-0.1941 q 0,0.0747 0.0315,0.1117 0.0315,0.037 0.0744,0.037 0.0432,0 0.0734,-0.0354 0.0302,-0.0353 0.0302,-0.1078 0,-0.0799 -0.0308,-0.1172 -0.0307,-0.0374 -0.0757,-0.0374 -0.044,0 -0.0735,0.0359 -0.0295,0.0359 -0.0295,0.1132 z m 0.3468,0.078 0.0652,-0.0103 q 0.0055,0.0392 0.0306,0.0601 0.0251,0.0209 0.0701,0.0209 0.0454,0 0.0674,-0.0185 0.022,-0.0185 0.022,-0.0434 0,-0.0224 -0.0194,-0.0352 Q 0.1276,0.0397 0.0738,0.0262 0.0013,0.0079 -0.0267,-0.0055 q -0.028,-0.0134 -0.0425,-0.037 -0.0145,-0.0236 -0.0145,-0.0522 0,-0.026 0.0119,-0.0481 0.0119,-0.0222 0.0324,-0.0368 0.0154,-0.0114 0.042,-0.0192 0.0265,-0.0079 0.0569,-0.0079 0.0458,0 0.0804,0.0132 0.0346,0.0131 0.0511,0.0357 0.0165,0.0225 0.0227,0.0602 l -0.0645,0.0088 q -0.0044,-0.03 -0.0254,-0.0469 -0.0211,-0.0168 -0.0595,-0.0168 -0.0454,0 -0.0648,0.015 -0.0195,0.015 -0.0195,0.0352 0,0.0128 0.0081,0.023 0.0081,0.0106 0.0253,0.0176 0.0099,0.0036 0.0582,0.0168 0.0699,0.0187 0.0976,0.0306 0.0276,0.0119 0.0434,0.0346 0.0157,0.0227 0.0157,0.0564 0,0.033 -0.0192,0.0621 -0.0192,0.0291 -0.0555,0.045 -0.0362,0.016 -0.082,0.016 -0.0758,0 -0.1155,-0.0315 -0.0398,-0.0315 -0.0508,-0.0934 z m 0.5398,0.0293 0,-0.1472 -0.1461,0 0,-0.0616 0.1461,0 0,-0.1461 0.0623,0 0,0.1461 0.1461,0 0,0.0616 -0.1461,0 0,0.1472 -0.0623,0 z"
       id="path13"
       inkscape:connector-curvature="0"
       style="stroke:none" />
  </g>
  <g
     font-size="0.75"
     transform="matrix(50,0,0,50,67.6874,127.7338)"
     id="g15"
     style="font-size:0.75000000000000000px;fill:#b20000;stroke:#b20000;font-family:sans-serif">
    <path
       d="m -1.1537,0.191 0,-0.5369 0.0659,0 0,0.5369 -0.0659,0 z m 0.4204,0 0,-0.0491 q -0.037,0.0579 -0.1088,0.0579 -0.0465,0 -0.0855,-0.0257 -0.039,-0.0256 -0.0604,-0.0716 -0.0214,-0.0459 -0.0214,-0.1056 0,-0.0582 0.0194,-0.1057 0.0194,-0.0474 0.0582,-0.0727 0.0388,-0.0252 0.0868,-0.0252 0.0351,0 0.0626,0.0148 0.0275,0.0148 0.0447,0.0386 l 0,-0.1926 0.0655,0 0,0.5369 -0.0611,0 z m -0.2084,-0.1941 q 0,0.0747 0.0315,0.1117 0.0315,0.037 0.0743,0.037 0.0432,0 0.0735,-0.0354 0.0302,-0.0353 0.0302,-0.1078 0,-0.0799 -0.0308,-0.1172 -0.0308,-0.0374 -0.0758,-0.0374 -0.0439,0 -0.0734,0.0359 -0.0295,0.0359 -0.0295,0.1132 z m 0.5171,0.1351 0.0095,0.0582 q -0.0278,0.0059 -0.0498,0.0059 -0.0359,0 -0.0557,-0.0113 -0.0197,-0.0114 -0.0278,-0.0299 -0.008,-0.0185 -0.008,-0.0778 l 0,-0.2238 -0.0484,0 0,-0.0512 0.0484,0 0,-0.0964 0.0655,-0.0395 0,0.1359 0.0663,0 0,0.0512 -0.0663,0 0,0.2274 q 0,0.0282 0.0035,0.0363 0.0035,0.0081 0.0113,0.0128 0.0079,0.0048 0.0225,0.0048 0.011,0 0.029,-0.0026 z m 0.3182,0.011 q -0.0366,0.0311 -0.0705,0.044 -0.0338,0.0128 -0.0727,0.0128 -0.064,0 -0.0985,-0.0313 -0.0344,-0.0313 -0.0344,-0.0801 0,-0.0285 0.013,-0.0521 0.013,-0.0237 0.0341,-0.0379 0.021,-0.0143 0.0474,-0.0217 0.0194,-0.0051 0.0586,-0.0098 0.0798,-0.0096 0.1175,-0.0227 4e-4,-0.0136 4e-4,-0.0173 0,-0.0402 -0.0187,-0.0567 -0.0252,-0.0224 -0.0751,-0.0224 -0.0465,0 -0.0686,0.0163 -0.0222,0.0163 -0.0328,0.0577 L -0.3711,-0.087 q 0.0087,-0.0414 0.0289,-0.0668 0.0201,-0.0255 0.0582,-0.0392 0.0381,-0.0137 0.0883,-0.0137 0.0498,0 0.0809,0.0117 0.0311,0.0117 0.0458,0.0295 0.0146,0.0177 0.0205,0.0448 0.0033,0.0169 0.0033,0.0608 l 0,0.0879 q 0,0.0919 0.0042,0.1163 0.0042,0.0243 0.0166,0.0467 l -0.0688,0 Q -0.1034,0.1705 -0.1064,0.143 z m -0.0055,-0.1472 q -0.0359,0.0146 -0.1076,0.0249 -0.0407,0.0059 -0.0575,0.0132 -0.0169,0.0073 -0.026,0.0214 -0.0092,0.0141 -0.0092,0.0313 0,0.0264 0.02,0.044 0.0199,0.0175 0.0584,0.0175 0.0381,0 0.0677,-0.0166 0.0297,-0.0167 0.0436,-0.0456 0.0106,-0.0224 0.0106,-0.0659 l 0,-0.0242 z M 0.3107,0.0485 0.3756,0.0569 Q 0.3649,0.124 0.3212,0.1619 0.2774,0.1998 0.2137,0.1998 0.1339,0.1998 0.0853,0.1476 0.0368,0.0954 0.0368,-0.002 q 0,-0.063 0.0209,-0.1102 0.0209,-0.0473 0.0635,-0.0709 0.0427,-0.0236 0.0929,-0.0236 0.0633,0 0.1036,0.032 0.0403,0.0321 0.0516,0.091 L 0.3052,-0.0738 Q 0.2961,-0.113 0.2728,-0.1327 0.2496,-0.1525 0.2166,-0.1525 q -0.0498,0 -0.0809,0.0357 -0.0311,0.0357 -0.0311,0.113 0,0.0783 0.03,0.1139 0.03,0.0355 0.0784,0.0355 0.0388,0 0.0648,-0.0238 0.026,-0.0238 0.0329,-0.0733 z m 0.1216,0.1425 0,-0.5369 0.0659,0 0,0.3062 0.156,-0.1582 0.0854,0 -0.1487,0.1443 0.1637,0.2446 -0.0813,0 -0.1286,-0.1989 -0.0465,0.0447 0,0.1542 -0.0659,0 z m 0.5131,-0.0868 0,-0.1472 -0.1461,0 0,-0.0616 0.1461,0 0,-0.1461 0.0622,0 0,0.1461 0.1461,0 0,0.0616 -0.1461,0 0,0.1472 -0.0622,0 z"
       id="path17"
       inkscape:connector-curvature="0"
       style="stroke:none" />
  </g>
  <g
     font-size="0.75"
     transform="matrix(50,0,0,50,517.6874,127.7338)"
     id="g19"
     style="font-size:0.75000000000000000px;fill:#b20000;stroke:#b20000;font-family:sans-serif">
    <path
       d="m -0.3451,0.191 0,-0.0491 q -0.037,0.0579 -0.1088,0.0579 -0.0465,0 -0.0855,-0.0257 -0.039,-0.0256 -0.0604,-0.0716 -0.0215,-0.0459 -0.0215,-0.1056 0,-0.0582 0.0194,-0.1057 0.0194,-0.0474 0.0583,-0.0727 0.0388,-0.0252 0.0868,-0.0252 0.0351,0 0.0626,0.0148 0.0274,0.0148 0.0446,0.0386 l 0,-0.1926 0.0656,0 0,0.5369 -0.0611,0 z m -0.2084,-0.1941 q 0,0.0747 0.0315,0.1117 0.0315,0.037 0.0743,0.037 0.0432,0 0.0734,-0.0354 0.0302,-0.0353 0.0302,-0.1078 0,-0.0799 -0.0307,-0.1172 -0.0308,-0.0374 -0.0758,-0.0374 -0.044,0 -0.0734,0.0359 -0.0295,0.0359 -0.0295,0.1132 z m 0.3468,0.078 0.0652,-0.0103 q 0.0055,0.0392 0.0305,0.0601 0.0251,0.0209 0.0702,0.0209 0.0454,0 0.0674,-0.0185 0.0219,-0.0185 0.0219,-0.0434 0,-0.0224 -0.0194,-0.0352 -0.0135,-0.0088 -0.0674,-0.0223 -0.0725,-0.0183 -0.1005,-0.0317 -0.028,-0.0134 -0.0425,-0.037 -0.0144,-0.0236 -0.0144,-0.0522 0,-0.026 0.0119,-0.0481 0.0119,-0.0222 0.0324,-0.0368 0.0154,-0.0114 0.0419,-0.0192 0.0265,-0.0079 0.057,-0.0079 0.0457,0 0.0803,0.0132 0.0346,0.0131 0.0511,0.0357 0.0165,0.0225 0.0227,0.0602 l -0.0644,0.0088 q -0.0044,-0.03 -0.0255,-0.0469 -0.021,-0.0168 -0.0595,-0.0168 -0.0454,0 -0.0648,0.015 -0.0194,0.015 -0.0194,0.0352 0,0.0128 0.008,0.023 0.0081,0.0106 0.0253,0.0176 0.0099,0.0036 0.0582,0.0168 0.07,0.0187 0.0976,0.0306 0.0277,0.0119 0.0434,0.0346 0.0158,0.0227 0.0158,0.0564 0,0.033 -0.0193,0.0621 -0.0192,0.0291 -0.0554,0.045 -0.0363,0.016 -0.0821,0.016 -0.0758,0 -0.1155,-0.0315 -0.0397,-0.0315 -0.0507,-0.0934 z m 0.4006,0.1161 0,-0.3889 0.0593,0 0,0.0589 q 0.0227,-0.0414 0.042,-0.0545 0.0192,-0.0132 0.0423,-0.0132 0.0333,0 0.0677,0.0212 l -0.0227,0.0612 q -0.0242,-0.0143 -0.0483,-0.0143 -0.0216,0 -0.0388,0.013 -0.0173,0.013 -0.0246,0.0361 -0.011,0.0351 -0.011,0.0769 l 0,0.2036 -0.0659,0 z m 0.2249,-0.1612 0,-0.0662 0.2025,0 0,0.0662 -0.2025,0 z"
       id="path21"
       inkscape:connector-curvature="0"
       style="stroke:none" />
  </g>
  <g
     font-size="0.75"
     transform="matrix(50,0,0,50,367.6874,127.7338)"
     id="g23"
     style="font-size:0.75000000000000000px;fill:#0000b2;stroke:#0000b2;font-family:sans-serif">
    <path
       d="m -0.8055,0.191 0,-0.0491 q -0.037,0.0579 -0.1087,0.0579 -0.0466,0 -0.0856,-0.0257 -0.039,-0.0256 -0.0604,-0.0716 -0.0214,-0.0459 -0.0214,-0.1056 0,-0.0582 0.0194,-0.1057 0.0194,-0.0474 0.0582,-0.0727 0.0389,-0.0252 0.0868,-0.0252 0.0352,0 0.0626,0.0148 0.0275,0.0148 0.0447,0.0386 l 0,-0.1926 0.0656,0 0,0.5369 -0.0612,0 z m -0.2083,-0.1941 q 0,0.0747 0.0314,0.1117 0.0315,0.037 0.0744,0.037 0.0432,0 0.0734,-0.0354 0.0302,-0.0353 0.0302,-0.1078 0,-0.0799 -0.0307,-0.1172 -0.0308,-0.0374 -0.0758,-0.0374 -0.044,0 -0.0735,0.0359 -0.0294,0.0359 -0.0294,0.1132 z m 0.517,0.1351 0.0096,0.0582 q -0.0279,0.0059 -0.0498,0.0059 -0.0359,0 -0.0557,-0.0113 Q -0.6125,0.1734 -0.6205,0.1549 -0.6286,0.1364 -0.6286,0.0771 l 0,-0.2238 -0.0483,0 0,-0.0512 0.0483,0 0,-0.0964 0.0656,-0.0395 0,0.1359 0.0662,0 0,0.0512 -0.0662,0 0,0.2274 q 0,0.0282 0.0034,0.0363 0.0035,0.0081 0.0114,0.0128 0.0079,0.0048 0.0225,0.0048 0.011,0 0.0289,-0.0026 z m 0.3183,0.011 q -0.0366,0.0311 -0.0705,0.044 -0.0339,0.0128 -0.0727,0.0128 -0.0641,0 -0.0985,-0.0313 -0.0345,-0.0313 -0.0345,-0.0801 0,-0.0285 0.013,-0.0521 0.013,-0.0237 0.0341,-0.0379 0.0211,-0.0143 0.0474,-0.0217 0.0194,-0.0051 0.0586,-0.0098 0.0799,-0.0096 0.1176,-0.0227 3e-4,-0.0136 3e-4,-0.0173 0,-0.0402 -0.0186,-0.0567 -0.0253,-0.0224 -0.0751,-0.0224 -0.0465,0 -0.0687,0.0163 -0.0221,0.0163 -0.0327,0.0577 L -0.4433,-0.087 q 0.0088,-0.0414 0.0289,-0.0668 0.0202,-0.0255 0.0583,-0.0392 0.0381,-0.0137 0.0882,-0.0137 0.0498,0 0.0809,0.0117 0.0312,0.0117 0.0458,0.0295 0.0147,0.0177 0.0205,0.0448 0.0033,0.0169 0.0033,0.0608 l 0,0.0879 q 0,0.0919 0.0042,0.1163 0.0042,0.0243 0.0167,0.0467 l -0.0688,0 Q -0.1756,0.1705 -0.1785,0.143 z M -0.184,-0.0042 q -0.0359,0.0146 -0.1077,0.0249 -0.0406,0.0059 -0.0575,0.0132 -0.0168,0.0073 -0.026,0.0214 -0.0091,0.0141 -0.0091,0.0313 0,0.0264 0.0199,0.044 0.02,0.0175 0.0584,0.0175 0.0381,0 0.0678,-0.0166 Q -0.2086,0.1148 -0.1946,0.0859 -0.184,0.0635 -0.184,0.02 l 0,-0.0242 z M 0.2386,0.0485 0.3034,0.0569 Q 0.2928,0.124 0.249,0.1619 0.2053,0.1998 0.1415,0.1998 q -0.0798,0 -0.1283,-0.0522 -0.0485,-0.0522 -0.0485,-0.1496 0,-0.063 0.0208,-0.1102 0.0209,-0.0473 0.0636,-0.0709 0.0426,-0.0236 0.0928,-0.0236 0.0634,0 0.1036,0.032 0.0403,0.0321 0.0517,0.091 L 0.2331,-0.0738 Q 0.2239,-0.113 0.2007,-0.1327 0.1774,-0.1525 0.1445,-0.1525 q -0.0498,0 -0.081,0.0357 -0.0311,0.0357 -0.0311,0.113 0,0.0783 0.03,0.1139 0.0301,0.0355 0.0784,0.0355 0.0388,0 0.0648,-0.0238 0.026,-0.0238 0.033,-0.0733 z m 0.1216,0.1425 0,-0.5369 0.0659,0 0,0.3062 0.156,-0.1582 0.0853,0 -0.1487,0.1443 0.1637,0.2446 -0.0813,0 -0.1285,-0.1989 -0.0465,0.0447 0,0.1542 -0.0659,0 z m 0.513,-0.0868 0,-0.1472 -0.1461,0 0,-0.0616 0.1461,0 0,-0.1461 0.0623,0 0,0.1461 0.1461,0 0,0.0616 -0.1461,0 0,0.1472 -0.0623,0 z"
       id="path25"
       inkscape:connector-curvature="0"
       style="stroke:none" />
  </g>
  <g
     font-size="0.75"
     transform="matrix(50,0,0,50,667.6874,127.7338)"
     id="g27"
     style="font-size:0.75000000000000000px;fill:#0000b2;stroke:#0000b2;font-family:sans-serif">
    <path
       d="m -0.0328,0.191 0,-0.0491 q -0.037,0.0579 -0.1087,0.0579 -0.0465,0 -0.0855,-0.0257 -0.039,-0.0256 -0.0605,-0.0716 -0.0214,-0.0459 -0.0214,-0.1056 0,-0.0582 0.0194,-0.1057 0.0194,-0.0474 0.0582,-0.0727 0.0389,-0.0252 0.0868,-0.0252 0.0352,0 0.0627,0.0148 0.0274,0.0148 0.0446,0.0386 l 0,-0.1926 0.0656,0 0,0.5369 -0.0612,0 z m -0.2083,-0.1941 q 0,0.0747 0.0314,0.1117 0.0315,0.037 0.0744,0.037 0.0432,0 0.0734,-0.0354 0.0302,-0.0353 0.0302,-0.1078 0,-0.0799 -0.0307,-0.1172 -0.0308,-0.0374 -0.0758,-0.0374 -0.044,0 -0.0735,0.0359 -0.0294,0.0359 -0.0294,0.1132 z m 0.3475,0.0329 0,-0.0662 0.2025,0 0,0.0662 -0.2025,0 z"
       id="path29"
       inkscape:connector-curvature="0"
       style="stroke:none" />
  </g>
  <g
     font-size="0.75"
     transform="matrix(50,0,0,50,967.6874,227.7338)"
     id="g31"
     style="font-size:0.75000000000000000px;fill:#b20000;stroke:#b20000;font-family:sans-serif">
    <path
       d="m -1.0688,0.191 0,-0.5369 0.0659,0 0,0.5369 -0.0659,0 z m 0.4204,0 0,-0.0491 q -0.037,0.0579 -0.1087,0.0579 -0.0465,0 -0.0855,-0.0257 -0.039,-0.0256 -0.0605,-0.0716 -0.0214,-0.0459 -0.0214,-0.1056 0,-0.0582 0.0194,-0.1057 0.0194,-0.0474 0.0582,-0.0727 0.0389,-0.0252 0.0868,-0.0252 0.0352,0 0.0627,0.0148 0.0274,0.0148 0.0446,0.0386 l 0,-0.1926 0.0656,0 0,0.5369 -0.0612,0 z m -0.2083,-0.1941 q 0,0.0747 0.0315,0.1117 0.0314,0.037 0.0743,0.037 0.0432,0 0.0734,-0.0354 0.0302,-0.0353 0.0302,-0.1078 0,-0.0799 -0.0307,-0.1172 -0.0308,-0.0374 -0.0758,-0.0374 -0.044,0 -0.0735,0.0359 -0.0294,0.0359 -0.0294,0.1132 z m 0.517,0.1351 0.0096,0.0582 q -0.0279,0.0059 -0.0498,0.0059 -0.0359,0 -0.0557,-0.0113 Q -0.4554,0.1734 -0.4634,0.1549 -0.4715,0.1364 -0.4715,0.0771 l 0,-0.2238 -0.0483,0 0,-0.0512 0.0483,0 0,-0.0964 0.0656,-0.0395 0,0.1359 0.0662,0 0,0.0512 -0.0662,0 0,0.2274 q 0,0.0282 0.0034,0.0363 0.0035,0.0081 0.0114,0.0128 0.0079,0.0048 0.0225,0.0048 0.011,0 0.0289,-0.0026 z m 0.3183,0.011 q -0.0366,0.0311 -0.0705,0.044 -0.0339,0.0128 -0.0727,0.0128 -0.0641,0 -0.0985,-0.0313 -0.0344,-0.0313 -0.0344,-0.0801 0,-0.0285 0.013,-0.0521 0.013,-0.0237 0.034,-0.0379 0.0211,-0.0143 0.0474,-0.0217 0.0194,-0.0051 0.0586,-0.0098 0.0799,-0.0096 0.1176,-0.0227 4e-4,-0.0136 4e-4,-0.0173 0,-0.0402 -0.0187,-0.0567 -0.0253,-0.0224 -0.0751,-0.0224 -0.0465,0 -0.0687,0.0163 -0.0221,0.0163 -0.0327,0.0577 L -0.2862,-0.087 q 0.0088,-0.0414 0.0289,-0.0668 0.0202,-0.0255 0.0583,-0.0392 0.0381,-0.0137 0.0882,-0.0137 0.0498,0 0.081,0.0117 0.0311,0.0117 0.0457,0.0295 0.0147,0.0177 0.0205,0.0448 0.0033,0.0169 0.0033,0.0608 l 0,0.0879 q 0,0.0919 0.0042,0.1163 0.0043,0.0243 0.0167,0.0467 l -0.0688,0 Q -0.0185,0.1705 -0.0214,0.143 z m -0.0055,-0.1472 q -0.0359,0.0146 -0.1077,0.0249 -0.0406,0.0059 -0.0575,0.0132 -0.0168,0.0073 -0.026,0.0214 -0.0091,0.0141 -0.0091,0.0313 0,0.0264 0.0199,0.044 0.02,0.0175 0.0584,0.0175 0.0381,0 0.0678,-0.0166 0.0296,-0.0167 0.0436,-0.0456 0.0106,-0.0224 0.0106,-0.0659 l 0,-0.0242 z M 0.3957,0.0485 0.4605,0.0569 Q 0.4499,0.124 0.4061,0.1619 0.3624,0.1998 0.2986,0.1998 0.2188,0.1998 0.1703,0.1476 0.1218,0.0954 0.1218,-0.002 q 0,-0.063 0.0208,-0.1102 0.0209,-0.0473 0.0636,-0.0709 0.0426,-0.0236 0.0928,-0.0236 0.0634,0 0.1037,0.032 0.0402,0.0321 0.0516,0.091 L 0.3902,-0.0738 Q 0.3811,-0.113 0.3578,-0.1327 0.3345,-0.1525 0.3016,-0.1525 q -0.0498,0 -0.081,0.0357 -0.0311,0.0357 -0.0311,0.113 0,0.0783 0.0301,0.1139 0.03,0.0355 0.0783,0.0355 0.0388,0 0.0648,-0.0238 0.026,-0.0238 0.033,-0.0733 z m 0.1216,0.1425 0,-0.5369 0.0659,0 0,0.3062 0.156,-0.1582 0.0853,0 -0.1487,0.1443 0.1638,0.2446 -0.0814,0 -0.1285,-0.1989 -0.0465,0.0447 0,0.1542 -0.0659,0 z m 0.349,-0.1612 0,-0.0662 0.2025,0 0,0.0662 -0.2025,0 z"
       id="path33"
       inkscape:connector-curvature="0"
       style="stroke:none" />
  </g>
  <g
     font-size="0.75"
     transform="matrix(50,0,0,50,767.6874,227.7338)"
     id="g35"
     style="font-size:0.75000000000000000px;fill:#0000b2;stroke:#0000b2;font-family:sans-serif">
    <path
       d="m -0.5685,0.191 0,-0.5369 0.0659,0 0,0.5369 -0.0659,0 z m 0.4204,0 0,-0.0491 q -0.037,0.0579 -0.1088,0.0579 -0.0465,0 -0.0855,-0.0257 -0.039,-0.0256 -0.0604,-0.0716 -0.0214,-0.0459 -0.0214,-0.1056 0,-0.0582 0.0194,-0.1057 0.0194,-0.0474 0.0582,-0.0727 0.0388,-0.0252 0.0868,-0.0252 0.0351,0 0.0626,0.0148 0.0275,0.0148 0.0447,0.0386 l 0,-0.1926 0.0655,0 0,0.5369 -0.0611,0 z m -0.2084,-0.1941 q 0,0.0747 0.0315,0.1117 0.0315,0.037 0.0743,0.037 0.0433,0 0.0735,-0.0354 0.0302,-0.0353 0.0302,-0.1078 0,-0.0799 -0.0308,-0.1172 -0.0308,-0.0374 -0.0758,-0.0374 -0.0439,0 -0.0734,0.0359 -0.0295,0.0359 -0.0295,0.1132 z m 0.3468,0.078 0.0652,-0.0103 q 0.0055,0.0392 0.0306,0.0601 0.0251,0.0209 0.0701,0.0209 0.0454,0 0.0674,-0.0185 0.022,-0.0185 0.022,-0.0434 0,-0.0224 -0.0195,-0.0352 Q 0.2126,0.0397 0.1588,0.0262 0.0862,0.0079 0.0582,-0.0055 0.0302,-0.0189 0.0158,-0.0425 0.0013,-0.0661 0.0013,-0.0947 q 0,-0.026 0.0119,-0.0481 0.0119,-0.0222 0.0324,-0.0368 0.0154,-0.0114 0.0419,-0.0192 0.0266,-0.0079 0.057,-0.0079 0.0457,0 0.0804,0.0132 0.0346,0.0131 0.051,0.0357 0.0165,0.0225 0.0228,0.0602 l -0.0645,0.0088 q -0.0044,-0.03 -0.0255,-0.0469 -0.021,-0.0168 -0.0595,-0.0168 -0.0454,0 -0.0648,0.015 -0.0194,0.015 -0.0194,0.0352 0,0.0128 0.0081,0.023 0.008,0.0106 0.0252,0.0176 0.0099,0.0036 0.0583,0.0168 0.0699,0.0187 0.0976,0.0306 0.0276,0.0119 0.0433,0.0346 0.0158,0.0227 0.0158,0.0564 0,0.033 -0.0192,0.0621 -0.0192,0.0291 -0.0555,0.045 -0.0363,0.016 -0.082,0.016 -0.0758,0 -0.1156,-0.0315 Q 0.0013,0.1368 -0.0097,0.0749 z m 0.3757,-0.0451 0,-0.0662 0.2025,0 0,0.0662 -0.2025,0 z"
       id="path37"
       inkscape:connector-curvature="0"
       style="stroke:none" />
  </g>
  <g
     font-size="0.75"
     transform="matrix(50,0,0,50,767.6874,27.7338)"
     id="g39"
     style="font-size:0.75000000000000000px;fill:#0000b2;stroke:#0000b2;font-family:sans-serif">
    <path
       d="m -0.7205,0.191 0,-0.0491 q -0.037,0.0579 -0.1088,0.0579 -0.0465,0 -0.0855,-0.0257 -0.039,-0.0256 -0.0604,-0.0716 -0.0214,-0.0459 -0.0214,-0.1056 0,-0.0582 0.0194,-0.1057 0.0194,-0.0474 0.0582,-0.0727 0.0388,-0.0252 0.0868,-0.0252 0.0351,0 0.0626,0.0148 0.0275,0.0148 0.0447,0.0386 l 0,-0.1926 0.0655,0 0,0.5369 -0.0611,0 z m -0.2084,-0.1941 q 0,0.0747 0.0315,0.1117 0.0315,0.037 0.0743,0.037 0.0433,0 0.0735,-0.0354 0.0302,-0.0353 0.0302,-0.1078 0,-0.0799 -0.0308,-0.1172 -0.0307,-0.0374 -0.0758,-0.0374 -0.0439,0 -0.0734,0.0359 -0.0295,0.0359 -0.0295,0.1132 z m 0.5171,0.1351 0.0095,0.0582 q -0.0278,0.0059 -0.0498,0.0059 -0.0359,0 -0.0556,-0.0113 -0.0198,-0.0114 -0.0279,-0.0299 -0.008,-0.0185 -0.008,-0.0778 l 0,-0.2238 -0.0484,0 0,-0.0512 0.0484,0 0,-0.0964 0.0655,-0.0395 0,0.1359 0.0663,0 0,0.0512 -0.0663,0 0,0.2274 q 0,0.0282 0.0035,0.0363 0.0035,0.0081 0.0113,0.0128 0.0079,0.0048 0.0226,0.0048 0.011,0 0.0289,-0.0026 z m 0.3182,0.011 q -0.0366,0.0311 -0.0705,0.044 -0.0338,0.0128 -0.0727,0.0128 -0.064,0 -0.0985,-0.0313 -0.0344,-0.0313 -0.0344,-0.0801 0,-0.0285 0.013,-0.0521 0.013,-0.0237 0.0341,-0.0379 0.021,-0.0143 0.0474,-0.0217 0.0194,-0.0051 0.0586,-0.0098 0.0798,-0.0096 0.1175,-0.0227 4e-4,-0.0136 4e-4,-0.0173 0,-0.0402 -0.0187,-0.0567 -0.0252,-0.0224 -0.075,-0.0224 -0.0465,0 -0.0687,0.0163 -0.0222,0.0163 -0.0328,0.0577 L -0.3583,-0.087 q 0.0087,-0.0414 0.0289,-0.0668 0.0201,-0.0255 0.0582,-0.0392 0.0381,-0.0137 0.0883,-0.0137 0.0498,0 0.0809,0.0117 0.0311,0.0117 0.0458,0.0295 0.0146,0.0177 0.0205,0.0448 0.0033,0.0169 0.0033,0.0608 l 0,0.0879 q 0,0.0919 0.0042,0.1163 0.0042,0.0243 0.0167,0.0467 l -0.0689,0 Q -0.0906,0.1705 -0.0936,0.143 z m -0.0055,-0.1472 q -0.0358,0.0146 -0.1076,0.0249 -0.0407,0.0059 -0.0575,0.0132 -0.0169,0.0073 -0.026,0.0214 -0.0092,0.0141 -0.0092,0.0313 0,0.0264 0.02,0.044 0.0199,0.0175 0.0584,0.0175 0.0381,0 0.0677,-0.0166 0.0297,-0.0167 0.0436,-0.0456 0.0106,-0.0224 0.0106,-0.0659 l 0,-0.0242 z M 0.3235,0.0485 0.3884,0.0569 Q 0.3777,0.124 0.334,0.1619 0.2902,0.1998 0.2265,0.1998 0.1467,0.1998 0.0981,0.1476 0.0496,0.0954 0.0496,-0.002 q 0,-0.063 0.0209,-0.1102 0.0209,-0.0473 0.0635,-0.0709 0.0427,-0.0236 0.0929,-0.0236 0.0633,0 0.1036,0.032 0.0403,0.0321 0.0516,0.091 l -0.064,0.0099 Q 0.3089,-0.113 0.2856,-0.1327 0.2624,-0.1525 0.2294,-0.1525 q -0.0498,0 -0.0809,0.0357 -0.0311,0.0357 -0.0311,0.113 0,0.0783 0.03,0.1139 0.03,0.0355 0.0784,0.0355 0.0388,0 0.0648,-0.0238 0.026,-0.0238 0.0329,-0.0733 z m 0.1216,0.1425 0,-0.5369 0.0659,0 0,0.3062 0.1561,-0.1582 0.0853,0 -0.1487,0.1443 0.1637,0.2446 -0.0813,0 -0.1285,-0.1989 -0.0466,0.0447 0,0.1542 -0.0659,0 z m 0.349,-0.1612 0,-0.0662 0.2025,0 0,0.0662 -0.2025,0 z"
       id="path41"
       inkscape:connector-curvature="0"
       style="stroke:none" />
  </g>
  <g
     font-size="0.75"
     transform="matrix(50,0,0,50,217.6874,127.7338)"
     id="g43"
     style="font-size:0.75000000000000000px;fill:#0000b2;stroke:#0000b2;font-family:sans-serif">
    <path
       d="m -0.1177,0.191 0,-0.0491 q -0.037,0.0579 -0.1088,0.0579 -0.0465,0 -0.0855,-0.0257 -0.039,-0.0256 -0.0604,-0.0716 -0.0215,-0.0459 -0.0215,-0.1056 0,-0.0582 0.0195,-0.1057 0.0194,-0.0474 0.0582,-0.0727 0.0388,-0.0252 0.0868,-0.0252 0.0351,0 0.0626,0.0148 0.0275,0.0148 0.0447,0.0386 l 0,-0.1926 0.0655,0 0,0.5369 -0.0611,0 z m -0.2084,-0.1941 q 0,0.0747 0.0315,0.1117 0.0315,0.037 0.0743,0.037 0.0432,0 0.0735,-0.0354 0.0302,-0.0353 0.0302,-0.1078 0,-0.0799 -0.0308,-0.1172 -0.0308,-0.0374 -0.0758,-0.0374 -0.044,0 -0.0734,0.0359 -0.0295,0.0359 -0.0295,0.1132 z m 0.5116,0.1073 0,-0.1472 -0.1461,0 0,-0.0616 0.1461,0 0,-0.1461 0.0622,0 0,0.1461 0.1462,0 0,0.0616 -0.1462,0 0,0.1472 -0.0622,0 z"
       id="path45"
       inkscape:connector-curvature="0"
       style="stroke:none" />
  </g>
  <g
     font-size="0.75"
     transform="matrix(50,0,0,50,-82.3126,727.7338)"
     id="g47"
     style="font-size:0.75000000000000000px;stroke-width:0.02000000000000000;font-family:sans-serif">
    <path
       d="m 15.4089,-11.5911 0.8536,0.8536"
       id="path49"
       inkscape:connector-curvature="0"
       style="fill:none" />
    <path
       d="m 16.3155,-10.7906 -0.1061,0.1061 0.3359,0.2298 z"
       id="path51"
       inkscape:connector-curvature="0"
       style="stroke:none" />
  </g>
  <g
     font-size="0.75"
     transform="matrix(50,0,0,50,-82.3126,727.7338)"
     id="g53"
     style="font-size:0.75000000000000000px;stroke-width:0.02000000000000000;font-family:sans-serif">
    <path
       d="m 17.6685,-10 1.7627,0"
       id="path55"
       inkscape:connector-curvature="0"
       style="fill:none" />
    <path
       d="m 19.4312,-10.075 0,0.15 0.4,-0.075 z"
       id="path57"
       inkscape:connector-curvature="0"
       style="stroke:none" />
  </g>
  <g
     font-size="0.75"
     transform="matrix(50,0,0,50,-82.3126,727.7338)"
     id="g59"
     style="font-size:0.75000000000000000px;stroke-width:0.02000000000000000;font-family:sans-serif">
    <path
       d="m 21.682,-13.5453 1.3032,0.8687"
       id="path61"
       inkscape:connector-curvature="0"
       style="fill:none" />
    <path
       d="m 23.0268,-12.739 -0.0832,0.1248 0.3744,0.1595 z"
       id="path63"
       inkscape:connector-curvature="0"
       style="stroke:none" />
  </g>
  <g
     font-size="0.75"
     transform="matrix(50,0,0,50,-82.3126,727.7338)"
     id="g65"
     style="font-size:0.75000000000000000px;stroke-width:0.02000000000000000;font-family:sans-serif">
    <path
       d="M 24,-11.5453 24,-9 3,-9 3,-11.1453"
       id="path67"
       inkscape:connector-curvature="0"
       style="fill:none" />
    <path
       d="m 2.925,-11.1453 0.15,0 -0.075,-0.4 z"
       id="path69"
       inkscape:connector-curvature="0"
       style="stroke:none" />
  </g>
  <g
     font-size="0.75"
     transform="matrix(50,0,0,50,-82.3126,727.7338)"
     id="g71"
     style="font-size:0.75000000000000000px;stroke-width:0.02000000000000000;font-family:sans-serif">
    <path
       d="m 10.1816,-12 0.6971,0"
       id="path73"
       inkscape:connector-curvature="0"
       style="fill:none" />
    <path
       d="m 10.8787,-12.075 0,0.15 0.4,-0.075 z"
       id="path75"
       inkscape:connector-curvature="0"
       style="stroke:none" />
  </g>
  <g
     font-size="0.75"
     transform="matrix(50,0,0,50,-82.3126,727.7338)"
     id="g77"
     style="font-size:0.75000000000000000px;stroke-width:0.02000000000000000;font-family:sans-serif">
    <path
       d="m 12.7213,-12 1.4698,0"
       id="path79"
       inkscape:connector-curvature="0"
       style="fill:none" />
    <path
       d="m 14.1911,-12.075 0,0.15 0.4,-0.075 z"
       id="path81"
       inkscape:connector-curvature="0"
       style="stroke:none" />
  </g>
  <g
     font-size="0.75"
     transform="matrix(50,0,0,50,-82.3126,727.7338)"
     id="g83"
     style="font-size:0.75000000000000000px;stroke-width:0.02000000000000000;font-family:sans-serif">
    <path
       d="m 15.4089,-12.4089 0.8536,-0.8536"
       id="path85"
       inkscape:connector-curvature="0"
       style="fill:none" />
    <path
       d="m 16.2094,-13.3155 0.1061,0.1061 0.2298,-0.3359 z"
       id="path87"
       inkscape:connector-curvature="0"
       style="stroke:none" />
  </g>
  <g
     font-size="0.75"
     transform="matrix(50,0,0,50,-82.3126,727.7338)"
     id="g89"
     style="font-size:0.75000000000000000px;stroke-width:0.02000000000000000;font-family:sans-serif">
    <path
       d="m 4.2537,-12 0.8524,0"
       id="path91"
       inkscape:connector-curvature="0"
       style="fill:none" />
    <path
       d="m 5.1061,-12.075 0,0.15 0.4,-0.075 z"
       id="path93"
       inkscape:connector-curvature="0"
       style="stroke:none" />
  </g>
  <g
     font-size="0.75"
     transform="matrix(50,0,0,50,-82.3126,727.7338)"
     id="g95"
     style="font-size:0.75000000000000000px;stroke-width:0.02000000000000000;font-family:sans-serif">
    <path
       d="m 6.4939,-12 0.9245,0"
       id="path97"
       inkscape:connector-curvature="0"
       style="fill:none" />
    <path
       d="m 7.4184,-12.075 0,0.15 0.4,-0.075 z"
       id="path99"
       inkscape:connector-curvature="0"
       style="stroke:none" />
  </g>
  <g
     font-size="0.75"
     transform="matrix(50,0,0,50,1042.6874,177.7338)"
     id="g101"
     style="font-size:0.75000000000000000px;stroke-width:0.02000000000000000;font-family:sans-serif">
    <circle
       cx="0"
       cy="0"
       r="0.2105"
       id="circle103"
       d="m 0.2105,0 c 0,0.11625594 -0.0942441,0.2105 -0.2105,0.2105 -0.11625594,0 -0.2105,-0.0942441 -0.2105,-0.2105 0,-0.11625594 0.0942441,-0.2105 0.2105,-0.2105 0.11625594,0 0.2105,0.0942441 0.2105,0.2105 z"
       sodipodi:cx="0"
       sodipodi:cy="0"
       sodipodi:rx="0.2105"
       sodipodi:ry="0.2105"
       style="stroke:none" />
  </g>
  <g
     font-size="0.75"
     transform="matrix(50,0,0,50,-82.3126,727.7338)"
     id="g105"
     style="font-size:0.75000000000000000px;stroke-width:0.02000000000000000;font-family:sans-serif">
    <path
       d="m 21.682,-10.4547 1.3032,-0.8687"
       id="path107"
       inkscape:connector-curvature="0"
       style="fill:none" />
    <path
       d="m 22.9436,-11.3858 0.0832,0.1248 0.2912,-0.2843 z"
       id="path109"
       inkscape:connector-curvature="0"
       style="stroke:none" />
  </g>
  <g
     font-size="0.75"
     transform="matrix(50,0,0,50,867.6874,27.7338)"
     id="g111"
     style="font-size:0.75000000000000000px;stroke-width:0.02000000000000000;font-family:sans-serif">
    <circle
       cx="0"
       cy="0"
       r="0.2105"
       id="circle113"
       d="m 0.2105,0 c 0,0.11625594 -0.0942441,0.2105 -0.2105,0.2105 -0.11625594,0 -0.2105,-0.0942441 -0.2105,-0.2105 0,-0.11625594 0.0942441,-0.2105 0.2105,-0.2105 0.11625594,0 0.2105,0.0942441 0.2105,0.2105 z"
       sodipodi:cx="0"
       sodipodi:cy="0"
       sodipodi:rx="0.2105"
       sodipodi:ry="0.2105"
       style="stroke:none" />
  </g>
  <g
     font-size="0.75"
     transform="matrix(50,0,0,50,-82.3126,727.7338)"
     id="g115"
     style="font-size:0.75000000000000000px;stroke-width:0.02000000000000000;font-family:sans-serif">
    <path
       d="m 18.0966,-14 1.6972,0"
       id="path117"
       inkscape:connector-curvature="0"
       style="fill:none" />
    <path
       d="m 19.7938,-14.075 0,0.15 0.4,-0.075 z"
       id="path119"
       inkscape:connector-curvature="0"
       style="stroke:none" />
  </g>
  <path
     inkscape:connector-curvature="0"
     id="path3157"
     d="M 767.03371,207.2809 941.68539,45.662921"
     style="stroke-linejoin:miter;opacity:1;marker-end:url(#Arrow1Mendt);stroke-opacity:1;fill-opacity:1;stroke:#ff0000;stroke-linecap:butt;stroke-miterlimit:10;stroke-dasharray:none;stroke-width:3;fill:#ff0000" />
  <text
     sodipodi:linespacing="125%"
     id="text5196"
     y="42"
     x="170"
     style="font-size:40px;font-style:normal;font-weight:normal;line-height:125%;letter-spacing:0px;word-spacing:0px;fill:#000000;fill-opacity:1;stroke:none;font-family:Sans"
     xml:space="preserve"><tspan
       y="42"
       x="170"
       id="tspan5198"
       sodipodi:role="line">Core</tspan></text>
</svg>
