<?xml version="1.0" encoding="UTF-8" standalone="no"?>
<svg xmlns:dc="http://purl.org/dc/elements/1.1/" xmlns:cc="http://creativecommons.org/ns#" xmlns:rdf="http://www.w3.org/1999/02/22-rdf-syntax-ns#" xmlns:svg="http://www.w3.org/2000/svg" xmlns="http://www.w3.org/2000/svg" xmlns:sodipodi="http://sodipodi.sourceforge.net/DTD/sodipodi-0.dtd" xmlns:inkscape="http://www.inkscape.org/namespaces/inkscape" color-interpolation="auto" color-rendering="auto" font-size="12" font-style="normal" font-weight="normal" height="100%" image-rendering="auto" shape-rendering="auto" stroke-miterlimit="10" text-rendering="auto" width="100%" id="svg2" version="1.1" inkscape:version="0.48.4 r9939" sodipodi:docname="circuit-standard-C-architecture.svg" style="font-size:12px;font-style:normal;font-weight:normal;fill:#000000;fill-opacity:1;stroke:#000000;stroke-width:1;stroke-linecap:square;stroke-linejoin:miter;stroke-miterlimit:10;stroke-opacity:1;stroke-dasharray:none;stroke-dashoffset:0;font-family:Dialog" viewBox="0 0 266 291" preserveAspectRatio="xMidYMid slice">
  <metadata
     id="metadata167">
    <rdf:RDF>
      <cc:Work
         rdf:about="">
        <dc:format>image/svg+xml</dc:format>
        <dc:type
           rdf:resource="http://purl.org/dc/dcmitype/StillImage" />
      </cc:Work>
    </rdf:RDF>
  </metadata>
  <sodipodi:namedview
     pagecolor="#ffffff"
     bordercolor="#666666"
     borderopacity="1"
     objecttolerance="10"
     gridtolerance="10"
     guidetolerance="10"
     inkscape:pageopacity="0"
     inkscape:pageshadow="2"
     inkscape:window-width="1920"
     inkscape:window-height="1058"
     id="namedview165"
     showgrid="true"
     fit-margin-top="0"
     fit-margin-left="0"
     fit-margin-right="0"
     fit-margin-bottom="0"
     inkscape:zoom="16.805044"
     inkscape:cx="142.97349"
     inkscape:cy="55.011167"
     inkscape:window-x="1912"
     inkscape:window-y="-8"
     inkscape:window-maximized="1"
     inkscape:current-layer="svg2">
    <inkscape:grid
       type="xygrid"
       id="grid3022" />
  </sodipodi:namedview>
  <!--Generated by the Batik Graphics2D SVG Generator-->
  <defs
     id="genericDefs" />
  <path
     d="m 169.44,120.25 12.495,0 c 37.5,0 37.5,50 0,50 l -12.495,0 z"
     id="path9"
     inkscape:connector-curvature="0"
     style="fill:#ffffff;stroke:none" />
  <path
     d="m 169.44,120.25 12.495,0 c 37.5,0 37.5,50 0,50 l -12.495,0 z"
     id="path13"
     inkscape:connector-curvature="0"
     style="fill:none;stroke-width:3" />
  <g
     id="g3018"
     transform="translate(-47.195149,68.88732)">
    <circle
       style="fill:#ffffff;stroke:none"
       sodipodi:ry="0.15000001"
       sodipodi:rx="0.15000001"
       sodipodi:cy="0"
       sodipodi:cx="0"
       d="M 0.15000001,0 C 0.15000001,0.08284272 0.08284272,0.15000001 0,0.15000001 -0.08284272,0.15000001 -0.15000001,0.08284272 -0.15000001,0 c 0,-0.08284272 0.06715729,-0.15000001 0.15000001,-0.15000001 0.08284272,0 0.15000001,0.06715729 0.15000001,0.15000001 z"
       id="circle15"
       transform="matrix(50,0,0,50,161.94,157.75)"
       r="0.15000001"
       cy="0"
       cx="0" />
    <circle
       style="fill:none;stroke-width:0.06"
       sodipodi:ry="0.15000001"
       sodipodi:rx="0.15000001"
       sodipodi:cy="0"
       sodipodi:cx="0"
       d="M 0.15000001,0 C 0.15000001,0.08284272 0.08284272,0.15000001 0,0.15000001 -0.08284272,0.15000001 -0.15000001,0.08284272 -0.15000001,0 c 0,-0.08284272 0.06715729,-0.15000001 0.15000001,-0.15000001 0.08284272,0 0.15000001,0.06715729 0.15000001,0.15000001 z"
       id="circle17"
       transform="matrix(50,0,0,50,161.94,157.75)"
       r="0.15000001"
       cy="0"
       cx="0" />
  </g>
  <line
     x1="210.065"
     x2="232.25"
     y1="145.25"
     y2="145.25"
     id="line21"
     style="fill:none;stroke-width:2" />
  <line
     x1="169.44"
     x2="132.25"
     y1="132.75"
     y2="132.75"
     id="line23"
     style="fill:none;stroke-width:2" />
  <line
     x1="167.10884"
     x2="132.79147"
     y1="157.92851"
     y2="157.92851"
     id="line25"
     style="fill:none;stroke-width:2.30049038" />
  <path
     d="m 194.75,136.59 a 10,10 0 1 0 0,17.32"
     id="path27"
     inkscape:connector-curvature="0"
     style="fill:none;stroke-width:2" />
  <path
     d="m 249.75,137.75 7.5,0 7.5,7.5 -7.5,7.5 -7.5,0 z"
     id="path31"
     inkscape:connector-curvature="0"
     style="fill:#ffffff;stroke:none" />
  <path
     d="m 249.75,137.75 7.5,0 7.5,7.5 -7.5,7.5 -7.5,0 z"
     id="path33"
     inkscape:connector-curvature="0"
     style="fill:none;stroke:#000000;stroke-width:2" />
  <rect
     height="125"
     width="81.25"
     x="26"
     y="164"
     id="rect41"
     style="font-size:0.5px;font-style:italic;fill:#ffffff;stroke:none" />
  <rect
     height="125"
     width="81.25"
     x="26"
     y="164"
     id="rect43"
     style="font-size:0.5px;font-style:italic;fill:none;stroke:#000000;stroke-width:3" />
  <line
     x1="132.25186"
     x2="124.02882"
     y1="226.59888"
     y2="226.54358"
     id="line45"
     style="font-size:0.5px;font-style:italic;fill:none;stroke:#000000;stroke-width:1.8554585" />
  <line
     x1="1"
     x2="26"
     y1="189"
     y2="189"
     id="line47"
     style="font-size:0.5px;font-style:italic;fill:none;stroke:#000000;stroke-width:2" />
  <line
     x1="1"
     x2="26"
     y1="264"
     y2="264"
     id="line53"
     style="font-size:0.5px;font-style:italic;fill:none;stroke:#000000;stroke-width:2" />
  <path
     d="m 33.2,235.595 3.75,-17.895 7.505,0 q 2.22,0 3.37,0.37 1.145,0.375 1.8,1.4 0.65,1.025 0.65,2.585 0,2.185 -1.425,3.625 -1.43,1.44 -4.615,1.87 0.975,0.72 1.475,1.415 1.125,1.575 1.81,3.26 l 1.365,3.37 -2.675,0 -1.28,-3.335 q -0.695,-1.805 -1.585,-3.125 -0.61,-0.915 -1.245,-1.2 -0.635,-0.29 -2.065,-0.29 l -2.78,0 -1.66,7.95 -2.395,0 z m 4.455,-9.89 3.31,0 q 2.295,0 2.99,-0.06 1.355,-0.135 2.22,-0.61 0.87,-0.475 1.345,-1.28 0.475,-0.81 0.475,-1.735 0,-0.78 -0.355,-1.36 -0.355,-0.58 -0.925,-0.79 -0.575,-0.205 -1.955,-0.205 l -5.835,0 -1.27,6.04 z m 22.78,5.48 2.145,0.22 q -0.46,1.6 -2.13,3.04 -1.665,1.44 -3.97,1.44 -1.44,0 -2.645,-0.665 -1.2,-0.665 -1.83,-1.935 -0.63,-1.265 -0.63,-2.89 0,-2.125 0.985,-4.12 0.98,-1.995 2.545,-2.965 1.56,-0.975 3.38,-0.975 2.32,0 3.705,1.445 1.385,1.44 1.385,3.93 0,0.95 -0.17,1.95 l -9.545,0 q -0.05,0.38 -0.05,0.685 0,1.82 0.835,2.775 0.835,0.96 2.045,0.96 1.135,0 2.235,-0.745 1.1,-0.745 1.71,-2.15 z m -6.42,-3.21 7.275,0 q 0.01,-0.34 0.01,-0.485 0,-1.66 -0.83,-2.545 -0.83,-0.885 -2.135,-0.885 -1.415,0 -2.58,0.975 -1.17,0.975 -1.74,2.94 z m 11.01,3.19 2.21,-0.135 q 0,0.95 0.29,1.62 0.295,0.675 1.08,1.1 0.79,0.43 1.84,0.43 1.465,0 2.195,-0.59 0.735,-0.585 0.735,-1.375 0,-0.575 -0.44,-1.09 -0.455,-0.51 -2.205,-1.26 -1.75,-0.755 -2.24,-1.06 -0.815,-0.5 -1.23,-1.175 -0.42,-0.68 -0.42,-1.56 0,-1.535 1.225,-2.635 1.22,-1.1 3.415,-1.1 2.445,0 3.72,1.13 1.275,1.13 1.325,2.975 l -2.165,0.145 q -0.045,-1.17 -0.83,-1.855 -0.78,-0.685 -2.205,-0.685 -1.15,0 -1.785,0.525 -0.635,0.525 -0.635,1.135 0,0.61 0.55,1.075 0.365,0.32 1.89,0.975 2.54,1.1 3.2,1.735 1.05,1.015 1.05,2.465 0,0.965 -0.59,1.895 -0.595,0.925 -1.81,1.48 -1.215,0.555 -2.86,0.555 -2.245,0 -3.82,-1.11 -1.575,-1.11 -1.49,-3.61 z m 21.815,0.02 2.145,0.22 q -0.465,1.6 -2.13,3.04 -1.665,1.44 -3.97,1.44 -1.445,0 -2.645,-0.665 -1.2,-0.665 -1.83,-1.935 -0.63,-1.265 -0.63,-2.89 0,-2.125 0.985,-4.12 0.98,-1.995 2.545,-2.965 1.56,-0.975 3.38,-0.975 2.32,0 3.705,1.445 1.385,1.44 1.385,3.93 0,0.95 -0.17,1.95 l -9.545,0 q -0.05,0.38 -0.05,0.685 0,1.82 0.835,2.775 0.835,0.96 2.045,0.96 1.135,0 2.235,-0.745 1.095,-0.745 1.71,-2.15 z m -6.425,-3.21 7.275,0 q 0.015,-0.34 0.015,-0.485 0,-1.66 -0.83,-2.545 -0.83,-0.885 -2.135,-0.885 -1.42,0 -2.585,0.975 -1.165,0.975 -1.74,2.94 z m 15.97,5.825 -0.37,1.805 q -0.79,0.21 -1.535,0.21 -1.32,0 -2.1,-0.65 -0.585,-0.485 -0.585,-1.33 0,-0.425 0.315,-1.965 l 1.575,-7.53 -1.745,0 0.355,-1.71 1.745,0 0.67,-3.185 2.53,-1.525 -0.99,4.71 2.17,0 -0.365,1.71 -2.16,0 -1.5,7.165 q -0.28,1.365 -0.28,1.635 0,0.39 0.225,0.6 0.225,0.205 0.735,0.205 0.735,0 1.31,-0.145 z"
     id="path55"
     inkscape:connector-curvature="0"
     style="font-size:0.5px;font-style:italic;fill:#000000;fill-opacity:1;stroke:none" />
  <rect
     height="125"
     width="81.25"
     x="26"
     y="1.5"
     id="rect87"
     style="font-size:0.5px;font-style:italic;fill:#ffffff;stroke:none" />
  <rect
     height="125"
     width="81.25"
     x="26"
     y="1.5"
     id="rect89"
     style="font-size:0.5px;font-style:italic;fill:none;stroke:#000000;stroke-width:3" />
  <line
     x1="132.25"
     x2="107.25"
     y1="64"
     y2="64"
     id="line91"
     style="font-size:0.5px;font-style:italic;fill:none;stroke:#000000;stroke-width:2" />
  <line
     x1="1"
     x2="26"
     y1="26.5"
     y2="26.5"
     id="line93"
     style="font-size:0.5px;font-style:italic;fill:none;stroke:#000000;stroke-width:2" />
  <line
     x1="1"
     x2="26"
     y1="101.5"
     y2="101.5"
     id="line99"
     style="font-size:0.5px;font-style:italic;fill:none;stroke:#000000;stroke-width:2" />
  <path
     d="m 48.155,67.465 2.345,-0.22 -0.025,0.625 q 0,1.035 0.475,1.9 0.475,0.86 1.575,1.33 1.1,0.47 2.615,0.47 2.145,0 3.275,-0.94 1.13,-0.94 1.13,-2.15 0,-0.84 -0.6,-1.54 -0.61,-0.68 -3.33,-1.855 -2.115,-0.915 -2.885,-1.4 -1.205,-0.795 -1.78,-1.73 -0.575,-0.935 -0.575,-2.13 0,-1.38 0.76,-2.49 0.755,-1.11 2.215,-1.695 1.46,-0.59 3.29,-0.59 2.185,0 3.685,0.735 1.5,0.73 2.18,1.955 0.675,1.22 0.675,2.33 0,0.11 -0.01,0.365 l -2.305,0.185 q 0,-0.76 -0.135,-1.185 -0.245,-0.745 -0.76,-1.26 -0.51,-0.51 -1.41,-0.82 -0.895,-0.315 -2.005,-0.315 -1.955,0 -3.04,0.88 -0.83,0.67 -0.83,1.785 0,0.66 0.34,1.175 0.34,0.52 1.235,1.02 0.635,0.355 3.015,1.405 1.93,0.855 2.66,1.34 0.975,0.65 1.5,1.57 0.525,0.925 0.525,2.095 0,1.45 -0.885,2.68 -0.885,1.225 -2.445,1.895 -1.565,0.675 -3.58,0.675 -3.035,0 -4.96,-1.325 -1.925,-1.325 -1.935,-4.77 z m 25.27,1.38 2.145,0.22 q -0.46,1.6 -2.13,3.04 -1.665,1.44 -3.97,1.44 -1.44,0 -2.645,-0.665 -1.2,-0.665 -1.83,-1.935 -0.63,-1.27 -0.63,-2.89 0,-2.125 0.985,-4.12 0.98,-1.995 2.545,-2.97 1.56,-0.97 3.38,-0.97 2.32,0 3.705,1.44 1.385,1.44 1.385,3.93 0,0.955 -0.17,1.955 l -9.545,0 q -0.05,0.38 -0.05,0.685 0,1.82 0.835,2.775 0.835,0.96 2.045,0.96 1.135,0 2.235,-0.745 1.1,-0.745 1.71,-2.15 z M 67,65.635 l 7.28,0 q 0.01,-0.34 0.01,-0.485 0,-1.66 -0.83,-2.55 -0.83,-0.885 -2.135,-0.885 -1.415,0 -2.585,0.98 -1.165,0.975 -1.74,2.94 z m 15.97,5.825 -0.365,1.805 q -0.795,0.21 -1.54,0.21 -1.32,0 -2.1,-0.65 -0.585,-0.485 -0.585,-1.33 0,-0.425 0.315,-1.965 L 80.27,62 l -1.745,0 0.355,-1.71 1.745,0 0.67,-3.185 2.53,-1.53 -0.99,4.715 2.175,0 -0.37,1.71 -2.16,0 -1.5,7.165 Q 80.7,70.53 80.7,70.8 q 0,0.39 0.225,0.6 0.225,0.205 0.74,0.205 0.73,0 1.305,-0.145 z"
     id="path101"
     inkscape:connector-curvature="0"
     style="font-size:0.5px;font-style:italic;fill:#000000;fill-opacity:1;stroke:none" />
  <line
     x1="232.25"
     x2="237.75"
     y1="145.25"
     y2="145.25"
     id="line133"
     style="font-size:0.5px;font-style:italic;fill:none;stroke-width:2" />
  <path
     d="m 237.75,145.25 12,0"
     id="path137"
     inkscape:connector-curvature="0"
     style="font-size:0.5px;font-style:italic;fill:none;stroke-width:2" />
  <path
     d="m 249.75,141.5 0,7.5 0,-3.75 z"
     id="path139"
     inkscape:connector-curvature="0"
     style="font-size:0.5px;font-style:italic;stroke:none" />
  <line
     x1="132.25"
     x2="132.25"
     y1="226.5"
     y2="221"
     id="line143"
     style="font-size:0.5px;font-style:italic;fill:none;stroke-width:2" />
  <line
     x1="132.25"
     x2="132.25"
     y1="163.25"
     y2="157.75"
     id="line145"
     style="font-size:0.5px;font-style:italic;fill:none;stroke-width:2" />
  <path
     d="m 132.25,221 0,-57.75"
     id="path149"
     inkscape:connector-curvature="0"
     style="font-size:0.5px;font-style:italic;fill:none;stroke-width:2" />
  <path
     d="m 128.5,163.25 7.5,0 -3.75,0 z"
     id="path151"
     inkscape:connector-curvature="0"
     style="font-size:0.5px;font-style:italic;stroke:none" />
  <line
     x1="132.25"
     x2="132.25"
     y1="64"
     y2="69.500008"
     id="line155"
     style="font-size:0.5px;font-style:italic;fill:none;stroke-width:2" />
  <line
     x1="132.25"
     x2="132.25"
     y1="127.25"
     y2="132.75"
     id="line157"
     style="font-size:0.5px;font-style:italic;fill:none;stroke-width:2" />
  <path
     d="m 132.25,69.5 0,57.75"
     id="path161"
     inkscape:connector-curvature="0"
     style="font-size:0.5px;font-style:italic;fill:none;stroke-width:2" />
  <path
     d="m 136,127.25 -7.5,0 3.75,0 z"
     id="path163"
     inkscape:connector-curvature="0"
     style="font-size:0.5px;font-style:italic;stroke:none" />
  <text
     xml:space="preserve"
     style="font-size:40px;font-style:normal;font-weight:normal;line-height:125%;letter-spacing:0px;word-spacing:0px;fill:#000000;fill-opacity:1;stroke:none;font-family:Sans"
     x="46.61718"
     y="-10.568077"
     id="text3019"
     sodipodi:linespacing="125%"
     transform="matrix(0,1,-1,0,0,0)"><tspan
       sodipodi:role="line"
       id="tspan3021"
       x="46.61718"
       y="-10.568077">...</tspan></text>
  <text
     xml:space="preserve"
     style="font-size:40px;font-style:normal;font-weight:normal;line-height:125%;letter-spacing:0px;word-spacing:0px;fill:#000000;fill-opacity:1;stroke:none;font-family:Sans"
     x="210.20604"
     y="-10.097228"
     id="text3019-1"
     sodipodi:linespacing="125%"
     transform="matrix(0,1,-1,0,0,0)"><tspan
       sodipodi:role="line"
       id="tspan3021-7"
       x="210.20604"
       y="-10.097228">...</tspan></text>
</svg>
