<?xml version="1.0" encoding="UTF-8" standalone="no"?>
<svg xmlns:dc="http://purl.org/dc/elements/1.1/" xmlns:cc="http://creativecommons.org/ns#" xmlns:rdf="http://www.w3.org/1999/02/22-rdf-syntax-ns#" xmlns:svg="http://www.w3.org/2000/svg" xmlns="http://www.w3.org/2000/svg" xmlns:sodipodi="http://sodipodi.sourceforge.net/DTD/sodipodi-0.dtd" xmlns:inkscape="http://www.inkscape.org/namespaces/inkscape" color-interpolation="auto" color-rendering="auto" font-size="12" font-style="normal" font-weight="normal" height="100%" image-rendering="auto" shape-rendering="auto" stroke-miterlimit="10" text-rendering="auto" width="100%" id="svg2" version="1.1" inkscape:version="0.48.4 r9939" sodipodi:docname="circuit-standard-c-architecture.svg" style="font-size:12px;font-style:normal;font-weight:normal;fill:#000000;fill-opacity:1;stroke:#000000;stroke-width:1;stroke-linecap:square;stroke-linejoin:miter;stroke-miterlimit:10;stroke-opacity:1;stroke-dasharray:none;stroke-dashoffset:0;font-family:Dialog" inkscape:export-filename="/home/danil/circuit-standard-c-architecture.png" inkscape:export-xdpi="45" inkscape:export-ydpi="45" viewBox="0 0 282 278" preserveAspectRatio="xMidYMid slice">
  <metadata
     id="metadata135">
    <rdf:RDF>
      <cc:Work
         rdf:about="">
        <dc:format>image/svg+xml</dc:format>
        <dc:type
           rdf:resource="http://purl.org/dc/dcmitype/StillImage" />
        <dc:title></dc:title>
      </cc:Work>
    </rdf:RDF>
  </metadata>
  <sodipodi:namedview
     pagecolor="#ffffff"
     bordercolor="#666666"
     borderopacity="1"
     objecttolerance="10"
     gridtolerance="10"
     guidetolerance="10"
     inkscape:pageopacity="0"
     inkscape:pageshadow="2"
     inkscape:window-width="1920"
     inkscape:window-height="1176"
     id="namedview133"
     showgrid="false"
     inkscape:zoom="2.3503831"
     inkscape:cx="90.584872"
     inkscape:cy="142.18929"
     inkscape:window-x="0"
     inkscape:window-y="24"
     inkscape:window-maximized="1"
     inkscape:current-layer="svg2"
     fit-margin-top="0"
     fit-margin-left="0"
     fit-margin-right="0"
     fit-margin-bottom="0" />
  <!--Generated by the Batik Graphics2D SVG Generator-->
  <defs
     id="genericDefs" />
  <g
     style="fill:#ffffff;stroke:#ffffff;stroke-width:0.06"
     id="g7"
     transform="matrix(50,0,0,50,176,145.25)">
    <path
       style="stroke:none"
       inkscape:connector-curvature="0"
       id="path9"
       d="m -0.2562,-0.5 0.2499,0 c 0.75,0 0.75,1 0,1 l -0.2499,0 z" />
  </g>
  <g
     style="stroke-width:0.06"
     id="g11"
     transform="matrix(50,0,0,50,176,145.25)">
    <path
       style="fill:none"
       inkscape:connector-curvature="0"
       id="path13"
       d="m -0.2562,-0.5 0.2499,0 c 0.75,0 0.75,1 0,1 l -0.2499,0 z" />
    <circle
       style="fill:#ffffff;stroke:none"
       sodipodi:ry="0.15000001"
       sodipodi:rx="0.15000001"
       sodipodi:cy="0"
       sodipodi:cx="0"
       d="M 0.15000001,0 C 0.15000001,0.08284272 0.08284272,0.15000001 0,0.15000001 -0.08284272,0.15000001 -0.15000001,0.08284272 -0.15000001,0 c 0,-0.08284272 0.06715729,-0.15000001 0.15000001,-0.15000001 0.08284272,0 0.15000001,0.06715729 0.15000001,0.15000001 z"
       id="circle15"
       transform="translate(-0.4062,0.25)"
       r="0.15000001"
       cy="0"
       cx="0" />
    <circle
       style="fill:none"
       sodipodi:ry="0.15000001"
       sodipodi:rx="0.15000001"
       sodipodi:cy="0"
       sodipodi:cx="0"
       d="M 0.15000001,0 C 0.15000001,0.08284272 0.08284272,0.15000001 0,0.15000001 -0.08284272,0.15000001 -0.15000001,0.08284272 -0.15000001,0 c 0,-0.08284272 0.06715729,-0.15000001 0.15000001,-0.15000001 0.08284272,0 0.15000001,0.06715729 0.15000001,0.15000001 z"
       id="circle17"
       transform="translate(-0.4062,0.25)"
       r="0.15000001"
       cy="0"
       cx="0" />
  </g>
  <g
     style="stroke-width:0.04"
     id="g19"
     transform="matrix(50,0,0,50,176,145.25)">
    <line
       style="fill:none"
       id="line21"
       y2="0"
       y1="0"
       x2="1"
       x1="0.55620003" />
    <line
       style="fill:none"
       id="line23"
       y2="-0.25"
       y1="-0.25"
       x2="-1"
       x1="-0.25619999" />
    <line
       style="fill:none"
       id="line25"
       y2="0.25"
       y1="0.25"
       x2="-1"
       x1="-0.55620003" />
    <path
       style="fill:none"
       inkscape:connector-curvature="0"
       id="path27"
       d="m 0.25,-0.1732 a 0.2,0.2 0 1 0 0,0.3464" />
  </g>
  <g
     style="fill:#ffffff;stroke:#ffffff;stroke-width:0.04"
     id="g29"
     transform="matrix(50,0,0,50,251,145.25)">
    <path
       style="stroke:none"
       inkscape:connector-curvature="0"
       id="path31"
       d="M -0.15,-0.15 0,-0.15 0.15,0 0,0.15 l -0.15,0 z" />
    <path
       style="fill:none;stroke:#000000"
       inkscape:connector-curvature="0"
       id="path33"
       d="M -0.15,-0.15 0,-0.15 0.15,0 0,0.15 l -0.15,0 z" />
  </g>
  <g
     style="font-size:0.5px;font-style:italic;fill:#0000ff;stroke:#0000ff;stroke-width:0.04;font-family:sans-serif"
     id="g35"
     transform="matrix(50,0,0,50,251,145.25)"
     font-style="italic"
     font-size="0.5">
    <path
       style="stroke:none"
       inkscape:connector-curvature="0"
       id="path37"
       d="m 0.404,-0.1777 0.2133,0 -0.0071,0.041 -0.2034,0.1965 0.169,0 -0.0063,0.0359 -0.2195,0 0.0072,-0.041 0.2033,-0.1965 -0.1628,0 0.0063,-0.0359 z" />
  </g>
  <rect
     height="125"
     width="81.25"
     x="19.75"
     y="151.5"
     id="rect41"
     style="font-size:0.5px;font-style:italic;fill:#ffffff;stroke:none;font-family:sans-serif" />
  <rect
     height="125"
     width="81.25"
     x="19.75"
     y="151.5"
     id="rect43"
     style="font-size:0.5px;font-style:italic;fill:none;stroke:#000000;stroke-width:3;font-family:sans-serif" />
  <line
     x1="126"
     x2="101"
     y1="214"
     y2="214"
     id="line45"
     style="font-size:0.5px;font-style:italic;fill:none;stroke:#000000;stroke-width:2;font-family:sans-serif" />
  <line
     x1="1"
     x2="19.75"
     y1="176.5"
     y2="176.5"
     id="line47"
     style="font-size:0.5px;font-style:italic;fill:none;stroke:#000000;stroke-width:2;font-family:sans-serif" />
  <line
     x1="1"
     x2="19.75"
     y1="201.5"
     y2="201.5"
     id="line49"
     style="font-size:0.5px;font-style:italic;fill:none;stroke:#000000;stroke-width:2;font-family:sans-serif" />
  <line
     x1="1"
     x2="19.75"
     y1="226.5"
     y2="226.5"
     id="line51"
     style="font-size:0.5px;font-style:italic;fill:none;stroke:#000000;stroke-width:2;font-family:sans-serif" />
  <line
     x1="1"
     x2="19.75"
     y1="251.5"
     y2="251.5"
     id="line53"
     style="font-size:0.5px;font-style:italic;fill:none;stroke:#000000;stroke-width:2;font-family:sans-serif" />
  <g
     style="font-size:0.5px;stroke-width:0.04;font-family:sans-serif"
     id="g65"
     transform="matrix(50,0,0,50,44.75,232.75)"
     font-size="0.5">
    <path
       style="stroke:none"
       inkscape:connector-curvature="0"
       id="path67"
       d="m -0.1937,-0.4159 q 0.0158,0.0054 0.0309,0.023 0.015,0.0176 0.0301,0.0483 l 0.0501,0.0997 -0.053,0 -0.0466,-0.0935 q -0.0181,-0.0367 -0.0351,-0.0486 -0.017,-0.012 -0.0463,-0.012 l -0.0537,0 0,0.1541 -0.0493,0 0,-0.3645 0.1114,0 q 0.0625,0 0.0932,0.0261 0.0308,0.0261 0.0308,0.0788 0,0.0345 -0.016,0.0572 -0.016,0.0227 -0.0465,0.0314 z m -0.1236,-0.153 0,0.1294 0.0621,0 q 0.0356,0 0.0538,-0.0165 0.0182,-0.0165 0.0182,-0.0485 0,-0.0319 -0.0182,-0.0482 -0.0182,-0.0162 -0.0538,-0.0162 l -0.0621,0 z m 0.5301,0.176 0,0.022 -0.2066,0 q 0.003,0.0464 0.028,0.0707 0.025,0.0243 0.0697,0.0243 0.0259,0 0.0502,-0.0064 0.0242,-0.0064 0.0482,-0.019 l 0,0.0424 q -0.0242,0.0103 -0.0496,0.0157 -0.0254,0.0053 -0.0515,0.0053 -0.0654,0 -0.1036,-0.0381 -0.0382,-0.038 -0.0382,-0.103 0,-0.0671 0.0362,-0.1065 0.0363,-0.0395 0.0978,-0.0395 0.0552,0 0.0873,0.0355 0.0321,0.0356 0.0321,0.0966 z m -0.045,-0.0132 q -4e-4,-0.0368 -0.0206,-0.0588 -0.0201,-0.022 -0.0533,-0.022 -0.0376,0 -0.0602,0.0212 -0.0226,0.0213 -0.026,0.0599 l 0.1601,-3e-4 z m 0.293,-0.1042 0,0.0424 Q 0.4418,-0.4776 0.4213,-0.4825 0.4008,-0.4874 0.3788,-0.4874 q -0.0335,0 -0.0502,0.0103 -0.0167,0.0102 -0.0167,0.0307 0,0.0157 0.012,0.0246 0.0119,0.0089 0.048,0.0169 l 0.0154,0.0035 q 0.0479,0.0102 0.068,0.0289 0.0202,0.0187 0.0202,0.0521 0,0.0381 -0.0302,0.0603 -0.0301,0.0222 -0.0829,0.0222 -0.0219,0 -0.0457,-0.0042 Q 0.2928,-0.2464 0.2665,-0.255 l 0,-0.0463 q 0.0249,0.0129 0.0491,0.0194 0.0241,0.0064 0.0478,0.0064 0.0317,0 0.0488,-0.0108 0.0171,-0.0109 0.0171,-0.0307 0,-0.0183 -0.0123,-0.028 Q 0.4047,-0.3548 0.3629,-0.3638 L 0.3473,-0.3675 Q 0.3055,-0.3763 0.287,-0.3945 0.2684,-0.4127 0.2684,-0.4444 q 0,-0.0386 0.0274,-0.0596 0.0273,-0.021 0.0776,-0.021 0.0249,0 0.0469,0.0037 0.022,0.0036 0.0405,0.011 z m 0.3201,0.1174 0,0.022 -0.2066,0 q 0.003,0.0464 0.028,0.0707 0.025,0.0243 0.0697,0.0243 0.0259,0 0.0502,-0.0064 0.0243,-0.0064 0.0482,-0.019 l 0,0.0424 q -0.0242,0.0103 -0.0496,0.0157 -0.0254,0.0053 -0.0515,0.0053 -0.0654,0 -0.1036,-0.0381 -0.0382,-0.038 -0.0382,-0.103 0,-0.0671 0.0362,-0.1065 Q 0.6,-0.525 0.6615,-0.525 q 0.0552,0 0.0873,0.0355 0.0321,0.0356 0.0321,0.0966 z M 0.736,-0.4061 q -5e-4,-0.0368 -0.0207,-0.0588 -0.0201,-0.022 -0.0533,-0.022 -0.0376,0 -0.0602,0.0212 -0.0226,0.0213 -0.026,0.0599 l 0.1602,-3e-4 z m 0.163,-0.1899 0,0.0776 0.0926,0 0,0.0349 -0.0926,0 0,0.1485 q 0,0.0334 0.0092,0.0429 0.0092,0.0096 0.0372,0.0096 l 0.0462,0 0,0.0376 -0.0462,0 q -0.052,0 -0.0717,-0.0195 Q 0.8539,-0.2838 0.8539,-0.335 l 0,-0.1485 -0.033,0 0,-0.0349 0.033,0 0,-0.0776 0.0451,0 z" />
  </g>
  <rect
     height="125"
     width="81.25"
     x="19.75"
     y="1.5"
     id="rect71"
     style="font-size:0.5px;fill:#ffffff;stroke:none;font-family:sans-serif" />
  <rect
     height="125"
     width="81.25"
     x="19.75"
     y="1.5"
     id="rect73"
     style="font-size:0.5px;fill:none;stroke:#000000;stroke-width:3;font-family:sans-serif" />
  <line
     x1="126"
     x2="101"
     y1="64"
     y2="64"
     id="line75"
     style="font-size:0.5px;fill:none;stroke:#000000;stroke-width:2;font-family:sans-serif" />
  <line
     x1="1"
     x2="19.75"
     y1="26.5"
     y2="26.5"
     id="line77"
     style="font-size:0.5px;fill:none;stroke:#000000;stroke-width:2;font-family:sans-serif" />
  <line
     x1="1"
     x2="19.75"
     y1="51.5"
     y2="51.5"
     id="line79"
     style="font-size:0.5px;fill:none;stroke:#000000;stroke-width:2;font-family:sans-serif" />
  <line
     x1="1"
     x2="19.75"
     y1="76.5"
     y2="76.5"
     id="line81"
     style="font-size:0.5px;fill:none;stroke:#000000;stroke-width:2;font-family:sans-serif" />
  <line
     x1="1"
     x2="19.75"
     y1="101.5"
     y2="101.5"
     id="line83"
     style="font-size:0.5px;fill:none;stroke:#000000;stroke-width:2;font-family:sans-serif" />
  <g
     style="font-size:0.5px;stroke-width:0.04;font-family:sans-serif"
     id="g95"
     transform="matrix(50,0,0,50,44.75,76.5)"
     font-size="0.5">
    <path
       style="stroke:none"
       inkscape:connector-curvature="0"
       id="path97"
       d="m 0.1591,-0.4702 0,0.0481 Q 0.131,-0.4355 0.1061,-0.4421 0.0812,-0.4487 0.058,-0.4487 q -0.0403,0 -0.0621,0.0156 -0.0219,0.0156 -0.0219,0.0445 0,0.0241 0.0145,0.0365 0.0146,0.0123 0.0551,0.0199 l 0.0298,0.0061 q 0.0551,0.0105 0.0814,0.037 0.0262,0.0264 0.0262,0.0709 0,0.053 -0.0355,0.0803 -0.0355,0.0273 -0.1041,0.0273 -0.0259,0 -0.0551,-0.0058 -0.0291,-0.0059 -0.0604,-0.0173 l 0,-0.0508 q 0.03,0.0168 0.0588,0.0254 0.0289,0.0085 0.0567,0.0085 0.0422,0 0.0652,-0.0166 0.0229,-0.0166 0.0229,-0.0474 0,-0.0268 -0.0165,-0.042 Q 0.0966,-0.2717 0.059,-0.2793 L 0.0289,-0.2851 q -0.0551,-0.011 -0.0798,-0.0344 -0.0247,-0.0235 -0.0247,-0.0652 0,-0.0484 0.0341,-0.0762 0.0341,-0.0278 0.0939,-0.0278 0.0256,0 0.0522,0.0046 0.0266,0.0046 0.0545,0.0139 z m 0.3308,0.2046 0,0.022 -0.2066,0 q 0.003,0.0464 0.028,0.0707 0.025,0.0243 0.0697,0.0243 0.0259,0 0.0502,-0.0064 0.0242,-0.0063 0.0482,-0.019 l 0,0.0424 q -0.0242,0.0103 -0.0496,0.0157 -0.0254,0.0053 -0.0515,0.0053 -0.0654,0 -0.1036,-0.038 -0.0382,-0.0381 -0.0382,-0.1031 0,-0.0671 0.0362,-0.1065 0.0363,-0.0395 0.0978,-0.0395 0.0552,0 0.0873,0.0356 0.0321,0.0355 0.0321,0.0965 z m -0.045,-0.0132 q -4e-4,-0.0368 -0.0206,-0.0588 -0.0201,-0.022 -0.0533,-0.022 -0.0376,0 -0.0602,0.0213 -0.0226,0.0212 -0.026,0.0598 l 0.1601,-3e-4 z m 0.1631,-0.1899 0,0.0776 0.0926,0 0,0.0349 -0.0926,0 0,0.1485 q 0,0.0334 0.0092,0.0429 0.0091,0.0096 0.0372,0.0096 l 0.0462,0 0,0.0376 -0.0462,0 q -0.052,0 -0.0718,-0.0194 -0.0197,-0.0195 -0.0197,-0.0707 l 0,-0.1485 -0.033,0 0,-0.0349 0.033,0 0,-0.0776 0.0451,0 z" />
  </g>
  <g
     style="font-size:0.5px;stroke-width:0.04;font-family:sans-serif"
     id="g99"
     transform="matrix(50,0,0,50,476,451.5)"
     font-size="0.5">
    <line
       style="fill:none"
       id="line101"
       y2="-6.125"
       y1="-6.125"
       x2="-4.8899999"
       x1="-5" />
  </g>
  <g
     style="font-size:0.5px;stroke-width:0.04;font-family:sans-serif"
     id="g103"
     transform="matrix(50,0,0,50,476,451.5)"
     font-size="0.5">
    <path
       style="fill:none"
       inkscape:connector-curvature="0"
       id="path105"
       d="m -4.89,-6.125 0.24,0" />
    <path
       style="stroke:none"
       inkscape:connector-curvature="0"
       id="path107"
       d="m -4.65,-6.2 0,0.15 0,-0.075 z" />
  </g>
  <g
     style="font-size:0.5px;stroke-width:0.04;font-family:sans-serif"
     id="g109"
     transform="matrix(50,0,0,50,476,451.5)"
     font-size="0.5">
    <line
       style="fill:none"
       id="line111"
       y2="-4.8600001"
       y1="-4.75"
       x2="-7"
       x1="-7" />
    <line
       style="fill:none"
       id="line113"
       y2="-5.875"
       y1="-5.7649999"
       x2="-7"
       x1="-7" />
  </g>
  <g
     style="font-size:0.5px;stroke-width:0.04;font-family:sans-serif"
     id="g115"
     transform="matrix(50,0,0,50,476,451.5)"
     font-size="0.5">
    <path
       style="fill:none"
       inkscape:connector-curvature="0"
       id="path117"
       d="m -7,-4.86 0,-0.905" />
    <path
       style="stroke:none"
       inkscape:connector-curvature="0"
       id="path119"
       d="m -7.075,-5.765 0.15,0 -0.075,0 z" />
  </g>
  <g
     style="font-size:0.5px;stroke-width:0.04;font-family:sans-serif"
     id="g121"
     transform="matrix(50,0,0,50,476,451.5)"
     font-size="0.5">
    <line
       style="fill:none"
       id="line123"
       y2="-7.6399999"
       y1="-7.75"
       x2="-7"
       x1="-7" />
    <line
       style="fill:none"
       id="line125"
       y2="-6.375"
       y1="-6.4850001"
       x2="-7"
       x1="-7" />
  </g>
  <g
     style="font-size:0.5px;stroke-width:0.04;font-family:sans-serif"
     id="g127"
     transform="matrix(50,0,0,50,476,451.5)"
     font-size="0.5">
    <path
       style="fill:none"
       inkscape:connector-curvature="0"
       id="path129"
       d="m -7,-7.64 0,1.155" />
    <path
       style="stroke:none"
       inkscape:connector-curvature="0"
       id="path131"
       d="m -6.925,-6.485 -0.15,0 0.075,0 z" />
  </g>
</svg>
