<?xml version="1.0" encoding="UTF-8" standalone="no"?>
<svg xmlns:dc="http://purl.org/dc/elements/1.1/" xmlns:cc="http://creativecommons.org/ns#" xmlns:rdf="http://www.w3.org/1999/02/22-rdf-syntax-ns#" xmlns:svg="http://www.w3.org/2000/svg" xmlns="http://www.w3.org/2000/svg" xmlns:sodipodi="http://sodipodi.sourceforge.net/DTD/sodipodi-0.dtd" xmlns:inkscape="http://www.inkscape.org/namespaces/inkscape" color-interpolation="auto" color-rendering="auto" fill="black" fill-opacity="1" font-family="'Dialog'" font-size="12" font-style="normal" font-weight="normal" height="100%" image-rendering="auto" shape-rendering="auto" stroke="black" stroke-dasharray="none" stroke-dashoffset="0" stroke-linecap="square" stroke-linejoin="miter" stroke-miterlimit="10" stroke-opacity="1" stroke-width="1" text-rendering="auto" width="100%" id="svg2" version="1.1" inkscape:version="0.48.4 r9939" sodipodi:docname="circuit-buck-cg-feedback.svg" inkscape:export-filename="/home/danil/circuit-buck-cg-feedback.png" inkscape:export-xdpi="45" inkscape:export-ydpi="45" viewBox="0 0 462 238" preserveAspectRatio="xMidYMid slice">
  <metadata
     id="metadata241">
    <rdf:RDF>
      <cc:Work
         rdf:about="">
        <dc:format>image/svg+xml</dc:format>
        <dc:type
           rdf:resource="http://purl.org/dc/dcmitype/StillImage" />
        <dc:title></dc:title>
      </cc:Work>
    </rdf:RDF>
  </metadata>
  <sodipodi:namedview
     pagecolor="#ffffff"
     bordercolor="#666666"
     borderopacity="1"
     objecttolerance="10"
     gridtolerance="10"
     guidetolerance="10"
     inkscape:pageopacity="0"
     inkscape:pageshadow="2"
     inkscape:window-width="640"
     inkscape:window-height="480"
     id="namedview239"
     showgrid="false"
     inkscape:zoom="0.7012987"
     inkscape:cx="231"
     inkscape:cy="119"
     inkscape:window-x="0"
     inkscape:window-y="24"
     inkscape:window-maximized="0"
     inkscape:current-layer="svg2" />
  <!--Generated by the Batik Graphics2D SVG Generator-->
  <defs
     id="genericDefs" />
  <g
     id="g5">
    <g
       fill="white"
       stroke="white"
       stroke-width="0.06"
       transform="matrix(50,0,0,50,272.7446,58.6789) translate(-0.8125,-0.5)"
       id="g7">
      <path
         d="M-0.35 -0.5 C0.15 -0.5 0.5 -0.25 0.65 0 C0.5 0.25 0.15 0.5 -0.35 0.5 Q-0.0167 0 -0.35 -0.5 Z"
         stroke="none"
         id="path9" />
    </g>
    <g
       stroke-width="0.06"
       transform="matrix(50,0,0,50,272.7446,58.6789) translate(-0.8125,-0.5)"
       id="g11">
      <path
         d="M-0.35 -0.5 C0.15 -0.5 0.5 -0.25 0.65 0 C0.5 0.25 0.15 0.5 -0.35 0.5 Q-0.0167 0 -0.35 -0.5 Z"
         fill="none"
         id="path13" />
      <circle
         cx="0"
         cy="0"
         fill="white"
         r="0.15"
         stroke="none"
         transform="translate(-0.375,0.25)"
         id="circle15"
         d="M 0.15000001,0 C 0.15000001,0.08284272 0.08284272,0.15000001 0,0.15000001 -0.08284272,0.15000001 -0.15000001,0.08284272 -0.15000001,0 c 0,-0.08284272 0.06715729,-0.15000001 0.15000001,-0.15000001 0.08284272,0 0.15000001,0.06715729 0.15000001,0.15000001 z" />
      <circle
         cx="0"
         cy="0"
         fill="none"
         r="0.15"
         transform="translate(-0.375,0.25)"
         id="circle17"
         d="M 0.15000001,0 C 0.15000001,0.08284272 0.08284272,0.15000001 0,0.15000001 -0.08284272,0.15000001 -0.15000001,0.08284272 -0.15000001,0 c 0,-0.08284272 0.06715729,-0.15000001 0.15000001,-0.15000001 0.08284272,0 0.15000001,0.06715729 0.15000001,0.15000001 z" />
      <path
         d="M-0.35 -0.5 C0.15 -0.5 0.5 -0.25 0.65 0 C0.5 0.25 0.15 0.5 -0.35 0.5 Q-0.0167 0 -0.35 -0.5 Z"
         fill="white"
         stroke="none"
         transform="translate(0,1)"
         id="path19" />
      <path
         d="M-0.35 -0.5 C0.15 -0.5 0.5 -0.25 0.65 0 C0.5 0.25 0.15 0.5 -0.35 0.5 Q-0.0167 0 -0.35 -0.5 Z"
         fill="none"
         transform="translate(0,1)"
         id="path21" />
      <circle
         cx="0"
         cy="0"
         fill="white"
         r="0.15"
         stroke="none"
         transform="translate(-0.375,1.25)"
         id="circle23"
         d="M 0.15000001,0 C 0.15000001,0.08284272 0.08284272,0.15000001 0,0.15000001 -0.08284272,0.15000001 -0.15000001,0.08284272 -0.15000001,0 c 0,-0.08284272 0.06715729,-0.15000001 0.15000001,-0.15000001 0.08284272,0 0.15000001,0.06715729 0.15000001,0.15000001 z" />
      <circle
         cx="0"
         cy="0"
         fill="none"
         r="0.15"
         transform="translate(-0.375,1.25)"
         id="circle25"
         d="M 0.15000001,0 C 0.15000001,0.08284272 0.08284272,0.15000001 0,0.15000001 -0.08284272,0.15000001 -0.15000001,0.08284272 -0.15000001,0 c 0,-0.08284272 0.06715729,-0.15000001 0.15000001,-0.15000001 0.08284272,0 0.15000001,0.06715729 0.15000001,0.15000001 z" />
      <path
         d="M-0.0125 -1 L0.4875 -1 C1.9875 -1 1.9875 1 0.4875 1 L-0.0125 1 Z"
         fill="white"
         stroke="none"
         transform="translate(0.6625,0.5)"
         id="path27" />
      <path
         d="M-0.0125 -1 L0.4875 -1 C1.9875 -1 1.9875 1 0.4875 1 L-0.0125 1 Z"
         fill="none"
         transform="translate(0.6625,0.5)"
         id="path29" />
      <circle
         cx="0"
         cy="0"
         fill="white"
         r="0.15"
         stroke="none"
         transform="translate(2.275,0.5)"
         id="circle31"
         d="M 0.15000001,0 C 0.15000001,0.08284272 0.08284272,0.15000001 0,0.15000001 -0.08284272,0.15000001 -0.15000001,0.08284272 -0.15000001,0 c 0,-0.08284272 0.06715729,-0.15000001 0.15000001,-0.15000001 0.08284272,0 0.15000001,0.06715729 0.15000001,0.15000001 z" />
      <circle
         cx="0"
         cy="0"
         fill="none"
         r="0.15"
         transform="translate(2.275,0.5)"
         id="circle33"
         d="M 0.15000001,0 C 0.15000001,0.08284272 0.08284272,0.15000001 0,0.15000001 -0.08284272,0.15000001 -0.15000001,0.08284272 -0.15000001,0 c 0,-0.08284272 0.06715729,-0.15000001 0.15000001,-0.15000001 0.08284272,0 0.15000001,0.06715729 0.15000001,0.15000001 z" />
      <line
         fill="none"
         stroke-width="0.04"
         transform="translate(0.8125,0.5)"
         x1="1.6125"
         x2="2"
         y1="0"
         y2="0"
         id="line35" />
      <line
         fill="none"
         stroke-width="0.04"
         transform="translate(0.8125,0.5)"
         x1="-1.0375"
         x2="-2"
         y1="-0.75"
         y2="-0.75"
         id="line37" />
      <line
         fill="none"
         stroke-width="0.04"
         transform="translate(0.8125,0.5)"
         x1="-1.3375"
         x2="-2"
         y1="-0.25"
         y2="-0.25"
         id="line39" />
      <line
         fill="none"
         stroke-width="0.04"
         transform="translate(0.8125,0.5)"
         x1="-1.0375"
         x2="-2"
         y1="0.25"
         y2="0.25"
         id="line41" />
      <line
         fill="none"
         stroke-width="0.04"
         transform="translate(0.8125,0.5)"
         x1="-1.3375"
         x2="-2"
         y1="0.75"
         y2="0.75"
         id="line43" />
    </g>
    <g
       stroke-width="0.04"
       transform="matrix(50,0,0,50,372.7446,58.6789)"
       id="g45">
      <circle
         cx="0"
         cy="0"
         r="0.125"
         stroke="none"
         id="circle47"
         d="M 0.125,0 C 0.125,0.06903559 0.06903559,0.125 0,0.125 -0.06903559,0.125 -0.125,0.06903559 -0.125,0 c 0,-0.06903559 0.05596441,-0.125 0.125,-0.125 0.06903559,0 0.125,0.05596441 0.125,0.125 z" />
    </g>
    <g
       fill="white"
       stroke="white"
       stroke-width="0.06"
       transform="matrix(50,0,0,50,297.7446,196.1789) translate(-0.15,0)"
       id="g49">
      <path
         d="M-0.6 -0.75 C0.15 -0.75 0.675 -0.375 0.9 0 C0.675 0.375 0.15 0.75 -0.6 0.75 Q-0.1 0 -0.6 -0.75 Z"
         stroke="none"
         id="path51" />
      <path
         d="M-0.6 -0.75 C0.15 -0.75 0.675 -0.375 0.9 0 C0.675 0.375 0.15 0.75 -0.6 0.75 Q-0.1 0 -0.6 -0.75 Z"
         fill="none"
         stroke="black"
         id="path53" />
      <circle
         cx="0"
         cy="0"
         r="0.15"
         stroke="none"
         transform="translate(0.9,0)"
         id="circle55"
         d="M 0.15000001,0 C 0.15000001,0.08284272 0.08284272,0.15000001 0,0.15000001 -0.08284272,0.15000001 -0.15000001,0.08284272 -0.15000001,0 c 0,-0.08284272 0.06715729,-0.15000001 0.15000001,-0.15000001 0.08284272,0 0.15000001,0.06715729 0.15000001,0.15000001 z" />
      <circle
         cx="0"
         cy="0"
         fill="none"
         r="0.15"
         stroke="black"
         transform="translate(0.9,0)"
         id="circle57"
         d="M 0.15000001,0 C 0.15000001,0.08284272 0.08284272,0.15000001 0,0.15000001 -0.08284272,0.15000001 -0.15000001,0.08284272 -0.15000001,0 c 0,-0.08284272 0.06715729,-0.15000001 0.15000001,-0.15000001 0.08284272,0 0.15000001,0.06715729 0.15000001,0.15000001 z" />
      <line
         fill="none"
         stroke="black"
         stroke-width="0.04"
         transform="translate(0.15,0)"
         x1="0.9"
         x2="1.5"
         y1="0"
         y2="0"
         id="line59" />
      <line
         fill="none"
         stroke="black"
         stroke-width="0.04"
         transform="translate(0.15,0)"
         x1="-0.6111"
         x2="-1.5"
         y1="-0.5"
         y2="-0.5"
         id="line61" />
      <line
         fill="none"
         stroke="black"
         stroke-width="0.04"
         transform="translate(0.15,0)"
         x1="-0.5"
         x2="-1.5"
         y1="0"
         y2="0"
         id="line63" />
      <line
         fill="none"
         stroke="black"
         stroke-width="0.04"
         transform="translate(0.15,0)"
         x1="-0.6111"
         x2="-1.5"
         y1="0.5"
         y2="0.5"
         id="line65" />
    </g>
    <g
       fill="white"
       stroke="white"
       stroke-width="0.04"
       transform="matrix(50,0,0,50,410.2446,58.6789)"
       id="g67">
      <path
         d="M-0.15 -0.15 L0 -0.15 L0.15 0 L0 0.15 L-0.15 0.15 Z"
         stroke="none"
         id="path69" />
      <path
         d="M-0.15 -0.15 L0 -0.15 L0.15 0 L0 0.15 L-0.15 0.15 Z"
         fill="none"
         stroke="black"
         id="path71" />
    </g>
    <g
       fill="blue"
       font-family="sans-serif"
       font-size="0.5"
       font-style="italic"
       stroke="blue"
       stroke-width="0.04"
       transform="matrix(50,0,0,50,410.2446,58.6789)"
       id="g73">
      <path
         d="M0.5605 -0.0055 Q0.5691 -0.0543 0.5536 -0.0812 Q0.5382 -0.108 0.5018 -0.108 Q0.4657 -0.108 0.4408 -0.0812 Q0.416 -0.0543 0.4074 -0.0055 Q0.3989 0.0431 0.4144 0.07 Q0.4298 0.0968 0.466 0.0968 Q0.5023 0.0968 0.5272 0.07 Q0.552 0.0431 0.5605 -0.0055 ZM0.5869 0.1005 Q0.5747 0.1703 0.5377 0.2044 Q0.5008 0.2384 0.4368 0.2384 Q0.4131 0.2384 0.3927 0.2349 Q0.3724 0.2313 0.3539 0.224 L0.3615 0.1803 Q0.3794 0.1911 0.3978 0.1962 Q0.4162 0.2013 0.4362 0.2013 Q0.4804 0.2013 0.5064 0.1782 Q0.5324 0.1552 0.5406 0.1085 L0.5445 0.0863 Q0.5263 0.1105 0.5025 0.1225 Q0.4787 0.1344 0.4484 0.1344 Q0.3981 0.1344 0.374 0.0961 Q0.35 0.0578 0.3611 -0.0055 Q0.3722 -0.069 0.4096 -0.1073 Q0.4471 -0.1456 0.4974 -0.1456 Q0.5277 -0.1456 0.5473 -0.1337 Q0.567 -0.1217 0.5766 -0.0975 L0.5839 -0.139 L0.6288 -0.139 L0.5869 0.1005 ZM0.7241 0.0934 L0.6987 0.2384 L0.6536 0.2384 L0.7196 -0.139 L0.7648 -0.139 L0.7575 -0.0975 Q0.776 -0.1219 0.7996 -0.1338 Q0.8233 -0.1456 0.8534 -0.1456 Q0.9031 -0.1456 0.9274 -0.1061 Q0.9516 -0.0665 0.9403 -0.0021 Q0.929 0.0624 0.891 0.1019 Q0.8529 0.1415 0.8031 0.1415 Q0.7731 0.1415 0.7535 0.1296 Q0.734 0.1178 0.7241 0.0934 ZM0.8937 -0.0021 Q0.9023 -0.0516 0.8869 -0.0798 Q0.8714 -0.108 0.8358 -0.108 Q0.8001 -0.108 0.7748 -0.0798 Q0.7495 -0.0516 0.7408 -0.0021 Q0.7322 0.0475 0.7476 0.0757 Q0.7631 0.1039 0.7987 0.1039 Q0.8344 0.1039 0.8597 0.0757 Q0.885 0.0475 0.8937 -0.0021 Z"
         stroke="none"
         id="path75" />
    </g>
    <g
       fill="white"
       font-family="sans-serif"
       font-size="0.5"
       font-style="italic"
       stroke="white"
       stroke-width="0.04"
       transform="matrix(50,0,0,50,410.2446,196.1789)"
       id="g77">
      <path
         d="M-0.15 -0.15 L0 -0.15 L0.15 0 L0 0.15 L-0.15 0.15 Z"
         stroke="none"
         id="path79" />
      <path
         d="M-0.15 -0.15 L0 -0.15 L0.15 0 L0 0.15 L-0.15 0.15 Z"
         fill="none"
         stroke="black"
         id="path81" />
    </g>
    <g
       fill="blue"
       font-family="sans-serif"
       font-size="0.5"
       font-style="italic"
       stroke="blue"
       stroke-width="0.04"
       transform="matrix(50,0,0,50,410.2446,196.1789)"
       id="g83">
      <path
         d="M0.5605 -0.0055 Q0.5691 -0.0543 0.5536 -0.0812 Q0.5382 -0.108 0.5018 -0.108 Q0.4657 -0.108 0.4408 -0.0812 Q0.416 -0.0543 0.4074 -0.0055 Q0.3989 0.0431 0.4144 0.07 Q0.4298 0.0968 0.466 0.0968 Q0.5023 0.0968 0.5272 0.07 Q0.552 0.0431 0.5605 -0.0055 ZM0.5869 0.1005 Q0.5747 0.1703 0.5377 0.2044 Q0.5008 0.2384 0.4368 0.2384 Q0.4131 0.2384 0.3927 0.2349 Q0.3724 0.2313 0.3539 0.224 L0.3615 0.1803 Q0.3794 0.1911 0.3978 0.1962 Q0.4162 0.2013 0.4362 0.2013 Q0.4804 0.2013 0.5064 0.1782 Q0.5324 0.1552 0.5406 0.1085 L0.5445 0.0863 Q0.5263 0.1105 0.5025 0.1225 Q0.4787 0.1344 0.4484 0.1344 Q0.3981 0.1344 0.374 0.0961 Q0.35 0.0578 0.3611 -0.0055 Q0.3722 -0.069 0.4096 -0.1073 Q0.4471 -0.1456 0.4974 -0.1456 Q0.5277 -0.1456 0.5473 -0.1337 Q0.567 -0.1217 0.5766 -0.0975 L0.5839 -0.139 L0.6288 -0.139 L0.5869 0.1005 ZM0.9297 -0.0306 L0.9008 0.1344 L0.8559 0.1344 L0.8845 -0.0292 Q0.8913 -0.068 0.8795 -0.0873 Q0.8678 -0.1066 0.8375 -0.1066 Q0.8011 -0.1066 0.776 -0.0834 Q0.751 -0.0602 0.744 -0.0201 L0.7169 0.1344 L0.6718 0.1344 L0.7196 -0.139 L0.7648 -0.139 L0.7574 -0.0965 Q0.7778 -0.1212 0.8018 -0.1334 Q0.8258 -0.1456 0.8543 -0.1456 Q0.9014 -0.1456 0.9205 -0.1164 Q0.9396 -0.0873 0.9297 -0.0306 Z"
         stroke="none"
         id="path85" />
    </g>
    <g
       fill="white"
       font-family="sans-serif"
       font-size="0.5"
       font-style="italic"
       stroke="white"
       stroke-width="0.04"
       transform="matrix(50,0,0,50,110.2446,71.1789)"
       id="g87">
      <path
         d="M-0.15 -0.15 L0 -0.15 L0.15 0 L0 0.15 L-0.15 0.15 Z"
         stroke="none"
         id="path89" />
      <path
         d="M-0.15 -0.15 L0 -0.15 L0.15 0 L0 0.15 L-0.15 0.15 Z"
         fill="none"
         stroke="black"
         id="path91" />
    </g>
    <g
       fill="red"
       font-family="sans-serif"
       font-size="0.5"
       font-style="italic"
       stroke="red"
       stroke-width="0.04"
       transform="matrix(50,0,0,50,110.2446,71.1789)"
       id="g93">
      <path
         d="M-0.7504 -0.1414 Q-0.7865 -0.1414 -0.8125 -0.1133 Q-0.8384 -0.0851 -0.847 -0.036 Q-0.8556 0.0131 -0.8396 0.0413 Q-0.8237 0.0695 -0.7873 0.0695 Q-0.7514 0.0695 -0.7255 0.0412 Q-0.6995 0.0128 -0.691 -0.036 Q-0.6825 -0.0846 -0.6985 -0.113 Q-0.7145 -0.1414 -0.7504 -0.1414 ZM-0.7437 -0.1795 Q-0.6851 -0.1795 -0.6584 -0.1415 Q-0.6316 -0.1034 -0.6434 -0.036 Q-0.6551 0.0311 -0.6952 0.0694 Q-0.7354 0.1076 -0.794 0.1076 Q-0.8528 0.1076 -0.8794 0.0694 Q-0.9061 0.0311 -0.8943 -0.036 Q-0.8825 -0.1034 -0.8426 -0.1415 Q-0.8026 -0.1795 -0.7437 -0.1795 ZM-0.35 -0.1624 L-0.3573 -0.1205 Q-0.3745 -0.131 -0.3928 -0.1362 Q-0.411 -0.1414 -0.4306 -0.1414 Q-0.4743 -0.1414 -0.5033 -0.1137 Q-0.5323 -0.086 -0.5411 -0.036 Q-0.5498 0.0141 -0.5305 0.0418 Q-0.5112 0.0695 -0.4675 0.0695 Q-0.448 0.0695 -0.4279 0.0642 Q-0.4078 0.059 -0.3869 0.0485 L-0.3942 0.09 Q-0.4145 0.0988 -0.4354 0.1032 Q-0.4563 0.1076 -0.479 0.1076 Q-0.5408 0.1076 -0.5704 0.0687 Q-0.6 0.0299 -0.5884 -0.036 Q-0.5767 -0.1029 -0.5333 -0.1412 Q-0.4898 -0.1795 -0.4259 -0.1795 Q-0.4051 -0.1795 -0.3861 -0.1753 Q-0.367 -0.171 -0.35 -0.1624 Z"
         stroke="none"
         id="path95" />
    </g>
    <g
       fill="white"
       font-family="sans-serif"
       font-size="0.5"
       font-style="italic"
       stroke="white"
       stroke-width="0.04"
       transform="matrix(50,0,0,50,110.2446,221.1789)"
       id="g97">
      <path
         d="M-0.15 -0.15 L0 -0.15 L0.15 0 L0 0.15 L-0.15 0.15 Z"
         stroke="none"
         id="path99" />
      <path
         d="M-0.15 -0.15 L0 -0.15 L0.15 0 L0 0.15 L-0.15 0.15 Z"
         fill="none"
         stroke="black"
         id="path101" />
    </g>
    <g
       fill="red"
       font-family="sans-serif"
       font-size="0.5"
       font-style="italic"
       stroke="red"
       stroke-width="0.04"
       transform="matrix(50,0,0,50,110.2446,221.1789)"
       id="g103">
      <path
         d="M-0.8269 -0.1729 L-0.6135 -0.1729 L-0.6207 -0.1319 L-0.8241 0.0646 L-0.6551 0.0646 L-0.6614 0.1005 L-0.8809 0.1005 L-0.8737 0.0595 L-0.6703 -0.1371 L-0.8332 -0.1371 L-0.8269 -0.1729 ZM-0.35 -0.1624 L-0.3573 -0.1205 Q-0.3745 -0.131 -0.3928 -0.1362 Q-0.411 -0.1414 -0.4306 -0.1414 Q-0.4743 -0.1414 -0.5033 -0.1137 Q-0.5323 -0.086 -0.5411 -0.036 Q-0.5498 0.0141 -0.5305 0.0418 Q-0.5112 0.0695 -0.4675 0.0695 Q-0.448 0.0695 -0.4279 0.0642 Q-0.4078 0.059 -0.3869 0.0485 L-0.3942 0.09 Q-0.4145 0.0988 -0.4354 0.1032 Q-0.4563 0.1076 -0.479 0.1076 Q-0.5408 0.1076 -0.5704 0.0687 Q-0.6 0.0299 -0.5884 -0.036 Q-0.5767 -0.1029 -0.5333 -0.1412 Q-0.4898 -0.1795 -0.4259 -0.1795 Q-0.4051 -0.1795 -0.3861 -0.1753 Q-0.367 -0.171 -0.35 -0.1624 Z"
         stroke="none"
         id="path105" />
    </g>
    <g
       fill="white"
       font-family="sans-serif"
       font-size="0.5"
       font-style="italic"
       stroke="white"
       stroke-width="0.04"
       transform="matrix(50,0,0,50,110.2446,171.1789)"
       id="g107">
      <path
         d="M-0.15 -0.15 L0 -0.15 L0.15 0 L0 0.15 L-0.15 0.15 Z"
         stroke="none"
         id="path109" />
      <path
         d="M-0.15 -0.15 L0 -0.15 L0.15 0 L0 0.15 L-0.15 0.15 Z"
         fill="none"
         stroke="black"
         id="path111" />
    </g>
    <g
       fill="red"
       font-family="sans-serif"
       font-size="0.5"
       font-style="italic"
       stroke="red"
       stroke-width="0.04"
       transform="matrix(50,0,0,50,110.2446,171.1789)"
       id="g113">
      <path
         d="M-1.8944 0.0343 Q-1.8858 -0.0145 -1.9013 -0.0413 Q-1.9167 -0.0682 -1.9531 -0.0682 Q-1.9892 -0.0682 -2.0141 -0.0413 Q-2.0389 -0.0145 -2.0475 0.0343 Q-2.056 0.0829 -2.0405 0.1098 Q-2.0251 0.1366 -1.9889 0.1366 Q-1.9526 0.1366 -1.9277 0.1098 Q-1.9029 0.0829 -1.8944 0.0343 ZM-1.868 0.1403 Q-1.8802 0.2101 -1.9172 0.2442 Q-1.9541 0.2782 -2.0181 0.2782 Q-2.0418 0.2782 -2.0622 0.2747 Q-2.0825 0.2712 -2.101 0.2638 L-2.0934 0.2201 Q-2.0755 0.2309 -2.0571 0.236 Q-2.0387 0.2411 -2.0187 0.2411 Q-1.9745 0.2411 -1.9485 0.2181 Q-1.9225 0.195 -1.9143 0.1484 L-1.9104 0.1261 Q-1.9286 0.1503 -1.9524 0.1623 Q-1.9762 0.1742 -2.0065 0.1742 Q-2.0568 0.1742 -2.0808 0.1359 Q-2.1049 0.0976 -2.0938 0.0343 Q-2.0827 -0.0291 -2.0453 -0.0675 Q-2.0078 -0.1058 -1.9575 -0.1058 Q-1.9272 -0.1058 -1.9076 -0.0938 Q-1.8879 -0.0819 -1.8783 -0.0577 L-1.871 -0.0992 L-1.8261 -0.0992 L-1.868 0.1403 ZM-1.7308 0.1332 L-1.7562 0.2782 L-1.8013 0.2782 L-1.7353 -0.0992 L-1.6901 -0.0992 L-1.6974 -0.0577 Q-1.6789 -0.0821 -1.6553 -0.094 Q-1.6316 -0.1058 -1.6015 -0.1058 Q-1.5517 -0.1058 -1.5275 -0.0662 Q-1.5033 -0.0267 -1.5146 0.0378 Q-1.5259 0.1022 -1.5639 0.1418 Q-1.602 0.1813 -1.6518 0.1813 Q-1.6818 0.1813 -1.7013 0.1695 Q-1.7209 0.1576 -1.7308 0.1332 ZM-1.5612 0.0378 Q-1.5526 -0.0118 -1.568 -0.04 Q-1.5835 -0.0682 -1.6191 -0.0682 Q-1.6548 -0.0682 -1.6801 -0.04 Q-1.7054 -0.0118 -1.7141 0.0378 Q-1.7227 0.0873 -1.7073 0.1155 Q-1.6918 0.1437 -1.6562 0.1437 Q-1.6205 0.1437 -1.5952 0.1155 Q-1.5699 0.0873 -1.5612 0.0378 ZM-1.2708 0.2573 L-1.2769 0.2922 L-1.5367 0.2922 L-1.5306 0.2573 L-1.2708 0.2573 ZM-1.0657 0.0368 Q-1.1201 0.0368 -1.1433 0.0492 Q-1.1665 0.0617 -1.1718 0.0917 Q-1.1759 0.1156 -1.1626 0.1297 Q-1.1493 0.1437 -1.1223 0.1437 Q-1.0849 0.1437 -1.0577 0.1172 Q-1.0305 0.0907 -1.0228 0.0468 L-1.021 0.0368 L-1.0657 0.0368 ZM-0.9729 0.0182 L-1.0002 0.1742 L-1.0451 0.1742 L-1.0378 0.1327 Q-1.0575 0.1576 -1.0826 0.1695 Q-1.1076 0.1813 -1.1408 0.1813 Q-1.1828 0.1813 -1.2034 0.1578 Q-1.2241 0.1342 -1.2172 0.0946 Q-1.2091 0.0485 -1.1741 0.0251 Q-1.1391 0.0016 -1.0779 0.0016 L-1.0149 0.0016 L-1.0141 -0.0028 Q-1.0087 -0.0338 -1.0261 -0.0507 Q-1.0435 -0.0677 -1.0804 -0.0677 Q-1.1038 -0.0677 -1.127 -0.0621 Q-1.1502 -0.0565 -1.1727 -0.0452 L-1.1654 -0.0867 Q-1.1391 -0.0963 -1.1151 -0.101 Q-1.091 -0.1058 -1.0691 -0.1058 Q-1.0098 -0.1058 -0.9858 -0.075 Q-0.9619 -0.0443 -0.9729 0.0182 ZM-0.6648 -0.0887 L-0.6722 -0.0467 Q-0.6894 -0.0572 -0.7076 -0.0625 Q-0.7259 -0.0677 -0.7454 -0.0677 Q-0.7891 -0.0677 -0.8181 -0.04 Q-0.8472 -0.0123 -0.8559 0.0378 Q-0.8647 0.0878 -0.8453 0.1155 Q-0.826 0.1432 -0.7823 0.1432 Q-0.7628 0.1432 -0.7427 0.138 Q-0.7226 0.1327 -0.7017 0.1222 L-0.709 0.1637 Q-0.7294 0.1725 -0.7503 0.1769 Q-0.7712 0.1813 -0.7939 0.1813 Q-0.8556 0.1813 -0.8852 0.1425 Q-0.9148 0.1037 -0.9033 0.0378 Q-0.8916 -0.0291 -0.8481 -0.0675 Q-0.8047 -0.1058 -0.7407 -0.1058 Q-0.7199 -0.1058 -0.7009 -0.1015 Q-0.6819 -0.0972 -0.6648 -0.0887 ZM-0.568 -0.2057 L-0.5228 -0.2057 L-0.562 0.0187 L-0.4074 -0.0992 L-0.35 -0.0992 L-0.5174 0.0287 L-0.3917 0.1742 L-0.4503 0.1742 L-0.5659 0.0407 L-0.5893 0.1742 L-0.6344 0.1742 L-0.568 -0.2057 Z"
         stroke="none"
         id="path115" />
    </g>
    <g
       fill="white"
       font-family="sans-serif"
       font-size="0.5"
       font-style="italic"
       stroke="white"
       stroke-width="0.04"
       transform="matrix(50,0,0,50,110.2446,121.1789)"
       id="g117">
      <path
         d="M-0.15 -0.15 L0 -0.15 L0.15 0 L0 0.15 L-0.15 0.15 Z"
         stroke="none"
         id="path119" />
      <path
         d="M-0.15 -0.15 L0 -0.15 L0.15 0 L0 0.15 L-0.15 0.15 Z"
         fill="none"
         stroke="black"
         id="path121" />
    </g>
    <g
       fill="red"
       font-family="sans-serif"
       font-size="0.5"
       font-style="italic"
       stroke="red"
       stroke-width="0.04"
       transform="matrix(50,0,0,50,110.2446,121.1789)"
       id="g123">
      <path
         d="M-0.9344 -0.0097 L-0.9054 -0.1753 L-0.8605 -0.1753 L-0.8892 -0.0114 Q-0.896 0.0274 -0.8842 0.0468 Q-0.8725 0.0662 -0.8422 0.0662 Q-0.8058 0.0662 -0.7807 0.043 Q-0.7555 0.0198 -0.7485 -0.0202 L-0.7213 -0.1753 L-0.6764 -0.1753 L-0.7243 0.0982 L-0.7692 0.0982 L-0.7618 0.0562 Q-0.7826 0.0811 -0.8063 0.0932 Q-0.83 0.1053 -0.8586 0.1053 Q-0.9057 0.1053 -0.925 0.076 Q-0.9443 0.0467 -0.9344 -0.0097 ZM-0.6161 -0.1753 L-0.5685 -0.1753 L-0.5232 0.0542 L-0.3976 -0.1753 L-0.35 -0.1753 L-0.5004 0.0982 L-0.5614 0.0982 L-0.6161 -0.1753 Z"
         stroke="none"
         id="path125" />
    </g>
    <g
       font-family="sans-serif"
       font-size="0.5"
       font-style="italic"
       stroke-width="0.04"
       transform="matrix(50,0,0,50,147.7446,121.1789)"
       id="g127">
      <circle
         cx="0"
         cy="0"
         r="0.125"
         stroke="none"
         id="circle129"
         d="M 0.125,0 C 0.125,0.06903559 0.06903559,0.125 0,0.125 -0.06903559,0.125 -0.125,0.06903559 -0.125,0 c 0,-0.06903559 0.05596441,-0.125 0.125,-0.125 0.06903559,0 0.125,0.05596441 0.125,0.125 z" />
    </g>
    <g
       fill="white"
       font-family="sans-serif"
       font-size="0.5"
       font-style="italic"
       stroke="white"
       stroke-width="0.04"
       transform="matrix(50,0,0,50,110.2446,21.1789)"
       id="g131">
      <path
         d="M-0.15 -0.15 L0 -0.15 L0.15 0 L0 0.15 L-0.15 0.15 Z"
         stroke="none"
         id="path133" />
      <path
         d="M-0.15 -0.15 L0 -0.15 L0.15 0 L0 0.15 L-0.15 0.15 Z"
         fill="none"
         stroke="black"
         id="path135" />
    </g>
    <g
       fill="red"
       font-family="sans-serif"
       font-size="0.5"
       font-style="italic"
       stroke="red"
       stroke-width="0.04"
       transform="matrix(50,0,0,50,110.2446,21.1789)"
       id="g137">
      <path
         d="M-1.8939 0.0343 Q-1.8853 -0.0145 -1.9008 -0.0413 Q-1.9162 -0.0682 -1.9526 -0.0682 Q-1.9887 -0.0682 -2.0136 -0.0413 Q-2.0384 -0.0145 -2.047 0.0343 Q-2.0555 0.0829 -2.04 0.1098 Q-2.0246 0.1366 -1.9885 0.1366 Q-1.9521 0.1366 -1.9272 0.1098 Q-1.9024 0.0829 -1.8939 0.0343 ZM-1.8675 0.1403 Q-1.8797 0.2101 -1.9167 0.2442 Q-1.9537 0.2782 -2.0176 0.2782 Q-2.0413 0.2782 -2.0617 0.2747 Q-2.082 0.2712 -2.1005 0.2638 L-2.0929 0.2201 Q-2.075 0.2309 -2.0566 0.236 Q-2.0382 0.2411 -2.0182 0.2411 Q-1.974 0.2411 -1.948 0.2181 Q-1.922 0.195 -1.9138 0.1484 L-1.91 0.1261 Q-1.9281 0.1503 -1.9519 0.1623 Q-1.9757 0.1742 -2.006 0.1742 Q-2.0563 0.1742 -2.0804 0.1359 Q-2.1044 0.0976 -2.0933 0.0343 Q-2.0822 -0.0291 -2.0448 -0.0675 Q-2.0073 -0.1058 -1.957 -0.1058 Q-1.9267 -0.1058 -1.9071 -0.0938 Q-1.8875 -0.0819 -1.8778 -0.0577 L-1.8705 -0.0992 L-1.8256 -0.0992 L-1.8675 0.1403 ZM-1.5247 0.0092 L-1.5536 0.1742 L-1.5985 0.1742 L-1.5699 0.0107 Q-1.5631 -0.0282 -1.5749 -0.0474 Q-1.5866 -0.0667 -1.6169 -0.0667 Q-1.6533 -0.0667 -1.6784 -0.0435 Q-1.7034 -0.0203 -1.7104 0.0197 L-1.7375 0.1742 L-1.7826 0.1742 L-1.7348 -0.0992 L-1.6896 -0.0992 L-1.697 -0.0567 Q-1.6766 -0.0814 -1.6526 -0.0936 Q-1.6286 -0.1058 -1.6001 -0.1058 Q-1.553 -0.1058 -1.5339 -0.0766 Q-1.5148 -0.0475 -1.5247 0.0092 ZM-1.2708 0.2573 L-1.2769 0.2922 L-1.5367 0.2922 L-1.5306 0.2573 L-1.2708 0.2573 ZM-1.0657 0.0368 Q-1.1201 0.0368 -1.1433 0.0492 Q-1.1665 0.0617 -1.1718 0.0917 Q-1.1759 0.1156 -1.1626 0.1297 Q-1.1493 0.1437 -1.1223 0.1437 Q-1.0849 0.1437 -1.0577 0.1172 Q-1.0305 0.0907 -1.0228 0.0468 L-1.021 0.0368 L-1.0657 0.0368 ZM-0.9729 0.0182 L-1.0002 0.1742 L-1.0451 0.1742 L-1.0378 0.1327 Q-1.0575 0.1576 -1.0826 0.1695 Q-1.1076 0.1813 -1.1408 0.1813 Q-1.1828 0.1813 -1.2034 0.1578 Q-1.2241 0.1342 -1.2172 0.0946 Q-1.2091 0.0485 -1.1741 0.0251 Q-1.1391 0.0016 -1.0779 0.0016 L-1.0149 0.0016 L-1.0141 -0.0028 Q-1.0087 -0.0338 -1.0261 -0.0507 Q-1.0435 -0.0677 -1.0804 -0.0677 Q-1.1038 -0.0677 -1.127 -0.0621 Q-1.1502 -0.0565 -1.1727 -0.0452 L-1.1654 -0.0867 Q-1.1391 -0.0963 -1.1151 -0.101 Q-1.091 -0.1058 -1.0691 -0.1058 Q-1.0098 -0.1058 -0.9858 -0.075 Q-0.9619 -0.0443 -0.9729 0.0182 ZM-0.6648 -0.0887 L-0.6722 -0.0467 Q-0.6894 -0.0572 -0.7076 -0.0625 Q-0.7259 -0.0677 -0.7454 -0.0677 Q-0.7891 -0.0677 -0.8181 -0.04 Q-0.8472 -0.0123 -0.8559 0.0378 Q-0.8647 0.0878 -0.8453 0.1155 Q-0.826 0.1432 -0.7823 0.1432 Q-0.7628 0.1432 -0.7427 0.138 Q-0.7226 0.1327 -0.7017 0.1222 L-0.709 0.1637 Q-0.7294 0.1725 -0.7503 0.1769 Q-0.7712 0.1813 -0.7939 0.1813 Q-0.8556 0.1813 -0.8852 0.1425 Q-0.9148 0.1037 -0.9033 0.0378 Q-0.8916 -0.0291 -0.8481 -0.0675 Q-0.8047 -0.1058 -0.7407 -0.1058 Q-0.7199 -0.1058 -0.7009 -0.1015 Q-0.6819 -0.0972 -0.6648 -0.0887 ZM-0.568 -0.2057 L-0.5228 -0.2057 L-0.562 0.0187 L-0.4074 -0.0992 L-0.35 -0.0992 L-0.5174 0.0287 L-0.3917 0.1742 L-0.4503 0.1742 L-0.5659 0.0407 L-0.5893 0.1742 L-0.6344 0.1742 L-0.568 -0.2057 Z"
         stroke="none"
         id="path139" />
    </g>
    <g
       font-family="sans-serif"
       font-size="0.5"
       font-style="italic"
       stroke-width="0.04"
       transform="matrix(50,0,0,50,210.2446,133.6789)"
       id="g141">
      <line
         fill="none"
         x1="3.25"
         x2="3.36"
         y1="-1.5"
         y2="-1.5"
         id="line143" />
    </g>
    <g
       font-family="sans-serif"
       font-size="0.5"
       font-style="italic"
       stroke-width="0.04"
       transform="matrix(50,0,0,50,210.2446,133.6789)"
       id="g145">
      <path
         d="M3.36 -1.5 L3.85 -1.5"
         fill="none"
         id="path147" />
      <path
         d="M3.85 -1.575 L3.85 -1.425 L3.85 -1.5 Z"
         stroke="none"
         id="path149" />
    </g>
    <g
       font-family="sans-serif"
       font-size="0.5"
       font-style="italic"
       stroke-width="0.04"
       transform="matrix(50,0,0,50,210.2446,133.6789)"
       id="g151">
      <line
         fill="none"
         x1="3.25"
         x2="3.36"
         y1="1.25"
         y2="1.25"
         id="line153" />
    </g>
    <g
       font-family="sans-serif"
       font-size="0.5"
       font-style="italic"
       stroke-width="0.04"
       transform="matrix(50,0,0,50,210.2446,133.6789)"
       id="g155">
      <path
         d="M3.36 1.25 L3.85 1.25"
         fill="none"
         id="path157" />
      <path
         d="M3.85 1.175 L3.85 1.325 L3.85 1.25 Z"
         stroke="none"
         id="path159" />
    </g>
    <g
       font-family="sans-serif"
       font-size="0.5"
       font-style="italic"
       stroke-width="0.04"
       transform="matrix(50,0,0,50,210.2446,133.6789)"
       id="g161">
      <path
         d="M-1.85 -0.25 L-1.375 -0.25"
         fill="none"
         id="path163" />
      <path
         d="M-1.375 -0.325 L-1.375 -0.175 L-1.375 -0.25 Z"
         stroke="none"
         id="path165" />
    </g>
    <g
       font-family="sans-serif"
       font-size="0.5"
       font-style="italic"
       stroke-width="0.04"
       transform="matrix(50,0,0,50,210.2446,133.6789)"
       id="g167">
      <line
         fill="none"
         x1="0.14"
         x2="0.25"
         y1="1.75"
         y2="1.75"
         id="line169" />
    </g>
    <g
       font-family="sans-serif"
       font-size="0.5"
       font-style="italic"
       stroke-width="0.04"
       transform="matrix(50,0,0,50,210.2446,133.6789)"
       id="g171">
      <path
         d="M-1.85 1.75 L0.14 1.75"
         fill="none"
         id="path173" />
      <path
         d="M0.14 1.675 L0.14 1.825 L0.14 1.75 Z"
         stroke="none"
         id="path175" />
    </g>
    <g
       font-family="sans-serif"
       font-size="0.5"
       font-style="italic"
       stroke-width="0.04"
       transform="matrix(50,0,0,50,210.2446,133.6789)"
       id="g177">
      <line
         fill="none"
         x1="-0.86"
         x2="-0.75"
         y1="-1.75"
         y2="-1.75"
         id="line179" />
    </g>
    <g
       font-family="sans-serif"
       font-size="0.5"
       font-style="italic"
       stroke-width="0.04"
       transform="matrix(50,0,0,50,210.2446,133.6789)"
       id="g181">
      <path
         d="M-1.2513 -0.375 L-1.2658 -1.75 L-0.86 -1.75"
         fill="none"
         id="path183" />
      <path
         d="M-0.86 -1.825 L-0.86 -1.675 L-0.86 -1.75 Z"
         stroke="none"
         id="path185" />
    </g>
    <g
       font-family="sans-serif"
       font-size="0.5"
       font-style="italic"
       stroke-width="0.04"
       transform="matrix(50,0,0,50,210.2446,133.6789)"
       id="g187">
      <line
         fill="none"
         x1="-0.86"
         x2="-0.75"
         y1="-2.25"
         y2="-2.25"
         id="line189" />
    </g>
    <g
       font-family="sans-serif"
       font-size="0.5"
       font-style="italic"
       stroke-width="0.04"
       transform="matrix(50,0,0,50,210.2446,133.6789)"
       id="g191">
      <path
         d="M-1.85 -2.25 L-0.86 -2.25"
         fill="none"
         id="path193" />
      <path
         d="M-0.86 -2.325 L-0.86 -2.175 L-0.86 -2.25 Z"
         stroke="none"
         id="path195" />
    </g>
    <g
       font-family="sans-serif"
       font-size="0.5"
       font-style="italic"
       stroke-width="0.04"
       transform="matrix(50,0,0,50,210.2446,133.6789)"
       id="g197">
      <line
         fill="none"
         x1="0.14"
         x2="0.25"
         y1="1.25"
         y2="1.25"
         id="line199" />
    </g>
    <g
       font-family="sans-serif"
       font-size="0.5"
       font-style="italic"
       stroke-width="0.04"
       transform="matrix(50,0,0,50,210.2446,133.6789)"
       id="g201">
      <path
         d="M-1.25 -0.125 L-1.25 1.25 L0.14 1.25"
         fill="none"
         id="path203" />
      <path
         d="M0.14 1.175 L0.14 1.325 L0.14 1.25 Z"
         stroke="none"
         id="path205" />
    </g>
    <g
       font-family="sans-serif"
       font-size="0.5"
       font-style="italic"
       stroke-width="0.04"
       transform="matrix(50,0,0,50,210.2446,133.6789)"
       id="g207">
      <line
         fill="none"
         x1="-0.86"
         x2="-0.75"
         y1="-1.25"
         y2="-1.25"
         id="line209" />
    </g>
    <g
       font-family="sans-serif"
       font-size="0.5"
       font-style="italic"
       stroke-width="0.04"
       transform="matrix(50,0,0,50,210.2446,133.6789)"
       id="g211">
      <path
         d="M-1.85 -1.25 L-0.86 -1.25"
         fill="none"
         id="path213" />
      <path
         d="M-0.86 -1.325 L-0.86 -1.175 L-0.86 -1.25 Z"
         stroke="none"
         id="path215" />
    </g>
    <g
       font-family="sans-serif"
       font-size="0.5"
       font-style="italic"
       stroke-width="0.04"
       transform="matrix(50,0,0,50,210.2446,133.6789)"
       id="g217">
      <line
         fill="none"
         x1="0.14"
         x2="0.25"
         y1="0.75"
         y2="0.75"
         id="line219" />
    </g>
    <g
       font-family="sans-serif"
       font-size="0.5"
       font-style="italic"
       stroke-width="0.04"
       transform="matrix(50,0,0,50,210.2446,133.6789)"
       id="g221">
      <path
         d="M-1.85 0.75 L0.14 0.75"
         fill="none"
         id="path223" />
      <path
         d="M0.14 0.675 L0.14 0.825 L0.14 0.75 Z"
         stroke="none"
         id="path225" />
    </g>
    <g
       font-family="sans-serif"
       font-size="0.5"
       font-style="italic"
       stroke-width="0.04"
       transform="matrix(50,0,0,50,210.2446,133.6789)"
       id="g227">
      <line
         fill="none"
         x1="3.25"
         x2="3.25"
         y1="-1.5"
         y2="-1.39"
         id="line229" />
      <line
         fill="none"
         x1="-0.75"
         x2="-0.75"
         y1="-0.64"
         y2="-0.75"
         id="line231" />
    </g>
    <g
       font-family="sans-serif"
       font-size="0.5"
       font-style="italic"
       stroke-width="0.04"
       transform="matrix(50,0,0,50,210.2446,133.6789)"
       id="g233">
      <path
         d="M3.25 -1.39 L3.25 0 L-0.75 0 L-0.75 -0.64"
         fill="none"
         id="path235" />
      <path
         d="M-0.825 -0.64 L-0.675 -0.64 L-0.75 -0.64 Z"
         stroke="none"
         id="path237" />
    </g>
  </g>
</svg>
