<?xml version="1.0" encoding="UTF-8" standalone="no"?>
<svg xmlns:dc="http://purl.org/dc/elements/1.1/" xmlns:cc="http://creativecommons.org/ns#" xmlns:rdf="http://www.w3.org/1999/02/22-rdf-syntax-ns#" xmlns:svg="http://www.w3.org/2000/svg" xmlns="http://www.w3.org/2000/svg" xmlns:sodipodi="http://sodipodi.sourceforge.net/DTD/sodipodi-0.dtd" xmlns:inkscape="http://www.inkscape.org/namespaces/inkscape" color-interpolation="auto" color-rendering="auto" fill="black" fill-opacity="1" font-family="'Dialog'" font-size="12" font-style="normal" font-weight="normal" height="100%" image-rendering="auto" shape-rendering="auto" stroke="black" stroke-dasharray="none" stroke-dashoffset="0" stroke-linecap="square" stroke-linejoin="miter" stroke-miterlimit="10" stroke-opacity="1" stroke-width="1" text-rendering="auto" width="100%" id="svg2" version="1.1" inkscape:version="0.48.4 r9939" sodipodi:docname="circuit-buck-cg-decomposed-rs.svg" inkscape:export-filename="/home/danil/circuit-buck-cg-decomposed-rs.png" inkscape:export-xdpi="45" inkscape:export-ydpi="45" viewBox="0 0 512 245" preserveAspectRatio="xMidYMid slice">
  <metadata
     id="metadata257">
    <rdf:RDF>
      <cc:Work
         rdf:about="">
        <dc:format>image/svg+xml</dc:format>
        <dc:type
           rdf:resource="http://purl.org/dc/dcmitype/StillImage" />
        <dc:title></dc:title>
      </cc:Work>
    </rdf:RDF>
  </metadata>
  <sodipodi:namedview
     pagecolor="#ffffff"
     bordercolor="#666666"
     borderopacity="1"
     objecttolerance="10"
     gridtolerance="10"
     guidetolerance="10"
     inkscape:pageopacity="0"
     inkscape:pageshadow="2"
     inkscape:window-width="640"
     inkscape:window-height="480"
     id="namedview255"
     showgrid="false"
     inkscape:zoom="0.6328125"
     inkscape:cx="256"
     inkscape:cy="122.5"
     inkscape:window-x="0"
     inkscape:window-y="24"
     inkscape:window-maximized="0"
     inkscape:current-layer="svg2" />
  <!--Generated by the Batik Graphics2D SVG Generator-->
  <defs
     id="genericDefs" />
  <g
     id="g5">
    <g
       fill="white"
       stroke="white"
       stroke-width="0.06"
       transform="matrix(50,0,0,50,222.7446,202.653) translate(-0.15,0)"
       id="g7">
      <path
         d="M-0.6 -0.75 C0.15 -0.75 0.675 -0.375 0.9 0 C0.675 0.375 0.15 0.75 -0.6 0.75 Q-0.1 0 -0.6 -0.75 Z"
         stroke="none"
         id="path9" />
    </g>
    <g
       stroke-width="0.06"
       transform="matrix(50,0,0,50,222.7446,202.653) translate(-0.15,0)"
       id="g11">
      <path
         d="M-0.6 -0.75 C0.15 -0.75 0.675 -0.375 0.9 0 C0.675 0.375 0.15 0.75 -0.6 0.75 Q-0.1 0 -0.6 -0.75 Z"
         fill="none"
         id="path13" />
      <circle
         cx="0"
         cy="0"
         fill="white"
         r="0.15"
         stroke="none"
         transform="translate(0.9,0)"
         id="circle15"
         d="M 0.15000001,0 C 0.15000001,0.08284272 0.08284272,0.15000001 0,0.15000001 -0.08284272,0.15000001 -0.15000001,0.08284272 -0.15000001,0 c 0,-0.08284272 0.06715729,-0.15000001 0.15000001,-0.15000001 0.08284272,0 0.15000001,0.06715729 0.15000001,0.15000001 z" />
      <circle
         cx="0"
         cy="0"
         fill="none"
         r="0.15"
         transform="translate(0.9,0)"
         id="circle17"
         d="M 0.15000001,0 C 0.15000001,0.08284272 0.08284272,0.15000001 0,0.15000001 -0.08284272,0.15000001 -0.15000001,0.08284272 -0.15000001,0 c 0,-0.08284272 0.06715729,-0.15000001 0.15000001,-0.15000001 0.08284272,0 0.15000001,0.06715729 0.15000001,0.15000001 z" />
      <line
         fill="none"
         stroke-width="0.04"
         transform="translate(0.15,0)"
         x1="0.9"
         x2="1.5"
         y1="0"
         y2="0"
         id="line19" />
      <line
         fill="none"
         stroke-width="0.04"
         transform="translate(0.15,0)"
         x1="-0.6111"
         x2="-1.25"
         y1="-0.5"
         y2="-0.5"
         id="line21" />
      <line
         fill="none"
         stroke-width="0.04"
         transform="translate(0.15,0)"
         x1="-0.5"
         x2="-1.25"
         y1="0"
         y2="0"
         id="line23" />
      <line
         fill="none"
         stroke-width="0.04"
         transform="translate(0.15,0)"
         x1="-0.6111"
         x2="-1.25"
         y1="0.5"
         y2="0.5"
         id="line25" />
    </g>
    <g
       fill="white"
       stroke="white"
       stroke-width="0.04"
       transform="matrix(50,0,0,50,460.2446,90.153)"
       id="g27">
      <path
         d="M-0.15 -0.15 L0 -0.15 L0.15 0 L0 0.15 L-0.15 0.15 Z"
         stroke="none"
         id="path29" />
      <path
         d="M-0.15 -0.15 L0 -0.15 L0.15 0 L0 0.15 L-0.15 0.15 Z"
         fill="none"
         stroke="black"
         id="path31" />
    </g>
    <g
       fill="blue"
       font-family="sans-serif"
       font-size="0.5"
       font-style="italic"
       stroke="blue"
       stroke-width="0.04"
       transform="matrix(50,0,0,50,460.2446,90.153)"
       id="g33">
      <path
         d="M0.5605 -0.0055 Q0.5691 -0.0543 0.5536 -0.0812 Q0.5382 -0.108 0.5018 -0.108 Q0.4657 -0.108 0.4408 -0.0812 Q0.416 -0.0543 0.4074 -0.0055 Q0.3989 0.0431 0.4144 0.07 Q0.4298 0.0968 0.466 0.0968 Q0.5023 0.0968 0.5272 0.07 Q0.552 0.0431 0.5605 -0.0055 ZM0.5869 0.1005 Q0.5747 0.1703 0.5377 0.2044 Q0.5008 0.2384 0.4368 0.2384 Q0.4131 0.2384 0.3927 0.2349 Q0.3724 0.2313 0.3539 0.224 L0.3615 0.1803 Q0.3794 0.1911 0.3978 0.1962 Q0.4162 0.2013 0.4362 0.2013 Q0.4804 0.2013 0.5064 0.1782 Q0.5324 0.1552 0.5406 0.1085 L0.5445 0.0863 Q0.5263 0.1105 0.5025 0.1225 Q0.4787 0.1344 0.4484 0.1344 Q0.3981 0.1344 0.374 0.0961 Q0.35 0.0578 0.3611 -0.0055 Q0.3722 -0.069 0.4096 -0.1073 Q0.4471 -0.1456 0.4974 -0.1456 Q0.5277 -0.1456 0.5473 -0.1337 Q0.567 -0.1217 0.5766 -0.0975 L0.5839 -0.139 L0.6288 -0.139 L0.5869 0.1005 ZM0.7241 0.0934 L0.6987 0.2384 L0.6536 0.2384 L0.7196 -0.139 L0.7648 -0.139 L0.7575 -0.0975 Q0.776 -0.1219 0.7996 -0.1338 Q0.8233 -0.1456 0.8534 -0.1456 Q0.9031 -0.1456 0.9274 -0.1061 Q0.9516 -0.0665 0.9403 -0.0021 Q0.929 0.0624 0.891 0.1019 Q0.8529 0.1415 0.8031 0.1415 Q0.7731 0.1415 0.7535 0.1296 Q0.734 0.1178 0.7241 0.0934 ZM0.8937 -0.0021 Q0.9023 -0.0516 0.8869 -0.0798 Q0.8714 -0.108 0.8358 -0.108 Q0.8001 -0.108 0.7748 -0.0798 Q0.7495 -0.0516 0.7408 -0.0021 Q0.7322 0.0475 0.7476 0.0757 Q0.7631 0.1039 0.7987 0.1039 Q0.8344 0.1039 0.8597 0.0757 Q0.885 0.0475 0.8937 -0.0021 Z"
         stroke="none"
         id="path35" />
    </g>
    <g
       fill="white"
       font-family="sans-serif"
       font-size="0.5"
       font-style="italic"
       stroke="white"
       stroke-width="0.04"
       transform="matrix(50,0,0,50,460.2446,202.653)"
       id="g37">
      <path
         d="M-0.15 -0.15 L0 -0.15 L0.15 0 L0 0.15 L-0.15 0.15 Z"
         stroke="none"
         id="path39" />
      <path
         d="M-0.15 -0.15 L0 -0.15 L0.15 0 L0 0.15 L-0.15 0.15 Z"
         fill="none"
         stroke="black"
         id="path41" />
    </g>
    <g
       fill="blue"
       font-family="sans-serif"
       font-size="0.5"
       font-style="italic"
       stroke="blue"
       stroke-width="0.04"
       transform="matrix(50,0,0,50,460.2446,202.653)"
       id="g43">
      <path
         d="M0.5605 -0.0055 Q0.5691 -0.0543 0.5536 -0.0812 Q0.5382 -0.108 0.5018 -0.108 Q0.4657 -0.108 0.4408 -0.0812 Q0.416 -0.0543 0.4074 -0.0055 Q0.3989 0.0431 0.4144 0.07 Q0.4298 0.0968 0.466 0.0968 Q0.5023 0.0968 0.5272 0.07 Q0.552 0.0431 0.5605 -0.0055 ZM0.5869 0.1005 Q0.5747 0.1703 0.5377 0.2044 Q0.5008 0.2384 0.4368 0.2384 Q0.4131 0.2384 0.3927 0.2349 Q0.3724 0.2313 0.3539 0.224 L0.3615 0.1803 Q0.3794 0.1911 0.3978 0.1962 Q0.4162 0.2013 0.4362 0.2013 Q0.4804 0.2013 0.5064 0.1782 Q0.5324 0.1552 0.5406 0.1085 L0.5445 0.0863 Q0.5263 0.1105 0.5025 0.1225 Q0.4787 0.1344 0.4484 0.1344 Q0.3981 0.1344 0.374 0.0961 Q0.35 0.0578 0.3611 -0.0055 Q0.3722 -0.069 0.4096 -0.1073 Q0.4471 -0.1456 0.4974 -0.1456 Q0.5277 -0.1456 0.5473 -0.1337 Q0.567 -0.1217 0.5766 -0.0975 L0.5839 -0.139 L0.6288 -0.139 L0.5869 0.1005 ZM0.9297 -0.0306 L0.9008 0.1344 L0.8559 0.1344 L0.8845 -0.0292 Q0.8913 -0.068 0.8795 -0.0873 Q0.8678 -0.1066 0.8375 -0.1066 Q0.8011 -0.1066 0.776 -0.0834 Q0.751 -0.0602 0.744 -0.0201 L0.7169 0.1344 L0.6718 0.1344 L0.7196 -0.139 L0.7648 -0.139 L0.7574 -0.0965 Q0.7778 -0.1212 0.8018 -0.1334 Q0.8258 -0.1456 0.8543 -0.1456 Q0.9014 -0.1456 0.9205 -0.1164 Q0.9396 -0.0873 0.9297 -0.0306 Z"
         stroke="none"
         id="path45" />
    </g>
    <g
       fill="white"
       font-family="sans-serif"
       font-size="0.5"
       font-style="italic"
       stroke="white"
       stroke-width="0.04"
       transform="matrix(50,0,0,50,110.2446,52.653)"
       id="g47">
      <path
         d="M-0.15 -0.15 L0 -0.15 L0.15 0 L0 0.15 L-0.15 0.15 Z"
         stroke="none"
         id="path49" />
      <path
         d="M-0.15 -0.15 L0 -0.15 L0.15 0 L0 0.15 L-0.15 0.15 Z"
         fill="none"
         stroke="black"
         id="path51" />
    </g>
    <g
       fill="red"
       font-family="sans-serif"
       font-size="0.5"
       font-style="italic"
       stroke="red"
       stroke-width="0.04"
       transform="matrix(50,0,0,50,110.2446,52.653)"
       id="g53">
      <path
         d="M-0.7504 -0.1414 Q-0.7865 -0.1414 -0.8125 -0.1133 Q-0.8384 -0.0851 -0.847 -0.036 Q-0.8556 0.0131 -0.8396 0.0413 Q-0.8237 0.0695 -0.7873 0.0695 Q-0.7514 0.0695 -0.7255 0.0412 Q-0.6995 0.0128 -0.691 -0.036 Q-0.6825 -0.0846 -0.6985 -0.113 Q-0.7145 -0.1414 -0.7504 -0.1414 ZM-0.7437 -0.1795 Q-0.6851 -0.1795 -0.6584 -0.1415 Q-0.6316 -0.1034 -0.6434 -0.036 Q-0.6551 0.0311 -0.6952 0.0694 Q-0.7354 0.1076 -0.794 0.1076 Q-0.8528 0.1076 -0.8794 0.0694 Q-0.9061 0.0311 -0.8943 -0.036 Q-0.8825 -0.1034 -0.8426 -0.1415 Q-0.8026 -0.1795 -0.7437 -0.1795 ZM-0.35 -0.1624 L-0.3573 -0.1205 Q-0.3745 -0.131 -0.3928 -0.1362 Q-0.411 -0.1414 -0.4306 -0.1414 Q-0.4743 -0.1414 -0.5033 -0.1137 Q-0.5323 -0.086 -0.5411 -0.036 Q-0.5498 0.0141 -0.5305 0.0418 Q-0.5112 0.0695 -0.4675 0.0695 Q-0.448 0.0695 -0.4279 0.0642 Q-0.4078 0.059 -0.3869 0.0485 L-0.3942 0.09 Q-0.4145 0.0988 -0.4354 0.1032 Q-0.4563 0.1076 -0.479 0.1076 Q-0.5408 0.1076 -0.5704 0.0687 Q-0.6 0.0299 -0.5884 -0.036 Q-0.5767 -0.1029 -0.5333 -0.1412 Q-0.4898 -0.1795 -0.4259 -0.1795 Q-0.4051 -0.1795 -0.3861 -0.1753 Q-0.367 -0.171 -0.35 -0.1624 Z"
         stroke="none"
         id="path55" />
    </g>
    <g
       fill="white"
       font-family="sans-serif"
       font-size="0.5"
       font-style="italic"
       stroke="white"
       stroke-width="0.04"
       transform="matrix(50,0,0,50,110.2446,227.653)"
       id="g57">
      <path
         d="M-0.15 -0.15 L0 -0.15 L0.15 0 L0 0.15 L-0.15 0.15 Z"
         stroke="none"
         id="path59" />
      <path
         d="M-0.15 -0.15 L0 -0.15 L0.15 0 L0 0.15 L-0.15 0.15 Z"
         fill="none"
         stroke="black"
         id="path61" />
    </g>
    <g
       fill="red"
       font-family="sans-serif"
       font-size="0.5"
       font-style="italic"
       stroke="red"
       stroke-width="0.04"
       transform="matrix(50,0,0,50,110.2446,227.653)"
       id="g63">
      <path
         d="M-0.8269 -0.1729 L-0.6135 -0.1729 L-0.6207 -0.1319 L-0.8241 0.0646 L-0.6551 0.0646 L-0.6614 0.1005 L-0.8809 0.1005 L-0.8737 0.0595 L-0.6703 -0.1371 L-0.8332 -0.1371 L-0.8269 -0.1729 ZM-0.35 -0.1624 L-0.3573 -0.1205 Q-0.3745 -0.131 -0.3928 -0.1362 Q-0.411 -0.1414 -0.4306 -0.1414 Q-0.4743 -0.1414 -0.5033 -0.1137 Q-0.5323 -0.086 -0.5411 -0.036 Q-0.5498 0.0141 -0.5305 0.0418 Q-0.5112 0.0695 -0.4675 0.0695 Q-0.448 0.0695 -0.4279 0.0642 Q-0.4078 0.059 -0.3869 0.0485 L-0.3942 0.09 Q-0.4145 0.0988 -0.4354 0.1032 Q-0.4563 0.1076 -0.479 0.1076 Q-0.5408 0.1076 -0.5704 0.0687 Q-0.6 0.0299 -0.5884 -0.036 Q-0.5767 -0.1029 -0.5333 -0.1412 Q-0.4898 -0.1795 -0.4259 -0.1795 Q-0.4051 -0.1795 -0.3861 -0.1753 Q-0.367 -0.171 -0.35 -0.1624 Z"
         stroke="none"
         id="path65" />
    </g>
    <g
       fill="white"
       font-family="sans-serif"
       font-size="0.5"
       font-style="italic"
       stroke="white"
       stroke-width="0.04"
       transform="matrix(50,0,0,50,110.2446,202.653)"
       id="g67">
      <path
         d="M-0.15 -0.15 L0 -0.15 L0.15 0 L0 0.15 L-0.15 0.15 Z"
         stroke="none"
         id="path69" />
      <path
         d="M-0.15 -0.15 L0 -0.15 L0.15 0 L0 0.15 L-0.15 0.15 Z"
         fill="none"
         stroke="black"
         id="path71" />
    </g>
    <g
       fill="red"
       font-family="sans-serif"
       font-size="0.5"
       font-style="italic"
       stroke="red"
       stroke-width="0.04"
       transform="matrix(50,0,0,50,110.2446,202.653)"
       id="g73">
      <path
         d="M-1.8944 0.0343 Q-1.8858 -0.0145 -1.9013 -0.0413 Q-1.9167 -0.0682 -1.9531 -0.0682 Q-1.9892 -0.0682 -2.0141 -0.0413 Q-2.0389 -0.0145 -2.0475 0.0343 Q-2.056 0.0829 -2.0405 0.1098 Q-2.0251 0.1366 -1.9889 0.1366 Q-1.9526 0.1366 -1.9277 0.1098 Q-1.9029 0.0829 -1.8944 0.0343 ZM-1.868 0.1403 Q-1.8802 0.2101 -1.9172 0.2442 Q-1.9541 0.2782 -2.0181 0.2782 Q-2.0418 0.2782 -2.0622 0.2747 Q-2.0825 0.2712 -2.101 0.2638 L-2.0934 0.2201 Q-2.0755 0.2309 -2.0571 0.236 Q-2.0387 0.2411 -2.0187 0.2411 Q-1.9745 0.2411 -1.9485 0.2181 Q-1.9225 0.195 -1.9143 0.1484 L-1.9104 0.1261 Q-1.9286 0.1503 -1.9524 0.1623 Q-1.9762 0.1742 -2.0065 0.1742 Q-2.0568 0.1742 -2.0808 0.1359 Q-2.1049 0.0976 -2.0938 0.0343 Q-2.0827 -0.0291 -2.0453 -0.0675 Q-2.0078 -0.1058 -1.9575 -0.1058 Q-1.9272 -0.1058 -1.9076 -0.0938 Q-1.8879 -0.0819 -1.8783 -0.0577 L-1.871 -0.0992 L-1.8261 -0.0992 L-1.868 0.1403 ZM-1.7308 0.1332 L-1.7562 0.2782 L-1.8013 0.2782 L-1.7353 -0.0992 L-1.6901 -0.0992 L-1.6974 -0.0577 Q-1.6789 -0.0821 -1.6553 -0.094 Q-1.6316 -0.1058 -1.6015 -0.1058 Q-1.5517 -0.1058 -1.5275 -0.0662 Q-1.5033 -0.0267 -1.5146 0.0378 Q-1.5259 0.1022 -1.5639 0.1418 Q-1.602 0.1813 -1.6518 0.1813 Q-1.6818 0.1813 -1.7013 0.1695 Q-1.7209 0.1576 -1.7308 0.1332 ZM-1.5612 0.0378 Q-1.5526 -0.0118 -1.568 -0.04 Q-1.5835 -0.0682 -1.6191 -0.0682 Q-1.6548 -0.0682 -1.6801 -0.04 Q-1.7054 -0.0118 -1.7141 0.0378 Q-1.7227 0.0873 -1.7073 0.1155 Q-1.6918 0.1437 -1.6562 0.1437 Q-1.6205 0.1437 -1.5952 0.1155 Q-1.5699 0.0873 -1.5612 0.0378 ZM-1.2708 0.2573 L-1.2769 0.2922 L-1.5367 0.2922 L-1.5306 0.2573 L-1.2708 0.2573 ZM-1.0657 0.0368 Q-1.1201 0.0368 -1.1433 0.0492 Q-1.1665 0.0617 -1.1718 0.0917 Q-1.1759 0.1156 -1.1626 0.1297 Q-1.1493 0.1437 -1.1223 0.1437 Q-1.0849 0.1437 -1.0577 0.1172 Q-1.0305 0.0907 -1.0228 0.0468 L-1.021 0.0368 L-1.0657 0.0368 ZM-0.9729 0.0182 L-1.0002 0.1742 L-1.0451 0.1742 L-1.0378 0.1327 Q-1.0575 0.1576 -1.0826 0.1695 Q-1.1076 0.1813 -1.1408 0.1813 Q-1.1828 0.1813 -1.2034 0.1578 Q-1.2241 0.1342 -1.2172 0.0946 Q-1.2091 0.0485 -1.1741 0.0251 Q-1.1391 0.0016 -1.0779 0.0016 L-1.0149 0.0016 L-1.0141 -0.0028 Q-1.0087 -0.0338 -1.0261 -0.0507 Q-1.0435 -0.0677 -1.0804 -0.0677 Q-1.1038 -0.0677 -1.127 -0.0621 Q-1.1502 -0.0565 -1.1727 -0.0452 L-1.1654 -0.0867 Q-1.1391 -0.0963 -1.1151 -0.101 Q-1.091 -0.1058 -1.0691 -0.1058 Q-1.0098 -0.1058 -0.9858 -0.075 Q-0.9619 -0.0443 -0.9729 0.0182 ZM-0.6648 -0.0887 L-0.6722 -0.0467 Q-0.6894 -0.0572 -0.7076 -0.0625 Q-0.7259 -0.0677 -0.7454 -0.0677 Q-0.7891 -0.0677 -0.8181 -0.04 Q-0.8472 -0.0123 -0.8559 0.0378 Q-0.8647 0.0878 -0.8453 0.1155 Q-0.826 0.1432 -0.7823 0.1432 Q-0.7628 0.1432 -0.7427 0.138 Q-0.7226 0.1327 -0.7017 0.1222 L-0.709 0.1637 Q-0.7294 0.1725 -0.7503 0.1769 Q-0.7712 0.1813 -0.7939 0.1813 Q-0.8556 0.1813 -0.8852 0.1425 Q-0.9148 0.1037 -0.9033 0.0378 Q-0.8916 -0.0291 -0.8481 -0.0675 Q-0.8047 -0.1058 -0.7407 -0.1058 Q-0.7199 -0.1058 -0.7009 -0.1015 Q-0.6819 -0.0972 -0.6648 -0.0887 ZM-0.568 -0.2057 L-0.5228 -0.2057 L-0.562 0.0187 L-0.4074 -0.0992 L-0.35 -0.0992 L-0.5174 0.0287 L-0.3917 0.1742 L-0.4503 0.1742 L-0.5659 0.0407 L-0.5893 0.1742 L-0.6344 0.1742 L-0.568 -0.2057 Z"
         stroke="none"
         id="path75" />
    </g>
    <g
       fill="white"
       font-family="sans-serif"
       font-size="0.5"
       font-style="italic"
       stroke="white"
       stroke-width="0.04"
       transform="matrix(50,0,0,50,110.2446,152.653)"
       id="g77">
      <path
         d="M-0.15 -0.15 L0 -0.15 L0.15 0 L0 0.15 L-0.15 0.15 Z"
         stroke="none"
         id="path79" />
      <path
         d="M-0.15 -0.15 L0 -0.15 L0.15 0 L0 0.15 L-0.15 0.15 Z"
         fill="none"
         stroke="black"
         id="path81" />
    </g>
    <g
       fill="red"
       font-family="sans-serif"
       font-size="0.5"
       font-style="italic"
       stroke="red"
       stroke-width="0.04"
       transform="matrix(50,0,0,50,110.2446,152.653)"
       id="g83">
      <path
         d="M-0.9344 -0.0097 L-0.9054 -0.1753 L-0.8605 -0.1753 L-0.8892 -0.0114 Q-0.896 0.0274 -0.8842 0.0468 Q-0.8725 0.0662 -0.8422 0.0662 Q-0.8058 0.0662 -0.7807 0.043 Q-0.7555 0.0198 -0.7485 -0.0202 L-0.7213 -0.1753 L-0.6764 -0.1753 L-0.7243 0.0982 L-0.7692 0.0982 L-0.7618 0.0562 Q-0.7826 0.0811 -0.8063 0.0932 Q-0.83 0.1053 -0.8586 0.1053 Q-0.9057 0.1053 -0.925 0.076 Q-0.9443 0.0467 -0.9344 -0.0097 ZM-0.6161 -0.1753 L-0.5685 -0.1753 L-0.5232 0.0542 L-0.3976 -0.1753 L-0.35 -0.1753 L-0.5004 0.0982 L-0.5614 0.0982 L-0.6161 -0.1753 Z"
         stroke="none"
         id="path85" />
    </g>
    <g
       font-family="sans-serif"
       font-size="0.5"
       font-style="italic"
       stroke-width="0.04"
       transform="matrix(50,0,0,50,160.2446,152.653)"
       id="g87">
      <circle
         cx="0"
         cy="0"
         r="0.125"
         stroke="none"
         id="circle89"
         d="M 0.125,0 C 0.125,0.06903559 0.06903559,0.125 0,0.125 -0.06903559,0.125 -0.125,0.06903559 -0.125,0 c 0,-0.06903559 0.05596441,-0.125 0.125,-0.125 0.06903559,0 0.125,0.05596441 0.125,0.125 z" />
    </g>
    <g
       fill="white"
       font-family="sans-serif"
       font-size="0.5"
       font-style="italic"
       stroke="white"
       stroke-width="0.04"
       transform="matrix(50,0,0,50,110.2446,77.653)"
       id="g91">
      <path
         d="M-0.15 -0.15 L0 -0.15 L0.15 0 L0 0.15 L-0.15 0.15 Z"
         stroke="none"
         id="path93" />
      <path
         d="M-0.15 -0.15 L0 -0.15 L0.15 0 L0 0.15 L-0.15 0.15 Z"
         fill="none"
         stroke="black"
         id="path95" />
    </g>
    <g
       fill="red"
       font-family="sans-serif"
       font-size="0.5"
       font-style="italic"
       stroke="red"
       stroke-width="0.04"
       transform="matrix(50,0,0,50,110.2446,77.653)"
       id="g97">
      <path
         d="M-1.8939 0.0343 Q-1.8853 -0.0145 -1.9008 -0.0413 Q-1.9162 -0.0682 -1.9526 -0.0682 Q-1.9887 -0.0682 -2.0136 -0.0413 Q-2.0384 -0.0145 -2.047 0.0343 Q-2.0555 0.0829 -2.04 0.1098 Q-2.0246 0.1366 -1.9885 0.1366 Q-1.9521 0.1366 -1.9272 0.1098 Q-1.9024 0.0829 -1.8939 0.0343 ZM-1.8675 0.1403 Q-1.8797 0.2101 -1.9167 0.2442 Q-1.9537 0.2782 -2.0176 0.2782 Q-2.0413 0.2782 -2.0617 0.2747 Q-2.082 0.2712 -2.1005 0.2638 L-2.0929 0.2201 Q-2.075 0.2309 -2.0566 0.236 Q-2.0382 0.2411 -2.0182 0.2411 Q-1.974 0.2411 -1.948 0.2181 Q-1.922 0.195 -1.9138 0.1484 L-1.91 0.1261 Q-1.9281 0.1503 -1.9519 0.1623 Q-1.9757 0.1742 -2.006 0.1742 Q-2.0563 0.1742 -2.0804 0.1359 Q-2.1044 0.0976 -2.0933 0.0343 Q-2.0822 -0.0291 -2.0448 -0.0675 Q-2.0073 -0.1058 -1.957 -0.1058 Q-1.9267 -0.1058 -1.9071 -0.0938 Q-1.8875 -0.0819 -1.8778 -0.0577 L-1.8705 -0.0992 L-1.8256 -0.0992 L-1.8675 0.1403 ZM-1.5247 0.0092 L-1.5536 0.1742 L-1.5985 0.1742 L-1.5699 0.0107 Q-1.5631 -0.0282 -1.5749 -0.0474 Q-1.5866 -0.0667 -1.6169 -0.0667 Q-1.6533 -0.0667 -1.6784 -0.0435 Q-1.7034 -0.0203 -1.7104 0.0197 L-1.7375 0.1742 L-1.7826 0.1742 L-1.7348 -0.0992 L-1.6896 -0.0992 L-1.697 -0.0567 Q-1.6766 -0.0814 -1.6526 -0.0936 Q-1.6286 -0.1058 -1.6001 -0.1058 Q-1.553 -0.1058 -1.5339 -0.0766 Q-1.5148 -0.0475 -1.5247 0.0092 ZM-1.2708 0.2573 L-1.2769 0.2922 L-1.5367 0.2922 L-1.5306 0.2573 L-1.2708 0.2573 ZM-1.0657 0.0368 Q-1.1201 0.0368 -1.1433 0.0492 Q-1.1665 0.0617 -1.1718 0.0917 Q-1.1759 0.1156 -1.1626 0.1297 Q-1.1493 0.1437 -1.1223 0.1437 Q-1.0849 0.1437 -1.0577 0.1172 Q-1.0305 0.0907 -1.0228 0.0468 L-1.021 0.0368 L-1.0657 0.0368 ZM-0.9729 0.0182 L-1.0002 0.1742 L-1.0451 0.1742 L-1.0378 0.1327 Q-1.0575 0.1576 -1.0826 0.1695 Q-1.1076 0.1813 -1.1408 0.1813 Q-1.1828 0.1813 -1.2034 0.1578 Q-1.2241 0.1342 -1.2172 0.0946 Q-1.2091 0.0485 -1.1741 0.0251 Q-1.1391 0.0016 -1.0779 0.0016 L-1.0149 0.0016 L-1.0141 -0.0028 Q-1.0087 -0.0338 -1.0261 -0.0507 Q-1.0435 -0.0677 -1.0804 -0.0677 Q-1.1038 -0.0677 -1.127 -0.0621 Q-1.1502 -0.0565 -1.1727 -0.0452 L-1.1654 -0.0867 Q-1.1391 -0.0963 -1.1151 -0.101 Q-1.091 -0.1058 -1.0691 -0.1058 Q-1.0098 -0.1058 -0.9858 -0.075 Q-0.9619 -0.0443 -0.9729 0.0182 ZM-0.6648 -0.0887 L-0.6722 -0.0467 Q-0.6894 -0.0572 -0.7076 -0.0625 Q-0.7259 -0.0677 -0.7454 -0.0677 Q-0.7891 -0.0677 -0.8181 -0.04 Q-0.8472 -0.0123 -0.8559 0.0378 Q-0.8647 0.0878 -0.8453 0.1155 Q-0.826 0.1432 -0.7823 0.1432 Q-0.7628 0.1432 -0.7427 0.138 Q-0.7226 0.1327 -0.7017 0.1222 L-0.709 0.1637 Q-0.7294 0.1725 -0.7503 0.1769 Q-0.7712 0.1813 -0.7939 0.1813 Q-0.8556 0.1813 -0.8852 0.1425 Q-0.9148 0.1037 -0.9033 0.0378 Q-0.8916 -0.0291 -0.8481 -0.0675 Q-0.8047 -0.1058 -0.7407 -0.1058 Q-0.7199 -0.1058 -0.7009 -0.1015 Q-0.6819 -0.0972 -0.6648 -0.0887 ZM-0.568 -0.2057 L-0.5228 -0.2057 L-0.562 0.0187 L-0.4074 -0.0992 L-0.35 -0.0992 L-0.5174 0.0287 L-0.3917 0.1742 L-0.4503 0.1742 L-0.5659 0.0407 L-0.5893 0.1742 L-0.6344 0.1742 L-0.568 -0.2057 Z"
         stroke="none"
         id="path99" />
    </g>
    <g
       fill="white"
       font-family="sans-serif"
       font-size="0.5"
       font-style="italic"
       stroke="white"
       stroke-width="0.06"
       transform="matrix(50,0,0,50,185.2446,65.153)"
       id="g101">
      <path
         d="M-0.5 -0.5 C0 -0.5 0.35 -0.25 0.5 0 C0.35 0.25 0 0.5 -0.5 0.5 Q-0.1667 0 -0.5 -0.5 Z"
         stroke="none"
         id="path103" />
      <path
         d="M-0.5 -0.5 C0 -0.5 0.35 -0.25 0.5 0 C0.35 0.25 0 0.5 -0.5 0.5 Q-0.1667 0 -0.5 -0.5 Z"
         fill="none"
         stroke="black"
         id="path105" />
      <line
         fill="none"
         stroke="black"
         stroke-width="0.04"
         x1="0.5"
         x2="1"
         y1="0"
         y2="0"
         id="line107" />
      <line
         fill="none"
         stroke="black"
         stroke-width="0.04"
         x1="-0.375"
         x2="-1"
         y1="-0.25"
         y2="-0.25"
         id="line109" />
      <line
         fill="none"
         stroke="black"
         stroke-width="0.04"
         x1="-0.375"
         x2="-1"
         y1="0.25"
         y2="0.25"
         id="line111" />
    </g>
    <g
       fill="white"
       font-family="sans-serif"
       font-size="0.5"
       font-style="italic"
       stroke="white"
       stroke-width="0.04"
       transform="matrix(50,0,0,50,310.2446,102.653)"
       id="g113">
      <rect
         height="2.25"
         stroke="none"
         width="1.5"
         x="-0.5"
         y="-1.25"
         id="rect115" />
      <rect
         fill="none"
         height="2.25"
         stroke="black"
         stroke-width="0.06"
         width="1.5"
         x="-0.5"
         y="-1.25"
         id="rect117" />
      <line
         fill="none"
         stroke="black"
         x1="1.5"
         x2="1"
         y1="-0.25"
         y2="-0.25"
         id="line119" />
      <line
         fill="none"
         stroke="black"
         x1="-1"
         x2="-0.5"
         y1="-0.75"
         y2="-0.75"
         id="line121" />
      <line
         fill="none"
         stroke="black"
         x1="-1"
         x2="-0.5"
         y1="0.5"
         y2="0.5"
         id="line123" />
      <path
         d="M0.6873 -0.3633 Q0.6336 -0.3633 0.595 -0.3232 Q0.5564 -0.2832 0.5443 -0.2141 Q0.5322 -0.1453 0.5569 -0.1052 Q0.5815 -0.0652 0.6352 -0.0652 Q0.6889 -0.0652 0.7273 -0.1052 Q0.7657 -0.1453 0.7777 -0.2141 Q0.7898 -0.2832 0.7654 -0.3232 Q0.7411 -0.3633 0.6873 -0.3633 ZM0.6997 -0.0388 L0.7522 0.0322 L0.6926 0.0322 L0.6489 -0.0261 Q0.6407 -0.0256 0.6364 -0.0254 Q0.6321 -0.0251 0.6282 -0.0251 Q0.5513 -0.0251 0.5142 -0.0765 Q0.4772 -0.1279 0.4923 -0.2141 Q0.5074 -0.3005 0.5624 -0.3519 Q0.6175 -0.4033 0.6943 -0.4033 Q0.771 -0.4033 0.8079 -0.3519 Q0.8448 -0.3005 0.8297 -0.2141 Q0.8186 -0.1506 0.7852 -0.1055 Q0.7518 -0.0603 0.6997 -0.0388 Z"
         fill="blue"
         stroke="none"
         id="path125" />
      <path
         d="M-0.0482 -0.7387 Q-0.0332 -0.7333 -0.0213 -0.7157 Q-0.0094 -0.6981 0.0004 -0.6674 L0.033 -0.5677 L-0.02 -0.5677 L-0.0502 -0.6612 Q-0.0619 -0.6979 -0.0768 -0.7098 Q-0.0917 -0.7218 -0.121 -0.7218 L-0.1747 -0.7218 L-0.2016 -0.5677 L-0.2509 -0.5677 L-0.1871 -0.9322 L-0.0758 -0.9322 Q-0.0133 -0.9322 0.0129 -0.9061 Q0.0391 -0.88 0.0298 -0.8273 Q0.0238 -0.7928 0.0039 -0.7701 Q-0.0161 -0.7474 -0.0482 -0.7387 ZM-0.1449 -0.8917 L-0.1676 -0.7623 L-0.1055 -0.7623 Q-0.0699 -0.7623 -0.0488 -0.7788 Q-0.0278 -0.7953 -0.0222 -0.8273 Q-0.0166 -0.8592 -0.0319 -0.8755 Q-0.0473 -0.8917 -0.0829 -0.8917 L-0.1449 -0.8917 Z"
         fill="red"
         stroke="none"
         id="path127" />
      <path
         d="M0.0293 0.3365 L0.0209 0.3846 Q-0.0049 0.3712 -0.0286 0.3646 Q-0.0524 0.358 -0.0756 0.358 Q-0.1158 0.358 -0.1404 0.3736 Q-0.165 0.3893 -0.1701 0.4181 Q-0.1743 0.4423 -0.1619 0.4546 Q-0.1495 0.4669 -0.1103 0.4745 L-0.0816 0.4806 Q-0.0283 0.4911 -0.0067 0.5176 Q0.0149 0.5441 0.0072 0.5885 Q-0.0021 0.6415 -0.0424 0.6688 Q-0.0827 0.6962 -0.1513 0.6962 Q-0.1772 0.6962 -0.2054 0.6903 Q-0.2335 0.6844 -0.2627 0.673 L-0.2539 0.6222 Q-0.2268 0.639 -0.1995 0.6476 Q-0.1722 0.6561 -0.1443 0.6561 Q-0.1021 0.6561 -0.0762 0.6395 Q-0.0504 0.6229 -0.045 0.5922 Q-0.0403 0.5653 -0.0541 0.5502 Q-0.068 0.535 -0.1042 0.5275 L-0.1332 0.5216 Q-0.1865 0.5106 -0.207 0.4872 Q-0.2276 0.4637 -0.2203 0.422 Q-0.2118 0.3736 -0.1729 0.3458 Q-0.134 0.318 -0.0742 0.318 Q-0.0485 0.318 -0.0227 0.3226 Q0.0031 0.3273 0.0293 0.3365 Z"
         fill="red"
         stroke="none"
         id="path129" />
    </g>
    <g
       font-family="sans-serif"
       font-size="0.5"
       stroke-width="0.04"
       transform="matrix(50,0,0,50,310.2446,102.653)"
       id="g131">
      <path
         d="M-0.5314 -1.737 Q-0.5155 -1.7316 -0.5005 -1.714 Q-0.4855 -1.6965 -0.4703 -1.6657 L-0.4203 -1.5661 L-0.4733 -1.5661 L-0.5199 -1.6596 Q-0.538 -1.6962 -0.5549 -1.7082 Q-0.5719 -1.7201 -0.6012 -1.7201 L-0.6549 -1.7201 L-0.6549 -1.5661 L-0.7042 -1.5661 L-0.7042 -1.9306 L-0.5929 -1.9306 Q-0.5304 -1.9306 -0.4996 -1.9045 Q-0.4689 -1.8783 -0.4689 -1.8256 Q-0.4689 -1.7912 -0.4849 -1.7685 Q-0.5009 -1.7458 -0.5314 -1.737 ZM-0.6549 -1.8901 L-0.6549 -1.7607 L-0.5929 -1.7607 Q-0.5573 -1.7607 -0.5391 -1.7772 Q-0.5209 -1.7936 -0.5209 -1.8256 Q-0.5209 -1.8576 -0.5391 -1.8738 Q-0.5573 -1.8901 -0.5929 -1.8901 L-0.6549 -1.8901 ZM-0.1845 -1.8315 L-0.1845 -1.789 Q-0.2035 -1.7988 -0.224 -1.8036 Q-0.2445 -1.8085 -0.2665 -1.8085 Q-0.2999 -1.8085 -0.3167 -1.7983 Q-0.3334 -1.788 -0.3334 -1.7675 Q-0.3334 -1.7519 -0.3214 -1.743 Q-0.3095 -1.7341 -0.2733 -1.726 L-0.2579 -1.7226 Q-0.2101 -1.7123 -0.19 -1.6937 Q-0.1698 -1.675 -0.1698 -1.6415 Q-0.1698 -1.6034 -0.2 -1.5812 Q-0.2301 -1.559 -0.2828 -1.559 Q-0.3048 -1.559 -0.3286 -1.5633 Q-0.3524 -1.5676 -0.3788 -1.5761 L-0.3788 -1.6225 Q-0.3539 -1.6095 -0.3297 -1.6031 Q-0.3055 -1.5966 -0.2819 -1.5966 Q-0.2501 -1.5966 -0.233 -1.6075 Q-0.216 -1.6183 -0.216 -1.6381 Q-0.216 -1.6564 -0.2283 -1.6662 Q-0.2406 -1.6759 -0.2824 -1.685 L-0.298 -1.6887 Q-0.3397 -1.6974 -0.3583 -1.7156 Q-0.3768 -1.7338 -0.3768 -1.7656 Q-0.3768 -1.8041 -0.3495 -1.8251 Q-0.3222 -1.8461 -0.2719 -1.8461 Q-0.247 -1.8461 -0.225 -1.8425 Q-0.203 -1.8388 -0.1845 -1.8315 ZM0.0607 -1.946 L0.1056 -1.946 L0.1056 -1.5661 L0.0607 -1.5661 L0.0607 -1.946 ZM0.3238 -1.7035 Q0.2694 -1.7035 0.2484 -1.6911 Q0.2274 -1.6786 0.2274 -1.6486 Q0.2274 -1.6247 0.2432 -1.6106 Q0.2589 -1.5966 0.286 -1.5966 Q0.3234 -1.5966 0.3459 -1.6231 Q0.3685 -1.6496 0.3685 -1.6935 L0.3685 -1.7035 L0.3238 -1.7035 ZM0.4134 -1.7221 L0.4134 -1.5661 L0.3685 -1.5661 L0.3685 -1.6076 Q0.3531 -1.5827 0.3302 -1.5709 Q0.3072 -1.559 0.274 -1.559 Q0.2321 -1.559 0.2073 -1.5826 Q0.1825 -1.6061 0.1825 -1.6457 Q0.1825 -1.6918 0.2134 -1.7153 Q0.2443 -1.7387 0.3055 -1.7387 L0.3685 -1.7387 L0.3685 -1.7431 Q0.3685 -1.7741 0.3481 -1.7911 Q0.3278 -1.808 0.2909 -1.808 Q0.2674 -1.808 0.2452 -1.8024 Q0.223 -1.7968 0.2025 -1.7856 L0.2025 -1.8271 Q0.2272 -1.8366 0.2504 -1.8414 Q0.2736 -1.8461 0.2955 -1.8461 Q0.3548 -1.8461 0.3841 -1.8154 Q0.4134 -1.7846 0.4134 -1.7221 ZM0.5504 -1.9172 L0.5504 -1.8395 L0.6429 -1.8395 L0.6429 -1.8046 L0.5504 -1.8046 L0.5504 -1.6562 Q0.5504 -1.6227 0.5596 -1.6132 Q0.5687 -1.6037 0.5968 -1.6037 L0.6429 -1.6037 L0.6429 -1.5661 L0.5968 -1.5661 Q0.5448 -1.5661 0.525 -1.5855 Q0.5052 -1.6049 0.5052 -1.6562 L0.5052 -1.8046 L0.4723 -1.8046 L0.4723 -1.8395 L0.5052 -1.8395 L0.5052 -1.9172 L0.5504 -1.9172 ZM0.8988 -1.829 L0.8988 -1.787 Q0.8798 -1.7975 0.8606 -1.8028 Q0.8414 -1.808 0.8219 -1.808 Q0.7782 -1.808 0.754 -1.7803 Q0.7299 -1.7526 0.7299 -1.7026 Q0.7299 -1.6525 0.754 -1.6248 Q0.7782 -1.5971 0.8219 -1.5971 Q0.8414 -1.5971 0.8606 -1.6023 Q0.8798 -1.6076 0.8988 -1.6181 L0.8988 -1.5766 Q0.88 -1.5678 0.8599 -1.5634 Q0.8397 -1.559 0.817 -1.559 Q0.7552 -1.559 0.7189 -1.5978 Q0.6825 -1.6367 0.6825 -1.7026 Q0.6825 -1.7695 0.7192 -1.8078 Q0.756 -1.8461 0.8199 -1.8461 Q0.8407 -1.8461 0.8605 -1.8418 Q0.8802 -1.8376 0.8988 -1.829 ZM1.2042 -1.7311 L1.2042 -1.5661 L1.1593 -1.5661 L1.1593 -1.7297 Q1.1593 -1.7685 1.1442 -1.7878 Q1.129 -1.8071 1.0988 -1.8071 Q1.0624 -1.8071 1.0414 -1.7839 Q1.0204 -1.7607 1.0204 -1.7206 L1.0204 -1.5661 L0.9752 -1.5661 L0.9752 -1.946 L1.0204 -1.946 L1.0204 -1.797 Q1.0365 -1.8217 1.0583 -1.8339 Q1.0802 -1.8461 1.1088 -1.8461 Q1.1559 -1.8461 1.1801 -1.8169 Q1.2042 -1.7878 1.2042 -1.7311 Z"
         stroke="none"
         id="path133" />
    </g>
    <g
       font-family="sans-serif"
       font-size="0.5"
       stroke-width="0.02"
       transform="matrix(50,0,0,50,385.2446,90.153)"
       id="g135">
      <path
         d="M0.1 -0.375 L0.2 -0.375 L0.15 -0.525 Z"
         stroke="none"
         id="path137" />
      <line
         fill="none"
         x1="0.15"
         x2="0.15"
         y1="-0.15"
         y2="-0.375"
         id="line139" />
      <path
         d="M0.0625 -0.0015 C0.0665 -0.074 0.067 -0.147 0.067 -0.2195 C0.067 -0.227 0.066 -0.2765 0.0655 -0.305 C0.0655 -0.312 0.0605 -0.3185 0.054 -0.32 L0.0275 -0.3275 L0.028 -0.339 L0.1665 -0.339 C0.213 -0.339 0.268 -0.327 0.268 -0.2695 C0.268 -0.205 0.219 -0.1715 0.1605 -0.1655 L0.1595 -0.1615 C0.203 -0.1125 0.246 -0.062 0.2905 -0.0135 L0.2905 -0.0095 L0.2465 0.003 C0.2035 -0.0495 0.1535 -0.1105 0.1145 -0.153 C0.1125 -0.155 0.1095 -0.1555 0.107 -0.156 C0.107 -0.108 0.107 -0.0595 0.1095 -0.0115 L0.068 0.003 ZM0.111 -0.178 L0.123 -0.178 C0.1735 -0.178 0.219 -0.207 0.219 -0.261 C0.219 -0.3105 0.175 -0.3195 0.1355 -0.3195 C0.1335 -0.3195 0.131 -0.3195 0.129 -0.32 C0.127 -0.32 0.125 -0.32 0.1225 -0.32 C0.108 -0.32 0.1075 -0.3015 0.1075 -0.2905 L0.1065 -0.185 C0.1065 -0.182 0.1075 -0.178 0.111 -0.178 Z"
         stroke="none"
         transform="translate(0.3,-0.15)"
         id="path141" />
      <path
         d="M0.3665 -0.171 C0.3665 -0.1565 0.3545 -0.1445 0.34 -0.1445 C0.3255 -0.1445 0.3135 -0.1565 0.3135 -0.171 C0.3135 -0.1855 0.3255 -0.1975 0.34 -0.1975 C0.3545 -0.1975 0.3665 -0.1855 0.3665 -0.171 Z"
         stroke="none"
         transform="translate(0.3,-0.15)"
         id="path143" />
      <path
         d="M0.389 -0.0435 L0.4175 -0.0765 L0.426 -0.076 C0.436 -0.04 0.4525 -0.0185 0.4925 -0.0185 C0.531 -0.0185 0.564 -0.0495 0.564 -0.0885 C0.564 -0.126 0.5325 -0.1435 0.503 -0.157 C0.4575 -0.178 0.412 -0.1965 0.412 -0.2555 C0.412 -0.3175 0.4595 -0.3505 0.518 -0.3505 C0.5585 -0.3505 0.5875 -0.341 0.606 -0.303 L0.5745 -0.275 L0.5685 -0.276 C0.5595 -0.3105 0.545 -0.3305 0.507 -0.3305 C0.474 -0.3305 0.452 -0.3055 0.452 -0.2735 C0.452 -0.231 0.4955 -0.209 0.528 -0.1925 C0.5675 -0.1725 0.6075 -0.156 0.6075 -0.1045 C0.6075 -0.0365 0.532 0.0075 0.471 0.0075 C0.435 0.0075 0.4025 -0.008 0.389 -0.0435 Z"
         stroke="none"
         transform="translate(0.3,-0.15)"
         id="path145" />
      <line
         fill="none"
         stroke-width="0.025"
         transform="translate(0.3,-0.15)"
         x1="0.0275"
         x2="0.3045"
         y1="-0.4015"
         y2="-0.4015"
         id="line147" />
    </g>
    <g
       font-family="sans-serif"
       font-size="0.5"
       stroke-width="0.02"
       transform="matrix(50,0,0,50,385.2446,90.153)"
       id="g149">
      <path
         d="M0.1 0.342 L0.2 0.342 L0.15 0.492 Z"
         stroke="none"
         id="path151" />
      <line
         fill="none"
         x1="0.15"
         x2="0.15"
         y1="0.342"
         y2="0.117"
         id="line153" />
      <path
         d="M0.0625 -0.0015 C0.0665 -0.074 0.067 -0.147 0.067 -0.2195 C0.067 -0.227 0.066 -0.2765 0.0655 -0.305 C0.0655 -0.312 0.0605 -0.3185 0.054 -0.32 L0.0275 -0.3275 L0.028 -0.339 L0.1665 -0.339 C0.213 -0.339 0.268 -0.327 0.268 -0.2695 C0.268 -0.205 0.219 -0.1715 0.1605 -0.1655 L0.1595 -0.1615 C0.203 -0.1125 0.246 -0.062 0.2905 -0.0135 L0.2905 -0.0095 L0.2465 0.003 C0.2035 -0.0495 0.1535 -0.1105 0.1145 -0.153 C0.1125 -0.155 0.1095 -0.1555 0.107 -0.156 C0.107 -0.108 0.107 -0.0595 0.1095 -0.0115 L0.068 0.003 ZM0.111 -0.178 L0.123 -0.178 C0.1735 -0.178 0.219 -0.207 0.219 -0.261 C0.219 -0.3105 0.175 -0.3195 0.1355 -0.3195 C0.1335 -0.3195 0.131 -0.3195 0.129 -0.32 C0.127 -0.32 0.125 -0.32 0.1225 -0.32 C0.108 -0.32 0.1075 -0.3015 0.1075 -0.2905 L0.1065 -0.185 C0.1065 -0.182 0.1075 -0.178 0.111 -0.178 Z"
         stroke="none"
         transform="translate(0.3,0.492)"
         id="path155" />
    </g>
    <g
       font-family="sans-serif"
       font-size="0.5"
       stroke-width="0.04"
       transform="matrix(50,0,0,50,235.2446,165.153)"
       id="g157">
      <line
         fill="none"
         x1="1.25"
         x2="1.36"
         y1="0.75"
         y2="0.75"
         id="line159" />
    </g>
    <g
       font-family="sans-serif"
       font-size="0.5"
       stroke-width="0.04"
       transform="matrix(50,0,0,50,235.2446,165.153)"
       id="g161">
      <path
         d="M1.36 0.75 L4.35 0.75"
         fill="none"
         id="path163" />
      <path
         d="M4.35 0.675 L4.35 0.825 L4.35 0.75 Z"
         stroke="none"
         id="path165" />
    </g>
    <g
       font-family="sans-serif"
       font-size="0.5"
       stroke-width="0.04"
       transform="matrix(50,0,0,50,235.2446,165.153)"
       id="g167">
      <path
         d="M-2.35 -0.25 L-1.625 -0.25"
         fill="none"
         id="path169" />
      <path
         d="M-1.625 -0.325 L-1.625 -0.175 L-1.625 -0.25 Z"
         stroke="none"
         id="path171" />
    </g>
    <g
       font-family="sans-serif"
       font-size="0.5"
       stroke-width="0.04"
       transform="matrix(50,0,0,50,235.2446,165.153)"
       id="g173">
      <line
         fill="none"
         x1="-1.61"
         x2="-1.5"
         y1="1.25"
         y2="1.25"
         id="line175" />
    </g>
    <g
       font-family="sans-serif"
       font-size="0.5"
       stroke-width="0.04"
       transform="matrix(50,0,0,50,235.2446,165.153)"
       id="g177">
      <path
         d="M-2.35 1.25 L-1.61 1.25"
         fill="none"
         id="path179" />
      <path
         d="M-1.61 1.175 L-1.61 1.325 L-1.61 1.25 Z"
         stroke="none"
         id="path181" />
    </g>
    <g
       font-family="sans-serif"
       font-size="0.5"
       stroke-width="0.04"
       transform="matrix(50,0,0,50,235.2446,165.153)"
       id="g183">
      <line
         fill="none"
         x1="-1.61"
         x2="-1.5"
         y1="0.75"
         y2="0.75"
         id="line185" />
    </g>
    <g
       font-family="sans-serif"
       font-size="0.5"
       stroke-width="0.04"
       transform="matrix(50,0,0,50,235.2446,165.153)"
       id="g187">
      <path
         d="M-2.35 0.75 L-1.61 0.75"
         fill="none"
         id="path189" />
      <path
         d="M-1.61 0.675 L-1.61 0.825 L-1.61 0.75 Z"
         stroke="none"
         id="path191" />
    </g>
    <g
       font-family="sans-serif"
       font-size="0.5"
       stroke-width="0.04"
       transform="matrix(50,0,0,50,235.2446,165.153)"
       id="g193">
      <line
         fill="none"
         x1="-1.5"
         x2="-1.5"
         y1="0.14"
         y2="0.25"
         id="line195" />
    </g>
    <g
       font-family="sans-serif"
       font-size="0.5"
       stroke-width="0.04"
       transform="matrix(50,0,0,50,235.2446,165.153)"
       id="g197">
      <path
         d="M-1.5 -0.125 L-1.5 0.14"
         fill="none"
         id="path199" />
      <path
         d="M-1.425 0.14 L-1.575 0.14 L-1.5 0.14 Z"
         stroke="none"
         id="path201" />
    </g>
    <g
       font-family="sans-serif"
       font-size="0.5"
       stroke-width="0.04"
       transform="matrix(50,0,0,50,235.2446,165.153)"
       id="g203">
      <line
         fill="none"
         x1="3"
         x2="3.11"
         y1="-1.5"
         y2="-1.5"
         id="line205" />
    </g>
    <g
       font-family="sans-serif"
       font-size="0.5"
       stroke-width="0.04"
       transform="matrix(50,0,0,50,235.2446,165.153)"
       id="g207">
      <path
         d="M3.11 -1.5 L4.35 -1.5"
         fill="none"
         id="path209" />
      <path
         d="M4.35 -1.575 L4.35 -1.425 L4.35 -1.5 Z"
         stroke="none"
         id="path211" />
    </g>
    <g
       font-family="sans-serif"
       font-size="0.5"
       stroke-width="0.04"
       transform="matrix(50,0,0,50,235.2446,165.153)"
       id="g213">
      <line
         fill="none"
         x1="0.39"
         x2="0.5"
         y1="-0.75"
         y2="-0.75"
         id="line215" />
    </g>
    <g
       font-family="sans-serif"
       font-size="0.5"
       stroke-width="0.04"
       transform="matrix(50,0,0,50,235.2446,165.153)"
       id="g217">
      <path
         d="M-1.5 -0.375 L-1.5 -0.75 L0.39 -0.75"
         fill="none"
         id="path219" />
      <path
         d="M0.39 -0.825 L0.39 -0.675 L0.39 -0.75 Z"
         stroke="none"
         id="path221" />
    </g>
    <g
       font-family="sans-serif"
       font-size="0.5"
       stroke-width="0.04"
       transform="matrix(50,0,0,50,235.2446,165.153)"
       id="g223">
      <line
         fill="none"
         x1="-2.11"
         x2="-2"
         y1="-2.25"
         y2="-2.25"
         id="line225" />
    </g>
    <g
       font-family="sans-serif"
       font-size="0.5"
       stroke-width="0.04"
       transform="matrix(50,0,0,50,235.2446,165.153)"
       id="g227">
      <path
         d="M-2.35 -2.25 L-2.11 -2.25"
         fill="none"
         id="path229" />
      <path
         d="M-2.11 -2.325 L-2.11 -2.175 L-2.11 -2.25 Z"
         stroke="none"
         id="path231" />
    </g>
    <g
       font-family="sans-serif"
       font-size="0.5"
       stroke-width="0.04"
       transform="matrix(50,0,0,50,235.2446,165.153)"
       id="g233">
      <line
         fill="none"
         x1="0"
         x2="0.11"
         y1="-2"
         y2="-2"
         id="line235" />
      <line
         fill="none"
         x1="0.39"
         x2="0.5"
         y1="-2"
         y2="-2"
         id="line237" />
    </g>
    <g
       font-family="sans-serif"
       font-size="0.5"
       stroke-width="0.04"
       transform="matrix(50,0,0,50,235.2446,165.153)"
       id="g239">
      <path
         d="M0.11 -2 L0.39 -2"
         fill="none"
         id="path241" />
      <path
         d="M0.39 -2.075 L0.39 -1.925 L0.39 -2 Z"
         stroke="none"
         id="path243" />
    </g>
    <g
       font-family="sans-serif"
       font-size="0.5"
       stroke-width="0.04"
       transform="matrix(50,0,0,50,235.2446,165.153)"
       id="g245">
      <line
         fill="none"
         x1="-2.11"
         x2="-2"
         y1="-1.75"
         y2="-1.75"
         id="line247" />
    </g>
    <g
       font-family="sans-serif"
       font-size="0.5"
       stroke-width="0.04"
       transform="matrix(50,0,0,50,235.2446,165.153)"
       id="g249">
      <path
         d="M-2.35 -1.75 L-2.11 -1.75"
         fill="none"
         id="path251" />
      <path
         d="M-2.11 -1.825 L-2.11 -1.675 L-2.11 -1.75 Z"
         stroke="none"
         id="path253" />
    </g>
  </g>
</svg>
